<svg id="Layer_3" data-name="Layer 3" xmlns="http://www.w3.org/2000/svg" viewBox="0 0 682 682"><defs><style>.cls-1{fill:#eeb43d;}.cls-2{fill:#f29727;}.cls-3{fill:#f2ebbf;}.cls-4{fill:#be9168;}.cls-5{fill:#7f6d5d;}</style></defs><path class="cls-1" d="M581.87,659.7l60.26-334.58L340.8,65.34,39.46,335.51l58.19,320S249.36,703.34,581.87,659.7Z"/><path class="cls-2" d="M555,663.07l43.19-367.93a6.48,6.48,0,1,0-12.88-1.51l-43.56,371Q548.36,663.87,555,663.07Z"/><path class="cls-2" d="M472,671.52l39.54-459-9.4-8.11a6.5,6.5,0,0,0-3.36,5.14l-39.88,463C463.24,672.23,467.6,671.89,472,671.52Z"/><path class="cls-2" d="M380.22,677q6.42-.22,13-.51l15.84-552.31-12.66-10.92Z"/><path class="cls-2" d="M279.44,677.47c4.26.13,8.57.24,13,.32L281.93,118.12l-12.76,11.44Z"/><path class="cls-2" d="M203.54,673q6.38.59,13.12,1.13L176.14,213l-12.07,10.82Z"/><path class="cls-2" d="M126.36,662.29c4,.79,8.51,1.62,13.41,2.46L90.13,290.08,78.44,300.56Z"/><path class="cls-3" d="M174.54,670.09S332,685.68,502.89,668c0,0,26.89-295.25-162.1-293S174.54,670.09,174.54,670.09Z"/><path class="cls-4" d="M642.13,348.82C601.6,315.5,367.81,117.3,367.81,117.3s-16.62-14.55-27-14.55S31.15,358.37,31.15,358.37s-20.78,8.31-24.94-16.63-6.23-33.25,14.55-54,66.5-56.11,66.5-56.11l2.08-27L214,109l2.08-16.63,108.06-81s14.55-16.62,33.25,0,106,81.05,106,81.05l1,21.82,122.61,91.44,2.08,18.71,89.36,81S670.19,371.88,642.13,348.82Z"/><path class="cls-5" d="M197.4,672.17s128.94,14.24,286.79-2.08c0,0,31.17-274.32-143.39-272.24S197.4,672.17,197.4,672.17Z"/><path class="cls-3" d="M430.16,311.61a23.89,23.89,0,0,0-47.75-1H297.1a23.88,23.88,0,1,0-41.94,16.62A23.89,23.89,0,1,0,296.57,348h86.37a23.89,23.89,0,1,0,41.41-20.79A23.76,23.76,0,0,0,430.16,311.61Z"/></svg>