<svg xmlns="http://www.w3.org/2000/svg" width="44.882" height="44.882" viewBox="0 0 44.882 44.882">
  <path id="Icon_awesome-info-circle" data-name="Icon awesome-info-circle" d="M23,.563A22.441,22.441,0,1,0,45.444,23,22.444,22.444,0,0,0,23,.563Zm0,9.954a3.8,3.8,0,1,1-3.8,3.8A3.8,3.8,0,0,1,23,10.516ZM28.071,33.5a1.086,1.086,0,0,1-1.086,1.086H19.022A1.086,1.086,0,0,1,17.936,33.5V31.328a1.086,1.086,0,0,1,1.086-1.086h1.086V24.451H19.022a1.086,1.086,0,0,1-1.086-1.086V21.194a1.086,1.086,0,0,1,1.086-1.086h5.791A1.086,1.086,0,0,1,25.9,21.194v9.049h1.086a1.086,1.086,0,0,1,1.086,1.086Z" transform="translate(-0.563 -0.563)" fill="#f6c88d"/>
</svg>
