<svg xmlns="http://www.w3.org/2000/svg" width="107.423" height="95.487" viewBox="0 0 107.423 95.487">
  <path id="Icon_awesome-trophy" data-name="Icon awesome-trophy" d="M102.947,11.936h-19.4V4.476A4.465,4.465,0,0,0,79.075,0H28.348a4.465,4.465,0,0,0-4.476,4.476v7.46H4.476A4.465,4.465,0,0,0,0,16.412V26.856c0,6.658,4.2,13.5,11.544,18.78a43.692,43.692,0,0,0,20.515,7.777c5.856,9.717,12.7,13.726,12.7,13.726V80.567H35.808c-6.583,0-11.936,3.861-11.936,10.444v2.238a2.245,2.245,0,0,0,2.238,2.238h55.2a2.245,2.245,0,0,0,2.238-2.238V91.011c0-6.583-5.353-10.444-11.936-10.444H62.664V67.139s6.844-4.01,12.7-13.726a43.541,43.541,0,0,0,20.515-7.777c7.329-5.278,11.544-12.122,11.544-18.78V16.412A4.465,4.465,0,0,0,102.947,11.936ZM18.519,35.957c-4.551-3.282-6.583-6.938-6.583-9.1V23.872H23.909A66.984,66.984,0,0,0,26.3,39.948,30.055,30.055,0,0,1,18.519,35.957Zm76.968-9.1c0,3-3.3,6.733-6.583,9.1a30.173,30.173,0,0,1-7.8,3.991A66.984,66.984,0,0,0,83.5,23.872H95.487Z" fill="#f6c88d" opacity="0.3"/>
</svg>
