<svg xmlns="http://www.w3.org/2000/svg" viewBox="0 0 682 682"><defs><style>.cls-1{isolation:isolate;}.cls-2{fill:#c98c55;}.cls-3{fill:#ba9368;}.cls-4{fill:#c1a884;}.cls-5{fill:#d9ad77;}.cls-6,.cls-7{fill:#ddc69e;mix-blend-mode:multiply;}.cls-6{opacity:0.3;}.cls-7{opacity:0.5;}.cls-8{fill:#4f3017;}.cls-9{fill:#754c24;}.cls-10{fill:#633d1d;}.cls-11{fill:#b77f48;}</style></defs><g class="cls-1"><g id="Layer_4" data-name="Layer 4"><path class="cls-2" d="M389.87,8.45C385,4.93,380,2.35,374.92,1.32A31.4,31.4,0,0,1,389.87,8.45Z"/><path class="cls-3" d="M354,6.74C353,7.51,352.06,8.2,351.2,9a9.21,9.21,0,0,0-2,1.72,11.86,11.86,0,0,0-1.81,1.8,15.66,15.66,0,0,0-1.63,1.81,14.21,14.21,0,0,0-1.54,1.89c-.43.6-.95,1.29-1.38,1.89a31.21,31.21,0,0,0-2.4,3.86c-.35.69-.69,1.38-1,2a14.46,14.46,0,0,0-.94,2,19.93,19.93,0,0,0-.86,2c-.52,1.12-.95,2.24-1.37,3.35-4.64,13.06-4.56,24-10.92,21.05C314.6,47.2,294.59,44,277.4,57.94s-70.53,16.84-98.8-10.39c0,0-18.64-33.94,26.89-41.5,25,0,65.13,39.43,83,39.78s36.85-6.88,44.76-19A68.08,68.08,0,0,1,354,6.74Z"/><path class="cls-4" d="M355.59,5.71a18.46,18.46,0,0,1-1.64,1l.18-.18C354.64,6.31,355.07,6,355.59,5.71Z"/><path class="cls-2" d="M358.76,3.82c-1.07.5-2.09,1.25-3.15,1.85.32-.21.59-.44.92-.65C357.3,4.59,358,4.16,358.76,3.82Z"/><path class="cls-3" d="M493.31,99.87l-1.12.08c-11.34.52-104.56,3.7-89.18-32.3,9.71-22.51,1.72-46.39-12.28-58.59,7.56,5.67,14.86,13.31,21.3,19.58,11.43,11.09,71.57,5.67,85.92,34S493.31,99.87,493.31,99.87Z"/><path class="cls-5" d="M609.28,632.89c-42.94,20.36-58.07,15-76.29,8.59s-42.94-4.3-99.83,17.18c-90.21,50.42-181.53,1.11-201.89-6.44s-43,8.58-73,18.21C66.92,683.31,69.06,620,79.8,591c-12.88-28-18.3-48.36-18.3-137.45C61.5,307.53,188.31,226.93,199.56,218c5.33-4.27,14.39-14.52,20.51-27.45,4.85-10.19,7.84-22,5.74-33.92a43.24,43.24,0,0,0-5.38-14.57c-17.6-30.16-40.36-90.56-41.74-94.34l-.09-.17c28.27,27.22,72.51,21.1,89.7,7.1s37.94-13.8,51.18-11.09c6.87,1.41,12.14.73,16.77-12.34.44-1.11.86-2.23,1.38-3.34a20,20,0,0,1,.85-2c.27-.69.61-1.3,1-2s.68-1.28,1-2a45.34,45.34,0,0,1,2.4-3.88c.42-.59,1-1.27,1.37-1.88s1-1.28,1.55-1.89,1-1.2,1.64-1.81l1.79-1.8a19.18,19.18,0,0,1,2-1.72c.86-.78,1.79-1.46,2.75-2.23a.69.69,0,0,1,.17-.17c.76-.51,1.54-1,2.4-1.54s1.47-.86,2.23-1.21a37,37,0,0,1,3.88-1.56c.76-.25,1.44-.42,2.13-.59.44-.1.78-.17,1.13-.27a18.52,18.52,0,0,1,1.89-.34A25.72,25.72,0,0,1,372.25,1a2,2,0,0,1,.69.08l2,.27c5.06,1,10.05,3.6,14.94,7.13a3.28,3.28,0,0,0,.86.59c14,12.21,22,36.1,12.28,58.61-15.37,36,77.86,32.81,89.19,32.29l1.12-.07s-8.6,16.4-31.19,43.28a62.46,62.46,0,0,0-11.81,20.89A56.88,56.88,0,0,0,447.6,184,52.87,52.87,0,0,0,451,200.38h0a60.62,60.62,0,0,0,19.61,26.34C626,347.44,594.54,520.07,609.28,562,624.24,605,624.24,618.87,609.28,632.89Z"/><path class="cls-6" d="M509.89,621.71Q492,634.48,477.33,644c-12.2,3.26-26.64,8.07-44.16,14.69-90.21,50.43-181.54,1.11-201.9-6.45a30.29,30.29,0,0,0-7.65-1.8,229.4,229.4,0,0,1-33-28.7C354.56,696.89,417.53,656.08,509.89,621.71Z"/><path class="cls-6" d="M618,590.53c-160.15,18.21-158.86-43.48-220.63-84.71-56-37.29-25.95-29-107.56-67.19s-111.69,12.46-128.88-9,137.47-31.19,154.65-86.17,42.27-47.77,84-66.85,33.08-29.89,13.32-56.53,49.23-76.89,49.23-76.89C450.78,156.57,447,170.83,447.6,184c.69,16.84,9.62,32.39,22.94,42.7,155.33,120.71,124,293.4,138.75,335.32A287.11,287.11,0,0,1,618,590.53Z"/><path class="cls-6" d="M252.23,614.33C220,606.85,176,586.15,152.31,593.79c-15.12,4.9-48.8,13.75-75.77,8.68A77.27,77.27,0,0,1,79.8,591c-12.89-28-18.3-48.37-18.3-137.46,0-4.64.09-9.28.34-13.75,13.49,5.59,29.64,18.73,45.45,47.34,37.55,68.13,39.7,44.16,78.36,64.7s39.26,57,82,48.45S284.45,621.8,252.23,614.33Z"/><path class="cls-6" d="M273.53,183.62s9.6-3.4,2.32-37.26-5-59.58,8.14-47.72,14.18,15.83,14,36.9,10,54,10,54,23.16,40.56.16,77.6-38.27,24.71-23.79.45S268.51,198,273.53,183.62Z"/><path class="cls-6" d="M382.43,212.58s-8.74,1.26-7.89,28.58-5.12,47-14.51,35.86-9.61-14.33-6.09-30.64,0-43.34,0-43.34-13.37-34.8,12.15-60.23,36.62-13.68,20.4,3.07S389,202.19,382.43,212.58Z"/><path class="cls-7" d="M509.55,500.67a233.88,233.88,0,0,1-7.39,36c-.26.78-.43,1.64-.68,2.42A17.2,17.2,0,0,1,485,551.37a19.76,19.76,0,0,1-4.91-.68,17.12,17.12,0,0,1-10.91-9.81,17.35,17.35,0,0,1-.59-11.6,195.71,195.71,0,0,0,4.71-19.49,200.51,200.51,0,0,0,4-36.69,176.72,176.72,0,0,0-2.94-35,121.13,121.13,0,0,0-10.47-32.73,77.73,77.73,0,0,0-5.32-8.93,214.5,214.5,0,0,0-17.71-21.92c-6.62-7.21-13.58-14.08-20.35-21-3.53-3.51-7.06-7-10.49-10.64-9.54-9.71-18.47-19.67-25.61-30.41-8.58-12.9-14.42-26.9-15-42.79a79.65,79.65,0,0,1,4.22-28.35c.34-1.12.68-2.15.93-3.26,1.3-4.39,2.33-8.95,3.44-13.66,1-4.48,2.08-9,3.35-13.68.18-.61.37-1.22.54-1.85-5.46.17-11,.25-16.64.25-4.8,0-9.71-.1-14.61-.17-12.63-.27-25.34-1-37.72-1.89-11.59-.86-22.85-2.06-33.59-3.53-12.71-1.62-24.48-3.68-34.8-5.93a171.13,171.13,0,0,1-24.38-7.12c4.85-10.19,7.84-22,5.74-33.92a16.7,16.7,0,0,1,5.5,1.36,109,109,0,0,0,14.44,4.88,252.82,252.82,0,0,0,36.93,7.06c11.35,1.54,23.47,2.57,35.75,3.34,9,.61,18.13.95,27.15,1.12,11.94.27,23.62.27,34.7-.09,14.44-.42,27.76-1.28,38.92-2.65,15.64-1.7,26.94-4.35,31.11-7.6A56.88,56.88,0,0,0,447.6,184,52.87,52.87,0,0,0,451,200.38c-2.06.59-4.23,1.14-6.5,1.67-6.11,1.45-12.84,2.64-20.09,3.63.17,5.74,2.61,12.28,7.17,18.77.86,1.3,1.79,2.59,2.82,3.87,4.39,5.42,9.89,10.4,15.65,15.55.93.78,1.89,1.64,2.82,2.5,3.7,3.26,7.4,6.52,11,10,1.47,1.37,3,2.92,4.63,4.56A99,99,0,0,1,483,279.35a69.21,69.21,0,0,1,8.61,21,16.09,16.09,0,0,1,.42,3.36,17.21,17.21,0,0,1-13.4,17.17,19.61,19.61,0,0,1-3.79.44,17.12,17.12,0,0,1-15.11-9.2,11.38,11.38,0,0,1-1.47-3.78,1.28,1.28,0,0,1-.17-.51c-1.21-5.32-4-10.74-8.59-16.58a103.07,103.07,0,0,0-9.36-10.05c-2.75-2.58-5.5-5.15-8.42-7.58-.51-.51-1.12-.93-1.64-1.45-7.48-6.69-15.3-13.58-22.24-22-.27-.33-.52-.65-.77-1-.28,1-.57,2-.89,3-.08.17-.08.34-.17.52-3.36,10.64-2.92,19.93.61,29.11,3.26,8.16,8.93,16.25,16.65,25.08,6,6.89,13.24,14.27,21.48,22.44,1,1,2.06,2.06,3.19,3.17,7.48,7.47,15.37,15.64,23,24.41a223.71,223.71,0,0,1,15.8,20,104.08,104.08,0,0,1,6.37,10.39,143.4,143.4,0,0,1,13.66,37,198.67,198.67,0,0,1,4.81,39.17A220.9,220.9,0,0,1,509.55,500.67Z"/><path class="cls-8" d="M476.08,296.81c-10.48,3.7-21.39,6.88-32.3,8.42a10.87,10.87,0,0,1-1.46-3.78,1.16,1.16,0,0,1-.18-.51c-1.2-5.33-4-10.74-8.59-16.58,2.75-.35,5.42-.78,8.08-1.38a73.29,73.29,0,0,0,25.43-10.48,69.12,69.12,0,0,1,8.59,21A14.86,14.86,0,0,1,476.08,296.81Z"/><path class="cls-9" d="M476.08,296.81A17.24,17.24,0,0,1,462.68,314a20.29,20.29,0,0,1-3.78.43,17.14,17.14,0,0,1-15.12-9.2C454.69,303.69,465.6,300.51,476.08,296.81Z"/><path class="cls-10" d="M467.06,272.5A73.29,73.29,0,0,1,441.63,283c-2.66.6-5.33,1-8.08,1.38a109.38,109.38,0,0,0-9.36-10.06c-2.75-2.57-5.5-5.15-8.42-7.56h1.29c12.8-.51,25.69-4.46,35.48-12.71A100,100,0,0,1,467.06,272.5Z"/><path class="cls-9" d="M452.54,254c-9.79,8.25-22.68,12.2-35.48,12.71h-1.29c-.52-.51-1.12-.94-1.63-1.46-7.48-6.7-15.3-13.57-22.26-22-.94-1.2-1.89-2.41-2.75-3.61,3.1.34,6.19.43,9.28.52,8.77.34,17.62.51,26.29-.86a60.49,60.49,0,0,0,9.37-2.32c.94.77,1.89,1.63,2.83,2.49,3.7,3.26,7.39,6.53,11,10C449.36,250.85,450.91,252.4,452.54,254Z"/><path class="cls-8" d="M434.07,237a60.49,60.49,0,0,1-9.37,2.32c-8.67,1.37-17.52,1.2-26.29.86-3.09-.09-6.18-.18-9.28-.52a73.74,73.74,0,0,1-13.23-27c1.38.52,2.75,1,4.21,1.46,8.42,2.5,17.27,2.93,26,3.36a69.41,69.41,0,0,0,9.45.08q1.29,1.93,2.83,3.87C422.81,226.88,428.31,231.86,434.07,237Z"/><path class="cls-10" d="M415.6,217.6a69.41,69.41,0,0,1-9.45-.08c-8.77-.43-17.62-.86-26-3.36-1.46-.43-2.83-.94-4.21-1.46A56.49,56.49,0,0,1,374.53,191a76.71,76.71,0,0,0,34,4v.6C407.69,202.05,410.18,209.87,415.6,217.6Z"/><path class="cls-9" d="M408.55,195a76.71,76.71,0,0,1-34-4v-.17A17.17,17.17,0,0,1,394,176.19,16.93,16.93,0,0,1,408.55,195Z"/><path class="cls-10" d="M486.2,529.82c-.26.77-.43,1.63-.69,2.4A17.15,17.15,0,0,1,469,544.51a19.19,19.19,0,0,1-4.9-.69A17,17,0,0,1,453.21,534a130.7,130.7,0,0,0,17.35-1.46C475.46,531.79,480.79,530.93,486.2,529.82Z"/><path class="cls-8" d="M402.6,201.11A103.54,103.54,0,0,0,397.11,218c-11.26-.69-24.15-7.39-31-13.23a6.33,6.33,0,0,1-.77-.78,102.07,102.07,0,0,1,6.18-17.35,17.16,17.16,0,1,1,31.1,14.52Z"/><path class="cls-9" d="M397.11,218c-.52,2.4-1.12,4.81-1.64,7.21-1.46,6.53-3,13.24-5.24,20.11-.08.17-.08.34-.17.51a65.65,65.65,0,0,1-29.9-13.14c-.51-.43-1.11-.86-1.63-1.38,1.29-4.38,2.32-8.93,3.44-13.66,1-4.46,2.06-9,3.35-13.66a6.33,6.33,0,0,0,.77.78C373,210.56,385.85,217.26,397.11,218Z"/><path class="cls-10" d="M390.66,274.91c-12-.86-23.88-4-34.36-10.23-.95-.6-2-1.2-2.92-1.8a79.43,79.43,0,0,1,4.21-28.35c.34-1.12.68-2.15.94-3.27.52.52,1.12,1,1.63,1.38a65.65,65.65,0,0,0,29.9,13.14C386.71,256.44,387.14,265.72,390.66,274.91Z"/><path class="cls-8" d="M407.33,300c-5.33.86-10.83,1.28-15,2.06-7.9,1.46-15.89,2.66-23.88,3.61-8.59-12.89-14.43-26.89-15-42.79.94.6,2,1.2,2.92,1.8,10.48,6.28,22.33,9.37,34.36,10.23C393.93,283.07,399.6,291.15,407.33,300Z"/><path class="cls-9" d="M432,325.6c-9.11,5.15-21.57,7-31.1,9.11-2.32.51-4.56.94-6.88,1.37-9.53-9.71-18.47-19.67-25.6-30.41,8-.95,16-2.15,23.88-3.61,4.21-.78,9.71-1.2,15-2.06,6,6.87,13.23,14.26,21.48,22.42Z"/><path class="cls-10" d="M455,350c-.08.08-.17.26-.26.34-7.47,9-18.38,15-29.89,17.36-6.62-7.22-13.58-14.09-20.37-21-3.52-3.52-7-7-10.48-10.65,2.32-.43,4.56-.86,6.88-1.37,9.53-2.07,22-4,31.1-9.11C439.46,333.07,447.37,341.23,455,350Z"/><path class="cls-8" d="M477.18,380.41a49.41,49.41,0,0,1-14.78,12.46,55.2,55.2,0,0,1-14.52,5.67,79.08,79.08,0,0,0-5.33-8.94,216.26,216.26,0,0,0-17.69-21.9c11.51-2.41,22.42-8.34,29.89-17.36.09-.08.18-.26.26-.34a227.48,227.48,0,0,1,15.81,20A104.73,104.73,0,0,1,477.18,380.41Z"/><path class="cls-9" d="M490.84,417.44a63.2,63.2,0,0,1-22,11.69,86.5,86.5,0,0,1-10.48,2.14,121.12,121.12,0,0,0-10.48-32.73,55.2,55.2,0,0,0,14.52-5.67,49.41,49.41,0,0,0,14.78-12.46A143.67,143.67,0,0,1,490.84,417.44Z"/><path class="cls-10" d="M495.65,456.62a109.12,109.12,0,0,1-34.37,9.62,176.78,176.78,0,0,0-2.92-35,86.5,86.5,0,0,0,10.48-2.14,63.2,63.2,0,0,0,22-11.69A197.28,197.28,0,0,1,495.65,456.62Z"/><path class="cls-8" d="M495.65,456.62a219.86,219.86,0,0,1-2.06,37.2c-6.19,1.8-12.12,3.18-16.67,4.47-6.44,1.8-13,3.43-19.59,4.64a200.51,200.51,0,0,0,3.95-36.69A109.12,109.12,0,0,0,495.65,456.62Z"/><path class="cls-9" d="M493.59,493.82a232.47,232.47,0,0,1-7.39,36c-5.41,1.11-10.74,2-15.64,2.75A130.7,130.7,0,0,1,453.21,534a17.23,17.23,0,0,1-.6-11.6,196,196,0,0,0,4.72-19.5c6.62-1.21,13.15-2.84,19.59-4.64C481.47,497,487.4,495.62,493.59,493.82Z"/><path class="cls-9" d="M462.1,173.46a17.16,17.16,0,0,1-6.1,10.4c-5.93,4.81-15.38,8.5-27.49,11.34a45.76,45.76,0,0,0,3.61-6.7c5.24-11.43,10.65-23,14-35.06a16.83,16.83,0,0,1,12.46,6.28,13.77,13.77,0,0,1,2.49,4.38A16,16,0,0,1,462.1,173.46Z"/><path class="cls-8" d="M229.79,156a113.08,113.08,0,0,1-13,8.94,96.39,96.39,0,0,1-23.12,10.39,16.88,16.88,0,0,1-.85-15.2,13.81,13.81,0,0,1,1.63-2.92,17,17,0,0,1,20.88-6.1A109.28,109.28,0,0,0,229.79,156Z"/><path class="cls-9" d="M266.73,163.07a343.6,343.6,0,0,1-38.23,27.75,160.33,160.33,0,0,1-26.72-8.08,16.3,16.3,0,0,1-7.82-7c-.08-.17-.17-.26-.26-.43A96.39,96.39,0,0,0,216.82,165a113.08,113.08,0,0,0,13-8.94A252.78,252.78,0,0,0,266.73,163.07Z"/><path class="cls-10" d="M302.47,166.42a35.71,35.71,0,0,1-3.69,3.69c-11,9.88-23.11,18.39-35.48,26.64-12.72-1.64-24.49-3.7-34.8-5.93a343.6,343.6,0,0,0,38.23-27.75C278.07,164.61,290.19,165.65,302.47,166.42Z"/><path class="cls-8" d="M329.62,167.53a114.23,114.23,0,0,1-22.51,24.83c-3.35,2.75-6.7,5.42-10.22,7.91-11.6-.86-22.85-2.06-33.59-3.52,12.37-8.25,24.48-16.76,35.48-26.64a35.71,35.71,0,0,0,3.69-3.69C311.49,167,320.6,167.36,329.62,167.53Z"/><path class="cls-9" d="M364.33,167.45a50.1,50.1,0,0,1-5.58,9.71,111.46,111.46,0,0,1-24.14,25c-12.63-.26-25.35-.95-37.72-1.89,3.52-2.49,6.87-5.16,10.22-7.91a114.23,114.23,0,0,0,22.51-24.83C341.56,167.79,353.25,167.79,364.33,167.45Z"/><path class="cls-10" d="M403.25,164.79a65.61,65.61,0,0,1-2.15,11.08c-2.06,6.36-5.93,11.94-10.22,17a80.56,80.56,0,0,1-7.73,8.42c-10.83.69-22.26,1-33.94,1-4.81,0-9.71-.09-14.6-.17a111.46,111.46,0,0,0,24.14-25,50.1,50.1,0,0,0,5.58-9.71C378.77,167,392.08,166.16,403.25,164.79Z"/><path class="cls-8" d="M446.12,153.44c-3.35,12-8.76,23.63-14,35.06a45.76,45.76,0,0,1-3.61,6.7c-12.72,3-28.27,5-45.36,6.1a80.56,80.56,0,0,0,7.73-8.42c4.29-5.07,8.16-10.65,10.22-17a65.61,65.61,0,0,0,2.15-11.08c15.72-1.72,27.06-4.39,31.19-7.65A16.57,16.57,0,0,1,446.12,153.44Z"/><path class="cls-11" d="M316.49,535.54c-37.8-3.53-50-23.94-50-37.79,0-4.29,14.74-8.57,25-7.31,25.62,3,1.28,25.2,33.31,32.5h3.85c35.87,0,46.12-19.4,46.12-29.73,0-13.86-2.56-28.72-17.29-41.83-30.11-27.21-94.82-49.89-94.82-81.13,0-11.59,14.73-29.73,45.49-35.53-2.57-8.57-4.49-17.39-4.49-26,0-1.51,4.49-2.27,14.1-2.27,4.48,0,20.5.5,20.5,2V333c28.19,1.76,65.34,10.08,65.34,21.67,0,4.78-3.84,7.56-16.65,7.56-25,0-17.3-15.12-52.54-15.12-32.67,0-35.23,17.89-35.23,26.71,0,25.45,54.45,43.34,83.28,64.5,26.27,19.4,39.72,47.62,24.35,66.77-8.33,10.59-28.19,23.94-55.74,29v27.21c0,1-5.77,2.77-13.45,2.77a59.62,59.62,0,0,1-14.1-1.26A137.94,137.94,0,0,1,316.49,535.54Z"/></g></g></svg>