<svg id="Layer_3" data-name="Layer 3" xmlns="http://www.w3.org/2000/svg" viewBox="0 0 1848.5 679.76"><defs><style>.cls-1{fill:#404041;}.cls-1,.cls-10,.cls-11,.cls-12,.cls-2,.cls-3,.cls-4,.cls-5,.cls-7,.cls-8,.cls-9{fill-rule:evenodd;}.cls-2{fill:#b2e097;}.cls-3{fill:#fff;}.cls-4{fill:#58595b;}.cls-5{fill:#ec1c24;}.cls-6{fill:#ffd72c;}.cls-7{fill:#373539;}.cls-8{fill:#2a1707;}.cls-9{fill:#85a871;}.cls-10{fill:#363638;}.cls-11{fill:#525458;}.cls-12{fill:#696b6f;}</style></defs><polygon class="cls-1" points="1622.83 547.48 156.05 540.05 125.16 302.45 1695.92 310.25 1622.83 547.48"/><path class="cls-2" d="M67.24,362.35s4.33-136,102-148.11,379.85-36.06,379.85-36.06,5.94-2.51,22-10.3C650.37,108.13,783.45,11.75,886.34,12.26L1566,15.63l56.71.28,116.12.34s-4.49,18.2-12.08,28.84c-4,5.6-18.94,17.9-32.23,28.32,36.41,50,92.49,153.45,92.49,153.45s6.74,29.89,6.6,58.59-.69,138.94-.69,138.94l-179.14-.89s-60.17-89.86-161.88-96.11-214.69,85.76-195.83,218.12l-732.56-3.64S530.33,332,340.89,328.76c0,0-97.54-14.26-157.66,68.11l-116.15-.58Z"/><path class="cls-3" d="M75.42,312.22C83,284,97.71,250.64,125.83,230.77l114.24.57a105,105,0,0,1,1.78,19.88c-.17,34-16.15,61.75-35.51,61.65Z"/><path class="cls-4" d="M333.46,310.66A209.31,209.31,0,0,0,193.68,363l-126.44-.63-.41,84.49L66.68,476s17.47,51.6,56.47,63.93l32.9.17-.56-32.32a176.33,176.33,0,0,1,15.4-60.38l1-2.11.53-1.14,1-2,.62-1.23,1-2h0c.49-.94,1-1.87,1.49-2.79l1.07-1.93.62-1.1,1.18-2,.61-1,1.14-1.89,1-1.56c.58-.93,1.16-1.85,1.77-2.77l.9-1.38,1.25-1.84.7-1,1.37-1.94.6-.82c1-1.36,2-2.72,3-4.05l.28-.36,1.52-1.92.66-.84,1.42-1.73,1.11-1.33,1.13-1.34.1-.11c.68-.79,1.37-1.57,2.06-2.36l1.49-1.63.83-.91,1.6-1.7.87-.91,1.48-1.51,1.3-1.3,2.17-2.11,1.52-1.45,1.26-1.16,1.31-1.19,1.45-1.29,1.55-1.34,1.11-1c.8-.68,1.6-1.35,2.41-2l.13-.11L222,382l1.46-1.15,1.3-1,1.9-1.43,1-.77c.91-.68,1.84-1.34,2.77-2l1.23-.86,1.89-1.28,1.26-.84,1.66-1.09,1.57-1,2.8-1.72,1-.59,2.19-1.28,1.3-.74,2.08-1.16,1.2-.65c1-.54,2-1.07,3-1.59l.15-.08.12-.06c1.07-.55,2.15-1.08,3.23-1.6l1.07-.52,2.42-1.12,1.09-.5c.87-.39,1.74-.78,2.62-1.15l.87-.38c1.1-.47,2.22-.92,3.33-1.37l1.16-.45,2.44-.94,1.23-.46,2.29-.82,1.37-.48c1.16-.39,2.33-.78,3.5-1.15l.36-.11c1.08-.35,2.17-.68,3.25-1l1.09-.31,2.68-.75,1.14-.31,2.87-.73,1.42-.34c1-.25,2-.48,3.08-.71l1.08-.23,2.89-.58,1.05-.2c1-.19,2.05-.38,3.08-.55l.8-.14c1.24-.21,2.5-.4,3.75-.58l1-.13c1-.14,2.05-.28,3.07-.39l1-.12c1-.12,2-.22,3-.31l1.06-.11c1.29-.12,2.58-.22,3.89-.31l.76-.05c1-.07,2-.12,3-.17l1.51-.06,2.8-.09,1.07,0c1.35,0,2.69,0,4,0s2.71,0,4.06.07l1.32.05c1,0,2,.07,2.93.12l1.27.06c1.29.08,2.58.17,3.86.27l1,.09,3.11.29,1.3.14c1,.11,2.05.24,3.07.37l.89.11c1.31.17,2.61.36,3.91.56l1.15.2c.93.15,1.86.3,2.79.47l1.41.26,2.86.56,1,.21c1.24.26,2.47.54,3.7.83l1.28.3,2.56.64,1.39.36c1.09.29,2.18.59,3.26.9l.39.11.15,0c1.18.34,2.35.7,3.51,1.06l1.41.45,2.42.8,1.32.45c1.12.39,2.25.79,3.37,1.21l.15.05.07,0,.58.22,2.86,1.1,1.47.59,2.19.91,1.39.59c1.1.47,2.18,1,3.27,1.45l1.11.52,2.38,1.13,1.32.64,2.28,1.15,1.21.61c1,.54,2.07,1.1,3.11,1.66l1.28.72,2.06,1.16,1.41.82,2.29,1.38.87.52c1,.61,2,1.24,3,1.87l1.47,1,1.84,1.22,1.21.82,2.43,1.7,1.06.76c.82.6,1.64,1.2,2.45,1.81l1.45,1.1,1.48,1.14,1.48,1.17,1.62,1.32q1.32,1.08,2.61,2.19l1,.88,1.64,1.44,1.25,1.13,1.48,1.34.09.08c.76.71,1.52,1.42,2.28,2.15l1.48,1.44,1.11,1.09,1.43,1.46,1.21,1.24,1.38,1.45c.71.75,1.42,1.52,2.12,2.3l.05.06,1.26,1.41,1.24,1.41,1.28,1.49,1,1.25c.91,1.09,1.8,2.18,2.68,3.29l.58.73,1.55,2,.59.77,1.51,2,.52.72c.93,1.3,1.85,2.6,2.75,3.92l.54.79,1.24,1.86.88,1.36,1.11,1.72.85,1.38c.63,1,1.27,2.08,1.88,3.13l.85,1.44,1,1.82.79,1.43,1,1.78.06.1c.49.93,1,1.87,1.46,2.81h0l1,2,.55,1.11,1,2.16.6,1.31.89,2h0a176.67,176.67,0,0,1,15.14,72.69,180.88,180.88,0,0,1-1.24,20.14l32.9.16c.66-6.63,1-13.34,1.07-20.14A210,210,0,0,0,530,449.14q-.74-2-1.5-4l-.73-1.85-1-2.39-.82-2-1.07-2.46-.76-1.73c-.43-1-.88-1.93-1.33-2.89l-1.26-2.65-1.24-2.51-.9-1.78-1.21-2.32-1-1.87-1.22-2.2-1-1.78c-.7-1.22-1.41-2.44-2.13-3.65l-1-1.66c-.45-.74-.9-1.47-1.36-2.2l-1.13-1.79-1.32-2c-.42-.63-.83-1.27-1.26-1.89l-1.41-2.06c-.65-.94-1.3-1.87-2-2.79l-1.57-2.19-1.28-1.72-1.45-1.89-1.39-1.81-1.51-1.88-1.27-1.59c-.89-1.09-1.8-2.16-2.72-3.24L491,383l-1.79-2-1.39-1.54-1.71-1.85-1.39-1.48c-.77-.82-1.55-1.62-2.33-2.42l-.69-.71-.07-.07-.35-.34c-.9-.9-1.8-1.8-2.71-2.68L477,368.37l-1.73-1.63-1.58-1.45-1.79-1.61-1.66-1.48-.1-.07c-1-.87-2-1.72-3-2.56l-.09-.07-1.17-1c-.79-.65-1.59-1.3-2.38-1.93l-1.43-1.13L460,353.78l-1.62-1.22c-.87-.66-1.74-1.3-2.62-1.93l-.93-.68c-1.18-.86-2.38-1.69-3.58-2.51l-1.56-1.06-2.28-1.52-1.54-1-2.63-1.67-1.27-.79q-1.92-1.17-3.85-2.3l-1-.55c-1-.57-2-1.14-3-1.7l-1.63-.89L430,334.62l-1.52-.78c-1-.5-1.94-1-2.92-1.48l-1.31-.65c-1.28-.62-2.57-1.23-3.86-1.83l-1.82-.82L416.08,328l-1.82-.78-2.62-1.09-1.75-.71c-1.27-.5-2.53-1-3.81-1.46l-1.57-.58-3.06-1.1-1.77-.6-2.74-.9-1.74-.56c-1.27-.39-2.54-.78-3.81-1.15l-.54-.16c-1.54-.45-3.09-.87-4.65-1.29l-1.07-.27-3.56-.89-1.49-.34c-1.13-.26-2.25-.52-3.39-.76l-1.31-.28c-1.54-.33-3.08-.63-4.64-.92h-.11L370,314c-1.3-.23-2.61-.46-3.92-.67l-1.74-.27-3.08-.45-1.81-.23c-1.24-.17-2.47-.31-3.71-.45l-1-.11c-1.64-.17-3.28-.33-4.92-.46l-.95-.07c-1.31-.1-2.62-.19-3.94-.27l-1.47-.08-3.59-.16-1.55-.05C336.71,310.69,335.09,310.66,333.46,310.66Z"/><path class="cls-4" d="M1815.17,402.12l-205-1,10.28,54.72,6.73,0c0,.45-.07.87-.07,1.32l-.34,69.67a20.65,20.65,0,0,0,20.56,20.77l142.09.71a20.66,20.66,0,0,0,20.77-20.57l.35-69.67c0-.44,0-.88-.06-1.32l4.37,0Z"/><path class="cls-4" d="M1272.53,545.74a180.83,180.83,0,0,1-2.11-28.29,177.4,177.4,0,1,1,352.41,30l33.19.16a210.52,210.52,0,0,0,1.92-27.45c.58-116-93-210.59-209.08-211.17s-210.59,93-211.17,209.09a214.78,214.78,0,0,0,1.65,27.47Z"/><path class="cls-4" d="M1814.48,402.06l-193.49-1A209.87,209.87,0,0,0,1448.17,309c-91-.45-168.76,57-198.38,137.78l34.88.17a177.45,177.45,0,0,1,325.61,1.62l204,1Z"/><path class="cls-5" d="M1778.13,211.62c5.42,9.72,8.65,15.67,8.65,15.67s6.77,29.88,6.63,58.59l-.5,101.5-40.7-.2.87-175.69Z"/><rect class="cls-6" x="1709.53" y="303.77" width="109.76" height="56.77" transform="translate(1422.8 2094.77) rotate(-89.69)"/><path class="cls-7" d="M1719.78,181.2C1692.72,139.05,1644.53,56.9,1592.07,45l-135.93.06-.67,135.68,264.31.43ZM1414.35,45.11l-308.9.13-.68,135,308.91.5.67-135.59Zm-350.69.14c-101.24,0-153,.06-163.24,0-124.62-.62-203.25,92.29-276.64,134.17l439.21.71h0Z"/><path class="cls-8" d="M1028.5,232.05l0-4.85c0-4.47-3-8.12-6.84-8.14l-81.21-.4c-3.8,0-6.9,3.6-6.93,8.07l0,4.85Z"/><path class="cls-8" d="M1395.29,233.87l0-4.85c0-4.47-3-8.12-6.84-8.13l-81.21-.41c-3.8,0-6.9,3.6-6.92,8.07l0,4.85Z"/><polygon class="cls-4" points="1261.39 553.63 509.52 543.99 509.59 511.41 1261.46 521.05 1261.39 553.63"/><path class="cls-9" d="M662.55,206.06c-16.87,4.75-85.66.33-89.63-14.14-4.15-15.13,55.55-53.28,89.94-50Z"/><path class="cls-4" d="M54.26,362.28l80,.4a20.39,20.39,0,0,1,20.24,20.45L154,479.52a20.39,20.39,0,0,1-20.45,20.25l-80-.4a20.41,20.41,0,0,1-20.25-20.45l.48-96.39A20.41,20.41,0,0,1,54.26,362.28Z"/><path class="cls-10" d="M1555,624.67a148,148,0,1,0-209.32-1,148,148,0,0,0,209.32,1Zm-180-181.8a107.82,107.82,0,1,1-.75,152.47h0A107.81,107.81,0,0,1,1375,442.87Z"/><path class="cls-3" d="M1451.42,397.15a122.34,122.34,0,1,0,121.73,122.94A122.33,122.33,0,0,0,1451.42,397.15Z"/><path class="cls-11" d="M1451.35,411.7A107.78,107.78,0,1,1,1343,519,107.78,107.78,0,0,1,1451.35,411.7Z"/><path class="cls-12" d="M1429.21,548.44a37.5,37.5,0,1,1,53,.26A37.5,37.5,0,0,1,1429.21,548.44Z"/><path class="cls-3" d="M1463,637.73l-15.4-.08-6-81.61-62.48,52.85L1368.26,598l53.47-62-81.55-6.81.08-15.4,81.61-6L1369,445.29,1380,434.46l62,53.47,6.81-81.56,15.4.08,6,81.62,62.49-52.85,10.83,10.94L1490,508.11l81.56,6.82-.08,15.4-81.62,6,52.85,62.48-10.94,10.84-62-53.48L1463,637.73Zm10.44-108.3.07-14.58-10.26-10.36-14.58-.07-10.35,10.25-.08,14.59,10.26,10.36,14.57.07Z"/><path class="cls-10" d="M438,624.67a148,148,0,1,0-209.32-1,148,148,0,0,0,209.32,1ZM258,442.87a107.82,107.82,0,1,1-.75,152.47h0A107.81,107.81,0,0,1,258,442.87Z"/><path class="cls-3" d="M334.46,397.15A122.34,122.34,0,1,0,456.18,520.09,122.34,122.34,0,0,0,334.46,397.15Z"/><path class="cls-11" d="M334.38,411.7A107.78,107.78,0,1,1,226.07,519,107.79,107.79,0,0,1,334.38,411.7Z"/><path class="cls-12" d="M312.24,548.44a37.5,37.5,0,1,1,53,.26A37.51,37.51,0,0,1,312.24,548.44Z"/><path class="cls-3" d="M346,637.73l-15.4-.08-6-81.61-62.49,52.85L251.3,598l53.47-62-81.55-6.81.07-15.4,81.62-6-52.85-62.49L263,434.46l62,53.47,6.81-81.56,15.4.08,6,81.62,62.49-52.85,10.83,10.94L373,508.11l81.56,6.82-.09,15.4-81.61,6,52.85,62.48-10.94,10.84-62-53.48L346,637.73Zm10.44-108.3.07-14.58-10.26-10.36-14.58-.07-10.36,10.25-.07,14.59,10.26,10.36,14.57.07Z"/><path class="cls-7" d="M762.51,45.41s7.73,7.07,7.14,8.65S562,182.57,562,182.57l-12.88-4.39C615.29,135.26,659.17,97,762.51,45.41Z"/></svg>