<svg xmlns="http://www.w3.org/2000/svg" xmlns:xlink="http://www.w3.org/1999/xlink" viewBox="0 0 1258.18 1817.95"><defs><style>.cls-1{fill:none;}.cls-2{fill:#c6b89b;}.cls-3{fill:#b2a287;}.cls-4{fill:#ce964d;}.cls-5{fill:#edc179;}.cls-6{clip-path:url(#clip-path);}.cls-7{fill:#ebb063;}.cls-8{fill:#9b6623;}</style><clipPath id="clip-path"><polygon class="cls-1" points="1248.73 1777.52 9.45 1777.52 9.45 1749.69 63.27 1708.62 9.45 1705.78 9.45 1642.05 9.45 1622.21 64.69 1575.46 9.45 1551.38 9.45 1496.83 1248.73 1496.83 1248.73 1515.95 1176.79 1541.45 1248.73 1565.53 1248.73 1592.45 1248.73 1667.53 1190.96 1687.37 1248.73 1729.88 1248.73 1777.52"/></clipPath></defs><g id="Layer_9" data-name="Layer 9"><rect class="cls-2" x="107.09" width="24.87" height="519.97"/><path class="cls-3" d="M109.87,463.83l17.36,12.29c2.17,1.54,4.21-2,2.07-3.54L112,460.28c-2.17-1.53-4.22,2-2.08,3.55Z"/><path class="cls-3" d="M109.87,431l17.36,12.29c2.17,1.54,4.21-2,2.07-3.54L112,427.44c-2.17-1.53-4.22,2-2.08,3.55Z"/><path class="cls-3" d="M109.87,398.15l17.36,12.29c2.17,1.54,4.21-2,2.07-3.54L112,394.6c-2.17-1.53-4.22,2-2.08,3.55Z"/><path class="cls-3" d="M109.87,365.31l17.36,12.29c2.17,1.54,4.21-2,2.07-3.54L112,361.76c-2.17-1.53-4.22,2-2.08,3.55Z"/><path class="cls-3" d="M109.87,332.47l17.36,12.29c2.17,1.54,4.21-2,2.07-3.54L112,328.92c-2.17-1.53-4.22,2-2.08,3.55Z"/><path class="cls-3" d="M109.87,299.63l17.36,12.29c2.17,1.54,4.21-2,2.07-3.54L112,296.08c-2.17-1.53-4.22,2-2.08,3.55Z"/><path class="cls-3" d="M109.87,266.79l17.36,12.3c2.17,1.53,4.21-2,2.07-3.55L112,263.24c-2.17-1.53-4.22,2-2.08,3.55Z"/><path class="cls-3" d="M109.87,234l17.36,12.3c2.17,1.53,4.21-2,2.07-3.55L112,230.4c-2.17-1.53-4.22,2-2.08,3.55Z"/><path class="cls-3" d="M109.87,201.11l17.36,12.3c2.17,1.53,4.21-2,2.07-3.55L112,197.56c-2.17-1.53-4.22,2-2.08,3.55Z"/><path class="cls-3" d="M109.87,168.27l17.36,12.3c2.17,1.53,4.21-2,2.07-3.55L112,164.72c-2.17-1.53-4.22,2-2.08,3.55Z"/><path class="cls-3" d="M109.87,135.43l17.36,12.3c2.17,1.53,4.21-2,2.07-3.55L112,131.88c-2.17-1.53-4.22,2-2.08,3.55Z"/><path class="cls-3" d="M109.87,102.59l17.36,12.3c2.17,1.53,4.21-2,2.07-3.55L112,99c-2.17-1.53-4.22,2-2.08,3.55Z"/><path class="cls-3" d="M109.87,69.75l17.36,12.3c2.17,1.53,4.21-2,2.07-3.55L112,66.2c-2.17-1.53-4.22,2-2.08,3.55Z"/><path class="cls-3" d="M109.87,36.91l17.36,12.3c2.17,1.53,4.21-2,2.07-3.55L112,33.36c-2.17-1.53-4.22,2-2.08,3.55Z"/><path class="cls-3" d="M109.87,3.92l17.36,12.3c2.17,1.53,4.21-2,2.07-3.54L112,.38c-2.17-1.54-4.22,2-2.08,3.54Z"/><rect class="cls-2" x="1109.57" width="24.87" height="519.97"/><path class="cls-3" d="M1112.34,463.83l17.36,12.29c2.17,1.54,4.22-2,2.08-3.54l-17.36-12.3c-2.17-1.53-4.22,2-2.08,3.55Z"/><path class="cls-3" d="M1112.34,431l17.36,12.29c2.17,1.54,4.22-2,2.08-3.54l-17.36-12.3c-2.17-1.53-4.22,2-2.08,3.55Z"/><path class="cls-3" d="M1112.34,398.15l17.36,12.29c2.17,1.54,4.22-2,2.08-3.54l-17.36-12.3c-2.17-1.53-4.22,2-2.08,3.55Z"/><path class="cls-3" d="M1112.34,365.31l17.36,12.29c2.17,1.54,4.22-2,2.08-3.54l-17.36-12.3c-2.17-1.53-4.22,2-2.08,3.55Z"/><path class="cls-3" d="M1112.34,332.47l17.36,12.29c2.17,1.54,4.22-2,2.08-3.54l-17.36-12.3c-2.17-1.53-4.22,2-2.08,3.55Z"/><path class="cls-3" d="M1112.34,299.63l17.36,12.29c2.17,1.54,4.22-2,2.08-3.54l-17.36-12.3c-2.17-1.53-4.22,2-2.08,3.55Z"/><path class="cls-3" d="M1112.34,266.79l17.36,12.3c2.17,1.53,4.22-2,2.08-3.55l-17.36-12.3c-2.17-1.53-4.22,2-2.08,3.55Z"/><path class="cls-3" d="M1112.34,234l17.36,12.3c2.17,1.53,4.22-2,2.08-3.55l-17.36-12.3c-2.17-1.53-4.22,2-2.08,3.55Z"/><path class="cls-3" d="M1112.34,201.11l17.36,12.3c2.17,1.53,4.22-2,2.08-3.55l-17.36-12.3c-2.17-1.53-4.22,2-2.08,3.55Z"/><path class="cls-3" d="M1112.34,168.27l17.36,12.3c2.17,1.53,4.22-2,2.08-3.55l-17.36-12.3c-2.17-1.53-4.22,2-2.08,3.55Z"/><path class="cls-3" d="M1112.34,135.43l17.36,12.3c2.17,1.53,4.22-2,2.08-3.55l-17.36-12.3c-2.17-1.53-4.22,2-2.08,3.55Z"/><path class="cls-3" d="M1112.34,102.59l17.36,12.3c2.17,1.53,4.22-2,2.08-3.55L1114.42,99c-2.17-1.53-4.22,2-2.08,3.55Z"/><path class="cls-3" d="M1112.34,69.75l17.36,12.3c2.17,1.53,4.22-2,2.08-3.55l-17.36-12.3c-2.17-1.53-4.22,2-2.08,3.55Z"/><path class="cls-3" d="M1112.34,36.91l17.36,12.3c2.17,1.53,4.22-2,2.08-3.55l-17.36-12.3c-2.17-1.53-4.22,2-2.08,3.55Z"/><path class="cls-3" d="M1112.34,3.92l17.36,12.3c2.17,1.53,4.22-2,2.08-3.54L1114.42.38c-2.17-1.54-4.22,2-2.08,3.54Z"/><rect class="cls-2" x="107.09" y="497" width="24.87" height="519.97"/><path class="cls-3" d="M109.87,960.83l17.36,12.29c2.17,1.54,4.21-2,2.07-3.54L112,957.28c-2.17-1.53-4.22,2-2.08,3.55Z"/><path class="cls-3" d="M109.87,928l17.36,12.29c2.17,1.54,4.21-2,2.07-3.54L112,924.44c-2.17-1.53-4.22,2-2.08,3.55Z"/><path class="cls-3" d="M109.87,895.15l17.36,12.29c2.17,1.54,4.21-2,2.07-3.54L112,891.6c-2.17-1.53-4.22,2-2.08,3.55Z"/><path class="cls-3" d="M109.87,862.31l17.36,12.29c2.17,1.54,4.21-2,2.07-3.54L112,858.76c-2.17-1.53-4.22,2-2.08,3.55Z"/><path class="cls-3" d="M109.87,829.47l17.36,12.29c2.17,1.54,4.21-2,2.07-3.54L112,825.92c-2.17-1.53-4.22,2-2.08,3.55Z"/><path class="cls-3" d="M109.87,796.63l17.36,12.29c2.17,1.54,4.21-2,2.07-3.54L112,793.08c-2.17-1.53-4.22,2-2.08,3.55Z"/><path class="cls-3" d="M109.87,763.79l17.36,12.3c2.17,1.53,4.21-2,2.07-3.55L112,760.24c-2.17-1.53-4.22,2-2.08,3.55Z"/><path class="cls-3" d="M109.87,731l17.36,12.3c2.17,1.53,4.21-2,2.07-3.55L112,727.4c-2.17-1.53-4.22,2-2.08,3.55Z"/><path class="cls-3" d="M109.87,698.11l17.36,12.3c2.17,1.53,4.21-2,2.07-3.55L112,694.56c-2.17-1.53-4.22,2-2.08,3.55Z"/><path class="cls-3" d="M109.87,665.27l17.36,12.3c2.17,1.53,4.21-2,2.07-3.55L112,661.72c-2.17-1.53-4.22,2-2.08,3.55Z"/><path class="cls-3" d="M109.87,632.43l17.36,12.3c2.17,1.53,4.21-2,2.07-3.55L112,628.88c-2.17-1.53-4.22,2-2.08,3.55Z"/><path class="cls-3" d="M109.87,599.59l17.36,12.3c2.17,1.53,4.21-2,2.07-3.55L112,596c-2.17-1.53-4.22,2-2.08,3.55Z"/><path class="cls-3" d="M109.87,566.75l17.36,12.3c2.17,1.53,4.21-2,2.07-3.55L112,563.2c-2.17-1.53-4.22,2-2.08,3.55Z"/><path class="cls-3" d="M109.87,533.91l17.36,12.3c2.17,1.53,4.21-2,2.07-3.55L112,530.36c-2.17-1.53-4.22,2-2.08,3.55Z"/><path class="cls-3" d="M109.87,500.92l17.36,12.3c2.17,1.53,4.21-2,2.07-3.54L112,497.38c-2.17-1.54-4.22,2-2.08,3.54Z"/><rect class="cls-2" x="1109.57" y="497" width="24.87" height="519.97"/><path class="cls-3" d="M1112.34,960.83l17.36,12.29c2.17,1.54,4.22-2,2.08-3.54l-17.36-12.3c-2.17-1.53-4.22,2-2.08,3.55Z"/><path class="cls-3" d="M1112.34,928l17.36,12.29c2.17,1.54,4.22-2,2.08-3.54l-17.36-12.3c-2.17-1.53-4.22,2-2.08,3.55Z"/><path class="cls-3" d="M1112.34,895.15l17.36,12.29c2.17,1.54,4.22-2,2.08-3.54l-17.36-12.3c-2.17-1.53-4.22,2-2.08,3.55Z"/><path class="cls-3" d="M1112.34,862.31l17.36,12.29c2.17,1.54,4.22-2,2.08-3.54l-17.36-12.3c-2.17-1.53-4.22,2-2.08,3.55Z"/><path class="cls-3" d="M1112.34,829.47l17.36,12.29c2.17,1.54,4.22-2,2.08-3.54l-17.36-12.3c-2.17-1.53-4.22,2-2.08,3.55Z"/><path class="cls-3" d="M1112.34,796.63l17.36,12.29c2.17,1.54,4.22-2,2.08-3.54l-17.36-12.3c-2.17-1.53-4.22,2-2.08,3.55Z"/><path class="cls-3" d="M1112.34,763.79l17.36,12.3c2.17,1.53,4.22-2,2.08-3.55l-17.36-12.3c-2.17-1.53-4.22,2-2.08,3.55Z"/><path class="cls-3" d="M1112.34,731l17.36,12.3c2.17,1.53,4.22-2,2.08-3.55l-17.36-12.3c-2.17-1.53-4.22,2-2.08,3.55Z"/><path class="cls-3" d="M1112.34,698.11l17.36,12.3c2.17,1.53,4.22-2,2.08-3.55l-17.36-12.3c-2.17-1.53-4.22,2-2.08,3.55Z"/><path class="cls-3" d="M1112.34,665.27l17.36,12.3c2.17,1.53,4.22-2,2.08-3.55l-17.36-12.3c-2.17-1.53-4.22,2-2.08,3.55Z"/><path class="cls-3" d="M1112.34,632.43l17.36,12.3c2.17,1.53,4.22-2,2.08-3.55l-17.36-12.3c-2.17-1.53-4.22,2-2.08,3.55Z"/><path class="cls-3" d="M1112.34,599.59l17.36,12.3c2.17,1.53,4.22-2,2.08-3.55L1114.42,596c-2.17-1.53-4.22,2-2.08,3.55Z"/><path class="cls-3" d="M1112.34,566.75l17.36,12.3c2.17,1.53,4.22-2,2.08-3.55l-17.36-12.3c-2.17-1.53-4.22,2-2.08,3.55Z"/><path class="cls-3" d="M1112.34,533.91l17.36,12.3c2.17,1.53,4.22-2,2.08-3.55l-17.36-12.3c-2.17-1.53-4.22,2-2.08,3.55Z"/><path class="cls-3" d="M1112.34,500.92l17.36,12.3c2.17,1.53,4.22-2,2.08-3.54l-17.36-12.3c-2.17-1.54-4.22,2-2.08,3.54Z"/><rect class="cls-2" x="107.09" y="995.13" width="24.87" height="519.97"/><path class="cls-3" d="M109.87,1459l17.36,12.3c2.17,1.53,4.21-2,2.07-3.55L112,1455.41c-2.17-1.53-4.22,2-2.08,3.55Z"/><path class="cls-3" d="M109.87,1426.12l17.36,12.3c2.17,1.53,4.21-2,2.07-3.55L112,1422.57c-2.17-1.53-4.22,2-2.08,3.55Z"/><path class="cls-3" d="M109.87,1393.28l17.36,12.3c2.17,1.53,4.21-2,2.07-3.55L112,1389.73c-2.17-1.53-4.22,2-2.08,3.55Z"/><path class="cls-3" d="M109.87,1360.44l17.36,12.3c2.17,1.53,4.21-2,2.07-3.55L112,1356.9c-2.17-1.54-4.22,2-2.08,3.54Z"/><path class="cls-3" d="M109.87,1327.6l17.36,12.3c2.17,1.53,4.21-2,2.07-3.55L112,1324.06c-2.17-1.54-4.22,2-2.08,3.54Z"/><path class="cls-3" d="M109.87,1294.76l17.36,12.3c2.17,1.53,4.21-2,2.07-3.55L112,1291.22c-2.17-1.54-4.22,2-2.08,3.54Z"/><path class="cls-3" d="M109.87,1261.92l17.36,12.3c2.17,1.53,4.21-2,2.07-3.55L112,1258.38c-2.17-1.54-4.22,2-2.08,3.54Z"/><path class="cls-3" d="M109.87,1229.08l17.36,12.3c2.17,1.53,4.21-2,2.07-3.55L112,1225.54c-2.17-1.54-4.22,2-2.08,3.54Z"/><path class="cls-3" d="M109.87,1196.24l17.36,12.3c2.17,1.53,4.21-2,2.07-3.55L112,1192.7c-2.17-1.54-4.22,2-2.08,3.54Z"/><path class="cls-3" d="M109.87,1163.4l17.36,12.3c2.17,1.53,4.21-2,2.07-3.54L112,1159.86c-2.17-1.54-4.22,2-2.08,3.54Z"/><path class="cls-3" d="M109.87,1130.56l17.36,12.3c2.17,1.53,4.21-2,2.07-3.54L112,1127c-2.17-1.54-4.22,2-2.08,3.54Z"/><path class="cls-3" d="M109.87,1097.72l17.36,12.3c2.17,1.53,4.21-2,2.07-3.54L112,1094.18c-2.17-1.54-4.22,2-2.08,3.54Z"/><path class="cls-3" d="M109.87,1064.88l17.36,12.3c2.17,1.53,4.21-2,2.07-3.54L112,1061.34c-2.17-1.54-4.22,2-2.08,3.54Z"/><path class="cls-3" d="M109.87,1032l17.36,12.3c2.17,1.53,4.21-2,2.07-3.54L112,1028.5c-2.17-1.54-4.22,2-2.08,3.54Z"/><path class="cls-3" d="M109.87,999.05l17.36,12.3c2.17,1.54,4.21-2,2.07-3.54L112,995.51c-2.17-1.53-4.22,2-2.08,3.54Z"/><rect class="cls-2" x="1109.57" y="995.13" width="24.87" height="519.97"/><path class="cls-3" d="M1112.34,1459l17.36,12.3c2.17,1.53,4.22-2,2.08-3.55l-17.36-12.3c-2.17-1.53-4.22,2-2.08,3.55Z"/><path class="cls-3" d="M1112.34,1426.12l17.36,12.3c2.17,1.53,4.22-2,2.08-3.55l-17.36-12.3c-2.17-1.53-4.22,2-2.08,3.55Z"/><path class="cls-3" d="M1112.34,1393.28l17.36,12.3c2.17,1.53,4.22-2,2.08-3.55l-17.36-12.3c-2.17-1.53-4.22,2-2.08,3.55Z"/><path class="cls-3" d="M1112.34,1360.44l17.36,12.3c2.17,1.53,4.22-2,2.08-3.55l-17.36-12.29c-2.17-1.54-4.22,2-2.08,3.54Z"/><path class="cls-3" d="M1112.34,1327.6l17.36,12.3c2.17,1.53,4.22-2,2.08-3.55l-17.36-12.29c-2.17-1.54-4.22,2-2.08,3.54Z"/><path class="cls-3" d="M1112.34,1294.76l17.36,12.3c2.17,1.53,4.22-2,2.08-3.55l-17.36-12.29c-2.17-1.54-4.22,2-2.08,3.54Z"/><path class="cls-3" d="M1112.34,1261.92l17.36,12.3c2.17,1.53,4.22-2,2.08-3.55l-17.36-12.29c-2.17-1.54-4.22,2-2.08,3.54Z"/><path class="cls-3" d="M1112.34,1229.08l17.36,12.3c2.17,1.53,4.22-2,2.08-3.55l-17.36-12.29c-2.17-1.54-4.22,2-2.08,3.54Z"/><path class="cls-3" d="M1112.34,1196.24l17.36,12.3c2.17,1.53,4.22-2,2.08-3.55l-17.36-12.29c-2.17-1.54-4.22,2-2.08,3.54Z"/><path class="cls-3" d="M1112.34,1163.4l17.36,12.3c2.17,1.53,4.22-2,2.08-3.54l-17.36-12.3c-2.17-1.54-4.22,2-2.08,3.54Z"/><path class="cls-3" d="M1112.34,1130.56l17.36,12.3c2.17,1.53,4.22-2,2.08-3.54l-17.36-12.3c-2.17-1.54-4.22,2-2.08,3.54Z"/><path class="cls-3" d="M1112.34,1097.72l17.36,12.3c2.17,1.53,4.22-2,2.08-3.54l-17.36-12.3c-2.17-1.54-4.22,2-2.08,3.54Z"/><path class="cls-3" d="M1112.34,1064.88l17.36,12.3c2.17,1.53,4.22-2,2.08-3.54l-17.36-12.3c-2.17-1.54-4.22,2-2.08,3.54Z"/><path class="cls-3" d="M1112.34,1032l17.36,12.3c2.17,1.53,4.22-2,2.08-3.54l-17.36-12.3c-2.17-1.54-4.22,2-2.08,3.54Z"/><path class="cls-3" d="M1112.34,999.05l17.36,12.3c2.17,1.54,4.22-2,2.08-3.54l-17.36-12.3c-2.17-1.53-4.22,2-2.08,3.54Z"/><polygon class="cls-4" points="1248.73 1809.3 9.45 1809.3 9.45 1781.47 63.27 1740.39 9.45 1737.56 9.45 1673.82 9.45 1653.98 64.69 1607.23 9.45 1583.15 9.45 1528.6 1248.73 1528.6 1248.73 1547.72 1176.79 1573.23 1248.73 1597.31 1248.73 1624.22 1248.73 1699.31 1190.96 1719.15 1248.73 1761.65 1248.73 1809.3"/><polygon class="cls-5" points="1248.73 1777.52 9.45 1777.52 9.45 1749.69 63.27 1708.62 9.45 1705.78 9.45 1642.05 9.45 1622.21 64.69 1575.46 9.45 1551.38 9.45 1496.83 1248.73 1496.83 1248.73 1515.95 1176.79 1541.45 1248.73 1565.53 1248.73 1592.45 1248.73 1667.53 1190.96 1687.37 1248.73 1729.88 1248.73 1777.52"/><g class="cls-6"><path class="cls-7" d="M-147,1097c.95,2,4,3,7.38,3.21l.3,0,.54,0c.51,0,1,.09,1.5.1,227.42,4.46,455.45,7.23,682.81,6.19,142.69-.67,283.7-7.63,425.9-11.39q182.41-4.82,365.24-7.19c5.85-.07,9.68-1.81,10.17-4.31.18-1,.38-1.93.6-2.89.45-2.32-4.91-4.63-10.11-4.56q-177.35,2.27-354.47,6.92c-143.15,3.64-285.12,10.77-428.74,11.51-230.84,1.18-462.27-2.47-693.11-7-6.89-.13-11.19,2.74-9.84,5.51C-148.2,1094.43-147.61,1095.69-147,1097Z"/><path class="cls-7" d="M-147.43,1122.59a6.13,6.13,0,0,0,3.56,2.45,19,19,0,0,0,6.19.92q324.72,1,649.44-.51c127.42-.6,255.29-4.61,382.65-4.06,148.17.65,304,19,441,44.76,6.19,1.17,12.87-1.49,12.86-4.12,0-1.29,0-2.57,0-3.86,0-2.15-3.13-3.55-7.4-4.36C1210,1129,1064.73,1113.7,923.58,1110c-64.9-1.68-130.48,1.22-195.29,2q-102.16,1.18-204.4,1.45c-221.15.94-442.34.37-663.59-.08-6.67,0-11.45,2.65-9.85,5.51C-148.83,1120.1-148.15,1121.35-147.43,1122.59Z"/><path class="cls-7" d="M-138.29,1164.18c158.93-3.58,318.64-4.87,477.05-11.21,113.48-4.54,226-2.58,340.07.7,220.09,6.32,438,20.8,655.86,36.41,8,.56,13.87-1.72,12.54-5.33l-1.55-4.11c-.47-1.34-3.92-3-7-3.18-214.61-15.12-429.76-28.62-646.32-35.19-115.07-3.5-231-6.7-345.54-1.4-160.57,7.44-323.44,7.91-484.75,11.56-5.64.13-10,1.77-10.21,4.32-.06,1-.13,1.91-.2,2.87a2.88,2.88,0,0,0,1.66,2.63C-145.23,1163.44-142.46,1164.28-138.29,1164.18Z"/><path class="cls-7" d="M1296.59,1247.32c-46.48-2.68-92.46-8-137.78-13.3-104-12.12-206.27-27.08-308.88-41.23-74.28-10.24-151-22.57-228.54-26.55-47.75-2.46-96.52-1.69-144.37-1.1-206.91,2.56-413.77,11.95-619,22.27-6,.3-8,2.3-7.22,4.31a2.08,2.08,0,0,0,.07,1.07c.29,1,.58,1.9.86,2.85.81,2.62,7.57,3.48,12.46,3.24,193.64-9.68,388.41-17.93,583.44-21.48,48.45-.88,97.17-1.42,145.73-.32,68.93,1.57,136.69,12.11,202.44,20.93,101.69,13.66,202.65,28.37,304.78,41.34,77.67,9.86,158.08,20.12,238.85,22.35,7.22.2,13.31-3.8,8.83-6.59C1334.73,1246.68,1319.37,1248.63,1296.59,1247.32Z"/><path class="cls-7" d="M-139.9,1278.72q97-9.45,192.5-21.39c20.71-2.61,125.34-11.06,125.51-25.36.27-22.84-282.15-4.24-321.26-2.38-4,.19-7.94,2.44-7.48,4.19.27.94.49,1.89.78,2.83.56,2.16,4.12,4.85,10.09,4.57q85.16-4,170.67-6.5,35.12-1,70.32-1.27,15.13-.11,30.21.18c.71,0,1.44.05,2.16.07-30.77,7-72.54,9.89-103.77,13.65-57.87,7-116.32,13-174.92,18.77-3.45.32-5.54,1.21-6.56,2.3-.06,0-.06.09-.1.13a3.66,3.66,0,0,0-.32.43,2.28,2.28,0,0,0-.52,1.33c0,1.34-.06,2.67-.11,4C-152.77,1277.24-146.26,1279.34-139.9,1278.72Z"/><path class="cls-7" d="M544.56,1546.43c230.9.24,462.27,5.28,693,11.18,6.89.18,11.29-2.68,10-5.45-.58-1.27-1.16-2.53-1.77-3.79-.92-2-3.92-3-7.3-3.27h-.3a3.75,3.75,0,0,0-.56,0c-.5,0-1-.1-1.5-.11-227.34-5.85-455.34-10-682.76-10.34-142.69-.22-283.86,5.87-426.15,8.77q-182.52,3.71-365.4,5c-5.89,0-9.75,1.74-10.27,4.27-.23,1-.44,1.92-.66,2.88-.5,2.31,4.8,4.65,10,4.62q177.44-1.18,354.63-4.76C258.78,1552.56,400.91,1546.3,544.56,1546.43Z"/><path class="cls-7" d="M-241,1482.46c130.33,25.6,275.36,41.77,416.46,46.3,64.85,2.08,130.49-.41,195.33-.77,68.13-.37,136.28-.32,204.46-.2,221.18.43,442.4,2.33,663.65,4.14,6.67,0,11.5-2.59,10-5.45-.69-1.24-1.36-2.49-2-3.75a6.08,6.08,0,0,0-3.51-2.46,18.57,18.57,0,0,0-6.2-1q-324.69-3-649.51-3.44c-127.43-.19-255.4,3.05-382.76,1.72-148.17-1.54-303.67-20.84-440.09-47.43-6.19-1.21-12.93,1.41-13,4,0,1.29,0,2.58-.08,3.86C-248.37,1480.2-245.26,1481.63-241,1482.46Z"/><path class="cls-7" d="M1238.49,1481.09c-159,2.64-318.77,2.94-477.35,8.31-113.56,3.84-226,1.18-340.08-2.78-220-7.65-437.55-23.46-655.18-40.37-8-.64-13.93,1.61-12.66,5.23.5,1.37,1,2.75,1.46,4.11s3.88,3,7,3.23c214.35,16.44,429.23,31.24,645.68,39.12,115,4.2,230.93,8.11,345.59,3.51,160.72-6.46,323.61-5.94,485-8.6,5.61-.09,10-1.7,10.26-4.27.1-.95.18-1.91.27-2.88a2.75,2.75,0,0,0-1.59-2.62C1245.41,1481.88,1242.66,1481,1238.49,1481.09Z"/><path class="cls-7" d="M-194.86,1389.23c46.44,3,92.33,8.59,137.54,14.16,103.7,12.72,205.72,28.32,308.07,43.08,74.09,10.68,150.59,23.49,228,27.94,47.73,2.74,96.52,2.28,144.36,2,207-1.31,414.09-9.43,619.51-18.5,6-.27,8-2.25,7.33-4.26a2.23,2.23,0,0,0-.07-1.08c-.25-1-.52-1.89-.8-2.85-.74-2.62-7.5-3.53-12.38-3.31-193.84,8.5-388.79,15.56-583.95,17.91-48.49.58-97.19.83-145.73-.57-68.9-2-136.48-12.94-202.07-22.16-101.4-14.26-202-29.6-303.95-43.18-77.47-10.33-157.66-21.09-238.44-23.8-7.19-.24-13.37,3.71-9,6.53C-233,1389.64-217.6,1387.78-194.86,1389.23Z"/><path class="cls-7" d="M1247.42,1348.28c-47.85-3.71-104,5.89-150.23,9.88Q920,1373.44,743.45,1389.82c-75,7.09-150,14.46-223.68,23.62-26,3.23-53.68,6.39-77.39,12.12-6.2,1.49-15.89,4.42-15.26,8.13,2.06,13.4,66.61,12.28,87.66,12.9,132.36,3.9,266,1.2,398.07-.67q163.89-2.33,327.58-6.24c5.44-.12,10.3-1.66,10.28-4.25,0-1,0-1.91,0-2.88,0-2.25-4.38-4.75-10-4.61-219.66,5.22-440.59,10.11-661.05,8-24.08-.22-48.16-.64-72.23-1.39-9.2-.3-18.45-.69-27.62-1.19-3.95-.2-6.91-.48-9.29-.7,11.3-1.93,26.37-3.86,33-4.81,113.26-16.22,231.77-26.65,348.44-37.45,131.2-12.15,263.08-23.09,395.14-33.59,5.52-.44,7.69-2.32,7.34-4.22C1255.18,1350.69,1253.21,1348.73,1247.42,1348.28Z"/><path class="cls-7" d="M1247.36,1379.28c3.46-.32,5.55-1.19,6.57-2.28a.79.79,0,0,0,.17-.14c.06-.13.22-.27.29-.41a2.35,2.35,0,0,0,.53-1.32c0-1.35.13-2.69.2-4,.15-2.94-6.36-5.08-12.69-4.51q-97.17,8.88-193,20.23c-20.77,2.46-125.6,10.29-126,24.58-.75,22.83,282.1,5.95,321.23,4.35,4-.18,8-2.41,7.59-4.16-.26-.95-.48-1.91-.73-2.85-.51-2.14-4-4.85-10-4.61q-85.23,3.49-170.84,5.44-35.1.79-70.33.86c-10.08,0-20.13-.13-30.22-.36-.68,0-1.44-.07-2.13-.11,30.91-6.82,72.71-9.44,104-13C1130.05,1390.36,1188.63,1384.62,1247.36,1379.28Z"/><path class="cls-7" d="M-173.68,1365.79c55.74,4,111.17,9.17,166.32,14.6,104.63,10.26,210.64,31,318.53,26,65.1-3,128.51-10.18,192-16.59,77-7.76,154.44-14.68,232-21.41q99.24-8.61,198.79-16.69c23-1.88,51.25-2.37,73.54-6a13.69,13.69,0,0,0,5.1-1.06c6-2.05,3.14-7.23-4.62-7.75q102,1.74,204,3.89c38.82.86,80.06.48,118.51,3.67,5.71.48,13.76-1,12.89-4.12-.41-1.45-.83-2.9-1.2-4.34-.5-1.84-2.62-4-7.4-4.38-37.16-3.08-76.54-2.69-114-3.39-74.17-1.37-148.35-2.3-222.54-3.2-110.44-1.34-220.89-2-331.28-3.53-4.89-.06-7.94,1.06-9.19,2.53-46.07,2.51-92.75,8.52-136.39,11.75-52.87,3.91-105.87,7.56-159.11,10.5-34.17,1.88-69.34,4.13-103.91,1.88C95.74,1337.53-67.84,1329.59-230.92,1321c-6.85-.35-11.21,2.81-10,5.45.63,1.28,1.27,2.57,1.86,3.86,1,2,5.32,3.21,9.67,3.43,161.32,8.32,323,15.91,483.87,26.07,78.09,4.94,164.72-4.85,241-10.16q112.65-7.83,224.69-17.23,126.89,1.77,253.76,3.92c-53.35.63-106.9,8.14-158.44,12.68-147.52,13-293.84,28.23-441.28,41.3-58.65,5.2-117.34,7.61-176.77,1.49-52.6-5.4-104.24-13.2-156.89-18.76-89.75-9.47-184.56-20.68-276.75-23-9.64-.25-12.53,4.53-7.4,7.45C-229.06,1365.77-195.92,1364.18-173.68,1365.79Z"/><path class="cls-7" d="M-231.38,1304.73c37.13,3.3,76.51,3.17,114,4.1,74.15,1.82,148.32,3.2,222.5,4.54,90.66,1.66,181.38,2.85,272,4.47.36.11.69.21,1.07.3l.16,0c.51.12,1.08.22,1.65.3l.4.07,1.1.08c.34,0,.66.08,1,.1,13.95.56,28.13.46,42.4,0,3.83.07,7.64.13,11.42.21a17.41,17.41,0,0,0,7.1-1.07c46.66-2.71,94-9.15,138.14-12.69,52.8-4.23,105.7-8.21,158.87-11.47,34.13-2.1,69.23-4.55,103.84-2.52,162.77,9.63,326.47,16.58,489.69,24.18,6.88.31,11.17-2.88,9.87-5.51-.68-1.29-1.32-2.57-2-3.85-1-2-5.37-3.16-9.74-3.38-161.42-7.34-323.24-13.94-484.25-23.12-78.19-4.46-164.62,5.85-240.71,11.62q-104.29,7.91-208.07,17.17l-10.76-.51q-98-2-196.07-4.16c32.08-2.94,63.88-7,95-9.91,147.22-13.89,293.22-30,440.35-44,58.52-5.57,117.16-8.32,176.69-2.58,52.69,5.08,104.51,12.58,157.23,17.8,89.92,8.93,185,19.58,277.16,21.38,9.63.18,12.42-4.6,7.28-7.49-14.74-8.26-47.86-6.45-70.13-7.92-55.79-3.69-111.31-8.51-166.55-13.58-104.83-9.64-211.23-29.77-319-24.09-65,3.42-128.26,11-191.63,17.74-76.81,8.25-154.11,15.62-231.53,22.85q-99.07,9.21-198.42,17.89c-23,2-51.2,2.68-73.39,6.48a13.65,13.65,0,0,0-5.09,1.09,4.8,4.8,0,0,0-2.74,2q-90.91-2.1-181.75-4.56c34.07-2.28,69-7.59,99.7-10.44q176.76-16.35,353-33.81c74.82-7.56,149.67-15.38,223.16-25,25.89-3.38,53.53-6.73,77.11-12.6,6.17-1.52,15.8-4.51,15.13-8.22-2.38-13.4-66.86-11.86-87.91-12.36-132.43-3.09-266,.42-398,3.09q-163.81,3.35-327.38,8.23c-5.45.17-10.24,1.73-10.2,4.33,0,1,0,1.92.06,2.87.06,2.25,4.52,4.73,10.1,4.56,219.52-6.54,440.29-12.78,660.73-12.06,24.06.07,48.16.34,72.25.94,9.2.25,18.45.59,27.62,1,4,.19,7,.46,9.29.66-11.23,2-26.25,4-32.93,5-112.9,16.92-231.18,28.07-347.58,39.58-130.95,13-262.54,24.7-394.37,36-5.53.47-7.65,2.37-7.25,4.26a2.24,2.24,0,0,0,1.09,2.61c-25.65-.53-51.51-1.26-76.23-3.45-5.7-.53-13.74.89-13,4,.38,1.45.77,2.89,1.12,4.35C-238.21,1302.16-236.11,1304.31-231.38,1304.73Z"/><path class="cls-7" d="M548.64,1577c-230.83,1.17-462.25-2.46-693.11-7-6.87-.13-11.19,2.74-9.83,5.5.62,1.27,1.23,2.53,1.83,3.81.94,2,4,3,7.38,3.21l.3,0a3.39,3.39,0,0,0,.55,0c.51,0,1,.09,1.52.09,227.38,4.48,455.42,7.24,682.79,6.18,142.67-.65,283.7-7.61,425.91-11.36q182.36-4.82,365.2-7.2c5.88-.08,9.69-1.8,10.2-4.32.19-1,.36-1.93.58-2.89.45-2.32-4.91-4.63-10.11-4.55q-177.35,2.28-354.45,6.92C834.23,1569.15,692.28,1576.27,548.64,1577Z"/><path class="cls-7" d="M1342.77,1640.58c0-2.15-3.15-3.56-7.4-4.37-130.82-24.82-276.14-40.11-417.31-43.78-64.86-1.68-130.44,1.21-195.25,2q-102.18,1.18-204.4,1.45c-221.15.94-442.37.37-663.59-.09-6.68,0-11.46,2.66-9.87,5.52.71,1.25,1.44,2.49,2.12,3.73a6.2,6.2,0,0,0,3.56,2.44,17.9,17.9,0,0,0,6.18.92q324.77,1,649.47-.5c127.39-.6,255.28-4.63,382.65-4.07,148.17.65,304,19,441,44.78,6.19,1.17,12.88-1.5,12.88-4.14C1342.76,1643.14,1342.75,1641.86,1342.77,1640.58Z"/><path class="cls-7" d="M1333.16,1659.86c-214.63-15.13-429.76-28.62-646.32-35.18-115.08-3.5-231-6.7-345.59-1.39-160.55,7.41-323.41,7.9-484.71,11.55-5.65.13-10,1.76-10.2,4.34-.07,1-.13,1.9-.22,2.86a2.89,2.89,0,0,0,1.68,2.62c1.46,1.19,4.26,2,8.43,1.93,158.93-3.6,318.64-4.88,477-11.22,113.48-4.54,226-2.56,340.06.71,220.09,6.31,437.93,20.78,655.88,36.41,8,.56,13.87-1.72,12.52-5.34-.5-1.36-1-2.74-1.55-4.11S1336.26,1660.08,1333.16,1659.86Z"/><path class="cls-7" d="M1291.11,1729.73c-46.51-2.69-92.46-8-137.82-13.32-103.93-12.1-206.2-27.06-308.86-41.21-74.26-10.25-151-22.57-228.5-26.56-47.79-2.45-96.55-1.7-144.39-1.1-206.93,2.56-413.77,12-619,22.28-6,.31-8,2.32-7.2,4.3a2.34,2.34,0,0,0,.06,1.08c.31,1,.57,1.9.88,2.85.81,2.61,7.55,3.48,12.44,3.25,193.62-9.7,388.39-17.94,583.44-21.49,48.49-.88,97.16-1.43,145.75-.31,68.9,1.56,136.68,12.1,202.43,20.93,101.7,13.64,202.64,28.36,304.77,41.32,77.69,9.86,158.08,20.12,238.87,22.34,7.21.21,13.3-3.77,8.83-6.56C1329.26,1729.09,1313.89,1731,1291.11,1729.73Z"/><path class="cls-7" d="M576.14,1709.87c25.89-3.39,53.54-6.72,77.11-12.6,6.19-1.53,15.81-4.53,15.15-8.23-2.38-13.39-66.89-11.88-87.92-12.35-132.43-3.08-266,.41-398,3.1q-163.78,3.32-327.35,8.21c-5.43.17-10.27,1.74-10.18,4.33,0,1,0,1.92,0,2.87,0,2.26,4.51,4.74,10.09,4.58,219.5-6.56,440.29-12.81,660.71-12.09,24.08.11,48.19.35,72.27,1,9.21.22,18.44.57,27.66,1,3.94.19,6.9.45,9.25.66-11.24,2-26.26,4-32.93,5-112.89,16.9-231.17,28.05-347.57,39.57-130.94,12.93-262.57,24.68-394.36,36-5.54.48-7.68,2.38-7.28,4.26-.65,1.93,1.39,3.89,7.18,4.28,47.91,3.44,103.83-6.53,150-10.79,117.85-10.91,235.68-22,353-33.81C427.81,1727.31,502.67,1719.49,576.14,1709.87Z"/><path class="cls-7" d="M-145.4,1761.13c64.65-6.31,128.94-13.4,192.51-21.39,20.71-2.6,125.34-11.06,125.49-25.36.28-22.84-282.14-4.24-321.22-2.4-4,.21-8,2.46-7.5,4.22.26.93.52,1.88.77,2.84.58,2.13,4.14,4.82,10.09,4.55q85.16-4,170.7-6.5,35.08-1,70.32-1.28,15.09-.09,30.19.18l2.15.09c-30.77,7-72.54,9.89-103.77,13.65-57.84,7-116.3,13-174.91,18.74-3.45.36-5.52,1.22-6.55,2.32a1.18,1.18,0,0,0-.11.15,1.2,1.2,0,0,0-.31.41,2.18,2.18,0,0,0-.52,1.32c0,1.35-.07,2.69-.11,4C-158.27,1759.65-151.75,1761.74-145.4,1761.13Z"/><path class="cls-7" d="M1270.39,1753.29c-55.8-3.66-111.3-8.5-166.6-13.57-104.8-9.64-211.18-29.77-319-24.1-65,3.44-128.29,11-191.61,17.77-76.83,8.24-154.14,15.62-231.53,22.82q-99.1,9.22-198.45,17.92c-23,2-51.16,2.67-73.39,6.47a13.65,13.65,0,0,0-5.07,1.1c-6.44,2.25-2.51,8.19,6.7,7.78a5.43,5.43,0,0,0,.57,0c63.67,2.6,128.16-7.53,189.74-13.35,147.23-13.88,293.21-30,440.36-44,58.51-5.57,117.18-8.32,176.69-2.57,52.68,5.09,104.49,12.58,157.24,17.8,89.93,8.93,185,19.59,277.15,21.37,9.64.2,12.42-4.6,7.26-7.49C1325.77,1753,1292.68,1754.78,1270.39,1753.29Z"/><path class="cls-7" d="M1336.44,1788.4c-1-2.05-5.38-3.16-9.75-3.37-161.42-7.37-323.23-13.94-484.27-23.13-78.18-4.45-164.61,5.85-240.68,11.61q-113.25,8.63-225.87,18.76a13.75,13.75,0,0,0-6.47,1.34c-3.22,1.56-2.71,4.12.37,5.82,0,0,0,0,.06,0a10.35,10.35,0,0,0,1.21.56.7.7,0,0,1,.2.08,10.88,10.88,0,0,0,1.51.43.75.75,0,0,0,.12.07c.54.1,1.1.2,1.69.29l.41.06c.34,0,.71.06,1.08.08s.66.08,1,.11c65.31,2.64,135.45-8.49,199.06-13.58,52.76-4.24,105.66-8.21,158.86-11.46,34.12-2.09,69.22-4.57,103.83-2.52,162.78,9.62,326.49,16.57,489.7,24.16,6.85.31,11.16-2.87,9.82-5.5Z"/><path class="cls-7" d="M1329.32,1814c-37.18-3.08-76.55-2.71-114.07-3.39-74.16-1.37-148.35-2.3-222.52-3.21-110.44-1.34-220.89-1.94-331.28-3.51-13.21-.19-13,8.35-.13,8.87,16.11.64,32.22,1.33,48.31,2q144.48,2,288.89,4.49,104,1.77,208,4c38.84.85,80,.47,118.5,3.68,5.76.48,13.76-1,12.9-4.14-.42-1.45-.8-2.89-1.18-4.34C1336.19,1816.56,1334.09,1814.41,1329.32,1814Z"/></g><path class="cls-8" d="M137.65,1549.71a21.1,21.1,0,1,1-21.1-21.11A21.1,21.1,0,0,1,137.65,1549.71Z"/><path class="cls-8" d="M1143,1549.71a21.1,21.1,0,1,1-21.1-21.11A21.1,21.1,0,0,1,1143,1549.71Z"/></g></svg>