<svg xmlns="http://www.w3.org/2000/svg" viewBox="0 0 2484 1935.99"><defs><style>.cls-1{fill:#7f6d5d;}.cls-2{fill:#e8deaa;}.cls-3{fill:#f2ebbf;}</style></defs><g id="Layer_4" data-name="Layer 4"><rect class="cls-1" y="75.77" width="1347.82" height="1748.83" rx="82.62"/><rect class="cls-1" x="1136.18" y="75.77" width="1347.82" height="1748.83" rx="82.62"/><path class="cls-1" d="M1403.52,1774.47A161.52,161.52,0,0,1,1242,1936h0a161.52,161.52,0,0,1-161.52-161.52V1618.53A161.52,161.52,0,0,1,1242,1457h0a161.52,161.52,0,0,1,161.52,161.52Z"/><rect class="cls-2" x="77.97" y="164.88" width="2305.78" height="1581.74"/><path class="cls-3" d="M1241.22,1648.56c-402.78-115.1-685.41-115.07-1088.19,0V132.36c403-178.9,684.35-174,1088.19,0Q1241.22,890.46,1241.22,1648.56Z"/><path class="cls-3" d="M1815.68,5c-13.12,6.18-29,15.48-50.09,29.14-66.4,45.82-167.77,140-258.77,310-71.76,134.08-123.21,287.47-160.86,441C1276.62,1156,1246,1591.81,1242.44,1650c398.26-111.56,662.33-110.44,1074.47,3.45V137.22C2105.27,46.36,2015.44,3,1815.68,5Z"/><path class="cls-2" d="M1245.42,129.67c-6,2.53-10.5,5-16.52,7.55,0,505.4-2.28,1010.79-2.26,1516.2,4-1.15,9.79-2.21,9.79-3.34V136.75C1236.43,134.35,1243.32,132,1245.42,129.67Z"/><path class="cls-2" d="M1767.27,34.17c20.13-13.88,37-23.38,49.24-29.14-187.73,1.9-378.66,44-571.09,124.64-2.1,2.33-9,4.68-9,7.08v1519.8a9.32,9.32,0,0,0,3.42-6.58c4-64.76,7.07-465.36,105-864.79,37.65-153.56,90.29-306.95,162.05-441C1597.91,174.13,1700.87,80,1767.27,34.17Z"/></g></svg>