<svg id="Layer_3" data-name="Layer 3" xmlns="http://www.w3.org/2000/svg" viewBox="0 0 682 682"><defs><style>.cls-1{fill:#784133;}.cls-2{fill:#9f5840;}.cls-3{fill:#8f4930;}.cls-4,.cls-7{fill:#84a59c;}.cls-5{fill:#acd3d0;}.cls-6{fill:#966344;}.cls-6,.cls-7{fill-rule:evenodd;}</style></defs><path class="cls-1" d="M225.22,629.15c1.36-6.51,33.33-160.41,33.33-271.11,0-150.49-36.3-271.45-48.22-311.2-1.77-5.89-3.6-12-3.85-13.46a5.88,5.88,0,0,1,.07,1.1H183.9c0,3,.89,6.13,4.73,18.87,11.69,39,47.27,157.53,47.27,304.69,0,108.36-32.53,264.89-32.86,266.46Z"/><polygon class="cls-2" points="526.22 331.09 256.98 331.09 251.36 380.61 526.22 380.61 526.22 331.09"/><rect class="cls-1" x="242.63" y="435.49" width="286.33" height="23.59"/><rect class="cls-1" x="518.17" y="336.93" width="26.83" height="290.96" transform="translate(-54.45 67.85) rotate(-6.95)"/><path class="cls-3" d="M176.13,666.62l-22.51-4.7c.34-1.57,32.85-158.13,32.85-266.44,0-147.2-38.25-279-50.82-322.27-4.15-14.28-5-17.4-5-20.37l14.42-13.75c-1.13-8.93,7.52,0,7.43-.43.27,1.58,3.23,21.21,5.25,28.14,12.8,44.09,51.73,178.21,51.73,328.68C209.46,506.19,177.49,660.13,176.13,666.62Z"/><rect class="cls-3" x="202.1" y="367.04" width="268.87" height="51.01"/><rect class="cls-3" x="193.37" y="472.93" width="286.34" height="23.6"/><rect class="cls-3" x="468.93" y="369.81" width="26.83" height="295.5" transform="translate(-58.3 61.24) rotate(-6.85)"/><polygon class="cls-1" points="471.68 368.35 526.22 331.14 531.03 378.32 477.22 413.28 471.68 368.35"/><path class="cls-1" d="M207.19,388.77c-3.28-2-2.55-7.74-.95-17.76s44.09-32.92,54-34.83,57.23-10,125.52-11,137.06,8.12,140.43,12.88,4.69,13.52,2.58,17.66-43.27,30.35-53.33,33.87S210.47,390.79,207.19,388.77Z"/><path class="cls-4" d="M207.19,381.77c-3.28-2-4.61-8.27-3-18.29s46.15-32.39,56.09-34.3,57.23-10,125.52-11,137.06,8.1,140.43,12.88,4.69,13.51,2.58,17.65-43.27,30.35-53.33,33.87S210.47,383.79,207.19,381.77Z"/><path class="cls-4" d="M212.22,345.84c10.51-7.4,23.35-14.68,32.33-16.3,11-2,58-10.72,126.33-11.67s136.68,7.48,140,12.25c.64.91-10.87,4.45-21.88,10.95-17.07,10.06-26.74,22.31-36.18,21.44-154.33-14.23-218.16-5.24-249.89-.3-1.58.24-.63-5,2.27-9.51A29.06,29.06,0,0,1,212.22,345.84Z"/><path class="cls-4" d="M127.23,55.73a17.29,17.29,0,0,1,12.4-21.24l54-13.82a17.86,17.86,0,0,1,21.53,12.57l20.7,76.68c2.52,9.29-3.19,18.17-12.3,21.3l-52.93,18.17c-9.11,3.14-18.31-.63-20.81-9.92Z"/><path class="cls-3" d="M120.11,54.5a17.75,17.75,0,0,1,12.73-21.79l55.4-14.17a18.3,18.3,0,0,1,22.09,12.89l21.24,78.67a19.53,19.53,0,0,1-12.3,23.18L164.68,151c-9.35,3.2-18.83-1-21.41-10.56Z"/><path class="cls-4" d="M125,54.85a17.3,17.3,0,0,1,12.41-21.24l54-13.81A17.85,17.85,0,0,1,213,32.37L233.65,109a19,19,0,0,1-12,22.59l-52.93,18.18a16.18,16.18,0,0,1-21.12-11.22Z"/><path class="cls-5" d="M206,31.65c2.37-.42,14.46-9.3,16.3-9.63-11.68-19.25-86.64,9.46-86.64,9.46-10,3.5-11.78,12.06-11.1,20.29,5.28-2.66,16.47-6.59,20.6.45,4.38,7.44,21.88-13.56,26.7-14S186.27,35.15,206,31.65Z"/><path class="cls-4" d="M231.13,124a19.53,19.53,0,0,0,2.29-4.79l-3.1.56-8.75,5-15.46,7.57s-6.42,0-8.46-.28-30.35-5.25-30.64,5.25c-.26,9.23-12.65,7-18.64,3.33a16.1,16.1,0,0,0,20.36,9.21L205,137.36Z"/><path class="cls-5" d="M144.46,50.06a17,17,0,0,1,12.64-20.7l50.08-12.64a17.59,17.59,0,0,1,21,12.8l18.92,76a18.77,18.77,0,0,1-12.26,22l-49.13,17a16,16,0,0,1-20.6-11.47Z"/><path class="cls-6" d="M496.5,641.28q-.06-7.72-.11-15.44C494.5,631,495.45,636.13,496.5,641.28Z"/><polygon class="cls-3" points="486.61 665.87 513.25 662.67 482.35 398.41 455.71 401.6 486.61 665.87"/><polygon class="cls-1" points="505.77 663.57 513.25 662.67 482.35 398.41 474.33 389.87 505.77 663.57"/><path class="cls-7" d="M296.71,351.17a134.06,134.06,0,0,0,21.93,1.22,36.28,36.28,0,0,1,9.3.74,7,7,0,0,0,2.18.22c7.36-.42,14.64.79,21.91,1.46,6.41.59,12.8.59,19.19,1,5.29.33,10.56,1,15.82,1.73,3.81.51,7.65.45,11.49,1.06,5.39.88,10.92,1,16.38,1.54,8.19.8,16.42,1.28,24.44,3.32,1.2.31,2.54.33,3.4,1.47-.33.95-1.15.66-1.77.66-10.46,0-20.91.11-31.36-.12a138,138,0,0,1-15.85-1.38c-2.92-.4-5.83-.5-8.75-.72-6.38-.49-12.75-1.14-19.13-1.73-.54-.05-1.07-.23-1.62-.26-6.75-.46-13.51-.87-20.27-1.33-2.19-.15-4.37-.37-6.56-.57a18,18,0,0,0-2.17-.32c-12.47.35-24.9-2.16-37.33-1.07-15,1.32-30,.59-45.06.91a29.77,29.77,0,0,0-7.1.65,8.82,8.82,0,0,1-2.17.32,180.54,180.54,0,0,0-20.27,1.14c-3.09.36-6.22.17-9.3.89a20.22,20.22,0,0,1-3.83.24c-3.18.11-6.18-.34-6-4.68s8.61-11.81,10.43-13.34c1-.84-23.31,13-18.21,34.91,4.86,12.33,15.8,8.71,22.13,8.63,33.37-.41,66.71,1.64,100.09,1.34,38.15-.33,76.31-.2,114.46,0,10.66.06,21.23-.93,31.85-1.36,5.54-.23,10-3.47,14.58-6.09,11.28-6.49,22.28-13.45,33.06-20.77a29,29,0,0,0,10.14-11.27,4,4,0,0,0-1.12-3.83c-2.77-.57-5.49-.05-8.19.38-15.57,2.47-31.19,4.54-46.84,6.35q-14.21,1.63-28.39,3.38a27.68,27.68,0,0,1-6.56-.06c-12.93-1.46-25.85-3-38.8-4.27-10.21-1-20.48-1.23-30.73-1.28q-21.72-.08-43.46,0c-5.5,0-11,.11-16.49.2C300.29,350.47,298.44,350.34,296.71,351.17Z"/></svg>