<svg xmlns="http://www.w3.org/2000/svg" xmlns:xlink="http://www.w3.org/1999/xlink" viewBox="0 0 88.63 77.33"><defs><style>.cls-1{fill:none;}.cls-2{isolation:isolate;}.cls-3{fill:#dbad6a;}.cls-4{opacity:0.14;mix-blend-mode:multiply;}.cls-5{clip-path:url(#clip-path);}.cls-6{fill:#ebb063;}</style><clipPath id="clip-path"><path class="cls-1" d="M13.17,0H75.46A13.17,13.17,0,0,1,88.63,13.17V77.33a0,0,0,0,1,0,0H0a0,0,0,0,1,0,0V13.17A13.17,13.17,0,0,1,13.17,0Z"/></clipPath></defs><g class="cls-2"><g id="Layer_9" data-name="Layer 9"><path class="cls-3" d="M13.17,0H75.46A13.17,13.17,0,0,1,88.63,13.17V77.33a0,0,0,0,1,0,0H0a0,0,0,0,1,0,0V13.17A13.17,13.17,0,0,1,13.17,0Z"/><g class="cls-4"><g class="cls-5"><path class="cls-6" d="M-27.79,0V5.72C29.2,1.62,86.4-2.2,143.72-5.36v-5.92C86.38-8.11,29.17-4.16-27.79,0Z"/><path class="cls-6" d="M-27.79,20.47v5.87Q7.34,24,42.6,22.17q16.76-.83,33.55-1.34c4.81-.14,9.61-.2,14.41-.22l1,0C77,24.37,57.08,26.19,42.21,28.35c-23.17,3.35-46.55,6.39-70,9.3v6.42Q13,39,53.18,33c9.85-1.48,59.7-6.67,59.63-13.65C112.73,9.65,11.05,17.42-27.79,20.47Z"/><path class="cls-6" d="M95.4,95.4l1.52.17h46.8v-.38Q100.58,90,57.29,85.11c-24.55-2.74-50-7-75.48-7.8q60.57.25,121.13.67,20.36,2.19,40.78,4.26V75.5c-3.64-.36-7.28-.7-10.91-1-.58-.73-2-1.31-4.35-1.33C76.39,72.84,24.3,72-27.79,71.56v11C-18.53,83.78-8.11,84.3.72,85.23Q48.11,90.21,95.4,95.4Z"/><path class="cls-6" d="M117.18,2.36q-72.54,3.06-145,6.78v5.75c57-3,114.24-5.81,171.51-8.09V1.23Z"/><path class="cls-6" d="M143.72,34.28V29.07Q58.28,39.51-27.79,48.82v11h.38c35.4.14,70.8.06,106.21,0q32.46-.07,64.92-.29V54.17H120.31c7.85-.91,15.66-2,23.41-3V44.68L108.94,48.6c-11,1.22-24.4,1.83-35,3.91a6.39,6.39,0,0,0-2.41.58,2.31,2.31,0,0,0-1.29,1Q26.89,54-16.49,53.71C-.26,52.25,16.37,49.31,31,47.6Q87.4,41,143.72,34.28Z"/></g></g></g></g></svg>