<svg id="Layer_3" data-name="Layer 3" xmlns="http://www.w3.org/2000/svg" viewBox="0 0 682 682"><defs><style>.cls-1{fill:#3a664a;}.cls-2{fill:#254939;}.cls-3{fill:#f2ebbf;}.cls-4{fill:#f2cb05;}.cls-5{fill:#f29f05;}</style></defs><path class="cls-1" d="M581.87,659.7l60.26-334.58L340.8,65.34,39.46,335.51l58.19,320S249.36,703.34,581.87,659.7Z"/><path class="cls-2" d="M552.94,661l43.19-367.93c2.49-1.48,0-4.7-3.61-5.12a6.48,6.48,0,0,0-7.19,5.69l-43.56,371C546.16,664.12,550.57,663.6,552.94,661Z"/><path class="cls-2" d="M472,671.52l39.54-459-9.4-8.11c-1.84,1-3.17,2.9-5.44,3.06l-39.88,463A39.12,39.12,0,0,0,472,671.52Z"/><path class="cls-2" d="M380.22,677c4.28-.15,8.61-.32,10.91-2.59L407,122.11l-10.59-8.84Z"/><path class="cls-2" d="M277.36,675.39a42.9,42.9,0,0,0,15.06,2.4L281.93,118.12l-14.83,9.36Z"/><path class="cls-2" d="M203.54,673q6.38.59,13.12,1.13L176.14,213l-12.07,10.82Z"/><path class="cls-2" d="M126.36,662.29c4,.79,8.51,1.62,13.41,2.46L90.13,290.08,78.44,300.56Z"/><path class="cls-3" d="M174.54,670.09S332,685.68,502.89,668c0,0,26.89-295.25-162.1-293S174.54,670.09,174.54,670.09Z"/><path class="cls-4" d="M642.13,348.82C601.6,315.5,367.81,117.3,367.81,117.3s-16.62-14.55-27-14.55S31.15,358.37,31.15,358.37s-20.78,8.31-24.94-16.63-6.23-33.25,14.55-54,66.5-56.11,66.5-56.11l2.08-27L214,109l2.08-16.63,108.06-81s14.55-16.62,33.25,0,106,81.05,106,81.05l1,21.82,122.61,91.44,2.08,18.71,89.36,81S670.19,371.88,642.13,348.82Z"/><path class="cls-5" d="M197.4,672.17s128.94,14.24,286.79-2.08c0,0,31.17-274.32-143.39-272.24S197.4,672.17,197.4,672.17Z"/><path class="cls-3" d="M351.12,270.89c-27.58,0-52.3,13.5-69.08,25.76.07-1,.13-2.06.13-3.1,0-25.15-22.55-45.53-22.55-45.53s-22.55,20.38-22.55,45.53a51,51,0,0,0,5,21.2,52.51,52.51,0,0,0-5.44,22.35c0,25.63,23,46.41,23,46.41s23-20.78,23-46.41c0-.32,0-.63,0-1,16.76,12.16,41.25,25.37,68.54,25.37,50.54,0,91.51-26.84,91.51-45.32C442.63,304.77,401.66,270.89,351.12,270.89Z"/></svg>