<svg id="Layer_3" data-name="Layer 3" xmlns="http://www.w3.org/2000/svg" viewBox="0 0 1141 682"><defs><style>.cls-1{fill:#62892b;}.cls-1,.cls-3,.cls-4{fill-rule:evenodd;}.cls-2{opacity:0.2;}.cls-3{fill:#293616;}.cls-4{fill:#82a156;}.cls-5{fill:#896955;}</style></defs><path class="cls-1" d="M653.81,669.49C678.74,499,619.29,397.85,548.6,385.32,476,372.47,427.05,345.85,405.1,230.51S369.66-2,288.6,13.22,178.83,131.42,172.09,249.61,114.7,354.3,45.46,400.64c-54.1,36.2-15.39,199.28,4.09,268.85Z"/><g class="cls-2"><path class="cls-3" d="M579.59,537.7c-32.94-23-99.61,23-152.78,17.1s-39.7-171.39-114-171.39-68.38,189.11-127.49,190-54-81.88-102.12-54.28c-39.7,22.76-13.94,117.79-3.67,150.41H558.12C576.39,626.11,602.32,553.58,579.59,537.7Z"/></g><path class="cls-1" d="M1119.37,669.49c16.31-111.45-22.56-177.6-68.78-185.79-47.45-8.4-79.47-25.81-93.82-101.21s-23.17-152-76.17-142.07S808.83,317.7,804.43,395s-37.53,68.45-82.8,98.74c-35.37,23.67-10.06,130.29,2.68,175.78Z"/><g class="cls-2"><path class="cls-3" d="M1070.85,583.32c-21.54-15-65.13,15-99.89,11.19s-26-112.06-74.53-112.06-44.71,123.64-83.36,124.19-35.3-53.53-66.76-35.49c-26,14.88-9.12,77-2.4,98.34h312.9C1068.76,641.12,1085.71,593.71,1070.85,583.32Z"/></g><path class="cls-4" d="M900.24,669.49c20.27-138.7-28.1-221-85.61-231.2-59.06-10.48-98.89-32.11-116.75-126S669,123.17,603.07,135.54s-89.28,96.16-94.78,192.32-46.71,85.19-103,122.88c-44,29.45-12.55,162.14,3.32,218.75Z"/><g class="cls-2"><path class="cls-3" d="M836.26,562.27c-26.79-18.72-81.07,18.7-124.34,13.9S679.63,436.73,619.2,436.73,563.55,590.6,515.45,591.29s-44-66.63-83.11-44.18c-32.27,18.52-11.32,95.83-3,122.38H818.76C833.61,634.2,854.74,575.19,836.26,562.27Z"/></g><path class="cls-5" d="M617,670.12l-11.43-1.26c20.63-186.49-2.85-460.69-3.09-463.44l11.46-1C614.14,207.18,637.71,482.5,617,670.12Z"/><rect class="cls-5" x="602.31" y="236.89" width="47.61" height="11.5" transform="translate(65.25 611.86) rotate(-54.54)"/><rect class="cls-5" x="581.22" y="235.39" width="11.5" height="76.6" transform="translate(-17.22 506.9) rotate(-46.1)"/><rect class="cls-5" x="603.63" y="344.12" width="87.18" height="11.5" transform="translate(-45.48 597.8) rotate(-48.09)"/><rect class="cls-5" x="569.51" y="331.14" width="11.5" height="124.78" transform="translate(-108.44 529) rotate(-45.58)"/><rect class="cls-5" x="599.25" y="438.63" width="146.42" height="11.49" transform="translate(-119.93 591.99) rotate(-44.01)"/><rect class="cls-5" x="581.6" y="492.47" width="11.5" height="87.07" transform="translate(-206.66 578.83) rotate(-45.47)"/><rect class="cls-5" x="598.32" y="558.21" width="116.22" height="11.5" transform="translate(-204.38 653.15) rotate(-46.58)"/><path class="cls-5" d="M480.66,669.66c-3.74-131-26.89-171.29-27.13-171.68l9.83-6c1,1.66,24.94,42.33,28.8,177.3Z"/><rect class="cls-5" x="467.08" y="581.79" width="65.47" height="11.51" transform="translate(-261.82 709.77) rotate(-58.73)"/><rect class="cls-5" x="441.65" y="573.11" width="11.49" height="78.2" transform="translate(-285.1 808.22) rotate(-68.82)"/><path class="cls-5" d="M792.11,669.66l-11.5-.34c2.51-87.58,9.27-141.73,18.57-148.59l3.41,4.62,4.24,3.85C806.38,529.83,795.64,546.12,792.11,669.66Z"/><rect class="cls-5" x="767.27" y="555" width="11.51" height="65.27" transform="translate(-192.7 486.3) rotate(-31.25)"/><rect class="cls-5" x="787.06" y="610.65" width="55.03" height="11.49" transform="translate(-167.77 336.26) rotate(-21.2)"/></svg>