<svg id="Layer_3" data-name="Layer 3" xmlns="http://www.w3.org/2000/svg" viewBox="0 0 682 682"><defs><style>.cls-1{fill:#784133;}.cls-2{fill:#f2ebbf;}.cls-3{fill:#5896b2;stroke:#f2ebbf;stroke-miterlimit:10;}.cls-4{fill:#fcf6db;}</style></defs><path class="cls-1" d="M467.79,511.17,359.08,460.09V172.48h-40.5V457.55L209.14,522.06A20.25,20.25,0,1,0,229.71,557l88.87-52.39v52.69a20.25,20.25,0,0,0,40.5,0V504.84l91.49,43a20.25,20.25,0,0,0,17.22-36.66Z"/><path class="cls-2" d="M657.06,134.88S668.63,233.24,671.52,239c0,0-8.68,0-11.57,2.9s-105.59,21.69-277.73,21.69-341.37-8.68-351.49-13-11.57-8.67-20.25-10.12c0,0,1.45-73.77,10.12-105.59Z"/><path class="cls-3" d="M11.47,213.92s17.09,18.59,328.08,18.59S666.2,207.4,666.2,207.4L668,220s-52.16,24.13-329.88,24.13S11.2,225.28,11.2,225.28Z"/><ellipse class="cls-4" cx="338.83" cy="135.6" rx="318.23" ry="31.1"/></svg>