<svg id="Layer_1" data-name="Layer 1" xmlns="http://www.w3.org/2000/svg" viewBox="0 0 682 682"><defs><style>.cls-1{fill:#9b5516;}.cls-2{fill:#a16729;}.cls-3{fill:#7f3c12;}.cls-4{fill:#ca8043;}.cls-5{fill:#fff;}.cls-6{fill:#634430;}.cls-7{fill:#272829;}</style></defs><rect class="cls-1" x="171.02" y="330.6" width="60.12" height="205.27"/><path class="cls-2" d="M499.81,605.18c-22,1.54-45.36,2.5-69.91,2.64-29.1.17-56.56-.85-82.16-2.64V561a328.18,328.18,0,0,1-24.61-70,117.21,117.21,0,0,0-14.41,43.31,115.57,115.57,0,0,0-.74,19.16,100.43,100.43,0,0,0-24.29,21l-45.62-2q-.07-68.15-.13-136.3c-11.39-15.3-23-31.95-34.52-50-14.58-22.75-27.17-44.74-38-65.51a64.07,64.07,0,0,1-8.31-16.17c-6.15-17.91-1.83-32.12,0-51.23A196.91,196.91,0,0,0,155.91,207c-3.45-8.18-6.62-14.62-8.83-18.93-2.3-4.47-2.16-3.89-10-18.25-4-7.26-5.17-9.58-8.83-16.22-2.71-4.92-5-9-6.43-11.6A107.65,107.65,0,0,1,132.56,90.9C153,54.83,189.32,31.62,227.21,32.22c52,.81,100.43,46.37,106,108.53a75.53,75.53,0,0,1-6.94,12.62,76.82,76.82,0,0,1-8.2,10.1A71.09,71.09,0,0,0,325,184.92c3.05,6,11.53,20.45,27.77,29a62.51,62.51,0,0,0,25.87,6.94c28.44,2,128.92,47.1,168.48,125.57C585.1,421.77,565.44,524.86,499.81,605.18Z"/><path class="cls-3" d="M274.78,45.71a53.39,53.39,0,0,1,4.3-6.45c9-11.54,19.11-14.74,31.81-22.78A129,129,0,0,0,330.67,1c10.26,16,10.92,29.57,10.75,35.68C341,53,333.31,66.36,325.94,79.25a146.71,146.71,0,0,1-8.6,13.32Z"/><path class="cls-4" d="M330.67,1a96.14,96.14,0,0,1-8.17,33.1A96.51,96.51,0,0,1,298,67.21l15.9,18.06a83.77,83.77,0,0,0,14.19-22.36C339.71,35.86,333.47,10.33,330.67,1Z"/><path class="cls-3" d="M177.64,45.71a54.64,54.64,0,0,0-4.3-6.45c-9-11.54-19.12-14.74-31.82-22.78A129.53,129.53,0,0,1,121.75,1C111.49,17,110.83,30.57,111,36.68c.44,16.29,8.1,29.68,15.48,42.57a149.2,149.2,0,0,0,8.59,13.32Z"/><path class="cls-4" d="M121.75,1a95.91,95.91,0,0,0,8.17,33.1,96.51,96.51,0,0,0,24.5,33.11L138.51,85.27a84,84,0,0,1-14.18-22.36C112.71,35.86,119,10.33,121.75,1Z"/><path class="cls-5" d="M157.63,104.67c-.1,10.82,11.89,19,22.59,18.89,10.26-.06,21.93-7.68,22.13-18.28.2-10.77-11.55-19-22.13-19.09S157.73,94,157.63,104.67Z"/><circle class="cls-6" cx="180.33" cy="105.38" r="15.18"/><circle class="cls-5" cx="187.46" cy="97.51" r="4.55"/><path class="cls-5" d="M251.69,104.67c-.1,10.82,11.89,19,22.59,18.89,10.26-.06,21.93-7.68,22.13-18.28.2-10.77-11.55-19-22.13-19.09S251.79,94,251.69,104.67Z"/><circle class="cls-6" cx="274.39" cy="105.38" r="15.18"/><circle class="cls-5" cx="281.53" cy="97.51" r="4.55"/><path class="cls-3" d="M298.48,579.73c0-16.06-16.13-29.27-35.73-29.27S227,563.67,227,579.73"/><path class="cls-3" d="M236.23,544.47c0-16.06-16.12-29.27-35.72-29.27s-35.73,13.21-35.73,29.27"/><path class="cls-3" d="M382.21,605.71c0-16.06-16.13-29.28-35.73-29.28s-35.73,13.22-35.73,29.28"/><path class="cls-1" d="M499.81,605.18c-2.26,1.72-5.65,4.17-9.94,6.83-35,21.7-71,20.28-107.3,19.16-33.55-1-71-1.93-122.63-2.87-12.12-.53-90.95-3.32-104.43,27.78-1,2.23-4.43,10.22-1,16.29,4.78,8.34,19.51,7.47,46.94,6.7,11.92-.33,31.09-.79,55.57-1C287,680,484.25,691.46,545.44,650.33c6.44-4.33,21.54-14.48,24.91-31.62,6.06-30.84-30.69-59.8-36.41-64.19Z"/><path class="cls-7" d="M221.55,149.28A21.24,21.24,0,0,1,207,137.67a26.48,26.48,0,0,1,29.09,0,23.05,23.05,0,0,1-14.54,11.61Z"/><path class="cls-7" d="M221.55,157.05a12.87,12.87,0,0,0-8.81,7,16,16,0,0,0,17.61,0,14,14,0,0,0-8.8-7Z"/><rect class="cls-7" x="219.18" y="146.23" width="4.74" height="12.71"/></svg>