<svg xmlns="http://www.w3.org/2000/svg" xmlns:xlink="http://www.w3.org/1999/xlink" viewBox="0 0 1264.72 925.19"><defs><style>.cls-1{fill:none;}.cls-2{clip-path:url(#clip-path);}.cls-3{fill:#ebb063;}.cls-4{clip-path:url(#clip-path-2);}.cls-5{fill:#ce964d;}.cls-6{fill:#edc179;}.cls-7{clip-path:url(#clip-path-3);}.cls-8{fill:#9b6623;}</style><clipPath id="clip-path"><path class="cls-1" d="M-33.49,1438.42l-55.77-11.15L-34,1416.21l-1-47.08-93.58-46.78,93.11,25.86-.93-41.81L-141.72,1283l104.26-23.17-.36-16.17h-90.79l89.93-38.54-1-43.34-49.62-9.93,49.18-9.84-1.14-51.39-87.39-43.69,87,24.85-2.3-103.54h-84.67L-45,932.42c-5.5-59.32-55.77-106.17-116.46-106.17H-1170.94c-48.74,0-90.74,30.21-108.26,72.83l101.38,22.53-110,24.45,2.12,95.61,55.46,11.09-55,11,1,47.3,93.27,46.63-92.8-25.78.92,41.79,105,23.34-104,23.1.36,16.24h90.48l-89.63,38.41,1,43.53,49.31,9.87-48.88,9.77,1.15,51.61,87.08,43.54-86.66-24.76,1.09,49.13a116,116,0,0,0,13.49,54.32h72.08l-55.48,23.77a116.75,116.75,0,0,0,86.89,38.89H-150a115.74,115.74,0,0,0,43.08-8.31l-34.75-7.72,71.79-16a116.68,116.68,0,0,0,36.86-85Z"/></clipPath><clipPath id="clip-path-2"><rect class="cls-1" x="575.49" width="113.74" height="922.27"/></clipPath><clipPath id="clip-path-3"><polygon class="cls-1" points="1257.25 362.31 15.01 399.9 14.18 372 66.87 329.2 12.84 327.99 10.9 264.1 10.3 244.22 64.25 195.68 8.15 173.22 6.5 118.53 1248.74 80.94 1249.32 100.11 1177.97 127.86 1250.82 149.82 1251.64 176.8 1253.92 252.06 1196.61 273.7 1255.81 314.55 1257.25 362.31"/></clipPath></defs><g id="Layer_9" data-name="Layer 9"><g class="cls-2"><path class="cls-3" d="M-1500.23,836.58c1.06,2,4.39,3,8.13,3.3a1.67,1.67,0,0,1,.32,0l.6,0c.56.05,1.08.09,1.67.11,250.23,4.76,501.16,7.79,751.36,6.93,157-.56,312.15-7.54,468.64-11.25q200.72-4.76,401.88-7c6.45-.08,10.66-1.85,11.21-4.4.2-1,.4-2,.63-2.95.51-2.37-5.38-4.73-11.1-4.67q-195.2,2.16-390,6.75c-157.52,3.59-313.73,10.75-471.77,11.37-254,1-508.69-2.93-762.71-7.73-7.6-.13-12.31,2.78-10.83,5.61C-1501.57,834-1500.91,835.29-1500.23,836.58Z"/><path class="cls-3" d="M-1500.7,862.76a6.78,6.78,0,0,0,3.93,2.51,22,22,0,0,0,6.8.94q357.32,1.31,714.64.06c140.2-.49,280.91-4.47,421.07-3.8,163,.8,334.57,19.68,485.26,46.12,6.82,1.2,14.17-1.51,14.15-4.2,0-1.32,0-2.63,0-3.94,0-2.2-3.46-3.63-8.14-4.46-144-25.46-303.88-41.22-459.21-45.1-71.41-1.78-143.56,1.12-214.9,1.82Q-649.47,853.84-762,854c-243.37.76-486.77,0-730.23-.68-7.34,0-12.6,2.69-10.83,5.62C-1502.24,860.22-1501.48,861.5-1500.7,862.76Z"/><path class="cls-3" d="M-1490.61,905.26c174.89-3.53,350.64-4.7,524.94-11,124.87-4.53,248.68-2.43,374.21,1,242.19,6.65,481.93,21.64,721.74,37.78,8.78.58,15.27-1.75,13.78-5.43l-1.69-4.2c-.53-1.37-4.32-3-7.75-3.26-236.18-15.63-472.94-29.62-711.24-36.52-126.63-3.68-254.22-7-380.25-1.74-176.68,7.45-355.89,7.79-533.39,11.37-6.21.13-11,1.79-11.23,4.4-.07,1-.14,2-.23,2.94a2.94,2.94,0,0,0,1.84,2.68C-1498.24,904.49-1495.19,905.35-1490.61,905.26Z"/><path class="cls-3" d="M88.41,991.47c-51.17-2.78-101.75-8.29-151.64-13.72-114.39-12.47-227-27.84-339.93-42.39-81.73-10.52-166.22-23.19-251.48-27.32-52.56-2.55-106.24-1.81-158.87-1.26-227.69,2.43-455.31,11.84-681.13,22.2-6.57.3-8.79,2.34-7.94,4.39a2.21,2.21,0,0,0,.08,1.1c.32,1,.63,1.93,1,2.91.9,2.67,8.33,3.56,13.72,3.32,213.06-9.71,427.39-18,642-21.41,53.34-.86,106.94-1.37,160.38-.2,75.86,1.67,150.42,12.49,222.78,21.56,111.9,14,223,29.16,335.39,42.5,85.49,10.13,174,20.69,262.87,23,7.94.21,14.64-3.86,9.71-6.72C130.37,990.84,113.48,992.83,88.41,991.47Z"/></g><rect class="cls-3" x="575.49" width="113.74" height="925.19"/><g class="cls-4"><path class="cls-5" d="M844,925.19c.73-271,2.32-571.69,4.12-773.3.08-9.27-1.61-15-3.25-13.21-.74.82-1.49,1.62-2.24,2.46-1.16,1.29-1.76,5.36-1.91,9.93a2.55,2.55,0,0,1,0,.39c0,.26,0,.49,0,.74,0,.68-.05,1.3-.06,2-1.81,200.25-3.19,501.29-3.78,771Z"/><path class="cls-5" d="M832.39,925.19c0-269,.32-574.43.57-774.25,0-8.95-1.56-15.38-3.25-13.21-.74,1-1.48,1.88-2.2,2.84a11.32,11.32,0,0,0-1.45,4.79,56.79,56.79,0,0,0-.56,8.3c-.33,198-.45,504.38-.34,771.53Z"/><path class="cls-5" d="M814.74,925.19c-2.71-234.67-3.12-588.09-4.88-771.88-.07-7.58-1-13.44-2.54-13.7-.57-.09-1.13-.18-1.7-.29s-1.15.76-1.55,2.24c-.7,2-1.2,5.74-1.15,11.32,1.76,183.54,2.5,540.54,5,772.31Z"/><path class="cls-5" d="M792.87,925.19h7.25c-2.43-310.26-6.53-713.25-10.92-915.31-.17-8-1.35-10.74-2.54-9.69a.64.64,0,0,0-.64.09l-1.68,1.16c-1.54,1.1-2.06,10.16-1.92,16.75C786.66,214.56,790.43,623.74,792.87,925.19Z"/><path class="cls-5" d="M735.25,12.77c3.69,86.81,7.86,544.92,12.54,630.34,1.53,27.82,6.47,168.35,14.93,168.54,13.49.34,2.64-750.78,1.56-803.31-.1-5.38-1.44-10.66-2.47-10-.56.35-1.12.68-1.68,1.06-1.26.76-2.86,5.54-2.7,13.54C759,89.15,760.27,537.35,761.18,614q.54,47.16.72,94.45.06,20.31-.13,40.55c0,1,0,2,0,2.93-4.14-41.33-5.81-97.44-8-139.39-4.08-77.7-7.65-528-11-606.71-.19-4.63-.72-7.44-1.36-8.81,0-.08,0-.07-.09-.13a3.25,3.25,0,0,0-.23-.43c-.25-.41-.5-.68-.8-.69-.79,0-1.58-.09-2.38-.17C736.14-4.53,734.88,4.22,735.25,12.77Z"/><path class="cls-5" d="M573.77,925.19h6.93q-1.08-90.66-2-181.53c-1.4-163.44-2.27-698.89-2.74-862.61,0-7.91-1-13.08-2.51-13.8-.58-.3-1.14-.56-1.71-.87-1.36-.67-2.76,6.46-2.73,13.44.4,158.9,1.33,689.51,2.62,848.15Q572.48,826.78,573.77,925.19Z"/><path class="cls-5" d="M593.72,925.19q0-38.7.21-77.36c1-199,12.48-779.7,28.27-963,.71-8.32-.84-17.36-2.39-17.4l-2.28-.11c-1.27-.08-2.12,4.11-2.6,9.79-15.2,175.1-24.84,741.69-27.59,931.24-.56,38.79-.58,77.79-.42,116.81Z"/><path class="cls-5" d="M615.41,925.19c5.11-330.78,12.79-804.34,20.91-1038.8.37-10.74-1-18.72-3.09-17-.81.67-1.62,1.33-2.43,2s-1.78,5.21-1.91,9.37c-8,234.67-15.37,716.72-20.41,1044.47Z"/><path class="cls-5" d="M642.38,925.19c7.42-117,15.13-233.5,22.08-351.25C670.61,469.87,677-9.65,678.65-118.15c.16-9.66-2.19-18-3.85-12-5,18-3.95,38.68-4.81,69.23-1.79,62.38-5.14,495.8-8.45,556.55C654,634.91,644.71,772,635.93,909.48q-.49,7.85-1,15.71Z"/><path class="cls-5" d="M686.87,925.19h7c0-1.88.09-3.75.14-5.63,6.36-218.42,11.13-809.93,16.31-1029,.21-9.2-1.66-15.06-3.23-13.35-.75.84-1.51,1.7-2.27,2.51-1.21,1.33-1.91,7.12-2,13-5,216.7-9.58,805.66-15.66,1021.76Q687,919.81,686.87,925.19Z"/><path class="cls-5" d="M666.12,925.19c.15-29,.8-58.13,2.14-87.38,3.22-70.66,7.85-140,11.17-210.76,5.64-120.58,12.31-619.74,13.76-743.56.15-13-2.67-16.83-4.4-9.95-4.93,19.56-4,64.08-5,93.95-2.41,74.87-5.49,521.11-8.72,595.21-5.19,119.36-14.86,240.06-15.88,362.49Z"/><path class="cls-5" d="M784,925.19q-.43-50.25-.87-100.32c-1.26-146.68-2.82-665.07-4.7-811.51C778.36,6,777.43-.4,775.9-.33l-1.7.08c-1.33.07-2.78,6.08-2.7,13.56,2.63,206.28,5.17,595.35,6.27,911.88Z"/><path class="cls-5" d="M719.43,925.19l.93-94.35c1.28,31.73,2.89,63.26,4.35,94.35h7.58q-2.46-63-4.87-126.05c-1.2-30.87-1.56-68.75-3.79-98.56a38.94,38.94,0,0,0-.64-6.83,8.68,8.68,0,0,0-1.18-3.69c.86-81.39,1.77-534.56,2.79-615.91,1.33,45.74,4.45,464.5,6.11,505.68q7,172.83,14.24,345.36h6.32q-.36-8.52-.73-17C743,732.3,736.09,183.76,729.48,6.7,729.2-.74,728.08-3.58,727-3c-.54-.4-1.09.06-1.54,1.46.32-34.44.77-69.19,2.09-102.38.31-7.66-.53-18.47-2.39-17.4-.86.49-1.71,1-2.57,1.49-1.09.61-2.36,3.43-2.61,9.8C718-60.21,718-7.31,717.45,43.09c-1.12,99.58-2,571-2.8,670.64q-.9,105.71-1.61,211.46Z"/><path class="cls-5" d="M558.88,925.19c.68-321.75,2.34-706.68,4.23-918.23.08-9.24-1.61-15-3.25-13.22l-2.24,2.47c-1.17,1.26-1.76,5.35-1.9,9.92,0,.14,0,.26,0,.4s0,.49,0,.74c0,.67,0,1.3,0,2-1.89,209.93-3.31,595.87-3.85,915.89Z"/><path class="cls-5" d="M547.36,925.19c0-318,.31-710.35.58-919.17,0-9-1.57-15.39-3.26-13.26-.74,1-1.47,1.93-2.21,2.87A11.59,11.59,0,0,0,541,.4a53.14,53.14,0,0,0-.55,8.32c-.36,206.68-.47,601.16-.33,916.47Z"/><path class="cls-5" d="M529.88,925.19c-2.86-262.3-3.25-729.41-5-916.82-.07-7.59-1-13.44-2.55-13.7-.56-.09-1.13-.17-1.69-.28s-1.14.76-1.55,2.24c-.71,2-1.2,5.73-1.16,11.32,1.79,186.93,2.54,659.66,5.16,917.24Z"/><path class="cls-5" d="M507.89,925.19h7.25C512.72,614,508.6,206.57,504.17,3c-.18-8-1.36-10.72-2.54-9.67a.63.63,0,0,0-.63.09c-.56.41-1.12.78-1.68,1.18-1.56,1.1-2.07,10.15-1.93,16.72C501.66,209.19,505.45,623.11,507.89,925.19Z"/><path class="cls-5" d="M499,925.19q-.45-53.69-.93-107.17C496.86,671.34,495.3,153,493.41,6.51c-.08-7.3-1-13.78-2.54-13.66l-1.7.05c-1.33.07-2.8,6.08-2.71,13.56,2.66,207.78,5.21,601,6.3,918.73Z"/><path class="cls-5" d="M460.21,925.19h6.32q-.52-11.94-1-23.85C457.93,725.46,451.05,315,444.44,138c-.28-7.45-1.4-10.32-2.52-9.77-1.13-.88-2.29,1.86-2.54,9.64-2,64.37,3.8,373.17,6.32,435.15Q452.78,749.25,460.21,925.19Z"/><path class="cls-5" d="M450.22,144c-2.15-50,.37,270.54,12.54,492.27,1.53,27.82,6.47,168.36,14.92,168.54,13.48.34,2.65-750.78,1.57-803.28-.11-5.41-1.44-10.72-2.48-10.06l-1.67,1c-1.26.78-2.86,5.56-2.69,13.57,1.54,76.24,2.83,524.44,3.74,601.06q.57,47.13.72,94.45.06,20.29-.13,40.57c0,1,0,1.93-.05,2.89-4.13-41.32-5.8-97.43-8-139.38-4.07-77.69-7.64-528-11-606.72-.2-4.64-.73-7.42-1.36-8.78l-.09-.16a2.06,2.06,0,0,0-.24-.43c-.24-.41-.49-.68-.78-.69-.8,0-1.6-.08-2.39-.15C451.11-11.37,449.87,135.46,450.22,144Z"/><path class="cls-5" d="M440,925.19h7.54q-2.61-66.42-5.15-132.9c-1.18-30.85-1.55-68.73-3.78-98.57a39.74,39.74,0,0,0-.65-6.82c-1.33-8.65-4.84-3.36-4.61,9,0,.23,0,.5,0,.75C431.94,773.17,436.57,850.52,440,925.19Z"/></g><polygon class="cls-5" points="1258.21 394.16 15.98 431.75 15.13 403.86 67.84 361.06 13.8 359.84 11.87 295.95 11.27 276.07 65.22 227.53 9.12 205.07 7.46 150.38 1249.71 112.8 1250.29 131.96 1178.94 159.71 1251.79 181.67 1252.61 208.65 1254.88 283.91 1197.58 305.55 1256.78 346.4 1258.21 394.16"/><polygon class="cls-6" points="1257.25 362.31 15.01 399.9 14.18 372 66.87 329.2 12.84 327.99 10.9 264.1 10.3 244.22 64.25 195.68 8.15 173.22 6.5 118.53 1248.74 80.94 1249.32 100.11 1177.97 127.86 1250.82 149.82 1251.64 176.8 1253.92 252.06 1196.61 273.7 1255.81 314.55 1257.25 362.31"/><g class="cls-7"><path class="cls-3" d="M544.4,152c231.45-6.77,463.53-8.74,695-9.82,6.91,0,11.23-3,9.82-5.75-.61-1.27-1.23-2.52-1.88-3.77-1-1.94-4-2.89-7.42-3.05a3,3,0,0,1-.3,0,2.78,2.78,0,0,0-.56,0c-.51,0-1,0-1.51-.06-228.06,1-456.73,3.77-684.71,10.34-143,4.13-284.36,14.5-426.9,21.72q-182.83,9.27-366.12,16.06c-5.9.22-9.72,2-10.17,4.58-.2,1-.37,1.95-.56,2.92-.44,2.33,4.95,4.51,10.16,4.33Q-62.9,182.92,114.61,174C258.12,166.84,400.4,156.24,544.4,152Z"/><path class="cls-3" d="M-245,111.74c131.42,21.69,277.28,33.52,418.85,33.78,65.08.11,130.79-4.37,195.78-6.71,68.28-2.45,136.59-4.45,204.94-6.39,221.73-6.3,443.53-11.1,665.36-16,6.68-.16,11.44-2.93,9.82-5.77-.72-1.23-1.44-2.45-2.15-3.69a6.12,6.12,0,0,0-3.59-2.36,18.94,18.94,0,0,0-6.24-.79q-325.57,6.89-651.17,16.26C458.84,123.76,330.66,130.87,203,133.41c-148.57,3-305-11.68-442.56-34.21-6.26-1-12.92,1.83-12.88,4.46,0,1.29,0,2.58,0,3.86C-252.44,109.68-249.28,111-245,111.74Z"/><path class="cls-3" d="M1238,65.48C1078.66,73,918.56,78.09,759.76,88.29c-113.72,7.31-226.56,8-341,7.54-220.75-1-439.31-10.25-658-20.61-8-.4-13.91,2-12.53,5.63.54,1.35,1.08,2.73,1.59,4.09s4,2.86,7.09,3c215.35,10,431.2,18.29,648.4,19.62,115.42.73,231.73,1.13,346.52-7,160.91-11.34,324.2-15.77,485.93-23.32,5.63-.27,10-2,10.16-4.6.06-1,.12-1.91.19-2.89a2.81,2.81,0,0,0-1.68-2.59C1245,66.05,1242.18,65.29,1238,65.48Z"/><path class="cls-3" d="M-201.57,16.88c46.66,1.57,92.81,5.81,138.31,10C41.07,36.5,143.81,49,246.85,60.74c74.58,8.46,151.66,19,229.4,21.08,47.92,1.32,96.81-.62,144.76-2.36,207.44-7.61,414.79-22,620.42-37.36,6-.44,8-2.48,7.22-4.49a2.29,2.29,0,0,0-.1-1.08c-.28-1-.58-1.87-.89-2.84-.83-2.59-7.62-3.29-12.51-2.94C1041.1,45.16,845.9,58.17,650.34,66.42,601.76,68.48,553,70.2,504.25,70.28c-69.12.08-137.19-8.84-203.22-16.1C199,43,97.6,30.66-4.95,20.12c-78-8-158.68-16.35-239.74-16.62-7.2,0-13.29,4.13-8.78,6.81C-239.8,18.45-224.4,16.12-201.57,16.88Z"/><path class="cls-3" d="M1242.92-67.9c-48.08-2.29-104.08,9.05-150.29,14.44Q915.49-32.78,739-11c-75,9.37-149.92,19-223.5,30.45-25.92,4-53.61,8-77.2,14.5-6.18,1.67-15.8,4.91-15.06,8.61C425.73,56,490.4,52.87,511.52,52.86c132.79-.11,266.65-6.87,399-12.76q164.21-7.31,328.17-16.18c5.45-.29,10.28-2,10.18-4.58,0-1,0-1.91-.12-2.89,0-2.25-4.54-4.63-10.12-4.31C1018.6,24,797.28,35.64,576.23,40.23Q540,41,503.79,41c-9.23,0-18.51-.13-27.73-.35-4-.09-6.93-.29-9.32-.42,11.27-2.29,26.31-4.68,33-5.84,113-19.69,231.51-33.74,348.14-48.1,131.15-16.16,263-31.12,395.05-45.66,5.53-.61,7.65-2.56,7.24-4.45C1250.77-65.73,1248.74-67.64,1242.92-67.9Z"/><path class="cls-3" d="M1243.79-36.84c3.47-.41,5.54-1.36,6.53-2.48.07,0,.1-.11.17-.15s.2-.28.27-.43a2.33,2.33,0,0,0,.49-1.33c0-1.35,0-2.7.08-4.05.07-2.95-6.53-4.89-12.86-4.12q-97.14,11.84-192.82,26.11C1024.9-20.19,920.07-9.16,920.07,5.19,920,28.08,1203,2.59,1242.19-.2c4-.31,8-2.67,7.49-4.4-.29-1-.53-1.89-.81-2.83-.59-2.12-4.2-4.74-10.18-4.33q-85.34,6.1-171.08,10.64-35.16,1.88-70.47,3c-10.11.33-20.19.47-30.31.55l-2.14,0c30.78-7.79,72.6-11.67,103.89-16.18C1126.54-22.16,1185.1-29.71,1243.79-36.84Z"/><path class="cls-3" d="M-181-7.26C-125-4.93-69.33-1.44-13.88,2.32,91.31,9.45,198.21,27.06,306.2,18.74c65.15-5,128.51-14.09,192-22.44C575.12-13.83,652.54-23.1,730.1-32.2q99.21-11.65,198.76-22.75c23-2.6,51.3-3.93,73.53-8.28a13.58,13.58,0,0,0,5.08-1.23c6-2.23,2.93-7.34-4.87-7.62q102.31-1.33,204.58-2.29c38.94-.32,80.27-1.94,118.9.09,5.74.3,13.76-1.41,12.8-4.52-.45-1.45-.93-2.89-1.34-4.32C1337-85,1334.79-87,1330-87.29c-37.36-1.95-76.81-.38-114.42.07-74.4.87-148.78,2.18-223.17,3.55-110.74,2-221.47,4.72-332.19,6.49-4.89.09-7.91,1.3-9.12,2.82C605-70.44,558.38-63,514.74-58.44c-52.88,5.52-105.9,10.79-159.17,15.35-34.2,2.93-69.38,6.25-104.1,5C88.17-43.76-76-46.76-239.78-50.44c-6.88-.14-11.16,3.17-9.81,5.78.68,1.26,1.36,2.52,2,3.79,1.06,2,5.42,3.07,9.8,3.16,162,3.45,324.23,6.14,485.81,11.44,78.43,2.6,165-9.84,241.21-17.47Q601.9-55,713.93-67.84q127.25-2.07,254.48-3.76C915-69.35,861.51-60.2,810-54.08,662.51-36.6,516.3-16.87,368.9.7c-58.64,7-117.39,11.18-177.15,6.85C138.86,3.73,86.87-2.52,33.93-6.49-56.34-13.25-151.71-21.62-244.19-21.2c-9.67,0-12.43,4.92-7.19,7.68C-236.55-5.61-203.38-8.2-181-7.26Z"/><path class="cls-3" d="M549.4,182.56c-231.33,8.18-463.42,11.55-695,14.05-6.88.09-11.13,3.08-9.69,5.81.66,1.26,1.31,2.5,2,3.77,1,1.94,4.08,2.84,7.49,3,.11,0,.19,0,.3,0a5.15,5.15,0,0,0,.55,0c.52,0,1,.06,1.54,0,228.05-2.4,456.72-6.55,684.6-14.51,143-5,284.15-16.23,426.58-24.3q182.65-10.35,365.85-18.3c5.9-.25,9.66-2.09,10.1-4.64.16-1,.3-1.93.49-2.92.38-2.34-5.07-4.47-10.27-4.25Q1156.22,148,978.85,158C835.44,166,693.37,177.45,549.4,182.56Z"/><path class="cls-3" d="M1347.36,222.19c-.09-2.15-3.26-3.46-7.55-4.16-131.88-20.9-278-31.82-419.64-31.23-65,.29-130.7,5.18-195.65,7.9Q622.15,199,519.67,202.35C298,210,76.26,216.14-145.5,222.39c-6.7.21-11.4,3-9.73,5.83.76,1.23,1.52,2.45,2.25,3.67a6.19,6.19,0,0,0,3.63,2.34,18.11,18.11,0,0,0,6.24.73q325.56-8.85,651-20.2c127.69-4.47,255.74-12.39,383.44-15.69,148.54-3.83,305.33,9.84,443.36,31.52,6.24,1,12.87-1.9,12.79-4.54C1347.43,224.74,1347.38,223.48,1347.36,222.19Z"/><path class="cls-3" d="M1338.31,241.82c-215.6-8.68-431.65-15.67-648.92-15.68-115.46,0-231.79.29-346.46,9.1C182.22,247.53,19,253-142.59,261.51c-5.66.3-10,2.07-10.1,4.66,0,1-.06,1.92-.12,2.87a2.87,2.87,0,0,0,1.75,2.59c1.51,1.13,4.33,1.89,8.51,1.67,159.21-8.43,319.26-14.56,477.84-25.72,113.62-8,226.48-9.42,340.9-9.6,220.8-.35,439.6,7.56,658.55,16.6,8,.32,13.85-2.14,12.39-5.72-.55-1.36-1.1-2.71-1.68-4.09S1341.43,241.93,1338.31,241.82Z"/><path class="cls-3" d="M1298.28,313.12c-46.7-1.29-92.92-5.24-138.55-9.17-104.54-9-207.51-20.88-310.85-31.95-74.75-8-152.09-18-229.84-19.69-48-1-96.83,1.22-144.77,3.28-207.35,8.85-414.41,24.54-619.82,41.11-6,.49-7.93,2.57-7.09,4.53a2.36,2.36,0,0,0,.09,1.08c.34.94.63,1.88,1,2.84.89,2.58,7.66,3.24,12.56,2.87,193.8-15.6,388.78-29.76,584.18-39.24,48.58-2.34,97.35-4.38,146.09-4.73,69.12-.52,137.39,8,203.55,14.84,102.36,10.58,204,22.28,306.75,32.17,78.18,7.54,159.07,15.39,240.11,15.15,7.25,0,13.23-4.17,8.66-6.84C1336.5,311.32,1321.15,313.74,1298.28,313.12Z"/><path class="cls-3" d="M581,314.89c25.86-4.18,53.47-8.36,76.92-15,6.16-1.72,15.7-5,14.93-8.71-2.79-13.34-67.4-9.87-88.5-9.72-132.84.93-266.58,8.48-398.87,15.19Q21.41,305-142.4,314.84c-5.44.33-10.25,2.06-10.07,4.65,0,1,.08,1.93.12,2.88.12,2.26,4.67,4.61,10.25,4.28,219.84-13.23,441-26.19,661.93-32.15,24.14-.63,48.31-1.11,72.47-1.22,9.25,0,18.5,0,27.76.16,4,.06,6.92.24,9.29.38-11.21,2.35-26.21,4.85-32.86,6C483.84,320.23,365.62,335,249.29,350.07,118.43,367-13.15,382.77-144.92,398.12c-5.54.64-7.63,2.61-7.17,4.48-.59,1.95,1.51,3.86,7.33,4.08,48.13,2,103.88-9.7,150-15.38Q182,369.57,358.08,346.71C432.85,336.88,507.65,326.77,581,314.89Z"/><path class="cls-3" d="M-140.7,388.17q96.91-12.44,192.32-27.28c20.68-3.24,125.3-14.89,125-29.23-.41-22.9-282.94,4.3-322.06,7.34-4,.32-7.93,2.7-7.39,4.45.3.93.58,1.87.86,2.82.64,2.12,4.29,4.71,10.24,4.25q85.25-6.58,170.92-11.69,35.13-2,70.45-3.41,15.12-.54,30.27-.73l2.16,0c-30.63,8-72.42,12.11-103.61,16.83-57.76,8.72-116.18,16.59-174.76,24.09-3.44.46-5.5,1.39-6.49,2.52a1.31,1.31,0,0,1-.12.15,1.48,1.48,0,0,0-.29.43,2.2,2.2,0,0,0-.48,1.34c0,1.35,0,2.7,0,4.05C-153.65,387.07-147,389-140.7,388.17Z"/><path class="cls-3" d="M1278.24,337.37c-56.06-2-111.83-5.15-167.42-8.55-105.34-6.49-212.58-23.44-320.46-14.49C725.3,319.74,662.1,329.21,598.84,338c-76.76,10.58-154,20.33-231.39,29.9q-99.06,12.24-198.38,24c-23,2.7-51.21,4.23-73.37,8.72a13.42,13.42,0,0,0-5,1.25c-6.39,2.45-2.26,8.28,6.95,7.6a5.48,5.48,0,0,0,.57,0c63.9.69,128.24-11.43,189.8-19.12,147.15-18.39,293-39,440.08-57.47,58.47-7.35,117.19-11.89,177-7.93,52.95,3.51,105.12,9.44,158.14,13.07,90.42,6.22,186,14,278.47,13,9.67-.08,12.31-5,7-7.73C1333.73,335.36,1300.62,338.19,1278.24,337.37Z"/><path class="cls-3" d="M1345.5,370.56c-1.1-2-5.49-3-9.87-3.09-162-2.48-324.43-4.17-486.13-8.49-78.5-2.09-164.83,10.86-240.9,18.93Q495.34,390,382.76,403.57a13.72,13.72,0,0,0-6.45,1.54c-3.18,1.66-2.6,4.21.55,5.81,0,0,0,0,.06.05a10,10,0,0,0,1.24.52.64.64,0,0,1,.19.08,13.08,13.08,0,0,0,1.53.39l.13.06c.53.08,1.1.17,1.69.24l.42.05c.34,0,.71,0,1.08.05l1.06.07c65.54.67,135.5-12.61,199.12-19.64,52.75-5.85,105.66-11.44,158.88-16.31,34.14-3.13,69.26-6.69,104-5.68,163.46,4.71,327.78,6.71,491.61,9.37,6.88.1,11.09-3.22,9.67-5.82Z"/><path class="cls-3" d="M1339.14,396.44c-37.35-2-76.82-.39-114.44.06-74.38.88-148.79,2.2-223.16,3.54-110.74,2-221.47,4.75-332.17,6.52-13.25.21-12.82,8.78.14,8.9q24.25.24,48.48.5,144.9-2.32,289.72-4.25,104.32-1.4,208.59-2.35c39-.33,80.26-1.95,118.9.1,5.79.3,13.77-1.42,12.8-4.54-.46-1.45-.88-2.88-1.31-4.32C1346.1,398.79,1343.94,396.69,1339.14,396.44Z"/></g><path class="cls-8" d="M651.91,130.35a21.16,21.16,0,1,1-22.2-20.06A21.13,21.13,0,0,1,651.91,130.35Z"/><path class="cls-8" d="M659.24,350.89A21.16,21.16,0,1,1,637,330.83,21.14,21.14,0,0,1,659.24,350.89Z"/></g></svg>