<svg id="Layer_3" data-name="Layer 3" xmlns="http://www.w3.org/2000/svg" viewBox="0 0 682 1201"><defs><style>.cls-1{fill:#8a8620;}.cls-2{fill:#66412a;}.cls-3{fill:#a6a126;}</style></defs><polygon class="cls-1" points="486.44 673.25 472.07 598.11 425.2 592.23 368.76 553.8 313.15 509.66 266.57 446.36 198 427 110.16 437.63 36.71 413.74 12.6 375.11 39.66 459.81 56.57 512.97 108.82 555.24 166.94 630.01 166.57 681.27 188.87 733.28 240.19 747.05 262.08 740.33 269.7 738.26 280.77 735.94 295.34 745.94 326.29 763.84 358.8 774.07 384.47 755.28 439.89 795.73 473.94 849.54 628.88 780.26 629.97 766.53 658.14 721.91 659.12 713.52 583.72 746.81 486.44 673.25"/><polygon class="cls-2" points="546.21 652.15 522.85 690.04 492.07 721.71 474.6 735.55 475.05 729.5 476.9 696.89 479.14 664.25 479.13 533.01 466.67 533.47 464.2 663.28 461.35 695.74 458.87 728.28 446.58 789.5 443.45 796.32 439.82 802.8 435.68 808.96 430.9 815.28 410.6 841.19 393.19 870.91 378.89 899.31 374.9 905.96 370.55 912.76 361.91 927.66 353.31 946.78 343.82 917.9 320.26 868.55 303.45 820.46 301.89 808.11 301.3 795.28 300.69 768.14 297.56 692.33 308.5 661.03 319.73 644.95 326.64 637.85 334.38 631.08 350.12 616.03 363.44 598.38 372.88 578.28 378.08 556.96 380.87 514.2 382.06 472.14 384.44 388.02 376.96 387.7 373.08 471.92 371.14 514.04 367.74 555.2 362.65 574.66 353.9 592.45 341.6 608.15 326.67 621.91 318.43 628.87 310.52 636.71 297.37 654.84 295.56 658.24 287.17 551.66 268.06 444.16 243.81 339.06 229.11 341.86 268.16 541.37 255.91 525.76 226.23 485.97 204.13 441.53 197.53 417.85 196.39 393.73 188.97 392.76 189.4 419.17 195.65 444.47 217.24 491.37 246.91 533.66 260.7 553.44 270.65 571.52 279.73 768.57 279.95 795.49 280.42 809.66 282.05 824.14 299.92 878.08 322.29 926.58 333.61 975.27 332 1191.54 358.92 1189.96 358.81 1020.7 369.15 965.65 380.26 937.01 387.74 923.53 392.06 916.5 396.32 909.06 410.82 878.89 425.83 852.08 445.32 826.23 450.25 819.42 455.07 811.95 459.26 804.1 462.79 796.02 471.75 761.25 472.58 761.47 482.63 745.42 499.69 730.96 531.26 696.31 554.38 655.87 567.44 611.13 560.04 609.99 546.21 652.15 546.21 652.15"/><polygon class="cls-3" points="179.85 204.43 236.83 234.19 322.88 258.65 351.9 288.91 481.53 290.59 492.42 228.64 474.63 189.42 457.36 135.94 388.25 50.15 313.06 12.37 265.07 16.71 238.8 9.46 143.5 36.89 113.81 122.16 110.24 127.08 120.25 165.87 179.85 204.43"/><polygon class="cls-1" points="179.75 267.67 241.74 265.44 274.87 280.61 344.31 338.77 398.73 358.58 471.63 337.81 479.25 303.53 481.53 290.59 351.9 288.91 322.88 258.65 236.83 234.19 179.85 204.43 120.25 165.87 110.24 127.08 68.39 184.74 62.91 196.1 91.83 232.64 179.75 267.67"/><polygon class="cls-3" points="668.85 652.49 659.38 580.36 672.5 540.05 661.54 488.39 587.34 421.25 491.78 402.38 457.18 371.55 469.57 347.05 471.63 337.81 398.73 358.58 344.31 338.77 274.87 280.61 241.74 265.44 179.75 267.67 91.83 232.64 62.91 196.1 33.56 256.87 9.5 365.42 12.6 375.11 36.71 413.74 110.16 437.63 198 427 266.57 446.36 313.15 509.66 368.76 553.8 425.2 592.23 472.07 598.11 486.44 673.25 583.72 746.81 659.12 713.52 662.52 684.32 668.85 652.49"/></svg>