<svg xmlns="http://www.w3.org/2000/svg" viewBox="0 0 682 682"><defs><style>.cls-1{isolation:isolate;}.cls-10,.cls-2{fill:#f9bd79;}.cls-3{fill:#f5aa61;}.cls-4{fill:#ad7b46;}.cls-17,.cls-4{opacity:0.6;}.cls-12,.cls-13,.cls-14,.cls-15,.cls-17,.cls-18,.cls-24,.cls-25,.cls-26,.cls-4,.cls-7,.cls-9{mix-blend-mode:multiply;}.cls-5{fill:#b38049;}.cls-6,.cls-9{fill:#9a6f3f;}.cls-14,.cls-15,.cls-24,.cls-25,.cls-7,.cls-9{opacity:0.3;}.cls-8{fill:#9b6f3e;}.cls-10,.cls-12,.cls-18{opacity:0.4;}.cls-10{mix-blend-mode:screen;}.cls-11,.cls-15{fill:#fdcd08;}.cls-12,.cls-26{fill:#c4a139;}.cls-13,.cls-24{fill:#e3a138;}.cls-13,.cls-26{opacity:0.2;}.cls-14{fill:#b6a037;}.cls-16{fill:#f4b31a;}.cls-17,.cls-18{fill:#cead2b;}.cls-19{fill:#97762c;}.cls-20{fill:#ffd76c;}.cls-21{fill:#e49e24;}.cls-22{fill:#ebb21f;}.cls-23{fill:#e7b221;}.cls-25{fill:#d38c62;}</style></defs><g class="cls-1"><g id="Layer_3" data-name="Layer 3"><path class="cls-2" d="M537,323.57s-63.73-17.85-66.27-17.85S359.43,321,359.43,321l-49.28.85-52.69-21.25L98.55,245.39,44.16,242,124,228.39l86.68-6.8,102-11.9L379,221.59l132.56,4.26,62.88,30.58,29.75,5.1,26.34,11.06,51,18.69-71.38,9.34Z"/><path class="cls-3" d="M260.85,423l-5.09-28.89L266,374.56l-19.55-33.15,11-40.79,52.69,21.25,49.28-.85s108.77-15.3,111.33-15.3S537,323.57,537,323.57l73.09-22.95,71.38-9.34-26.34,51,11.89,51-26.34,62.88L359.43,480.77,322,489.28l-61.19,3.39-6.79-53.53Z"/><path class="cls-3" d="M62,316.77c1.7-2.55,2.55-11.89,2.55-11.89L44.16,242l54.39,3.41,158.91,55.23-11,40.79L266,374.56l-10.2,19.54L260.85,423l-6.79,16.15,6.79,53.53-57.78-20.4L147,446.79,29.71,377.1S60.31,319.31,62,316.77Z"/><path class="cls-4" d="M62,316.77c1.7-2.55,2.55-11.89,2.55-11.89L44.16,242l54.39,3.41,158.91,55.23-11,40.79L266,374.56l-10.2,19.54L260.85,423l-6.79,16.15,6.79,53.53-57.78-20.4L147,446.79,29.71,377.1S60.31,319.31,62,316.77Z"/><polygon class="cls-5" points="387.48 221.59 506.01 226.27 169.93 270.46 132.11 256.86 387.48 221.59"/><path class="cls-6" d="M169.93,270.46l-7.22,75.62-3.83-8.5-7.22,3.83-6.79-9.78-3-3.81-5.53,3.81-3-1.26-2.55-7.65s-2.55-3-3.82-1.7,5.09-64.16,5.09-64.16Z"/><g class="cls-7"><path class="cls-8" d="M625.49,361.4a132,132,0,0,1,27.39-20.32c-13.41,11.53-26,24.85-41.18,33.83a.47.47,0,0,1-.17,0C616.22,370.51,620.78,365.89,625.49,361.4Z"/><path class="cls-8" d="M333.24,383.62c-8.26-3.6-16.64-6.92-25-10.31-13.18-5.35-26.33-10.77-39.35-16.5q-10.61-5.16-21.13-10.48c-1-.75-2-1.51-2.92-2.28,36.43,11.86,71.17,29.79,105.9,45.79a2.47,2.47,0,0,1,1.14,1.12C345.45,389.22,339.33,386.27,333.24,383.62Z"/><path class="cls-8" d="M198.54,367.15a68.46,68.46,0,0,1-10.06-4.52c26.83,1.9,53,7.67,79.52,11.35,2.45.9,4.88,1.9,7.3,2.94-9.22,1.05-20.23-1.92-29.15-3C230.23,372,214.35,369.81,198.54,367.15Z"/><path class="cls-8" d="M232,418.32c26,3.62,51.23,9.93,76.18,17.78,2.19,1.09,4.36,2.2,6.56,3.28-22.53-6-45.29-10.76-68.13-15.39A122.6,122.6,0,0,1,232,418.32Z"/><path class="cls-8" d="M60.48,292.44C69.85,309.53,84,324.71,95.16,340.7c12.13,17.37,23.47,35.21,34.5,53.27.53.85.46,1.47.09,1.81-3.26-4-6.28-8.26-9.5-12.22-2.71-3.34-5.49-6.61-8.26-9.9-7-10.4-13.84-20.91-20.79-31.36-9.92-14.92-22.33-29.21-29.75-45.65C61.11,295.25,60.77,293.85,60.48,292.44Z"/><path class="cls-8" d="M217.35,442.5a190.52,190.52,0,0,1-19.52-2.75c-1.41-.26-2.92-.5-4.45-.73a1.33,1.33,0,0,1,.93-.5c26.26-3.91,52.08-1.39,78.28-3.07a35.19,35.19,0,0,1-4.89,2.5A410.8,410.8,0,0,1,217.35,442.5Z"/><path class="cls-8" d="M361.51,480.53c29.63-13.25,61-22.68,91.63-33.19,23-7.86,47.31-20.67,71.94-27.09a84.11,84.11,0,0,1,20.59-1.83c-14.38,3.14-28.14,9.83-41.68,15.22-15.91,6.34-31.83,12.51-47.8,18.67-23.52,9.11-47.92,16.81-72.21,24.31C376.47,477.49,369,478.9,361.51,480.53Z"/></g><path class="cls-9" d="M573.91,390.41c.78-1.83,2.69-2.1,4.44-1.69,0-.12,0-.26.08-.38,1.33-2.88,6.12-1.54,7.71.2a2.87,2.87,0,0,1,2.58,2.06,2.41,2.41,0,0,1-.92,2.7c-1,.73-2.56.61-3.79.5a5.19,5.19,0,0,1-.26,3.74c-2.21,3.9-7.53,1-9.19-1.85C573.59,394,573.11,392.26,573.91,390.41Z"/><path class="cls-9" d="M552.55,393.39c1.3-2.63,5.48-2.3,7.83-.67A3.85,3.85,0,0,1,562,394a2.19,2.19,0,0,1-.8,3.23,7.46,7.46,0,0,1-3.29.41,9.56,9.56,0,0,1-3.44-.53C553.19,396.64,551.85,394.8,552.55,393.39Z"/><path class="cls-9" d="M581.45,414.65c2.19-3.89,6.25-2.52,9.46-4.5,1.89-1.16,3.82-2.3,5.72-3.48a8.35,8.35,0,0,1,1.76-.81.52.52,0,0,1,.14-.46c4.27-4.21,8.48-10.86,15.31-6.41,3.24,2.11,6,4.76,6.49,8.79a12.16,12.16,0,0,1-.16,3.12,54.73,54.73,0,0,1,5.08,2.55c5.12,1.46,10.47,3.64,8.43,9.1-1.86,5-6.83,8.35-11.89,6.25-2.57-1.07-4.58-3.51-6.2-5.64-3.41-4.48-5.57-.25-8.59,2.66-6,5.78-12.48,3.15-15-4.55a8.36,8.36,0,0,1-.32-1.38c-.58.28-1.15.59-1.73.85a7.88,7.88,0,0,1-4.22.32C583.45,420.33,579.82,417.53,581.45,414.65Z"/><path class="cls-9" d="M573.52,421c.19,0,.38,0,.56.06,1.92.22,4.3,3.43,2.51,5.09s-4.62-1.05-4.89-2.89c0-.17-.05-.35-.07-.51C571.44,421.53,572.4,420.87,573.52,421Z"/><path class="cls-9" d="M589.81,369.9c2.13,0,4.21,4.2,1.53,4.2C589.2,374.1,587.13,369.9,589.81,369.9Z"/><path class="cls-9" d="M383.27,267.81c8.86-.24,13.76.23,20.06-7.15a10.4,10.4,0,0,1,6.42-3.43c5.44-3.82,12.3.18,16.3,4.6,2.64,2.89,2.74,7.23,5.53,10.24a13.52,13.52,0,0,0,6,3.32c8.45.53,18.91-.19,23.09,1.7,6.16,2.8,4.24,7.65.8,11.88-2.73,3.36-16.51.18-18.22.23-10.42.26-18,6.49-28.31,5.9-8.47-.49-17.11-3.94-25.37-5.58-4.74-.93-12.33-.95-16-4.9C365,275.29,372.93,268.07,383.27,267.81Z"/><path class="cls-9" d="M347.81,262.27c2-2.73,5.92-2.64,9.07-1.29l1.56.08a4.59,4.59,0,0,1,3.9,2.92c1.4,3.83-4.41,4.41-6.77,4.73C352.39,269.13,344.46,266.82,347.81,262.27Z"/><path class="cls-9" d="M343,274.17a8.72,8.72,0,0,1,6.45,1.2,5.24,5.24,0,0,1,1.59.44c1.8.87,3.5,3.2,2,5.11a6.76,6.76,0,0,1-5.39,2c-3.26-.28-8.64-1.24-9.31-5.13C337.86,275.17,341.22,274.64,343,274.17Z"/><path class="cls-9" d="M367.72,287.4c1.78,0,3.5,3.5,1.27,3.5C367.21,290.9,365.48,287.4,367.72,287.4Z"/><path class="cls-9" d="M634.09,384.38h0l0,0a1.86,1.86,0,0,1,1,.46s0,0,0,0a3.23,3.23,0,0,1,.63.47c.73.36,1.3,1.32.87,2a1.47,1.47,0,0,1-2.17,1.05c.2.06.41.12.61.2-1.35.15-2.66-1.3-2.81-2.53A1.46,1.46,0,0,1,634.09,384.38Z"/><path class="cls-9" d="M202.35,397.53a3.83,3.83,0,0,1,1.33-.06c1.36-.25,2.93,1.91,2,3.14a2,2,0,0,1-1.45.73C202.47,401.72,200.34,398,202.35,397.53Z"/><path class="cls-9" d="M189.8,397.07c.22-1.25,1.78-.15,1.91.62l.06.44c.22,1.46-2.28.7-2-.66C189.76,397.33,189.77,397.19,189.8,397.07Z"/><path class="cls-9" d="M173.94,391.4l0-.06a.49.49,0,0,1,0-.11v0a1.78,1.78,0,0,1,1.56-.39,3.47,3.47,0,0,1,2.65,2.84,5.42,5.42,0,0,1,0,1.45,1.72,1.72,0,0,1-1.65,1.53h-.16a3.67,3.67,0,0,1-3.46-3.1.88.88,0,0,1,0-.16A1.9,1.9,0,0,1,173.94,391.4Z"/><path class="cls-9" d="M77.06,350.21c1.86,0,3.66,3.65,1.34,3.65C76.54,353.86,74.75,350.21,77.06,350.21Z"/><path class="cls-9" d="M84.49,372.06l0,0a2.87,2.87,0,0,1,.47.4,3.37,3.37,0,0,1,.67,1.08,2.32,2.32,0,0,1,.09,1.17,1,1,0,0,1-.85,1.05c-1.41.61-3.17-1.22-3.33-2.51C81.35,371.46,83.3,371.2,84.49,372.06Z"/><path class="cls-9" d="M58.42,371.78a3.76,3.76,0,0,1,1.62.75c.58.52,1.22,1.36.82,2.18a1.22,1.22,0,0,1-1.71.32,1.87,1.87,0,0,1-1.17-.59l-.29-.31C56.93,373.39,56.87,371.35,58.42,371.78Z"/><path class="cls-9" d="M70.88,374.85c.15,0,.28.27.1.27S70.71,374.85,70.88,374.85Z"/><path class="cls-9" d="M66.3,367.93a3.28,3.28,0,0,1,1.32,1c.11.12,0,.3-.14.18a2.37,2.37,0,0,0-1.18-.67C66,368.38,65.89,367.77,66.3,367.93Z"/><path class="cls-9" d="M57.82,358.71H58a1.86,1.86,0,0,1,1.71,1.52c0,.16.07.31.1.46a.58.58,0,0,1-.72.66l-.47-.1a1.82,1.82,0,0,1-1.4-1.52c0-.07,0-.16,0-.26C57.2,359.13,57.4,358.68,57.82,358.71Z"/><path class="cls-9" d="M71,379.61c2.2,0,4.35,4.35,1.58,4.35C70.37,384,68.23,379.61,71,379.61Z"/><path class="cls-10" d="M366.79,250.78c1.45,1.44-78.74,8.48-78.74,8.48l-62.32,10.21,13,4.53,11.32-3.41L351.5,254.73S365.67,249.63,366.79,250.78Z"/><path class="cls-2" d="M147.8,176.59s63.74-17.84,66.29-17.84,111.32,15.3,111.32,15.3l49.28.86,52.69-21.25L586.29,98.43,640.67,95,560.8,81.42l-86.68-6.8-102-11.89L305.86,74.62,173.29,78.87l-62.88,30.6-29.74,5.1-26.34,11-51,18.71,71.38,9.34Z"/><path class="cls-3" d="M424,276l5.1-28.91-10.2-19.54,19.55-33.13-11.05-40.79-52.69,21.25-49.28-.86s-108.77-15.3-111.32-15.3-66.29,17.84-66.29,17.84L74.72,153.66,3.34,144.32l26.34,51-11.89,51,26.34,62.9,281.28,24.64,37.38,8.5L424,345.7l6.8-53.54Z"/><path class="cls-3" d="M622.83,169.81c-1.7-2.55-2.55-11.91-2.55-11.91L640.67,95l-54.38,3.41L427.38,153.66l11.05,40.79-19.55,33.13,10.2,19.54L424,276l6.8,16.13L424,345.7l57.79-20.38,56.08-25.51,117.27-69.67S624.53,172.35,622.83,169.81Z"/><path class="cls-4" d="M622.83,169.81c-1.7-2.55-2.55-11.91-2.55-11.91L640.67,95l-54.38,3.41L427.38,153.66l11.05,40.79-19.55,33.13,10.2,19.54L424,276l6.8,16.13L424,345.7l57.79-20.38,56.08-25.51,117.27-69.67S624.53,172.35,622.83,169.81Z"/><polygon class="cls-5" points="297.37 74.62 178.82 79.31 514.91 123.5 552.73 109.9 297.37 74.62"/><path class="cls-6" d="M514.91,123.49l7.22,75.63,3.82-8.5,7.23,3.83,6.8-9.78,3-3.82,5.53,3.82,3-1.28,2.54-7.63s2.55-3,3.83-1.71-5.1-64.15-5.1-64.15Z"/><g class="cls-7"><path class="cls-8" d="M59.34,214.42A132.09,132.09,0,0,0,32,194.12c13.42,11.53,26,24.85,41.18,33.82a.41.41,0,0,0,.18.05C68.61,223.55,64.06,218.92,59.34,214.42Z"/><path class="cls-8" d="M351.6,236.65c8.26-3.59,16.64-6.93,25-10.32,13.18-5.34,26.33-10.75,39.35-16.49q10.6-5.15,21.13-10.49c1-.73,2-1.49,2.92-2.28-36.43,11.86-71.17,29.8-105.9,45.81A2.48,2.48,0,0,0,333,244C339.38,242.26,345.51,239.31,351.6,236.65Z"/><path class="cls-8" d="M486.3,220.17a67.34,67.34,0,0,0,10.06-4.5c-26.84,1.9-53,7.67-79.53,11.33-2.44.91-4.88,1.92-7.3,2.94,9.22,1.05,20.23-1.9,29.16-3C454.6,225.05,470.48,222.83,486.3,220.17Z"/><path class="cls-8" d="M452.79,271.35c-26,3.63-51.22,9.95-76.17,17.79-2.18,1.09-4.37,2.2-6.56,3.28,22.54-6,45.28-10.77,68.13-15.39A124.92,124.92,0,0,0,452.79,271.35Z"/><path class="cls-8" d="M624.35,145.47c-9.37,17.1-23.52,32.28-34.68,48.27-12.12,17.35-23.46,35.19-34.5,53.26-.52.87-.45,1.48-.09,1.81,3.26-4,6.28-8.26,9.51-12.21,2.71-3.35,5.48-6.63,8.27-9.9,7-10.41,13.83-20.92,20.78-31.37,9.91-14.92,22.32-29.2,29.74-45.64C623.73,148.29,624.06,146.89,624.35,145.47Z"/><path class="cls-8" d="M467.49,295.53A195.59,195.59,0,0,0,487,292.79c1.42-.28,2.93-.51,4.46-.75a1.39,1.39,0,0,0-.93-.49c-26.25-3.9-52.08-1.38-78.29-3.07a37.11,37.11,0,0,0,4.9,2.51A414.77,414.77,0,0,0,467.49,295.53Z"/><path class="cls-8" d="M323.32,333.57c-29.62-13.25-61-22.7-91.62-33.19-23-7.88-47.31-20.69-71.94-27.09a82.2,82.2,0,0,0-20.59-1.83c14.37,3.14,28.14,9.83,41.68,15.21q23.86,9.49,47.79,18.68c23.53,9.1,47.92,16.79,72.22,24.31A222.13,222.13,0,0,1,323.32,333.57Z"/></g><path class="cls-9" d="M110.92,243.44c-.77-1.82-2.68-2.1-4.44-1.68,0-.13,0-.26-.07-.38-1.33-2.88-6.12-1.54-7.72.19a2.86,2.86,0,0,0-2.57,2.06,2.36,2.36,0,0,0,.92,2.69c1,.73,2.57.62,3.78.52a5.2,5.2,0,0,0,.27,3.74c2.21,3.89,7.52,1,9.19-1.86C111.25,247,111.73,245.3,110.92,243.44Z"/><path class="cls-9" d="M132.29,246.43c-1.3-2.64-5.49-2.3-7.83-.67a3.85,3.85,0,0,0-1.64,1.32,2.17,2.17,0,0,0,.8,3.22,7.61,7.61,0,0,0,3.29.42,9.33,9.33,0,0,0,3.44-.54C131.65,249.68,133,247.86,132.29,246.43Z"/><path class="cls-9" d="M103.39,267.67c-2.2-3.87-6.25-2.51-9.46-4.48-1.89-1.17-3.82-2.3-5.72-3.49a7.82,7.82,0,0,0-1.76-.8.53.53,0,0,0-.14-.46C82,254.23,77.83,247.58,71,252c-3.24,2.12-6,4.76-6.49,8.79a11.71,11.71,0,0,0,.16,3.12,56,56,0,0,0-5.08,2.56c-5.11,1.46-10.47,3.63-8.44,9.09,1.87,5,6.84,8.35,11.9,6.26,2.56-1.07,4.58-3.52,6.2-5.65,3.4-4.48,5.57-.24,8.59,2.66,6,5.78,12.48,3.15,15-4.54a8.21,8.21,0,0,0,.33-1.39c.59.28,1.15.58,1.73.85a7.75,7.75,0,0,0,4.21.31C101.39,273.36,105,270.56,103.39,267.67Z"/><path class="cls-9" d="M111.32,274.05l-.56.07c-1.92.23-4.29,3.44-2.51,5.1s4.61-1.05,4.89-2.89c0-.18,0-.35.07-.52A1.53,1.53,0,0,0,111.32,274.05Z"/><path class="cls-9" d="M95,222.93c-2.14,0-4.21,4.21-1.53,4.21C95.64,227.14,97.7,222.93,95,222.93Z"/><path class="cls-9" d="M301.57,120.83c-8.86-.23-13.76.25-20.06-7.13a10.48,10.48,0,0,0-6.42-3.44c-5.45-3.82-12.31.18-16.31,4.6-2.63,2.9-2.73,7.24-5.53,10.25a13.69,13.69,0,0,1-6,3.33c-8.45.5-18.91-.2-23.09,1.69-6.16,2.78-4.24,7.63-.81,11.86,2.74,3.38,16.51.2,18.23.24,10.41.26,18,6.5,28.3,5.91,8.48-.49,17.11-4,25.37-5.59,4.75-.94,12.34-1,16-4.89C319.88,128.33,311.91,121.12,301.57,120.83Z"/><path class="cls-9" d="M337,115.31c-2-2.74-5.92-2.65-9.06-1.29-.53,0-1,0-1.58.07A4.6,4.6,0,0,0,322.5,117c-1.4,3.83,4.41,4.42,6.77,4.73C332.45,122.17,340.38,119.86,337,115.31Z"/><path class="cls-9" d="M341.85,127.21a8.75,8.75,0,0,0-6.45,1.18,6.36,6.36,0,0,0-1.6.44c-1.79.89-3.48,3.21-2,5.11a6.62,6.62,0,0,0,5.4,2c3.26-.26,8.64-1.22,9.3-5.13C347,128.19,343.62,127.66,341.85,127.21Z"/><path class="cls-9" d="M317.12,140.44c-1.78,0-3.5,3.5-1.28,3.5C317.63,143.94,319.35,140.44,317.12,140.44Z"/><path class="cls-9" d="M50.75,237.42h0a2,2,0,0,0-1,.47s0,0,0,0a4,4,0,0,0-.62.47c-.73.37-1.3,1.33-.87,2a1.48,1.48,0,0,0,2.17,1.07l-.62.19c1.36.16,2.67-1.29,2.82-2.54A1.45,1.45,0,0,0,50.75,237.42Z"/><path class="cls-9" d="M482.48,250.56a3.34,3.34,0,0,0-1.32-.06c-1.36-.24-2.94,1.92-2,3.15a2.11,2.11,0,0,0,1.46.73C482.36,254.76,484.49,251,482.48,250.56Z"/><path class="cls-9" d="M495,250.11c-.22-1.25-1.79-.16-1.91.62,0,.14-.05.29-.06.43-.23,1.46,2.27.71,2-.66C495.09,250.36,495.06,250.23,495,250.11Z"/><path class="cls-9" d="M511.92,246.47a.68.68,0,0,1,0,.15,3.7,3.7,0,0,1-3.46,3.11h-.16a1.75,1.75,0,0,1-1.66-1.53,5.86,5.86,0,0,1,0-1.45,3.45,3.45,0,0,1,2.64-2.84,1.72,1.72,0,0,1,1.57.39v0l0,.1s0,0,0,.06A1.92,1.92,0,0,1,511.92,246.47Z"/><path class="cls-9" d="M607.77,203.24c-1.85,0-3.65,3.65-1.33,3.65C608.3,206.89,610.09,203.24,607.77,203.24Z"/><path class="cls-9" d="M600.35,225.09s0,0,0,0a2.62,2.62,0,0,0-.47.41,3.18,3.18,0,0,0-.66,1.08,2.2,2.2,0,0,0-.1,1.17,1,1,0,0,0,.85,1.06c1.4.6,3.17-1.23,3.33-2.52C603.49,224.49,601.54,224.23,600.35,225.09Z"/><path class="cls-9" d="M626.42,224.8a3.74,3.74,0,0,0-1.62.77c-.59.5-1.23,1.36-.82,2.18a1.21,1.21,0,0,0,1.7.32,1.94,1.94,0,0,0,1.17-.6l.3-.3C627.91,226.41,628,224.39,626.42,224.8Z"/><path class="cls-9" d="M614,227.87c-.14,0-.27.29-.09.29S614.13,227.87,614,227.87Z"/><path class="cls-9" d="M618.54,221a3.46,3.46,0,0,0-1.32,1c-.11.12,0,.31.14.18a2.31,2.31,0,0,1,1.18-.66C618.9,221.42,619,220.8,618.54,221Z"/><path class="cls-9" d="M627,211.73l-.21,0a1.87,1.87,0,0,0-1.71,1.53c0,.15-.07.31-.11.46a.58.58,0,0,0,.72.65l.48-.1a1.82,1.82,0,0,0,1.4-1.51,2.3,2.3,0,0,1,0-.26C627.64,212.17,627.44,211.7,627,211.73Z"/><path class="cls-9" d="M613.84,232.63c-2.2,0-4.35,4.35-1.57,4.35C614.47,237,616.61,232.63,613.84,232.63Z"/><path class="cls-11" d="M295.44,511.44c-2.25-.38-9.61-.13-13.19.36-7.28.51-16.39-2.21-26.82-3.4a49.52,49.52,0,0,0-11.48-.15c-3.76.45-7.28,1.31-11.11.93-7.58-.75-15.24-2.57-22.78-3.9a54.26,54.26,0,0,1-22.82-9.91c-3.57-2.61-6.43-5-8.75-8.8a29.75,29.75,0,0,0-1.75-2.66,12.17,12.17,0,0,1,2.06-4.34c1.69-2.52,4.52-4.32,7.15-5.67,6.28-3.21,12.88-1.64,19,1.09,3.31,1.5,7.14,2.13,10.65,3.08s7.56.63,11.32,1.24c17.11,2.76,32.51,11.5,48.33,18.09,8,3.34,17.31,4.93,24.79,9.41A14.44,14.44,0,0,1,304.4,511C305.38,512,302.16,513,295.44,511.44Z"/><path class="cls-12" d="M275.44,504.33c-4.58-1.69-18.29-5.3-25.15-10.39a74.56,74.56,0,0,0-11.22-7.29c-3.86-1.9-8.11-2.57-12.32-3.4-9.62-1.91-18.26-6.57-27.66-9.32a48.74,48.74,0,0,0-7.8-1.67c4.61-.6,9.25.76,13.61,2.73,3.31,1.5,7.14,2.13,10.65,3.08s7.56.63,11.32,1.24c17.11,2.76,32.51,11.5,48.33,18.09,8,3.34,17.31,4.93,24.79,9.41A12,12,0,0,1,304.4,511c.34,1.12-1.15-1.13-7.15-2.67-2.84-.74-6.6-.29-10.86-1.76C280.89,504.66,276.75,504.81,275.44,504.33Z"/><path class="cls-13" d="M245.19,489.36c3.27,2,6.32,4.25,9.81,5.85,2.92,1.31,6.17,1.24,9.14,2.37,3.74,1.45,6.76,4,10.36,5.67,3.07,1.39,7,1.83,10.29,2.51,3.53.72,7.17.75,10.66,1.62a23.6,23.6,0,0,1,5.44,2.13,23.84,23.84,0,0,0-3.64-1.2c-2.84-.74-6.6-.29-10.86-1.76-5.5-1.89-9.64-1.74-10.95-2.22-4.58-1.69-18.29-5.3-25.15-10.39a80.48,80.48,0,0,0-9.78-6.54A18.71,18.71,0,0,1,245.19,489.36Z"/><path class="cls-14" d="M289.34,504.55a44.83,44.83,0,0,1-11.21-2.8c-5.83-2.45-11.27-5.71-17-8.39-2.43-1.12-4.9-2.05-7.4-3-3.15-1.23-5.9-3-8.95-4.39a100.22,100.22,0,0,0-16.5-5.7,61.29,61.29,0,0,0-8.18-1.18,39.87,39.87,0,0,1-8.65-2c1.41.34,2.78.65,4.11,1,3.66,1,7.56.63,11.32,1.24,17.11,2.76,32.51,11.5,48.33,18.09,8,3.34,17.31,4.93,24.79,9.41a19.21,19.21,0,0,1,1.68,1.14C298.16,505.67,293,505.07,289.34,504.55Z"/><path class="cls-12" d="M234.63,497a10.24,10.24,0,0,1-6.38-.88c-1-.62-2.15-.27-3.28-.49s-2.24-.64-3.37-.85a.2.2,0,0,1,0-.4,9.61,9.61,0,0,1,2.21,0,35.68,35.68,0,0,1,3.86,0c.55.08,1.15.67,1.68.81.81.21,1.6.4,2.39.59,1.18.25,2,.08,3,.73C235,496.62,234.87,497,234.63,497Z"/><path class="cls-12" d="M208.77,491.21c-1.23,1-3.88.09-5.2-.32s-2.47-1.06-3.71-1.43c-1.08-.31-1.7-1.85-2.7-1.91a.14.14,0,0,1,0-.28,1.5,1.5,0,0,1,1.38.18c1,.53,2.13.84,3.09,1.4,2.18,1.26,4.9,1.09,7.15,2.07A.18.18,0,0,1,208.77,491.21Z"/><path class="cls-15" d="M233,509.11c4.57-.79,8.54-3.28,13.05-4.15,5.32-1.06,9.4,1.49,13.62,4-1.37-.21-2.79-.42-4.25-.58a49.52,49.52,0,0,0-11.48-.15c-3.76.45-7.28,1.31-11.11.93l-.15,0Z"/><path class="cls-13" d="M303.87,512c-1.64-1.51-4.51-2-6.58-2.37a20.87,20.87,0,0,0-4,0c-2.56,0-4.32-.92-6.45-2.15a14.47,14.47,0,0,0-6-2,74.55,74.55,0,0,0-16.25-3.1c-4-.35-8.11-.77-11.73-2.59a36,36,0,0,1-7.78-5.72c-4-3.66-7.77-5.5-13.28-5.09a14.21,14.21,0,0,1-10.2-3,24.72,24.72,0,0,0-4.86-3c-2.88-1.22-6.56-2.39-9.71-1.75-2.21.44-4.66,2.33-3.91,5s3.49,3.87,5.7,5.29a4.3,4.3,0,0,1-1.32.41,63,63,0,0,1-7.34-2c-2.17-.6-4.65-1.29-6.94-.88-2.9.52-4.82,3.21-7.66,3.62a7.51,7.51,0,0,1-1.57.07,26.1,26.1,0,0,1-5.5-6.27,29.75,29.75,0,0,0-1.75-2.66,12.17,12.17,0,0,1,2.06-4.34c1.69-2.52,4.52-4.32,7.15-5.67,6.28-3.21,12.88-1.64,19,1.09,3.31,1.5,7.14,2.13,10.65,3.08s7.56.63,11.32,1.24c17.11,2.76,32.51,11.5,48.33,18.09,8,3.34,17.31,4.93,24.79,9.41A14.44,14.44,0,0,1,304.4,511C304.75,511.37,304.56,511.72,303.87,512Z"/><path class="cls-16" d="M179.39,442.77c2.55,2.11,5.79,3.11,8.75,4.5a24.61,24.61,0,0,1,7.67,5c1.78,1.88,2.71,4.09,4.24,6.14,1.38,1.83,3.47,3.77,4.12,6A43.07,43.07,0,0,1,205.9,474c0,1.83-1.89,3.38-2.85,5-1.19,1.95-2.92,2.71-4.6,4.16-2.13,1.79-4.55,2.82-6.47,4.94-1.48,1.62-2.67,3.38-4.48,4.63a68.92,68.92,0,0,0-6.36,5.1c-1.13,1-2.23,2.19-3.41,3.21a18.4,18.4,0,0,1-1.38,1.63,49.15,49.15,0,0,0-5.74,5.89c-1.69,2.26-2.91,4.54-5.61,5.73-4.14,1.82-9.95-.19-13.87-1.9a70.66,70.66,0,0,1-7.7-3.95c-2.74-1.64-5.78-2.88-8.43-4.62-2.41-1.6-5-2.93-7.49-4.45a63,63,0,0,1-6.28-5,46.19,46.19,0,0,0-8.18-4.86c-.46-.24-.89-.49-1.33-.75a81,81,0,0,0-7.35-5.86,41.87,41.87,0,0,1-3.73-2.94,20.51,20.51,0,0,1-3.24-2.52A14,14,0,0,0,94,474.09a.61.61,0,0,0-.86.23,11.74,11.74,0,0,0-.78,3.62c-1.06,3.44-2.09,6.89-3.38,10.23-.44,1.18-.92,2.34-1.34,3.51-.32.59-.63,1.18-1,1.73-.22.37-.44.7-.67,1a32.29,32.29,0,0,1-2.46,2.64c-2.7,2.59-5.42,5.16-8.3,7.56a56.85,56.85,0,0,1-10.38,7.25,25.91,25.91,0,0,1-6.87,1.8c-2.93-.75-4.72-1.71-6.25-4.66-.72-1.35-1.34-2.72-1.92-4.1a37.59,37.59,0,0,1-1.68-6.5c-.39-3-1.59-6-2.32-9a47.31,47.31,0,0,1-1.36-8.87c-.17-2.9-.38-5.78-.56-8.69a31.68,31.68,0,0,1-.1-3.23,20.17,20.17,0,0,0-.09-2.35c-.5-2.12-1.2-4.18-1.93-6.34-1.23-3.58-2-7.09-5.47-9.19C34,449.41,31.41,448.38,29,447a57.4,57.4,0,0,1-8.82-6.57c-2.7-2.26-6.05-2.66-9-4.54s-4.41-4.19-6-7.32c-1.3-2.52-1.76-5.86-2.1-8.63s-2-5.77-1.66-8.72c.2-1.88,2.49-1.29,3.61-.94,3.68,1.18,5.74,2.87,8.4,5.52a14.35,14.35,0,0,0,4.85,2.79c1.48.38,3.2-.16,4.68-.5,3.12-.72,6.19.69,9,2,3.27,1.5,6.34,3.41,9.48,5.16,2.35,1.33,5.69,3,7.33,5.2,1,1.29,1.62,2.74,2.57,4a9.42,9.42,0,0,0,4.9,3.2c1.66.56,3,1.43,4.81,1.75a3.92,3.92,0,0,1,1,.3c-.35-.62-.68-1.25-1-1.88a39.72,39.72,0,0,0-4.78-7.93c-1.49-1.73-3-2.94-3.83-5.12s-.44-4.42-.24-6.54a45.17,45.17,0,0,1,1.53-7.59c1.08-3.81-.06-6.45-2.57-9.32C50,400,48.07,397.89,48.57,396c.19-.67,1-1,1.52-1.38,1.2-.79,2.23-1.81,3.38-2.6,3.85-2.7,6.87,1,10.13,3.13,1.95,1.27,3.13,3.54,4.93,5,2.43,2,6.11,2.65,9.11,3.22,5.41,1,11,.58,16.36,1.9h0a18.37,18.37,0,0,1,3.59.66,29.57,29.57,0,0,1,6.31,3,138.91,138.91,0,0,1,20.91,14.92,90.51,90.51,0,0,0,10.66,8.55c3.82,2.51,7.78,4.36,11.4,7.15s7.53,4.91,10.93,7.79c.67.55,1.32,1.12,1.93,1.69a46,46,0,0,1,1-5c1.2-4.7,1.83-9.34,3.61-13.86a9,9,0,0,1,3.42-4.61c1-.68,2.33-.89,3.36-1.59A9,9,0,0,1,173,423a.88.88,0,0,1,1.05.29c.79,1.13.66,2.79.72,4.11a39,39,0,0,0,.78,7.8C176.31,437.93,177.14,440.87,179.39,442.77Z"/><path class="cls-11" d="M203.05,478.92c-1.19,1.95-2.92,2.71-4.6,4.16-2.13,1.79-4.55,2.82-6.47,4.94-1.48,1.62-2.67,3.38-4.48,4.63a68.92,68.92,0,0,0-6.36,5.1c-1.13,1-2.23,2.19-3.41,3.21a18.4,18.4,0,0,1-1.38,1.63,49.15,49.15,0,0,0-5.74,5.89c-1.69,2.26-2.91,4.54-5.61,5.73-4.14,1.82-9.95-.19-13.87-1.9a70.66,70.66,0,0,1-7.7-3.95c-2.74-1.64-5.78-2.88-8.43-4.62-2.41-1.6-5-2.93-7.49-4.45a63,63,0,0,1-6.28-5,46.19,46.19,0,0,0-8.18-4.86c-.46-.24-.89-.49-1.33-.75a81,81,0,0,0-7.35-5.86,41.87,41.87,0,0,1-3.73-2.94,20.51,20.51,0,0,1-3.24-2.52A14,14,0,0,0,94,474.09a.61.61,0,0,0-.86.23,11.74,11.74,0,0,0-.78,3.62c-1.06,3.44-2.09,6.89-3.38,10.23-.44,1.18-.92,2.34-1.34,3.51-.32.59-.63,1.18-1,1.73-.22.37-.44.7-.67,1a32.29,32.29,0,0,1-2.46,2.64c-2.7,2.59-5.42,5.16-8.3,7.56a56.85,56.85,0,0,1-10.38,7.25,25.91,25.91,0,0,1-6.87,1.8A10.42,10.42,0,0,1,54.1,512c12.92-4.46,14.23-22.66,18-34.14,1.3-4,2.57-8,2.13-12.24s-3.15-7.95-4.51-11.81c-1.94-5.52-7.93-14.17-7.7-14.07-.35-.62-.68-1.25-1-1.88a39.72,39.72,0,0,0-4.78-7.93c-1.49-1.73-3-2.94-3.83-5.12s-.44-4.42-.24-6.54a45.17,45.17,0,0,1,1.53-7.59c1.08-3.81-.06-6.45-2.57-9.32C50,400,48.07,397.89,48.57,396c.19-.67,1-1,1.52-1.38,1.2-.79,2.23-1.81,3.38-2.6,3.85-2.7,6.87,1,10.13,3.13,1.95,1.27,3.13,3.54,4.93,5,2.43,2,6.11,2.65,9.11,3.22,5.41,1,11,.58,16.36,1.9h0a18.37,18.37,0,0,1,3.59.66,29.57,29.57,0,0,1,6.31,3,138.91,138.91,0,0,1,20.91,14.92,90.51,90.51,0,0,0,10.66,8.55c3.82,2.51,7.78,4.36,11.4,7.15s7.53,4.91,10.93,7.79c.67.55,1.32,1.12,1.93,1.69a46,46,0,0,1,1-5c1.2-4.7,1.83-9.34,3.61-13.86a9,9,0,0,1,3.42-4.61c1-.68,2.33-.89,3.36-1.59A9,9,0,0,1,173,423a.88.88,0,0,1,1.05.29c.79,1.13.66,2.79.72,4.11a39,39,0,0,0,.78,7.8c.72,2.77,1.55,5.71,3.8,7.61,2.55,2.11,5.79,3.11,8.75,4.5a24.61,24.61,0,0,1,7.67,5c1.78,1.88,2.71,4.09,4.24,6.14,1.38,1.83,3.47,3.77,4.12,6A43.07,43.07,0,0,1,205.9,474C205.94,475.79,204,477.34,203.05,478.92Z"/><path class="cls-17" d="M166.07,511a17,17,0,0,1-3.81,3.89c-2.37,1.87-13-3.28-13.86-3.87a13.88,13.88,0,0,0,11.17-6.55c1.53-2.06,3.51-1.47,5.34-2.66a3.41,3.41,0,0,0,1-3.07c-.08-.45-.15-.9-.23-1.34a4.22,4.22,0,0,0,.49-.77c1-2,.65-4.07.38-6.2-.45-3.73,0-6.52,2.43-9a22.91,22.91,0,0,0,1.73,9.27,33.51,33.51,0,0,1,.28,7.88A29.76,29.76,0,0,1,166.07,511Z"/><path class="cls-18" d="M120,421c-3.49-2.75-7.44-4.73-11.06-7.32-1.88-1.36-4.33-3.86-7-3.17-2.5.68-4.1-.16-6.45-.58a5,5,0,0,0-3.21.67,3.1,3.1,0,0,0-1.64,3.74c.82,2.44,2.53,4.41,3.54,6.77.94,2.18,1.8,4.37,2.78,6.51a39.17,39.17,0,0,0-4.16-5.11c-2.89-2.77-5.68-5.68-8.58-8.44-5.15-4.88-11.76-6.28-18.72-6.51-2.75-.1-4.89-.38-6.24-3.12a11.81,11.81,0,0,0-1.68-3c-.87-.89-2.53-2-3.85-1.33A3.36,3.36,0,0,0,52,402.44c-.27-.36-.57-.72-.89-1.08C50,400,48.07,397.89,48.57,396c.19-.67,1-1,1.52-1.38,1.2-.79,2.23-1.81,3.38-2.6,3.85-2.7,6.87,1,10.13,3.13,1.95,1.27,3.13,3.54,4.93,5,2.43,2,6.11,2.65,9.11,3.22,5.41,1,11,.58,16.36,1.9h0a18.37,18.37,0,0,1,3.59.66,29.57,29.57,0,0,1,6.31,3,139.71,139.71,0,0,1,20.64,14.69A23.81,23.81,0,0,1,120,421Z"/><path class="cls-18" d="M67.29,429.61c-.69-2.48-1.29-5.67-2.82-7.82-2.06-2.89-6.94-5.76-7.84-9.54a8.09,8.09,0,0,0,1.86,2.21c3.14,2.44,7.54.92,10.7,3,5.43,3.64,1,12.25-.66,18A44.47,44.47,0,0,0,67.29,429.61Z"/><path class="cls-13" d="M203.05,478.92c-1.19,1.95-2.92,2.71-4.6,4.16-2.13,1.79-4.55,2.82-6.47,4.94-1.48,1.62-2.67,3.38-4.48,4.63a68.92,68.92,0,0,0-6.36,5.1c-1.13,1-2.23,2.19-3.41,3.21a18.4,18.4,0,0,1-1.38,1.63,49.15,49.15,0,0,0-5.74,5.89c-1.69,2.26-2.91,4.54-5.61,5.73-4.14,1.82-9.95-.19-13.87-1.9l-.32-.13v0c5.95-2.16,13.62-6.15,15-12.42,1.52-6.84-4.4-9.68-8.05-14.22-2.86-3.58-2-7.43-2.82-11.55-.59-3.11-2.43-5.45-4.74-7.56-6-5.4-13.3-8.81-20.26-12.73-7.39-4.18-15-8.17-22.19-12.55a54.79,54.79,0,0,1-18.21-17.52c-3.64-5.55-7.44-11.58-13.47-14.8-3.8-2.05-8.14-2.74-12-4.67A21.27,21.27,0,0,1,59.66,401a19.67,19.67,0,0,0-2-2.22,26.39,26.39,0,0,0-2.79-2.23l-.32-.26A16,16,0,0,0,51,393.93c.81-.63,1.61-1.32,2.44-1.89,3.85-2.7,6.87,1,10.13,3.13,1.95,1.27,3.13,3.54,4.93,5,2.43,2,6.11,2.65,9.11,3.22,5.41,1,11,.58,16.36,1.9h0a18.37,18.37,0,0,1,3.59.66,29.57,29.57,0,0,1,6.31,3,138.91,138.91,0,0,1,20.91,14.92,90.51,90.51,0,0,0,10.66,8.55c3.82,2.51,7.78,4.36,11.4,7.15s7.53,4.91,10.93,7.79c.67.55,1.32,1.12,1.93,1.69a46,46,0,0,1,1-5c1.2-4.7,1.83-9.34,3.61-13.86a9,9,0,0,1,3.42-4.61c1-.68,2.33-.89,3.36-1.59A9,9,0,0,1,173,423a.88.88,0,0,1,1.05.29c.79,1.13.66,2.79.72,4.11a39,39,0,0,0,.78,7.8c.72,2.77,1.55,5.71,3.8,7.61,2.55,2.11,5.79,3.11,8.75,4.5a24.61,24.61,0,0,1,7.67,5c1.78,1.88,2.71,4.09,4.24,6.14,1.38,1.83,3.47,3.77,4.12,6A43.07,43.07,0,0,1,205.9,474C205.94,475.79,204,477.34,203.05,478.92Z"/><path class="cls-19" d="M56.81,393.83c-1.12.91-2.25,2.39-3.61,3a6,6,0,0,0-2.66,1.52,2.47,2.47,0,0,0-.1,2.2c-1.08-1.3-2.28-3-1.87-4.51.19-.67,1-1,1.52-1.38,1.2-.79,2.23-1.81,3.38-2.6,2.73-1.89,5-.61,7.29,1.06A4.14,4.14,0,0,0,56.81,393.83Z"/><path class="cls-20" d="M54.72,413.5c.22-.68,1.4-6.27,1.61-6.95.11.46.19,6.71.37,7.17,1.09,2.92,4.44,3.35,6.28,5.86,2.08,2.82,2.76,6.2,4.2,9.42s1.3,7.62,2.84,10.91a120.42,120.42,0,0,0,12.24,21.16c2.29,3,4.77,5.86,7.33,8.65,1.32,1.41,2.5,2.93,3.71,4.43a.33.33,0,0,0-.14.17,11.74,11.74,0,0,0-.78,3.62c-1.06,3.44-2.09,6.89-3.38,10.23-.44,1.18-.92,2.34-1.34,3.51-.32.59-.63,1.18-1,1.73-.22.37-.44.7-.67,1a32.29,32.29,0,0,1-2.46,2.64c-2.7,2.59-5.42,5.16-8.3,7.56a56.85,56.85,0,0,1-10.38,7.25,25.91,25.91,0,0,1-6.87,1.8A10.42,10.42,0,0,1,54.1,512c12.92-4.46,14.23-22.66,18-34.14,1.3-4,2.57-8,2.13-12.24s-3.15-7.95-4.51-11.81c-1.94-5.52-3.23-10-4.85-13.56-2.24-6.21-7.48-9.76-8.86-13.5C54.4,422.34,53.23,418.12,54.72,413.5Z"/><path class="cls-18" d="M74,450.93a33.26,33.26,0,0,1-5.09-9.52c-.89-3-1.47-6.1-2.46-9.07a22.84,22.84,0,0,0-4.08-7.46c-2.37-2.83-4.72-5.5-5.35-9.28-.09-.55-.15-1.07-.2-1.59,1.2,2.64,4.38,3.14,6.16,5.57,2.08,2.82,2.76,6.2,4.2,9.42s1.3,7.62,2.84,10.91A129.11,129.11,0,0,0,80.34,458.4,65.35,65.35,0,0,1,74,450.93Z"/><path class="cls-18" d="M92.38,477.94c-1.06,3.44-2.09,6.89-3.38,10.23-.44,1.18-.92,2.34-1.34,3.51-.32.59-.63,1.18-1,1.73-.22.37-.44.7-.67,1a32.29,32.29,0,0,1-2.46,2.64c-2.7,2.59-5.42,5.16-8.3,7.56a.47.47,0,0,0-.12.09c-1.31-.62-.76-3.05.06-4.46,1.14-2,2.83-3.84,3.45-6.07a29.07,29.07,0,0,0,.81-7c.11-3,1-5.66,1.44-8.6a21,21,0,0,0-.24-7.65c0-.44-.09-.85-.17-1.27-.13-.69-.29-1.37-.47-2.05-.23-1-.42-2.08-.59-3.16a25,25,0,0,0-1.11-5c-.24-2-.55-3.89-1-5.75,1.54,2.54,3.18,5,4.92,7.33,2.29,3,4.77,5.86,7.33,8.65,1.32,1.41,2.5,2.93,3.71,4.43a.33.33,0,0,0-.14.17A11.74,11.74,0,0,0,92.38,477.94Z"/><path class="cls-18" d="M92.38,477.94c-1.06,3.44-2.09,6.89-3.38,10.23-.44,1.18-.92,2.34-1.34,3.51-.32.59-.63,1.18-1,1.73-.22.37-.44.7-.67,1a32.29,32.29,0,0,1-2.46,2.64c-2.13,2.06-4.31,4.09-6.55,6,2.49-3.8,7.16-6.15,8.3-10.75.36-1.42-.06-2.84-.13-4.24a12.88,12.88,0,0,1,.78-5c.67-1.93,1.71-4.2,1.35-6.31-.5-2.87-2.11-5.25-3.24-7.9a77.87,77.87,0,0,1-3.34-9.13c-.15-.46-.25-.92-.38-1.41.63.94,1.27,1.82,1.92,2.7,2.29,3,4.77,5.86,7.33,8.65,1.32,1.41,2.5,2.93,3.71,4.43a.33.33,0,0,0-.14.17A11.74,11.74,0,0,0,92.38,477.94Z"/><path class="cls-20" d="M203,478.91c-1.19,1.94-2.92,2.71-4.61,4.14-2.12,1.82-4.53,2.85-6.47,5-1.48,1.6-2.66,3.35-4.48,4.62a70.74,70.74,0,0,0-6.35,5.09c-1.14,1-2.25,2.21-3.44,3.22a16.46,16.46,0,0,1-1.36,1.62c-2,2-4.05,3.6-5.74,5.9-2.79,3.75-2.76,4.48-5.6,5.74a10.34,10.34,0,0,1-5.2.63c.92-.24,1.8-.54,2.67-.84a2.26,2.26,0,0,0,.86-1,23.51,23.51,0,0,0,7-11.23c1.39-5-.2-10.87-1.82-15.76a29.28,29.28,0,0,0,0-4.49,17.2,17.2,0,0,0-.15-2.87,8.5,8.5,0,0,0-1.81-4c-1.31-1.81-1-3.61-1.68-5.56-.93-2.68-2.78-4.69-4.25-7,0-.16-1.23-2.65-1.28-2.81-1.54-4.39.11-10.51.38-10.27a41.65,41.65,0,0,1,1-5c1.2-4.69,1.82-9.34,3.61-13.85a8.91,8.91,0,0,1,3.42-4.62c1.07-.68,2.32-.89,3.35-1.59A9.53,9.53,0,0,1,173,423a.87.87,0,0,1,1,.28c.78,1.14.65,2.8.71,4.12a37.68,37.68,0,0,0,.8,7.8c.71,2.77,1.51,5.7,3.79,7.59,2.55,2.13,5.78,3.12,8.72,4.49a24.94,24.94,0,0,1,7.69,5c1.78,1.89,2.71,4.11,4.25,6.13,1.38,1.84,3.46,3.77,4.1,6a43.78,43.78,0,0,1,1.74,9.54C205.94,475.79,204,477.34,203,478.91Z"/><path class="cls-21" d="M27.32,432.46a168.63,168.63,0,0,0-14.79-8.13,19.87,19.87,0,0,1-5.16-3.88,16.38,16.38,0,0,1-2.48-3.06c-.67-1.08-.86-2.39-1.55-3.47,0-.09.06-.24.14-.14,1.6,1.63,2.41,3.75,4.08,5.4a28.9,28.9,0,0,0,6.8,4.69,90.52,90.52,0,0,1,13.2,8.28C27.77,432.31,27.54,432.59,27.32,432.46Z"/><path class="cls-21" d="M63.87,473.64c-.52-8.33-5.22-15.08-10.68-21.08-2.45-2.71-5-5.09-7.75-7.55a31.55,31.55,0,0,0-5.14-3.32c-.76-.45-1.67-.69-2.42-1.09s-1.46-1.22-2.34-1.67c-.16-.08-.07-.26.08-.23,1.74.52,3.35,1.41,5.11,2a19.7,19.7,0,0,1,4.92,2.69c3.3,2.28,6,5.39,8.77,8.29,5.17,5.39,11.73,14,9.89,22C64.25,473.88,63.89,473.92,63.87,473.64Z"/><path class="cls-12" d="M110.33,461a1.1,1.1,0,0,1-.47-.69c-1.81-2.86-2.41-6.39-3.35-9.58a.19.19,0,0,1,.36-.14c.65,1.63,1.27,3.3,1.9,5a15.47,15.47,0,0,0,2.4,4.61C111.63,460.71,110.85,461.39,110.33,461Z"/><path class="cls-12" d="M113.21,462a55.73,55.73,0,0,1-5.82-14.54c-.09-.45.57-.51.66-.1,1.26,5.05,3.89,9.61,6.13,14.25h0A.52.52,0,0,1,113.21,462Z"/><path class="cls-12" d="M114.57,455c-.27-.78-.53-1.57-.78-2.39.27,1,.57,2,.9,3,.52,1.39,1.74,3.51,1.44,5.05a.51.51,0,0,1-.92.24c-2.6-4.06-3.74-9-5.61-13.35-.22-.48.53-.78.76-.31,1.15,2.6,2.06,5.4,3.16,8.07-.1-.31-.22-.63-.3-.94a47.68,47.68,0,0,1-1.5-7.08.53.53,0,0,1,1-.26,55.57,55.57,0,0,1,2.63,7.64C115.5,455.18,114.75,455.49,114.57,455Z"/><path class="cls-12" d="M118.33,455.5a38.71,38.71,0,0,1-1.84-4.18,28.74,28.74,0,0,0-1.44-3.46.35.35,0,0,1-.37-.41c0-.1,0-.2.08-.3a.38.38,0,0,1,.67-.17,11.75,11.75,0,0,1,1.54,3.09c.73,1.68,1.42,3.38,2,5.15A.36.36,0,0,1,118.33,455.5Z"/><path class="cls-12" d="M148.51,489.63c-1.23-2-2.24-4.21-3.38-6.29-.15-.28.3-.54.45-.28,1.23,2.06,2.42,4.13,3.53,6.23C149.3,489.65,148.71,490,148.51,489.63Z"/><path class="cls-12" d="M151.82,494.39a16.81,16.81,0,0,1-2.37-5.65c-.75-2.59-1.4-5.23-2-7.86-.07-.39.52-.45.63-.07,1.08,4.45,2.13,9.17,4.37,13.22C152.69,494.42,152.07,494.71,151.82,494.39Z"/><path class="cls-12" d="M152.57,490.35c-1.41-2.65-1.65-5.67-3-8.33-.16-.32.38-.64.56-.3,1.48,2.61,1.88,5.63,3.06,8.38C153.36,490.49,152.75,490.72,152.57,490.35Z"/><path class="cls-12" d="M154.09,490.2c-1.94-3.3-2.76-7.24-3.72-10.89-.16-.5.54-1,.81-.48a1.4,1.4,0,0,1,.12.18.5.5,0,0,1,.08.3c1,3.57,2.19,7,3.34,10.55C154.84,490.22,154.32,490.58,154.09,490.2Z"/><path class="cls-12" d="M155.17,488.85c-1.51-2.87-2.11-6.15-2.86-9.29-.13-.58.77-.68.91-.12.77,3.1,1.81,6.06,2.66,9.13A.38.38,0,0,1,155.17,488.85Z"/><path class="cls-12" d="M155.57,485.25a20.39,20.39,0,0,1-1.27-3.77l0,0a10.13,10.13,0,0,1-.37-1.61l0,0a.66.66,0,0,1-.15-.65.42.42,0,0,1,.81-.09c.28.65.26,1.4.54,2.05a1,1,0,0,1,0,.12c.29,1.27.68,2.51,1.07,3.76A.32.32,0,0,1,155.57,485.25Z"/><path class="cls-12" d="M157.49,487.54a36.37,36.37,0,0,1-1.35-3.88c-.44-1.33-.59-2.73-1.09-4-.23-.6.68-1,.9-.37.52,1.32.65,2.72,1.07,4.05s.78,2.71,1.11,4.06C158.24,487.77,157.63,487.9,157.49,487.54Z"/><path class="cls-12" d="M178.47,491.22c-.17.18-.48-.05-.3-.23,1.9-2.12,2.65-4.44,3.81-6.95.11-.29.48-.1.4.18A16,16,0,0,1,178.47,491.22Z"/><path class="cls-12" d="M180.05,481.42c-.19.24-.62,0-.46-.28.53-.89.87-1.85,1.36-2.75.12-.3.66-.19.56.16A7.59,7.59,0,0,1,180.05,481.42Z"/><path class="cls-12" d="M179.46,471.73c-.1.29-.54.1-.43-.21a9.93,9.93,0,0,0,.54-1.83c0-.25.43-.19.41.06A7.06,7.06,0,0,1,179.46,471.73Z"/><path class="cls-12" d="M178.77,495.47a3.88,3.88,0,0,1-.89,1.09c-.14.12-.39-.08-.31-.25.2-.38.44-.72.65-1.09S179,495.1,178.77,495.47Z"/><path class="cls-12" d="M180.13,487.09a4.52,4.52,0,0,1-1.43,2c-.11.06-.19-.05-.11-.13a8,8,0,0,0,1.31-2.36c.47-.95.83-2,1.22-2.93.1-.23.42-.08.35.15A19.33,19.33,0,0,1,180.13,487.09Z"/><path class="cls-12" d="M180.12,479.42c-.11.1-.35,0-.25-.19.35-.65.64-1.35,1-2a.15.15,0,0,1,.28.13A6.26,6.26,0,0,1,180.12,479.42Z"/><path class="cls-12" d="M203,468.61a16.65,16.65,0,0,0-3.46-6.91,9.73,9.73,0,0,1-1.77-3.85c-1.21-5.1-4.78-7.59-9.23-9.87-.17-.07-.05-.31.11-.26,4,1.26,7.84,3.65,9.37,7.73.41,1.14.43,2.41.73,3.57.37,1.41,1.52,2.49,2.34,3.61a13.91,13.91,0,0,1,2.14,5.94C203.24,468.73,203,468.75,203,468.61Z"/><path class="cls-12" d="M101.23,432.39A27.09,27.09,0,0,0,96.82,429,8.31,8.31,0,0,1,93.25,425c-1.28-2.17-3.39-3.9-4.86-6a41.9,41.9,0,0,0-6.08-7.13c-4.22-3.65-11-2.47-15.54-5.62a21.8,21.8,0,0,1-2.86-2.59c-.92-.9-2.35-1-3.36-1.74-1.63-1.23-2.11-3.62-2.92-5.34-.07-.14.12-.21.21-.13,2,2.1,2.45,4.2,5.39,5.26,2.52.92,4,3.59,6.6,4.64,4.66,1.88,10,1.42,14,4.88a28.79,28.79,0,0,1,4.63,5.8,70.33,70.33,0,0,0,4.86,6.08,14.91,14.91,0,0,1,1.35,2.64c.73,1.51,1.93,1.78,3.08,2.7s3.1,2.19,3.86,3.64C101.73,432.34,101.41,432.56,101.23,432.39Z"/><path class="cls-22" d="M185.34,489.07a55.79,55.79,0,0,0-3.17,5.11.14.14,0,0,1-.26-.11c.84-2.84,2.53-5.38,3.92-8,1.2-2.26.48-5,.29-7.4a53.92,53.92,0,0,0-.79-6.44c-1.45-7.65-8.07-12.63-9.89-20.14-.05-.16.21-.21.26-.06a35.27,35.27,0,0,0,7,10.8c2.48,2.66,3.61,6.51,4.29,10a57.68,57.68,0,0,1,.67,6.59c.14,1.8.59,3.59,0,5.37A15.07,15.07,0,0,1,185.34,489.07Z"/><path class="cls-12" d="M95.8,475.52c-2.18-1.63-4.54-2.34-6.43-4.49q-3.95-4.5-7.73-9.19a81.3,81.3,0,0,1-11.51-19.17c-1.49-3.49-1.66-7.22-2.84-10.77a50.44,50.44,0,0,0-1.7-5.55c-.79-1.7-.69-3.54-1.94-5.05-1.92-2.33-5.25-3.31-6.73-6-1.75-3.16-.61-6.85-.72-10.25,0-.27.35-.39.45-.13.46,1.25-.5,6.69.93,9,1,1.71,3.8,3.16,5.16,4.07a10.49,10.49,0,0,1,2.8,3.09,18.07,18.07,0,0,1,1.37,4.05c.41,1.58,1.24,3,1.62,4.61.89,3.81,1.45,7.81,2.8,11.47A71.77,71.77,0,0,0,82.77,461c2.35,2.94,4.91,5.74,7.2,8.72,1.73,2.21,4.34,3.42,6,5.66C96,475.48,95.89,475.6,95.8,475.52Z"/><path class="cls-23" d="M170.88,502.4a21.41,21.41,0,0,1-2,4.92,27.1,27.1,0,0,1-4.61,6.11c-.88.79-1.78,1.86-3.06,1.85a22.33,22.33,0,0,1-5.28-.87.11.11,0,0,1,0-.21c1.54,0,3.1.06,4.62.07,1.77,0,3.39-2.73,4.21-4,.66-1.08,1.55-2,2.25-3a22,22,0,0,0,2.42-5.84c.62-2.18,1.36-4,.69-6.31-.42-1.39-.94-2.71-1.22-4.11a38.13,38.13,0,0,1-.9-5.39c-.08-1.85.25-3.68.06-5.51-.34-3.27-3.34-5.3-3.59-8.58-.24-3.69-2.14-5.7-3.93-8.68a15.38,15.38,0,0,1-2.35-8.1c-.12-3,1.35-5.82,2.25-8.61,0-.05.09,0,.08,0a33.17,33.17,0,0,0-.75,11.09c.43,3.49,3.08,5.51,4.64,8.38a17.71,17.71,0,0,1,1.6,3.94c.28,1.12,0,2.2.42,3.34a18.57,18.57,0,0,0,2,3.18c2,3.28,1.19,6.67,1.36,10.28s2.18,7.06,2.42,10.7C172.29,498.77,171.35,500.72,170.88,502.4Z"/><path class="cls-13" d="M159.52,456.08c1.62,3.46,3.91,5.62,6.71,8.14,3.76,3.37,4.83,6.82,3.67,11.76-.62,2.57-1.7,5.77-.78,8.4,1.34,3.94,6.66,5.32,6.72,9.71.08,5.13-2.92,9.83-6.4,13.4a25.33,25.33,0,0,1-3.57,2.94,24.62,24.62,0,0,0,4.48-8.61c1.39-5-.2-10.87-1.82-15.76a29.28,29.28,0,0,0,0-4.49,17.2,17.2,0,0,0-.15-2.87,8.5,8.5,0,0,0-1.81-4c-1.31-1.81-1-3.61-1.68-5.56-.93-2.68-2.78-4.69-4.25-7,0-.16-1.23-2.65-1.28-2.81a14.14,14.14,0,0,1-.63-5.16A19,19,0,0,0,159.52,456.08Z"/><path class="cls-24" d="M203,478.91c-1.19,1.94-2.92,2.71-4.61,4.14-2.12,1.82-4.53,2.85-6.47,5-1.48,1.6-2.66,3.35-4.48,4.62a70.74,70.74,0,0,0-6.35,5.09c-.73.65-1.44,1.38-2.18,2.07a58.33,58.33,0,0,1,4.15-7.13c1.34-1.85,2.91-3.89,3.1-6.26s.31-4.9.36-7.34c.1-4.77-.23-9.47-2.73-13.68-2.9-4.88-6.73-9.32-10-14-4-5.61-7-11.31-4.48-18.37.95-2.65,2.38-5.13,3.25-7.79a4.39,4.39,0,0,0,.24-2.23L173,423a.87.87,0,0,1,1,.28c.78,1.14.65,2.8.71,4.12a37.68,37.68,0,0,0,.8,7.8c.71,2.77,1.51,5.7,3.79,7.59,2.55,2.13,5.78,3.12,8.72,4.49a24.94,24.94,0,0,1,7.69,5c1.78,1.89,2.71,4.11,4.25,6.13,1.38,1.84,3.46,3.77,4.1,6a43.78,43.78,0,0,1,1.74,9.54C205.94,475.79,204,477.34,203,478.91Z"/><path class="cls-25" d="M203,478.91a8.21,8.21,0,0,1-1.81,2,15.46,15.46,0,0,1,1-2,14.27,14.27,0,0,0,1.91-3.8c.66-2.48-.47-3.64-1.42-5.79-1-2.33-.06-4.68-1.9-6.68-1-1.05-2.17-1.87-3.14-2.9-1.29-1.36-1.51-3-2.32-4.53-2.28-4.34-6.32-5.66-10.94-6.24-1.74-.2-3.82-.27-5.74-.63a7.26,7.26,0,0,1-5.3-4.83c-1.16-3.6-.65-6.71.15-10.22.47-2.22,1.73-6.89.7-9.75a9.32,9.32,0,0,1,.52,3.77,37.68,37.68,0,0,0,.8,7.8c.71,2.77,1.51,5.7,3.79,7.59,2.55,2.13,5.78,3.12,8.72,4.49a24.94,24.94,0,0,1,7.69,5c1.78,1.89,2.71,4.11,4.25,6.13,1.38,1.84,3.46,3.77,4.1,6a43.78,43.78,0,0,1,1.74,9.54C205.94,475.79,204,477.34,203,478.91Z"/><path class="cls-12" d="M158.79,456.08c.63,5.13,3.88,9.11,5.81,13.76-.55-.62-1.1-1.24-1.73-1.83-2.67-2.59-6.26-5.52-7.38-9.23-.81-2.7-.29-5.48-2-7.85-2-2.75-5.7-5-8.47-6.89-3.79-2.66-7.64-5.2-11.48-7.79-7.83-5.24-15.71-10.46-23-16.51-3-2.53-6.14-5.3-9.76-6.95a36.35,36.35,0,0,0-11.42-2.88c-5-.52-10.05-.63-15-1.61-3.84-.75-8.18-1.47-11.45-3.86-2.76-2-3.94-5.63-6.9-7.36-2-1.15-4.89.08-6.66,1.06a2.19,2.19,0,0,0-.37.25,3.36,3.36,0,0,1-.4-2.37c.19-.67,1-1,1.52-1.38,1.2-.79,2.23-1.81,3.38-2.6,3.85-2.7,6.87,1,10.13,3.13,1.95,1.27,3.13,3.54,4.93,5,2.43,2,6.11,2.65,9.11,3.22,5.41,1,11,.58,16.36,1.9h0a18.37,18.37,0,0,1,3.59.66,29.57,29.57,0,0,1,6.31,3,138.91,138.91,0,0,1,20.91,14.92,90.51,90.51,0,0,0,10.66,8.55c3.82,2.51,7.78,4.36,11.4,7.15s7.53,4.91,10.93,7.79c.51.42,1,.85,1.45,1.27A22.58,22.58,0,0,0,158.79,456.08Z"/><path class="cls-26" d="M64.59,502.71a20.4,20.4,0,0,1-4.31,6,21.46,21.46,0,0,1-5.19,2.86c-4.06-5.64-3.9-13.5-2.68-20.1A68.72,68.72,0,0,1,55.27,480a47.11,47.11,0,0,0,2.85-9.46c.82-5.75-2.82-11.32-6-15.75a30.58,30.58,0,0,0-6.35-6.5c-2.67-2-5.8-3.19-8.49-5.18-5.2-3.84-9.53-9-16.06-10.67-3.14-.78-6.82-1.06-9.6-2.84-3.6-2.31-5.51-6.21-6.85-10.16-.78-2.33-.91-6.89-2.73-9.18.79-.54,2.22-.16,3,.08,3.68,1.18,5.74,2.87,8.4,5.52a14.35,14.35,0,0,0,4.85,2.79c1.48.38,3.2-.16,4.68-.5,3.12-.72,6.19.69,9,2,3.27,1.5,6.34,3.41,9.48,5.16,2.35,1.33,5.69,3,7.33,5.2,1,1.29,1.62,2.74,2.57,4a9.42,9.42,0,0,0,4.9,3.2c1.66.56,3,1.43,4.81,1.75a3.57,3.57,0,0,1,.93.27,29.59,29.59,0,0,1,3,4.24c2.52,4.42,4.41,9.15,6.83,13.61.5.92,1,1.89,1.57,2.87,1,3.72,1.74,7.36.79,11.49-1.07,4.73-3,9.21-4.18,13.91C68.45,491.44,67.33,497.53,64.59,502.71Z"/><path class="cls-26" d="M69.93,485.83c-1.44,5.47-2.55,11.39-5.14,16.47.24-5.61-.49-11.23-.44-16.88.06-6.36.69-12.81-1.52-18.93A58.12,58.12,0,0,0,53,450.18a34.09,34.09,0,0,0-7.33-6.86c-2.9-1.88-6.1-3.22-9-5.16C30.86,434.24,25.53,430,19,427.23c-3.51-1.49-7.73-3-10.45-5.77a26.22,26.22,0,0,1-4-5.73c-.32-.58-.66-1.25-1-1.93A9.82,9.82,0,0,0,2,410.24c.79-.54,2.22-.16,3,.08,3.68,1.18,5.74,2.87,8.4,5.52a14.35,14.35,0,0,0,4.85,2.79c1.48.38,3.2-.16,4.68-.5,3.12-.72,6.19.69,9,2,3.27,1.5,6.34,3.41,9.48,5.16,2.35,1.33,5.69,3,7.33,5.2,1,1.29,1.62,2.74,2.57,4a9.42,9.42,0,0,0,4.9,3.2c1.66.56,3,1.43,4.81,1.75a3.57,3.57,0,0,1,.93.27,29.59,29.59,0,0,1,3,4.24c2.52,4.42,4.41,9.15,6.83,13.61.5.92,1,1.89,1.57,2.87,1,3.72,1.74,7.36.79,11.49C73,476.65,71.16,481.13,69.93,485.83Z"/><path class="cls-26" d="M69.56,466.09a18.79,18.79,0,0,0-.7-8.78,36.12,36.12,0,0,0-3.58-7.85c-2.53-3.94-6.27-8.74-11.4-8.69-2.1,0-5.34.13-5.88-2.54-.2-1-.2-2-.34-3a7,7,0,0,0-2.2-4.37,38.14,38.14,0,0,0-6.28-4.15,74,74,0,0,0-7.77-4.5,10.26,10.26,0,0,0-5.85-1.1c-2.8.53-6.42,3-9.13,1.09s-3.64-5.7-5.44-8.59c.81.66,1.58,1.41,2.44,2.25a14.35,14.35,0,0,0,4.85,2.79c1.48.38,3.2-.16,4.68-.5,3.12-.72,6.19.69,9,2,3.27,1.5,6.34,3.41,9.48,5.16,2.35,1.33,5.69,3,7.33,5.2,1,1.29,1.62,2.74,2.57,4a9.42,9.42,0,0,0,4.9,3.2c1.66.56,3,1.43,4.81,1.75a3.57,3.57,0,0,1,.93.27,29.59,29.59,0,0,1,3,4.24c2.52,4.42,4.41,9.15,6.83,13.61.5.92,1,1.89,1.57,2.87,1,3.72,1.74,7.36.79,11.49-.49,2.16-1.15,4.28-1.84,6.38C70.4,474.51,69.12,470.53,69.56,466.09Z"/></g></g></svg>