<svg xmlns="http://www.w3.org/2000/svg" viewBox="0 0 682 682"><defs><style>.cls-1{fill:#ca8607;}.cls-2{fill:#f08424;}</style></defs><g id="Layer_4" data-name="Layer 4"><path class="cls-1" d="M341,474.63a102,102,0,1,0,102,102A102,102,0,0,0,341,474.63Zm0,85.8a23.19,23.19,0,1,1,23.19-23.19A23.19,23.19,0,0,1,341,560.43Z"/><path class="cls-1" d="M333.83,6.24C210.4,9,63.71,90.51,64.86,183.34A88.6,88.6,0,0,0,66,196.47V298.4c21.15,26.88,73.41,85.5,162.31,115.94,31.66,10.85,132.43,40.19,243.48-6.95,77.93-33.09,122.67-87.61,141.44-113.62q1.18-48.63,2.36-97.26a86.81,86.81,0,0,0,1.55-16C617.34,87.32,464.27,3.33,333.83,6.24Zm4.85,301.44c-101.31-.39-223.8-58.41-224.92-125.21S233.43,52.09,336.37,50.29c107.3-1.87,232.28,62.63,231.88,129.86C567.84,247,443.46,308.08,338.68,307.68Z"/><path class="cls-2" d="M339.24,356.92c-1,0-2.08,0-3.12,0-123.2-1.28-272.94-79-274.11-173.53C60.81,87.05,209.7,6.15,333.76,3.39,421,1.42,521,38.46,577,93.41c28.18,27.61,43,57.74,43,87.12h0c-.06,28.84-14.57,58.39-42,85.44C523.57,319.77,425.79,356.92,339.24,356.92ZM340.38,9q-3.25,0-6.49.07C213.13,11.78,66.58,92.7,67.71,183.31,68.84,274.78,215.5,350,336.18,351.2c1,0,2.05,0,3.08,0,85.16,0,181.28-36.47,234.78-89.3,26.28-26,40.2-54.12,40.26-81.4h0c.06-27.81-14.22-56.53-41.28-83.05C519.35,44.88,424.55,9,340.38,9Z"/><path class="cls-2" d="M342.29,523.33h-2.58a7.26,7.26,0,0,1-7.26-7.27V310h17.1v206A7.26,7.26,0,0,1,342.29,523.33Z"/><path class="cls-2" d="M351.21,650.8c8.4,2.5,9.22,4,11.91,4.26,6.36.68,16.91-5.88,16.89-16,0-8.91-8-16.28-17.66-16a1.16,1.16,0,0,1-1.12-.22,1.05,1.05,0,0,1-.32-.68c-.71-9.08-8.87-16.06-18.27-15.87-9.08.18-16.76,7-17.49,15.76a2.06,2.06,0,0,1-.65.68,2.12,2.12,0,0,1-.95.32c-9.26,0-16.89,7.21-16.89,16,0,8.61,9.79,16.65,16.89,16,3.6-.34,4.23-2.71,11.95-4.68a27.46,27.46,0,0,1,9.22-1A30.58,30.58,0,0,1,351.21,650.8Z"/><ellipse class="cls-2" cx="304.92" cy="607.5" rx="10.87" ry="12.51" transform="translate(-340.26 393.54) rotate(-45)"/><ellipse class="cls-2" cx="327.86" cy="588.12" rx="10.87" ry="12.51" transform="translate(-167.84 132.43) rotate(-18.27)"/><ellipse class="cls-2" cx="380.15" cy="608.9" rx="12.51" ry="10.87" transform="translate(-296.04 367.97) rotate(-38.41)"/><ellipse class="cls-2" cx="359.58" cy="587.01" rx="12.51" ry="10.87" transform="translate(-324.21 666.51) rotate(-65.14)"/></g></svg>