<svg id="Layer_1" data-name="Layer 1" xmlns="http://www.w3.org/2000/svg" viewBox="0 0 682 682"><defs><style>.cls-1{fill:#5a5b5c;}.cls-2{fill:#d88878;}.cls-3{fill:#303031;}.cls-4{fill:#050606;}.cls-5{fill:#272829;}.cls-6{fill:#fff;}</style></defs><path class="cls-1" d="M61.67,138.61a49.37,49.37,0,0,0-3.91-5.87c-8.16-10.5-17.4-13.42-29-20.74a117.72,117.72,0,0,1-18-14.09C1.46,112.43.87,124.82,1,130.39c.4,14.82,7.38,27,14.09,38.74a135.85,135.85,0,0,0,7.82,12.13Z"/><path class="cls-2" d="M10.8,97.91a87.3,87.3,0,0,0,29.74,60.26L26.06,174.61a76.6,76.6,0,0,1-12.91-20.35C2.57,129.64,8.25,106.41,10.8,97.91Z"/><path class="cls-1" d="M150.09,138.61a49.37,49.37,0,0,1,3.91-5.87c8.16-10.5,17.4-13.42,29-20.74a117.72,117.72,0,0,0,18-14.09c9.34,14.52,9.93,26.91,9.78,32.48-.4,14.82-7.38,27-14.08,38.74a137.85,137.85,0,0,1-7.83,12.13Z"/><path class="cls-2" d="M201,97.91a87.3,87.3,0,0,1-29.74,60.26l14.48,16.44a76.6,76.6,0,0,0,12.91-20.35C209.19,129.64,203.51,106.41,201,97.91Z"/><path class="cls-1" d="M520.92,267.82,482.06,229c4.24-8.57,10.74-21.49,19-37.05,30.86-58.26,46.78-87.8,70.49-107.55,11.83-9.85,31.86-23.38,63.26-31.63,26.27-1.18,44.52,6.1,46.1,15.36,1,6.16-5.22,13.53-10.85,17.17-9.51,6.16-19.47,3.14-20.79,2.72-34.34,10.47-55.26,27.6-66,38-30.32,29.33-41.6,65.2-51.51,96.7a335.79,335.79,0,0,0-10.85,45.19"/><path class="cls-1" d="M424.27,496,386,585.9l-48-18,18.74-50.21a207.63,207.63,0,0,1-51-99.69,75.14,75.14,0,0,1,68.21-8.25Z"/><path class="cls-3" d="M316.89,594.32c0-16.07,16.14-29.29,35.75-29.29s35.75,13.22,35.75,29.29"/><rect class="cls-1" x="150.36" y="453.63" width="44.86" height="129.27" transform="translate(345.59 1036.54) rotate(-180)"/><path class="cls-3" d="M135.53,600.44c0-16.06,16.14-29.29,35.75-29.29S207,584.38,207,600.44"/><path class="cls-4" d="M197.67,235.91a405.08,405.08,0,0,1,143.08-28.62c59.36-.86,133.19-1.93,170.59,47.33,25.93,34.15,32.18,89.66,22,129.87-3.6,14.23-9.87,29-13.21,56.13a259.58,259.58,0,0,0,0,62.73q6.61,17.05,13.21,34.12l-51.73,84.74L433.2,598,464,540.77c-5.63-7.2-14.58-18.18-26.41-30.82-20.83-22.24-30.38-28-41.82-41.82-9.35-11.27-21.1-29.27-28.62-57.23-4.3-.55-63.55-7.15-96.85,35.22C257,463.12,253,481.4,251.6,492.35v89.14l-27.51,47.33L182.26,601.3,199.87,576V479.14a177.78,177.78,0,0,1-69.33-28.62c-77-53.68-81.08-151.89-81.45-166.19-35.36-35.48-39.65-89-14.31-123.26,34-45.94,110-41.49,144.18-2.2C204.45,188.19,198.91,228.08,197.67,235.91Z"/><path class="cls-3" d="M157.43,629.4c0-16.07,16.14-29.29,35.75-29.29s35.75,13.22,35.75,29.29"/><path class="cls-3" d="M411.68,625.26c0-16.07,16.14-29.29,35.75-29.29s35.75,13.22,35.75,29.29"/><path class="cls-5" d="M105.08,239.18a17.46,17.46,0,0,0,12-9.58,21.84,21.84,0,0,0-24,0,19.06,19.06,0,0,0,12,9.58Z"/><path class="cls-5" d="M105.08,245.59a10.63,10.63,0,0,1,7.27,5.8,13.24,13.24,0,0,1-14.53,0,11.37,11.37,0,0,1,2.74-3.43A11.69,11.69,0,0,1,105.08,245.59Z"/><rect class="cls-5" x="103.13" y="236.67" width="3.91" height="10.49" transform="translate(210.17 483.82) rotate(-180)"/><path class="cls-6" d="M93.14,208.57c.09,9.29-10.21,16.27-19.38,16.22-8.81,0-18.82-6.59-19-15.69s9.9-16.27,19-16.38S93.05,199.39,93.14,208.57Z"/><circle class="cls-5" cx="73.66" cy="209.18" r="13.02"/><circle class="cls-6" cx="67.54" cy="202.43" r="3.91"/><path class="cls-6" d="M155.21,208.57c.08,9.29-10.21,16.27-19.39,16.22-8.8,0-18.82-6.59-19-15.69s9.91-16.27,19-16.38S155.12,199.39,155.21,208.57Z"/><circle class="cls-5" cx="135.73" cy="209.18" r="13.02"/><circle class="cls-6" cx="129.6" cy="202.43" r="3.91"/></svg>