<svg id="Layer_1" data-name="Layer 1" xmlns="http://www.w3.org/2000/svg" viewBox="0 0 682 682"><defs><style>.cls-1{fill:#d28a4f;}.cls-2{fill:#9e5817;}.cls-3{fill:#764019;}.cls-4{fill:#fae3d0;}.cls-5{fill:#12211c;}.cls-6{fill:#fff;}</style></defs><rect class="cls-1" x="457.72" y="367.22" width="52.1" height="205.76"/><path class="cls-2" d="M452.4,584.59a32.29,32.29,0,1,1,64.57,0"/><path class="cls-3" d="M171.62,458.4c-.73-3-2.06-9.91,1.09-16.31,21.65-44,227.38-6.69,230.44,33.7.44,5.81-3.39,10.74-5.44,13-16.74.21-34.15-.11-52.17-1.09A788.14,788.14,0,0,1,171.62,458.4Z"/><path class="cls-1" d="M666.82,143.77a130.77,130.77,0,0,0-20.5-10.92c-12.3-5.21-17-5-24-9.11-11.54-6.76-13.48-15.95-20-24.76-17.88-24-55-25-59.73-25.14-31.93-.83-54.83,19-72.85,34.61-11.82,10.23-16.3,16.78-70.89,93.19-18,25.18-18.69,26.13-21.27,28.83-33.21,34.82-76.45,44.31-94.7,48.08a256.22,256.22,0,0,1-62.65,4.73c-28-1.84-41.49-8.2-61.92-2.55-17.86,4.95-30.37,16.12-37.95,24.43a167.24,167.24,0,0,0-31.62,37.5C58.84,391.17,71.36,428.77,42,477.43a169.31,169.31,0,0,1-35.45,41.4v87.11H54.52V547.25c20.66-7.19,47-20.57,77.48-45.78a263.13,263.13,0,0,0,48.81-53.25,545.59,545.59,0,0,0,92.52,23,545.11,545.11,0,0,0,121.14,5.4v129.3h58.69V483.06a266.55,266.55,0,0,0,69.69-185.23c19.9,4.32,29.18-2.32,31.68-4.35,10.12-8.2,11.1-23.38,12.75-48.81.58-9.09.51-16.58.36-21.49,4.15.07,10.05.11,17.12,0,33.58-.52,41.91-3.75,47.72-7.28a48.54,48.54,0,0,0,11-9.5C662,186.23,665.89,158.27,666.82,143.77Z"/><path class="cls-4" d="M622.28,123.74A190.83,190.83,0,0,0,624,185.87a188.3,188.3,0,0,0,8.49,30c2.41,1.48,11.64,6.78,19.43,3.17,6.32-2.94,8.53-10.29,10.32-18.33,2.7-12.11,5.63-31.13,4.59-57A153.87,153.87,0,0,0,649.61,134,155.91,155.91,0,0,0,622.28,123.74Z"/><rect class="cls-3" x="76.79" y="465.1" width="52.1" height="111.66"/><path class="cls-2" d="M390.45,608.18a32.28,32.28,0,1,1,64.56,0"/><path class="cls-5" d="M660.76,170.42a31.18,31.18,0,0,1-22.39-26,21.55,21.55,0,0,1,4.75-5.5c6.18-5.1,13.45-5.12,16.88-5.13a26.78,26.78,0,0,1,15,3.8,24.76,24.76,0,0,1,7,6.64,30.73,30.73,0,0,1-5.12,14.22A31.24,31.24,0,0,1,660.76,170.42Z"/><path class="cls-1" d="M157,283l-40.1,73.24c-9.78-21-19.28-48.16-21.65-78.65-6.9-88.71,51.61-140.22,71.58-156-12.24,15.53-37.37,53.7-27.37,110.24A185.32,185.32,0,0,0,157,283Z"/><path class="cls-2" d="M73.15,584.59a32.28,32.28,0,1,1,64.56,0"/><path class="cls-3" d="M174.83,457c5.54-4.72,6.13-7.73,5.74-9.56-1.79-8.34-28.08-12.3-51.07-8.22-13.67,2.42-16.69,6-33.08,10.45a163.93,163.93,0,0,1-43,5.68A159.27,159.27,0,0,1,35,488.68,159.92,159.92,0,0,1,6.58,518.83l.17,76.25,47.6-1.79.45-45.87c27.84-9.49,68.12-28.24,101.69-66.38A218.22,218.22,0,0,0,174.83,457Z"/><path class="cls-2" d="M0,608.18a32.28,32.28,0,0,1,64.56,0"/><path class="cls-2" d="M564.81,299.24c-6.43,10.92-13.31,14.23-16.13,15.36-16.17,6.44-34.19-5.24-39.16-8.45-34.58-22.4-38.25-74-39.92-97.52-4.2-59.06,17.23-96.55,29.17-104.42a26.85,26.85,0,0,1,14.59-4.61c8.19.37,14,5.66,16.13,7.68,10,9.36,10.59,21.49,13.82,36.86,3.81,18.14,5.67,14.32,13.82,42.23C570.39,231.78,581.7,270.52,564.81,299.24Z"/><circle class="cls-6" cx="568.73" cy="127.77" r="17.67"/><circle class="cls-5" cx="568.58" cy="128.25" r="14.35"/><circle class="cls-6" cx="561.6" cy="120.81" r="4.31"/></svg>