<svg xmlns="http://www.w3.org/2000/svg" viewBox="0 0 682 682"><defs><style>.cls-1{fill:#d89d56;}.cls-2{fill:#9b6623;}.cls-3{fill:#66431e;}.cls-4{fill:#ce964d;}</style></defs><g id="Layer_9" data-name="Layer 9"><path class="cls-1" d="M661.79,117.41,345.34,26.5,84.68,77.15H83.63s1.05,13.42,0,15.56,21.18,58.69,21.18,58.69h40.11L373.23,432.81,630.7,151.4h31.09Z"/><polygon class="cls-2" points="86.55 344.35 85.51 82.72 399.11 177.72 398.21 483.61 86.55 344.35"/><path class="cls-3" d="M87.4,85.25l309.82,93.86-.88,301.6L88.42,343.13l-1-257.88m-3.77-5.07,1.05,265.39,315.4,140.92.9-310.16L83.63,80.18Z"/><polygon class="cls-2" points="86.55 344.35 85.52 191.5 398.2 281.33 398.2 483.6 86.55 344.35"/><path class="cls-3" d="M87.41,194l308.91,88.75v198L88.42,343.13,87.41,194m-3.78-5,1.05,156.56,315.4,140.92V279.92L83.63,189Z"/><polygon class="cls-4" points="401.95 178.9 659.91 126.42 659.91 204.31 401.95 279.27 401.95 178.9"/><path class="cls-2" d="M658,128.72V202.9l-254.2,73.87V180.43L658,128.72m3.76-4.59L400.08,177.36V281.77l261.71-76.06V124.13Z"/><polygon class="cls-4" points="401.95 382.93 659.91 310.15 659.91 416.92 401.95 483.49 401.95 382.93"/><path class="cls-2" d="M658,312.63V415.46l-254.2,65.61V384.35L658,312.63m3.76-5L400.08,381.51V485.92l261.71-67.55V307.67Z"/><polygon class="cls-4" points="401.95 280.86 659.91 208.08 659.91 306.38 401.95 381.34 401.95 280.86"/><path class="cls-2" d="M658,210.56V305l-254.2,73.87V282.28L658,210.56m3.76-5L400.08,279.44v104.4l261.71-76V205.6Z"/><polygon class="cls-2" points="86.53 344.35 85.55 294.71 398.2 384.53 398.2 483.6 86.53 344.35"/><path class="cls-3" d="M87.48,297.21l308.84,88.73v94.77L88.39,343.12l-.91-45.91m-3.85-5,1.05,53.37,315.4,140.92V383.12L83.63,292.2Z"/><ellipse class="cls-2" cx="419.75" cy="193.22" rx="7.51" ry="13.13"/><ellipse class="cls-2" cx="419.75" cy="457.77" rx="7.51" ry="13.13"/><ellipse class="cls-2" cx="643.02" cy="401.48" rx="7.51" ry="13.13"/><ellipse class="cls-2" cx="643.02" cy="150.06" rx="7.51" ry="13.13"/><path class="cls-1" d="M598.41,286.42,282,195.51,21.3,246.16H20.25s1.05,13.42,0,15.56S41.44,320.4,41.44,320.4h40.1L309.86,601.82,567.32,320.4h31.09Z"/><polygon class="cls-2" points="23.18 513.36 22.14 251.72 335.73 346.73 334.83 652.61 23.18 513.36"/><path class="cls-3" d="M24,254.25l309.83,93.87L333,649.72,25.05,512.14,24,254.25m-3.77-5.06L21.3,514.58,336.7,655.5l.91-310.16L20.25,249.19Z"/><polygon class="cls-2" points="23.17 513.36 22.14 360.51 334.82 450.34 334.82 652.61 23.17 513.36"/><path class="cls-3" d="M24,363,333,451.76v198L25,512.14,24,363m-3.79-5L21.3,514.58,336.7,655.5V448.93L20.25,358Z"/><polygon class="cls-4" points="338.57 347.9 596.53 295.43 596.53 373.31 338.57 448.28 338.57 347.9"/><path class="cls-2" d="M594.66,297.72V371.9L340.45,445.78V349.44l254.21-51.72m3.75-4.59L336.7,346.37V450.78l261.71-76.06V293.13Z"/><polygon class="cls-4" points="338.57 551.94 596.53 479.16 596.53 585.92 338.57 652.5 338.57 551.94"/><path class="cls-2" d="M594.66,481.63V584.47L340.45,650.08V553.36l254.21-71.73m3.75-4.95L336.7,550.52v104.4l261.71-67.54V476.68Z"/><polygon class="cls-4" points="338.57 449.86 596.53 377.08 596.53 475.38 338.57 550.35 338.57 449.86"/><path class="cls-2" d="M594.66,379.56V474L340.45,547.85V451.28l254.21-71.72m3.75-5L336.7,448.44V552.85l261.71-76.06V374.6Z"/><polygon class="cls-2" points="23.16 513.35 22.18 463.71 334.82 553.54 334.82 652.61 23.16 513.35"/><path class="cls-3" d="M24.1,466.22,333,555v94.76L25,512.12l-.91-45.9m-3.85-5,1.05,53.37L336.7,655.5V552.12L20.25,461.21Z"/><ellipse class="cls-2" cx="356.37" cy="362.22" rx="7.51" ry="13.13"/><ellipse class="cls-2" cx="356.37" cy="626.78" rx="7.51" ry="13.13"/><ellipse class="cls-2" cx="579.65" cy="570.49" rx="7.51" ry="13.13"/><ellipse class="cls-2" cx="579.65" cy="319.07" rx="7.51" ry="13.13"/></g></svg>