<svg id="Layer_1" data-name="Layer 1" xmlns="http://www.w3.org/2000/svg" viewBox="0 0 682 682"><defs><style>.cls-1{fill:#565555;}.cls-2{fill:#d38a4f;}.cls-3{fill:#f4a8a4;}.cls-4{fill:#12211c;}.cls-5{fill:#fff;}</style></defs><path class="cls-1" d="M200.85,382.31c-22.69,14.81-36,30.62-44.11,43-9.22,14.07-9.28,19.95-18.25,28.57-15.42,14.82-39.74,21-60.31,17.46-31.1-5.36-56.82-33.48-62.63-70.08C15.23,406,12.79,454.43,52,486.43c34.49,28.16,74.71,21.94,80.77,20.9V640.16h77v-58a24.78,24.78,0,0,0,22.33,7.81v88.19h72.56v-41.3h68.09V548.63A30.54,30.54,0,0,1,392,558.31a30.21,30.21,0,0,1,7.53,17.11v98.23h70.32V521.84a84,84,0,0,0-32.37-68.09Z"/><path class="cls-2" d="M223.65,682c0-26.17,20.08-47.71,44.48-47.71S312.6,655.83,312.6,682"/><path class="cls-2" d="M389.86,682c0-26.17,20.08-47.71,44.48-47.71s44.47,21.54,44.47,47.71"/><path class="cls-2" d="M129.44,640.56c0-26.18,20.07-47.71,44.47-47.71s44.48,21.53,44.48,47.71"/><path class="cls-2" d="M380.56,640.56c0-26.18-20.08-47.71-44.48-47.71a42.85,42.85,0,0,0-31.38,14v34"/><path class="cls-1" d="M353.33,496.87c-35.09-11-114.71-41.4-174.36-119.93C158.29,349.72,61.09,212.81,125.21,99.86,186.69-8.45,343.16-.66,363,.61c23.59,1.52,158.77,10.23,213,115.8,59,114.89-31,241.09-43.42,258.46C471.64,460.25,384,488.5,353.33,496.87Z"/><path class="cls-2" d="M353.33,496.87c-35.09-11-114.71-41.4-174.36-119.93-20.68-27.22-56-76.07-38.38-81.41,161.46-48.85,193.19,89.63,213,90.9C377.2,388,387.53,252.11,544.92,277.89c55.7,9.12,0,79.61-12.37,97C471.64,460.25,384,488.5,353.33,496.87Z"/><path class="cls-3" d="M361.7,509.16H347.54a29,29,0,0,1-29-29V425.68a1,1,0,0,1,1-1,84.8,84.8,0,0,0,69.46,0,1,1,0,0,1,.69.29,1,1,0,0,1,.29.7v55.26A28.21,28.21,0,0,1,361.7,509.16Z"/><path class="cls-4" d="M427.27,8.65C444.48,10.06,562,21.59,626,120.23c41.3,63.64,56.45,157.53,19.76,212.7-7.53,11.33-32.08,48.25-67.42,48.82a54,54,0,0,1-19.75-3.49c-12.8-4.92-38.28-21-52.31-91.82-18.29-92.39,14-121-4.65-181.32C494,80.3,476,44.59,427.27,8.65Z"/><path class="cls-4" d="M274.9,8.65C257.69,10.06,140.17,21.59,76.14,120.23c-41.3,63.64-56.45,157.53-19.76,212.7,7.53,11.33,32.08,48.25,67.41,48.82a54,54,0,0,0,19.76-3.49c12.8-4.92,38.28-21,52.31-91.82,18.29-92.39-14-121,4.65-181.32C208.17,80.3,226.16,44.59,274.9,8.65Z"/><path class="cls-4" d="M352.83,407.13a63.11,63.11,0,0,1-45.31-52.6,43.77,43.77,0,0,1,9.6-11.13c12.52-10.31,27.23-10.35,34.17-10.37,6.38,0,18.26.1,30.33,7.68a50.33,50.33,0,0,1,14.21,13.44,62,62,0,0,1-10.37,28.79A63.16,63.16,0,0,1,352.83,407.13Z"/><circle class="cls-5" cx="266.83" cy="235.96" r="35.03"/><circle class="cls-4" cx="266.52" cy="236.9" r="28.45"/><circle class="cls-5" cx="252.7" cy="222.15" r="8.54"/><circle class="cls-5" cx="432.61" cy="235.96" r="35.03"/><circle class="cls-4" cx="432.41" cy="236.9" r="28.45"/><circle class="cls-5" cx="419.02" cy="222.15" r="8.54"/></svg>