<svg id="Layer_1" data-name="Layer 1" xmlns="http://www.w3.org/2000/svg" viewBox="0 0 682 682"><defs><style>.cls-1{fill:#565555;}.cls-2{fill:#d38a4f;}.cls-3{fill:#12211c;}.cls-4{fill:#fff;}</style></defs><path class="cls-1" d="M664,220c-8.95,31.69-23.51,46.51-35.6,54.16-27.17,17.19-55.91,7.08-86.66,30.95a93.28,93.28,0,0,0-20.12,21.67,434.26,434.26,0,0,1-5.92,51.49c-4.05,23-7.51,42.59-14.43,55.28-21.76,39.95-93.86,40.69-110.56,40.86-147.55,1.52-252.92-119-283.63-90.14-3.13,3-6.59,8.49-6.4,19.89V444.4H65.11V401.06a139.36,139.36,0,0,1,0-92.85c-30.53-7-54.72-30-62.49-59.62-8.64-33,4.51-68.57,33.09-89-2.45,4.77-21,42.57-2.41,83.5,15.77,34.66,47.14,47.21,53.48,49.59a237.65,237.65,0,0,1,46.72-6.65c106.43-4.4,164.63,66.86,231.84,40.7,8.32-3.24,22.33-10.13,37.14-26.31-.21-11.5,0-65.3,40.24-102.14,7.34-6.72,24.17-22.12,49.52-26.31,27.57-4.55,44.86,7.52,86.67,23.22A593,593,0,0,0,664,220Z"/><rect class="cls-1" x="395.55" y="466.96" width="31.02" height="55.12" transform="translate(822.11 989.04) rotate(-180)"/><rect class="cls-1" x="458.99" y="445.1" width="31.02" height="62.17" transform="translate(948.99 952.38) rotate(-180)"/><rect class="cls-1" x="122.93" y="365.72" width="31.02" height="62.17" transform="translate(276.87 793.61) rotate(-180)"/><path class="cls-2" d="M499.67,509.93c0-13.33-10.22-24.29-22.64-24.29s-22.64,11-22.64,24.29"/><path class="cls-2" d="M435.94,522.36c0-13.33-10.22-24.29-22.65-24.29s-22.64,11-22.64,24.29"/><path class="cls-2" d="M161.89,434c0-13.33-10.22-24.29-22.65-24.29s-22.64,11-22.64,24.29"/><path class="cls-2" d="M105.17,446.41c0-13.33-10.22-24.3-22.64-24.3s-22.65,11-22.65,24.3"/><path class="cls-2" d="M664,220a177.18,177.18,0,0,1-31.46,10.85C586.64,242,562.27,228,527,241.62c-8.64,3.33-21.45,9.65-35.25,22.73-4.93,4.08-6.92,8.09-7.8,11.11-4.39,15.17,10.39,36.39,37.74,51.32a81.15,81.15,0,0,1,11.91-15c30.13-29.89,66.91-18.08,97.35-39.21C642.37,264.56,656,249.82,664,220Z"/><path class="cls-3" d="M655.35,252.76A37.15,37.15,0,0,0,682,221.82a25.68,25.68,0,0,0-5.65-6.55c-7.36-6.07-16-6.09-20.1-6.1-3.75,0-10.74.06-17.85,4.52a29.69,29.69,0,0,0-8.35,7.9,36.4,36.4,0,0,0,6.1,16.94A37.14,37.14,0,0,0,655.35,252.76Z"/><path class="cls-3" d="M521.2,173.34A68.4,68.4,0,0,0,505.93,171c-35.7-1.37-67,25.87-82.84,51-16.82,26.67-28.83,70.41-9.93,95.9,3.79,5.1,16.13,21.74,33.89,22a29.9,29.9,0,0,0,9.93-1.57c6.43-2.22,19.24-9.45,26.29-41.39,9-40.54-6.92-54.17,2.34-81.75C489.42,203.85,498.21,188.28,521.2,173.34Z"/><circle class="cls-4" cx="521.8" cy="215.81" r="20.61"/><circle class="cls-3" cx="521.92" cy="216.36" r="16.74"/><circle class="cls-4" cx="529.79" cy="207.69" r="5.02"/></svg>