<svg id="Layer_1" data-name="Layer 1" xmlns="http://www.w3.org/2000/svg" viewBox="0 0 682 682"><defs><style>.cls-1{fill:#eebf90;}.cls-2{fill:#e9b387;}.cls-3{fill:#d1a080;}.cls-4{fill:#fff;}.cls-5{fill:#12211c;}.cls-6{fill:#f4a8a4;}</style></defs><path class="cls-1" d="M656.33,223.12c-62,82.31-92.57,103.87-108.79,105-2.32.15-11.74.39-15.84,6.13-5.54,7.76,1.65,21.35,8.83,31.87l14.33,4.22a300.87,300.87,0,0,0,58.29-59.93A282.89,282.89,0,0,0,656.33,223.12Z"/><path class="cls-2" d="M205,50a106.59,106.59,0,0,1,6.75,14.27c3.26,8.43,8.14,21.08,6.87,34.43-1.84,19.4-15.93,32.51-21.33,37.05L164,121.24l-21-18.45c0-6.57.93-22.47,12.28-34.09,8.53-8.74,19.79-11.84,32.29-15.29A117.5,117.5,0,0,1,205,50Z"/><rect class="cls-2" x="244.46" y="482.32" width="40.4" height="130.94"/><rect class="cls-2" x="586.59" y="508.87" width="40.4" height="104.39"/><path class="cls-1" d="M13.5,199.64c1.12,8.21,4.08,21.49,13.59,33.13,23.13,28.32,61.45,18,81.92,45.45,2.85,3.82,4.66,7.44,10.75,37.87,16.93,84.52,14.46,114,37.24,146.44a127.92,127.92,0,0,0,24.22,25.8q6.45,33.74,12.91,67.48v73.11h38.7V563.31A111.09,111.09,0,0,1,256.29,529a109,109,0,0,1,31.83-21.94c54.95-8.24,98.22-17.55,127.05-24.35,58.71-13.87,99.65-27.3,125.77-5.05a54.48,54.48,0,0,1,14.43,20,293.87,293.87,0,0,0,78.33,79.67v51.55h30.41v-75c-21.72-19.62-32.73-38.78-38.77-52.7-18.56-42.76-7.47-75.7-33.1-120.35a155.49,155.49,0,0,0-18.44-25.66,232.15,232.15,0,0,0-49.41-26.52c-108.67-42.16-196.23,16.12-249.06-33.66-17.71-16.68-25.25-39.68-27.62-46.9-14.85-45.29,7.58-66.72-7.56-99.88-13.25-29-45.55-45.78-72.88-49.86-32.53-4.85-64,7.41-83.33,25.18-14.65,13.49-15.57,24-39.21,48.44A263.82,263.82,0,0,1,13.5,199.64Z"/><path class="cls-3" d="M578.13,617.81a25.86,25.86,0,0,1,51.72,0"/><path class="cls-3" d="M238.62,617.81a25.87,25.87,0,0,1,51.73,0"/><path class="cls-3" d="M181.82,632a29.49,29.49,0,0,1,59,0"/><path class="cls-3" d="M619.92,632a29.49,29.49,0,0,1,59,0"/><path class="cls-4" d="M12.77,203.61A131.47,131.47,0,0,0,35.68,213c33.64,10.21,52.34.9,78,12.48a79.09,79.09,0,0,1,25.22,18.37,16.69,16.69,0,0,1,5.32,8.59C146.83,263.89,135,279,114,289a60.07,60.07,0,0,0-8.21-11.68C84.69,253.79,56.86,261,35.15,244,27,237.63,17.5,226.11,12.77,203.61Z"/><path class="cls-5" d="M21.82,225A26.06,26.06,0,0,1,3.1,203.24a18.1,18.1,0,0,1,4-4.6c5.17-4.26,11.24-4.28,14.11-4.29a22.46,22.46,0,0,1,12.53,3.18,20.71,20.71,0,0,1,5.87,5.55A25.64,25.64,0,0,1,35.3,215,26.11,26.11,0,0,1,21.82,225Z"/><path class="cls-1" d="M243,67.43a106.31,106.31,0,0,1,3.88,15.3c1.58,8.91,3.93,22.26.12,35.11-5.54,18.68-21.89,28.84-28.06,32.26L189,129.45l-17.06-22.14c1.25-6.46,5.24-21.87,18.61-31.1,10.06-6.93,21.7-7.81,34.64-8.78A117.82,117.82,0,0,1,243,67.43Z"/><path class="cls-6" d="M234.09,81.32A74.31,74.31,0,0,1,236.79,92c1.1,6.19,2.74,15.48.08,24.43-3.85,13-15.23,20.07-19.53,22.45l-20.79-14.37q-5.94-7.71-11.87-15.41c.87-4.49,3.64-15.22,12.95-21.64,7-4.82,15.1-5.43,24.1-6.11A82.32,82.32,0,0,1,234.09,81.32Z"/><circle class="cls-4" cx="102.56" cy="171.48" r="15.73"/><circle class="cls-5" cx="102.43" cy="171.91" r="12.78"/><circle class="cls-4" cx="96.22" cy="165.28" r="3.83"/></svg>