<svg id="Layer_3" data-name="Layer 3" xmlns="http://www.w3.org/2000/svg" viewBox="0 0 682 1201"><defs><style>.cls-1{fill:#8a8620;}.cls-2{fill:#66412a;}.cls-3{fill:#a6a126;}</style></defs><polygon class="cls-1" points="195.56 673.25 209.93 598.11 256.8 592.23 313.24 553.8 368.85 509.66 415.43 446.36 484 427 571.84 437.63 645.29 413.74 669.4 375.11 642.34 459.81 625.43 512.97 573.18 555.24 515.06 630.01 515.43 681.27 493.13 733.28 441.81 747.05 419.92 740.33 412.3 738.26 401.23 735.94 386.66 745.94 355.71 763.84 323.2 774.07 297.53 755.28 242.11 795.73 208.06 849.54 53.12 780.26 52.03 766.53 23.86 721.91 22.88 713.52 98.28 746.81 195.56 673.25"/><polygon class="cls-2" points="135.79 652.15 159.15 690.04 189.93 721.71 207.4 735.55 206.96 729.5 205.1 696.89 202.86 664.25 202.87 533.01 215.33 533.47 217.8 663.28 220.65 695.74 223.13 728.28 235.42 789.5 238.55 796.32 242.18 802.8 246.32 808.96 251.1 815.28 271.4 841.19 288.81 870.91 303.11 899.31 307.1 905.96 311.45 912.76 320.09 927.66 328.69 946.78 338.18 917.9 361.74 868.55 378.55 820.46 380.11 808.11 380.7 795.28 381.31 768.14 384.44 692.33 373.5 661.03 362.27 644.95 355.36 637.85 347.62 631.08 331.88 616.03 318.56 598.38 309.12 578.28 303.92 556.96 301.13 514.2 299.94 472.14 297.56 388.02 305.04 387.7 308.92 471.92 310.86 514.04 314.26 555.2 319.35 574.66 328.1 592.45 340.4 608.15 355.33 621.91 363.57 628.87 371.48 636.71 384.63 654.84 386.44 658.24 394.83 551.66 413.94 444.16 438.19 339.06 452.89 341.86 413.84 541.37 426.08 525.76 455.77 485.97 477.87 441.53 484.48 417.85 485.61 393.73 493.03 392.76 492.6 419.17 486.35 444.47 464.76 491.37 435.09 533.66 421.3 553.44 411.35 571.52 402.27 768.57 402.05 795.49 401.58 809.66 399.95 824.14 382.08 878.08 359.71 926.58 348.39 975.27 350 1191.54 323.08 1189.96 323.19 1020.7 312.85 965.65 301.74 937.01 294.26 923.53 289.94 916.5 285.68 909.06 271.18 878.89 256.17 852.08 236.68 826.23 231.75 819.42 226.93 811.95 222.74 804.1 219.21 796.02 210.25 761.25 209.42 761.47 199.37 745.42 182.31 730.96 150.74 696.31 127.62 655.87 114.56 611.13 121.95 609.99 135.79 652.15 135.79 652.15"/><polygon class="cls-3" points="502.15 204.43 445.17 234.19 359.12 258.65 330.1 288.91 200.47 290.59 189.58 228.64 207.37 189.42 224.64 135.94 293.75 50.15 368.94 12.37 416.93 16.71 443.2 9.46 538.5 36.89 568.19 122.16 571.76 127.08 561.75 165.87 502.15 204.43"/><polygon class="cls-1" points="502.25 267.67 440.26 265.44 407.13 280.61 337.69 338.77 283.27 358.58 210.37 337.81 202.75 303.53 200.47 290.59 330.1 288.91 359.12 258.65 445.17 234.19 502.15 204.43 561.75 165.87 571.76 127.08 613.61 184.74 619.09 196.1 590.17 232.64 502.25 267.67"/><polygon class="cls-3" points="13.15 652.49 22.62 580.36 9.5 540.05 20.46 488.39 94.66 421.25 190.22 402.38 224.82 371.55 212.43 347.05 210.37 337.81 283.27 358.58 337.69 338.77 407.13 280.61 440.26 265.44 502.25 267.67 590.17 232.64 619.09 196.1 648.44 256.87 672.5 365.42 669.4 375.11 645.29 413.74 571.84 437.63 484 427 415.43 446.36 368.85 509.66 313.24 553.8 256.8 592.23 209.93 598.11 195.56 673.25 98.28 746.81 22.88 713.52 19.48 684.32 13.15 652.49"/></svg>