<svg id="Layer_1" data-name="Layer 1" xmlns="http://www.w3.org/2000/svg" viewBox="0 0 682 682"><defs><style>.cls-1{fill:#7f7e7d;}.cls-2{fill:#d79897;}.cls-3{fill:#5e5f5f;}.cls-4{fill:#c1c1c1;}.cls-5{fill:#fff;}</style></defs><path class="cls-1" d="M620.33,138.72a49.37,49.37,0,0,1,3.91-5.87c8.16-10.51,17.4-13.42,29-20.74A117.72,117.72,0,0,0,671.2,98c9.34,14.52,9.93,26.91,9.78,32.48-.4,14.82-7.38,27-14.09,38.74a135.85,135.85,0,0,1-7.82,12.13Z"/><path class="cls-2" d="M671.2,98a87.3,87.3,0,0,1-29.74,60.26l14.48,16.44a76.6,76.6,0,0,0,12.91-20.35C679.43,129.75,673.75,106.52,671.2,98Z"/><path class="cls-1" d="M531.91,138.72a49.37,49.37,0,0,0-3.91-5.87c-8.16-10.51-17.4-13.42-29-20.74A117.72,117.72,0,0,1,481,98c-9.34,14.52-9.93,26.91-9.78,32.48.4,14.82,7.38,27,14.08,38.74a137.85,137.85,0,0,0,7.83,12.13Z"/><path class="cls-2" d="M481,98a87.3,87.3,0,0,0,29.74,60.26L496.3,174.72a76.6,76.6,0,0,1-12.91-20.35C472.81,129.75,478.49,106.52,481,98Z"/><path class="cls-1" d="M161.08,267.93l38.86-38.86c-4.24-8.57-10.74-21.5-19-37-30.86-58.27-46.78-87.8-70.49-107.55C98.64,74.62,78.61,61.09,47.21,52.84,20.94,51.65,2.69,58.93,1.11,68.2.07,74.36,6.33,81.73,12,85.37c9.51,6.16,19.47,3.14,20.79,2.71,34.34,10.48,55.26,27.61,66,38,30.32,29.33,41.6,65.2,51.51,96.7a335.79,335.79,0,0,1,10.85,45.19"/><path class="cls-1" d="M257.73,496.07,296,586l48-18L325.19,517.8a207.55,207.55,0,0,0,51-99.68A75.14,75.14,0,0,0,308,409.87Z"/><path class="cls-3" d="M365.11,594.43c0-16.07-16.14-29.29-35.75-29.29s-35.75,13.22-35.75,29.29"/><rect class="cls-1" x="486.77" y="453.74" width="44.86" height="129.27"/><path class="cls-3" d="M546.47,600.55c0-16.06-16.14-29.29-35.75-29.29S475,584.49,475,600.55"/><path class="cls-4" d="M484.33,236A405.08,405.08,0,0,0,341.25,207.4c-59.36-.86-133.19-1.93-170.59,47.33-25.93,34.15-32.18,89.66-22,129.87,3.6,14.23,9.87,29,13.21,56.13a259.58,259.58,0,0,1,0,62.73q-6.62,17.06-13.21,34.12l51.73,84.74,48.42-24.21L218,540.88c5.63-7.2,14.58-18.18,26.41-30.82,20.83-22.24,30.38-28,41.82-41.82C295.57,457,307.32,439,314.84,411c4.3-.55,63.55-7.16,96.85,35.22,13.36,17,17.36,35.28,18.71,46.22V581.6l27.51,47.33,41.83-27.52L482.13,576.1V479.25a177.93,177.93,0,0,0,69.33-28.62c77-53.68,81.08-151.89,81.45-166.19,35.36-35.48,39.65-89.05,14.31-123.26-34-45.94-110-41.49-144.18-2.2C477.55,188.3,483.09,228.19,484.33,236Z"/><path class="cls-1" d="M576.92,243.81a17.5,17.5,0,0,1-12-9.59,21.9,21.9,0,0,1,24,0,19.08,19.08,0,0,1-4.53,5.67A19.31,19.31,0,0,1,576.92,243.81Z"/><path class="cls-1" d="M576.92,250.21a10.63,10.63,0,0,0-7.27,5.8,13.24,13.24,0,0,0,14.53,0,11.5,11.5,0,0,0-2.74-3.43A11.69,11.69,0,0,0,576.92,250.21Z"/><rect class="cls-1" x="574.96" y="241.29" width="3.91" height="10.49"/><path class="cls-5" d="M588.86,208.68c-.09,9.29,10.21,16.27,19.38,16.21,8.81,0,18.82-6.59,19-15.68.18-9.24-9.9-16.27-19-16.38S589,199.5,588.86,208.68Z"/><circle class="cls-1" cx="608.34" cy="209.29" r="13.02"/><circle class="cls-5" cx="614.46" cy="202.54" r="3.91"/><path class="cls-5" d="M526.79,208.68C526.71,218,537,225,546.18,224.89c8.8,0,18.82-6.59,19-15.68.17-9.24-9.91-16.27-19-16.38S526.88,199.5,526.79,208.68Z"/><circle class="cls-1" cx="546.27" cy="209.29" r="13.02"/><circle class="cls-5" cx="552.4" cy="202.54" r="3.91"/><path class="cls-3" d="M519.77,629.29c0-18.9-16.13-34.44-35.75-34.44s-35.75,15.54-35.75,34.44"/><path class="cls-3" d="M265.52,624.42c0-18.9-16.13-34.44-35.75-34.44S194,605.52,194,624.42"/></svg>