<svg id="Layer_1" data-name="Layer 1" xmlns="http://www.w3.org/2000/svg" viewBox="0 0 682 682"><defs><style>.cls-1{fill:#9a591b;}.cls-2,.cls-4{fill:#562d0f;}.cls-2{opacity:0.85;}.cls-3{fill:#aa672f;}.cls-5{fill:#764116;}.cls-6{fill:#fff;}</style></defs><path class="cls-1" d="M564.8,381.33l29.59-64.12c-4.47,1.46-13.91,3.73-23.48-.24-14.88-6.18-24.16-25-21.13-46.26a24,24,0,0,1,20,13.31,82.15,82.15,0,0,1,10.72-28.12c6.08-9.89,16.8-22.46,21.66-20.31,3.51,1.55.87,9.35,6.36,20.71a43.09,43.09,0,0,0,6.73,10,60,60,0,0,0,45.89,15.26,28.39,28.39,0,0,1-11.28,12.35,27.57,27.57,0,0,1-10.21,3.45q11.8,10.57,23.68,21.35,9.42,8.55,18.7,17.08a39.3,39.3,0,0,1-36.83-4.05A88.41,88.41,0,0,1,659.5,352.9a87,87,0,0,1,4.9,12.64q-8.05-1.29-16.24-2.7-6.54-1.12-13-2.29c2.48.84,15.95,5.65,22.44,19.88a37.24,37.24,0,0,1,2.71,21.66Q653,400.16,645.45,398q-9.21-2.59-18-5.31A28.7,28.7,0,0,1,631,403a29.33,29.33,0,0,1-2.45,16.37q7.43-2.52,7.45-5.06,0-4.62-24.09-9.36l-16.75,23.9"/><path class="cls-2" d="M195.74,359C202,399.81,215,426.22,215,426.22c18.44,37.51,26.45,75.63,32,101.28,6.39,29.72,11.81,56.06,4.15,75.38-6.73,17-20.17,20-26.23,20.62a11.56,11.56,0,0,0-2.13,7.63c.16,3.39,1.56,6.28,3.51,7.23l69.94.69-15.4-244.8c-36.53-27.38-80-56.53-84.95-42.06C195.06,354.37,195.41,356.9,195.74,359Z"/><path class="cls-2" d="M409.8,392.81c-1,6.87,6.69,13,26.82,42.68,24.25,35.81,37.58,55.89,45.48,87.42,3.32,13.23,13.4,53.43,1.77,79.91-7.64,17.4-20.87,20.26-26,20.89a11.46,11.46,0,0,0-2.06,7.64c.2,3.39,1.62,6.27,3.58,7.19h70c.38-32.11-.25-68.18-2.67-107.39-3.23-52.34-8.92-98.45-15.15-137.24C430.56,376.29,411.26,382.75,409.8,392.81Z"/><path class="cls-3" d="M212.18,641.2c0-19.9,20-36.27,44.26-36.27s44.27,16.37,44.27,36.27"/><path class="cls-4" d="M199.34,362.69c-2,20.74,16.86,27.65,43.52,95.15,27.69,70.1,38.72,142.21,28,157.25-4.58,6.47-14.16,3.76-15.65,12.47-.75,4.38.94,9.26,2.75,13h76.42C322.3,509.68,376.2,468.3,425.09,484.18c56.67,18.41,78.46-7.35,100.1,24.17,10.16,14.81,22,44.81,21.69,113.29-1.2.91-14.54,11.06-13.74,16.27.71,4.58,12,3,14,2.69h54.32l8.93-173C524.36,360.8,446.6,327,398,314.8,307.66,292.18,204,315.5,199.34,362.69Z"/><path class="cls-4" d="M132.49,77.13c52.51,78.49,59.4,135.08,55.23,173-1.57,14.31-6.3,40.38-2.12,77,3.42,29.91,7.31,60.3,31.06,85.33,3.52,3.71,27.29,28.08,62.58,31.09,9.84.84,12.35-1.21,29.92-3.47,0,0,30.23-3.9,71.92-1.56,11.65.66,36.28,5.83,85.07,16.14,59.54,12.58,86,18.18,123.52,16.3,9-.45,16.31-1.21,21.23-1.8A263.24,263.24,0,0,0,588,401.68c-3.12-6.22-16.61-33.19-34.62-52.38C497,289.24,417.91,328.36,369.79,270.53c-15-18.06-21.37-38.75-26.33-54.93-13.24-43.19-4.21-66.06-23.84-107.31-5-10.57-10.16-21.36-20.95-32.88C261.32,35.53,206.4,40.5,198,44.41c-.63.3-4.25,2-8.82,4.4C177.28,55,169.46,60.17,165.61,62.56A137.3,137.3,0,0,1,132.49,77.13Z"/><path class="cls-4" d="M166,200.67l-28.79,35.15C95.44,185.41,87.5,131.69,103.49,105.07c14.15-23.53,31.64-33.2,31.64-33.2,8.19-4.52,13.05-5.1,26.81-13.12,7.11-4.16,12.3-7.79,21.53-11.58A111.26,111.26,0,0,1,199,42.09c-4.27,26.36-6.2,47.72-7.18,62.21-2,29.88-1.17,48.12-11.87,72.19A134.08,134.08,0,0,1,166,200.67Z"/><path class="cls-5" d="M191.25,241.9c67.09-.25,92.34,2.62,100.37,6,.72.3,7.15,3.08,16.14,6.4,0,0,7.47,2.75,14.19,4.89,17.94,5.71,41.67,9.4,46.57,10.15a115.13,115.13,0,0,1-10-15.27,132.15,132.15,0,0,1-9.06-21,189.71,189.71,0,0,1-5.73-19.56c-4.83-20.86-4.67-40.67-4.76-46.35-.86-55.69-46.19-102.54-61.1-112.09A74.94,74.94,0,0,0,261.14,47c-2.61-.79-1.53-.26-19.57-3.82-3.84-.75-8.6-1.7-14.79-3.34-3.12-.82-5.36-1.48-5.58-1.55-10.19-2.94-88.15,18.91-93.13,63.92-3.5,31.71,32.77,42.76,55.89,113A263.09,263.09,0,0,1,191.25,241.9Z"/><path class="cls-1" d="M127.16,102.43a150.17,150.17,0,0,1-17.56,13.5C93.92,126.23,84,128.46,68.8,135.3c-25.54,11.52-40,18-43.86,30.08C18.16,186.5,46.21,216.17,70.38,231c19.41,11.93,23.19,6.24,59.08,20.53,42.1,16.76,57.59,33,69.23,25.59,5.4-3.46,10.75-12,9-34.62-15.93-34.46-23.8-48.81-28.05-55.41-.54-.83-4.1-6.37-9-14.13-3-4.72-6.92-10.92-8-12.8-11.31-19,.2-40-10.23-51.55C148.92,104.84,142.12,101,127.16,102.43Z"/><path class="cls-4" d="M310,212.49l28.78,35.16c41.75-50.41,49.69-104.14,33.69-130.75-14.14-23.53-31.63-33.2-31.64-33.2-8.18-4.52-13-5.1-26.8-13.13-7.12-4.15-12.3-7.78-21.53-11.58A111,111,0,0,0,277,53.92c4.27,26.35,6.21,47.72,7.19,62.21,2,29.88,1.17,48.12,11.86,72.19A133.51,133.51,0,0,0,310,212.49Z"/><circle class="cls-6" cx="220.65" cy="107.23" r="23.15"/><circle class="cls-4" cx="220.52" cy="107.85" r="18.8"/><circle class="cls-6" cx="211.67" cy="98.11" r="5.64"/><path class="cls-1" d="M246.05,644c0-19.9,20-36.27,44.26-36.27S334.57,624.1,334.57,644"/><path class="cls-3" d="M448.8,639.74c0-19.89,20-36.26,44.27-36.26s44.26,16.37,44.26,36.26"/><path class="cls-1" d="M530.06,644c0-19.9,20-36.27,44.26-36.27S618.58,624.1,618.58,644"/><path class="cls-5" d="M42.37,209A59.06,59.06,0,0,1,0,159.84a40.93,40.93,0,0,1,9-10.41c11.71-9.64,25.46-9.68,32-9.7,6,0,17.07.1,28.37,7.18a47.3,47.3,0,0,1,13.28,12.57,58,58,0,0,1-9.69,26.93A59.16,59.16,0,0,1,42.37,209Z"/></svg>