<svg xmlns="http://www.w3.org/2000/svg" xmlns:xlink="http://www.w3.org/1999/xlink" viewBox="0 0 682 682"><defs><style>.cls-1{isolation:isolate;}.cls-2{fill:url(#linear-gradient);}.cls-3{fill:#d95829;}.cls-11,.cls-4{opacity:0.5;}.cls-13,.cls-17,.cls-18,.cls-4,.cls-6{mix-blend-mode:multiply;}.cls-5{fill:#999;}.cls-12,.cls-6{opacity:0.4;}.cls-12,.cls-7{fill:#666;}.cls-8{fill:url(#linear-gradient-2);}.cls-9{fill:#a63126;}.cls-10,.cls-14{fill:#fff;mix-blend-mode:screen;}.cls-10{opacity:0.7;}.cls-13,.cls-14{opacity:0.8;}.cls-15,.cls-18{fill:#f2af5e;}.cls-16,.cls-17{fill:#f29727;}.cls-17,.cls-18{opacity:0.3;}.cls-19{fill:#a2d659;}.cls-20{fill:#04bf33;}.cls-21{fill:#37a647;}</style><linearGradient id="linear-gradient" x1="205.78" y1="519.3" x2="527.3" y2="519.3" gradientUnits="userSpaceOnUse"><stop offset="0" stop-color="#e07240"/><stop offset="0.48" stop-color="#b95842"/><stop offset="1" stop-color="#902f18"/></linearGradient><linearGradient id="linear-gradient-2" x1="341.2" y1="445.17" x2="341.2" y2="324.92" gradientUnits="userSpaceOnUse"><stop offset="0" stop-color="#cfd0d1"/><stop offset="0.03" stop-color="#bebfc0"/><stop offset="0.09" stop-color="#9a9b9c"/><stop offset="0.15" stop-color="#7c7d7e"/><stop offset="0.22" stop-color="#656667"/><stop offset="0.3" stop-color="#555657"/><stop offset="0.38" stop-color="#4b4c4d"/><stop offset="0.49" stop-color="#48494a"/><stop offset="0.63" stop-color="#454647"/><stop offset="0.74" stop-color="#3c3c3d"/><stop offset="0.84" stop-color="#2c2c2d"/><stop offset="0.93" stop-color="#151616"/><stop offset="1"/><stop offset="1" stop-color="#343335"/></linearGradient></defs><g class="cls-1"><g id="Layer_3" data-name="Layer 3"><path class="cls-2" d="M512.39,374.23l-347-.28,39.1,273.68c0,9.68,61.18,17.54,136.64,17.54s136.64-7.86,136.64-17.54L517,373.42Z"/><path class="cls-3" d="M512.39,374.23l-347-.28,39.1,273.68c0,9.68,61.18,17.54,136.64,17.54s136.64-7.86,136.64-17.54L517,373.42Z"/><g class="cls-4"><path class="cls-3" d="M190.66,374l35.67,282.94,2.06.41L192.63,374Z"/><path class="cls-3" d="M215.78,374l30.33,286.1,2,.25L217.73,374Z"/><path class="cls-3" d="M240.9,374l24.57,288.12,2,.16L242.84,374Z"/><path class="cls-3" d="M266,374l18.59,289.49c.64.05,1.29.08,1.94.12L267.94,374Z"/><path class="cls-3" d="M291.12,374.05l12.47,290.4,1.93.08L293.05,374.05Z"/><path class="cls-3" d="M316.23,374.08,322.48,665l1.92,0-6.25-290.94Z"/><path class="cls-3" d="M341.34,374.09V665.17h1.92V374.09Z"/><path class="cls-3" d="M366.43,374.11,360.19,665l1.92,0,6.26-290.87Z"/><path class="cls-3" d="M391.54,374.13l-12.45,290.4,1.92-.08,12.46-290.32Z"/><path class="cls-3" d="M416.63,374.16,398.05,663.65c.64,0,1.29-.09,1.94-.12l18.58-289.37Z"/><path class="cls-3" d="M441.74,374.17,417.16,662.3l2-.17,24.55-287.95Z"/><path class="cls-3" d="M466.82,374.19,436.48,660.33c.67-.07,1.34-.16,2-.25l30.29-285.89Z"/><path class="cls-3" d="M491.91,374.22,456.2,657.31l2.07-.41,35.61-282.68Z"/></g><path class="cls-5" d="M513.9,374.23l-350-.26L170,396.76c20.14,9.72,89.12,16.88,171.13,16.88S492,406.5,512.22,396.79l6.29-23.37Z"/><path class="cls-5" d="M340.89,613.41c-84.92,0-133.48-6.65-148.89-12.3l-1.39.6,4.91,16.46a276.52,276.52,0,0,0,30,5.27c30.87,4,71.83,6.15,115.35,6.15s84.49-2.19,115.36-6.15A270.2,270.2,0,0,0,486.84,618l4.92-16.54-1.4-.59C475.66,606.57,426.92,613.41,340.89,613.41Z"/><path class="cls-5" d="M199.24,633.72l4.09,15.19c0,9.77,61.71,17.69,137.84,17.69S479,658.68,479,648.91l4.08-15.18c-14,8.42-72.19,14.73-141.92,14.73S213.18,642.14,199.24,633.72Z"/><g class="cls-6"><path class="cls-7" d="M194.35,389.71l.12.28c-.19-.28.18-1.05-.08-.93A1,1,0,0,0,194.35,389.71Z"/><path class="cls-7" d="M314.23,407.21c.18-.11,0-.66-.16-.75l-1,.54C313.44,407.72,313.84,406.29,314.23,407.21Z"/><polygon class="cls-7" points="314.32 405.6 314.2 404.75 314.14 405.32 314.32 405.6"/><path class="cls-7" d="M315,405.09c-.11.85.22-1,.45.15,0-1.13.65.25.22-.76l-.26-.08a.7.7,0,0,1,0,.38C315.23,404.59,315,404.52,315,405.09Z"/><path class="cls-7" d="M314.86,406.51l.46.53-.42-1A.58.58,0,0,1,314.86,406.51Z"/><path class="cls-7" d="M194.44,397.46l-.08.19c.27-.11.68.34.64-.51-.08-.19-.2-.27-.16-.56C194.73,396.87,194.31,396.8,194.44,397.46Z"/><path class="cls-7" d="M195.22,397.31c.66,1.19.91-.43,1.45.47.11-.09,0-.28,0-.47.64-.7,1.14,1.06,1.63.19.07-.38-.09-1.13.25-.87-.3-.36-.3-.74-.68-.33.15,0,.15.37,0,.56,0-1.23-.68.42-1-.6,0,.09,0,.19.05.28-.19.1-.24-.37-.35-.45.11.08.09.37.13.65l-.46.22c0,.38.27.08.23.55-.31-.54-.83-.7-1.06-.31l-.2-.84C195.6,396.54,195.3,396.93,195.22,397.31Z"/><path class="cls-7" d="M320.77,403.4c.12.65-.4.31-.67.43C320.33,403.62,320.86,404.16,320.77,403.4Z"/><path class="cls-7" d="M198.77,396.9c.61.16.68-.8,1.22.11-.12-1-.76-.52-1.07-.87l.19.45Z"/><path class="cls-7" d="M213.64,399.07l-.38-.17C213.41,398.71,213.5,399.46,213.64,399.07Z"/><path class="cls-7" d="M321.39,404.12c.06-.57-.16-.37-.27-.45C321.19,403.84,321.28,404.22,321.39,404.12Z"/><path class="cls-7" d="M214.06,399.14c.75-.05,1.8,2.25,2.38.32l-.53-.53-.14.76c0-1.41-.79.34-.77-.9l.19-.29c-.39-1.1-.82,1-1.1-.21C214.09,398.67,214,398.77,214.06,399.14Z"/><path class="cls-7" d="M214.53,400.24c-.27-.26-.32-.73-.5-.24C214.11,400.56,214.45,400.43,214.53,400.24Z"/><path class="cls-7" d="M322.71,403.75c.18-.11.41.26.56.63l-.29.21c.34.07.95,1.16,1.37,1.8l.3-.4c.05.47.28,1-.06,1.14.48-.88,1,.89,1.12-1,.19-.1.32.18.46.35s-.07.39-.14.58c.34-.11.49-.69.94-.53a19.92,19.92,0,0,1-2.07-2.33c0,.38.38,0,.38.55-.53.41-.49-.26-.91-.51.16.37-.1.66.05,1l-.65-.81a5.06,5.06,0,0,0,.25-1.62c-.15.39-.22,1.34-.48.69.06-1.13-.15.38-.32-.73C323.08,403.73,322.62,402.44,322.71,403.75Z"/><path class="cls-7" d="M217.56,397.13a3.74,3.74,0,0,1-.17-1.31C217.43,396.1,217,397.35,217.56,397.13Z"/><path class="cls-7" d="M217.72,395.13l.17.75Z"/><path class="cls-7" d="M214.76,405.23l.31.55Z"/><path class="cls-7" d="M215.85,404.12c.84.9,1,.61,1.49,1.71.3-.21-.09-.93.1-1.43.67-.79,1.44-.28,2.11-.31l-.07-.2c.88,1,1.34-1.58,2.14-1.16-.19-.27-.6.23-.79,0-.09-.75.29-.59.18-1.25a.74.74,0,0,1-.93-.5c0,1-.36.21-.59.6l.12.66c-.32-1.5-.71.7-.84-.52a.87.87,0,0,1-.06.57l-.2-.45.08.55c-.19-.27-.42-.25-.54-.73l0,.1c0,.38-.37.22-.42-.06.12.47.35.44.44,1.19-.28-.46-.72,0-1-.22l.31.93c0,.47-.15.2-.26.3l-.28-1.78c.05.47-.22.77-.34.31.2.46.65.43.35,1.21s-.57-.07-.83-.14C216.11,403.64,215.92,403.93,215.85,404.12Z"/><path class="cls-7" d="M218.4,399c-.18.86.23,0,.35.46.37-.78.87-.35,1.28-.84-.2-1.22-.75.62-.58-.82l-.82.25,0,.84Z"/><path class="cls-7" d="M325.89,403.75c.08.55-.46,0-.23.58a1.07,1.07,0,0,1,.5.63c.34-.68-.39-1.31.1-1.43l-.27-.46A.88.88,0,0,0,325.89,403.75Z"/><polygon class="cls-7" points="216.13 405.71 215.91 405.73 216.17 405.99 216.13 405.71"/><path class="cls-7" d="M327.65,403.16c.26-.87.8.24.94-.91-.61,0-.34.69-.91.25v-.94l-.44.59C327.6,402.13,327.23,403.09,327.65,403.16Z"/><path class="cls-7" d="M222,397.89c-.1.1-.26-.07-.29.22.33-.31.53,0,.87,0,0-.75-.38,0-.5-.44l.3-.38-.08-.76c-.08,0,.12,1.21-.19.86-.11-.27-.07-1.12-.3-.73Z"/><polygon class="cls-7" points="327.95 406.64 327.72 406.08 327.61 406.37 327.95 406.64"/><path class="cls-7" d="M223.12,397.07c0,.09.15,0,.19.26-.23.21-.14,1-.52.61l.19.83c-.12-1,.26-.3.34-.3l-.08-.18a3.63,3.63,0,0,0,.7-1.47c-.15-.37.33-1.24-.09-1.31v.37l-.26-.45C223.68,396.56,223.07,396.59,223.12,397.07Z"/><path class="cls-7" d="M330.49,403.45l.08-.18-.39-.36C330.15,403.58,330.42,403.27,330.49,403.45Z"/><path class="cls-7" d="M222.08,403.46c.38-.4.18-1.63.75-1.36l0-.1c.75-.62,1.1,1.15,1.69-.2-.8-.8-1.62-.37-2.41,0C222.37,402.49,221.62,402.73,222.08,403.46Z"/><path class="cls-7" d="M226.63,393.26c0-.47-.3-.17-.49-.26C226.29,393.56,226.55,393.45,226.63,393.26Z"/><path class="cls-7" d="M239.59,402.75h-.07c-.19.1.12.45.16.73.82-.61,1.84-.58,2.68-1l.06-.57c0,.29.23.36.31.55a2,2,0,0,0-.73-1c.05.47.16.36.2.83-.42-.64-.46-.92-.79-.8.07.37.37.16.38.74C241,401.53,240.17,403.37,239.59,402.75Z"/><path class="cls-7" d="M226.88,403.63c-.07-.56-.31-1.3-.45-.54Z"/><path class="cls-7" d="M244.62,405.83c.1-1.42-.38.41-.46-.34C244.17,406.06,244.5,405.55,244.62,405.83Z"/><path class="cls-7" d="M249.48,400.24c-.24-.54-.2-.64-.5-.43C249,400.46,249.29,400,249.48,400.24Z"/></g><g class="cls-6"><path class="cls-7" d="M368.4,402.51l.17.25c-.24-.24,0-1.06-.24-.91A1.06,1.06,0,0,0,368.4,402.51Z"/><path class="cls-7" d="M467.91,402c.17-.14-.16-.64-.28-.7l-.91.69C467.21,402.62,467.37,401.13,467.91,402Z"/><polygon class="cls-7" points="467.74 400.37 467.49 399.55 467.5 400.13 467.74 400.37"/><path class="cls-7" d="M468.28,399.76c0,.85.06-1,.48.08-.19-1.12.67.12.09-.8l-.28,0a.65.65,0,0,1,.07.37C468.46,399.23,468.18,399.19,468.28,399.76Z"/><path class="cls-7" d="M468.41,401.17l.54.45-.58-.92A.53.53,0,0,1,468.41,401.17Z"/><path class="cls-7" d="M369.73,410.13l0,.2c.25-.15.74.22.56-.62-.12-.17-.24-.23-.26-.51C369.94,409.5,369.51,409.5,369.73,410.13Z"/><path class="cls-7" d="M370.49,409.85c.84,1.06.83-.58,1.5.23.09-.12,0-.3-.05-.47.52-.81,1.31.85,1.64-.11,0-.38-.27-1.1.12-.89-.36-.3-.44-.68-.73-.21.14,0,.2.34.1.55-.25-1.19-.61.53-1-.43.05.09,0,.18.09.27-.18.13-.29-.32-.42-.39.13.07.14.35.23.63l-.42.29c.07.37.28,0,.33.5-.4-.48-1-.54-1.11-.13l-.33-.79C370.73,409,370.5,409.46,370.49,409.85Z"/><path class="cls-7" d="M473.74,397.11c.22.62-.36.37-.59.53C473.33,397.4,474,397.83,473.74,397.11Z"/><path class="cls-7" d="M373.92,408.84c.63.05.54-.89,1.23-.09-.3-1-.84-.38-1.2-.68l.27.42Z"/><path class="cls-7" d="M382.71,403.89l-.4-.1C382.42,403.57,382.64,404.3,382.71,403.89Z"/><path class="cls-7" d="M474.45,397.71c0-.57-.21-.34-.33-.4C474.22,397.47,474.37,397.83,474.45,397.71Z"/><path class="cls-7" d="M383.13,403.88c.74-.17,2.14,1.92,2.41-.09l-.61-.43,0,.78c-.2-1.4-.72.46-.9-.75l.14-.33c-.56-1-.65,1.13-1.12,0C383.08,403.41,383,403.53,383.13,403.88Z"/><path class="cls-7" d="M383.78,404.9c-.32-.22-.44-.68-.55-.17C383.41,405.27,383.72,405.09,383.78,404.9Z"/><path class="cls-7" d="M475.7,397.12c.17-.13.45.19.67.52l-.26.26c.34,0,1.12,1,1.65,1.55L478,399c.12.45.43.95.12,1.13.34-.95,1.12.7.94-1.2.17-.13.33.12.51.27s0,.39-.05.6c.31-.17.37-.77.84-.69a19.39,19.39,0,0,1-2.41-1.95c.06.38.37-.09.46.47-.45.51-.52-.16-1-.33.21.33,0,.66.22,1l-.78-.68a5.08,5.08,0,0,0,0-1.65c-.09.41,0,1.35-.37.77-.12-1.14-.09.4-.42-.68C476.07,397,475.4,395.84,475.7,397.12Z"/><path class="cls-7" d="M386.25,401.31a3.78,3.78,0,0,1-.37-1.27C386,400.31,385.77,401.62,386.25,401.31Z"/><path class="cls-7" d="M386.1,399.32l.28.7Z"/><path class="cls-7" d="M384.81,409.78l.41.49Z"/><path class="cls-7" d="M387.39,403c0,.89.22-.05.42.39.23-.83.79-.48,1.12-1-.39-1.17-.65.74-.71-.7l-.78.37.2.83Z"/><path class="cls-7" d="M478.83,396.58c.17.54-.45.1-.13.61a1.22,1.22,0,0,1,.61.54c.21-.74-.61-1.21-.14-1.43l-.34-.41A1,1,0,0,0,478.83,396.58Z"/><polygon class="cls-7" points="386.24 410.01 386.02 410.08 386.32 410.29 386.24 410.01"/><path class="cls-7" d="M480.48,395.7c.11-.89.82.11.78-1.05-.59.14-.22.73-.86.39l-.15-.93-.35.67C480.27,394.69,480.07,395.7,480.48,395.7Z"/><path class="cls-7" d="M390.75,401.31c-.1.12-.27,0-.27.26.3-.36.53-.13.87-.12-.13-.73-.37.09-.56-.35l.23-.44-.2-.73c-.08,0,.31,1.19,0,.89-.17-.26-.27-1.1-.42-.68Z"/><polygon class="cls-7" points="481.34 399.08 481.02 398.58 480.96 398.88 481.34 399.08"/><path class="cls-7" d="M391.73,400.31c0,.07.15,0,.23.23-.19.23,0,1-.42.68l.33.79c-.29-1,.22-.34.29-.35l-.11-.18a3.75,3.75,0,0,0,.46-1.55c-.22-.35.11-1.29-.31-1.29l.07.37-.34-.4C392.19,399.71,391.6,399.84,391.73,400.31Z"/><path class="cls-7" d="M483.33,395.51l.05-.2-.45-.29C483,395.69,483.22,395.34,483.33,395.51Z"/><path class="cls-7" d="M391.74,406.78c.31-.46-.09-1.62.51-1.47l-.05-.09c.65-.73,1.29,1,1.64-.49-.91-.64-1.66-.08-2.39.38C391.88,405.78,391.17,406.15,391.74,406.78Z"/><path class="cls-7" d="M408.9,403.11l-.07,0c-.18.14.19.44.27.7.71-.75,1.72-.88,2.48-1.45l0-.57c0,.29.29.32.4.48a2.26,2.26,0,0,0-.89-.85c.12.46.22.33.33.79-.51-.55-.6-.83-.92-.66.14.35.41.11.5.67C410,401.68,409.56,403.63,408.9,403.11Z"/><path class="cls-7" d="M396.5,406.13c-.16-.53-.51-1.22-.53-.44Z"/><path class="cls-7" d="M414.35,405.3c-.13-1.42-.3.46-.51-.27C413.94,405.59,414.19,405.05,414.35,405.3Z"/><path class="cls-7" d="M418.24,399c-.33-.51-.3-.61-.57-.35C417.83,399.26,418,398.73,418.24,399Z"/></g><g class="cls-6"><path class="cls-7" d="M272.38,618.35l.12.28c-.19-.27.18-1-.09-.94A1.15,1.15,0,0,0,272.38,618.35Z"/><path class="cls-7" d="M314.23,625.05c.18-.1,0-.65-.16-.74l-1,.54C313.44,625.58,313.84,624.14,314.23,625.05Z"/><polygon class="cls-7" points="314.32 623.45 314.2 622.6 314.14 623.17 314.32 623.45"/><path class="cls-7" d="M315,622.93c-.11.86.22-1,.45.16,0-1.13.65.26.22-.77l-.26-.08a.7.7,0,0,1,0,.38C315.23,622.44,315,622.36,315,622.93Z"/><path class="cls-7" d="M314.86,624.36l.46.54-.42-1A.57.57,0,0,1,314.86,624.36Z"/><path class="cls-7" d="M272.46,626.09l-.07.19c.26-.1.69.35.64-.5-.09-.19-.2-.28-.16-.56C272.76,625.52,272.35,625.43,272.46,626.09Z"/><path class="cls-7" d="M273.25,626c.67,1.19.91-.43,1.45.47.11-.09,0-.28,0-.47.64-.7,1.15,1.07,1.63.18.07-.37-.08-1.13.25-.86-.3-.36-.3-.74-.68-.33.15,0,.15.37,0,.56-.05-1.22-.68.43-1-.6,0,.09,0,.19,0,.28-.19.1-.24-.36-.34-.45.1.09.07.37.11.65l-.45.22c0,.38.26.07.23.55-.31-.55-.84-.7-1.06-.31l-.2-.84C273.63,625.17,273.32,625.57,273.25,626Z"/><path class="cls-7" d="M320.77,621.25c.12.66-.4.3-.67.42C320.33,621.46,320.86,622,320.77,621.25Z"/><path class="cls-7" d="M276.81,625.53c.6.17.67-.78,1.21.12-.12-1-.77-.52-1.07-.88l.2.47Z"/><path class="cls-7" d="M213.6,616.2l-.34-.15C213.4,615.88,213.47,616.54,213.6,616.2Z"/><path class="cls-7" d="M321.39,622c.06-.57-.16-.37-.27-.45C321.19,621.69,321.28,622.07,321.39,622Z"/><path class="cls-7" d="M214,616.26c.66,0,1.59,2,2.1.28l-.47-.46-.13.67c0-1.24-.7.29-.67-.79l.16-.26c-.35-1-.73.87-1-.19A2.69,2.69,0,0,0,214,616.26Z"/><path class="cls-7" d="M214.37,617.24c-.23-.24-.27-.65-.43-.23C214,617.51,214.31,617.41,214.37,617.24Z"/><path class="cls-7" d="M322.71,621.6c.18-.1.41.27.56.63l-.29.2c.34.08.95,1.17,1.37,1.81l.3-.4c.05.47.28,1-.06,1.14.48-.88,1,.88,1.12-1,.19-.09.32.18.46.35s-.07.39-.14.58c.34-.12.49-.69.94-.53A20.77,20.77,0,0,1,324.9,622c0,.38.38,0,.38.54-.53.41-.49-.25-.91-.5.16.36-.1.66.05,1l-.65-.81a5.17,5.17,0,0,0,.25-1.63c-.15.39-.22,1.34-.48.69.06-1.14-.15.38-.32-.73C323.08,621.59,322.62,620.29,322.71,621.6Z"/><path class="cls-7" d="M217,614.49a3.4,3.4,0,0,1-.14-1.15C216.94,613.58,216.58,614.69,217,614.49Z"/><path class="cls-7" d="M217.2,612.73l.14.66Z"/><path class="cls-7" d="M214.58,621.64l.28.48Z"/><path class="cls-7" d="M215.54,620.66c.75.79.91.52,1.32,1.5.27-.19-.08-.82.08-1.25.6-.7,1.27-.25,1.87-.28l-.07-.18c.78.87,1.18-1.4,1.89-1-.17-.24-.53.2-.7,0-.08-.67.26-.52.15-1.1a.64.64,0,0,1-.8-.44c0,.91-.33.19-.53.53l.11.58c-.28-1.32-.63.62-.74-.47a.8.8,0,0,1-.06.51l-.16-.4.06.49c-.17-.23-.37-.23-.48-.64l0,.08c0,.34-.33.19-.37,0,.1.42.31.39.38,1.06-.24-.4-.63,0-.9-.2l.27.82c0,.41-.13.17-.23.26l-.24-1.56c0,.4-.2.67-.3.26.16.41.57.39.3,1.07s-.49-.06-.73-.12C215.77,620.23,215.61,620.49,215.54,620.66Z"/><path class="cls-7" d="M217.8,616.11c-.17.76.2,0,.3.4.33-.69.77-.31,1.12-.74-.17-1.07-.65.54-.5-.72l-.73.21,0,.74Z"/><path class="cls-7" d="M325.89,621.6c.08.56-.46,0-.23.57a1.2,1.2,0,0,1,.5.63c.34-.68-.39-1.3.1-1.42l-.27-.46A.88.88,0,0,0,325.89,621.6Z"/><polygon class="cls-7" points="215.79 622.06 215.59 622.07 215.83 622.31 215.79 622.06"/><path class="cls-7" d="M327.65,621c.26-.86.8.24.94-.91-.61,0-.34.68-.91.25v-1l-.44.6C327.6,620,327.23,620.94,327.65,621Z"/><path class="cls-7" d="M221,615.16c-.11.09-.23-.07-.27.19.3-.27.47,0,.77,0,0-.67-.33,0-.44-.39l.27-.34-.08-.68c-.06,0,.11,1.08-.15.77s-.09-1-.28-.65Z"/><polygon class="cls-7" points="327.95 624.49 327.72 623.93 327.61 624.23 327.95 624.49"/><path class="cls-7" d="M222,614.43c0,.08.13,0,.17.24-.2.18-.13.84-.47.54l.18.73c-.11-.91.23-.27.29-.27l-.06-.16a3.13,3.13,0,0,0,.62-1.29c-.14-.33.29-1.1-.08-1.16v.33l-.23-.4C222.45,614,221.91,614,222,614.43Z"/><path class="cls-7" d="M330.49,621.31l.08-.2-.39-.35C330.15,621.43,330.42,621.12,330.49,621.31Z"/><path class="cls-7" d="M221,620.07c.33-.35.16-1.43.65-1.21l0-.08c.66-.54,1,1,1.5-.18-.71-.7-1.44-.32-2.14,0C221.3,619.21,220.63,619.43,221,620.07Z"/><path class="cls-7" d="M225.05,611.07c0-.4-.27-.14-.43-.23C224.75,611.35,225,611.24,225.05,611.07Z"/><path class="cls-7" d="M239.59,620.6h-.07c-.19.11.12.47.16.74.82-.61,1.84-.58,2.68-1l.06-.57c0,.29.23.36.31.55a2,2,0,0,0-.73-1c.05.47.16.36.2.83-.42-.63-.46-.92-.79-.8.07.37.37.17.38.73C241,619.38,240.17,621.22,239.59,620.6Z"/><path class="cls-7" d="M225.27,620.22c-.07-.49-.28-1.15-.4-.47Z"/><path class="cls-7" d="M244.62,623.68c.1-1.41-.38.4-.46-.35C244.17,623.9,244.5,623.41,244.62,623.68Z"/><path class="cls-7" d="M249.48,618.09c-.24-.54-.2-.65-.5-.43C249,618.31,249.29,617.82,249.48,618.09Z"/></g><g class="cls-6"><path class="cls-7" d="M368.4,620.35l.17.26c-.24-.24,0-1.07-.24-.91A1,1,0,0,0,368.4,620.35Z"/><path class="cls-7" d="M467.91,619.82c.17-.14-.16-.64-.28-.71l-.91.7C467.21,620.47,467.37,619,467.91,619.82Z"/><polygon class="cls-7" points="467.74 618.22 467.49 617.41 467.5 617.98 467.74 618.22"/><path class="cls-7" d="M468.28,617.6c0,.86.06-1,.48.08-.19-1.11.67.13.09-.79l-.28,0a.72.72,0,0,1,.07.38C468.46,617.08,468.18,617,468.28,617.6Z"/><path class="cls-7" d="M468.41,619l.54.46-.58-.93A.54.54,0,0,1,468.41,619Z"/><path class="cls-7" d="M369.73,628l0,.2c.25-.16.74.22.56-.61-.12-.18-.24-.24-.26-.52C369.94,627.35,369.51,627.35,369.73,628Z"/><path class="cls-7" d="M370.49,627.7c.84,1,.83-.58,1.5.22.09-.11,0-.29-.05-.47.52-.8,1.31.86,1.64-.1,0-.38-.27-1.1.12-.9-.36-.3-.44-.66-.73-.21.14,0,.2.34.1.56-.25-1.2-.61.53-1-.43.05.08,0,.19.09.26-.18.14-.29-.31-.42-.38.13.07.14.36.23.63l-.42.28c.07.38.28,0,.33.51-.4-.48-1-.55-1.11-.13l-.33-.78C370.73,626.87,370.5,627.32,370.49,627.7Z"/><path class="cls-7" d="M473.74,615c.22.63-.36.38-.59.54C473.33,615.25,474,615.68,473.74,615Z"/><path class="cls-7" d="M373.92,626.69c.63,0,.54-.89,1.23-.09-.3-1-.84-.38-1.2-.68l.27.42Z"/><path class="cls-7" d="M382.71,621.74l-.4-.1C382.42,621.41,382.64,622.15,382.71,621.74Z"/><path class="cls-7" d="M474.45,615.56c0-.58-.21-.34-.33-.4C474.22,615.32,474.37,615.68,474.45,615.56Z"/><path class="cls-7" d="M383.13,621.73c.74-.17,2.14,1.92,2.41-.08l-.61-.43,0,.77c-.2-1.4-.72.46-.9-.75l.14-.32c-.56-1-.65,1.12-1.12,0C383.08,621.26,383,621.38,383.13,621.73Z"/><path class="cls-7" d="M383.78,622.74c-.32-.21-.44-.67-.55-.16C383.41,623.12,383.72,622.94,383.78,622.74Z"/><path class="cls-7" d="M475.7,615c.17-.14.45.18.67.52l-.26.25c.34,0,1.12,1,1.65,1.54l.23-.44c.12.46.43,1,.12,1.14.34-1,1.12.7.94-1.2.17-.13.33.12.51.27a.91.91,0,0,1-.05.6c.31-.18.37-.77.84-.69a21.4,21.4,0,0,1-2.41-2c.06.38.37-.08.46.48-.45.49-.52-.17-1-.34.21.33,0,.66.22,1l-.78-.7a5,5,0,0,0,0-1.64c-.09.41,0,1.36-.37.77-.12-1.14-.09.4-.42-.68C476.07,614.89,475.4,613.69,475.7,615Z"/><path class="cls-7" d="M386.25,619.16a3.66,3.66,0,0,1-.37-1.27C386,618.16,385.77,619.47,386.25,619.16Z"/><path class="cls-7" d="M386.1,617.17l.28.69Z"/><path class="cls-7" d="M384.81,627.63l.41.48Z"/><path class="cls-7" d="M387.39,620.82c0,.88.22-.05.42.39.23-.84.79-.48,1.12-1-.39-1.17-.65.73-.71-.7l-.78.37.2.83Z"/><path class="cls-7" d="M478.83,614.43c.17.54-.45.11-.13.61a1.22,1.22,0,0,1,.61.54c.21-.74-.61-1.22-.14-1.42l-.34-.42A.94.94,0,0,0,478.83,614.43Z"/><polygon class="cls-7" points="386.24 627.87 386.02 627.92 386.32 628.14 386.24 627.87"/><path class="cls-7" d="M480.48,613.55c.11-.9.82.1.78-1-.59.14-.22.73-.86.39l-.15-.92-.35.66C480.27,612.54,480.07,613.55,480.48,613.55Z"/><path class="cls-7" d="M390.75,619.16c-.1.12-.27,0-.27.26.3-.36.53-.12.87-.12-.13-.74-.37.09-.56-.35l.23-.43-.2-.73c-.08,0,.31,1.18,0,.88-.17-.26-.27-1.1-.42-.67Z"/><polygon class="cls-7" points="481.34 616.94 481.02 616.42 480.96 616.73 481.34 616.94"/><path class="cls-7" d="M391.73,618.15c0,.08.15,0,.23.24-.19.23,0,1-.42.68l.33.79c-.29-1,.22-.34.29-.36l-.11-.17a3.8,3.8,0,0,0,.46-1.55c-.22-.34.11-1.3-.31-1.3l.07.38-.34-.4C392.19,617.56,391.6,617.7,391.73,618.15Z"/><path class="cls-7" d="M483.33,613.36l.05-.19-.45-.29C483,613.54,483.22,613.2,483.33,613.36Z"/><path class="cls-7" d="M391.74,624.63c.31-.46-.09-1.63.51-1.47l-.05-.09c.65-.73,1.29,1,1.64-.49-.91-.65-1.66-.09-2.39.37C391.88,623.63,391.17,624,391.74,624.63Z"/><path class="cls-7" d="M408.9,621l-.07,0c-.18.13.19.43.27.71.71-.75,1.72-.9,2.48-1.46l0-.57c0,.28.29.32.4.48a2.19,2.19,0,0,0-.89-.85c.12.45.22.34.33.79-.51-.56-.6-.83-.92-.66.14.36.41.1.5.66C410,619.53,409.56,621.48,408.9,621Z"/><path class="cls-7" d="M396.5,624c-.16-.53-.51-1.22-.53-.44Z"/><path class="cls-7" d="M414.35,623.16c-.13-1.42-.3.45-.51-.27C413.94,623.45,414.19,622.9,414.35,623.16Z"/><path class="cls-7" d="M418.24,616.82c-.33-.51-.3-.62-.57-.35C417.83,617.1,418,616.58,418.24,616.82Z"/></g><g class="cls-6"><path class="cls-7" d="M272.38,654.13l.12.28c-.19-.28.18-1-.09-.94A1.15,1.15,0,0,0,272.38,654.13Z"/><path class="cls-7" d="M314.23,660.83c.18-.1,0-.66-.16-.74l-1,.53C313.44,661.35,313.84,659.91,314.23,660.83Z"/><polygon class="cls-7" points="314.32 659.22 314.2 658.38 314.14 658.95 314.32 659.22"/><path class="cls-7" d="M315,658.71c-.11.85.22-1,.45.16,0-1.13.65.25.22-.76l-.26-.09a.7.7,0,0,1,0,.38C315.23,658.22,315,658.14,315,658.71Z"/><path class="cls-7" d="M314.86,660.13l.46.54-.42-1A.56.56,0,0,1,314.86,660.13Z"/><path class="cls-7" d="M272.46,661.87l-.07.19c.26-.11.69.34.64-.51-.09-.18-.2-.27-.16-.55C272.76,661.29,272.35,661.21,272.46,661.87Z"/><path class="cls-7" d="M273.25,661.73c.67,1.18.91-.44,1.45.47.11-.1,0-.28,0-.47.64-.71,1.15,1.06,1.63.18.07-.38-.08-1.13.25-.86-.3-.36-.3-.74-.68-.34.15,0,.15.37,0,.56-.05-1.22-.68.42-1-.59,0,.09,0,.18,0,.28-.19.09-.24-.37-.34-.46.1.09.07.38.11.65l-.45.23c0,.38.26.07.23.54-.31-.54-.84-.7-1.06-.31l-.2-.84C273.63,661,273.32,661.34,273.25,661.73Z"/><path class="cls-7" d="M320.77,657c.12.65-.4.3-.67.42C320.33,657.24,320.86,657.78,320.77,657Z"/><path class="cls-7" d="M276.81,661.31c.6.16.67-.79,1.21.12-.12-1-.77-.52-1.07-.87l.2.45Z"/><path class="cls-7" d="M216.08,649.09l-.3-.13C215.89,648.8,216,649.4,216.08,649.09Z"/><path class="cls-7" d="M321.39,657.74c.06-.57-.16-.37-.27-.45C321.19,657.47,321.28,657.84,321.39,657.74Z"/><path class="cls-7" d="M216.39,649.14c.6,0,1.41,1.76,1.86.26l-.42-.42-.11.59c0-1.09-.61.26-.59-.69l.15-.24c-.31-.85-.65.78-.86-.16A3,3,0,0,0,216.39,649.14Z"/><path class="cls-7" d="M216.76,650c-.21-.2-.24-.57-.38-.19C216.44,650.24,216.71,650.15,216.76,650Z"/><path class="cls-7" d="M219.11,647.58a2.53,2.53,0,0,1-.11-1C219,646.78,218.71,647.75,219.11,647.58Z"/><path class="cls-7" d="M219.25,646l.13.56Z"/><path class="cls-7" d="M217,653.88l.23.42Z"/><path class="cls-7" d="M219.78,649c-.14.68.18,0,.27.36.29-.61.67-.27,1-.65-.16-.94-.59.48-.45-.64l-.64.19,0,.66Z"/><path class="cls-7" d="M325.89,657.37c.08.56-.46,0-.23.58a1.15,1.15,0,0,1,.5.63c.34-.69-.39-1.3.1-1.43l-.27-.45A.85.85,0,0,0,325.89,657.37Z"/><polygon class="cls-7" points="218 654.26 217.83 654.27 218.04 654.48 218 654.26"/><path class="cls-7" d="M327.65,656.79c.26-.87.8.23.94-.91-.61,0-.34.68-.91.24v-.94l-.44.59C327.6,655.75,327.23,656.72,327.65,656.79Z"/><path class="cls-7" d="M222.56,648.17c-.09.08-.2,0-.23.17.26-.24.41,0,.67,0,0-.58-.29,0-.38-.34l.23-.3-.06-.6c-.07,0,.1,1-.14.68s-.07-.87-.25-.57Z"/><polygon class="cls-7" points="327.95 660.26 327.72 659.71 327.61 660 327.95 660.26"/><path class="cls-7" d="M223.43,647.53c0,.07.13,0,.16.21-.17.15-.11.74-.41.47l.15.65c-.09-.8.21-.24.27-.24l-.06-.14a2.74,2.74,0,0,0,.54-1.13c-.11-.3.26-1-.06-1v.29l-.22-.35C223.88,647.13,223.41,647.16,223.43,647.53Z"/><path class="cls-7" d="M330.49,657.08l.08-.19-.39-.35C330.15,657.2,330.42,656.89,330.49,657.08Z"/><path class="cls-7" d="M222.64,652.5c.29-.31.13-1.26.58-1.06l0-.07c.59-.48.87.9,1.33-.16-.63-.62-1.27-.29-1.89,0C222.86,651.75,222.28,651.94,222.64,652.5Z"/><path class="cls-7" d="M226.17,644.57c0-.36-.23-.14-.38-.2C225.91,644.81,226.11,644.72,226.17,644.57Z"/><path class="cls-7" d="M239.59,656.37h-.07c-.19.12.12.47.16.75.82-.62,1.84-.58,2.68-1l.06-.56c0,.28.23.35.31.54a2,2,0,0,0-.73-1c.05.47.16.37.2.84-.42-.64-.46-.92-.79-.8.07.36.37.16.38.73C241,655.16,240.17,657,239.59,656.37Z"/><path class="cls-7" d="M226.37,652.63c-.06-.43-.24-1-.35-.41Z"/><path class="cls-7" d="M244.62,659.46c.1-1.42-.38.4-.46-.35C244.17,659.67,244.5,659.18,244.62,659.46Z"/><path class="cls-7" d="M249.48,653.87c-.24-.56-.2-.66-.5-.44C249,654.09,249.29,653.59,249.48,653.87Z"/></g><g class="cls-6"><path class="cls-7" d="M368.4,656.13l.17.26c-.24-.24,0-1.07-.24-.91A1,1,0,0,0,368.4,656.13Z"/><path class="cls-7" d="M444,654.28c.17-.13-.15-.64-.28-.71l-.92.71C443.34,654.93,443.5,653.44,444,654.28Z"/><polygon class="cls-7" points="443.87 652.68 443.61 651.86 443.64 652.43 443.87 652.68"/><path class="cls-7" d="M444.41,652.06c0,.87.06-1,.48.08-.19-1.11.67.14.09-.79l-.27,0a.63.63,0,0,1,.06.36C444.6,651.53,444.32,651.51,444.41,652.06Z"/><path class="cls-7" d="M444.55,653.48l.54.46-.58-.93A.66.66,0,0,1,444.55,653.48Z"/><path class="cls-7" d="M369.73,663.75l0,.21c.25-.15.74.21.56-.62-.12-.17-.24-.23-.26-.52C369.94,663.13,369.51,663.12,369.73,663.75Z"/><path class="cls-7" d="M370.49,663.47c.84,1.06.83-.58,1.5.23.09-.12,0-.29-.05-.47.52-.8,1.31.85,1.64-.1,0-.38-.27-1.1.12-.9-.36-.29-.44-.67-.73-.21.14,0,.2.34.1.55-.25-1.19-.61.54-1-.42.05.08,0,.18.09.27-.18.13-.29-.33-.42-.39.13.06.14.35.23.62l-.42.29c.07.38.28,0,.33.51-.4-.49-1-.56-1.11-.13l-.33-.79C370.73,662.64,370.5,663.08,370.49,663.47Z"/><path class="cls-7" d="M449.87,649.41c.22.63-.36.38-.6.54C449.46,649.71,450.07,650.15,449.87,649.41Z"/><path class="cls-7" d="M373.92,662.47c.63,0,.54-.9,1.23-.1-.3-1-.84-.38-1.2-.68l.27.42Z"/><path class="cls-7" d="M450.59,650c0-.57-.21-.33-.34-.4C450.36,649.78,450.5,650.14,450.59,650Z"/><path class="cls-7" d="M451.83,649.43c.16-.12.46.19.67.53l-.27.26c.35,0,1.14,1,1.66,1.54l.23-.44c.12.45.44,1,.12,1.13.34-1,1.12.7.95-1.2.16-.13.33.12.5.28s0,.38-.05.59c.32-.17.37-.77.84-.69a20.35,20.35,0,0,1-2.41-1.95c.06.37.37-.08.46.48-.44.5-.53-.17-1-.35.21.34,0,.68.22,1l-.78-.68a5.08,5.08,0,0,0,0-1.65c-.09.41,0,1.36-.37.77-.13-1.13-.08.41-.43-.67C452.2,649.35,451.54,648.16,451.83,649.43Z"/><path class="cls-7" d="M384.81,663.4l.41.49Z"/><path class="cls-7" d="M455,648.89c.17.54-.44.1-.12.61a1.14,1.14,0,0,1,.59.54c.22-.73-.59-1.22-.14-1.43l-.33-.4A1,1,0,0,0,455,648.89Z"/><polygon class="cls-7" points="386.24 663.64 386.02 663.7 386.32 663.91 386.24 663.64"/><path class="cls-7" d="M456.62,648c.1-.9.82.1.77-1.06-.6.15-.22.73-.86.39l-.15-.92-.35.66C456.39,647,456.2,648,456.62,648Z"/><polygon class="cls-7" points="457.48 651.39 457.16 650.89 457.09 651.19 457.48 651.39"/><path class="cls-7" d="M459.46,647.82l0-.19-.44-.29C459.15,648,459.36,647.65,459.46,647.82Z"/><path class="cls-7" d="M408.9,656.74h-.07c-.18.14.19.44.27.71.71-.75,1.72-.89,2.48-1.45l0-.59c0,.3.29.33.4.5a2.12,2.12,0,0,0-.89-.85c.12.46.22.33.33.79-.51-.56-.6-.84-.92-.66.14.35.41.1.5.66C410,655.3,409.56,657.26,408.9,656.74Z"/><path class="cls-7" d="M396.5,659.76c-.16-.53-.51-1.23-.53-.45Z"/><path class="cls-7" d="M414.35,658.93c-.13-1.42-.3.46-.51-.27C413.94,659.22,414.19,658.68,414.35,658.93Z"/><path class="cls-7" d="M418.24,652.59c-.33-.5-.3-.61-.57-.35C417.83,652.88,418,652.36,418.24,652.59Z"/></g><path class="cls-8" d="M518.53,373.42c0,12.58-79.4,22.77-177.33,22.77S163.86,386,163.86,373.42s79.4-22.78,177.34-22.78S518.53,360.84,518.53,373.42Z"/><path class="cls-9" d="M517,373.22c0,11.88-78.7,21.5-175.76,21.5s-175.77-9.62-175.77-21.5,78.7-21.5,175.77-21.5S517,361.34,517,373.22Z"/><path class="cls-10" d="M488.08,602.76l-3.13,1c-1,.33-2.28.64-3.79,1s-3.22.82-5.18,1.19-4.09.86-6.46,1.26l-3.68.64-4,.6-4.24.63-4.49.58c-3.08.42-6.33.75-9.71,1.13s-6.92.68-10.57,1l-11.33.92c-7.8.56-16,1.08-24.51,1.47-4.25.2-8.57.4-12.95.54l-6.6.23-6.67.18c-8.93.22-18,.33-27.1.36-4.54,0-9.08-.06-13.59-.08l-13.5-.16-13.28-.37c-4.37-.11-8.7-.23-13-.45l-12.51-.59c-4.1-.15-8.09-.51-12-.75s-7.69-.48-11.35-.79l-10.57-1-5-.45c-1.62-.17-3.21-.38-4.75-.56l-8.75-1.07c-2.75-.29-5.3-.78-7.67-1.14l-6.5-1.05-1.43-.23-1.34-.29-2.42-.53-3.84-.82-3.19-.7,3.2.68,3.83.8,2.44.51,1.34.28,1.43.22,6.5,1c2.37.34,4.92.8,7.68,1.08l8.75,1c1.54.17,3.11.38,4.74.54l5,.45,10.57.93c3.66.3,7.45.51,11.34.77s7.89.57,12,.73,8.27.36,12.52.55,8.58.32,12.95.43l13.27.34c8.94.09,18,.18,27.09.18s18.15-.1,27.08-.32c2.24,0,4.47-.1,6.68-.15l6.6-.22c4.38-.12,8.7-.32,12.94-.5,8.51-.38,16.72-.87,24.5-1.41l11.33-.89c3.65-.35,7.19-.63,10.57-1s6.63-.7,9.71-1.1l4.49-.56,4.24-.6,4-.57,3.68-.62c2.37-.38,4.52-.82,6.47-1.21s3.68-.78,5.18-1.14,2.78-.67,3.79-1C487,603.09,488.08,602.76,488.08,602.76Z"/><path class="cls-10" d="M478.16,636.19l-2.88.94c-.94.33-2.12.65-3.51,1s-3,.8-4.79,1.17-3.79.86-6,1.25l-3.41.65-3.68.61q-1.91.28-3.93.63l-4.17.58c-2.86.42-5.87.75-9,1.12s-6.42.68-9.82,1l-10.52.93c-7.23.54-14.85,1.07-22.74,1.46-4,.2-8,.4-12,.54l-6.13.23-6.2.17c-8.3.23-16.73.34-25.16.38-4.22,0-8.43-.07-12.64-.09L319,648.67l-12.33-.38c-4.07-.11-8.09-.22-12-.45L283,647.25c-3.81-.16-7.52-.51-11.14-.75s-7.13-.49-10.51-.79l-9.84-1-4.61-.44c-1.5-.17-3-.38-4.4-.57l-8.12-1.07c-2.56-.29-4.91-.77-7.12-1.13l-6-1-1.32-.23-1.24-.28-2.25-.54-3.56-.83-3-.69,3,.68,3.54.79,2.26.52,1.24.28,1.33.22,6,1c2.2.35,4.57.82,7.12,1.09l8.13,1c1.43.17,2.89.38,4.4.54l4.61.44,9.82.94c3.4.31,6.92.51,10.53.77s7.33.58,11.12.73l11.63.55c3.95.22,8,.33,12,.43l12.33.34c8.3.08,16.73.19,25.16.19s16.85-.11,25.16-.32l6.19-.16c2-.06,4.1-.14,6.13-.21,4.06-.13,8.08-.33,12-.51,7.88-.37,15.51-.88,22.74-1.41l10.52-.9c3.39-.35,6.67-.63,9.81-1s6.15-.7,9-1.1l4.18-.55,3.93-.6,3.68-.58,3.42-.62c2.19-.37,4.18-.82,6-1.2s3.4-.79,4.79-1.15,2.57-.66,3.51-1Z"/><g class="cls-11"><path class="cls-7" d="M508.78,390.23a2.25,2.25,0,1,1-2.25-2.29A2.27,2.27,0,0,1,508.78,390.23Z"/><path class="cls-12" d="M506.71,389.71a.86.86,0,0,1-.87.86.88.88,0,1,1,.87-.86Z"/><path class="cls-7" d="M399.74,405.45a2.24,2.24,0,1,1-2.23-2.29A2.25,2.25,0,0,1,399.74,405.45Z"/><path class="cls-12" d="M397.68,404.94a.85.85,0,0,1-.87.86.88.88,0,0,1,0-1.75A.86.86,0,0,1,397.68,404.94Z"/><path class="cls-7" d="M345.24,406.21a2.25,2.25,0,1,1-2.25-2.29A2.28,2.28,0,0,1,345.24,406.21Z"/><path class="cls-12" d="M343.17,405.7a.86.86,0,0,1-.88.86.88.88,0,1,1,.88-.86Z"/><path class="cls-7" d="M290.73,405.11a2.24,2.24,0,1,1-2.24-2.3A2.27,2.27,0,0,1,290.73,405.11Z"/><path class="cls-12" d="M288.66,404.59a.86.86,0,0,1-.88.86.85.85,0,0,1-.83-.89.86.86,0,1,1,1.71,0Z"/><path class="cls-7" d="M181.7,393.22a2.25,2.25,0,1,1-2.24-2.29A2.27,2.27,0,0,1,181.7,393.22Z"/><path class="cls-12" d="M179.64,392.71a.88.88,0,0,1-.89.86.88.88,0,0,1,0-1.76A.89.89,0,0,1,179.64,392.71Z"/><path class="cls-7" d="M236.21,401.4a2.24,2.24,0,1,1-2.24-2.28A2.26,2.26,0,0,1,236.21,401.4Z"/><path class="cls-12" d="M234.15,400.89a.86.86,0,1,1-1.72,0,.86.86,0,0,1,.87-.87A.87.87,0,0,1,234.15,400.89Z"/><path class="cls-7" d="M454.26,399.66a2.24,2.24,0,1,1-2.24-2.3A2.27,2.27,0,0,1,454.26,399.66Z"/><path class="cls-12" d="M452.2,399.14a.87.87,0,1,1-1.73,0,.88.88,0,0,1,.89-.86A.86.86,0,0,1,452.2,399.14Z"/></g><g class="cls-11"><path class="cls-7" d="M481.84,612.7a2.11,2.11,0,1,1-2.1-2.15A2.13,2.13,0,0,1,481.84,612.7Z"/><path class="cls-12" d="M479.9,612.23a.81.81,0,1,1-1.62,0,.81.81,0,1,1,1.62,0Z"/><path class="cls-7" d="M387.89,623.38a2.11,2.11,0,1,1-2.11-2.16A2.13,2.13,0,0,1,387.89,623.38Z"/><path class="cls-12" d="M386,622.9a.81.81,0,1,1-.8-.85A.83.83,0,0,1,386,622.9Z"/><path class="cls-7" d="M340.92,623.38a2.1,2.1,0,1,1-2.1-2.16A2.13,2.13,0,0,1,340.92,623.38Z"/><path class="cls-12" d="M339,622.9a.83.83,0,0,1-.83.8.83.83,0,0,1,0-1.65A.83.83,0,0,1,339,622.9Z"/><path class="cls-7" d="M294,623.38a2.11,2.11,0,1,1-2.11-2.16A2.13,2.13,0,0,1,294,623.38Z"/><path class="cls-12" d="M292,622.9a.81.81,0,0,1-.83.8.82.82,0,0,1-.79-.84.84.84,0,0,1,.83-.81A.82.82,0,0,1,292,622.9Z"/><path class="cls-7" d="M200,611.17a2.11,2.11,0,1,1-2.1-2.14A2.12,2.12,0,0,1,200,611.17Z"/><path class="cls-12" d="M198.06,610.69a.81.81,0,1,1-1.61,0,.81.81,0,1,1,1.61,0Z"/><path class="cls-7" d="M247,618.86a2.11,2.11,0,1,1-2.11-2.15A2.13,2.13,0,0,1,247,618.86Z"/><path class="cls-12" d="M245,618.38a.81.81,0,1,1-.79-.85A.84.84,0,0,1,245,618.38Z"/><path class="cls-7" d="M434.87,618.86a2.11,2.11,0,1,1-2.11-2.15A2.13,2.13,0,0,1,434.87,618.86Z"/><path class="cls-12" d="M432.93,618.38a.81.81,0,1,1-.8-.85A.85.85,0,0,1,432.93,618.38Z"/></g><g class="cls-11"><path class="cls-7" d="M467.72,646.86a1.9,1.9,0,1,1-1.9-1.94A1.92,1.92,0,0,1,467.72,646.86Z"/><path class="cls-12" d="M466,646.43a.74.74,0,0,1-.74.73.75.75,0,0,1,0-1.49A.72.72,0,0,1,466,646.43Z"/><path class="cls-7" d="M383,656.48a1.9,1.9,0,1,1-1.89-1.94A1.91,1.91,0,0,1,383,656.48Z"/><path class="cls-12" d="M381.3,656.05a.74.74,0,0,1-.75.73.76.76,0,0,1-.71-.76.73.73,0,1,1,1.46,0Z"/><path class="cls-7" d="M340.72,656.48a1.9,1.9,0,1,1-1.9-1.94A1.93,1.93,0,0,1,340.72,656.48Z"/><path class="cls-12" d="M339,656.05a.73.73,0,1,1-1.45,0,.73.73,0,1,1,1.45,0Z"/><path class="cls-7" d="M298.37,656.48a1.9,1.9,0,1,1-1.89-1.94A1.91,1.91,0,0,1,298.37,656.48Z"/><path class="cls-12" d="M296.63,656.05a.73.73,0,1,1-1.46,0,.73.73,0,1,1,1.46,0Z"/><path class="cls-7" d="M213.7,645.48a1.9,1.9,0,1,1-1.89-1.94A1.92,1.92,0,0,1,213.7,645.48Z"/><path class="cls-12" d="M212,645.05a.76.76,0,0,1-.75.73.75.75,0,0,1,0-1.5A.75.75,0,0,1,212,645.05Z"/><path class="cls-7" d="M256,652.41a1.9,1.9,0,1,1-1.9-1.94A1.92,1.92,0,0,1,256,652.41Z"/><path class="cls-12" d="M254.3,652a.74.74,0,1,1-1.47,0,.75.75,0,0,1,.75-.74A.75.75,0,0,1,254.3,652Z"/><path class="cls-7" d="M425.38,652.41a1.9,1.9,0,1,1-1.9-1.94A1.92,1.92,0,0,1,425.38,652.41Z"/><path class="cls-12" d="M423.64,652a.74.74,0,0,1-1.47,0,.75.75,0,0,1,.75-.74A.76.76,0,0,1,423.64,652Z"/></g><g class="cls-13"><path class="cls-9" d="M196.94,363.84l4.36,19.87c.68.11,1.36.22,2.06.31l-4.5-20.51Z"/><path class="cls-9" d="M224.9,360.21l4.72,26.87,2,.19L226.83,360Z"/><path class="cls-9" d="M253.37,357.91l4.13,31.28c.66,0,1.31.08,2,.12l-4.16-31.52Z"/><path class="cls-9" d="M282.16,356.43l3,34.09,2,.08-3-34.24Z"/><path class="cls-9" d="M311.13,355.59l1.57,35.69c.64,0,1.29,0,1.94,0l-1.58-35.76Z"/><path class="cls-9" d="M341.2,355.31h-1l0,36.22h1.94l0-36.22Z"/><path class="cls-9" d="M369.33,355.56l-1.61,35.76,1.93,0,1.6-35.69Z"/><path class="cls-9" d="M398.4,356.36l-3.07,34.24,1.94-.08,3.07-34.09Z"/><path class="cls-9" d="M427.35,357.8l-4.24,31.49c.66,0,1.31-.07,2-.12l4.2-31.24Z"/><path class="cls-9" d="M456.05,360.07l-4.88,27.16,2-.18,4.8-26.79Z"/><path class="cls-9" d="M484.3,363.64l-4.56,20.29c.69-.12,1.37-.22,2.05-.32L486.21,364Z"/></g><path class="cls-14" d="M508.29,381.06l-3.53,1.15c-1.15.4-2.58.78-4.28,1.22s-3.64,1-5.85,1.42-4.63,1-7.31,1.52l-4.17.77c-1.45.23-2.95.47-4.5.74l-4.79.75-5.1.7c-3.48.52-7.16.92-11,1.37s-7.84.81-12,1.25-8.43.74-12.84,1.12c-8.82.66-18.13,1.3-27.77,1.76-4.83.24-9.73.49-14.69.66l-7.49.28c-2.52.06-5,.12-7.57.2-10.13.28-20.42.41-30.71.45-5.17,0-10.3,0-15.43-.05l-15.3-.23c-10.14-.25-20.11-.52-29.75-1s-19-1-27.79-1.58-17.17-1.34-24.86-2.14c-3.83-.39-7.52-.78-11-1.22s-6.8-.88-9.91-1.32c-6.21-.87-11.61-1.79-16-2.64-2.22-.37-4.18-.86-5.9-1.21l-2.36-.51-2-.49-3.6-.91,3.6.89,2,.47,2.37.51c1.72.33,3.68.8,5.91,1.17,4.43.82,9.83,1.71,16.05,2.55,3.11.42,6.41.86,9.91,1.25s7.18.81,11,1.2c7.67.78,16,1.45,24.84,2.08s18.14,1.14,27.78,1.53,19.61.7,29.74.91l15.31.21c5.12,0,10.27.07,15.4,0,10.29,0,20.6-.14,30.72-.4l7.57-.18,7.49-.27c5-.15,9.86-.38,14.68-.61,9.64-.46,18.94-1.07,27.77-1.72,4.41-.37,8.69-.7,12.84-1.09s8.15-.76,12-1.22,7.52-.85,11-1.34l5.09-.67,4.81-.73,4.49-.71,4.17-.75c2.68-.46,5.12-1,7.32-1.47s4.16-.95,5.86-1.38,3.14-.8,4.28-1.21Z"/><path id="SVGID" class="cls-15" d="M509.36,376c-4,6.27-74.37,16.16-166.71,16.16s-162-7.91-167.71-16.16c-4.1-6,74.87-13.2,167.21-13.2S513.23,369.87,509.36,376Z"/><path class="cls-16" d="M439.2,375.47a27.91,27.91,0,0,0-3.89-1.93c-2.41-1.06-5.1-1.13-7.46-2.14s-5.09-1.83-7.31-3.34c-1.35-.91-2.56-2.05-3.86-3.05-1.79-1.35-3.84-2.16-5.6-3.55s-3.58-1.84-5.54-.77c-1.55.85-2.52,2.71-3.94,3.81s-3.3,2.09-4.79,3.41a14.12,14.12,0,0,1-5.65,3.46,50.33,50.33,0,0,0-5.44,1.52,14.84,14.84,0,0,1-3,1,16.13,16.13,0,0,0-6.47,3l-.12.09a.47.47,0,0,0,0,.53c.62.87,3.45-.19,4.33-.2,3.84-.1,7.67.35,11.51.2,4-.15,8-.47,12-.58,2.26-.07,4.52-.06,6.78.07,3.79.24,7.56.89,11.37.82,3.15-.06,6.27-.74,9.41-.72,2.75,0,5.63,1.13,8.32,0C440.72,376.72,440.16,376.1,439.2,375.47Z"/><path class="cls-17" d="M439.2,375.47a27.91,27.91,0,0,0-3.89-1.93c-2.41-1.06-5.1-1.13-7.46-2.14s-5.09-1.83-7.31-3.34c-1.35-.91-2.56-2.05-3.86-3.05-1.79-1.35-3.84-2.16-5.6-3.55s-3.58-1.84-5.54-.77c-1.55.85-2.52,2.71-3.94,3.81s-3.3,2.09-4.79,3.41a14.12,14.12,0,0,1-5.65,3.46,50.33,50.33,0,0,0-5.44,1.52,14.84,14.84,0,0,1-3,1,16.13,16.13,0,0,0-6.47,3l-.12.09a.47.47,0,0,0,0,.53c.62.87,3.45-.19,4.33-.2,3.84-.1,7.67.35,11.51.2,4-.15,8-.47,12-.58,2.26-.07,4.52-.06,6.78.07,3.79.24,7.56.89,11.37.82,3.15-.06,6.27-.74,9.41-.72,2.75,0,5.63,1.13,8.32,0C440.72,376.72,440.16,376.1,439.2,375.47Zm-42.8-1.26a5.72,5.72,0,0,0-1.73.3,6.09,6.09,0,0,1-1.78.58,1.61,1.61,0,0,1-1.48-.59.49.49,0,0,1-.07-.64c.45-.48,1.05-.31,1.08-1.24,0-.51.41-.75.79-.89a16.7,16.7,0,0,0,2.37-1.6,1.72,1.72,0,0,1,.52-.21c.59-.33,1.31-.43,1.54.48a.75.75,0,0,1-.29.9c-.49.37.61,1.12.68,1.5C398.25,373.88,397.11,374.15,396.4,374.21Zm10.15-.9a2.06,2.06,0,0,1-1.7.85,3.16,3.16,0,0,1-2.33-1c-.61-.89.19-1.65,1.1-2.11a6.92,6.92,0,0,1,1.59-.74,4.19,4.19,0,0,1,2.47-.4C409.38,370.39,407.09,372.77,406.55,373.31Zm2.93-8.47c-.06,1.14-.1,2.18-1,2.93a7.3,7.3,0,0,1-5.14,1.48,6.83,6.83,0,0,1-1.5,0,3.34,3.34,0,0,1-1-.19,1.69,1.69,0,0,0-1.54.14c-.39.19-1.44.1-1.16-.68a4.83,4.83,0,0,1,1.73-1.88,27.54,27.54,0,0,0,2.23-1.67,26.41,26.41,0,0,0,2.06-2,5.19,5.19,0,0,1,.8-.82.16.16,0,0,1,0-.19,3,3,0,0,1,3.34-.29,1.89,1.89,0,0,1,.53.56,1.16,1.16,0,0,1,.48.58A5.48,5.48,0,0,1,409.48,364.84Z"/><path class="cls-17" d="M439.2,375.47a27.91,27.91,0,0,0-3.89-1.93c-2.41-1.06-5.1-1.13-7.46-2.14s-5.09-1.83-7.31-3.34c-1.35-.91-2.56-2.05-3.86-3.05-.55-.41-1.13-.77-1.71-1.12l1.15,1.23a4.19,4.19,0,0,1,.91,1.17,2,2,0,0,1,.08,1.15c-.08.44-.32.95.26,1.05a2,2,0,0,0,1-.11.67.67,0,0,1,.28,0,1.71,1.71,0,0,1,.92.68,4,4,0,0,1,.54,1.61,1.18,1.18,0,0,1-.12.83,2.74,2.74,0,0,1-1.14.86,3.64,3.64,0,0,1-1.29.35,2.62,2.62,0,0,1-.79,0c-.4-.09-.59.22-.82.5a2.53,2.53,0,0,1-1.08.85c-1,.28-2-.35-2.9,0,.38.16.82.41.93.78s-.36.69-.7.75a4.14,4.14,0,0,1-1.16-.1,3.43,3.43,0,0,0-1.75.29,2.23,2.23,0,0,1-1.07.19s0,0-.08.07c-.68.24-1.17-.35-1.83-.31s-1.23.37-1.89.08-1.06-.75-1.64-1c-.85-.32-1.41.31-2,.9a2,2,0,0,1-.89.67,5.81,5.81,0,0,1-1.44.08,16,16,0,0,1-2.59-.05,4.27,4.27,0,0,0-2.13-.14,2.89,2.89,0,0,1-1.68.23c-.54-.18-1-.7-1.62-.43s-1,.78-1.57.78a19.83,19.83,0,0,1-2.31-.09,46.73,46.73,0,0,0-5.28-.4,12.35,12.35,0,0,0-2.43.32,1.69,1.69,0,0,1-1.23-.16.15.15,0,0,1-.07-.17c0-.13.09-.25.14-.37a14.87,14.87,0,0,0-1.37.92l-.12.09a.47.47,0,0,0,0,.53c.62.87,3.45-.19,4.33-.2,3.84-.1,7.67.35,11.51.2,4-.15,8-.47,12-.58,2.26-.07,4.52-.06,6.78.07,3.79.24,7.56.89,11.37.82,3.15-.06,6.27-.74,9.41-.72,2.75,0,5.63,1.13,8.32,0C440.72,376.72,440.16,376.1,439.2,375.47Z"/><path class="cls-17" d="M439.2,375.47a27.91,27.91,0,0,0-3.89-1.93c-2.41-1.06-5.1-1.13-7.46-2.14s-5.09-1.83-7.31-3.34c-.3-.2-.59-.41-.88-.63l.15.17a7.51,7.51,0,0,0,2.43,2.11c.86.42,1.75.7,2.61,1.1s1.72,1,2.59,1.43a9.57,9.57,0,0,0,3.05,1c1.94.35,3.58,1.54,5.39,2.29a.16.16,0,0,1,0,.28c-1.74,1.42-3.89-.3-5.67-.7-1.34-.31-2.3.51-3.51,1a3,3,0,0,1-1.56.22,3.76,3.76,0,0,0-1.7-.08c-1.09.31-1.84,1.41-3.05,1.18a13.06,13.06,0,0,0-2.3-.41,7.68,7.68,0,0,0-2.33.38l-.08,0a53.91,53.91,0,0,0,6.48.37c3.15-.06,6.27-.74,9.41-.72,2.75,0,5.63,1.13,8.32,0C440.72,376.72,440.16,376.1,439.2,375.47Z"/><path class="cls-16" d="M394.94,375.84a1.46,1.46,0,0,0-.3-.16c-.47-.15-1.55.7-1.67,1.21-.34,1.36,2.28,1.25,2.53.17A1.31,1.31,0,0,0,394.94,375.84Z"/><path class="cls-16" d="M394.86,376.61a.56.56,0,0,0-.45-.69,2.52,2.52,0,0,0-.55.3c-.5.42-.88,1-.58,1.3C393.74,377.94,394.76,377.19,394.86,376.61Z"/><path class="cls-16" d="M399.74,370.29a.93.93,0,0,0-.2-.1c-.33-.1-1.09.48-1.18.84-.22,1,1.61.88,1.78.12A.94.94,0,0,0,399.74,370.29Z"/><path class="cls-16" d="M399.69,370.83a.38.38,0,0,0-.31-.47,1.36,1.36,0,0,0-.4.2c-.34.29-.62.7-.39.9S399.62,371.23,399.69,370.83Z"/><path class="cls-16" d="M403.23,374.2a.7.7,0,0,0-.17-.09c-.26-.08-.88.4-1,.69-.19.78,1.31.71,1.45.1A.78.78,0,0,0,403.23,374.2Z"/><path class="cls-16" d="M403.18,374.64a.31.31,0,0,0-.25-.39.9.9,0,0,0-.32.17c-.28.23-.51.57-.33.73S403.13,375,403.18,374.64Z"/><path class="cls-16" d="M412.93,364.67l-.17-.09c-.27-.08-.89.4-.95.69-.2.78,1.3.72,1.44.1A.8.8,0,0,0,412.93,364.67Z"/><path class="cls-16" d="M412.88,365.11a.33.33,0,0,0-.25-.4,1.84,1.84,0,0,0-.33.18c-.28.24-.49.57-.31.73S412.83,365.45,412.88,365.11Z"/><path class="cls-16" d="M427,374.77a.76.76,0,0,0-.18-.09c-.26-.08-.87.4-1,.69-.19.78,1.31.72,1.45.1A.76.76,0,0,0,427,374.77Z"/><path class="cls-16" d="M427,375.21a.31.31,0,0,0-.25-.39,1,1,0,0,0-.32.17c-.29.24-.51.57-.33.73S426.92,375.54,427,375.21Z"/><path class="cls-16" d="M425.62,369.64a.65.65,0,0,0-.16-.09c-.27-.08-.88.4-.95.69-.2.78,1.3.71,1.44.1A.79.79,0,0,0,425.62,369.64Z"/><path class="cls-16" d="M425.59,370.08a.33.33,0,0,0-.26-.39,1.11,1.11,0,0,0-.32.17c-.28.23-.5.57-.32.73S425.53,370.41,425.59,370.08Z"/><path class="cls-16" d="M437.77,373.71a.51.51,0,0,0-.16-.09c-.27-.08-.89.4-1,.69-.19.78,1.31.71,1.45.1A.77.77,0,0,0,437.77,373.71Z"/><path class="cls-16" d="M437.73,374.15a.32.32,0,0,0-.25-.39,1.11,1.11,0,0,0-.32.17c-.29.24-.51.57-.32.74S437.67,374.48,437.73,374.15Z"/><path class="cls-16" d="M395.88,372.16l-.15-.08c-.23-.07-.79.36-.86.62-.16.71,1.18.64,1.3.09A.68.68,0,0,0,395.88,372.16Z"/><path class="cls-16" d="M395.85,372.56a.29.29,0,0,0-.23-.35.73.73,0,0,0-.29.15c-.27.22-.46.52-.29.67S395.79,372.85,395.85,372.56Z"/><path class="cls-16" d="M416.59,373.06l-.13-.07c-.19-.05-.64.3-.69.51-.14.58,1,.52,1.06.07A.55.55,0,0,0,416.59,373.06Z"/><path class="cls-16" d="M416.56,373.38a.23.23,0,0,0-.19-.28,1.33,1.33,0,0,0-.24.12c-.2.18-.36.42-.23.54S416.51,373.62,416.56,373.38Z"/><path class="cls-16" d="M430.16,375.28l-.12-.07c-.19-.06-.65.3-.7.51-.14.57,1,.52,1.06.07A.55.55,0,0,0,430.16,375.28Z"/><path class="cls-16" d="M430.14,375.6a.23.23,0,0,0-.19-.28.64.64,0,0,0-.24.11c-.21.18-.37.43-.24.55S430.09,375.84,430.14,375.6Z"/><path class="cls-16" d="M418.84,375.54a.52.52,0,0,0-.13-.06c-.18-.06-.61.28-.66.48-.14.55.91.51,1,.07A.57.57,0,0,0,418.84,375.54Z"/><path class="cls-16" d="M418.8,375.86a.21.21,0,0,0-.17-.28,1,1,0,0,0-.23.12c-.19.16-.35.4-.23.52S418.77,376.09,418.8,375.86Z"/><path class="cls-16" d="M419,369a.56.56,0,0,0-.17-.09c-.26-.08-.87.4-.94.68-.19.78,1.29.71,1.43.11A.74.74,0,0,0,419,369Z"/><path class="cls-16" d="M418.91,369.4a.3.3,0,0,0-.25-.39,1.36,1.36,0,0,0-.32.16c-.27.24-.5.58-.32.74S418.85,369.73,418.91,369.4Z"/><path class="cls-16" d="M410.26,371.53a1.2,1.2,0,0,0-.23-.11c-.37-.12-1.2.54-1.31.94-.26,1.06,1.79,1,2,.13A1.06,1.06,0,0,0,410.26,371.53Z"/><path class="cls-16" d="M410.2,372.14a.43.43,0,0,0-.35-.54,1.87,1.87,0,0,0-.44.23c-.39.33-.69.78-.44,1S410.12,372.59,410.2,372.14Z"/><path class="cls-16" d="M403.73,365.17l-.12-.06c-.2-.06-.65.28-.71.5-.14.57,1,.52,1.07.08A.58.58,0,0,0,403.73,365.17Z"/><path class="cls-16" d="M403.7,365.5a.25.25,0,0,0-.18-.3.8.8,0,0,0-.24.13c-.22.18-.37.42-.24.55S403.66,365.74,403.7,365.5Z"/><path class="cls-16" d="M405.55,364.77a.65.65,0,0,0-.16-.09c-.27-.08-.87.4-.95.68-.19.77,1.29.71,1.43.1A.73.73,0,0,0,405.55,364.77Z"/><path class="cls-16" d="M405.51,365.2a.31.31,0,0,0-.25-.39,1.19,1.19,0,0,0-.31.17c-.28.24-.51.57-.33.73S405.45,365.53,405.51,365.2Z"/><path class="cls-16" d="M315.31,377.92a28.54,28.54,0,0,0-3.89-1.93c-2.4-1.06-5.1-1.13-7.46-2.14s-5.08-1.83-7.3-3.33c-1.36-.92-2.56-2.06-3.86-3-1.78-1.35-3.84-2.16-5.61-3.56s-3.57-1.84-5.53-.77c-1.56.85-2.52,2.71-3.94,3.81s-3.31,2.09-4.8,3.41a14.23,14.23,0,0,1-5.64,3.47,50.59,50.59,0,0,0-5.46,1.5,12.63,12.63,0,0,1-3,1,16.06,16.06,0,0,0-6.47,3,.36.36,0,0,0-.11.1.42.42,0,0,0,0,.53c.62.85,3.45-.2,4.32-.21,3.83-.1,7.67.35,11.51.21,4-.16,8-.48,12-.6,2.26-.05,4.52-.05,6.78.09,3.79.24,7.57.88,11.37.81,3.15-.05,6.26-.74,9.41-.72,2.75,0,5.63,1.13,8.31,0C316.84,379.17,316.28,378.55,315.31,377.92Z"/><path class="cls-17" d="M315.31,377.92a28.54,28.54,0,0,0-3.89-1.93c-2.4-1.06-5.1-1.13-7.46-2.14s-5.08-1.83-7.3-3.33c-1.36-.92-2.56-2.06-3.86-3-1.78-1.35-3.84-2.16-5.61-3.56s-3.57-1.84-5.53-.77c-1.56.85-2.52,2.71-3.94,3.81s-3.31,2.09-4.8,3.41a14.23,14.23,0,0,1-5.64,3.47,50.59,50.59,0,0,0-5.46,1.5,12.63,12.63,0,0,1-3,1,16.06,16.06,0,0,0-6.47,3,.36.36,0,0,0-.11.1.42.42,0,0,0,0,.53c.62.85,3.45-.2,4.32-.21,3.83-.1,7.67.35,11.51.21,4-.16,8-.48,12-.6,2.26-.05,4.52-.05,6.78.09,3.79.24,7.57.88,11.37.81,3.15-.05,6.26-.74,9.41-.72,2.75,0,5.63,1.13,8.31,0C316.84,379.17,316.28,378.55,315.31,377.92Zm-42.8-1.26a5.6,5.6,0,0,0-1.72.3,6.53,6.53,0,0,1-1.78.59,1.65,1.65,0,0,1-1.48-.6c-.14-.18-.26-.44-.08-.64.46-.49,1.06-.31,1.08-1.24a1,1,0,0,1,.79-.89,19,19,0,0,0,2.38-1.59,1.46,1.46,0,0,1,.51-.22c.61-.34,1.32-.42,1.55.48a.73.73,0,0,1-.3.89c-.49.39.61,1.12.69,1.51C274.37,376.33,273.23,376.6,272.51,376.66Zm10.16-.9a2,2,0,0,1-1.71.84,3.16,3.16,0,0,1-2.33-1c-.61-.9.2-1.66,1.11-2.11a6.68,6.68,0,0,1,1.58-.75,4.31,4.31,0,0,1,2.48-.41C285.51,372.84,283.21,375.22,282.67,375.76Zm2.93-8.48c-.07,1.15-.09,2.2-1,2.94a7.31,7.31,0,0,1-5.15,1.48,7.53,7.53,0,0,1-1.5,0,4.23,4.23,0,0,1-1-.19,1.59,1.59,0,0,0-1.53.14c-.4.19-1.45.11-1.15-.7a4.75,4.75,0,0,1,1.71-1.87,24.33,24.33,0,0,0,2.23-1.66,23.56,23.56,0,0,0,2.06-2.06,6.88,6.88,0,0,1,.81-.81.14.14,0,0,1,0-.19,3,3,0,0,1,3.34-.29,1.68,1.68,0,0,1,.52.57,1.07,1.07,0,0,1,.49.57A5.24,5.24,0,0,1,285.6,367.28Z"/><path class="cls-17" d="M315.31,377.92a28.54,28.54,0,0,0-3.89-1.93c-2.4-1.06-5.1-1.13-7.46-2.14s-5.08-1.83-7.3-3.33c-1.36-.92-2.56-2.06-3.86-3a20.18,20.18,0,0,0-1.71-1.13c.38.41.75.82,1.15,1.23a4.14,4.14,0,0,1,.91,1.16,2.14,2.14,0,0,1,.08,1.15c-.09.46-.32,1,.25,1.07a2.1,2.1,0,0,0,1-.12,1,1,0,0,1,.29,0,1.77,1.77,0,0,1,.91.67,4.33,4.33,0,0,1,.55,1.62,1.3,1.3,0,0,1-.12.83,2.81,2.81,0,0,1-1.14.86,3.39,3.39,0,0,1-1.29.35,2.1,2.1,0,0,1-.79,0c-.39-.08-.6.21-.82.5a2.43,2.43,0,0,1-1.09.85c-1,.28-2-.35-2.89,0,.37.16.82.41.92.79s-.36.68-.7.73a3.44,3.44,0,0,1-1.15-.08,3.13,3.13,0,0,0-1.75.29,2.32,2.32,0,0,1-1.07.18s0,.06-.07.06c-.69.25-1.18-.34-1.85-.29s-1.22.36-1.88.07-1.06-.75-1.64-1c-.86-.31-1.42.32-2,.92a2.12,2.12,0,0,1-.89.66,5.37,5.37,0,0,1-1.44.08,16.11,16.11,0,0,1-2.6-.05,4.25,4.25,0,0,0-2.12-.14,3,3,0,0,1-1.68.23c-.54-.18-1.05-.69-1.63-.43s-1,.78-1.57.78a19.83,19.83,0,0,1-2.31-.09,49.17,49.17,0,0,0-5.28-.4,12.35,12.35,0,0,0-2.43.32,1.69,1.69,0,0,1-1.23-.16.16.16,0,0,1-.07-.17,2,2,0,0,1,.15-.38c-.48.3-1,.61-1.38.93a.36.36,0,0,0-.11.1.42.42,0,0,0,0,.53c.62.85,3.45-.2,4.32-.21,3.83-.1,7.67.35,11.51.21,4-.16,8-.48,12-.6,2.26-.05,4.52-.05,6.78.09,3.79.24,7.57.88,11.37.81,3.15-.05,6.26-.74,9.41-.72,2.75,0,5.63,1.13,8.31,0C316.84,379.17,316.28,378.55,315.31,377.92Z"/><path class="cls-17" d="M315.31,377.92a28.54,28.54,0,0,0-3.89-1.93c-2.4-1.06-5.1-1.13-7.46-2.14s-5.08-1.83-7.3-3.33l-.88-.64.15.17a7.41,7.41,0,0,0,2.43,2.11c.85.42,1.75.7,2.62,1.1s1.72,1,2.58,1.44a9.92,9.92,0,0,0,3,1c1.94.36,3.58,1.55,5.4,2.29a.16.16,0,0,1,0,.28c-1.74,1.43-3.89-.3-5.67-.7-1.35-.31-2.3.5-3.51,1a3.11,3.11,0,0,1-1.56.22,3.77,3.77,0,0,0-1.7-.08c-1.1.31-1.85,1.4-3.06,1.18a12.06,12.06,0,0,0-2.3-.41,8,8,0,0,0-2.32.39l-.08,0a54,54,0,0,0,6.48.37c3.15-.05,6.26-.74,9.41-.72,2.75,0,5.63,1.13,8.31,0C316.84,379.17,316.28,378.55,315.31,377.92Z"/><path class="cls-16" d="M271.05,378.29a.71.71,0,0,0-.3-.15c-.46-.16-1.54.69-1.67,1.2-.33,1.36,2.29,1.25,2.54.17A1.36,1.36,0,0,0,271.05,378.29Z"/><path class="cls-16" d="M271,379.06a.54.54,0,0,0-.44-.69,2.56,2.56,0,0,0-.57.29c-.49.43-.88,1-.57,1.3C269.86,380.4,270.87,379.63,271,379.06Z"/><path class="cls-16" d="M275.86,372.75a.66.66,0,0,0-.2-.11c-.33-.11-1.09.48-1.17.84-.24.95,1.6.87,1.77.12A.93.93,0,0,0,275.86,372.75Z"/><path class="cls-16" d="M275.8,373.28a.37.37,0,0,0-.3-.48,1.29,1.29,0,0,0-.4.21c-.34.3-.61.7-.4.91S275.74,373.69,275.8,373.28Z"/><path class="cls-16" d="M279.35,376.65a.44.44,0,0,0-.17-.08c-.27-.09-.89.39-.95.68-.19.77,1.3.71,1.44.1A.81.81,0,0,0,279.35,376.65Z"/><path class="cls-16" d="M279.3,377.09a.32.32,0,0,0-.25-.39,1.15,1.15,0,0,0-.33.17c-.28.24-.49.57-.32.74S279.25,377.41,279.3,377.09Z"/><path class="cls-16" d="M289,367.12a.53.53,0,0,0-.17-.08c-.26-.09-.87.39-.95.68-.19.78,1.3.71,1.44.1A.75.75,0,0,0,289,367.12Z"/><path class="cls-16" d="M289,367.56a.29.29,0,0,0-.25-.38.93.93,0,0,0-.32.15c-.29.25-.51.58-.33.75S288.94,367.89,289,367.56Z"/><path class="cls-16" d="M303.14,377.22a.48.48,0,0,0-.16-.08c-.27-.09-.88.4-1,.68-.19.78,1.31.71,1.45.1A.77.77,0,0,0,303.14,377.22Z"/><path class="cls-16" d="M303.1,377.67a.33.33,0,0,0-.25-.4,1,1,0,0,0-.33.17c-.28.24-.5.57-.32.74S303,378,303.1,377.67Z"/><path class="cls-16" d="M301.74,372.08a.51.51,0,0,0-.17-.07c-.26-.09-.87.39-.95.68-.19.78,1.32.71,1.44.09A.73.73,0,0,0,301.74,372.08Z"/><path class="cls-16" d="M301.7,372.53a.31.31,0,0,0-.25-.39.91.91,0,0,0-.32.17c-.29.24-.51.57-.33.74S301.64,372.85,301.7,372.53Z"/><path class="cls-16" d="M313.89,376.15a.56.56,0,0,0-.16-.07c-.27-.09-.88.39-1,.68-.19.78,1.31.71,1.45.1A.81.81,0,0,0,313.89,376.15Z"/><path class="cls-16" d="M313.85,376.6a.31.31,0,0,0-.26-.39,1.07,1.07,0,0,0-.31.17c-.29.24-.51.57-.33.74S313.79,376.92,313.85,376.6Z"/><path class="cls-16" d="M272,374.62a.35.35,0,0,0-.16-.08c-.23-.08-.79.35-.85.62-.17.7,1.18.64,1.3.09A.65.65,0,0,0,272,374.62Z"/><path class="cls-16" d="M272,375a.29.29,0,0,0-.23-.36,1.21,1.21,0,0,0-.29.16c-.25.22-.45.52-.29.66S271.91,375.3,272,375Z"/><path class="cls-16" d="M292.71,375.51l-.12-.07c-.21-.05-.65.3-.71.51-.14.57,1,.52,1.06.08A.57.57,0,0,0,292.71,375.51Z"/><path class="cls-16" d="M292.67,375.84a.24.24,0,0,0-.18-.3.89.89,0,0,0-.23.13c-.22.18-.38.42-.25.55S292.64,376.08,292.67,375.84Z"/><path class="cls-16" d="M306.29,377.73a.33.33,0,0,0-.13-.07c-.2-.05-.65.29-.71.5-.14.58,1,.53,1.06.08A.52.52,0,0,0,306.29,377.73Z"/><path class="cls-16" d="M306.25,378.05a.24.24,0,0,0-.19-.29,1,1,0,0,0-.23.12c-.21.18-.37.42-.24.55S306.2,378.29,306.25,378.05Z"/><path class="cls-16" d="M295,378l-.11-.06c-.19-.06-.62.28-.68.49-.13.55.93.5,1,.07A.52.52,0,0,0,295,378Z"/><path class="cls-16" d="M294.92,378.3a.23.23,0,0,0-.17-.28.76.76,0,0,0-.23.13c-.2.16-.36.4-.23.51S294.88,378.53,294.92,378.3Z"/><path class="cls-16" d="M295.07,371.41a.53.53,0,0,0-.17-.08c-.27-.08-.87.39-.94.68-.19.77,1.29.7,1.43.1A.8.8,0,0,0,295.07,371.41Z"/><path class="cls-16" d="M295,371.85a.32.32,0,0,0-.26-.39,1.07,1.07,0,0,0-.31.17c-.28.24-.5.57-.32.73S295,372.17,295,371.85Z"/><path class="cls-16" d="M286.38,374a.77.77,0,0,0-.24-.12c-.36-.12-1.2.54-1.3.94-.27,1.06,1.79,1,2,.13A1,1,0,0,0,286.38,374Z"/><path class="cls-16" d="M286.32,374.59a.44.44,0,0,0-.35-.54,1.55,1.55,0,0,0-.44.23c-.39.33-.69.79-.45,1S286.24,375,286.32,374.59Z"/><path class="cls-16" d="M279.84,367.62l-.12-.06c-.19-.07-.65.29-.7.51-.14.56,1,.52,1.06.07A.58.58,0,0,0,279.84,367.62Z"/><path class="cls-16" d="M279.82,368a.24.24,0,0,0-.19-.29.68.68,0,0,0-.24.12c-.2.18-.37.43-.23.55S279.77,368.19,279.82,368Z"/><path class="cls-16" d="M281.67,367.21l-.17-.08c-.25-.08-.87.4-.93.68-.19.77,1.28.71,1.42.1A.81.81,0,0,0,281.67,367.21Z"/><path class="cls-16" d="M281.63,367.65a.32.32,0,0,0-.25-.39,1.24,1.24,0,0,0-.32.17c-.28.24-.49.57-.33.73S281.57,368,281.63,367.65Z"/><path class="cls-15" d="M444.93,381.5c-4.61-1.83-12-3.69-13-4-8-2.18-17-2.32-25-4.4s-17-3.78-24.43-6.87C378,364.37,374,362,369.59,360c-6-2.78-12.85-4.44-18.75-7.33s-11.94-3.79-18.53-1.58c-5.2,1.74-8.42,5.57-13.18,7.85-5.19,2.49-11.05,4.31-16.05,7-6.15,3.33-11.18,5.75-18.89,7.13-5.93,1.07-12.53,1.64-18.25,3.12a67,67,0,0,1-9.89,2.07,73.09,73.09,0,0,0-21.68,6.13l-.38.2c-.44.33-.19.8.15,1.1,2.07,1.77,11.51-.4,14.45-.44,12.84-.19,25.66.73,38.55.44,13.4-.32,26.77-1,40.18-1.22,7.55-.13,15.11-.13,22.67.17,12.68.48,25.31,1.81,38,1.67,10.53-.12,21-1.53,31.49-1.48,9.2,0,18.83,2.33,27.81,0C450,384.07,448.17,382.79,444.93,381.5Z"/><path class="cls-18" d="M444.93,381.5c-4.61-1.83-12-3.69-13-4-8-2.18-17-2.32-25-4.4s-17-3.78-24.43-6.87C378,364.37,374,362,369.59,360c-6-2.78-12.85-4.44-18.75-7.33s-11.94-3.79-18.53-1.58c-5.2,1.74-8.42,5.57-13.18,7.85-5.19,2.49-11.05,4.31-16.05,7-6.15,3.33-11.18,5.75-18.89,7.13-5.93,1.07-12.53,1.64-18.25,3.12a67,67,0,0,1-9.89,2.07,73.09,73.09,0,0,0-21.68,6.13l-.38.2c-.44.33-.19.8.15,1.1,2.07,1.77,11.51-.4,14.45-.44,12.84-.19,25.66.73,38.55.44,13.4-.32,26.77-1,40.18-1.22,7.55-.13,15.11-.13,22.67.17,12.68.48,25.31,1.81,38,1.67,10.53-.12,21-1.53,31.49-1.48,9.2,0,18.83,2.33,27.81,0C450,384.07,448.17,382.79,444.93,381.5Zm-143.21-2.59a29,29,0,0,0-5.77.63,32.72,32.72,0,0,1-6,1.2,7.47,7.47,0,0,1-5-1.24c-.44-.36-.86-.9-.25-1.31,1.51-1,3.55-.64,3.6-2.56,0-1,1.37-1.55,2.66-1.84,3-.69,5.15-2.29,7.94-3.29a8.59,8.59,0,0,1,1.73-.42c2-.7,4.41-.89,5.18,1,.36.91,0,1.38-1,1.84-1.66.78,2,2.32,2.27,3.1C307.92,378.24,304.12,378.77,301.72,378.91Zm34-1.86a8.87,8.87,0,0,1-5.71,1.74c-2.49-.14-6.15-.56-7.79-2.06-2-1.83.66-3.4,3.69-4.34a30.45,30.45,0,0,1,5.33-1.55c2.45-.55,5.65-1.29,8.26-.83C345.19,371,337.5,375.94,335.7,377.05Zm9.81-17.45c-.23,2.37-.32,4.52-3.28,6-5,2.55-11.1,3.19-17.22,3.05a42,42,0,0,1-5,0,20.36,20.36,0,0,1-3.32-.41,8.77,8.77,0,0,0-5.12.29c-1.33.4-4.84.22-3.88-1.41s3.74-2.86,5.78-3.86c2.4-1.16,5.22-2.11,7.44-3.44s4.78-2.64,6.9-4.21a17.36,17.36,0,0,1,2.68-1.67.28.28,0,0,1,.15-.41c2.92-1.49,8-1.93,11.16-.6a5.37,5.37,0,0,1,1.78,1.18,3.12,3.12,0,0,1,1.62,1.17C346,356.62,345.65,358.19,345.51,359.6Z"/><path class="cls-18" d="M444.93,381.5c-4.61-1.83-12-3.69-13-4-8-2.18-17-2.32-25-4.4s-17-3.78-24.43-6.87C378,364.37,374,362,369.59,360c-1.85-.86-3.78-1.6-5.74-2.31,1.3.84,2.56,1.71,3.88,2.53a11.37,11.37,0,0,1,3,2.4A2.69,2.69,0,0,1,371,365c-.3.92-1.06,2,.86,2.18a11.45,11.45,0,0,0,3.33-.23,3.43,3.43,0,0,1,1-.06,6.07,6.07,0,0,1,3.05,1.39,6.51,6.51,0,0,1,1.82,3.32,1.65,1.65,0,0,1-.39,1.71,10.37,10.37,0,0,1-3.79,1.77,18.23,18.23,0,0,1-4.32.71,13,13,0,0,1-2.65,0,3.28,3.28,0,0,0-2.76,1,8.77,8.77,0,0,1-3.63,1.73c-3.26.59-6.54-.7-9.7,0,1.27.32,2.76.84,3.1,1.62.42,1-1.18,1.42-2.32,1.51a19,19,0,0,1-3.85-.18,17.21,17.21,0,0,0-5.88.6,12.35,12.35,0,0,1-3.59.38.53.53,0,0,1-.23.14c-2.29.5-3.95-.72-6.17-.62s-4.09.75-6.32.13c-1.92-.52-3.54-1.53-5.49-2-2.84-.67-4.73.62-6.76,1.85a8.38,8.38,0,0,1-3,1.39,33.71,33.71,0,0,1-4.83.16,86.24,86.24,0,0,1-8.66-.12c-2.53-.23-4.56-.8-7.12-.29a14.93,14.93,0,0,1-5.65.46c-1.77-.35-3.5-1.41-5.44-.87-1.6.46-3.42,1.6-5.24,1.6-2.58,0-5.13,0-7.71-.17-5.88-.38-11.77-.85-17.69-.83a71.08,71.08,0,0,0-8.14.66,8.77,8.77,0,0,1-4.12-.33c-.17-.06-.27-.23-.2-.35a4.82,4.82,0,0,1,.47-.77q-2.41.91-4.61,1.9l-.38.2c-.44.33-.19.8.15,1.1,2.07,1.77,11.51-.4,14.45-.44,12.84-.19,25.66.73,38.55.44,13.4-.32,26.77-1,40.18-1.22,7.55-.13,15.11-.13,22.67.17,12.68.48,25.31,1.81,38,1.67,10.53-.12,21-1.53,31.49-1.48,9.2,0,18.83,2.33,27.81,0C450,384.07,448.17,382.79,444.93,381.5Z"/><path class="cls-18" d="M444.93,381.5c-4.61-1.83-12-3.69-13-4-8-2.18-17-2.32-25-4.4s-17-3.78-24.43-6.87c-1-.41-2-.86-2.94-1.31l.5.35a25.49,25.49,0,0,0,8.11,4.35c2.86.86,5.88,1.45,8.76,2.27s5.76,2,8.65,2.95A47.57,47.57,0,0,0,415.8,377c6.48.73,11.94,3.2,18.05,4.72.38.1.42.41.11.57-5.82,2.95-13-.6-19-1.45-4.51-.62-7.7,1.07-11.75,2a16,16,0,0,1-5.23.45,20.08,20.08,0,0,0-5.69-.16c-3.67.64-6.15,2.9-10.21,2.42a65.6,65.6,0,0,0-7.71-.82,40.13,40.13,0,0,0-7.76.78c-.08,0-.19,0-.26.05,7.21.45,14.42.85,21.67.76,10.53-.12,21-1.53,31.49-1.48,9.2,0,18.83,2.33,27.81,0C450,384.07,448.17,382.79,444.93,381.5Z"/><path class="cls-15" d="M296.82,382.26a5.43,5.43,0,0,0-1-.31c-1.56-.31-5.18,1.42-5.6,2.48-1.11,2.81,7.68,2.56,8.49.35C299.06,383.86,297.93,382.72,296.82,382.26Z"/><path class="cls-15" d="M296.57,383.85c.23-.81-.57-1.31-1.5-1.42a9.33,9.33,0,0,0-1.88.61c-1.65.87-2.94,2.08-1.91,2.67C292.83,386.59,296.23,385,296.57,383.85Z"/><path class="cls-15" d="M312.92,370.84a4,4,0,0,0-.69-.22c-1.09-.21-3.62,1-3.91,1.74-.79,2,5.36,1.8,5.93.25C314.49,372,313.69,371.17,312.92,370.84Z"/><path class="cls-15" d="M312.75,372c.16-.57-.4-.93-1-1a5.66,5.66,0,0,0-1.33.42c-1.16.61-2.06,1.45-1.33,1.87C310.13,373.88,312.5,372.78,312.75,372Z"/><path class="cls-15" d="M324.58,378.88a2.77,2.77,0,0,0-.58-.17,4.35,4.35,0,0,0-3.18,1.41c-.65,1.61,4.37,1.47,4.83.2C325.85,379.79,325.21,379.14,324.58,378.88Z"/><path class="cls-15" d="M324.42,379.79c.14-.46-.31-.75-.84-.8a4.47,4.47,0,0,0-1.08.34c-.95.49-1.68,1.18-1.09,1.52A2.75,2.75,0,0,0,324.42,379.79Z"/><path class="cls-15" d="M357,359.26a3.08,3.08,0,0,0-.57-.17,4.3,4.3,0,0,0-3.18,1.41c-.65,1.6,4.36,1.47,4.82.2C358.31,360.18,357.66,359.52,357,359.26Z"/><path class="cls-15" d="M356.88,360.17c.13-.47-.32-.75-.85-.8a6.19,6.19,0,0,0-1.07.33c-.95.51-1.68,1.19-1.09,1.54A2.8,2.8,0,0,0,356.88,360.17Z"/><path class="cls-15" d="M404.2,380.07a2.29,2.29,0,0,0-.56-.18,4.36,4.36,0,0,0-3.2,1.4c-.63,1.61,4.38,1.47,4.84.21C405.47,381,404.83,380.34,404.2,380.07Z"/><path class="cls-15" d="M404.05,381c.14-.47-.31-.76-.85-.82a4.86,4.86,0,0,0-1.06.35c-.95.49-1.7,1.18-1.09,1.52A2.75,2.75,0,0,0,404.05,381Z"/><path class="cls-15" d="M399.53,369.48a3.74,3.74,0,0,0-.57-.17,4.37,4.37,0,0,0-3.19,1.42c-.63,1.6,4.37,1.47,4.83.2C400.81,370.41,400.15,369.76,399.53,369.48Z"/><path class="cls-15" d="M399.38,370.4c.14-.47-.32-.76-.85-.81a6,6,0,0,0-1.07.34c-.95.51-1.68,1.19-1.09,1.53A2.79,2.79,0,0,0,399.38,370.4Z"/><path class="cls-15" d="M440.19,377.87a4,4,0,0,0-.57-.16,4.32,4.32,0,0,0-3.19,1.41c-.64,1.6,4.36,1.47,4.83.2C441.46,378.79,440.81,378.15,440.19,377.87Z"/><path class="cls-15" d="M440,378.79c.13-.47-.33-.75-.85-.81a5.09,5.09,0,0,0-1.07.34c-.95.51-1.69,1.19-1.1,1.52A2.78,2.78,0,0,0,440,378.79Z"/><path class="cls-15" d="M300,374.69a2.91,2.91,0,0,0-.5-.16,3.92,3.92,0,0,0-2.89,1.28c-.57,1.45,4,1.32,4.37.18C301.15,375.51,300.56,374.93,300,374.69Z"/><path class="cls-15" d="M299.86,375.51c.12-.42-.28-.67-.76-.73a4.74,4.74,0,0,0-1,.31c-.86.45-1.52,1.08-1,1.38A2.5,2.5,0,0,0,299.86,375.51Z"/><path class="cls-15" d="M369.28,376.54a1.86,1.86,0,0,0-.42-.12,3.09,3.09,0,0,0-2.32,1c-.49,1.18,3.19,1.08,3.54.14C370.21,377.21,369.74,376.73,369.28,376.54Z"/><path class="cls-15" d="M369.18,377.21c.09-.34-.24-.55-.62-.6a4.84,4.84,0,0,0-.79.26c-.7.35-1.23.87-.8,1.11A2,2,0,0,0,369.18,377.21Z"/><path class="cls-15" d="M414.7,381.1a2,2,0,0,0-.41-.13,3.15,3.15,0,0,0-2.33,1c-.48,1.18,3.19,1.07,3.54.14C415.64,381.78,415.17,381.29,414.7,381.1Z"/><path class="cls-15" d="M414.59,381.76c.11-.34-.23-.54-.61-.59a4.57,4.57,0,0,0-.8.25c-.69.37-1.22.88-.8,1.13A2,2,0,0,0,414.59,381.76Z"/><path class="cls-15" d="M376.8,381.66a1.69,1.69,0,0,0-.4-.12,3,3,0,0,0-2.22,1c-.46,1.13,3.06,1,3.38.15C377.7,382.3,377.24,381.85,376.8,381.66Z"/><path class="cls-15" d="M376.71,382.3c.09-.33-.23-.54-.6-.57a3.33,3.33,0,0,0-.76.24c-.66.35-1.17.83-.76,1.07A2,2,0,0,0,376.71,382.3Z"/><path class="cls-15" d="M377.19,368.1a2.6,2.6,0,0,0-.56-.17,4.29,4.29,0,0,0-3.15,1.39c-.64,1.6,4.32,1.46,4.78.2C378.45,369,377.82,368.37,377.19,368.1Z"/><path class="cls-15" d="M377.05,369c.14-.47-.31-.76-.84-.81a4.5,4.5,0,0,0-1.06.34c-.95.49-1.67,1.18-1.09,1.51A2.77,2.77,0,0,0,377.05,369Z"/><path class="cls-15" d="M348.11,373.4a4.42,4.42,0,0,0-.78-.25c-1.21-.24-4,1.12-4.36,1.94-.88,2.2,6,2,6.61.28C349.85,374.65,349,373.76,348.11,373.4Z"/><path class="cls-15" d="M347.91,374.64c.18-.64-.44-1-1.17-1.1a7.06,7.06,0,0,0-1.47.46c-1.3.69-2.3,1.63-1.49,2.1C345,376.79,347.63,375.56,347.91,374.64Z"/><path class="cls-15" d="M326.26,360.29a1.93,1.93,0,0,0-.41-.12,3.15,3.15,0,0,0-2.35,1c-.46,1.18,3.21,1.08,3.56.15C327.2,361,326.71,360.49,326.26,360.29Z"/><path class="cls-15" d="M326.15,361c.1-.33-.23-.55-.61-.59a3.72,3.72,0,0,0-.8.26c-.69.36-1.24.86-.8,1.11A2,2,0,0,0,326.15,361Z"/><path class="cls-15" d="M332.37,359.46a2.7,2.7,0,0,0-.57-.18,4.33,4.33,0,0,0-3.15,1.4c-.63,1.59,4.33,1.46,4.79.2C333.63,360.37,333,359.72,332.37,359.46Z"/><path class="cls-15" d="M332.22,360.35c.14-.45-.31-.74-.84-.79a5,5,0,0,0-1.06.34c-.94.49-1.67,1.17-1.08,1.51A2.75,2.75,0,0,0,332.22,360.35Z"/><path class="cls-19" d="M511,250.65c9.61-6.11,15.46-16.67,17.85-29.16,1.89-9.83-6.7-21.75-14.1-27.13a71.74,71.74,0,0,0-9.94-6c1.94-5.18.65-11-2.95-16.35a29.76,29.76,0,0,0-5.88-6.3c20.71-11.31,36.87-29.62,25.35-47.79-9.59-15.12-25.58-22.65-43-25.1a51.45,51.45,0,0,0-22.53,2.26c3.86-8.57,5.5-17.44,2.86-22.32-4.48-8.29-12.19-10.24-20.23-9,.15-.79.32-1.61.44-2.36,1.8-10.55-.73-25-10.7-31.23-17.63-11-33.72-1.17-45.15,14.93a82.06,82.06,0,0,0-1.6-9.9C376,11,344.05,12.41,326.84,21.33a35.85,35.85,0,0,0-11.26,9.48c-.17.22-.35.42-.51.65a64.77,64.77,0,0,0-10.79,22.22c-11.42-20.8-29.91-36.37-50.5-23.5-10,6.22-12.49,20.68-10.69,31.23.12.75.28,1.57.43,2.36-8-1.25-15.75.7-20.23,9-2.63,4.88-1,13.75,2.86,22.32a51.45,51.45,0,0,0-22.53-2.26c-17.37,2.45-33.36,10-43,25.1-11.52,18.17,4.64,36.48,25.35,47.79a30,30,0,0,0-5.88,6.3c-3.61,5.35-4.9,11.17-2.94,16.35a71.94,71.94,0,0,0-10,6c-7.39,5.38-16,17.3-14.09,27.13,2.39,12.49,8.24,23,17.85,29.16-12.86,10-20.79,25.78-17.91,43.54,1.94,11.86,12.28,18.24,23.17,20.55a16.89,16.89,0,0,0-1.13,11.19c1.7,6.88,11.43,5.44,16.15,3.78h0c-7.32,10.07-13.13,22-6.69,32.57,9.12,15,28.37,11.33,41.17,4-2.67,7.39-2.48,13.89,3.91,17.31,9.28,5,23.64-1.68,33.07-7.43,6.49,6.64,18,10.05,25.82,10.64,8.56.66,18.46-2.16,26.26-7a16.64,16.64,0,0,0,7.25,6.29c12.62,6,29.41-2.64,40.39-9.73,8.17,6.86,20.54,11.22,31,10.41,7.8-.59,19.32-4,25.81-10.64,9.42,5.75,23.79,12.39,33.07,7.43,6.38-3.42,6.58-9.92,3.92-17.31,12.8,7.29,32.05,10.94,41.17-4,6.43-10.56.61-22.5-6.69-32.57h0c4.71,1.66,14.46,3.1,16.16-3.78a17,17,0,0,0-1.14-11.19c10.88-2.31,21.22-8.69,23.16-20.55C531.8,276.43,523.87,260.69,511,250.65Z"/><path class="cls-20" d="M511,250.65c9.61-6.11,15.46-16.67,17.85-29.16,1.89-9.83-6.7-21.75-14.1-27.13a71.74,71.74,0,0,0-9.94-6c1.94-5.18.65-11-2.95-16.35a29.76,29.76,0,0,0-5.88-6.3c20.71-11.31,36.87-29.62,25.35-47.79-9.59-15.12-25.58-22.65-43-25.1a51.45,51.45,0,0,0-22.53,2.26c3.86-8.57,5.5-17.44,2.86-22.32-4.48-8.29-12.19-10.24-20.23-9,.15-.79.32-1.61.44-2.36,1.8-10.55-.73-25-10.7-31.23-17.63-11-33.72-1.17-45.15,14.93a82.06,82.06,0,0,0-1.6-9.9C376,11,344.05,12.41,326.84,21.33a35.85,35.85,0,0,0-11.26,9.48c-.17.22-.35.42-.51.65a64.77,64.77,0,0,0-10.79,22.22c-11.42-20.8-29.91-36.37-50.5-23.5-10,6.22-12.49,20.68-10.69,31.23.12.75.28,1.57.43,2.36-8-1.25-15.75.7-20.23,9-2.63,4.88-1,13.75,2.86,22.32a51.45,51.45,0,0,0-22.53-2.26c-17.37,2.45-33.36,10-43,25.1-11.52,18.17,4.64,36.48,25.35,47.79a30,30,0,0,0-5.88,6.3c-3.61,5.35-4.9,11.17-2.94,16.35a71.94,71.94,0,0,0-10,6c-7.39,5.38-16,17.3-14.09,27.13,2.39,12.49,8.24,23,17.85,29.16-12.86,10-20.79,25.78-17.91,43.54,1.94,11.86,12.28,18.24,23.17,20.55a16.89,16.89,0,0,0-1.13,11.19c1.7,6.88,11.43,5.44,16.15,3.78h0c-7.32,10.07-13.13,22-6.69,32.57,9.12,15,28.37,11.33,41.17,4-2.67,7.39-2.48,13.89,3.91,17.31,9.28,5,23.64-1.68,33.07-7.43,6.49,6.64,18,10.05,25.82,10.64,8.56.66,18.46-2.16,26.26-7a16.64,16.64,0,0,0,7.25,6.29c12.62,6,29.41-2.64,40.39-9.73,8.17,6.86,20.54,11.22,31,10.41,7.8-.59,19.32-4,25.81-10.64,9.42,5.75,23.79,12.39,33.07,7.43,6.38-3.42,6.58-9.92,3.92-17.31,12.8,7.29,32.05,10.94,41.17-4,6.43-10.56.61-22.5-6.69-32.57h0c4.71,1.66,14.46,3.1,16.16-3.78a17,17,0,0,0-1.14-11.19c10.88-2.31,21.22-8.69,23.16-20.55C531.8,276.43,523.87,260.69,511,250.65Zm-53.33-50.4c13.12,15,7.77,34.8-6.83,46.65-16.63,13.46-43.92,15-61.44,2.45a58.79,58.79,0,0,1-9.13-8.08c-3.66,13-12.16,23.43-27.48,22.08-18.88-1.64-28.42-13-32.51-27.53-7.64,18-22.44,33.6-40.8,36.85-12.31,2.18-26.5.47-32.78-11.66-2.85-5.52-2.74-11.95-1.11-18.08-7.92,7.07-17.7,11.8-23.94,1.78a10.31,10.31,0,0,1-1.19-3.16c-16,10.68-34.83,15.31-45.17-4.61-8.59-16.57,4.76-32.71,21.09-42.07a8.23,8.23,0,0,1-5.23-2.59c-3.73-4.37-2.55-10.55.68-15,4.33-6,11.13-10.33,18.61-13.07-17.72-8.69-34.66-24.22-23.95-41.78,12.54-20.55,30-18.71,44.91-8.57a20.27,20.27,0,0,1,.85-3.73C235.89,99.67,243.2,99.82,250,104c-2.83-9.32-3.39-19.45-.82-28.11,3.83-13,17.17-25.16,31.7-19.65,12.13,4.62,19.37,17.27,23,31.68,4.28-10.77,10.84-20.63,18.08-27,10.21-9.08,27.52-14.28,37.67-2A44.78,44.78,0,0,1,368.2,76.9c4.17-3.72,9-5.9,14.34-5.41,10.3.94,13.53,9.24,12.59,18A47.57,47.57,0,0,1,417,80.17c9.73-1.37,20.52,4.87,21.13,15.37.68,11.38-4.56,24.35-10.95,34.78,14.59-5.36,33.28-9.17,43.32,2.2,19,21.52-4.39,47-23.62,59.56A34.75,34.75,0,0,1,457.67,200.25Z"/><path class="cls-21" d="M511,250.65c9.61-6.11,15.46-16.67,17.85-29.16,1.89-9.83-6.7-21.75-14.1-27.13a63,63,0,0,0-5.75-3.7c-1,0-2,.05-3,.14,6.29,8.09,10.15,17.57,9.21,28.49-1.05,12.19-11.3,23.9-22.06,29a62.44,62.44,0,0,1-14.8,4.77c10.17,6.16,24.42,16.92,20.94,30.35-3.63,13.95-18.38,16.57-34.16,13.78,3.09,6,3.15,12-2.84,16.84-8.77,7.08-19.6,2-29.22-5.82a52.33,52.33,0,0,1,.33,12.73c-1,11.19-8.59,22.53-20.44,24-23.37,3-36.5-15.47-46-34.85.45,13.5-1.7,29.4-14.76,28.13-12.11-1.16-18.6-13.56-21.74-26.74-7.05,16.14-21.14,29.89-35.8,28.86-11.31-.8-17.19-8.61-19.57-19-4.3,7.92-9.61,15.39-16.63,20.47-8,5.75-22.89,8.5-28.53-2.49-3.32-6.49-2.77-13.64-.27-20.31-8.63,7.08-18.85,12.65-24.38,4.59-4.77-7-4.49-14.32-1.7-21.53-6.66,3-13.66,5.09-20.49,4.7-12.83-.72-19-9.84-21.06-21.8-2.38-13.64,3.13-26.44,12.19-36.12-1.07.61-2.2,1.13-3.27,1.77l.05,0c-12.85,10-20.78,25.78-17.9,43.54,1.94,11.86,12.28,18.24,23.17,20.55a16.89,16.89,0,0,0-1.13,11.19c1.7,6.88,11.43,5.44,16.15,3.78h0c-7.32,10.07-13.13,22-6.69,32.57,9.12,15,28.37,11.33,41.17,4-2.67,7.39-2.48,13.89,3.91,17.31,9.28,5,23.64-1.68,33.07-7.43,6.49,6.64,18,10.05,25.82,10.64,8.56.66,18.46-2.16,26.26-7a16.64,16.64,0,0,0,7.25,6.29c12.62,6,29.41-2.64,40.39-9.73,8.17,6.86,20.54,11.22,31,10.41,7.8-.59,19.32-4,25.81-10.64,9.42,5.75,23.79,12.39,33.07,7.43,6.38-3.42,6.58-9.92,3.92-17.31,12.8,7.29,32.05,10.94,41.17-4,6.43-10.56.61-22.5-6.69-32.57h0c4.71,1.66,14.46,3.1,16.16-3.78a17,17,0,0,0-1.14-11.19c10.88-2.31,21.22-8.69,23.16-20.55C531.8,276.43,523.87,260.69,511,250.65Z"/></g></g></svg>