<svg xmlns="http://www.w3.org/2000/svg" viewBox="0 0 682 682"><defs><style>.cls-1{fill:#f1e5d9;}.cls-2{fill:#68574b;}.cls-3{fill:#7f6d5d;}.cls-4{fill:#f2ebbf;}</style></defs><g id="Layer_4" data-name="Layer 4"><circle class="cls-1" cx="341" cy="362.25" r="319.5"/><path class="cls-1" d="M540.71,6.41h-339a20,20,0,0,0-6-.91H158.93a49.15,49.15,0,0,0-9.38.91h-3.48a31.29,31.29,0,0,0-30.79,26,48.45,48.45,0,0,0-5.24,22V554a49.12,49.12,0,0,0,5.13,21.9,31.28,31.28,0,0,0,30.9,26.66h4a49.6,49.6,0,0,0,9.43.91H523.92a52.12,52.12,0,0,0,9.58-.91h7.21A31.29,31.29,0,0,0,572,571.34V37.66A31.29,31.29,0,0,0,540.71,6.41Z"/><rect class="cls-2" x="134.83" y="26.41" width="417.13" height="556.18" rx="27.66"/><path class="cls-3" d="M159,26.41H540.71A11.24,11.24,0,0,1,552,37.66v468a11.24,11.24,0,0,1-11.24,11.24H134.83a0,0,0,0,1,0,0V50.62A24.21,24.21,0,0,1,159,26.41Z"/><path class="cls-4" d="M507.51,550.68h0a32.81,32.81,0,0,1,24.62-31.75,32.71,32.71,0,0,0-8.21-1.08H179.28a32.83,32.83,0,0,0-32.83,32.83h0a32.83,32.83,0,0,0,32.83,32.82H523.92a32.71,32.71,0,0,0,8.21-1.08A32.79,32.79,0,0,1,507.51,550.68Z"/><path class="cls-2" d="M146.45,550.68a32.83,32.83,0,0,1,32.83-32.83h16.41V25.5H158.93A28.88,28.88,0,0,0,130,54.39V554a29.46,29.46,0,0,0,29.47,29.47h19.77A32.83,32.83,0,0,1,146.45,550.68Z"/><rect class="cls-4" x="228.51" y="74.74" width="279" height="131.29" rx="15.05"/></g></svg>