<svg id="Layer_1" data-name="Layer 1" xmlns="http://www.w3.org/2000/svg" viewBox="0 0 682 682"><defs><style>.cls-1{fill:#f4d7a7;}.cls-2{fill:#f7e4bd;}.cls-3{fill:#cdc5bf;}.cls-4{fill:#efba9b;}.cls-5{fill:#fff;}.cls-6{fill:#272829;}</style></defs><rect class="cls-1" x="170.52" y="330.57" width="60.3" height="205.88"/><path class="cls-2" d="M500.28,606c-22.08,1.55-45.49,2.52-70.12,2.66-29.19.16-56.72-.86-82.4-2.66v-44.3a329.17,329.17,0,0,1-24.68-70.25,117.54,117.54,0,0,0-14.45,43.44,114.13,114.13,0,0,0-.74,19.22,101.36,101.36,0,0,0-24.37,21L237.76,573l-.12-136.7c-11.42-15.35-23.06-32-34.63-50.1-14.62-22.83-27.24-44.88-38.15-65.71a64.39,64.39,0,0,1-8.33-16.21c-6.17-18-1.83-32.22,0-51.39a197.56,197.56,0,0,0-1.16-46.32c-3.47-8.2-6.64-14.66-8.86-19-2.31-4.48-2.17-3.9-10-18.31-4-7.28-5.19-9.6-8.85-16.26-2.72-4.94-5-9-6.46-11.63A108,108,0,0,1,132,90.17C152.43,54,188.87,30.71,226.88,31.31c52.18.81,100.72,46.51,106.32,108.85A76.43,76.43,0,0,1,318,162.94a71.45,71.45,0,0,0,7,21.52c3.06,6,11.57,20.51,27.85,29.11a62.76,62.76,0,0,0,25.95,7c28.52,2,129.3,47.24,169,125.94C585.82,422,566.1,525.4,500.28,606Z"/><path class="cls-3" d="M274.59,44.84a52.47,52.47,0,0,1,4.31-6.46c9-11.58,19.17-14.79,31.91-22.86A129.4,129.4,0,0,0,330.64,0c10.29,16,10.95,29.66,10.78,35.79-.45,16.33-8.13,29.76-15.52,42.69a148.25,148.25,0,0,1-8.63,13.36Q295.93,68.35,274.59,44.84Z"/><path class="cls-4" d="M330.64,0a96.52,96.52,0,0,1-8.19,33.2,96.76,96.76,0,0,1-24.58,33.2l15.95,18.11a83.9,83.9,0,0,0,14.23-22.42C339.71,35,333.45,9.36,330.64,0Z"/><path class="cls-3" d="M177.16,44.84a54,54,0,0,0-4.32-6.46c-9-11.58-19.17-14.79-31.9-22.86A128.9,128.9,0,0,1,121.1,0c-10.29,16-10.95,29.66-10.78,35.79.45,16.33,8.13,29.76,15.53,42.69a148.52,148.52,0,0,0,8.62,13.36Z"/><path class="cls-4" d="M121.1,0a96.52,96.52,0,0,0,8.19,33.2,96.76,96.76,0,0,0,24.58,33.2q-8,9.06-16,18.11a84.14,84.14,0,0,1-14.23-22.42C112,35,118.29,9.36,121.1,0Z"/><path class="cls-5" d="M157.09,104c-.1,10.85,11.93,19,22.65,18.94,10.3-.06,22-7.7,22.2-18.33.2-10.8-11.58-19-22.2-19.14S157.19,93.24,157.09,104Z"/><circle class="cls-6" cx="179.85" cy="104.69" r="15.22"/><circle class="cls-5" cx="187.01" cy="96.8" r="4.57"/><path class="cls-5" d="M251.43,104c-.11,10.85,11.93,19,22.65,18.94,10.3-.06,22-7.7,22.2-18.33.2-10.8-11.58-19-22.2-19.14S251.53,93.24,251.43,104Z"/><circle class="cls-6" cx="274.19" cy="104.69" r="15.22"/><circle class="cls-5" cx="281.35" cy="96.8" r="4.57"/><path class="cls-3" d="M298.35,580.43c0-16.11-16.17-29.36-35.83-29.36s-35.83,13.25-35.83,29.36"/><path class="cls-3" d="M235.93,545.07c0-16.11-16.18-29.36-35.84-29.36S164.26,529,164.26,545.07"/><path class="cls-3" d="M382.33,606.49c0-16.11-16.17-29.36-35.83-29.36s-35.84,13.25-35.84,29.36"/><path class="cls-3" d="M500.28,606c-2.27,1.73-5.67,4.19-10,6.86-35.12,21.76-71.17,20.34-107.62,19.21-33.64-1-71.17-1.94-123-2.88-12.15-.53-91.22-3.33-104.74,27.87-1,2.23-4.44,10.25-1,16.33,4.79,8.37,19.56,7.5,47.08,6.73,12-.34,31.18-.79,55.74-1,30,1.88,227.85,13.38,289.22-27.87,6.46-4.34,21.6-14.52,25-31.71,6.09-30.94-30.78-60-36.51-64.38Z"/><path class="cls-6" d="M221.2,148.72a21.3,21.3,0,0,1-14.59-11.65,26.57,26.57,0,0,1,29.17,0,23,23,0,0,1-5.5,6.89A23.37,23.37,0,0,1,221.2,148.72Z"/><path class="cls-6" d="M221.2,156.51a12.92,12.92,0,0,0-8.84,7.05,16.1,16.1,0,0,0,17.67,0,14.23,14.23,0,0,0-3.33-4.17A14,14,0,0,0,221.2,156.51Z"/><rect class="cls-6" x="218.82" y="145.66" width="4.76" height="12.75"/><path class="cls-3" d="M192.55,200.83c-3.06,24.44,16,45,36.95,45.14,21.19.12,40.68-20.77,37.36-45.52a55.68,55.68,0,0,1-74.31.38Z"/></svg>