<svg xmlns="http://www.w3.org/2000/svg" viewBox="0 0 682 682"><defs><style>.cls-1{fill:#fdcd5e;}</style></defs><g id="Layer_4" data-name="Layer 4"><path class="cls-1" d="M312.44,450.5a25.09,25.09,0,0,0,14.22-7.74,30.36,30.36,0,0,0,7.58-17.26H290.61a35.34,35.34,0,0,0,7.95,16.07A30.07,30.07,0,0,0,312.44,450.5Z"/><path class="cls-1" d="M297.22,396.76c1.67,0,3.61-3.1,3.61-7.1s-1.94-7.11-3.61-7.11-3.61,3.11-3.61,7.11S295.55,396.76,297.22,396.76Z"/><path class="cls-1" d="M453.37,290.12a472.85,472.85,0,0,0,10.86-59.79l.17-.67a851.68,851.68,0,0,0,31.17-96.8c5.91-23,10.86-46.38,14.83-69.91a856.28,856.28,0,0,1-145.53,14c-2.82,0-5.65,0-8.47,0a856,856,0,0,1-175-18.14,868.28,868.28,0,0,1-10.62,113.74c-9.06,56.35-21.07,94.67-31.67,128.47-7.39,23.56-14.37,45.82-19.66,71.57C102.42,455.4,109.35,546,140,642L452,668.16c-6-226.55-5.69-349.44.8-375.63Zm-71.3-47.57c.15-13.54.15-76.5,0-89.88V152c0-3.46,1.25-7.08,4.56-8.5h1.42c6.29,0,12.9,1.42,17.63,5.67,16.84,15.11,20,42.18,19,63.59-1.26,30.38-8.34,59.34-34.31,62.49-5,.63-8.34-.16-8.34-6Zm-39.51-95.23c28.17,3.14,24.08,70.2,22.51,91.14-1.1,11.49-6.93,31.48-22.67,31.48-27.86,0-29.12-47.54-29.12-66C313.28,184,314.7,147.32,342.56,147.32Zm-68.79,0c28.18,3.14,24.09,70.2,22.51,91.14-1.1,11.49-6.92,31.48-22.67,31.48-27.86,0-29.12-47.54-29.12-66C244.49,184,245.91,147.32,273.77,147.32Zm-77.91,15.9c0-8,5.19-12.91,18.1-13.7,3.93,0,16-1.73,16.37,4.72,0,2.21-2.52,2.84-4.25,3-4.72-.15-20.47-2-20.47,6.46V165c.63,10.23,1.42,22.82,2.52,31.79a53.46,53.46,0,0,0,8.82.16c2.52-.16,11.65-3.78,11.65,1.89,0,7.4-16.37,5.35-20,6.77-1.26,17.16,2.83,34.31,3,53.52v.63c0,6.77-7.24,5.35-8.19.63-1.89-15.43-6.77-66.12-7.55-96.81Zm225.48,263.3c-4.65,4.46-11.36,6.71-20,6.71-.77,0-1.57,0-2.38-.07a53.72,53.72,0,0,1,.1,21.32c-3.43,16.41-13.14,33.18-27.15,46.27h2v25.67l-.92.8c-7,6.07-30.28,23.93-61.17,23.93a78.91,78.91,0,0,1-12.26-.95,83.59,83.59,0,0,1-35.36-14.42l-1.15-.8V509.42c-16.92-11.53-29.77-28.39-34.16-47.2a69,69,0,0,1-1.75-15.78c-7.13,4.63-14.85,7.05-21.64,7.05-5.32,0-10.07-1.48-13.51-4.54-6.47-5.75-7.68-16.3-3.6-31.34,3.27-12.07,9.59-19.05,16.27-26.44,1.92-2.12,3.9-4.31,5.92-6.72,13-15.6,17.32-28.75,20.8-39.31,3.57-10.86,6.65-20.23,17.58-26.94,11.36-7,26.54-8.09,45.08-3.35,14.72-7.52,31.92-2.14,39.26.85,15-.33,42.79,2.32,64.89,22.36,17.95,16.29,30.69,43,31,65C429.37,413.32,426.65,421.44,421.34,426.52Z"/><path class="cls-1" d="M392.81,432.62l-.39-1.91q-1.1-5.29-2.45-10.5c-3.92-11.84-10.17-26.15-18.34-44.86q-2.53-5.78-4.93-10.74c-1.28-2.13-2.59-4.25-3.95-6.34a208.78,208.78,0,0,0-31.39-37.6,56,56,0,0,0-20.32-4.3A31.33,31.33,0,0,0,295.9,320a33.4,33.4,0,0,0-9.55,11.5c-2.33,4.73-2.72,8.65-3.17,13.2-.2,2-.41,4.08-.78,6.32-1.66,9.91-5.37,16.25-11.5,26.75A82.76,82.76,0,0,1,259.66,393c-3.39,4.17-6.54,7.42-9.44,10.4a89.61,89.61,0,0,0-7.9,8.89q-.72,1.15-1.47,2.43a74.37,74.37,0,0,0-5.75,12.72c-1.51,5.4-4.39,18.81-.94,33.55,7.38,31.62,40.5,57.41,75.39,58.72,43.19,1.56,77.34-33.18,84.27-66.34,1.34-6.46,1.15-13.1-.42-20.7ZM330.41,380c5.22,0,9.32,5.16,9.32,11.76s-4.1,11.76-9.32,11.76-9.32-5.17-9.32-11.76S325.19,380,330.41,380Zm-33.19-2.8c5,0,9,5.48,9,12.47s-3.94,12.45-9,12.45-9-5.47-9-12.45S292.2,377.19,297.22,377.19Zm42.55,45.68c-.08,4.19-1.15,14.86-9.19,23.53A30.41,30.41,0,0,1,315,455.46v20.6l12.14,6.24-2.44,4.76-12.48-6.42-15.3,6.5-2.09-4.93,14.81-6.29V455.21a35.45,35.45,0,0,1-15-10.09,41.39,41.39,0,0,1-9.77-22l-.38-3h55.43Z"/><path class="cls-1" d="M330.41,398.15c1.87,0,4-2.63,4-6.4s-2.09-6.4-4-6.4-4,2.63-4,6.4S328.54,398.15,330.41,398.15Z"/><path class="cls-1" d="M394.64,342c-16.65-15.11-36.89-19.65-51.56-20.71,7.73,6,17.11,17.4,28.38,40.81a214.06,214.06,0,0,1,23.66,56.59c1,3.15,1.93,6.15,2.65,9,9,.68,15.67-1.05,19.87-5.09s6.36-10.78,6.24-19.54C423.6,382.84,411.3,357.15,394.64,342Z"/><path class="cls-1" d="M341.93,262.07c15.42,0,15.58-40,15.58-49.9v-.63c0-12.12-3.3-56.2-18.26-56.2-11.8,0-16.84,26.29-16.84,34.16-.16,5-.16,9.45-.16,13.85C322.25,249.48,330.75,262.07,341.93,262.07Z"/><path class="cls-1" d="M415.91,214.69c0-12.44-.79-61.08-22.67-61.08h-1.1c-.32,8.82-1.1,49.9-1.1,58.56,0,14-.32,37.94,0,54C410.56,263.17,415.91,232,415.91,214.69Z"/><path class="cls-1" d="M273.14,262.07c15.43,0,15.59-40,15.59-49.9v-.63c0-12.12-3.31-56.2-18.26-56.2-11.81,0-16.85,26.29-16.85,34.16-.15,5-.15,9.45-.15,13.85C253.47,249.48,262,262.07,273.14,262.07Z"/><path class="cls-1" d="M309.35,525.08a87.92,87.92,0,0,1-40.89-12.28v19.38a78.2,78.2,0,0,0,32,12.73c33.34,5.19,59.6-13.75,68.18-20.94V503.69c-15.05,12.82-34.48,21.45-56.19,21.45C311.4,525.14,310.38,525.12,309.35,525.08Z"/><path class="cls-1" d="M250.35,394.74c1.74-1.67,3.5-3.36,5.31-5.3,1.66-2,3.36-4.31,5.12-6.88,10.69-15.71,13.8-29,16.29-39.69,2.3-9.82,4.21-17.95,10.94-23.93a74,74,0,0,0-14.71-1.62c-8.38,0-15.57,1.81-21.49,5.44-9.26,5.69-11.79,13.39-15.3,24.05-3.61,11-8.11,24.68-21.77,41.07-2.06,2.47-4.09,4.72-6.05,6.88-6.52,7.2-12.15,13.43-15.08,24.24-3.51,12.93-2.84,21.66,2,25.95,5.56,4.94,18.45,4.58,30.68-4.39A91.35,91.35,0,0,1,230,425.82c.15-.51.28-1,.4-1.33a49.73,49.73,0,0,1,7.5-15.2C242.11,402.65,246.12,398.79,250.35,394.74Z"/><path class="cls-1" d="M462.16,65V13.84H447.05v52.9Q454.61,65.93,462.16,65Z"/><path class="cls-1" d="M511.33,57.34q3.51-21.71,5.88-43.5H496.76V59.92Q504.07,58.69,511.33,57.34Z"/><path class="cls-1" d="M347.54,71.55V13.84H316.06v56.8Q331.8,71.39,347.54,71.55Z"/><path class="cls-1" d="M281.46,68.28V13.84H251.14V65Q266.28,66.92,281.46,68.28Z"/><path class="cls-1" d="M216.55,60V13.84H181.48q.48,19.76.05,39.55Q199,57.07,216.55,60Z"/><path class="cls-1" d="M245.79,64.36V13.84H221.9v47Q233.83,62.8,245.79,64.36Z"/><path class="cls-1" d="M364.82,71.59q6-.06,12-.22V13.84H352.9V71.61Q358.86,71.64,364.82,71.59Z"/><path class="cls-1" d="M474.45,658.89A39.76,39.76,0,0,0,480,654a39.82,39.82,0,0,1,4.6-4.21,49.83,49.83,0,0,1,34.48-9.7c6.15.65,9.65,2.41,14.08,4.65a106.37,106.37,0,0,0,19,7.66c3.91,1.2,7.85,2.24,11.76,3.11,3.24-26.42,5.5-53.33,6.71-80.05,4.62-102-6.86-175.81-19-254-1.92-12.36-3.86-24.8-5.74-37.43-11.8-79.3-20.68-161.35-26.46-244.31a856,856,0,0,1-18.63,94.48,856.07,856.07,0,0,1-31.25,97.09,479,479,0,0,1-10.94,60.12l-.51,2.07c-6.37,25.69-6.59,151.44-.74,374.09A57.6,57.6,0,0,0,474.45,658.89Z"/><path class="cls-1" d="M310.7,70.35V13.84H286.82V68.72Q298.75,69.71,310.7,70.35Z"/><path class="cls-1" d="M491.4,60.79V13.84H467.52V64.3Q479.49,62.73,491.4,60.79Z"/><path class="cls-1" d="M412.46,69.76V13.84H382.14V71.23Q397.29,70.77,412.46,69.76Z"/><path class="cls-1" d="M441.7,67.3V13.84H417.81V69.38Q429.77,68.51,441.7,67.3Z"/></g></svg>