<svg id="Layer_1" data-name="Layer 1" xmlns="http://www.w3.org/2000/svg" viewBox="0 0 682 682"><defs><style>.cls-1{fill:#cdc5bf;}.cls-2{fill:#efba9b;}.cls-3{fill:#f4d7a7;}.cls-4{fill:#f7e4bd;}.cls-5{fill:#272829;}.cls-6{fill:#fff;}</style></defs><path class="cls-1" d="M620.33,138.61a49.37,49.37,0,0,1,3.91-5.87c8.16-10.5,17.4-13.42,29-20.74a117.72,117.72,0,0,0,18-14.09c9.34,14.52,9.93,26.91,9.78,32.48-.4,14.82-7.38,27-14.09,38.74a135.85,135.85,0,0,1-7.82,12.13Z"/><path class="cls-2" d="M671.2,97.91a87.3,87.3,0,0,1-29.74,60.26l14.48,16.44a76.6,76.6,0,0,0,12.91-20.35C679.43,129.64,673.75,106.41,671.2,97.91Z"/><path class="cls-1" d="M531.91,138.61a49.37,49.37,0,0,0-3.91-5.87c-8.16-10.5-17.4-13.42-29-20.74a117.72,117.72,0,0,1-18-14.09c-9.34,14.52-9.93,26.91-9.78,32.48.4,14.82,7.38,27,14.08,38.74a137.85,137.85,0,0,0,7.83,12.13Z"/><path class="cls-2" d="M481,97.91a87.3,87.3,0,0,0,29.74,60.26L496.3,174.61a76.6,76.6,0,0,1-12.91-20.35C472.81,129.64,478.49,106.41,481,97.91Z"/><path class="cls-1" d="M161.08,267.82,199.94,229c-4.24-8.57-10.74-21.49-19-37.05-30.86-58.26-46.78-87.8-70.49-107.55C98.64,74.51,78.61,61,47.21,52.73c-26.27-1.18-44.52,6.1-46.1,15.36C.07,74.25,6.33,81.62,12,85.26,21.47,91.42,31.43,88.4,32.75,88c34.34,10.47,55.26,27.6,66,38,30.32,29.33,41.6,65.2,51.51,96.7a335.79,335.79,0,0,1,10.85,45.19"/><path class="cls-3" d="M257.73,496,296,585.9l48-18L325.19,517.7a207.63,207.63,0,0,0,51-99.69A75.14,75.14,0,0,0,308,409.76Z"/><path class="cls-1" d="M365.11,594.32c0-16.07-16.14-29.29-35.75-29.29s-35.75,13.22-35.75,29.29"/><rect class="cls-3" x="486.77" y="453.63" width="44.86" height="129.27"/><path class="cls-1" d="M546.47,600.44c0-16.06-16.14-29.29-35.75-29.29S475,584.38,475,600.44"/><path class="cls-4" d="M484.33,235.91a405.08,405.08,0,0,0-143.08-28.62c-59.36-.86-133.19-1.93-170.59,47.33-25.93,34.15-32.18,89.66-22,129.87,3.6,14.23,9.87,29,13.21,56.13a259.58,259.58,0,0,1,0,62.73q-6.62,17.05-13.21,34.12l51.73,84.74L248.8,598,218,540.77c5.63-7.2,14.58-18.18,26.41-30.82,20.83-22.24,30.38-28,41.82-41.82,9.35-11.27,21.1-29.27,28.62-57.23,4.3-.55,63.55-7.15,96.85,35.22,13.36,17,17.36,35.28,18.71,46.23v89.14l27.51,47.33,41.83-27.52L482.13,576V479.14a177.78,177.78,0,0,0,69.33-28.62c77-53.68,81.08-151.89,81.45-166.19,35.36-35.48,39.65-89,14.31-123.26-34-45.94-110-41.49-144.18-2.2C477.55,188.19,483.09,228.08,484.33,235.91Z"/><path class="cls-1" d="M524.57,629.4c0-16.07-16.14-29.29-35.75-29.29s-35.75,13.22-35.75,29.29"/><path class="cls-1" d="M270.32,625.26c0-16.07-16.14-29.29-35.75-29.29s-35.75,13.22-35.75,29.29"/><path class="cls-5" d="M576.92,239.18a17.46,17.46,0,0,1-12-9.58,21.84,21.84,0,0,1,24,0,19.06,19.06,0,0,1-12,9.58Z"/><path class="cls-5" d="M576.92,245.59a10.63,10.63,0,0,0-7.27,5.8,13.24,13.24,0,0,0,14.53,0,11.37,11.37,0,0,0-2.74-3.43A11.69,11.69,0,0,0,576.92,245.59Z"/><rect class="cls-5" x="574.96" y="236.67" width="3.91" height="10.49"/><path class="cls-1" d="M528.08,290.14c-5,24.06,12.3,46.06,33.09,47.88,21.07,1.84,42.13-17.36,40.83-42.24a55.55,55.55,0,0,1-73.92-5.64Z"/><path class="cls-6" d="M588.86,208.57c-.09,9.29,10.21,16.27,19.38,16.22,8.81,0,18.82-6.59,19-15.69s-9.9-16.27-19-16.38S589,199.39,588.86,208.57Z"/><circle class="cls-5" cx="608.34" cy="209.18" r="13.02"/><circle class="cls-6" cx="614.46" cy="202.43" r="3.91"/><path class="cls-6" d="M526.79,208.57c-.08,9.29,10.21,16.27,19.39,16.22,8.8,0,18.82-6.59,19-15.69s-9.91-16.27-19-16.38S526.88,199.39,526.79,208.57Z"/><circle class="cls-5" cx="546.27" cy="209.18" r="13.02"/><circle class="cls-6" cx="552.4" cy="202.43" r="3.91"/></svg>