<svg id="Layer_1" data-name="Layer 1" xmlns="http://www.w3.org/2000/svg" viewBox="0 0 682 682"><defs><style>.cls-1{fill:#9a591b;}.cls-2,.cls-3{fill:#562d0f;}.cls-2{opacity:0.85;}.cls-4{fill:#f4a8a4;}.cls-5{fill:#764116;}.cls-6{fill:#fff;}</style></defs><path class="cls-1" d="M254.94,409.6a45.57,45.57,0,0,0-35.15,0,280.79,280.79,0,0,0-17.58-56.23A280.63,280.63,0,0,0,178.78,310a115.35,115.35,0,0,0-22.26,34c-16.36,38.59-6.25,74.78-2.34,86.7A24.12,24.12,0,0,0,141.29,426a23.86,23.86,0,0,0-11.72,2.34A122.15,122.15,0,0,0,124.89,467c1.51,36.92,19.69,63.13,28.12,73.81a15.77,15.77,0,0,0-11.92-4.28,15.33,15.33,0,0,0-9.17,4.28,104.62,104.62,0,0,0,23.43,46.87c22.75,25.94,51.61,32.32,60.92,34Z"/><path class="cls-2" d="M246.88,439.65a263.58,263.58,0,0,0-23.7,52c-8.07,24.42-10.22,43-13,68-4.93,44.7-7.17,67.45,3.82,87.13,9.23,16.53,23.29,26.11,32.87,31.34h181.9v-279Z"/><path class="cls-3" d="M270.58,309.38H452.73a63,63,0,0,1,18,18A64.52,64.52,0,0,1,481,364.12V679.68H402.28V460.75c-4.29-23.82-25.89-39.94-47.89-37.63-19,2-35.09,17.36-38.49,37.63V678.83H235.51V362.41c.7-15.11,5.4-24.36,9.41-29.94,9.05-12.58,26.15-22.49,25.73-23.06C270.64,309.38,270.6,309.38,270.58,309.38Z"/><path class="cls-1" d="M225.84,682a46.79,46.79,0,0,1,93.58,0"/><path class="cls-1" d="M395.56,682a46.79,46.79,0,1,1,93.58,0"/><path class="cls-4" d="M339.2,274.93h40.92a.17.17,0,0,1,.17.17v56a4.73,4.73,0,0,1-4.73,4.73H343.91a4.87,4.87,0,0,1-4.87-4.87V275.1A.17.17,0,0,1,339.2,274.93Z"/><path class="cls-5" d="M257.27,9.3c3.79-1.2,9.67-2.92,17-4.52C309.63-3,322,4.53,362.35,3.65c37.36-.82,49.68-7.78,79.09,0A140.68,140.68,0,0,1,458.39,9.3c1.14,6.1,2.88,16,4.52,28.24,6.85,51.36,2.07,71.34,11.3,105.08A190.81,190.81,0,0,0,490,182.17q-14.11,49.71-28.24,99.43a74.24,74.24,0,0,0-4.52-30.51c-5.41-14.26-14.15-23.18-28.25-37.29C415.18,200,408.27,193.06,400.76,189c-23.44-12.85-55.31-13-79.09,0-6,3.3-14.94,12.37-32.76,30.5-16.26,16.54-20.85,23.44-23.73,31.64a61.29,61.29,0,0,0-2.26,30.51L232.41,173.13A125.69,125.69,0,0,0,246,143.75c9.58-30.72,2.35-50.27,5.65-93.78A333.82,333.82,0,0,1,257.27,9.3Z"/><path class="cls-1" d="M262.92,281.6a85.93,85.93,0,0,0,4.53,18c3.51,9.45,13.4,36.06,31.66,38.73,21.5,3.15,41-28.9,43.73-33.32a81.53,81.53,0,0,0,5.84-11.58h22.86c13.74,33,39.13,50.79,55.85,46.15,16.32-4.53,26.49-31,29.16-37.9a93.3,93.3,0,0,0,5.23-20.09c1.26-17.91-3-30.18-6.4-37.27-3.7-7.74-13.52-17.69-33-37.26-15.06-15.12-18.22-17.38-22-19.48-14-7.74-27.37-8.19-35.57-8.47s-24-.62-40.65,7.62c-8.38,4.16-15,10.73-27.94,23.72C277.41,229.3,268,239,264,252.8A62.63,62.63,0,0,0,262.92,281.6Z"/><path class="cls-3" d="M490,182.17l27.57,38.32c40-55,47.58-113.52,32.27-142.53-13.55-25.66-30.3-36.2-30.3-36.2-7.85-4.93-12.51-5.56-25.68-14.3-6.81-4.53-11.78-8.49-20.62-12.63A96.25,96.25,0,0,0,458.39,9.3c4.09,28.73,5.94,52,6.88,67.81,1.93,32.58,1.12,52.46,11.36,78.7A152.28,152.28,0,0,0,490,182.17Z"/><path class="cls-3" d="M257.27,9.3a142.75,142.75,0,0,1-19.19,12.19c-4.31,2.28-7.22,3.55-11.64,5.59,0,0-14.74,6.82-26.08,13-16.66,9.14-25.61,28.53-30.28,38.66-14.1,30.56-5.43,87.36,31.21,143.45a154.49,154.49,0,0,0,31.12-49.1,115.37,115.37,0,0,0,14.06-26.82c9.19-25.19,5.94-44.44,6.05-75A437.22,437.22,0,0,1,257.27,9.3Z"/><circle class="cls-6" cx="305.15" cy="142.05" r="25.23"/><circle class="cls-6" cx="424.57" cy="142.05" r="25.23"/><circle class="cls-3" cx="304.93" cy="142.73" r="20.5"/><circle class="cls-3" cx="424.43" cy="142.73" r="20.5"/><circle class="cls-6" cx="294.97" cy="132.11" r="6.15"/><circle class="cls-6" cx="414.79" cy="132.11" r="6.15"/><path class="cls-5" d="M361.25,279a59.62,59.62,0,0,1-42.8-49.69,41.32,41.32,0,0,1,9.07-10.52C339.34,209,353.24,209,359.8,209c6,0,17.25.09,28.65,7.25a47.6,47.6,0,0,1,13.42,12.7,58.52,58.52,0,0,1-9.79,27.2A59.72,59.72,0,0,1,361.25,279Z"/></svg>