<svg xmlns="http://www.w3.org/2000/svg" viewBox="0 0 682 682"><defs><style>.cls-1{fill:#f1e5d9;}.cls-2{fill:#d24335;}.cls-3{fill:#c1f7ff;}.cls-4{fill:#7f6d5d;}.cls-5{fill:#e17452;}.cls-6{fill:#ffe9ad;}.cls-7{fill:#be9168;}.cls-8{fill:#eeb43d;}</style></defs><g id="Layer_4" data-name="Layer 4"><circle class="cls-1" cx="341" cy="362.25" r="319.5"/><path class="cls-1" d="M115.5,565.5c-11,0-27-7-27-18L76,316.45A67.21,67.21,0,0,1,36.43,255V128.55a20,20,0,0,1,20-20h55.09v-59a20,20,0,0,1,20-20h419a20,20,0,0,1,20,20v59.05h55.09a20,20,0,0,1,20,20V255a67.21,67.21,0,0,1-39.52,61.43l-12,220.05a20,20,0,0,1-20,20Z"/><rect class="cls-2" x="95.95" y="199.69" width="490.1" height="347.81"/><rect class="cls-3" x="127.13" y="247.12" width="260.86" height="197.62" rx="42.85"/><rect class="cls-4" x="435.42" y="239.21" width="126.48" height="308.29"/><path class="cls-5" d="M56.43,128.55h94.86a0,0,0,0,1,0,0V255a47.43,47.43,0,0,1-47.43,47.43h0A47.43,47.43,0,0,1,56.43,255V128.55a0,0,0,0,1,0,0Z"/><path class="cls-6" d="M151.29,128.55h94.86a0,0,0,0,1,0,0V255a47.43,47.43,0,0,1-47.43,47.43h0A47.43,47.43,0,0,1,151.29,255V128.55a0,0,0,0,1,0,0Z"/><path class="cls-5" d="M246.14,128.55H341a0,0,0,0,1,0,0V255a47.43,47.43,0,0,1-47.43,47.43h0A47.43,47.43,0,0,1,246.14,255V128.55a0,0,0,0,1,0,0Z"/><path class="cls-6" d="M341,128.55h94.86a0,0,0,0,1,0,0V255a47.43,47.43,0,0,1-47.43,47.43h0A47.43,47.43,0,0,1,341,255V128.55A0,0,0,0,1,341,128.55Z"/><path class="cls-5" d="M435.86,128.55h94.86a0,0,0,0,1,0,0V255a47.43,47.43,0,0,1-47.43,47.43h0A47.43,47.43,0,0,1,435.86,255V128.55A0,0,0,0,1,435.86,128.55Z"/><path class="cls-6" d="M530.71,128.55h94.86a0,0,0,0,1,0,0V255a47.43,47.43,0,0,1-47.43,47.43h0A47.43,47.43,0,0,1,530.71,255V128.55A0,0,0,0,1,530.71,128.55Z"/><circle class="cls-7" cx="538.18" cy="397.31" r="15.81"/><rect class="cls-8" x="131.52" y="49.5" width="418.95" height="79.05"/></g></svg>