<svg xmlns="http://www.w3.org/2000/svg" xmlns:xlink="http://www.w3.org/1999/xlink" viewBox="0 0 1272.14 2253.93"><defs><style>.cls-1{fill:none;}.cls-2{fill:#c6b89b;}.cls-3{fill:#b2a287;}.cls-4{fill:#ce964d;}.cls-5{fill:#edc179;}.cls-6{clip-path:url(#clip-path);}.cls-7{fill:#ebb063;}.cls-8{fill:#9b6623;}.cls-9{clip-path:url(#clip-path-2);}</style><clipPath id="clip-path"><path class="cls-1" d="M1262.36,2102.79l-55.77-11.15,55.28-11-1-47.08-93.57-46.79,93.1,25.86-.92-41.81-105.3-23.4,104.26-23.16L1258,1908h-90.78l89.92-38.54-1-43.34-49.62-9.93,49.18-9.83-1.14-51.4-87.38-43.69,87,24.85-2.3-103.54h-84.66l83.58-35.82c-5.5-59.32-55.76-106.17-116.46-106.17H124.91c-48.74,0-90.74,30.22-108.26,72.83L118,1586,8,1610.43,10.11,1706l55.47,11.09-55,11,1.05,47.29,93.26,46.63-92.8-25.78.93,41.8,105,23.33-104,23.1.36,16.24h90.48l-89.63,38.41,1,43.54,49.32,9.86-48.88,9.77,1.14,51.61,87.08,43.54-86.66-24.76,1.09,49.13a115.86,115.86,0,0,0,13.5,54.32h72.07l-55.48,23.78a116.78,116.78,0,0,0,86.9,38.88H1145.8a116,116,0,0,0,43.09-8.3l-34.76-7.73,71.79-15.95a116.68,116.68,0,0,0,36.86-85Z"/></clipPath><clipPath id="clip-path-2"><polygon class="cls-1" points="2553.1 1026.69 1310.87 1064.27 1310.03 1036.38 1362.73 993.57 1308.69 992.36 1306.76 928.47 1306.16 908.59 1360.11 860.05 1304.01 837.59 1302.36 782.9 2544.6 745.32 2545.17 764.48 2473.83 792.23 2546.67 814.19 2547.5 841.17 2549.77 916.43 2492.47 938.07 2551.66 978.92 2553.1 1026.69"/></clipPath></defs><g id="Layer_9" data-name="Layer 9"><rect class="cls-2" x="319.79" width="25.26" height="528.18"/><path class="cls-3" d="M322.61,471.15l17.63,12.49c2.2,1.56,4.28-2.06,2.11-3.6q-8.82-6.24-17.63-12.49c-2.2-1.56-4.28,2.06-2.11,3.6Z"/><path class="cls-3" d="M322.61,437.79l17.63,12.49c2.2,1.56,4.28-2.06,2.11-3.59l-17.63-12.5c-2.2-1.56-4.28,2.06-2.11,3.6Z"/><path class="cls-3" d="M322.61,404.43l17.63,12.5c2.2,1.55,4.28-2.06,2.11-3.6l-17.63-12.5c-2.2-1.55-4.28,2.06-2.11,3.6Z"/><path class="cls-3" d="M322.61,371.08q8.82,6.24,17.63,12.49c2.2,1.56,4.28-2.06,2.11-3.6l-17.63-12.49c-2.2-1.56-4.28,2.06-2.11,3.6Z"/><path class="cls-3" d="M322.61,337.72l17.63,12.49c2.2,1.56,4.28-2.06,2.11-3.6l-17.63-12.49c-2.2-1.56-4.28,2.06-2.11,3.6Z"/><path class="cls-3" d="M322.61,304.36l17.63,12.49c2.2,1.56,4.28-2.06,2.11-3.6l-17.63-12.49c-2.2-1.56-4.28,2.06-2.11,3.6Z"/><path class="cls-3" d="M322.61,271l17.63,12.49c2.2,1.56,4.28-2.06,2.11-3.6L324.72,267.4c-2.2-1.56-4.28,2.06-2.11,3.6Z"/><path class="cls-3" d="M322.61,237.64l17.63,12.49c2.2,1.56,4.28-2.06,2.11-3.6q-8.82-6.24-17.63-12.49c-2.2-1.56-4.28,2.06-2.11,3.6Z"/><path class="cls-3" d="M322.61,204.28l17.63,12.5c2.2,1.55,4.28-2.06,2.11-3.6l-17.63-12.5c-2.2-1.56-4.28,2.06-2.11,3.6Z"/><path class="cls-3" d="M322.61,170.92l17.63,12.5c2.2,1.56,4.28-2.06,2.11-3.6l-17.63-12.5c-2.2-1.55-4.28,2.06-2.11,3.6Z"/><path class="cls-3" d="M322.61,137.57q8.82,6.24,17.63,12.49c2.2,1.56,4.28-2.06,2.11-3.6L324.72,134c-2.2-1.56-4.28,2.06-2.11,3.6Z"/><path class="cls-3" d="M322.61,104.21l17.63,12.49c2.2,1.56,4.28-2.06,2.11-3.6l-17.63-12.49c-2.2-1.56-4.28,2.06-2.11,3.6Z"/><path class="cls-3" d="M322.61,70.85l17.63,12.49c2.2,1.56,4.28-2.06,2.11-3.6L324.72,67.25c-2.2-1.56-4.28,2.06-2.11,3.6Z"/><path class="cls-3" d="M322.61,37.49,340.24,50c2.2,1.56,4.28-2.06,2.11-3.6L324.72,33.89c-2.2-1.56-4.28,2.06-2.11,3.6Z"/><path class="cls-3" d="M322.61,4l17.63,12.5c2.2,1.55,4.28-2.06,2.11-3.6L324.72.38c-2.2-1.56-4.28,2.06-2.11,3.6Z"/><rect class="cls-2" x="927.09" width="25.26" height="528.18"/><path class="cls-3" d="M929.92,471.15l17.63,12.49c2.2,1.56,4.28-2.06,2.1-3.6L932,467.55c-2.2-1.56-4.28,2.06-2.1,3.6Z"/><path class="cls-3" d="M929.92,437.79q8.8,6.25,17.63,12.49c2.2,1.56,4.28-2.06,2.1-3.59L932,434.19c-2.2-1.56-4.28,2.06-2.1,3.6Z"/><path class="cls-3" d="M929.92,404.43l17.63,12.5c2.2,1.55,4.28-2.06,2.1-3.6L932,400.83c-2.2-1.55-4.28,2.06-2.1,3.6Z"/><path class="cls-3" d="M929.92,371.08l17.63,12.49c2.2,1.56,4.28-2.06,2.1-3.6q-8.8-6.25-17.63-12.49c-2.2-1.56-4.28,2.06-2.1,3.6Z"/><path class="cls-3" d="M929.92,337.72l17.63,12.49c2.2,1.56,4.28-2.06,2.1-3.6L932,334.12c-2.2-1.56-4.28,2.06-2.1,3.6Z"/><path class="cls-3" d="M929.92,304.36l17.63,12.49c2.2,1.56,4.28-2.06,2.1-3.6L932,300.76c-2.2-1.56-4.28,2.06-2.1,3.6Z"/><path class="cls-3" d="M929.92,271l17.63,12.49c2.2,1.56,4.28-2.06,2.1-3.6L932,267.4c-2.2-1.56-4.28,2.06-2.1,3.6Z"/><path class="cls-3" d="M929.92,237.64q8.8,6.26,17.63,12.49c2.2,1.56,4.28-2.06,2.1-3.6L932,234c-2.2-1.56-4.28,2.06-2.1,3.6Z"/><path class="cls-3" d="M929.92,204.28l17.63,12.5c2.2,1.55,4.28-2.06,2.1-3.6L932,200.68c-2.2-1.56-4.28,2.06-2.1,3.6Z"/><path class="cls-3" d="M929.92,170.92l17.63,12.5c2.2,1.56,4.28-2.06,2.1-3.6L932,167.32c-2.2-1.55-4.28,2.06-2.1,3.6Z"/><path class="cls-3" d="M929.92,137.57l17.63,12.49c2.2,1.56,4.28-2.06,2.1-3.6L932,134c-2.2-1.56-4.28,2.06-2.1,3.6Z"/><path class="cls-3" d="M929.92,104.21l17.63,12.49c2.2,1.56,4.28-2.06,2.1-3.6L932,100.61c-2.2-1.56-4.28,2.06-2.1,3.6Z"/><path class="cls-3" d="M929.92,70.85l17.63,12.49c2.2,1.56,4.28-2.06,2.1-3.6L932,67.25c-2.2-1.56-4.28,2.06-2.1,3.6Z"/><path class="cls-3" d="M929.92,37.49,947.55,50c2.2,1.56,4.28-2.06,2.1-3.6L932,33.89c-2.2-1.56-4.28,2.06-2.1,3.6Z"/><path class="cls-3" d="M929.92,4l17.63,12.5c2.2,1.55,4.28-2.06,2.1-3.6L932,.38c-2.2-1.56-4.28,2.06-2.1,3.6Z"/><rect class="cls-2" x="319.79" y="502" width="25.26" height="528.18"/><path class="cls-3" d="M322.61,973.15l17.63,12.49c2.2,1.56,4.28-2.06,2.11-3.6q-8.82-6.24-17.63-12.49c-2.2-1.56-4.28,2.06-2.11,3.6Z"/><path class="cls-3" d="M322.61,939.79l17.63,12.49c2.2,1.56,4.28-2.06,2.11-3.59l-17.63-12.5c-2.2-1.56-4.28,2.06-2.11,3.6Z"/><path class="cls-3" d="M322.61,906.43l17.63,12.5c2.2,1.55,4.28-2.06,2.11-3.6l-17.63-12.5c-2.2-1.55-4.28,2.06-2.11,3.6Z"/><path class="cls-3" d="M322.61,873.08q8.82,6.24,17.63,12.49c2.2,1.56,4.28-2.06,2.11-3.6l-17.63-12.49c-2.2-1.56-4.28,2.06-2.11,3.6Z"/><path class="cls-3" d="M322.61,839.72l17.63,12.49c2.2,1.56,4.28-2.06,2.11-3.6l-17.63-12.49c-2.2-1.56-4.28,2.06-2.11,3.6Z"/><path class="cls-3" d="M322.61,806.36l17.63,12.49c2.2,1.56,4.28-2.06,2.11-3.6l-17.63-12.49c-2.2-1.56-4.28,2.06-2.11,3.6Z"/><path class="cls-3" d="M322.61,773l17.63,12.49c2.2,1.56,4.28-2.06,2.11-3.6L324.72,769.4c-2.2-1.56-4.28,2.06-2.11,3.6Z"/><path class="cls-3" d="M322.61,739.64l17.63,12.49c2.2,1.56,4.28-2.06,2.11-3.6q-8.82-6.24-17.63-12.49c-2.2-1.56-4.28,2.06-2.11,3.6Z"/><path class="cls-3" d="M322.61,706.28l17.63,12.5c2.2,1.55,4.28-2.06,2.11-3.6l-17.63-12.5c-2.2-1.56-4.28,2.06-2.11,3.6Z"/><path class="cls-3" d="M322.61,672.92l17.63,12.5c2.2,1.56,4.28-2.06,2.11-3.6l-17.63-12.5c-2.2-1.55-4.28,2.06-2.11,3.6Z"/><path class="cls-3" d="M322.61,639.57q8.82,6.24,17.63,12.49c2.2,1.56,4.28-2.06,2.11-3.6L324.72,636c-2.2-1.56-4.28,2.06-2.11,3.6Z"/><path class="cls-3" d="M322.61,606.21l17.63,12.49c2.2,1.56,4.28-2.06,2.11-3.6l-17.63-12.49c-2.2-1.56-4.28,2.06-2.11,3.6Z"/><path class="cls-3" d="M322.61,572.85l17.63,12.49c2.2,1.56,4.28-2.06,2.11-3.6l-17.63-12.49c-2.2-1.56-4.28,2.06-2.11,3.6Z"/><path class="cls-3" d="M322.61,539.49,340.24,552c2.2,1.56,4.28-2.06,2.11-3.6l-17.63-12.49c-2.2-1.56-4.28,2.06-2.11,3.6Z"/><path class="cls-3" d="M322.61,506l17.63,12.5c2.2,1.55,4.28-2.06,2.11-3.6l-17.63-12.5c-2.2-1.56-4.28,2.06-2.11,3.6Z"/><rect class="cls-2" x="927.09" y="502" width="25.26" height="528.18"/><path class="cls-3" d="M929.92,973.15l17.63,12.49c2.2,1.56,4.28-2.06,2.1-3.6L932,969.55c-2.2-1.56-4.28,2.06-2.1,3.6Z"/><path class="cls-3" d="M929.92,939.79q8.8,6.26,17.63,12.49c2.2,1.56,4.28-2.06,2.1-3.59L932,936.19c-2.2-1.56-4.28,2.06-2.1,3.6Z"/><path class="cls-3" d="M929.92,906.43l17.63,12.5c2.2,1.55,4.28-2.06,2.1-3.6L932,902.83c-2.2-1.55-4.28,2.06-2.1,3.6Z"/><path class="cls-3" d="M929.92,873.08l17.63,12.49c2.2,1.56,4.28-2.06,2.1-3.6q-8.8-6.26-17.63-12.49c-2.2-1.56-4.28,2.06-2.1,3.6Z"/><path class="cls-3" d="M929.92,839.72l17.63,12.49c2.2,1.56,4.28-2.06,2.1-3.6L932,836.12c-2.2-1.56-4.28,2.06-2.1,3.6Z"/><path class="cls-3" d="M929.92,806.36l17.63,12.49c2.2,1.56,4.28-2.06,2.1-3.6L932,802.76c-2.2-1.56-4.28,2.06-2.1,3.6Z"/><path class="cls-3" d="M929.92,773l17.63,12.49c2.2,1.56,4.28-2.06,2.1-3.6L932,769.4c-2.2-1.56-4.28,2.06-2.1,3.6Z"/><path class="cls-3" d="M929.92,739.64q8.8,6.25,17.63,12.49c2.2,1.56,4.28-2.06,2.1-3.6L932,736c-2.2-1.56-4.28,2.06-2.1,3.6Z"/><path class="cls-3" d="M929.92,706.28l17.63,12.5c2.2,1.55,4.28-2.06,2.1-3.6L932,702.68c-2.2-1.56-4.28,2.06-2.1,3.6Z"/><path class="cls-3" d="M929.92,672.92l17.63,12.5c2.2,1.56,4.28-2.06,2.1-3.6L932,669.32c-2.2-1.55-4.28,2.06-2.1,3.6Z"/><path class="cls-3" d="M929.92,639.57l17.63,12.49c2.2,1.56,4.28-2.06,2.1-3.6L932,636c-2.2-1.56-4.28,2.06-2.1,3.6Z"/><path class="cls-3" d="M929.92,606.21l17.63,12.49c2.2,1.56,4.28-2.06,2.1-3.6L932,602.61c-2.2-1.56-4.28,2.06-2.1,3.6Z"/><path class="cls-3" d="M929.92,572.85l17.63,12.49c2.2,1.56,4.28-2.06,2.1-3.6L932,569.25c-2.2-1.56-4.28,2.06-2.1,3.6Z"/><path class="cls-3" d="M929.92,539.49,947.55,552c2.2,1.56,4.28-2.06,2.1-3.6L932,535.89c-2.2-1.56-4.28,2.06-2.1,3.6Z"/><path class="cls-3" d="M929.92,506l17.63,12.5c2.2,1.55,4.28-2.06,2.1-3.6L932,502.38c-2.2-1.56-4.28,2.06-2.1,3.6Z"/><rect class="cls-2" x="319.79" y="1006" width="25.26" height="528.18"/><path class="cls-3" d="M322.61,1477.15l17.63,12.49c2.2,1.56,4.28-2.06,2.11-3.6q-8.82-6.24-17.63-12.49c-2.2-1.56-4.28,2.06-2.11,3.6Z"/><path class="cls-3" d="M322.61,1443.79l17.63,12.49c2.2,1.56,4.28-2.06,2.11-3.59l-17.63-12.5c-2.2-1.56-4.28,2.06-2.11,3.6Z"/><path class="cls-3" d="M322.61,1410.43l17.63,12.5c2.2,1.55,4.28-2.06,2.11-3.6l-17.63-12.5c-2.2-1.55-4.28,2.06-2.11,3.6Z"/><path class="cls-3" d="M322.61,1377.08q8.82,6.24,17.63,12.49c2.2,1.56,4.28-2.06,2.11-3.6l-17.63-12.49c-2.2-1.56-4.28,2.06-2.11,3.6Z"/><path class="cls-3" d="M322.61,1343.72l17.63,12.49c2.2,1.56,4.28-2.06,2.11-3.6l-17.63-12.49c-2.2-1.56-4.28,2.06-2.11,3.6Z"/><path class="cls-3" d="M322.61,1310.36l17.63,12.49c2.2,1.56,4.28-2.06,2.11-3.6l-17.63-12.49c-2.2-1.56-4.28,2.06-2.11,3.6Z"/><path class="cls-3" d="M322.61,1277l17.63,12.49c2.2,1.56,4.28-2.06,2.11-3.6l-17.63-12.49c-2.2-1.56-4.28,2.06-2.11,3.6Z"/><path class="cls-3" d="M322.61,1243.64l17.63,12.49c2.2,1.56,4.28-2.06,2.11-3.6q-8.82-6.24-17.63-12.49c-2.2-1.56-4.28,2.06-2.11,3.6Z"/><path class="cls-3" d="M322.61,1210.28l17.63,12.5c2.2,1.55,4.28-2.06,2.11-3.6l-17.63-12.5c-2.2-1.56-4.28,2.06-2.11,3.6Z"/><path class="cls-3" d="M322.61,1176.92l17.63,12.5c2.2,1.56,4.28-2.06,2.11-3.6l-17.63-12.5c-2.2-1.55-4.28,2.06-2.11,3.6Z"/><path class="cls-3" d="M322.61,1143.57q8.82,6.24,17.63,12.49c2.2,1.56,4.28-2.06,2.11-3.6L324.72,1140c-2.2-1.56-4.28,2.06-2.11,3.6Z"/><path class="cls-3" d="M322.61,1110.21l17.63,12.49c2.2,1.56,4.28-2.06,2.11-3.6l-17.63-12.49c-2.2-1.56-4.28,2.06-2.11,3.6Z"/><path class="cls-3" d="M322.61,1076.85l17.63,12.49c2.2,1.56,4.28-2.06,2.11-3.6l-17.63-12.49c-2.2-1.56-4.28,2.06-2.11,3.6Z"/><path class="cls-3" d="M322.61,1043.49,340.24,1056c2.2,1.56,4.28-2.06,2.11-3.6l-17.63-12.49c-2.2-1.56-4.28,2.06-2.11,3.6Z"/><path class="cls-3" d="M322.61,1010l17.63,12.5c2.2,1.55,4.28-2.06,2.11-3.6l-17.63-12.5c-2.2-1.56-4.28,2.06-2.11,3.6Z"/><rect class="cls-2" x="927.09" y="1006" width="25.26" height="528.18"/><path class="cls-3" d="M929.92,1477.15l17.63,12.49c2.2,1.56,4.28-2.06,2.1-3.6L932,1473.55c-2.2-1.56-4.28,2.06-2.1,3.6Z"/><path class="cls-3" d="M929.92,1443.79q8.8,6.26,17.63,12.49c2.2,1.56,4.28-2.06,2.1-3.59L932,1440.19c-2.2-1.56-4.28,2.06-2.1,3.6Z"/><path class="cls-3" d="M929.92,1410.43l17.63,12.5c2.2,1.55,4.28-2.06,2.1-3.6L932,1406.83c-2.2-1.55-4.28,2.06-2.1,3.6Z"/><path class="cls-3" d="M929.92,1377.08l17.63,12.49c2.2,1.56,4.28-2.06,2.1-3.6q-8.8-6.26-17.63-12.49c-2.2-1.56-4.28,2.06-2.1,3.6Z"/><path class="cls-3" d="M929.92,1343.72l17.63,12.49c2.2,1.56,4.28-2.06,2.1-3.6L932,1340.12c-2.2-1.56-4.28,2.06-2.1,3.6Z"/><path class="cls-3" d="M929.92,1310.36l17.63,12.49c2.2,1.56,4.28-2.06,2.1-3.6L932,1306.76c-2.2-1.56-4.28,2.06-2.1,3.6Z"/><path class="cls-3" d="M929.92,1277l17.63,12.49c2.2,1.56,4.28-2.06,2.1-3.6L932,1273.4c-2.2-1.56-4.28,2.06-2.1,3.6Z"/><path class="cls-3" d="M929.92,1243.64q8.8,6.25,17.63,12.49c2.2,1.56,4.28-2.06,2.1-3.6L932,1240c-2.2-1.56-4.28,2.06-2.1,3.6Z"/><path class="cls-3" d="M929.92,1210.28l17.63,12.5c2.2,1.55,4.28-2.06,2.1-3.6L932,1206.68c-2.2-1.56-4.28,2.06-2.1,3.6Z"/><path class="cls-3" d="M929.92,1176.92l17.63,12.5c2.2,1.56,4.28-2.06,2.1-3.6L932,1173.32c-2.2-1.55-4.28,2.06-2.1,3.6Z"/><path class="cls-3" d="M929.92,1143.57l17.63,12.49c2.2,1.56,4.28-2.06,2.1-3.6L932,1140c-2.2-1.56-4.28,2.06-2.1,3.6Z"/><path class="cls-3" d="M929.92,1110.21l17.63,12.49c2.2,1.56,4.28-2.06,2.1-3.6L932,1106.61c-2.2-1.56-4.28,2.06-2.1,3.6Z"/><path class="cls-3" d="M929.92,1076.85l17.63,12.49c2.2,1.56,4.28-2.06,2.1-3.6L932,1073.25c-2.2-1.56-4.28,2.06-2.1,3.6Z"/><path class="cls-3" d="M929.92,1043.49,947.55,1056c2.2,1.56,4.28-2.06,2.1-3.6L932,1039.89c-2.2-1.56-4.28,2.06-2.1,3.6Z"/><path class="cls-3" d="M929.92,1010l17.63,12.5c2.2,1.55,4.28-2.06,2.1-3.6L932,1006.38c-2.2-1.56-4.28,2.06-2.1,3.6Z"/><path class="cls-4" d="M1272.14,2134.58l-.66-30-64.89-13,64.31-12.86-.9-40.68-102.75-51.38,102.24,28.4-.94-42.32-114.42-25.43,104.92-23.31v-16h-91.8l91.8-39.35,7.14-1.81-.86-38.9-58.74-11.75,58.22-11.64-1-45-96.56-48.28,91.8,26.23V1632.61h-91.8l91.8-39.34.23-.06c-8.22-57.78-58.19-102.59-118.14-102.59H117.91c-48.49,0-90.43,29.32-109.06,71.1L118,1586,0,1612.21v62.18l.66,29.76,64.92,13L1.24,1730l.9,40.66,102.78,51.39L2.65,1793.64,3.59,1836,118,1861.4,13.12,1884.71v16h91.8l-91.8,39.35-7.18,1.82.87,38.89,58.77,11.75L7.33,2004.2l1,45,96.59,48.3-91.8-26.23v89.27a116.09,116.09,0,0,0,4.64,15.65h87.16l-70.51,30.22a119.36,119.36,0,0,0,95.16,47.55H1152.8a118.41,118.41,0,0,0,62.18-17.61l-60.85-13.53,97.62-21.69A118.5,118.5,0,0,0,1272.14,2134.58Z"/><path class="cls-5" d="M1262.36,2102.79l-55.77-11.15,55.28-11-1-47.08-93.57-46.79,93.1,25.86-.92-41.81-105.3-23.4,104.26-23.16L1258,1908h-90.78l89.92-38.54-1-43.34-49.62-9.93,49.18-9.83-1.14-51.4-87.38-43.69,87,24.85-2.3-103.54h-84.66l83.58-35.82c-5.5-59.32-55.76-106.17-116.46-106.17H124.91c-48.74,0-90.74,30.22-108.26,72.83L118,1586,8,1610.43,10.11,1706l55.47,11.09-55,11,1.05,47.29,93.26,46.63-92.8-25.78.93,41.8,105,23.33-104,23.1.36,16.24h90.48l-89.63,38.41,1,43.54,49.32,9.86-48.88,9.77,1.14,51.61,87.08,43.54-86.66-24.76,1.09,49.13a115.86,115.86,0,0,0,13.5,54.32h72.07l-55.48,23.78a116.78,116.78,0,0,0,86.9,38.88H1145.8a116,116,0,0,0,43.09-8.3l-34.76-7.73,71.79-15.95a116.68,116.68,0,0,0,36.86-85Z"/><g class="cls-6"><path class="cls-7" d="M-204.37,1501c1.05,2,4.38,3,8.13,3.3l.32,0,.6,0c.56,0,1.08.1,1.66.11,250.24,4.76,501.16,7.79,751.36,6.93,157-.56,312.15-7.53,468.65-11.25q200.7-4.75,401.88-7c6.45-.08,10.65-1.84,11.21-4.4.2-1,.39-2,.63-3,.51-2.37-5.39-4.73-11.11-4.66q-195.18,2.15-390,6.74c-157.51,3.59-313.73,10.75-471.77,11.37-254,1-508.68-2.93-762.71-7.73-7.59-.13-12.3,2.79-10.82,5.62C-205.72,1498.37-205.06,1499.66-204.37,1501Z"/><path class="cls-7" d="M-204.84,1527.14a6.71,6.71,0,0,0,3.92,2.5,21.74,21.74,0,0,0,6.8.94q357.33,1.31,714.65.06c140.2-.49,280.9-4.47,421.06-3.8,163,.8,334.57,19.68,485.26,46.12,6.82,1.2,14.17-1.5,14.15-4.2,0-1.32,0-2.62,0-3.94,0-2.19-3.45-3.63-8.14-4.45-144-25.47-303.88-41.23-459.21-45.11-71.41-1.78-143.56,1.12-214.89,1.83q-112.39,1.13-224.9,1.29c-243.36.76-486.77,0-730.23-.68-7.33,0-12.59,2.7-10.82,5.62C-206.39,1524.59-205.63,1525.87-204.84,1527.14Z"/><path class="cls-7" d="M-194.75,1569.63c174.89-3.52,350.63-4.7,524.93-11,124.87-4.53,248.68-2.43,374.21,1,242.2,6.65,481.93,21.64,721.74,37.78,8.78.59,15.27-1.74,13.78-5.43-.56-1.4-1.12-2.81-1.69-4.2s-4.32-3-7.75-3.25c-236.18-15.64-472.94-29.63-711.23-36.53-126.64-3.68-254.23-7-380.26-1.74-176.67,7.45-355.88,7.79-533.39,11.38-6.21.12-11,1.78-11.22,4.39-.07,1-.14,2-.23,2.94s.62,2,1.83,2.68C-202.39,1568.86-199.33,1569.72-194.75,1569.63Z"/><path class="cls-7" d="M1384.26,1655.84c-51.17-2.78-101.75-8.29-151.64-13.72-114.39-12.46-227-27.84-339.92-42.38-81.74-10.53-166.22-23.19-251.49-27.33-52.55-2.55-106.23-1.81-158.86-1.26-227.7,2.43-455.32,11.85-681.14,22.2-6.57.3-8.79,2.34-7.93,4.39a2.19,2.19,0,0,0,.07,1.1l1,2.91c.89,2.67,8.32,3.56,13.72,3.32,213.06-9.71,427.38-18,642-21.41,53.34-.86,106.94-1.37,160.38-.2,75.86,1.67,150.43,12.49,222.78,21.56,111.91,14,223,29.16,335.4,42.5,85.48,10.14,174,20.69,262.87,23,7.93.21,14.63-3.86,9.7-6.72C1426.23,1655.21,1409.33,1657.2,1384.26,1655.84Z"/><path class="cls-7" d="M-196.41,1686.62q106.67-9.57,211.8-21.68c22.79-2.64,137.92-11.18,138.07-25.79.28-23.33-310.47-4.59-353.5-2.72-4.41.19-8.74,2.49-8.22,4.27.28,1,.55,1.94.86,2.9.62,2.2,4.54,5,11.1,4.67q93.69-4,187.8-6.48,38.64-1,77.38-1.23c11.09-.07,22.17,0,33.23.2l2.39.08c-33.85,7.15-79.82,10-114.19,13.85-63.66,7-128,13.22-192.45,19-3.8.33-6.1,1.24-7.22,2.35-.06,0-.06.09-.11.13a4.14,4.14,0,0,0-.35.43,2.25,2.25,0,0,0-.56,1.36c0,1.38-.07,2.74-.14,4.12C-210.58,1685.09-203.42,1687.25-196.41,1686.62Z"/><path class="cls-7" d="M557,1960.69c254.07.45,508.68,5.81,762.63,12,7.58.19,12.4-2.71,11-5.55-.64-1.3-1.29-2.59-1.94-3.89-1-2-4.33-3.06-8.07-3.34h-.32a4.3,4.3,0,0,0-.61,0c-.55-.05-1.07-.1-1.67-.11-250.15-6.18-501-10.63-751.27-11.18-157-.35-312.39,5.75-469,8.58q-200.84,3.61-402.07,4.74c-6.48,0-10.72,1.77-11.31,4.34-.25,1-.46,2-.71,3-.56,2.36,5.29,4.75,11,4.72q195.26-1,390.23-4.54C242.53,1966.69,398.94,1960.42,557,1960.69Z"/><path class="cls-7" d="M-307.52,1894.64c143.44,26.26,303,42.92,458.31,47.67,71.36,2.18,143.58-.3,214.93-.61q112.45-.48,225,0c243.39.63,486.83,2.77,730.3,4.82,7.32.06,12.65-2.63,10.94-5.55l-2.23-3.83a6.7,6.7,0,0,0-3.88-2.52,21.58,21.58,0,0,0-6.8-1q-357.33-3.31-714.72-4.1c-140.23-.31-281,2.88-421.2,1.42-163-1.71-334.17-21.57-484.31-48.86-6.82-1.24-14.22,1.44-14.25,4.13l-.09,3.93C-315.6,1892.32-312.17,1893.78-307.52,1894.64Z"/><path class="cls-7" d="M1320.54,1894.57c-175,2.54-350.79,2.71-525.27,8-125,3.83-248.75,1-374.22-3.13-242.09-8-481.51-24.36-721-41.84-8.79-.65-15.33,1.64-13.92,5.34.55,1.4,1.09,2.81,1.61,4.2s4.27,3.06,7.67,3.3c235.89,17,472.35,32.3,710.53,40.55,126.58,4.39,254.12,8.48,380.29,3.89,176.85-6.45,356.09-5.77,533.72-8.35,6.19-.09,11-1.73,11.29-4.35.1-1,.19-2,.29-2.94s-.55-2-1.75-2.69C1328.15,1895.38,1325.12,1894.51,1320.54,1894.57Z"/><path class="cls-7" d="M-256.8,1799.45c51.11,3.08,101.6,8.86,151.36,14.59,114.12,13.09,226.4,29.1,339,44.28,81.54,11,165.73,24.13,250.92,28.74,52.53,2.85,106.21,2.42,158.85,2.17,227.76-1.16,455.66-9.26,681.69-18.34,6.58-.27,8.85-2.3,8.06-4.35a1.83,1.83,0,0,0-.08-1.1c-.27-1-.57-1.93-.87-2.91-.83-2.68-8.26-3.61-13.62-3.4-213.32,8.51-427.82,15.55-642.58,17.77-53.36.56-107,.76-160.36-.71-75.82-2.11-150.18-13.34-222.37-22.82C181.65,1838.72,70.87,1823-41.28,1809c-85.24-10.62-173.5-21.68-262.38-24.52-7.92-.26-14.71,3.77-9.85,6.66C-298.8,1799.84-281.82,1798-256.8,1799.45Z"/><path class="cls-7" d="M1330.23,1758.92c-52.65-3.84-114.43,5.93-165.31,9.95q-194.9,15.45-389.2,32c-82.51,7.17-165.05,14.63-246.13,23.92-28.55,3.27-59.05,6.49-85.13,12.32-6.83,1.51-17.49,4.5-16.81,8.29,2.3,13.69,73.33,12.6,96.48,13.25,145.65,4.1,292.69,1.47,438.05-.32q180.35-2.23,360.45-6.08c6-.13,11.32-1.69,11.31-4.33,0-1,0-2,0-3,0-2.3-4.84-4.86-11-4.72-241.7,5.13-484.81,9.93-727.39,7.61q-39.75-.36-79.5-1.49c-10.12-.3-20.29-.71-30.38-1.23-4.36-.21-7.62-.51-10.23-.73,12.44-2,29-3.91,36.35-4.89,124.61-16.46,255-27,383.4-37.93q216.54-18.43,434.77-34c6.08-.44,8.47-2.36,8.08-4.3C1338.78,1761.39,1336.6,1759.39,1330.23,1758.92Z"/><path class="cls-7" d="M1330.19,1790.59c3.82-.33,6.1-1.22,7.25-2.32.07,0,.1-.11.16-.15s.24-.27.35-.42a2.24,2.24,0,0,0,.55-1.35c.08-1.37.17-2.74.24-4.12.16-3-7-5.19-14-4.61q-106.9,9-212.32,20.49c-22.85,2.49-138.19,10.39-138.65,25-.8,23.31,310.42,6.33,353.46,4.72,4.43-.17,8.84-2.45,8.36-4.24-.28-1-.53-1.94-.8-2.9-.57-2.2-4.44-5-11-4.73q-93.8,3.49-188,5.4-38.61.78-77.4.82c-11.08,0-22.13-.15-33.23-.4-.78,0-1.58-.07-2.36-.1,34-7,80-9.59,114.47-13.19C1201.12,1801.8,1265.58,1796,1330.19,1790.59Z"/><path class="cls-7" d="M-233.51,1775.52c61.34,4.16,122.34,9.47,183,15.06,115.14,10.59,231.81,31.9,350.52,26.87,71.63-3,141.4-10.28,211.27-16.77,84.73-7.86,169.94-14.85,255.29-21.66q109.21-8.7,218.76-16.87c25.32-1.9,56.38-2.37,80.9-6.09a15.8,15.8,0,0,0,5.62-1.08c6.62-2.09,3.44-7.38-5.08-7.92q112.23,1.88,224.43,4.16c42.74.91,88.1.56,130.41,3.85,6.29.5,15.15-1,14.19-4.19-.46-1.49-.9-3-1.33-4.45-.55-1.87-2.88-4-8.14-4.47-40.9-3.18-84.22-2.82-125.49-3.57q-122.43-2.21-244.88-3.46c-121.54-1.47-243.08-2.2-364.56-3.91-5.38-.07-8.73,1.08-10.1,2.58-50.68,2.52-102.06,8.62-150.07,11.88-58.17,4-116.49,7.63-175.08,10.58-37.6,1.89-76.29,4.16-114.33,1.83-178.92-11-358.94-19.25-538.41-28.18-7.53-.36-12.33,2.87-10.93,5.56.69,1.31,1.39,2.63,2.05,3.94,1.1,2.09,5.84,3.29,10.65,3.52,177.51,8.64,355.43,16.54,532.46,27.06,85.94,5.11,181.25-4.8,265.13-10.15q123.93-7.91,247.24-17.41,139.61,1.93,279.22,4.24c-58.68.59-117.61,8.21-174.32,12.81-162.31,13.12-323.32,28.57-485.54,41.79-64.54,5.26-129.12,7.66-194.52,1.37-57.88-5.57-114.72-13.59-172.65-19.31-98.78-9.75-203.12-21.3-304.56-23.8-10.61-.26-13.79,4.62-8.15,7.6C-294.45,1775.46-258,1773.86-233.51,1775.52Z"/><path class="cls-7" d="M-297,1713.1c40.85,3.41,84.19,3.31,125.47,4.3q122.39,2.88,244.82,4.84c99.78,1.78,199.6,3.07,299.35,4.8.39.11.75.22,1.17.31l.18.05c.56.12,1.19.23,1.82.31l.45.07,1.2.08c.38,0,.74.08,1.13.1,15.35.59,30.95.51,46.65,0l12.57.22a20.58,20.58,0,0,0,7.8-1.08c51.34-2.73,103.42-9.27,152-12.84,58.07-4.28,116.28-8.3,174.81-11.58,37.54-2.1,76.16-4.59,114.25-2.48,179.13,10,359.26,17.23,538.88,25.14,7.56.32,12.28-2.93,10.84-5.62q-1.1-2-2.15-3.93c-1.14-2.09-5.92-3.24-10.73-3.46-177.63-7.64-355.7-14.53-532.9-24-86.05-4.62-181.11,5.82-264.86,11.65q-114.76,8-228.94,17.35-5.89-.27-11.83-.52-107.88-2.12-215.75-4.43c35.29-3,70.28-7.08,104.48-10,162-14.06,322.61-30.4,484.51-44.55,64.4-5.63,128.93-8.39,194.43-2.47,58,5.24,115,13,173.05,18.32,98.94,9.21,203.55,20.17,305,22.09,10.6.2,13.66-4.69,8-7.65-16.21-8.44-52.65-6.63-77.15-8.15-61.4-3.81-122.51-8.78-183.3-14-115.34-9.94-232.44-30.59-351-24.89-71.57,3.44-141.14,11.08-210.84,18-84.53,8.35-169.58,15.82-254.76,23.13q-109,9.32-218.34,18.1c-25.29,2-56.32,2.69-80.74,6.55a15.64,15.64,0,0,0-5.6,1.11,5.33,5.33,0,0,0-3,2q-100-2.24-200-4.83c37.48-2.29,75.95-7.69,109.68-10.56q194.52-16.55,388.43-34.22c82.31-7.66,164.68-15.58,245.55-25.33,28.47-3.44,58.87-6.82,84.82-12.79,6.8-1.56,17.38-4.61,16.63-8.4-2.62-13.68-73.58-12.17-96.74-12.7-145.71-3.28-292.67.19-437.95,2.8q-180.24,3.27-360.22,8.11c-6,.17-11.27,1.76-11.21,4.41l.06,3c.06,2.29,5,4.82,11.11,4.66,241.54-6.49,484.48-12.67,727-11.73,26.5.1,53,.39,79.51,1,10.14.26,20.3.62,30.4,1.07,4.39.19,7.64.47,10.23.67-12.37,2-28.89,4.09-36.23,5.1-124.22,17.17-254.36,28.45-382.45,40.11q-216.12,19.66-433.92,36.42c-6.09.48-8.42,2.42-8,4.35-.33,1,.05,1.89,1.2,2.67-28.22-.56-56.69-1.33-83.87-3.6-6.28-.54-15.13.91-14.26,4.12.4,1.48.83,3,1.22,4.44C-304.58,1710.47-302.27,1712.67-297,1713.1Z"/><path class="cls-7" d="M561.51,1991.94c-254,1-508.66-2.94-762.69-7.73-7.56-.15-12.32,2.78-10.82,5.61l2,3.88c1,2,4.38,3,8.13,3.3l.32,0,.61,0c.55,0,1.07.08,1.66.09,250.23,4.77,501.16,7.8,751.35,6.93,157-.54,312.17-7.53,468.65-11.23q200.67-4.75,401.88-7c6.45-.07,10.65-1.83,11.21-4.39.21-1,.4-2,.63-3,.51-2.36-5.4-4.72-11.12-4.66q-195.15,2.18-390,6.75C875.78,1984.15,719.57,1991.31,561.51,1991.94Z"/><path class="cls-7" d="M1435.41,2057.58c0-2.2-3.45-3.64-8.13-4.47-144-25.47-303.89-41.22-459.23-45.1-71.4-1.78-143.55,1.12-214.88,1.83q-112.39,1.13-224.9,1.3c-243.36.75-486.79,0-730.21-.69-7.35,0-12.61,2.7-10.86,5.63.79,1.26,1.57,2.54,2.35,3.81a6.81,6.81,0,0,0,3.91,2.5,21.68,21.68,0,0,0,6.81.95q357.35,1.29,714.65.07c140.2-.5,280.9-4.5,421.06-3.82,163,.79,334.57,19.69,485.26,46.14,6.82,1.19,14.18-1.53,14.18-4.22C1435.41,2060.19,1435.41,2058.89,1435.41,2057.58Z"/><path class="cls-7" d="M1424.86,2077.27c-236.18-15.66-472.93-29.63-711.23-36.53-126.64-3.67-254.23-7-380.28-1.74-176.66,7.45-355.88,7.79-533.37,11.37-6.22.13-11,1.79-11.22,4.41-.07,1-.14,2-.23,2.94s.62,2,1.83,2.67c1.63,1.23,4.7,2.09,9.28,2,174.89-3.53,350.63-4.71,524.93-11,124.87-4.53,248.7-2.42,374.22,1C941,2059,1180.68,2074,1420.52,2090.15c8.82.58,15.27-1.74,13.8-5.43-.58-1.4-1.13-2.8-1.7-4.21S1428.29,2077.49,1424.86,2077.27Z"/><path class="cls-7" d="M1378.66,2148.59c-51.17-2.78-101.76-8.29-151.66-13.73-114.37-12.45-226.94-27.84-339.93-42.37-81.72-10.52-166.22-23.19-251.45-27.33-52.58-2.55-106.25-1.82-158.88-1.25-227.7,2.42-455.32,11.83-681.15,22.19-6.56.31-8.78,2.35-7.92,4.4a2.05,2.05,0,0,0,.08,1.09c.33,1,.63,1.94,1,2.91.9,2.68,8.31,3.57,13.69,3.33,213.06-9.73,427.37-18,642-21.42,53.36-.85,106.91-1.37,160.39-.19,75.82,1.66,150.42,12.49,222.77,21.56,111.92,14,223,29.15,335.41,42.48,85.49,10.15,174,20.7,262.86,23,7.93.23,14.63-3.84,9.7-6.7C1420.63,2148,1403.72,2150,1378.66,2148.59Z"/><path class="cls-7" d="M591.9,2127.67c28.47-3.45,58.91-6.83,84.84-12.79,6.8-1.57,17.38-4.62,16.65-8.41-2.64-13.67-73.6-12.18-96.75-12.7-145.72-3.27-292.66.19-438,2.81q-180.23,3.24-360.22,8.11c-6,.16-11.29,1.76-11.19,4.4,0,1,0,2,0,2.95.06,2.28,5,4.82,11.11,4.66C40,2110.2,282.9,2104,525.46,2105c26.5.11,53,.4,79.52,1,10.13.25,20.29.62,30.42,1.06,4.34.19,7.62.46,10.2.68-12.36,2-28.88,4.09-36.23,5.1C485.15,2130,355,2141.28,226.94,2153Q10.81,2172.6-207,2189.36c-6.11.48-8.46,2.42-8,4.35-.72,2,1.52,4,7.89,4.39,52.73,3.54,114.26-6.57,165-10.9q194.51-16.54,388.42-34.22C428.68,2145.34,511.05,2137.43,591.9,2127.67Z"/><path class="cls-7" d="M-202,2179.37c71.13-6.39,141.87-13.58,211.82-21.68,22.79-2.64,137.92-11.19,138.07-25.79.28-23.32-310.47-4.58-353.48-2.72-4.43.18-8.78,2.5-8.24,4.28.28,1,.58,1.93.85,2.9.63,2.19,4.55,4.94,11.11,4.66q93.69-4,187.82-6.48,38.61-1,77.38-1.24,16.6-.09,33.23.21l2.37.09c-33.85,7.14-79.82,10-114.18,13.84-63.65,7.06-128,13.22-192.46,19-3.8.33-6.08,1.24-7.2,2.35l-.13.14a2.09,2.09,0,0,0-.34.42,2.22,2.22,0,0,0-.57,1.36c0,1.38-.07,2.75-.12,4.12C-216.19,2177.84-209,2180-202,2179.37Z"/><path class="cls-7" d="M1355.88,2172.65c-61.4-3.8-122.49-8.78-183.33-14-115.33-9.93-232.41-30.6-351-24.9-71.55,3.45-141.14,11.09-210.83,18-84.53,8.34-169.6,15.81-254.76,23.1q-109,9.33-218.34,18.12c-25.28,2-56.31,2.67-80.76,6.54a16,16,0,0,0-5.58,1.11c-7.09,2.3-2.75,8.37,7.38,8l.62,0c70.08,2.72,141-7.59,208.79-13.47,162-14,322.61-30.4,484.51-44.54,64.4-5.63,128.95-8.39,194.43-2.48,58,5.25,115,12.94,173,18.33,99,9.2,203.55,20.17,305,22.08,10.61.2,13.68-4.69,8-7.66C1416.82,2172.36,1380.4,2174.17,1355.88,2172.65Z"/><path class="cls-7" d="M1428.61,2208.56c-1.16-2.09-5.94-3.24-10.75-3.45-177.63-7.66-355.7-14.54-532.9-24.06-86.05-4.62-181.13,5.83-264.84,11.65q-124.62,8.68-248.51,18.94a15.9,15.9,0,0,0-7.14,1.38c-3.54,1.59-3,4.21.41,5.94l.07,0a12.54,12.54,0,0,0,1.34.57l.21.08a12.34,12.34,0,0,0,1.65.46s.13,0,.16.06c.58.11,1.19.22,1.84.31l.45.05c.39.05.78.08,1.2.1s.73.07,1.14.09c71.88,2.78,149-8.53,219-13.68,58.07-4.28,116.27-8.29,174.8-11.57,37.56-2.11,76.16-4.6,114.25-2.48,179.13,10,359.29,17.22,538.89,25.13,7.54.33,12.28-2.94,10.81-5.62C1430,2211.18,1429.29,2209.86,1428.61,2208.56Z"/><path class="cls-7" d="M1420.78,2234.71c-40.92-3.17-84.24-2.83-125.52-3.57q-122.41-2.19-244.87-3.46c-121.52-1.48-243.07-2.2-364.56-3.91-14.51-.2-14.31,8.53-.11,9.08l53.15,2.06q159,2.21,317.91,4.82,114.45,1.91,228.85,4.23c42.74.91,88.09.57,130.41,3.87,6.33.49,15.15-1,14.18-4.21-.45-1.48-.88-3-1.31-4.44C1428.35,2237.32,1426,2235.13,1420.78,2234.71Z"/></g><path class="cls-8" d="M963.46,1541a24.2,24.2,0,1,1-21.14-26.9A24.17,24.17,0,0,1,963.46,1541Z"/><path class="cls-8" d="M354.34,1541a24.2,24.2,0,1,1-21.15-26.9A24.18,24.18,0,0,1,354.34,1541Z"/><g class="cls-9"><path class="cls-7" d="M1133.42,386.83c1,1.94,4.08,2.86,7.5,3a1.51,1.51,0,0,1,.3,0h.54c.51,0,1,.07,1.51.06,228.1-2.42,456.76-6.56,684.63-14.51,143-5,284.14-16.24,426.57-24.33q182.69-10.33,365.89-18.28c5.86-.25,9.65-2.11,10.07-4.63.15-1,.32-2,.51-2.92.38-2.34-5.06-4.48-10.28-4.26q-177.69,7.66-355.1,17.68c-143.38,8-285.47,19.46-429.42,24.55-231.35,8.18-463.44,11.55-695,14-6.91.09-11.12,3.1-9.69,5.83C1132.12,384.33,1132.75,385.58,1133.42,386.83Z"/><path class="cls-7" d="M1133.75,412.53a6.17,6.17,0,0,0,3.64,2.36,18.88,18.88,0,0,0,6.23.73q325.53-8.87,651-20.22c127.7-4.46,255.75-12.35,383.44-15.68,148.54-3.83,305.33,9.83,443.37,31.51,6.23,1,12.86-1.89,12.76-4.53,0-1.3-.07-2.58-.09-3.87-.09-2.16-3.25-3.47-7.55-4.14-131.9-20.9-278-31.83-419.6-31.23-65.09.28-130.75,5.17-195.69,7.88q-102.37,4.29-204.84,7.65c-221.66,7.65-443.39,13.78-665.18,20-6.69.2-11.4,3-9.7,5.83C1132.27,410.08,1133,411.31,1133.75,412.53Z"/><path class="cls-7" d="M1144.17,454c159.21-8.43,319.26-14.56,477.85-25.72,113.61-8,226.45-9.44,340.91-9.61,220.8-.34,439.62,7.57,658.52,16.6,8,.33,13.86-2.16,12.41-5.72l-1.67-4.08c-.52-1.32-4-2.85-7.16-3-215.59-8.64-431.65-15.65-648.92-15.67-115.47,0-231.78.3-346.41,9.08-160.74,12.32-324,17.73-485.57,26.3-5.65.29-10,2.07-10.1,4.61,0,1-.07,1.94-.11,2.9a2.88,2.88,0,0,0,1.74,2.58C1137.19,453.42,1140,454.17,1144.17,454Z"/><path class="cls-7" d="M2585,493.76c-46.68-1.27-92.93-5.25-138.51-9.16-104.59-9-207.58-20.87-310.87-32-74.77-8-152.1-18-229.89-19.69-47.94-1-96.8,1.24-144.74,3.28-207.34,8.85-414.4,24.54-619.8,41.11-6,.48-8,2.54-7.11,4.54a2.19,2.19,0,0,0,.11,1.06c.31.94.63,1.88.93,2.83.9,2.6,7.7,3.26,12.61,2.88,193.8-15.58,388.78-29.76,584.17-39.22,48.53-2.37,97.36-4.38,146.08-4.76,69.14-.52,137.38,8,203.56,14.84,102.34,10.62,204,22.29,306.74,32.19,78.17,7.54,159.07,15.38,240.11,15.16,7.24,0,13.23-4.2,8.65-6.86C2623.22,492,2607.88,494.39,2585,493.76Z"/><path class="cls-7" d="M1146,568.81q96.9-12.4,192.3-27.29c20.68-3.23,125.31-14.87,125-29.23-.43-22.9-283,4.31-322.1,7.36-4,.32-7.87,2.7-7.37,4.44.3.93.56,1.87.87,2.82.63,2.13,4.27,4.73,10.25,4.26q85.23-6.58,170.89-11.68,35.16-2.06,70.45-3.42,15.15-.55,30.28-.74l2.17,0c-30.63,8-72.42,12.11-103.61,16.83-57.79,8.72-116.19,16.61-174.76,24.11-3.45.44-5.52,1.4-6.5,2.5-.07.07-.06.11-.11.15a3.52,3.52,0,0,0-.31.43,2.4,2.4,0,0,0-.48,1.34c0,1.35,0,2.69,0,4C1133.08,567.72,1139.68,569.62,1146,568.81Z"/><path class="cls-7" d="M1840.25,816.4c231.45-6.77,463.53-8.73,695-9.82,6.91,0,11.23-3,9.83-5.75-.62-1.27-1.24-2.52-1.89-3.77-1-1.93-4-2.89-7.42-3h-.3a2.2,2.2,0,0,0-.56,0c-.5,0-1-.05-1.51-.06-228.06,1-456.73,3.77-684.7,10.35-143,4.12-284.36,14.49-426.91,21.71Q1239,835.24,1055.7,842c-5.9.22-9.72,2-10.17,4.59-.19,1-.37,1.94-.56,2.92-.43,2.32,5,4.5,10.17,4.32q177.83-6.57,355.33-15.52C1554,831.21,1696.25,820.62,1840.25,816.4Z"/><path class="cls-7" d="M1050.84,776.11c131.42,21.7,277.28,33.52,418.85,33.78,65.07.11,130.78-4.37,195.77-6.71,68.28-2.44,136.6-4.45,204.94-6.39,221.73-6.29,443.53-11.1,665.37-16,6.67-.15,11.44-2.93,9.81-5.77l-2.15-3.69a6.05,6.05,0,0,0-3.59-2.36,19.21,19.21,0,0,0-6.24-.79q-325.56,6.9-651.17,16.26c-127.73,3.68-255.91,10.79-383.63,13.33-148.57,3-305-11.67-442.56-34.2-6.25-1-12.92,1.83-12.87,4.46,0,1.28,0,2.57,0,3.85C1043.42,774.05,1046.58,775.39,1050.84,776.11Z"/><path class="cls-7" d="M2533.86,729.85c-159.35,7.47-319.45,12.61-478.24,22.81-113.73,7.31-226.56,8-341,7.54-220.75-1-439.32-10.25-658-20.61-8-.4-13.92,2-12.53,5.63.54,1.35,1.08,2.73,1.58,4.09s4,2.86,7.09,3c215.36,10,431.21,18.29,648.41,19.62,115.41.73,231.72,1.14,346.51-7,160.92-11.34,324.21-15.77,485.94-23.32,5.62-.27,10-2,10.15-4.6.07-1,.13-1.91.19-2.89a2.81,2.81,0,0,0-1.68-2.59C2540.82,730.42,2538,729.66,2533.86,729.85Z"/><path class="cls-7" d="M1094.29,681.25c46.65,1.58,92.81,5.81,138.3,10,104.33,9.61,207.07,22.15,310.12,33.85,74.58,8.46,151.65,19,229.39,21.08,47.92,1.32,96.81-.62,144.77-2.36,207.43-7.61,414.78-22,620.42-37.35,6-.45,8-2.48,7.22-4.5a2.14,2.14,0,0,0-.11-1.07c-.27-.95-.58-1.87-.89-2.85-.82-2.59-7.62-3.28-12.5-2.93-194.05,14.4-389.25,27.41-584.81,35.66-48.59,2.06-97.4,3.78-146.09,3.87-69.12.08-137.19-8.85-203.23-16.11-102.07-11.21-203.42-23.52-306-34.06-78-8-158.68-16.34-239.73-16.61-7.21,0-13.29,4.12-8.78,6.8C1056.06,682.82,1071.45,680.49,1094.29,681.25Z"/><path class="cls-7" d="M1114.82,657.11c56,2.33,111.7,5.82,167.16,9.58,105.18,7.13,212.08,24.74,320.07,16.42,65.16-5,128.52-14.09,192-22.44,77-10.13,154.37-19.4,231.93-28.5q99.21-11.64,198.76-22.75c23-2.6,51.3-3.93,73.54-8.28a13.54,13.54,0,0,0,5.07-1.22c6-2.24,2.93-7.35-4.87-7.63Q2400.77,591,2503,590c38.94-.33,80.27-2,118.9.08,5.74.3,13.77-1.41,12.8-4.51-.45-1.46-.92-2.9-1.33-4.33-.56-1.83-2.75-3.9-7.55-4.17-37.35-2-76.81-.38-114.42.07-74.4.87-148.77,2.18-223.17,3.55-110.74,2-221.47,4.73-332.18,6.5-4.9.09-7.91,1.29-9.13,2.81-46.11,3.93-92.71,11.36-136.36,15.93-52.87,5.51-105.9,10.78-159.17,15.34-34.2,2.93-69.37,6.25-104.1,5-163.3-5.7-327.51-8.69-491.24-12.38-6.88-.14-11.16,3.17-9.82,5.78.68,1.26,1.36,2.53,2,3.8,1.06,2,5.42,3.06,9.8,3.15,162,3.45,324.23,6.14,485.81,11.45,78.44,2.59,165-9.85,241.21-17.48q112.68-11.26,224.71-24.1,127.26-2.07,254.48-3.76c-53.45,2.25-106.9,11.4-158.43,17.52-147.47,17.48-293.68,37.21-441.08,54.78-58.63,7-117.39,11.18-177.15,6.85-52.88-3.82-104.87-10.07-157.82-14-90.26-6.76-185.63-15.13-278.11-14.71-9.68,0-12.43,4.92-7.2,7.68C1059.31,658.77,1092.47,656.17,1114.82,657.11Z"/><path class="cls-7" d="M1055.13,597.66c37.31,2.18,76.78.86,114.41.64,74.38-.41,148.78-1.29,223.17-2.2,90.92-1.08,181.9-2.63,272.81-3.76l1.08.28a.48.48,0,0,1,.15,0,16.77,16.77,0,0,0,1.67.24l.41.07,1.1,0,1,.07c14,.13,28.2-.39,42.5-1.33,3.84,0,7.65-.09,11.45-.12a17.72,17.72,0,0,0,7.08-1.29c46.69-4.12,93.94-12,138.09-16.92,52.79-5.83,105.69-11.44,158.9-16.3,34.14-3.15,69.25-6.67,104-5.68,163.45,4.7,327.75,6.7,491.59,9.38,6.9.11,11.11-3.23,9.72-5.82-.71-1.27-1.39-2.55-2.09-3.81-1.08-2-5.47-3-9.87-3.09-162-2.46-324.42-4.17-486.1-8.48-78.51-2.09-164.82,10.85-240.93,19q-104.3,11.08-208,23.52l-10.8-.18q-98.32,1-196.66,1.77c32.07-3.92,63.83-8.93,94.9-12.82,147.15-18.38,293-39,440.06-57.44,58.49-7.35,117.19-11.9,177-7.95,53,3.5,105.14,9.45,158.14,13.08,90.41,6.23,186,14,278.48,13,9.65-.1,12.29-5,7.06-7.73-15-7.82-48.16-5-70.53-5.82-56-2-111.84-5.15-167.37-8.55C2292.21,503,2185,486,2077.1,495c-65.09,5.41-128.23,14.87-191.54,23.6-76.75,10.58-154,20.32-231.39,29.91q-99,12.25-198.36,24c-23,2.73-51.23,4.24-73.37,8.71a14,14,0,0,0-5.07,1.26,4.85,4.85,0,0,0-2.69,2.06q-91.18.66-182.31.94c34.08-3.32,69-9.71,99.61-13.48q176.7-21.75,352.83-44.61c74.77-9.84,149.56-20,222.94-31.82,25.84-4.17,53.45-8.36,76.9-14.95,6.15-1.72,15.7-5,14.92-8.7-2.8-13.36-67.38-9.88-88.5-9.72-132.83.91-266.59,8.48-398.85,15.16q-164.09,8.32-327.91,18.18c-5.45.34-10.2,2.05-10.08,4.65.06,1,.09,1.93.14,2.87.12,2.27,4.68,4.6,10.27,4.27,219.84-13.22,440.95-26.18,661.93-32.13q36.18-1,72.45-1.25c9.24,0,18.52,0,27.72.18,4,.06,7,.25,9.33.37-11.18,2.36-26.18,4.83-32.85,6-112.66,20.38-230.88,35.14-347.22,50.21-130.86,17-262.41,32.73-394.2,48-5.55.65-7.6,2.61-7.14,4.5a2.26,2.26,0,0,0,1.16,2.6c-25.73.23-51.67.29-76.5-1.17-5.74-.35-13.76,1.32-12.88,4.45.41,1.44.86,2.88,1.26,4.32C1048.19,595.28,1050.36,597.38,1055.13,597.66Z"/><path class="cls-7" d="M1845.26,846.93c-231.34,8.18-463.43,11.55-695,14.05-6.88.09-11.14,3.08-9.7,5.82.66,1.25,1.31,2.49,2,3.76,1,1.94,4.09,2.85,7.5,3,.1,0,.18,0,.3,0a5,5,0,0,0,.55,0c.51,0,1,.06,1.53,0,228-2.41,456.73-6.56,684.61-14.52,143-5,284.14-16.23,426.57-24.3q182.66-10.35,365.86-18.29c5.89-.26,9.66-2.1,10.1-4.64.15-1,.3-1.94.49-2.93.37-2.34-5.07-4.47-10.28-4.25q-177.69,7.68-355.08,17.7C2131.3,830.39,1989.22,841.82,1845.26,846.93Z"/><path class="cls-7" d="M2643.21,886.57c-.09-2.16-3.26-3.47-7.54-4.17-131.88-20.9-278-31.82-419.64-31.22-65.06.28-130.71,5.18-195.66,7.89q-102.37,4.27-204.84,7.65c-221.65,7.64-443.41,13.79-665.18,20-6.7.21-11.4,3-9.72,5.83.75,1.23,1.52,2.45,2.24,3.68a6.22,6.22,0,0,0,3.64,2.33,18,18,0,0,0,6.23.73q325.56-8.85,651-20.2c127.69-4.47,255.75-12.39,383.44-15.69,148.54-3.83,305.34,9.84,443.36,31.52,6.25,1,12.87-1.9,12.8-4.53C2643.28,889.12,2643.24,887.86,2643.21,886.57Z"/><path class="cls-7" d="M2634.17,906.19c-215.6-8.68-431.66-15.66-648.93-15.67-115.46,0-231.79.28-346.45,9.09-160.72,12.29-324,17.73-485.53,26.27-5.65.3-10,2.07-10.09,4.66,0,1-.07,1.92-.13,2.87a2.89,2.89,0,0,0,1.75,2.59c1.51,1.13,4.34,1.9,8.51,1.68,159.21-8.44,319.26-14.56,477.84-25.72,113.62-8,226.49-9.43,340.9-9.61,220.81-.35,439.61,7.56,658.55,16.6,8,.32,13.85-2.14,12.39-5.72-.55-1.36-1.1-2.71-1.68-4.09S2637.29,906.3,2634.17,906.19Z"/><path class="cls-7" d="M2594.14,977.49c-46.7-1.29-92.93-5.24-138.56-9.17-104.54-9-207.5-20.87-310.84-31.94-74.75-8-152.09-18-229.85-19.7-48-1-96.83,1.23-144.77,3.28-207.35,8.85-414.4,24.54-619.82,41.11-6,.49-7.93,2.57-7.09,4.54a2.2,2.2,0,0,0,.1,1.07c.33.94.62,1.88,1,2.84.89,2.58,7.66,3.25,12.56,2.88,193.79-15.6,388.77-29.77,584.17-39.25,48.59-2.34,97.36-4.38,146.1-4.73,69.12-.52,137.38,8,203.55,14.84,102.36,10.58,204,22.28,306.75,32.17,78.17,7.54,159.07,15.39,240.11,15.15,7.24,0,13.22-4.17,8.66-6.84C2632.36,975.7,2617,978.11,2594.14,977.49Z"/><path class="cls-7" d="M1876.86,979.27c25.85-4.19,53.46-8.36,76.91-15,6.16-1.72,15.71-5,14.93-8.71-2.78-13.34-67.4-9.87-88.5-9.72-132.84.93-266.58,8.48-398.86,15.19q-164.08,8.3-327.88,18.16c-5.44.33-10.25,2-10.08,4.65,0,1,.08,1.92.13,2.87.11,2.26,4.66,4.62,10.25,4.28,219.83-13.23,441-26.18,661.93-32.15,24.13-.63,48.3-1.1,72.46-1.22,9.25,0,18.5,0,27.76.16,3.95.07,6.93.25,9.3.38-11.21,2.35-26.21,4.85-32.86,6-112.66,20.37-230.88,35.14-347.2,50.21-130.86,16.93-262.45,32.7-394.21,48-5.54.64-7.63,2.61-7.17,4.48-.6,2,1.5,3.87,7.32,4.09,48.14,2,103.89-9.71,150-15.38q176.69-21.75,352.82-44.6C1728.7,1001.25,1803.5,991.14,1876.86,979.27Z"/><path class="cls-7" d="M1155.15,1052.54q96.93-12.43,192.32-27.28c20.69-3.24,125.3-14.89,125-29.23-.41-22.9-282.94,4.31-322.06,7.34-4,.33-7.92,2.7-7.38,4.46.29.93.57,1.87.85,2.82.65,2.11,4.3,4.7,10.25,4.24q85.24-6.57,170.91-11.68,35.14-2,70.45-3.42,15.13-.54,30.27-.73c.73,0,1.44,0,2.16,0-30.63,8-72.41,12.11-103.61,16.83-57.76,8.73-116.18,16.59-174.76,24.1-3.44.46-5.49,1.38-6.49,2.52,0,0-.07.08-.11.14a1.43,1.43,0,0,0-.3.44,2.08,2.08,0,0,0-.47,1.33c0,1.35,0,2.7,0,4C1142.2,1051.44,1148.8,1053.34,1155.15,1052.54Z"/></g></g></svg>