<svg xmlns="http://www.w3.org/2000/svg" viewBox="0 0 682 682"><defs><style>.cls-1{fill:#fff;}.cls-2{fill:#e6e6e6;}</style></defs><g id="Layer_9" data-name="Layer 9"><path class="cls-1" d="M528.35,387.09S558.8,352,541.58,315.8s-52-59-90.52-65.07c0,0-12.17-40.95-52.89-55.12C359.64,182.2,250.72,177.45,268,219.38c0,0-54.61-29.25-85.75,29.23s0,77.07,0,77.07-17.91,25.16-17.91,67.38,56.73,68.43,56.73,68.43-10.81,16.42,21.7,48.43,63.76,19.92,63.76,19.92,24.41,32.26,70,32.26,88.08-19.41,96.05-52.18c0,0,21.89-.63,50.48-28.79S554.91,401.67,528.35,387.09Zm-68-32.44s2.67-46.19-33.94-64.55c-19.94-10-65.41,6.66-65.41,6.66s10.42-25-17.66-39c-38.86-19.42-55,6.88-55,6.88s-4.68-20.37-38.61-4.45c0,0,35.1-24,71.38-24s49.14,28.42,49.14,28.42,31.59-14.3,67.86,12S460.35,354.65,460.35,354.65Z"/><path class="cls-1" d="M129.17,222.47s4.89-45.39,25.14-65.64,89.38-36.31,89.38-36.31-1.39-30.73,33.52-41.9,83.79,0,83.79,0S320.5,46.5,273,46.5s-69.83,51.68-69.83,51.68-49.58-3.5-66.34,13.26-20.25,43.29-20.25,43.29,9.08-22.34,30-30,32.82-3.49,32.82-3.49S129.17,135.88,129.17,222.47Z"/><path class="cls-1" d="M384,105.3s26.88-26.95,77.49-4.13,56,74.64,56,74.64S451.43,89,384,105.3Z"/><path class="cls-1" d="M66.68,241.32S7.5,384.29,82.39,459.19c0,0,10.47-16.76,10.47-37.71,0,0,3.49,70.18,23.74,79.6s-15.88,47,0,62.85S184,612.11,184,612.11s-77.94-28.53-101.6-52.19S73,502.13,73,502.13,66.68,525.17,30,455,26.87,258.08,66.68,241.32Z"/><path class="cls-1" d="M154.66,247.61s-45,23-45,71.22,45,89,45,89S101.77,300.5,154.66,247.61Z"/><path class="cls-1" d="M246.83,539.84s14.67,44,44,50.27,41.89,7.33,41.89,7.33-34.56,11.53-69.13,0S223.79,566,223.79,566s-2.09,19.9-33.52,0-24.09-67-24.09-67-33.52,53.41,11.52,83.79,52.55,33.92,65.76,47.13c0,0,19.09,12.57,107.07,0L497.17,631s45-22.67,45-71c0,0-26.19,47-51.33,47s-17.8-22-62.84-22-55.52,9.43-55.52,9.43-30.37-27-63.89-27S246.83,550.31,246.83,539.84Z"/><path class="cls-1" d="M515,206.76s48.71-19.38,76.46,8.38,24.1,68.08,24.1,68.08,22.52-1.57,39.8,15.71,25.14,92.17-35.61,114.17c0,0,19.9,23-21,32.47,0,0,22-36.66,12.57-71.23S581,339.78,581,339.78s27.09-30.38,10.41-70.18S563.16,213,515,206.76Z"/><path class="cls-2" d="M246.22,418.93s-15.21,48.55,22.23,74,87.13,11.32,87.13,11.32S253.24,496.26,246.22,418.93Z"/><path class="cls-2" d="M288.34,290.13s-77.22-2.91-77.22,48.27,38.61,61.71,38.61,61.71S177.19,318.21,288.34,290.13Z"/><path class="cls-2" d="M202.84,378.44s-14.46,40.5,13,53.31C215.8,431.75,194.15,409.61,202.84,378.44Z"/><path class="cls-2" d="M348.2,475.07S438.26,495,472.12,449.32s11.63-73.62,11.63-73.62S459.54,475.07,348.2,475.07Z"/></g></svg>