<svg xmlns="http://www.w3.org/2000/svg" viewBox="0 0 682 682"><defs><style>.cls-1{fill:#e53026;}.cls-2{fill:#1d1d1b;}.cls-3{fill:#fff;}</style></defs><g id="Layer_4" data-name="Layer 4"><rect class="cls-1" x="7.41" y="154.93" width="667.17" height="476.34" rx="142.15" transform="translate(677.15 790.35) rotate(-179.3)"/><path class="cls-2" d="M513.55,156.64l-39.08-.48.67-55.07a10.7,10.7,0,0,0-10.57-10.82L247.08,87.59a23.22,23.22,0,0,0-23.71,23.14l-.52,42.34-39.08-.48.52-42.34A62.58,62.58,0,0,1,246.78,48.5h.77l217.51,2.67a49.85,49.85,0,0,1,49.17,50.39Z"/><circle class="cls-3" cx="343.95" cy="464.98" r="89.4"/><path class="cls-2" d="M344,560h-1.19A95.09,95.09,0,0,1,249,463.81h0a95.11,95.11,0,0,1,95-93.82h1.18A95,95,0,0,1,344,560Zm-83.83-96a83.81,83.81,0,0,0,82.78,84.84H344a83.82,83.82,0,0,0,1-167.63h-1A83.91,83.91,0,0,0,260.14,464Z"/><path class="cls-1" d="M391.55,447.41,359.74,447l.41-33.53a16.76,16.76,0,1,0-33.51-.41l-.41,33.53-33.85-.42A16.76,16.76,0,0,0,292,479.7l33.86.41-.53,43.32a16.75,16.75,0,0,0,16.55,17h.21a16.74,16.74,0,0,0,16.74-16.54l.53-43.31,31.82.39h.21a16.76,16.76,0,0,0,.2-33.51Z"/><path class="cls-3" d="M537.11,252.57h42.47a4.94,4.94,0,0,1,4.94,4.94V362.23a0,0,0,0,1,0,0H532.78a0,0,0,0,1,0,0V256.9a4.33,4.33,0,0,1,4.33-4.33Z" transform="translate(1113.49 621.64) rotate(-179.3)"/><path class="cls-3" d="M94.11,247.13h42.47a4.94,4.94,0,0,1,4.94,4.94V356.8a0,0,0,0,1,0,0H89.79a0,0,0,0,1,0,0V251.46A4.33,4.33,0,0,1,94.11,247.13Z" transform="translate(227.59 605.33) rotate(-179.3)"/><path class="cls-3" d="M162.73,265.4c0-6.88,4.45-11,15.5-11.73,3.37,0,13.75-1.48,14,4.05,0,1.88-2.16,2.42-3.64,2.56-4-.14-17.52-1.76-17.52,5.52v1.08c.53,8.76,1.21,19.55,2.15,27.23a47,47,0,0,0,7.55.14c2.16-.14,10-3.24,10,1.61,0,6.34-14,4.59-17.12,5.8-1.08,14.69,2.42,29.38,2.56,45.83V348c0,5.8-6.2,4.58-7,.54-1.62-13.21-5.8-56.62-6.47-82.9Z"/><path class="cls-3" d="M206.67,258.12c.94-2.7,1.62-2.83,4.45-2.83C215,255.29,215,257,215,261c0,.4-.14,2.16-.14,2.43l-4,92.2c-.27,5.93-7.82,6.47-7.82,2.56Z"/><path class="cls-3" d="M228.51,348.7c0-30.33,1.07-60.93,1.88-91.25.27-6.2,2.56-6.2,8-6.2h1.34c12.41,0,20.36,8.08,20.36,19.95v1.48c0,9.84-2.56,21.3-11.46,27.36a56.78,56.78,0,0,1,4.31,5.26c6.07,7.95,4.59,27.23,5.26,36.53,0,.81.81,7,.81,7.82v1.07c0,2.3-2.16,2.57-3.91,2.57h-.13c-1.49,0-3.24,0-3.78-1.89-.13-4.45-1.35-25.07-1.62-29.66-.54-6.6-1.88-15.63-10.11-15.63h-2.15a76.47,76.47,0,0,0-.81,7.82c-.14,1.21-.81,31.13-.94,42.59,0,2.56.4,5.39-3,5.39a4.86,4.86,0,0,1-4-1.88ZM239,296.54c9.57,0,13.21-17.66,13.21-23.86s-3-14.43-10.65-14.43a3.16,3.16,0,0,0-3.37,3.51c.14,11.73-.94,21.57-.94,33.56C237.27,296.4,238.21,296.54,239,296.54Z"/><path class="cls-3" d="M275.28,334.82c5.39,1.62.27,13.48,7,17.39h.81c7.55,0,9.7-10.38,9.7-15.91,0-7.41-.54-15.36-3.64-22.37-6.33-14.56-20-26.69-20-43.41,0-7.55,4.59-20.08,13.89-20.08,5.93,0,15.77,4.71,15.77,11.72,0,2.56-.81,4-3.51,4-5.25,0-3.64-8.09-11.05-8.09-6.87,0-7.41,9.57-7.41,14.29,0,13.61,11.45,23.18,17.52,34.51,5.53,10.38,8.36,25.47,5.12,35.72-2.15,7-8.22,16.58-16.44,16.58-10,0-13.08-12.4-13.08-20.49C270,336.44,273.12,334.15,275.28,334.82Z"/><path class="cls-3" d="M318.41,260.28c-8.35.54-12.13.4-12.4-1.89.27-4.58.27-6.2,14.29-5.39h11.32c3,.13,8,.54,8,4.45a3,3,0,0,1-2.7,2.56H325.56l2.56,85.59c0,1.22-2.7,1.89-3.51,1.89s-3.5-.67-3.5-1.89Z"/><path class="cls-3" d="M403.6,331.31l-.81.81-2.29,15.23c-.27,2-.14,7.82-4,7.82-1.76,0-3-3.5-3-4.85,14-97.73,14.15-98,14.15-98,.68-2.56,1.62-6.33,5-6.33a5,5,0,0,1,4.18,2l1.08,2.83c7.82,30.87,11.46,62.55,15.1,94.36l.8,8.76c0,.13-.13.13-.13.27-.94,2.56-1.48,3.64-4,3.64h-.41c-.81,0-2.16,0-2.29-.94l-3.37-25.62Zm2-8.35,16.85.4-9-62.95Z"/><path class="cls-3" d="M450.91,258.12c.94-2.7,1.62-2.83,4.45-2.83,3.91,0,3.91,1.75,3.91,5.66,0,.4-.14,2.16-.14,2.43l-4,92.2c-.27,5.93-7.82,6.47-7.82,2.56Z"/><path class="cls-3" d="M472.75,333.34c.13-11.6.13-65.51,0-77v-.54c0-3,1.07-6.07,3.9-7.28h1.22c5.39,0,11.05,1.21,15.09,4.85,14.43,12.94,17.12,36.13,16.31,54.46-1.07,26-7.14,50.82-29.38,53.51-4.31.54-7.14-.13-7.14-5.12Zm7.68-26c0,12-.27,32.49,0,46.24,16.71-2.57,21.3-29.26,21.3-44.08,0-10.65-.68-52.3-19.41-52.3h-.95C481.1,264.72,480.43,299.91,480.43,307.32Z"/></g></svg>