<svg xmlns="http://www.w3.org/2000/svg" xmlns:xlink="http://www.w3.org/1999/xlink" viewBox="0 0 88.63 83.97"><defs><style>.cls-1{fill:none;}.cls-2{isolation:isolate;}.cls-3{fill:#edc179;}.cls-4{opacity:0.14;mix-blend-mode:multiply;}.cls-5{clip-path:url(#clip-path);}.cls-6{fill:#ebb063;}</style><clipPath id="clip-path"><path class="cls-1" d="M13.17,0H75.46A13.17,13.17,0,0,1,88.63,13.17V84a0,0,0,0,1,0,0H0a0,0,0,0,1,0,0V13.17A13.17,13.17,0,0,1,13.17,0Z"/></clipPath></defs><g class="cls-2"><g id="Layer_9" data-name="Layer 9"><path class="cls-3" d="M13.17,0H75.46A13.17,13.17,0,0,1,88.63,13.17V84a0,0,0,0,1,0,0H0a0,0,0,0,1,0,0V13.17A13.17,13.17,0,0,1,13.17,0Z"/><g class="cls-4"><g class="cls-5"><path class="cls-6" d="M-29.46.85V6.61c57-4.1,114.19-7.92,171.51-11.09v-5.91C84.71-7.22,27.5-3.28-29.46.85Z"/><path class="cls-6" d="M-29.46,21.36v5.87q35.13-2.37,70.4-4.17,16.74-.82,33.54-1.34c4.81-.14,9.62-.2,14.41-.22h1c-14.61,3.75-34.52,5.57-49.39,7.72-23.17,3.36-46.55,6.4-70,9.31V45q40.77-5.07,81-11.07c9.84-1.48,59.69-6.67,59.62-13.66C111.06,10.54,9.38,18.31-29.46,21.36Z"/><path class="cls-6" d="M93.74,96.29l1.52.16h46.79v-.37Q98.91,90.91,55.63,86c-24.56-2.74-50-7-75.49-7.8q60.59.26,121.14.67,20.34,2.19,40.77,4.26V76.39c-3.64-.36-7.27-.7-10.9-1-.59-.73-2-1.31-4.36-1.33-52.07-.36-104.16-1.16-156.25-1.63v11c9.26,1.21,19.68,1.73,28.51,2.66Q46.43,91.1,93.74,96.29Z"/><path class="cls-6" d="M115.51,3.25Q43,6.31-29.46,10v5.74c57-2.94,114.24-5.81,171.51-8.08V2.12Z"/><path class="cls-6" d="M142.05,35.17V30Q56.61,40.41-29.46,49.71v11h.38c35.4.14,70.81.06,106.22,0q32.44-.09,64.91-.29V55.06H118.64c7.85-.9,15.66-1.95,23.41-3V45.57l-34.78,3.92c-11,1.22-24.4,1.82-34.95,3.91A6.26,6.26,0,0,0,69.9,54a2.35,2.35,0,0,0-1.29,1q-43.39-.09-86.76-.37c16.23-1.46,32.85-4.41,47.46-6.11Q85.73,41.93,142.05,35.17Z"/></g></g></g></g></svg>