<svg id="Layer_1" data-name="Layer 1" xmlns="http://www.w3.org/2000/svg" viewBox="0 0 682 682"><defs><style>.cls-1{fill:#7f7e7d;}.cls-2{fill:#d79897;}.cls-3{fill:#5e5f5f;}.cls-4{fill:#c1c1c1;}.cls-5{fill:#fff;}</style></defs><path class="cls-1" d="M61.67,136.92a49.37,49.37,0,0,0-3.91-5.87c-8.16-10.51-17.4-13.42-29-20.74a117.72,117.72,0,0,1-18-14.09C1.46,110.74.87,123.13,1,128.7c.4,14.82,7.38,27,14.09,38.74a135.85,135.85,0,0,0,7.82,12.13Z"/><path class="cls-2" d="M10.8,96.22a87.3,87.3,0,0,0,29.74,60.26L26.06,172.92a76.77,76.77,0,0,1-12.91-20.35C2.57,128,8.25,104.72,10.8,96.22Z"/><path class="cls-1" d="M150.09,136.92a49.37,49.37,0,0,1,3.91-5.87c8.16-10.51,17.4-13.42,29-20.74a117.72,117.72,0,0,0,18-14.09c9.34,14.52,9.93,26.91,9.78,32.48-.4,14.82-7.38,27-14.08,38.74a137.85,137.85,0,0,1-7.83,12.13Z"/><path class="cls-2" d="M201,96.22a87.3,87.3,0,0,1-29.74,60.26l14.48,16.44a76.77,76.77,0,0,0,12.91-20.35C209.19,128,203.51,104.72,201,96.22Z"/><path class="cls-1" d="M520.92,266.13l-38.86-38.86c4.24-8.57,10.74-21.5,19-37.06C531.9,132,547.82,102.42,571.53,82.67c11.83-9.86,31.86-23.38,63.26-31.63,26.27-1.19,44.52,6.09,46.1,15.36,1,6.16-5.22,13.53-10.85,17.17-9.51,6.16-19.47,3.14-20.79,2.71-34.34,10.48-55.26,27.6-66,38-30.32,29.33-41.6,65.2-51.51,96.7a335.79,335.79,0,0,0-10.85,45.19"/><path class="cls-1" d="M424.27,494.27,386,584.21l-48-18L356.81,516a207.55,207.55,0,0,1-51-99.68,75.14,75.14,0,0,1,68.21-8.25Z"/><path class="cls-3" d="M316.89,592.63c0-16.07,16.14-29.29,35.75-29.29s35.75,13.22,35.75,29.29"/><rect class="cls-1" x="150.36" y="451.94" width="44.86" height="129.27" transform="translate(345.59 1033.15) rotate(-180)"/><path class="cls-3" d="M135.53,598.75c0-16.07,16.14-29.29,35.75-29.29S207,582.68,207,598.75"/><path class="cls-4" d="M197.67,234.22A405.08,405.08,0,0,1,340.75,205.6c59.36-.86,133.19-1.94,170.59,47.33,25.93,34.15,32.18,89.66,22,129.86-3.6,14.24-9.87,29-13.21,56.13a259.65,259.65,0,0,0,0,62.74q6.61,17.05,13.21,34.12l-51.73,84.74L433.2,596.31,464,539.08c-5.63-7.21-14.58-18.18-26.41-30.82-20.83-22.24-30.38-28-41.82-41.82-9.35-11.27-21.1-29.27-28.62-57.23-4.3-.55-63.55-7.16-96.85,35.22-13.36,17-17.36,35.28-18.71,46.22V579.8l-27.51,47.33-41.83-27.52,17.61-25.31V477.45a177.93,177.93,0,0,1-69.33-28.62c-77-53.68-81.08-151.89-81.45-166.19-35.36-35.48-39.65-89-14.31-123.26,34-45.94,110-41.49,144.18-2.21C204.45,186.5,198.91,226.39,197.67,234.22Z"/><path class="cls-1" d="M105.08,242a17.46,17.46,0,0,0,12-9.58,21.84,21.84,0,0,0-24,0,19.06,19.06,0,0,0,12,9.58Z"/><path class="cls-1" d="M105.08,248.41a10.63,10.63,0,0,1,7.27,5.8,13.24,13.24,0,0,1-14.53,0,11.5,11.5,0,0,1,2.74-3.43A11.69,11.69,0,0,1,105.08,248.41Z"/><rect class="cls-1" x="103.13" y="239.49" width="3.91" height="10.49" transform="translate(210.17 489.46) rotate(-180)"/><path class="cls-5" d="M93.14,206.88c.09,9.29-10.21,16.27-19.38,16.21-8.81-.05-18.82-6.59-19-15.68-.18-9.25,9.9-16.27,19-16.38S93.05,197.7,93.14,206.88Z"/><circle class="cls-1" cx="73.66" cy="207.49" r="13.02"/><circle class="cls-5" cx="67.54" cy="200.74" r="3.91"/><path class="cls-5" d="M155.21,206.88c.08,9.29-10.21,16.27-19.39,16.21-8.8-.05-18.82-6.59-19-15.68-.17-9.25,9.91-16.27,19-16.38S155.12,197.7,155.21,206.88Z"/><circle class="cls-1" cx="135.73" cy="207.49" r="13.02"/><circle class="cls-5" cx="129.6" cy="200.74" r="3.91"/><path class="cls-3" d="M482,628.08c0-18.9-16.14-34.44-35.75-34.44s-35.75,15.54-35.75,34.44"/><path class="cls-3" d="M227.72,631.09c0-18.9-16.14-34.44-35.75-34.44s-35.75,15.54-35.75,34.44"/></svg>