<svg id="Layer_1" data-name="Layer 1" xmlns="http://www.w3.org/2000/svg" viewBox="0 0 682 682"><defs><style>.cls-1{fill:#9a591b;}.cls-2,.cls-4{fill:#562d0f;}.cls-2{opacity:0.85;}.cls-3{fill:#aa672f;}.cls-5{fill:#764116;}.cls-6{fill:#fff;}</style></defs><path class="cls-1" d="M117.2,381.33,87.61,317.21c4.47,1.46,13.91,3.73,23.48-.24,14.88-6.18,24.16-25,21.13-46.26a24,24,0,0,0-20,13.31,82.15,82.15,0,0,0-10.72-28.12c-6.08-9.89-16.8-22.46-21.66-20.31-3.51,1.55-.87,9.35-6.36,20.71a43.09,43.09,0,0,1-6.73,10,60,60,0,0,1-45.89,15.26,28.39,28.39,0,0,0,11.28,12.35,27.57,27.57,0,0,0,10.21,3.45Q30.57,307.9,18.7,318.68,9.28,327.23,0,335.76a39.5,39.5,0,0,0,17.6,2.71,39.66,39.66,0,0,0,19.23-6.76A88.41,88.41,0,0,0,22.5,352.9a87,87,0,0,0-4.9,12.64q8.05-1.29,16.24-2.7,6.54-1.12,13-2.29c-2.48.84-16,5.65-22.44,19.88a37.24,37.24,0,0,0-2.71,21.66Q29,400.16,36.55,398q9.21-2.59,18-5.31A28.7,28.7,0,0,0,51,403a29.33,29.33,0,0,0,2.45,16.37Q46,416.82,46,414.28q0-4.62,24.09-9.36l16.75,23.9"/><path class="cls-2" d="M486.26,359c-6.23,40.78-19.21,67.19-19.21,67.19-18.44,37.51-26.45,75.63-32,101.28-6.39,29.72-11.81,56.06-4.15,75.38,6.73,17,20.17,20,26.23,20.62a11.56,11.56,0,0,1,2.13,7.63c-.16,3.39-1.56,6.28-3.51,7.23l-69.94.69,15.4-244.8c36.53-27.38,80-56.53,84.95-42.06C486.94,354.37,486.59,356.9,486.26,359Z"/><path class="cls-2" d="M272.2,392.81c1,6.87-6.69,13-26.82,42.68-24.25,35.81-37.58,55.89-45.48,87.42-3.32,13.23-13.4,53.43-1.77,79.91,7.64,17.4,20.87,20.26,26,20.89a11.46,11.46,0,0,1,2.06,7.64c-.2,3.39-1.62,6.27-3.58,7.19H152.68c-.38-32.11.25-68.18,2.67-107.39,3.23-52.34,8.92-98.45,15.15-137.24C251.44,376.29,270.74,382.75,272.2,392.81Z"/><path class="cls-3" d="M469.82,641.2c0-19.9-20-36.27-44.26-36.27s-44.27,16.37-44.27,36.27"/><path class="cls-4" d="M482.66,362.69c2,20.74-16.86,27.65-43.52,95.15-27.69,70.1-38.72,142.21-28,157.25,4.58,6.47,14.16,3.76,15.65,12.47.75,4.38-.94,9.26-2.75,13H347.58c12.12-130.92-41.78-172.3-90.67-156.42-56.67,18.41-78.46-7.35-100.1,24.17-10.16,14.81-22.05,44.81-21.69,113.29,1.2.91,14.54,11.06,13.74,16.27-.71,4.58-12,3-14,2.69H80.57l-8.93-173C157.64,360.8,235.4,327,284.05,314.8,374.34,292.18,478,315.5,482.66,362.69Z"/><path class="cls-4" d="M549.51,77.13c-52.51,78.49-59.4,135.08-55.23,173,1.57,14.31,6.3,40.38,2.12,77-3.42,29.91-7.31,60.3-31.06,85.33-3.52,3.71-27.29,28.08-62.58,31.09-9.84.84-12.35-1.21-29.92-3.47,0,0-30.23-3.9-71.92-1.56-11.65.66-36.28,5.83-85.07,16.14C156.31,467.3,129.9,472.9,92.33,471c-9-.45-16.31-1.21-21.23-1.8A263.24,263.24,0,0,1,94,401.68c3.12-6.22,16.61-33.19,34.62-52.38,56.38-60.06,135.43-20.94,183.55-78.77,15-18.06,21.37-38.75,26.33-54.93,13.24-43.19,4.21-66.06,23.84-107.31,5-10.57,10.16-21.36,20.95-32.88C420.68,35.53,475.6,40.5,484,44.41c.63.3,4.25,2,8.82,4.4,11.89,6.18,19.71,11.36,23.56,13.75A137.3,137.3,0,0,0,549.51,77.13Z"/><path class="cls-4" d="M516,200.67l28.79,35.15c41.74-50.41,49.68-104.13,33.69-130.75-14.15-23.53-31.64-33.2-31.64-33.2-8.19-4.52-13-5.1-26.81-13.12C513,54.59,507.76,51,498.53,47.17A111.26,111.26,0,0,0,483,42.09c4.27,26.36,6.2,47.72,7.18,62.21,2,29.88,1.17,48.12,11.87,72.19A134.08,134.08,0,0,0,516,200.67Z"/><path class="cls-5" d="M490.75,241.9c-67.09-.25-92.34,2.62-100.37,6-.72.3-7.15,3.08-16.14,6.4,0,0-7.47,2.75-14.19,4.89-17.94,5.71-41.67,9.4-46.57,10.15a115.13,115.13,0,0,0,10-15.27,132.15,132.15,0,0,0,9.06-21,189.71,189.71,0,0,0,5.73-19.56c4.83-20.86,4.67-40.67,4.76-46.35.86-55.69,46.19-102.54,61.1-112.09A74.94,74.94,0,0,1,420.86,47c2.61-.79,1.53-.26,19.57-3.82,3.84-.75,8.6-1.7,14.79-3.34,3.12-.82,5.36-1.48,5.58-1.55C471,35.32,549,57.17,553.93,102.18c3.5,31.71-32.77,42.76-55.89,113A263.09,263.09,0,0,0,490.75,241.9Z"/><path class="cls-1" d="M554.84,102.43a150.17,150.17,0,0,0,17.56,13.5c15.68,10.3,25.61,12.53,40.8,19.37,25.54,11.52,40,18,43.86,30.08,6.78,21.12-21.27,50.79-45.44,65.65-19.41,11.93-23.19,6.24-59.08,20.53-42.1,16.76-57.59,33-69.23,25.59-5.4-3.46-10.75-12-9-34.62,15.93-34.46,23.8-48.81,28.05-55.41.54-.83,4.1-6.37,9-14.13,3-4.72,6.92-10.92,8-12.8,11.31-19-.2-40,10.23-51.55C533.08,104.84,539.88,101,554.84,102.43Z"/><path class="cls-4" d="M372,212.49l-28.78,35.16c-41.75-50.41-49.69-104.14-33.69-130.75,14.14-23.53,31.63-33.2,31.64-33.2,8.18-4.52,13-5.1,26.8-13.13,7.12-4.15,12.3-7.78,21.53-11.58A111,111,0,0,1,405,53.92c-4.27,26.35-6.21,47.72-7.19,62.21-2,29.88-1.17,48.12-11.86,72.19A133.51,133.51,0,0,1,372,212.49Z"/><circle class="cls-6" cx="461.35" cy="107.23" r="23.15"/><circle class="cls-4" cx="461.48" cy="107.85" r="18.8"/><circle class="cls-6" cx="470.33" cy="98.11" r="5.64"/><path class="cls-1" d="M436,644c0-19.9-20-36.27-44.26-36.27S347.43,624.1,347.43,644"/><path class="cls-3" d="M233.2,639.74c0-19.89-20-36.26-44.27-36.26s-44.26,16.37-44.26,36.26"/><path class="cls-1" d="M151.94,644c0-19.9-20-36.27-44.26-36.27S63.42,624.1,63.42,644"/><path class="cls-5" d="M639.63,209A59.06,59.06,0,0,0,682,159.84a40.93,40.93,0,0,0-9-10.41c-11.71-9.64-25.46-9.68-31.95-9.7-6,0-17.07.1-28.37,7.18a47.3,47.3,0,0,0-13.28,12.57,58,58,0,0,0,9.69,26.93A59.16,59.16,0,0,0,639.63,209Z"/></svg>