<svg id="Layer_1" data-name="Layer 1" xmlns="http://www.w3.org/2000/svg" viewBox="0 0 682 682"><defs><style>.cls-1{fill:#eebf90;}.cls-2{fill:#e7ad84;}.cls-3{fill:none;}.cls-4{fill:#d1a080;}.cls-5{fill:#f4a8a4;}.cls-6{fill:#fff;}.cls-7{fill:#12211c;}</style></defs><path class="cls-1" d="M150,447.37c53.79,76.39,80.76,96.06,95.31,96.71,2.08.09,10.55.09,14.1,5.42,4.8,7.21-2,20.24-8.7,30.37l-13,4.34A257.35,257.35,0,0,1,150,447.37Z"/><path class="cls-2" d="M267.12,514.89a97.64,97.64,0,0,0-15.62,20.84c-7,12.52-9.53,23.68-11.29,33-8.69,46.06-13,69.09,0,88.55C244,663,252,672.4,268.41,679.37H391.54V490.53Z"/><path class="cls-1" d="M284.45,429.78h123.3a42.47,42.47,0,0,1,12.16,12.15,43.68,43.68,0,0,1,6.95,24.89V680.43H373.6V532.24c-2.9-16.13-17.52-27-32.42-25.47-12.84,1.35-23.75,11.75-26.05,25.47V679.85H260.72V465.67c.47-10.23,3.65-16.49,6.37-20.26,6.12-8.52,17.69-15.23,17.41-15.62Z"/><path class="cls-3" d="M254.17,682a31.67,31.67,0,0,1,63.34,0"/><path class="cls-3" d="M369.06,682a31.67,31.67,0,1,1,63.34,0"/><path class="cls-4" d="M248.34,680.84a35.58,35.58,0,0,1,71.15,0"/><path class="cls-4" d="M368.3,680.84a35.58,35.58,0,0,1,71.15,0"/><path class="cls-1" d="M607.74,4a274.43,274.43,0,0,1,6.58,40c2.06,23.15,5.16,57.85-7.44,89.94-18.3,46.6-62.38,69-79,76.4l-72-59.45L417.14,90.5c4.62-16.25,18.24-54.85,54.5-75.52C498.91-.56,528.93-.25,562.25.1A303.73,303.73,0,0,1,607.74,4Z"/><path class="cls-1" d="M74.26,4a274.43,274.43,0,0,0-6.58,40C65.62,67.2,62.52,101.9,75.12,134c18.3,46.6,62.38,69,78.95,76.4l72-59.45L264.86,90.5c-4.62-16.25-18.24-54.85-54.5-75.52C183.09-.56,153.07-.25,119.75.1A303.73,303.73,0,0,0,74.26,4Z"/><path class="cls-5" d="M582,37.64a191.33,191.33,0,0,1,4.57,27.85c1.44,16.11,3.59,40.26-5.17,62.58-12.74,32.44-43.41,48-54.94,53.17l-50.08-41.37-27-42.06c3.22-11.31,12.69-38.16,37.93-52.55,19-10.81,39.86-10.59,63.05-10.35A210.57,210.57,0,0,1,582,37.64Z"/><path class="cls-5" d="M100.91,37.64a189.75,189.75,0,0,0-4.58,27.85c-1.44,16.11-3.59,40.26,5.18,62.58,12.73,32.44,43.4,48,54.93,53.17l50.09-41.37q13.5-21,27-42.06c-3.22-11.31-12.69-38.16-37.93-52.55-19-10.81-39.86-10.59-63.05-10.35A210.29,210.29,0,0,0,100.91,37.64Z"/><path class="cls-1" d="M345.08,457.75c-27-8.47-88.24-31.85-134.13-92.26-15.9-20.93-90.67-126.25-41.35-213.14C216.9,69,337.26,75,352.52,76c18.15,1.17,122.13,7.87,163.83,89.08,45.38,88.38-23.87,185.45-33.4,198.82C436.1,429.58,368.71,451.31,345.08,457.75Z"/><circle class="cls-6" cx="279.26" cy="286.3" r="29.59"/><circle class="cls-6" cx="419.32" cy="286.3" r="29.59"/><circle class="cls-7" cx="279" cy="287.1" r="24.04"/><circle class="cls-7" cx="419.15" cy="287.1" r="24.04"/><circle class="cls-6" cx="267.32" cy="274.64" r="7.21"/><circle class="cls-6" cx="407.84" cy="274.64" r="7.21"/><path class="cls-6" d="M470.37,380c-7.9-15.55-21-34.53-42.74-43.32-24.51-9.92-37.51,2.23-49.05-8-17.37-15.44-2.25-55.61-7.88-116.46-.73-7.89-2.49-23.45-12.77-28.72a20,20,0,0,0-15.95-.54c-28.14,12.28,10.93,116-26.93,142.51-14,9.78-24.82-.44-49.65,11.72C243.8,347.72,230.73,365.87,223,380c2.82,3.25,6.77,7.62,11.72,12.55a257.39,257.39,0,0,0,36.85,29.94,283.43,283.43,0,0,0,38.35,21.61A289.38,289.38,0,0,0,345,457.77a254,254,0,0,0,29.74-9.93c3.73-1.5,10.4-4.3,18.53-8.35a262.07,262.07,0,0,0,28.89-16.81c7.65-5.14,13.12-9.41,15.1-11,1.58-1.25,5.72-4.55,10.77-9.06A254.23,254.23,0,0,0,470.37,380Z"/><path class="cls-5" d="M362.05,473.63H349c-14.76,0-26.72-9.2-26.72-20.54V414.57a.83.83,0,0,1,.91-.7,99.45,99.45,0,0,0,63.89,0,1.12,1.12,0,0,1,.64.21.61.61,0,0,1,.27.49v39.09C388,464.69,376.39,473.63,362.05,473.63Z"/><path class="cls-7" d="M353,394.39a41,41,0,0,1-29.41-34.15,28.16,28.16,0,0,1,6.23-7.23c8.13-6.69,17.67-6.71,22.18-6.73,4.14,0,11.86.07,19.69,5a32.78,32.78,0,0,1,9.23,8.72,40.36,40.36,0,0,1-6.73,18.7A41.1,41.1,0,0,1,353,394.39Z"/></svg>