<svg xmlns="http://www.w3.org/2000/svg" viewBox="0 0 682 682"><defs><style>.cls-1{fill:#e63849;}</style></defs><g id="Layer_4" data-name="Layer 4"><path class="cls-1" d="M511.33,57.2q3.51-21.69,5.88-43.5H496.76V59.78C501.63,59,506.48,58.1,511.33,57.2Z"/><path class="cls-1" d="M491.41,60.65V13.7H467.52V64.17Q479.49,62.58,491.41,60.65Z"/><path class="cls-1" d="M462.16,64.84V13.7H447.05V66.61Q454.61,65.8,462.16,64.84Z"/><path class="cls-1" d="M453.37,290a472.53,472.53,0,0,0,10.86-59.79l.17-.67a850.4,850.4,0,0,0,31.17-96.8c5.91-23,10.86-46.38,14.83-69.9a857.3,857.3,0,0,1-145.53,14c-2.81,0-5.62,0-8.42,0A856.05,856.05,0,0,1,181.39,58.7a870.33,870.33,0,0,1-10.63,113.75c-9.06,56.34-21.07,94.66-31.67,128.46-7.39,23.56-14.37,45.82-19.66,71.58-17,82.76-10.08,173.4,20.61,269.4L452,668c-6-226.55-5.7-349.44.79-375.63ZM350.71,152.17c28.18,3.15,24.09,70.21,22.51,91.14-1.1,11.49-6.93,31.48-22.67,31.48-27.86,0-29.12-47.53-29.12-66C321.43,188.85,322.85,152.17,350.71,152.17Zm-68.78,0c28.17,3.15,24.08,70.21,22.5,91.14-1.1,11.49-6.92,31.48-22.66,31.48-27.86,0-29.12-47.53-29.12-66C252.65,188.85,254.06,152.17,281.93,152.17ZM204,168.07c0-8,5.19-12.91,18.1-13.69,3.94,0,16.06-1.74,16.37,4.72,0,2.2-2.52,2.83-4.25,3-4.72-.16-20.46-2.05-20.46,6.45v1.26c.63,10.23,1.41,22.83,2.52,31.8a55.64,55.64,0,0,0,8.81.16c2.52-.16,11.65-3.78,11.65,1.89,0,7.39-16.37,5.35-20,6.76-1.26,17.16,2.83,34.32,3,53.52v.63c0,6.77-7.24,5.35-8.19.63-1.88-15.42-6.76-66.11-7.55-96.8ZM395.37,501.58,393,514.77l-29.81-5.46c-1.26,2-2.6,3.94-4,5.88-1.26,1.7-3.23,4.36-5.86,7.52l27.22,8.9-4.16,12.74-33.14-10.84c-12.39,11.76-30.89,24-54.18,22.87-27.76-1.37-46.89-21-57.1-34.75l-28.46,9.3-4.17-12.74L224.2,510l-.06-.11a99,99,0,0,1-7-14.14l-30.38,5.56-2.42-13.18L213,482.92a108,108,0,0,1-2.51-13.85l-45.61-3.56,1-13.37,43.79,3.42c-.05-32.26,12.36-58.83,14.42-63.07q5.69,14.89,11.39,29.8a145.21,145.21,0,0,1,121,0l18.4-18.41c1.7,5.74,9.32,33.12,3.92,64.41l35-2.73,1,13.36L375.6,482A109.67,109.67,0,0,1,370,496.92Zm37.51-283.93c-1.26,30.38-8.35,59.35-34.32,62.5-5,.63-8.34-.16-8.34-6V247.4c.16-13.53.16-76.5,0-89.88v-.63c0-3.46,1.26-7.08,4.56-8.5h1.42c6.3,0,12.91,1.42,17.63,5.67C430.67,169.17,433.82,196.25,432.88,217.65Z"/><path class="cls-1" d="M281.3,266.92c15.42,0,15.58-40,15.58-49.89v-.63c0-12.13-3.31-56.2-18.26-56.2-11.81,0-16.84,26.29-16.84,34.16-.16,5-.16,9.44-.16,13.85C261.62,254.33,270.12,266.92,281.3,266.92Z"/><path class="cls-1" d="M441.7,67.17V13.7H417.81V69.24Q429.77,68.37,441.7,67.17Z"/><path class="cls-1" d="M401.4,158.47h-1.11c-.31,8.81-1.1,49.9-1.1,58.56,0,14-.31,37.93,0,54,19.52-3,24.87-34.16,24.87-51.48C424.06,207.11,423.28,158.47,401.4,158.47Z"/><path class="cls-1" d="M310.7,70.22V13.7H286.81V68.59Q298.75,69.58,310.7,70.22Z"/><path class="cls-1" d="M216.55,59.86V13.7H181.48q.48,19.76.05,39.56Q199,56.92,216.55,59.86Z"/><path class="cls-1" d="M245.79,64.23V13.7H221.9V60.75Q233.83,62.67,245.79,64.23Z"/><path class="cls-1" d="M281.46,68.15V13.7H251.14V64.9Q266.28,66.79,281.46,68.15Z"/><path class="cls-1" d="M474.45,658.75a39.81,39.81,0,0,0,5.53-4.91,39.82,39.82,0,0,1,4.6-4.21,49.82,49.82,0,0,1,34.48-9.7c6.15.64,9.65,2.41,14.08,4.64a106.21,106.21,0,0,0,19,7.67c3.86,1.18,7.81,2.22,11.76,3.1,3.24-26.42,5.5-53.33,6.71-80.05,4.62-102-6.86-175.82-19-254-1.92-12.35-3.86-24.79-5.74-37.42-11.8-79.3-20.68-161.35-26.46-244.3a854.42,854.42,0,0,1-18.63,94.47,854.78,854.78,0,0,1-31.25,97.09,479.49,479.49,0,0,1-10.94,60.13l-.51,2.07c-6.37,25.69-6.59,151.44-.74,374.08A57.37,57.37,0,0,0,474.45,658.75Z"/><path class="cls-1" d="M364.81,71.45c4,0,8-.12,12-.21V13.7H352.9V71.48Q358.86,71.51,364.81,71.45Z"/><path class="cls-1" d="M412.46,69.63V13.7H382.14V71.1Q397.29,70.64,412.46,69.63Z"/><path class="cls-1" d="M347.54,71.42V13.7H316.06V70.51Q331.8,71.26,347.54,71.42Z"/><path class="cls-1" d="M350.08,266.92c15.43,0,15.59-40,15.59-49.89v-.63c0-12.13-3.31-56.2-18.26-56.2-11.81,0-16.85,26.29-16.85,34.16-.15,5-.15,9.44-.15,13.85C330.41,254.33,338.91,266.92,350.08,266.92Z"/></g></svg>