<svg id="Layer_1" data-name="Layer 1" xmlns="http://www.w3.org/2000/svg" viewBox="0 0 682 682"><defs><style>.cls-1{fill:#d28a4f;}.cls-2{fill:#9e5817;}.cls-3{fill:#764019;}.cls-4{fill:#fae3d0;}.cls-5{fill:#12211c;}.cls-6{fill:#fff;}</style></defs><rect class="cls-1" x="172.18" y="367.22" width="52.1" height="205.76" transform="translate(396.46 940.2) rotate(-180)"/><path class="cls-2" d="M229.6,584.59a32.29,32.29,0,1,0-64.57,0"/><path class="cls-3" d="M510.38,458.4c.73-3,2.06-9.91-1.09-16.31-21.65-44-227.38-6.69-230.44,33.7-.44,5.81,3.39,10.74,5.44,13,16.74.21,34.15-.11,52.17-1.09A788.14,788.14,0,0,0,510.38,458.4Z"/><path class="cls-1" d="M15.18,143.77a130.77,130.77,0,0,1,20.5-10.92c12.3-5.21,17-5,24-9.11C71.26,117,73.2,107.79,79.76,99c17.88-24,55.05-25,59.73-25.14,31.93-.83,54.83,19,72.85,34.61,11.82,10.23,16.3,16.78,70.89,93.19,18,25.18,18.69,26.13,21.27,28.83,33.21,34.82,76.45,44.31,94.7,48.08a256.22,256.22,0,0,0,62.65,4.73c28-1.84,41.49-8.2,61.92-2.55,17.86,4.95,30.37,16.12,38,24.43a167.24,167.24,0,0,1,31.62,37.5c29.82,48.51,17.3,86.11,46.63,134.77a169.31,169.31,0,0,0,35.45,41.4v87.11H627.48V547.25c-20.66-7.19-47-20.57-77.48-45.78a263.13,263.13,0,0,1-48.81-53.25,545.59,545.59,0,0,1-92.52,23,545.11,545.11,0,0,1-121.14,5.4v129.3H228.84V483.06a266.55,266.55,0,0,1-69.69-185.23c-19.9,4.32-29.18-2.32-31.68-4.35-10.12-8.2-11.1-23.38-12.75-48.81-.58-9.09-.51-16.58-.36-21.49-4.15.07-10,.11-17.12,0-33.58-.52-41.91-3.75-47.72-7.28a48.54,48.54,0,0,1-11-9.5C20,186.23,16.11,158.27,15.18,143.77Z"/><path class="cls-4" d="M59.72,123.74A190.83,190.83,0,0,1,58,185.87a188.3,188.3,0,0,1-8.49,30c-2.41,1.48-11.64,6.78-19.43,3.17-6.32-2.94-8.53-10.29-10.32-18.33-2.7-12.11-5.63-31.13-4.59-57A153.87,153.87,0,0,1,32.39,134,155.91,155.91,0,0,1,59.72,123.74Z"/><rect class="cls-3" x="553.11" y="465.1" width="52.1" height="111.66" transform="translate(1158.32 1041.87) rotate(-180)"/><path class="cls-2" d="M291.55,608.18a32.28,32.28,0,0,0-64.56,0"/><path class="cls-5" d="M21.24,170.42a31.18,31.18,0,0,0,22.39-26,21.55,21.55,0,0,0-4.75-5.5c-6.18-5.1-13.45-5.12-16.88-5.13a26.78,26.78,0,0,0-15,3.8,24.76,24.76,0,0,0-7,6.64,30.73,30.73,0,0,0,5.12,14.22A31.24,31.24,0,0,0,21.24,170.42Z"/><path class="cls-1" d="M525,283l40.1,73.24c9.78-21,19.28-48.16,21.65-78.65,6.9-88.71-51.61-140.22-71.58-156,12.24,15.53,37.37,53.7,27.37,110.24A185.32,185.32,0,0,1,525,283Z"/><path class="cls-2" d="M608.85,584.59a32.28,32.28,0,1,0-64.56,0"/><path class="cls-3" d="M507.17,457c-5.54-4.72-6.13-7.73-5.74-9.56,1.79-8.34,28.08-12.3,51.07-8.22,13.67,2.42,16.69,6,33.08,10.45a163.93,163.93,0,0,0,43,5.68,159.3,159.3,0,0,0,46.81,63.45l-.17,76.25-47.6-1.79-.45-45.87c-27.84-9.49-68.12-28.24-101.69-66.38A218.22,218.22,0,0,1,507.17,457Z"/><path class="cls-2" d="M682,608.18a32.28,32.28,0,0,0-64.56,0"/><path class="cls-2" d="M117.19,299.24c6.43,10.92,13.31,14.23,16.13,15.36,16.17,6.44,34.19-5.24,39.16-8.45,34.58-22.4,38.25-74,39.92-97.52,4.2-59.06-17.23-96.55-29.17-104.42a26.85,26.85,0,0,0-14.59-4.61c-8.19.37-14,5.66-16.13,7.68-9.95,9.36-10.59,21.49-13.82,36.86-3.81,18.14-5.67,14.32-13.82,42.23C111.61,231.78,100.3,270.52,117.19,299.24Z"/><circle class="cls-6" cx="113.27" cy="127.77" r="17.67"/><circle class="cls-5" cx="113.42" cy="128.25" r="14.35"/><circle class="cls-6" cx="120.4" cy="120.81" r="4.31"/></svg>