<svg xmlns="http://www.w3.org/2000/svg" viewBox="0 0 682 682"><defs><style>.cls-1{isolation:isolate;}.cls-2{fill:#f1e5d9;}.cls-3{fill:#88ba3a;}.cls-4{fill:#7f6d5d;}.cls-5{fill:#be9168;}.cls-6{fill:#b7a370;}.cls-7{fill:#866f63;}.cls-8{fill:#69564c;}.cls-9{fill:#4ba2da;}.cls-10{fill:#387ba4;}.cls-11{fill:#9ac3e8;}.cls-12{fill:#f5d791;}.cls-13{fill:#a59365;}.cls-13,.cls-24{mix-blend-mode:multiply;}.cls-14{fill:#d64136;}.cls-15{fill:#8c1f33;}.cls-16{fill:#b5e1f5;}.cls-17{fill:#63b7d2;}.cls-18{fill:#f26e22;}.cls-19{fill:#f2c230;}.cls-20{fill:#f29727;}.cls-21{fill:#b1b390;}.cls-22{fill:#f2f2c0;}.cls-23{fill:#544a2e;}.cls-24{fill:#afb18e;}.cls-25{fill:#04bf33;}.cls-26{fill:#3f361d;}.cls-27{fill:#a2d659;}.cls-28{fill:#c94337;}.cls-29{fill:#796c48;}.cls-30{fill:#999b7e;}</style></defs><g class="cls-1"><g id="Layer_3" data-name="Layer 3"><ellipse class="cls-2" cx="341" cy="492.76" rx="335.71" ry="155.2"/><ellipse class="cls-3" cx="341" cy="467.45" rx="323.72" ry="129.89"/><polygon class="cls-4" points="252.12 376.16 252.12 371.2 240.24 371.2 240.24 366.44 240.24 358.26 240.24 356.39 240.24 354.52 240.24 352.64 240.24 343.65 240.24 341.77 240.24 339.91 240.24 338.03 240.24 329.03 240.24 327.16 240.24 325.29 240.24 323.42 240.24 314.42 240.24 312.55 240.24 310.68 240.24 308.81 240.24 299.81 240.24 297.94 240.24 296.07 240.24 294.2 240.24 285.2 240.24 283.33 240.24 281.46 240.24 279.59 240.24 269.8 240.24 264.3 240.24 260.02 243.99 260.02 243.99 251.98 240.24 251.98 240.24 247.96 230.6 247.96 230.6 244.06 230.6 237.43 230.6 235.91 230.6 234.39 230.6 232.88 230.6 225.58 230.6 224.06 230.6 222.55 230.6 221.03 230.6 213.73 230.6 212.21 230.6 210.69 230.6 209.18 230.6 201.88 230.6 200.37 230.6 198.85 230.6 197.33 230.6 190.03 230.6 188.52 230.6 187 230.6 185.48 230.6 178.19 230.6 176.67 230.6 175.15 230.6 173.64 230.6 165.7 230.6 161.24 230.6 157.76 233.64 157.76 233.64 151.25 230.6 151.25 230.6 147.99 223.07 147.99 223.07 50.94 223.07 47.47 226.1 47.47 226.1 40.95 223.07 40.95 223.07 39.92 211.67 39.92 211.67 34.41 202.63 34.41 202.63 31.49 171.23 31.49 171.23 34.41 162.19 34.41 162.19 39.92 155.52 39.92 155.52 40.95 152.47 40.95 152.47 47.47 155.52 47.47 155.52 50.94 155.52 51.25 155.52 53.31 155.52 58.33 155.52 62.22 155.52 64.28 155.52 69.3 155.52 73.19 155.52 75.26 155.52 80.27 155.52 84.17 155.52 86.23 155.52 91.24 155.52 95.13 155.52 97.2 155.52 102.21 155.52 106.1 155.52 108.17 155.52 113.18 155.52 117.08 155.52 119.14 155.52 124.16 155.52 128.05 155.52 130.11 155.52 135.13 155.52 139.03 155.52 141.09 155.52 146.1 155.52 147.99 147.98 147.99 147.98 151.25 144.94 151.25 144.94 157.76 147.98 157.76 147.98 161.24 147.98 165.7 147.98 173.64 147.98 175.15 147.98 176.67 147.98 178.19 147.98 185.48 147.98 187 147.98 188.52 147.98 190.03 147.98 197.33 147.98 198.85 147.98 200.37 147.98 201.88 147.98 209.18 147.98 210.69 147.98 212.21 147.98 213.73 147.98 221.03 147.98 222.55 147.98 224.06 147.98 225.58 147.98 232.88 147.98 234.39 147.98 235.91 147.98 237.43 147.98 244.06 147.98 247.96 138.35 247.96 138.35 251.98 134.6 251.98 134.6 260.02 138.35 260.02 138.35 264.3 138.35 269.8 138.35 279.59 138.35 281.46 138.35 283.33 138.35 285.2 138.35 294.2 138.35 296.07 138.35 297.94 138.35 299.81 138.35 308.81 138.35 310.68 138.35 312.55 138.35 314.42 138.35 323.42 138.35 325.29 138.35 327.16 138.35 329.03 138.35 338.03 138.35 339.91 138.35 341.77 138.35 343.65 138.35 352.64 138.35 354.52 138.35 356.39 138.35 358.26 138.35 366.44 138.35 371.2 126.46 371.2 126.46 376.16 121.84 376.16 121.84 386.07 126.46 386.07 126.46 391.36 126.46 398.13 126.46 410.2 126.46 412.51 126.46 414.81 126.46 417.12 126.46 428.22 126.46 430.52 126.46 432.83 126.46 435.14 126.46 446.24 126.46 448.54 126.46 450.86 126.46 453.16 126.46 464.26 126.46 466.56 126.46 468.88 126.46 471.18 126.46 482.28 126.46 484.58 126.46 486.89 126.46 489.2 126.46 500.3 126.46 502.61 126.46 504.92 126.46 507.23 126.46 517.3 126.46 529.37 252.12 529.37 252.12 517.3 252.12 507.23 252.12 504.92 252.12 502.61 252.12 500.3 252.12 489.2 252.12 486.89 252.12 484.58 252.12 482.28 252.12 471.18 252.12 468.88 252.12 466.56 252.12 464.26 252.12 453.16 252.12 450.86 252.12 448.54 252.12 446.24 252.12 435.14 252.12 432.83 252.12 430.52 252.12 428.22 252.12 417.12 252.12 414.81 252.12 412.51 252.12 410.2 252.12 398.13 252.12 391.36 252.12 386.07 256.74 386.07 256.74 376.16 252.12 376.16"/><polygon class="cls-5" points="341.96 83.1 341.96 70.14 335.79 70.14 335.79 27.3 297.45 39.98 259.13 27.3 259.13 52.66 240.98 58.66 240.98 70.14 234.8 70.14 234.8 83.1 219.48 83.1 219.48 533.91 263.17 533.91 267.89 533.91 308.87 533.91 313.58 533.91 357.27 533.91 357.27 83.1 341.96 83.1"/><polygon class="cls-4" points="537.83 72.3 537.83 59.34 531.65 59.34 531.65 16.5 493.32 29.18 455.01 16.5 455.01 41.85 436.84 47.86 436.84 59.34 430.67 59.34 430.67 72.3 415.36 72.3 415.36 523.11 459.04 523.11 463.75 523.11 504.75 523.11 509.46 523.11 553.13 523.11 553.13 72.3 537.83 72.3"/><polygon class="cls-6" points="525.34 206.95 509.45 201.11 509.45 173.4 410.76 136.75 410.76 164.81 394.87 158.97 394.87 168.88 399.5 170.58 399.5 174.16 399.5 528.23 438.87 528.23 520.72 528.23 520.72 219.19 520.72 215.16 525.34 216.86 525.34 206.95"/><polygon class="cls-6" points="249.57 206.95 233.68 201.11 233.68 173.4 135 136.75 135 164.81 119.11 158.97 119.11 168.88 123.73 170.58 123.73 174.16 123.73 528.23 163.1 528.23 244.96 528.23 244.96 219.19 244.96 215.16 249.57 216.86 249.57 206.95"/><polygon class="cls-4" points="431.96 376.16 431.96 371.2 420.08 371.2 420.08 366.44 420.08 358.26 420.08 356.39 420.08 354.52 420.08 352.64 420.08 343.65 420.08 341.77 420.08 339.91 420.08 338.03 420.08 329.03 420.08 327.16 420.08 325.29 420.08 323.42 420.08 314.42 420.08 312.55 420.08 310.68 420.08 308.81 420.08 299.81 420.08 297.94 420.08 296.07 420.08 294.2 420.08 285.2 420.08 283.33 420.08 281.46 420.08 279.59 420.08 269.8 420.08 264.3 420.08 260.02 423.83 260.02 423.83 251.98 420.08 251.98 420.08 247.96 410.45 247.96 410.45 244.06 410.45 237.43 410.45 235.91 410.45 234.39 410.45 232.88 410.45 225.58 410.45 224.06 410.45 222.55 410.45 221.03 410.45 213.73 410.45 212.21 410.45 210.69 410.45 209.18 410.45 201.88 410.45 200.37 410.45 198.85 410.45 197.33 410.45 190.03 410.45 188.52 410.45 187 410.45 185.48 410.45 178.19 410.45 176.67 410.45 175.15 410.45 173.64 410.45 165.7 410.45 161.24 410.45 157.76 413.49 157.76 413.49 151.25 410.45 151.25 410.45 147.99 402.91 147.99 402.91 50.94 402.91 47.47 405.95 47.47 405.95 40.95 402.91 40.95 402.91 39.92 391.52 39.92 391.52 34.41 382.47 34.41 382.47 31.49 351.07 31.49 351.07 34.41 342.04 34.41 342.04 39.92 335.37 39.92 335.37 40.95 332.31 40.95 332.31 47.47 335.37 47.47 335.37 50.94 335.37 51.25 335.37 53.31 335.37 58.33 335.37 62.22 335.37 64.28 335.37 69.3 335.37 73.19 335.37 75.26 335.37 80.27 335.37 84.17 335.37 86.23 335.37 91.24 335.37 95.13 335.37 97.2 335.37 102.21 335.37 106.1 335.37 108.17 335.37 113.18 335.37 117.08 335.37 119.14 335.37 124.16 335.37 128.05 335.37 130.11 335.37 135.13 335.37 139.03 335.37 141.09 335.37 146.1 335.37 147.99 327.83 147.99 327.83 151.25 324.79 151.25 324.79 157.76 327.83 157.76 327.83 161.24 327.83 165.7 327.83 173.64 327.83 175.15 327.83 176.67 327.83 178.19 327.83 185.48 327.83 187 327.83 188.52 327.83 190.03 327.83 197.33 327.83 198.85 327.83 200.37 327.83 201.88 327.83 209.18 327.83 210.69 327.83 212.21 327.83 213.73 327.83 221.03 327.83 222.55 327.83 224.06 327.83 225.58 327.83 232.88 327.83 234.39 327.83 235.91 327.83 237.43 327.83 244.06 327.83 247.96 318.19 247.96 318.19 251.98 314.44 251.98 314.44 260.02 318.19 260.02 318.19 264.3 318.19 269.8 318.19 279.59 318.19 281.46 318.19 283.33 318.19 285.2 318.19 294.2 318.19 296.07 318.19 297.94 318.19 299.81 318.19 308.81 318.19 310.68 318.19 312.55 318.19 314.42 318.19 323.42 318.19 325.29 318.19 327.16 318.19 329.03 318.19 338.03 318.19 339.91 318.19 341.77 318.19 343.65 318.19 352.64 318.19 354.52 318.19 356.39 318.19 358.26 318.19 366.44 318.19 371.2 306.31 371.2 306.31 376.16 301.69 376.16 301.69 386.07 306.31 386.07 306.31 391.36 306.31 398.13 306.31 410.2 306.31 412.51 306.31 414.81 306.31 417.12 306.31 428.22 306.31 430.52 306.31 432.83 306.31 435.14 306.31 446.24 306.31 448.54 306.31 450.86 306.31 453.16 306.31 464.26 306.31 466.56 306.31 468.88 306.31 471.18 306.31 482.28 306.31 484.58 306.31 486.89 306.31 489.2 306.31 500.3 306.31 502.61 306.31 504.92 306.31 507.23 306.31 517.3 306.31 529.37 431.96 529.37 431.96 517.3 431.96 507.23 431.96 504.92 431.96 502.61 431.96 500.3 431.96 489.2 431.96 486.89 431.96 484.58 431.96 482.28 431.96 471.18 431.96 468.88 431.96 466.56 431.96 464.26 431.96 453.16 431.96 450.86 431.96 448.54 431.96 446.24 431.96 435.14 431.96 432.83 431.96 430.52 431.96 428.22 431.96 417.12 431.96 414.81 431.96 412.51 431.96 410.2 431.96 398.13 431.96 391.36 431.96 386.07 436.59 386.07 436.59 376.16 431.96 376.16"/><rect class="cls-7" x="258.68" y="261.45" width="155.95" height="273.71"/><rect class="cls-8" x="405.48" y="530.43" width="7.5" height="2.64"/><rect class="cls-8" x="409.22" y="527.02" width="3.75" height="2.64"/><rect class="cls-8" x="405.48" y="523.06" width="7.5" height="2.64"/><rect class="cls-8" x="409.22" y="519.65" width="3.75" height="2.65"/><rect class="cls-8" x="405.48" y="515.69" width="7.5" height="2.65"/><rect class="cls-8" x="409.22" y="512.29" width="3.75" height="2.64"/><rect class="cls-8" x="405.48" y="508.32" width="7.5" height="2.64"/><rect class="cls-8" x="409.22" y="504.91" width="3.75" height="2.64"/><rect class="cls-8" x="405.48" y="500.95" width="7.5" height="2.64"/><rect class="cls-8" x="409.22" y="497.54" width="3.75" height="2.64"/><rect class="cls-8" x="405.48" y="493.58" width="7.5" height="2.64"/><rect class="cls-8" x="409.22" y="490.17" width="3.75" height="2.63"/><rect class="cls-8" x="405.48" y="486.21" width="7.5" height="2.65"/><rect class="cls-8" x="409.22" y="482.8" width="3.75" height="2.64"/><rect class="cls-8" x="405.48" y="478.85" width="7.5" height="2.64"/><rect class="cls-8" x="409.22" y="475.44" width="3.75" height="2.64"/><rect class="cls-8" x="405.48" y="471.46" width="7.5" height="2.65"/><rect class="cls-8" x="409.22" y="468.06" width="3.75" height="2.64"/><rect class="cls-8" x="405.48" y="464.1" width="7.5" height="2.64"/><rect class="cls-8" x="409.22" y="460.69" width="3.75" height="2.64"/><rect class="cls-8" x="405.48" y="456.73" width="7.5" height="2.64"/><rect class="cls-8" x="409.22" y="453.33" width="3.75" height="2.63"/><rect class="cls-8" x="405.48" y="449.37" width="7.5" height="2.64"/><rect class="cls-8" x="409.22" y="445.94" width="3.75" height="2.65"/><rect class="cls-8" x="405.48" y="441.99" width="7.5" height="2.64"/><rect class="cls-8" x="409.22" y="438.58" width="3.75" height="2.64"/><rect class="cls-8" x="405.48" y="434.62" width="7.5" height="2.64"/><rect class="cls-8" x="409.22" y="431.22" width="3.75" height="2.64"/><rect class="cls-8" x="405.48" y="427.26" width="7.5" height="2.64"/><rect class="cls-8" x="409.22" y="423.84" width="3.75" height="2.64"/><rect class="cls-8" x="405.48" y="419.88" width="7.5" height="2.64"/><rect class="cls-8" x="409.22" y="416.47" width="3.75" height="2.64"/><rect class="cls-8" x="405.48" y="412.52" width="7.5" height="2.63"/><rect class="cls-8" x="409.22" y="409.11" width="3.75" height="2.63"/><rect class="cls-8" x="405.48" y="405.14" width="7.5" height="2.64"/><rect class="cls-8" x="409.22" y="401.74" width="3.75" height="2.64"/><rect class="cls-8" x="405.48" y="397.77" width="7.5" height="2.64"/><rect class="cls-8" x="409.22" y="394.37" width="3.75" height="2.64"/><rect class="cls-8" x="405.48" y="390.39" width="7.5" height="2.65"/><rect class="cls-8" x="409.22" y="387" width="3.75" height="2.63"/><rect class="cls-8" x="405.48" y="383.04" width="7.5" height="2.64"/><rect class="cls-8" x="409.22" y="379.62" width="3.75" height="2.64"/><rect class="cls-8" x="405.48" y="375.67" width="7.5" height="2.63"/><rect class="cls-8" x="409.22" y="372.25" width="3.75" height="2.65"/><rect class="cls-8" x="405.48" y="368.29" width="7.5" height="2.65"/><rect class="cls-8" x="409.22" y="364.88" width="3.75" height="2.64"/><rect class="cls-8" x="405.48" y="360.93" width="7.5" height="2.63"/><rect class="cls-8" x="409.22" y="357.52" width="3.75" height="2.64"/><rect class="cls-8" x="405.48" y="353.56" width="7.5" height="2.64"/><rect class="cls-8" x="409.22" y="350.15" width="3.75" height="2.64"/><rect class="cls-8" x="405.48" y="346.18" width="7.5" height="2.65"/><rect class="cls-8" x="409.22" y="342.78" width="3.75" height="2.64"/><rect class="cls-8" x="405.48" y="338.81" width="7.5" height="2.64"/><rect class="cls-8" x="409.22" y="335.4" width="3.75" height="2.64"/><rect class="cls-8" x="260.34" y="530.43" width="7.5" height="2.64"/><rect class="cls-8" x="260.34" y="527.02" width="3.75" height="2.64"/><rect class="cls-8" x="260.34" y="523.06" width="7.5" height="2.64"/><rect class="cls-8" x="260.34" y="519.65" width="3.75" height="2.65"/><rect class="cls-8" x="260.34" y="515.69" width="7.5" height="2.65"/><rect class="cls-8" x="260.34" y="512.29" width="3.75" height="2.64"/><rect class="cls-8" x="260.34" y="508.32" width="7.5" height="2.64"/><rect class="cls-8" x="260.34" y="504.91" width="3.75" height="2.64"/><rect class="cls-8" x="260.34" y="500.95" width="7.5" height="2.64"/><rect class="cls-8" x="260.34" y="497.54" width="3.75" height="2.64"/><rect class="cls-8" x="260.34" y="493.58" width="7.5" height="2.64"/><rect class="cls-8" x="260.34" y="490.17" width="3.75" height="2.63"/><rect class="cls-8" x="260.34" y="486.21" width="7.5" height="2.65"/><rect class="cls-8" x="260.34" y="482.8" width="3.75" height="2.64"/><rect class="cls-8" x="260.34" y="478.85" width="7.5" height="2.64"/><rect class="cls-8" x="260.34" y="475.44" width="3.75" height="2.64"/><rect class="cls-8" x="260.34" y="471.46" width="7.5" height="2.65"/><rect class="cls-8" x="260.34" y="468.06" width="3.75" height="2.64"/><rect class="cls-8" x="260.34" y="464.1" width="7.5" height="2.64"/><rect class="cls-8" x="260.34" y="460.69" width="3.75" height="2.64"/><rect class="cls-8" x="260.34" y="456.73" width="7.5" height="2.64"/><rect class="cls-8" x="260.34" y="453.33" width="3.75" height="2.63"/><rect class="cls-8" x="260.34" y="449.37" width="7.5" height="2.64"/><rect class="cls-8" x="260.34" y="445.94" width="3.75" height="2.65"/><rect class="cls-8" x="260.34" y="441.99" width="7.5" height="2.64"/><rect class="cls-8" x="260.34" y="438.58" width="3.75" height="2.64"/><rect class="cls-8" x="260.34" y="434.62" width="7.5" height="2.64"/><rect class="cls-8" x="260.34" y="431.22" width="3.75" height="2.64"/><rect class="cls-8" x="260.34" y="427.26" width="7.5" height="2.64"/><rect class="cls-8" x="260.34" y="423.84" width="3.75" height="2.64"/><rect class="cls-8" x="260.34" y="419.88" width="7.5" height="2.64"/><rect class="cls-8" x="260.34" y="416.47" width="3.75" height="2.64"/><rect class="cls-8" x="260.34" y="412.52" width="7.5" height="2.63"/><rect class="cls-8" x="260.34" y="409.11" width="3.75" height="2.63"/><rect class="cls-8" x="260.34" y="405.14" width="7.5" height="2.64"/><rect class="cls-8" x="260.34" y="401.74" width="3.75" height="2.64"/><rect class="cls-8" x="260.34" y="397.77" width="7.5" height="2.64"/><rect class="cls-8" x="260.34" y="394.37" width="3.75" height="2.64"/><rect class="cls-8" x="260.34" y="390.39" width="7.5" height="2.65"/><rect class="cls-8" x="260.34" y="387" width="3.75" height="2.63"/><rect class="cls-8" x="260.34" y="383.04" width="7.5" height="2.64"/><rect class="cls-8" x="260.34" y="379.62" width="3.75" height="2.64"/><rect class="cls-8" x="260.34" y="375.67" width="7.5" height="2.63"/><rect class="cls-8" x="260.34" y="372.25" width="3.75" height="2.65"/><rect class="cls-8" x="260.34" y="368.29" width="7.5" height="2.65"/><rect class="cls-8" x="260.34" y="364.88" width="3.75" height="2.64"/><rect class="cls-8" x="260.34" y="360.93" width="7.5" height="2.63"/><rect class="cls-8" x="260.34" y="357.52" width="3.75" height="2.64"/><rect class="cls-8" x="260.34" y="353.56" width="7.5" height="2.64"/><rect class="cls-8" x="260.34" y="350.15" width="3.75" height="2.64"/><rect class="cls-8" x="260.34" y="346.18" width="7.5" height="2.65"/><rect class="cls-8" x="260.34" y="342.78" width="3.75" height="2.64"/><rect class="cls-8" x="260.34" y="338.81" width="7.5" height="2.64"/><rect class="cls-8" x="260.34" y="335.4" width="3.75" height="2.64"/><rect class="cls-8" x="405.48" y="331.45" width="7.5" height="2.64"/><rect class="cls-8" x="409.22" y="328.03" width="3.75" height="2.64"/><rect class="cls-8" x="405.48" y="324.08" width="7.5" height="2.64"/><rect class="cls-8" x="409.22" y="320.67" width="3.75" height="2.63"/><rect class="cls-8" x="405.48" y="316.71" width="7.5" height="2.64"/><rect class="cls-8" x="409.22" y="313.3" width="3.75" height="2.64"/><rect class="cls-8" x="405.48" y="309.34" width="7.5" height="2.65"/><rect class="cls-8" x="409.22" y="305.93" width="3.75" height="2.64"/><rect class="cls-8" x="405.48" y="301.97" width="7.5" height="2.64"/><rect class="cls-8" x="409.22" y="298.56" width="3.75" height="2.64"/><rect class="cls-8" x="405.48" y="294.6" width="7.5" height="2.64"/><rect class="cls-8" x="409.22" y="291.19" width="3.75" height="2.64"/><rect class="cls-8" x="405.48" y="287.24" width="7.5" height="2.64"/><rect class="cls-8" x="409.22" y="283.82" width="3.75" height="2.63"/><rect class="cls-8" x="405.48" y="279.86" width="7.5" height="2.64"/><rect class="cls-8" x="409.22" y="276.45" width="3.75" height="2.64"/><rect class="cls-8" x="405.48" y="272.49" width="7.5" height="2.64"/><rect class="cls-8" x="409.22" y="269.08" width="3.75" height="2.64"/><rect class="cls-8" x="260.34" y="331.45" width="7.5" height="2.64"/><rect class="cls-8" x="260.34" y="328.03" width="3.75" height="2.64"/><rect class="cls-8" x="260.34" y="324.08" width="7.5" height="2.64"/><rect class="cls-8" x="260.34" y="320.67" width="3.75" height="2.63"/><rect class="cls-8" x="260.34" y="316.71" width="7.5" height="2.64"/><rect class="cls-8" x="260.34" y="313.3" width="3.75" height="2.64"/><rect class="cls-8" x="260.34" y="309.34" width="7.5" height="2.65"/><rect class="cls-8" x="260.34" y="305.93" width="3.75" height="2.64"/><rect class="cls-8" x="260.34" y="301.97" width="7.5" height="2.64"/><rect class="cls-8" x="260.34" y="298.56" width="3.75" height="2.64"/><rect class="cls-8" x="260.34" y="294.6" width="7.5" height="2.64"/><rect class="cls-8" x="260.34" y="291.19" width="3.75" height="2.64"/><rect class="cls-8" x="260.34" y="287.24" width="7.5" height="2.64"/><rect class="cls-8" x="260.34" y="283.82" width="3.75" height="2.63"/><rect class="cls-8" x="260.34" y="279.86" width="7.5" height="2.64"/><rect class="cls-8" x="260.34" y="276.45" width="3.75" height="2.64"/><rect class="cls-8" x="260.34" y="272.49" width="7.5" height="2.64"/><rect class="cls-8" x="260.34" y="269.08" width="3.75" height="2.64"/><rect class="cls-9" x="366.3" y="462.38" width="27.93" height="34.36"/><rect class="cls-10" x="367.97" y="464.44" width="4.66" height="30.24"/><rect class="cls-10" x="387.89" y="464.44" width="4.66" height="30.24"/><polygon class="cls-11" points="377.44 494.68 374.34 494.68 383.59 464.44 386.7 464.44 377.44 494.68"/><rect class="cls-9" x="322.58" y="462.38" width="27.94" height="34.36"/><rect class="cls-10" x="324.26" y="464.44" width="4.67" height="30.24"/><rect class="cls-10" x="344.18" y="464.44" width="4.66" height="30.24"/><polygon class="cls-11" points="333.74 494.68 330.63 494.68 339.88 464.44 342.98 464.44 333.74 494.68"/><rect class="cls-9" x="278.87" y="462.38" width="27.93" height="34.36"/><rect class="cls-10" x="280.55" y="464.44" width="4.66" height="30.24"/><rect class="cls-10" x="300.46" y="464.44" width="4.68" height="30.24"/><polygon class="cls-11" points="290.02 494.68 286.92 494.68 296.16 464.44 299.27 464.44 290.02 494.68"/><rect class="cls-12" x="267.52" y="503.15" width="138.07" height="4.63"/><polygon class="cls-12" points="273.96 489.18 273.96 490.19 273.96 491.19 273.96 505.46 275.4 505.46 275.4 491.19 287.7 491.19 287.7 505.46 289.15 505.46 289.15 491.19 301.45 491.19 301.45 505.46 302.91 505.46 302.91 491.19 315.2 491.19 315.2 505.46 316.65 505.46 316.65 491.19 328.95 491.19 328.95 505.46 330.4 505.46 330.4 491.19 342.7 491.19 342.7 505.46 344.15 505.46 344.15 491.19 356.45 491.19 356.45 505.46 357.91 505.46 357.91 491.19 370.19 491.19 370.19 505.46 371.65 505.46 371.65 491.19 383.95 491.19 383.95 505.46 385.41 505.46 385.41 491.19 397.69 491.19 397.69 505.46 399.15 505.46 399.15 491.19 399.15 490.19 399.15 489.18 273.96 489.18"/><rect class="cls-12" x="258.68" y="443.32" width="155.95" height="2.63"/><rect class="cls-13" x="258.68" y="445.94" width="155.95" height="2.65"/><rect class="cls-9" x="366.3" y="372.51" width="27.93" height="34.36"/><rect class="cls-10" x="367.97" y="374.57" width="4.66" height="30.24"/><rect class="cls-10" x="387.89" y="374.57" width="4.66" height="30.24"/><polygon class="cls-11" points="377.44 404.81 374.34 404.81 383.59 374.57 386.7 374.57 377.44 404.81"/><rect class="cls-9" x="322.58" y="372.51" width="27.94" height="34.36"/><rect class="cls-10" x="324.26" y="374.57" width="4.67" height="30.24"/><rect class="cls-10" x="344.18" y="374.57" width="4.66" height="30.24"/><polygon class="cls-11" points="333.74 404.81 330.63 404.81 339.88 374.57 342.98 374.57 333.74 404.81"/><rect class="cls-9" x="278.87" y="372.51" width="27.93" height="34.36"/><rect class="cls-10" x="280.55" y="374.57" width="4.66" height="30.24"/><rect class="cls-10" x="300.46" y="374.57" width="4.68" height="30.24"/><polygon class="cls-11" points="290.02 404.81 286.92 404.81 296.16 374.57 299.27 374.57 290.02 404.81"/><rect class="cls-12" x="267.52" y="413.28" width="138.07" height="4.62"/><polygon class="cls-12" points="273.96 399.31 273.96 400.31 273.96 401.32 273.96 415.6 275.4 415.6 275.4 401.32 287.7 401.32 287.7 415.6 289.15 415.6 289.15 401.32 301.45 401.32 301.45 415.6 302.91 415.6 302.91 401.32 315.2 401.32 315.2 415.6 316.65 415.6 316.65 401.32 328.95 401.32 328.95 415.6 330.4 415.6 330.4 401.32 342.7 401.32 342.7 415.6 344.15 415.6 344.15 401.32 356.45 401.32 356.45 415.6 357.91 415.6 357.91 401.32 370.19 401.32 370.19 415.6 371.65 415.6 371.65 401.32 383.95 401.32 383.95 415.6 385.41 415.6 385.41 401.32 397.69 401.32 397.69 415.6 399.15 415.6 399.15 401.32 399.15 400.31 399.15 399.31 273.96 399.31"/><rect class="cls-12" x="258.68" y="353.45" width="155.95" height="2.64"/><rect class="cls-13" x="258.68" y="356.08" width="155.95" height="2.64"/><rect class="cls-9" x="366.3" y="282.63" width="27.93" height="34.37"/><rect class="cls-10" x="367.97" y="284.71" width="4.66" height="30.24"/><rect class="cls-10" x="387.89" y="284.71" width="4.66" height="30.24"/><polygon class="cls-11" points="377.44 314.94 374.34 314.94 383.59 284.7 386.7 284.7 377.44 314.94"/><rect class="cls-9" x="322.58" y="282.63" width="27.94" height="34.37"/><rect class="cls-10" x="324.26" y="284.71" width="4.67" height="30.24"/><rect class="cls-10" x="344.18" y="284.71" width="4.66" height="30.24"/><polygon class="cls-11" points="333.74 314.94 330.63 314.94 339.88 284.7 342.98 284.7 333.74 314.94"/><rect class="cls-9" x="278.87" y="282.63" width="27.93" height="34.37"/><rect class="cls-10" x="280.55" y="284.71" width="4.66" height="30.24"/><rect class="cls-10" x="300.46" y="284.71" width="4.68" height="30.24"/><polygon class="cls-11" points="290.02 314.94 286.92 314.94 296.16 284.7 299.27 284.7 290.02 314.94"/><rect class="cls-12" x="267.52" y="323.4" width="138.07" height="4.63"/><polygon class="cls-12" points="273.96 309.44 273.96 310.44 273.96 311.44 273.96 325.71 275.4 325.71 275.4 311.44 287.7 311.44 287.7 325.71 289.15 325.71 289.15 311.44 301.45 311.44 301.45 325.71 302.91 325.71 302.91 311.44 315.2 311.44 315.2 325.71 316.65 325.71 316.65 311.44 328.95 311.44 328.95 325.71 330.4 325.71 330.4 311.44 342.7 311.44 342.7 325.71 344.15 325.71 344.15 311.44 356.45 311.44 356.45 325.71 357.91 325.71 357.91 311.44 370.19 311.44 370.19 325.71 371.65 325.71 371.65 311.44 383.95 311.44 383.95 325.71 385.41 325.71 385.41 311.44 397.69 311.44 397.69 325.71 399.15 325.71 399.15 311.44 399.15 310.44 399.15 309.44 273.96 309.44"/><rect class="cls-12" x="258.68" y="263.57" width="155.95" height="2.65"/><rect class="cls-13" x="258.68" y="266.22" width="155.95" height="2.64"/><rect class="cls-14" x="425.53" y="258.33" width="155.95" height="273.71"/><rect class="cls-15" x="572.32" y="527.31" width="7.5" height="2.64"/><rect class="cls-15" x="576.07" y="523.9" width="3.75" height="2.64"/><rect class="cls-15" x="572.32" y="519.94" width="7.5" height="2.64"/><rect class="cls-15" x="576.07" y="516.52" width="3.75" height="2.65"/><rect class="cls-15" x="572.32" y="512.56" width="7.5" height="2.65"/><rect class="cls-15" x="576.07" y="509.16" width="3.75" height="2.64"/><rect class="cls-15" x="572.32" y="505.2" width="7.5" height="2.64"/><rect class="cls-15" x="576.07" y="501.79" width="3.75" height="2.64"/><rect class="cls-15" x="572.32" y="497.83" width="7.5" height="2.64"/><rect class="cls-15" x="576.07" y="494.42" width="3.75" height="2.64"/><rect class="cls-15" x="572.32" y="490.46" width="7.5" height="2.64"/><rect class="cls-15" x="576.07" y="487.05" width="3.75" height="2.63"/><rect class="cls-15" x="572.32" y="483.08" width="7.5" height="2.65"/><rect class="cls-15" x="576.07" y="479.68" width="3.75" height="2.64"/><rect class="cls-15" x="572.32" y="475.72" width="7.5" height="2.64"/><rect class="cls-15" x="576.07" y="472.31" width="3.75" height="2.64"/><rect class="cls-15" x="572.32" y="468.34" width="7.5" height="2.65"/><rect class="cls-15" x="576.07" y="464.93" width="3.75" height="2.64"/><rect class="cls-15" x="572.32" y="460.98" width="7.5" height="2.64"/><rect class="cls-15" x="576.07" y="457.56" width="3.75" height="2.64"/><rect class="cls-15" x="572.32" y="453.61" width="7.5" height="2.64"/><rect class="cls-15" x="576.07" y="450.2" width="3.75" height="2.63"/><rect class="cls-15" x="572.32" y="446.24" width="7.5" height="2.64"/><rect class="cls-15" x="576.07" y="442.82" width="3.75" height="2.65"/><rect class="cls-15" x="572.32" y="438.87" width="7.5" height="2.64"/><rect class="cls-15" x="576.07" y="435.46" width="3.75" height="2.64"/><rect class="cls-15" x="572.32" y="431.5" width="7.5" height="2.64"/><rect class="cls-15" x="576.07" y="428.09" width="3.75" height="2.64"/><rect class="cls-15" x="572.32" y="424.14" width="7.5" height="2.64"/><rect class="cls-15" x="576.07" y="420.72" width="3.75" height="2.64"/><rect class="cls-15" x="572.32" y="416.76" width="7.5" height="2.64"/><rect class="cls-15" x="576.07" y="413.35" width="3.75" height="2.64"/><rect class="cls-15" x="572.32" y="409.39" width="7.5" height="2.63"/><rect class="cls-15" x="576.07" y="405.99" width="3.75" height="2.63"/><rect class="cls-15" x="572.32" y="402.02" width="7.5" height="2.64"/><rect class="cls-15" x="576.07" y="398.61" width="3.75" height="2.64"/><rect class="cls-15" x="572.32" y="394.65" width="7.5" height="2.64"/><rect class="cls-15" x="576.07" y="391.24" width="3.75" height="2.64"/><rect class="cls-15" x="572.32" y="387.27" width="7.5" height="2.65"/><rect class="cls-15" x="576.07" y="383.88" width="3.75" height="2.63"/><rect class="cls-15" x="572.32" y="379.92" width="7.5" height="2.64"/><rect class="cls-15" x="576.07" y="376.5" width="3.75" height="2.64"/><rect class="cls-15" x="572.32" y="372.54" width="7.5" height="2.63"/><rect class="cls-15" x="576.07" y="369.13" width="3.75" height="2.65"/><rect class="cls-15" x="572.32" y="365.17" width="7.5" height="2.65"/><rect class="cls-15" x="576.07" y="361.76" width="3.75" height="2.64"/><rect class="cls-15" x="572.32" y="357.81" width="7.5" height="2.63"/><rect class="cls-15" x="576.07" y="354.39" width="3.75" height="2.64"/><rect class="cls-15" x="572.32" y="350.43" width="7.5" height="2.64"/><rect class="cls-15" x="576.07" y="347.03" width="3.75" height="2.64"/><rect class="cls-15" x="572.32" y="343.06" width="7.5" height="2.65"/><rect class="cls-15" x="576.07" y="339.66" width="3.75" height="2.64"/><rect class="cls-15" x="572.32" y="335.69" width="7.5" height="2.64"/><rect class="cls-15" x="576.07" y="332.28" width="3.75" height="2.64"/><rect class="cls-15" x="427.19" y="527.31" width="7.5" height="2.64"/><rect class="cls-15" x="427.19" y="523.9" width="3.75" height="2.64"/><rect class="cls-15" x="427.19" y="519.94" width="7.5" height="2.64"/><rect class="cls-15" x="427.19" y="516.52" width="3.75" height="2.65"/><rect class="cls-15" x="427.19" y="512.56" width="7.5" height="2.65"/><rect class="cls-15" x="427.19" y="509.16" width="3.75" height="2.64"/><rect class="cls-15" x="427.19" y="505.2" width="7.5" height="2.64"/><rect class="cls-15" x="427.19" y="501.79" width="3.75" height="2.64"/><rect class="cls-15" x="427.19" y="497.83" width="7.5" height="2.64"/><rect class="cls-15" x="427.19" y="494.42" width="3.75" height="2.64"/><rect class="cls-15" x="427.19" y="490.46" width="7.5" height="2.64"/><rect class="cls-15" x="427.19" y="487.05" width="3.75" height="2.63"/><rect class="cls-15" x="427.19" y="483.08" width="7.5" height="2.65"/><rect class="cls-15" x="427.19" y="479.68" width="3.75" height="2.64"/><rect class="cls-15" x="427.19" y="475.72" width="7.5" height="2.64"/><rect class="cls-15" x="427.19" y="472.31" width="3.75" height="2.64"/><rect class="cls-15" x="427.19" y="468.34" width="7.5" height="2.65"/><rect class="cls-15" x="427.19" y="464.93" width="3.75" height="2.64"/><rect class="cls-15" x="427.19" y="460.98" width="7.5" height="2.64"/><rect class="cls-15" x="427.19" y="457.56" width="3.75" height="2.64"/><rect class="cls-15" x="427.19" y="453.61" width="7.5" height="2.64"/><rect class="cls-15" x="427.19" y="450.2" width="3.75" height="2.63"/><rect class="cls-15" x="427.19" y="446.24" width="7.5" height="2.64"/><rect class="cls-15" x="427.19" y="442.82" width="3.75" height="2.65"/><rect class="cls-15" x="427.19" y="438.87" width="7.5" height="2.64"/><rect class="cls-15" x="427.19" y="435.46" width="3.75" height="2.64"/><rect class="cls-15" x="427.19" y="431.5" width="7.5" height="2.64"/><rect class="cls-15" x="427.19" y="428.09" width="3.75" height="2.64"/><rect class="cls-15" x="427.19" y="424.14" width="7.5" height="2.64"/><rect class="cls-15" x="427.19" y="420.72" width="3.75" height="2.64"/><rect class="cls-15" x="427.19" y="416.76" width="7.5" height="2.64"/><rect class="cls-15" x="427.19" y="413.35" width="3.75" height="2.64"/><rect class="cls-15" x="427.19" y="409.39" width="7.5" height="2.63"/><rect class="cls-15" x="427.19" y="405.99" width="3.75" height="2.63"/><rect class="cls-15" x="427.19" y="402.02" width="7.5" height="2.64"/><rect class="cls-15" x="427.19" y="398.61" width="3.75" height="2.64"/><rect class="cls-15" x="427.19" y="394.65" width="7.5" height="2.64"/><rect class="cls-15" x="427.19" y="391.24" width="3.75" height="2.64"/><rect class="cls-15" x="427.19" y="387.27" width="7.5" height="2.65"/><rect class="cls-15" x="427.19" y="383.88" width="3.75" height="2.63"/><rect class="cls-15" x="427.19" y="379.92" width="7.5" height="2.64"/><rect class="cls-15" x="427.19" y="376.5" width="3.75" height="2.64"/><rect class="cls-15" x="427.19" y="372.54" width="7.5" height="2.63"/><rect class="cls-15" x="427.19" y="369.13" width="3.75" height="2.65"/><rect class="cls-15" x="427.19" y="365.17" width="7.5" height="2.65"/><rect class="cls-15" x="427.19" y="361.76" width="3.75" height="2.64"/><rect class="cls-15" x="427.19" y="357.81" width="7.5" height="2.63"/><rect class="cls-15" x="427.19" y="354.39" width="3.75" height="2.64"/><rect class="cls-15" x="427.19" y="350.43" width="7.5" height="2.64"/><rect class="cls-15" x="427.19" y="347.03" width="3.75" height="2.64"/><rect class="cls-15" x="427.19" y="343.06" width="7.5" height="2.65"/><rect class="cls-15" x="427.19" y="339.66" width="3.75" height="2.64"/><rect class="cls-15" x="427.19" y="335.69" width="7.5" height="2.64"/><rect class="cls-15" x="427.19" y="332.28" width="3.75" height="2.64"/><rect class="cls-15" x="572.32" y="328.32" width="7.5" height="2.64"/><rect class="cls-15" x="576.07" y="324.91" width="3.75" height="2.64"/><rect class="cls-15" x="572.32" y="320.96" width="7.5" height="2.64"/><rect class="cls-15" x="576.07" y="317.55" width="3.75" height="2.63"/><rect class="cls-15" x="572.32" y="313.59" width="7.5" height="2.64"/><rect class="cls-15" x="576.07" y="310.18" width="3.75" height="2.64"/><rect class="cls-15" x="572.32" y="306.21" width="7.5" height="2.65"/><rect class="cls-15" x="576.07" y="302.81" width="3.75" height="2.64"/><rect class="cls-15" x="572.32" y="298.84" width="7.5" height="2.64"/><rect class="cls-15" x="576.07" y="295.43" width="3.75" height="2.64"/><rect class="cls-15" x="572.32" y="291.47" width="7.5" height="2.64"/><rect class="cls-15" x="576.07" y="288.06" width="3.75" height="2.64"/><rect class="cls-15" x="572.32" y="284.11" width="7.5" height="2.64"/><rect class="cls-15" x="576.07" y="280.69" width="3.75" height="2.63"/><rect class="cls-15" x="572.32" y="276.74" width="7.5" height="2.64"/><rect class="cls-15" x="576.07" y="273.32" width="3.75" height="2.64"/><rect class="cls-15" x="572.32" y="269.37" width="7.5" height="2.64"/><rect class="cls-15" x="576.07" y="265.96" width="3.75" height="2.64"/><rect class="cls-15" x="427.19" y="328.32" width="7.5" height="2.64"/><rect class="cls-15" x="427.19" y="324.91" width="3.75" height="2.64"/><rect class="cls-15" x="427.19" y="320.96" width="7.5" height="2.64"/><rect class="cls-15" x="427.19" y="317.55" width="3.75" height="2.63"/><rect class="cls-15" x="427.19" y="313.59" width="7.5" height="2.64"/><rect class="cls-15" x="427.19" y="310.18" width="3.75" height="2.64"/><rect class="cls-15" x="427.19" y="306.21" width="7.5" height="2.65"/><rect class="cls-15" x="427.19" y="302.81" width="3.75" height="2.64"/><rect class="cls-15" x="427.19" y="298.84" width="7.5" height="2.64"/><rect class="cls-15" x="427.19" y="295.43" width="3.75" height="2.64"/><rect class="cls-15" x="427.19" y="291.47" width="7.5" height="2.64"/><rect class="cls-15" x="427.19" y="288.06" width="3.75" height="2.64"/><rect class="cls-15" x="427.19" y="284.11" width="7.5" height="2.64"/><rect class="cls-15" x="427.19" y="280.69" width="3.75" height="2.63"/><rect class="cls-15" x="427.19" y="276.74" width="7.5" height="2.64"/><rect class="cls-15" x="427.19" y="273.32" width="3.75" height="2.64"/><rect class="cls-15" x="427.19" y="269.37" width="7.5" height="2.64"/><rect class="cls-15" x="427.19" y="265.96" width="3.75" height="2.64"/><rect class="cls-16" x="533.14" y="459.25" width="27.93" height="34.36"/><rect class="cls-17" x="534.81" y="461.32" width="4.67" height="30.24"/><rect class="cls-17" x="554.73" y="461.32" width="4.67" height="30.24"/><polygon class="cls-11" points="544.29 491.56 541.18 491.56 550.44 461.32 553.53 461.32 544.29 491.56"/><rect class="cls-16" x="489.42" y="459.25" width="27.94" height="34.36"/><rect class="cls-17" x="491.1" y="461.32" width="4.67" height="30.24"/><rect class="cls-17" x="511.02" y="461.32" width="4.66" height="30.24"/><polygon class="cls-11" points="500.58 491.56 497.47 491.56 506.72 461.32 509.82 461.32 500.58 491.56"/><rect class="cls-16" x="445.71" y="459.25" width="27.94" height="34.36"/><rect class="cls-17" x="447.38" y="461.32" width="4.68" height="30.24"/><rect class="cls-17" x="467.31" y="461.32" width="4.67" height="30.24"/><polygon class="cls-11" points="456.86 491.56 453.76 491.56 463.01 461.32 466.11 461.32 456.86 491.56"/><rect class="cls-18" x="434.35" y="500.03" width="138.07" height="4.63"/><polygon class="cls-18" points="440.8 486.06 440.8 487.06 440.8 488.06 440.8 502.34 442.25 502.34 442.25 488.06 454.54 488.06 454.54 502.34 456 502.34 456 488.06 468.29 488.06 468.29 502.34 469.75 502.34 469.75 488.06 482.05 488.06 482.05 502.34 483.5 502.34 483.5 488.06 495.79 488.06 495.79 502.34 497.25 502.34 497.25 488.06 509.55 488.06 509.55 502.34 511 502.34 511 488.06 523.29 488.06 523.29 502.34 524.75 502.34 524.75 488.06 537.04 488.06 537.04 502.34 538.49 502.34 538.49 488.06 550.79 488.06 550.79 502.34 552.25 502.34 552.25 488.06 564.53 488.06 564.53 502.34 565.99 502.34 565.99 488.06 565.99 487.06 565.99 486.06 440.8 486.06"/><rect class="cls-18" x="425.53" y="440.19" width="155.95" height="2.63"/><rect class="cls-13" x="425.53" y="442.82" width="155.95" height="2.65"/><rect class="cls-16" x="533.14" y="369.39" width="27.93" height="34.36"/><rect class="cls-17" x="534.81" y="371.45" width="4.67" height="30.24"/><rect class="cls-17" x="554.73" y="371.45" width="4.67" height="30.24"/><polygon class="cls-11" points="544.29 401.69 541.18 401.69 550.44 371.45 553.53 371.45 544.29 401.69"/><rect class="cls-16" x="489.42" y="369.39" width="27.94" height="34.36"/><rect class="cls-17" x="491.1" y="371.45" width="4.67" height="30.24"/><rect class="cls-17" x="511.02" y="371.45" width="4.66" height="30.24"/><polygon class="cls-11" points="500.58 401.69 497.47 401.69 506.72 371.45 509.82 371.45 500.58 401.69"/><rect class="cls-16" x="445.71" y="369.39" width="27.94" height="34.36"/><rect class="cls-17" x="447.38" y="371.45" width="4.68" height="30.24"/><rect class="cls-17" x="467.31" y="371.45" width="4.67" height="30.24"/><polygon class="cls-11" points="456.86 401.69 453.76 401.69 463.01 371.45 466.11 371.45 456.86 401.69"/><rect class="cls-18" x="434.35" y="410.16" width="138.07" height="4.62"/><polygon class="cls-18" points="440.8 396.19 440.8 397.19 440.8 398.2 440.8 412.47 442.25 412.47 442.25 398.2 454.54 398.2 454.54 412.47 456 412.47 456 398.2 468.29 398.2 468.29 412.47 469.75 412.47 469.75 398.2 482.05 398.2 482.05 412.47 483.5 412.47 483.5 398.2 495.79 398.2 495.79 412.47 497.25 412.47 497.25 398.2 509.55 398.2 509.55 412.47 511 412.47 511 398.2 523.29 398.2 523.29 412.47 524.75 412.47 524.75 398.2 537.04 398.2 537.04 412.47 538.49 412.47 538.49 398.2 550.79 398.2 550.79 412.47 552.25 412.47 552.25 398.2 564.53 398.2 564.53 412.47 565.99 412.47 565.99 398.2 565.99 397.19 565.99 396.19 440.8 396.19"/><rect class="cls-18" x="425.53" y="350.32" width="155.95" height="2.64"/><rect class="cls-13" x="425.53" y="352.96" width="155.95" height="2.64"/><rect class="cls-16" x="533.14" y="279.51" width="27.93" height="34.37"/><rect class="cls-17" x="534.81" y="281.58" width="4.67" height="30.24"/><rect class="cls-17" x="554.73" y="281.58" width="4.67" height="30.24"/><polygon class="cls-11" points="544.29 311.82 541.18 311.82 550.44 281.58 553.53 281.58 544.29 311.82"/><rect class="cls-16" x="489.42" y="279.51" width="27.94" height="34.37"/><rect class="cls-17" x="491.1" y="281.58" width="4.67" height="30.24"/><rect class="cls-17" x="511.02" y="281.58" width="4.66" height="30.24"/><polygon class="cls-11" points="500.58 311.82 497.47 311.82 506.72 281.58 509.82 281.58 500.58 311.82"/><rect class="cls-16" x="445.71" y="279.51" width="27.94" height="34.37"/><rect class="cls-17" x="447.38" y="281.58" width="4.68" height="30.24"/><rect class="cls-17" x="467.31" y="281.58" width="4.67" height="30.24"/><polygon class="cls-11" points="456.86 311.82 453.76 311.82 463.01 281.58 466.11 281.58 456.86 311.82"/><rect class="cls-18" x="434.35" y="320.28" width="138.07" height="4.63"/><polygon class="cls-18" points="440.8 306.31 440.8 307.32 440.8 308.32 440.8 322.59 442.25 322.59 442.25 308.32 454.54 308.32 454.54 322.59 456 322.59 456 308.32 468.29 308.32 468.29 322.59 469.75 322.59 469.75 308.32 482.05 308.32 482.05 322.59 483.5 322.59 483.5 308.32 495.79 308.32 495.79 322.59 497.25 322.59 497.25 308.32 509.55 308.32 509.55 322.59 511 322.59 511 308.32 523.29 308.32 523.29 322.59 524.75 322.59 524.75 308.32 537.04 308.32 537.04 322.59 538.49 322.59 538.49 308.32 550.79 308.32 550.79 322.59 552.25 322.59 552.25 308.32 564.53 308.32 564.53 322.59 565.99 322.59 565.99 308.32 565.99 307.32 565.99 306.31 440.8 306.31"/><rect class="cls-18" x="425.53" y="260.44" width="155.95" height="2.65"/><rect class="cls-13" x="425.53" y="263.09" width="155.95" height="2.64"/><rect class="cls-19" x="93.81" y="258.33" width="155.95" height="273.71"/><rect class="cls-20" x="240.6" y="527.31" width="7.5" height="2.64"/><rect class="cls-20" x="244.35" y="523.9" width="3.75" height="2.64"/><rect class="cls-20" x="240.6" y="519.94" width="7.5" height="2.64"/><rect class="cls-20" x="244.35" y="516.52" width="3.75" height="2.65"/><rect class="cls-20" x="240.6" y="512.56" width="7.5" height="2.65"/><rect class="cls-20" x="244.35" y="509.16" width="3.75" height="2.64"/><rect class="cls-20" x="240.6" y="505.2" width="7.5" height="2.64"/><rect class="cls-20" x="244.35" y="501.79" width="3.75" height="2.64"/><rect class="cls-20" x="240.6" y="497.83" width="7.5" height="2.64"/><rect class="cls-20" x="244.35" y="494.42" width="3.75" height="2.64"/><rect class="cls-20" x="240.6" y="490.46" width="7.5" height="2.64"/><rect class="cls-20" x="244.35" y="487.05" width="3.75" height="2.63"/><rect class="cls-20" x="240.6" y="483.08" width="7.5" height="2.65"/><rect class="cls-20" x="244.35" y="479.68" width="3.75" height="2.64"/><rect class="cls-20" x="240.6" y="475.72" width="7.5" height="2.64"/><rect class="cls-20" x="244.35" y="472.31" width="3.75" height="2.64"/><rect class="cls-20" x="240.6" y="468.34" width="7.5" height="2.65"/><rect class="cls-20" x="244.35" y="464.93" width="3.75" height="2.64"/><rect class="cls-20" x="240.6" y="460.98" width="7.5" height="2.64"/><rect class="cls-20" x="244.35" y="457.56" width="3.75" height="2.64"/><rect class="cls-20" x="240.6" y="453.61" width="7.5" height="2.64"/><rect class="cls-20" x="244.35" y="450.2" width="3.75" height="2.63"/><rect class="cls-20" x="240.6" y="446.24" width="7.5" height="2.64"/><rect class="cls-20" x="244.35" y="442.82" width="3.75" height="2.65"/><rect class="cls-20" x="240.6" y="438.87" width="7.5" height="2.64"/><rect class="cls-20" x="244.35" y="435.46" width="3.75" height="2.64"/><rect class="cls-20" x="240.6" y="431.5" width="7.5" height="2.64"/><rect class="cls-20" x="244.35" y="428.09" width="3.75" height="2.64"/><rect class="cls-20" x="240.6" y="424.14" width="7.5" height="2.64"/><rect class="cls-20" x="244.35" y="420.72" width="3.75" height="2.64"/><rect class="cls-20" x="240.6" y="416.76" width="7.5" height="2.64"/><rect class="cls-20" x="244.35" y="413.35" width="3.75" height="2.64"/><rect class="cls-20" x="240.6" y="409.39" width="7.5" height="2.63"/><rect class="cls-20" x="244.35" y="405.99" width="3.75" height="2.63"/><rect class="cls-20" x="240.6" y="402.02" width="7.5" height="2.64"/><rect class="cls-20" x="244.35" y="398.61" width="3.75" height="2.64"/><rect class="cls-20" x="240.6" y="394.65" width="7.5" height="2.64"/><rect class="cls-20" x="244.35" y="391.24" width="3.75" height="2.64"/><rect class="cls-20" x="240.6" y="387.27" width="7.5" height="2.65"/><rect class="cls-20" x="244.35" y="383.88" width="3.75" height="2.63"/><rect class="cls-20" x="240.6" y="379.92" width="7.5" height="2.64"/><rect class="cls-20" x="244.35" y="376.5" width="3.75" height="2.64"/><rect class="cls-20" x="240.6" y="372.54" width="7.5" height="2.63"/><rect class="cls-20" x="244.35" y="369.13" width="3.75" height="2.65"/><rect class="cls-20" x="240.6" y="365.17" width="7.5" height="2.65"/><rect class="cls-20" x="244.35" y="361.76" width="3.75" height="2.64"/><rect class="cls-20" x="240.6" y="357.81" width="7.5" height="2.63"/><rect class="cls-20" x="244.35" y="354.39" width="3.75" height="2.64"/><rect class="cls-20" x="240.6" y="350.43" width="7.5" height="2.64"/><rect class="cls-20" x="244.35" y="347.03" width="3.75" height="2.64"/><rect class="cls-20" x="240.6" y="343.06" width="7.5" height="2.65"/><rect class="cls-20" x="244.35" y="339.66" width="3.75" height="2.64"/><rect class="cls-20" x="240.6" y="335.69" width="7.5" height="2.64"/><rect class="cls-20" x="244.35" y="332.28" width="3.75" height="2.64"/><rect class="cls-20" x="95.47" y="527.31" width="7.5" height="2.64"/><rect class="cls-20" x="95.47" y="523.9" width="3.75" height="2.64"/><rect class="cls-20" x="95.47" y="519.94" width="7.5" height="2.64"/><rect class="cls-20" x="95.47" y="516.52" width="3.75" height="2.65"/><rect class="cls-20" x="95.47" y="512.56" width="7.5" height="2.65"/><rect class="cls-20" x="95.47" y="509.16" width="3.75" height="2.64"/><rect class="cls-20" x="95.47" y="505.2" width="7.5" height="2.64"/><rect class="cls-20" x="95.47" y="501.79" width="3.75" height="2.64"/><rect class="cls-20" x="95.47" y="497.83" width="7.5" height="2.64"/><rect class="cls-20" x="95.47" y="494.42" width="3.75" height="2.64"/><rect class="cls-20" x="95.47" y="490.46" width="7.5" height="2.64"/><rect class="cls-20" x="95.47" y="487.05" width="3.75" height="2.63"/><rect class="cls-20" x="95.47" y="483.08" width="7.5" height="2.65"/><rect class="cls-20" x="95.47" y="479.68" width="3.75" height="2.64"/><rect class="cls-20" x="95.47" y="475.72" width="7.5" height="2.64"/><rect class="cls-20" x="95.47" y="472.31" width="3.75" height="2.64"/><rect class="cls-20" x="95.47" y="468.34" width="7.5" height="2.65"/><rect class="cls-20" x="95.47" y="464.93" width="3.75" height="2.64"/><rect class="cls-20" x="95.47" y="460.98" width="7.5" height="2.64"/><rect class="cls-20" x="95.47" y="457.56" width="3.75" height="2.64"/><rect class="cls-20" x="95.47" y="453.61" width="7.5" height="2.64"/><rect class="cls-20" x="95.47" y="450.2" width="3.75" height="2.63"/><rect class="cls-20" x="95.47" y="446.24" width="7.5" height="2.64"/><rect class="cls-20" x="95.47" y="442.82" width="3.75" height="2.65"/><rect class="cls-20" x="95.47" y="438.87" width="7.5" height="2.64"/><rect class="cls-20" x="95.47" y="435.46" width="3.75" height="2.64"/><rect class="cls-20" x="95.47" y="431.5" width="7.5" height="2.64"/><rect class="cls-20" x="95.47" y="428.09" width="3.75" height="2.64"/><rect class="cls-20" x="95.47" y="424.14" width="7.5" height="2.64"/><rect class="cls-20" x="95.47" y="420.72" width="3.75" height="2.64"/><rect class="cls-20" x="95.47" y="416.76" width="7.5" height="2.64"/><rect class="cls-20" x="95.47" y="413.35" width="3.75" height="2.64"/><rect class="cls-20" x="95.47" y="409.39" width="7.5" height="2.63"/><rect class="cls-20" x="95.47" y="405.99" width="3.75" height="2.63"/><rect class="cls-20" x="95.47" y="402.02" width="7.5" height="2.64"/><rect class="cls-20" x="95.47" y="398.61" width="3.75" height="2.64"/><rect class="cls-20" x="95.47" y="394.65" width="7.5" height="2.64"/><rect class="cls-20" x="95.47" y="391.24" width="3.75" height="2.64"/><rect class="cls-20" x="95.47" y="387.27" width="7.5" height="2.65"/><rect class="cls-20" x="95.47" y="383.88" width="3.75" height="2.63"/><rect class="cls-20" x="95.47" y="379.92" width="7.5" height="2.64"/><rect class="cls-20" x="95.47" y="376.5" width="3.75" height="2.64"/><rect class="cls-20" x="95.47" y="372.54" width="7.5" height="2.63"/><rect class="cls-20" x="95.47" y="369.13" width="3.75" height="2.65"/><rect class="cls-20" x="95.47" y="365.17" width="7.5" height="2.65"/><rect class="cls-20" x="95.47" y="361.76" width="3.75" height="2.64"/><rect class="cls-20" x="95.47" y="357.81" width="7.5" height="2.63"/><rect class="cls-20" x="95.47" y="354.39" width="3.75" height="2.64"/><rect class="cls-20" x="95.47" y="350.43" width="7.5" height="2.64"/><rect class="cls-20" x="95.47" y="347.03" width="3.75" height="2.64"/><rect class="cls-20" x="95.47" y="343.06" width="7.5" height="2.65"/><rect class="cls-20" x="95.47" y="339.66" width="3.75" height="2.64"/><rect class="cls-20" x="95.47" y="335.69" width="7.5" height="2.64"/><rect class="cls-20" x="95.47" y="332.28" width="3.75" height="2.64"/><rect class="cls-20" x="240.6" y="328.32" width="7.5" height="2.64"/><rect class="cls-20" x="244.35" y="324.91" width="3.75" height="2.64"/><rect class="cls-20" x="240.6" y="320.96" width="7.5" height="2.64"/><rect class="cls-20" x="244.35" y="317.55" width="3.75" height="2.63"/><rect class="cls-20" x="240.6" y="313.59" width="7.5" height="2.64"/><rect class="cls-20" x="244.35" y="310.18" width="3.75" height="2.64"/><rect class="cls-20" x="240.6" y="306.21" width="7.5" height="2.65"/><rect class="cls-20" x="244.35" y="302.81" width="3.75" height="2.64"/><rect class="cls-20" x="240.6" y="298.84" width="7.5" height="2.64"/><rect class="cls-20" x="244.35" y="295.43" width="3.75" height="2.64"/><rect class="cls-20" x="240.6" y="291.47" width="7.5" height="2.64"/><rect class="cls-20" x="244.35" y="288.06" width="3.75" height="2.64"/><rect class="cls-20" x="240.6" y="284.11" width="7.5" height="2.64"/><rect class="cls-20" x="244.35" y="280.69" width="3.75" height="2.63"/><rect class="cls-20" x="240.6" y="276.74" width="7.5" height="2.64"/><rect class="cls-20" x="244.35" y="273.32" width="3.75" height="2.64"/><rect class="cls-20" x="240.6" y="269.37" width="7.5" height="2.64"/><rect class="cls-20" x="244.35" y="265.96" width="3.75" height="2.64"/><rect class="cls-20" x="95.47" y="328.32" width="7.5" height="2.64"/><rect class="cls-20" x="95.47" y="324.91" width="3.75" height="2.64"/><rect class="cls-20" x="95.47" y="320.96" width="7.5" height="2.64"/><rect class="cls-20" x="95.47" y="317.55" width="3.75" height="2.63"/><rect class="cls-20" x="95.47" y="313.59" width="7.5" height="2.64"/><rect class="cls-20" x="95.47" y="310.18" width="3.75" height="2.64"/><rect class="cls-20" x="95.47" y="306.21" width="7.5" height="2.65"/><rect class="cls-20" x="95.47" y="302.81" width="3.75" height="2.64"/><rect class="cls-20" x="95.47" y="298.84" width="7.5" height="2.64"/><rect class="cls-20" x="95.47" y="295.43" width="3.75" height="2.64"/><rect class="cls-20" x="95.47" y="291.47" width="7.5" height="2.64"/><rect class="cls-20" x="95.47" y="288.06" width="3.75" height="2.64"/><rect class="cls-20" x="95.47" y="284.11" width="7.5" height="2.64"/><rect class="cls-20" x="95.47" y="280.69" width="3.75" height="2.63"/><rect class="cls-20" x="95.47" y="276.74" width="7.5" height="2.64"/><rect class="cls-20" x="95.47" y="273.32" width="3.75" height="2.64"/><rect class="cls-20" x="95.47" y="269.37" width="7.5" height="2.64"/><rect class="cls-20" x="95.47" y="265.96" width="3.75" height="2.64"/><rect class="cls-16" x="201.42" y="459.25" width="27.93" height="34.36"/><rect class="cls-17" x="203.09" y="461.32" width="4.67" height="30.24"/><rect class="cls-17" x="223.01" y="461.32" width="4.67" height="30.24"/><polygon class="cls-11" points="212.57 491.56 209.46 491.56 218.72 461.32 221.82 461.32 212.57 491.56"/><rect class="cls-16" x="157.7" y="459.25" width="27.94" height="34.36"/><rect class="cls-17" x="159.38" y="461.32" width="4.67" height="30.24"/><rect class="cls-17" x="179.3" y="461.32" width="4.66" height="30.24"/><polygon class="cls-11" points="168.86 491.56 165.75 491.56 175 461.32 178.1 461.32 168.86 491.56"/><rect class="cls-16" x="114" y="459.25" width="27.94" height="34.36"/><rect class="cls-17" x="115.67" y="461.32" width="4.68" height="30.24"/><rect class="cls-17" x="135.59" y="461.32" width="4.67" height="30.24"/><polygon class="cls-11" points="125.14 491.56 122.04 491.56 131.29 461.32 134.39 461.32 125.14 491.56"/><rect class="cls-18" x="102.64" y="500.03" width="138.07" height="4.63"/><polygon class="cls-18" points="109.08 486.06 109.08 487.06 109.08 488.06 109.08 502.34 110.53 502.34 110.53 488.06 122.83 488.06 122.83 502.34 124.28 502.34 124.28 488.06 136.57 488.06 136.57 502.34 138.03 502.34 138.03 488.06 150.33 488.06 150.33 502.34 151.78 502.34 151.78 488.06 164.07 488.06 164.07 502.34 165.53 502.34 165.53 488.06 177.83 488.06 177.83 502.34 179.28 502.34 179.28 488.06 191.57 488.06 191.57 502.34 193.03 502.34 193.03 488.06 205.32 488.06 205.32 502.34 206.77 502.34 206.77 488.06 219.07 488.06 219.07 502.34 220.53 502.34 220.53 488.06 232.81 488.06 232.81 502.34 234.28 502.34 234.28 488.06 234.28 487.06 234.28 486.06 109.08 486.06"/><rect class="cls-18" x="93.81" y="440.19" width="155.95" height="2.63"/><rect class="cls-13" x="93.81" y="442.82" width="155.95" height="2.65"/><rect class="cls-16" x="201.42" y="369.39" width="27.93" height="34.36"/><rect class="cls-17" x="203.09" y="371.45" width="4.67" height="30.24"/><rect class="cls-17" x="223.01" y="371.45" width="4.67" height="30.24"/><polygon class="cls-11" points="212.57 401.69 209.46 401.69 218.72 371.45 221.82 371.45 212.57 401.69"/><rect class="cls-16" x="157.7" y="369.39" width="27.94" height="34.36"/><rect class="cls-17" x="159.38" y="371.45" width="4.67" height="30.24"/><rect class="cls-17" x="179.3" y="371.45" width="4.66" height="30.24"/><polygon class="cls-11" points="168.86 401.69 165.75 401.69 175 371.45 178.1 371.45 168.86 401.69"/><rect class="cls-16" x="114" y="369.39" width="27.94" height="34.36"/><rect class="cls-17" x="115.67" y="371.45" width="4.68" height="30.24"/><rect class="cls-17" x="135.59" y="371.45" width="4.67" height="30.24"/><polygon class="cls-11" points="125.14 401.69 122.04 401.69 131.29 371.45 134.39 371.45 125.14 401.69"/><rect class="cls-18" x="102.64" y="410.16" width="138.07" height="4.62"/><polygon class="cls-18" points="109.08 396.19 109.08 397.19 109.08 398.2 109.08 412.47 110.53 412.47 110.53 398.2 122.83 398.2 122.83 412.47 124.28 412.47 124.28 398.2 136.57 398.2 136.57 412.47 138.03 412.47 138.03 398.2 150.33 398.2 150.33 412.47 151.78 412.47 151.78 398.2 164.07 398.2 164.07 412.47 165.53 412.47 165.53 398.2 177.83 398.2 177.83 412.47 179.28 412.47 179.28 398.2 191.57 398.2 191.57 412.47 193.03 412.47 193.03 398.2 205.32 398.2 205.32 412.47 206.77 412.47 206.77 398.2 219.07 398.2 219.07 412.47 220.53 412.47 220.53 398.2 232.81 398.2 232.81 412.47 234.28 412.47 234.28 398.2 234.28 397.19 234.28 396.19 109.08 396.19"/><rect class="cls-18" x="93.81" y="350.32" width="155.95" height="2.64"/><rect class="cls-13" x="93.81" y="352.96" width="155.95" height="2.64"/><rect class="cls-16" x="201.42" y="279.51" width="27.93" height="34.37"/><rect class="cls-17" x="203.09" y="281.58" width="4.67" height="30.24"/><rect class="cls-17" x="223.01" y="281.58" width="4.67" height="30.24"/><polygon class="cls-11" points="212.57 311.82 209.46 311.82 218.72 281.58 221.82 281.58 212.57 311.82"/><rect class="cls-16" x="157.7" y="279.51" width="27.94" height="34.37"/><rect class="cls-17" x="159.38" y="281.58" width="4.67" height="30.24"/><rect class="cls-17" x="179.3" y="281.58" width="4.66" height="30.24"/><polygon class="cls-11" points="168.86 311.82 165.75 311.82 175 281.58 178.1 281.58 168.86 311.82"/><rect class="cls-16" x="114" y="279.51" width="27.94" height="34.37"/><rect class="cls-17" x="115.67" y="281.58" width="4.68" height="30.24"/><rect class="cls-17" x="135.59" y="281.58" width="4.67" height="30.24"/><polygon class="cls-11" points="125.14 311.82 122.04 311.82 131.29 281.58 134.39 281.58 125.14 311.82"/><rect class="cls-18" x="102.64" y="320.28" width="138.07" height="4.63"/><polygon class="cls-18" points="109.08 306.31 109.08 307.32 109.08 308.32 109.08 322.59 110.53 322.59 110.53 308.32 122.83 308.32 122.83 322.59 124.28 322.59 124.28 308.32 136.57 308.32 136.57 322.59 138.03 322.59 138.03 308.32 150.33 308.32 150.33 322.59 151.78 322.59 151.78 308.32 164.07 308.32 164.07 322.59 165.53 322.59 165.53 308.32 177.83 308.32 177.83 322.59 179.28 322.59 179.28 308.32 191.57 308.32 191.57 322.59 193.03 322.59 193.03 308.32 205.32 308.32 205.32 322.59 206.77 322.59 206.77 308.32 219.07 308.32 219.07 322.59 220.53 322.59 220.53 308.32 232.81 308.32 232.81 322.59 234.28 322.59 234.28 308.32 234.28 307.32 234.28 306.31 109.08 306.31"/><rect class="cls-18" x="93.81" y="260.44" width="155.95" height="2.65"/><rect class="cls-13" x="93.81" y="263.09" width="155.95" height="2.64"/><rect class="cls-21" x="374.24" y="419.92" width="114.99" height="114.99"/><rect class="cls-22" x="378.17" y="419.92" width="107.14" height="114.99"/><rect class="cls-23" x="392.18" y="424.66" width="31.48" height="31.48"/><rect class="cls-9" x="394.57" y="427.04" width="26.71" height="26.71"/><polygon class="cls-10" points="421.27 453.75 394.57 453.75 421.27 427.05 421.27 453.75"/><rect class="cls-23" x="442.63" y="424.66" width="31.47" height="31.48"/><rect class="cls-9" x="445.01" y="427.04" width="26.71" height="26.71"/><polygon class="cls-10" points="471.72 453.75 445.01 453.75 471.72 427.05 471.72 453.75"/><rect class="cls-24" x="374.24" y="419.92" width="114.99" height="9.47"/><polygon class="cls-25" points="501.82 419.92 361.66 419.92 380.98 371.17 482.49 371.17 501.82 419.92"/><rect class="cls-23" x="392.18" y="482.06" width="31.48" height="31.47"/><rect class="cls-9" x="394.57" y="484.44" width="26.71" height="26.71"/><polygon class="cls-10" points="421.27 511.15 394.57 511.15 421.27 484.44 421.27 511.15"/><rect class="cls-23" x="442.63" y="482.06" width="31.47" height="52.85"/><rect class="cls-26" x="446.6" y="485.95" width="23.52" height="48.96"/><path class="cls-23" d="M455.23,508.62a2.71,2.71,0,1,1-2.7-2.7A2.71,2.71,0,0,1,455.23,508.62Z"/><polygon class="cls-27" points="439.86 419.92 423.61 419.92 425.85 352.21 437.62 352.21 439.86 419.92"/><rect class="cls-22" x="192.45" y="367.04" width="132.55" height="170.53"/><rect class="cls-21" x="202.72" y="487.43" width="4.47" height="50.14"/><rect class="cls-21" x="249.86" y="487.43" width="4.47" height="50.14"/><rect class="cls-21" x="192.45" y="473.97" width="132.55" height="5.95"/><polygon class="cls-25" points="258.27 492.19 199.4 492.19 204.6 474.25 253.07 474.25 258.27 492.19"/><rect class="cls-9" x="265.91" y="498" width="47.38" height="30.97"/><polygon class="cls-10" points="313.29 528.96 265.91 528.96 313.29 498 313.29 528.96"/><rect class="cls-28" x="217.24" y="498.65" width="23.18" height="38.92"/><rect class="cls-9" x="220.17" y="501.52" width="17.32" height="36.05"/><path class="cls-10" d="M226.53,518.22a2,2,0,1,1-2-2A2,2,0,0,1,226.53,518.22Z"/><rect class="cls-9" x="280.47" y="440.1" width="19.94" height="19.05"/><polygon class="cls-10" points="300.4 459.14 280.47 459.14 300.4 440.1 300.4 459.14"/><rect class="cls-23" x="300.4" y="440.1" width="9.35" height="19.05"/><rect class="cls-29" x="301.56" y="441.21" width="7.05" height="1.87"/><rect class="cls-29" x="301.56" y="444.2" width="7.05" height="1.87"/><rect class="cls-29" x="301.56" y="447.19" width="7.05" height="1.87"/><rect class="cls-29" x="301.56" y="450.18" width="7.05" height="1.87"/><rect class="cls-29" x="301.56" y="453.17" width="7.05" height="1.88"/><rect class="cls-29" x="301.56" y="456.16" width="7.05" height="1.87"/><rect class="cls-23" x="271.12" y="440.1" width="9.35" height="19.05"/><rect class="cls-29" x="272.27" y="441.21" width="7.04" height="1.87"/><rect class="cls-29" x="272.27" y="444.2" width="7.04" height="1.87"/><rect class="cls-29" x="272.27" y="447.19" width="7.04" height="1.87"/><rect class="cls-29" x="272.27" y="450.18" width="7.04" height="1.87"/><rect class="cls-29" x="272.27" y="453.17" width="7.04" height="1.88"/><rect class="cls-29" x="272.27" y="456.16" width="7.04" height="1.87"/><rect class="cls-30" x="280.47" y="459.13" width="19.94" height="1.99"/><rect class="cls-9" x="217.34" y="440.1" width="19.94" height="19.05"/><polygon class="cls-10" points="237.28 459.14 217.34 459.14 237.28 440.1 237.28 459.14"/><rect class="cls-23" x="237.28" y="440.1" width="9.34" height="19.05"/><rect class="cls-29" x="238.42" y="441.21" width="7.05" height="1.87"/><rect class="cls-29" x="238.42" y="444.2" width="7.05" height="1.87"/><rect class="cls-29" x="238.42" y="447.19" width="7.05" height="1.87"/><rect class="cls-29" x="238.42" y="450.18" width="7.05" height="1.87"/><rect class="cls-29" x="238.42" y="453.17" width="7.05" height="1.88"/><rect class="cls-29" x="238.42" y="456.16" width="7.05" height="1.87"/><rect class="cls-23" x="207.99" y="440.1" width="9.35" height="19.05"/><rect class="cls-29" x="209.14" y="441.21" width="7.05" height="1.87"/><rect class="cls-29" x="209.14" y="444.2" width="7.05" height="1.87"/><rect class="cls-29" x="209.14" y="447.19" width="7.05" height="1.87"/><rect class="cls-29" x="209.14" y="450.18" width="7.05" height="1.87"/><rect class="cls-29" x="209.14" y="453.17" width="7.05" height="1.88"/><rect class="cls-29" x="209.14" y="456.16" width="7.05" height="1.87"/><rect class="cls-30" x="217.34" y="459.13" width="19.94" height="1.99"/><rect class="cls-9" x="280.47" y="387.24" width="19.94" height="19.05"/><polygon class="cls-10" points="300.4 406.29 280.47 406.29 300.4 387.24 300.4 406.29"/><rect class="cls-23" x="300.4" y="387.24" width="9.35" height="19.05"/><rect class="cls-29" x="301.56" y="388.35" width="7.05" height="1.88"/><rect class="cls-29" x="301.56" y="391.34" width="7.05" height="1.86"/><rect class="cls-29" x="301.56" y="394.34" width="7.05" height="1.87"/><rect class="cls-29" x="301.56" y="397.33" width="7.05" height="1.87"/><rect class="cls-29" x="301.56" y="400.32" width="7.05" height="1.87"/><rect class="cls-29" x="301.56" y="403.3" width="7.05" height="1.88"/><rect class="cls-23" x="271.12" y="387.24" width="9.35" height="19.05"/><rect class="cls-29" x="272.27" y="388.35" width="7.04" height="1.88"/><rect class="cls-29" x="272.27" y="391.34" width="7.04" height="1.86"/><rect class="cls-29" x="272.27" y="394.34" width="7.04" height="1.87"/><rect class="cls-29" x="272.27" y="397.33" width="7.04" height="1.87"/><rect class="cls-29" x="272.27" y="400.32" width="7.04" height="1.87"/><rect class="cls-29" x="272.27" y="403.3" width="7.04" height="1.88"/><rect class="cls-30" x="280.47" y="406.27" width="19.94" height="1.99"/><rect class="cls-9" x="217.34" y="387.24" width="19.94" height="19.05"/><polygon class="cls-10" points="237.28 406.29 217.34 406.29 237.28 387.24 237.28 406.29"/><rect class="cls-23" x="237.28" y="387.24" width="9.34" height="19.05"/><rect class="cls-29" x="238.42" y="388.35" width="7.05" height="1.88"/><rect class="cls-29" x="238.42" y="391.34" width="7.05" height="1.86"/><rect class="cls-29" x="238.42" y="394.34" width="7.05" height="1.87"/><rect class="cls-29" x="238.42" y="397.33" width="7.05" height="1.87"/><rect class="cls-29" x="238.42" y="400.32" width="7.05" height="1.87"/><rect class="cls-29" x="238.42" y="403.3" width="7.05" height="1.88"/><rect class="cls-23" x="207.99" y="387.24" width="9.35" height="19.05"/><rect class="cls-29" x="209.14" y="388.35" width="7.05" height="1.88"/><rect class="cls-29" x="209.14" y="391.34" width="7.05" height="1.86"/><rect class="cls-29" x="209.14" y="394.34" width="7.05" height="1.87"/><rect class="cls-29" x="209.14" y="397.33" width="7.05" height="1.87"/><rect class="cls-29" x="209.14" y="400.32" width="7.05" height="1.87"/><rect class="cls-29" x="209.14" y="403.3" width="7.05" height="1.88"/><rect class="cls-30" x="217.34" y="406.27" width="19.94" height="1.99"/><rect class="cls-25" x="185.77" y="356.21" width="145.91" height="5.42"/><rect class="cls-27" x="192.45" y="361.63" width="132.55" height="5.42"/><path class="cls-2" d="M664.92,581.46a27.92,27.92,0,0,0-5.46-7.77,26.89,26.89,0,0,0-8.1-5.54,25.25,25.25,0,0,0-10.2-2.16h-5.1c-6,0-10.76,1.37-14.46,4.19a19.2,19.2,0,0,0-4.29,4.49,33.42,33.42,0,0,0-6.88-5.39A24.07,24.07,0,0,0,598.14,566H593c-3.8,0-9.4.42-14.24,4a25.51,25.51,0,0,0-5.5-2.62,27.19,27.19,0,0,0-8.74-1.48,25.94,25.94,0,0,0-24.35,17.27c0,.1-.52,1.48-.52,1.48A25.2,25.2,0,0,0,529.51,582l-1,0a24.53,24.53,0,0,0-10.69,2.49l-.34-1A25.36,25.36,0,0,0,504,568.33a25.78,25.78,0,0,0-10.94-2.44,27.27,27.27,0,0,0-8.76,1.48,25.19,25.19,0,0,0-9.13,5.41c-.3.28-.58.58-.86.87a54.52,54.52,0,0,0-6.67-3.45,52,52,0,0,0-41,0,56.7,56.7,0,0,0-6,3.07A25.74,25.74,0,0,0,402.45,566H366.18a25.81,25.81,0,0,0-15.33,4.85,27.15,27.15,0,0,0-4.69-2.69A25.25,25.25,0,0,0,336,566h-5.1c-6,0-10.77,1.37-14.47,4.19a19.2,19.2,0,0,0-4.29,4.49,33.37,33.37,0,0,0-6.87-5.39,24.11,24.11,0,0,0-12.3-3.29h-5.1c-3.8,0-9.39.42-14.23,4a25.74,25.74,0,0,0-5.5-2.62,27.19,27.19,0,0,0-8.74-1.48A25.94,25.94,0,0,0,235,583.16c0,.1-.51,1.48-.51,1.48A25.2,25.2,0,0,0,224.31,582l-1,0a24.46,24.46,0,0,0-10.68,2.49l-.35-1a25.31,25.31,0,0,0-13.51-15.15,25.82,25.82,0,0,0-10.95-2.44,27.21,27.21,0,0,0-8.75,1.48,25.14,25.14,0,0,0-9.14,5.41c-.3.28-.57.58-.86.87a55.12,55.12,0,0,0-6.66-3.45,52,52,0,0,0-41,0A53.85,53.85,0,0,0,105,581.29a51.67,51.67,0,0,0-4.55,5.16A52.06,52.06,0,0,0,79.46,570.2,51.13,51.13,0,0,0,59,566H36.68c-3.83,0-9.47.42-14.33,4.07a18.78,18.78,0,0,0-7.53,13.23,27.22,27.22,0,0,0,.57,8.64,10.59,10.59,0,0,1,.24,1.55v51a25.93,25.93,0,0,0,26.14,26.14H59a51.73,51.73,0,0,0,41.44-20.43A52.29,52.29,0,0,0,179,655.31c.93-.95,1.82-1.94,2.68-2.95l.37,1A26.45,26.45,0,0,0,194.65,668,24.41,24.41,0,0,0,206,670.82a26.09,26.09,0,0,0,8.79-1.56,24.93,24.93,0,0,0,8.72-5,24.79,24.79,0,0,0,8.93,5,26.2,26.2,0,0,0,8.68,1.52A24.08,24.08,0,0,0,252.56,668a26.53,26.53,0,0,0,12.51-14.63L267,648a26.11,26.11,0,0,0,44.39,15,27.1,27.1,0,0,0,3-3.71l1.9,2.29.21.25a25,25,0,0,0,8.85,6.58,26.92,26.92,0,0,0,9.38,2.26c.46,0,.93,0,1.39,0a25.16,25.16,0,0,0,8.86-1.61,26.49,26.49,0,0,0,8.91-5.56,24.62,24.62,0,0,0,6.24-9.26,25.67,25.67,0,0,0,5.51,8.62,26.1,26.1,0,0,0,37.1.1,25.78,25.78,0,0,0,5.82-9.16c.49.52,1,1.05,1.48,1.55a52.52,52.52,0,0,0,16.64,11.2,52.25,52.25,0,0,0,57.44-11.25c.94-.95,1.83-1.94,2.69-2.95l.36,1A26.5,26.5,0,0,0,499.86,668a24.37,24.37,0,0,0,11.37,2.81,26,26,0,0,0,8.79-1.56,24.85,24.85,0,0,0,8.72-5,24.83,24.83,0,0,0,8.94,5,26.1,26.1,0,0,0,8.67,1.52A24.12,24.12,0,0,0,557.77,668a26.55,26.55,0,0,0,12.5-14.63l1.94-5.33a26.12,26.12,0,0,0,44.4,15,27.86,27.86,0,0,0,3-3.71l1.9,2.29.21.25a24.92,24.92,0,0,0,8.84,6.58,27,27,0,0,0,9.38,2.26c.47,0,.93,0,1.39,0a25.16,25.16,0,0,0,8.86-1.61,26.4,26.4,0,0,0,8.91-5.56,24.49,24.49,0,0,0,6.85-11,33,33,0,0,0,1.31-9.25V592.13A24.84,24.84,0,0,0,664.92,581.46Zm-523,37,0,0,0-.08s.06-.14.08-.17a.43.43,0,0,1,0,.05A.25.25,0,0,1,142,618.48Zm305.21,0,0,0a.69.69,0,0,0,0-.08.77.77,0,0,1,.07-.17s0,0,0,.05A.25.25,0,0,1,447.16,618.48Z"/><path class="cls-17" d="M41.77,655.66a10.93,10.93,0,0,1-11.14-11.14V593A27.1,27.1,0,0,0,30,588.7a12.31,12.31,0,0,1-.3-3.86,3.88,3.88,0,0,1,1.6-2.78Q32.77,581,36.68,581H59a36.08,36.08,0,0,1,14.52,3,38.13,38.13,0,0,1,11.85,8,37.71,37.71,0,0,1,8,11.85,37,37,0,0,1,0,29,38.68,38.68,0,0,1-8,11.91A36.93,36.93,0,0,1,59,655.66ZM74,618.33a14.41,14.41,0,0,0-1.18-5.81,14.69,14.69,0,0,0-3.26-4.74A16.1,16.1,0,0,0,59,603.27l-6-.23v30.7l6-.36A15.27,15.27,0,0,0,64.77,632a16.9,16.9,0,0,0,4.8-3.26,15,15,0,0,0,3.26-4.68A14,14,0,0,0,74,618.33Z"/><path class="cls-17" d="M104.59,618.33A37,37,0,0,1,115.5,592a38.64,38.64,0,0,1,11.91-8,37.09,37.09,0,0,1,29,0,38.13,38.13,0,0,1,11.85,8,37.71,37.71,0,0,1,8,11.85,37,37,0,0,1,0,29,38.68,38.68,0,0,1-8,11.91,37.5,37.5,0,0,1-40.89,8,37.23,37.23,0,0,1-19.91-19.91A36.63,36.63,0,0,1,104.59,618.33Zm22.29,0a15.22,15.22,0,0,0,1.18,5.92,16.31,16.31,0,0,0,3.2,5,14.84,14.84,0,0,0,4.8,3.38,14.22,14.22,0,0,0,5.87,1.24,13.84,13.84,0,0,0,5.81-1.24,16,16,0,0,0,4.8-3.38,15.75,15.75,0,0,0,3.26-5,15.22,15.22,0,0,0,1.18-5.92,14.83,14.83,0,0,0-1.18-5.87,15.21,15.21,0,0,0-3.26-4.86,16.55,16.55,0,0,0-4.8-3.32,13.84,13.84,0,0,0-5.81-1.24,14.22,14.22,0,0,0-5.87,1.24,14.84,14.84,0,0,0-4.8,3.38,16.31,16.31,0,0,0-3.2,5,15.22,15.22,0,0,0-1.18,5.92Z"/><path class="cls-17" d="M249.08,588.34a10.86,10.86,0,0,1,5.69-6.4,11,11,0,0,1,8.53-.36,10.16,10.16,0,0,1,3.73,2.2,11.68,11.68,0,0,1,2.55,3.37,10.49,10.49,0,0,1,1.07,4.15,12.75,12.75,0,0,1-.59,4.51L251,648.2a11.51,11.51,0,0,1-5.45,6.51,9.72,9.72,0,0,1-8.29.36,9.86,9.86,0,0,1-4-2.19,11.87,11.87,0,0,1-2.54-3.38L223.59,633l-7.23,16.48a11.87,11.87,0,0,1-2.54,3.38,10,10,0,0,1-3.86,2.19,9.86,9.86,0,0,1-8.35-.36,11.45,11.45,0,0,1-5.51-6.51l-19-52.39a12.75,12.75,0,0,1-.59-4.51,10.32,10.32,0,0,1,1.07-4.15,11.83,11.83,0,0,1,2.54-3.37,10.29,10.29,0,0,1,3.74-2.2,11.19,11.19,0,0,1,8.59.36,10.44,10.44,0,0,1,5.63,6.4L208.78,619l5.33-14.94a10.29,10.29,0,0,1,4-5.51,9.54,9.54,0,0,1,5.63-1.6,10.2,10.2,0,0,1,5.57,2,10.34,10.34,0,0,1,3.8,5.15L238.53,619Z"/><path class="cls-17" d="M347.1,643.22a17.88,17.88,0,0,1-.71,5,9.61,9.61,0,0,1-2.73,4.33,11.36,11.36,0,0,1-3.85,2.43,10.21,10.21,0,0,1-4.21.65,12,12,0,0,1-4.15-1A10.15,10.15,0,0,1,327.9,652L304,623.07l-.11,21.45a10.87,10.87,0,0,1-3.15,7.94,10.41,10.41,0,0,1-7.76,3.2,10.93,10.93,0,0,1-11.14-11.14V593a27.1,27.1,0,0,0-.59-4.26,12,12,0,0,1-.3-3.86,3.85,3.85,0,0,1,1.6-2.78q1.42-1.06,5.33-1.07h5.1a9.22,9.22,0,0,1,4.74,1.25,18.8,18.8,0,0,1,4.15,3.37c.24.32.57.73,1,1.25l2.07,2.49,4,4.8,6.46,7.76q3.92,4.68,9.6,11.56l-.12-20.15a18.12,18.12,0,0,0-.53-4.33,13.3,13.3,0,0,1-.41-4,3.8,3.8,0,0,1,1.6-2.9q1.47-1.12,5.39-1.13H336a10.18,10.18,0,0,1,4.14.89,11.49,11.49,0,0,1,3.56,2.43,12.4,12.4,0,0,1,2.49,3.56,9.9,9.9,0,0,1,1,4.26Z"/><path class="cls-17" d="M402.45,581a10.85,10.85,0,0,1,7.88,3.2,11.29,11.29,0,0,1,2.37,12.33,11.07,11.07,0,0,1-5.92,5.86,10.79,10.79,0,0,1-4.33.89h-7l-.24,41.25a10.9,10.9,0,0,1-3.14,7.94,11.09,11.09,0,0,1-15.59,0,11,11,0,0,1-3.08-7.94l-.24-41.25h-7a10.65,10.65,0,0,1-7.94-3.26,11.11,11.11,0,0,1,7.94-19Z"/><path class="cls-17" d="M409.8,618.33A36.93,36.93,0,0,1,420.7,592a38.88,38.88,0,0,1,11.91-8,37.09,37.09,0,0,1,29,0,37.58,37.58,0,0,1,19.86,19.86,37.09,37.09,0,0,1,0,29,39,39,0,0,1-8,11.91,37.51,37.51,0,0,1-40.9,8,37.23,37.23,0,0,1-19.91-19.91A36.8,36.8,0,0,1,409.8,618.33Zm22.28,0a15.23,15.23,0,0,0,1.19,5.92,16.12,16.12,0,0,0,3.2,5,14.84,14.84,0,0,0,4.8,3.38,14.17,14.17,0,0,0,5.86,1.24,13.81,13.81,0,0,0,5.81-1.24,15.75,15.75,0,0,0,8.06-8.36,15.23,15.23,0,0,0,1.19-5.92,14.84,14.84,0,0,0-1.19-5.87,15.21,15.21,0,0,0-3.26-4.86,16.29,16.29,0,0,0-4.8-3.32,13.81,13.81,0,0,0-5.81-1.24,14.17,14.17,0,0,0-5.86,1.24,14.84,14.84,0,0,0-4.8,3.38,16.12,16.12,0,0,0-3.2,5,15.23,15.23,0,0,0-1.19,5.92Z"/><path class="cls-17" d="M554.28,588.34a10.89,10.89,0,0,1,5.69-6.4,11.05,11.05,0,0,1,8.54-.36,10.24,10.24,0,0,1,3.73,2.2,11.86,11.86,0,0,1,2.55,3.37,10.48,10.48,0,0,1,1.06,4.15,12.52,12.52,0,0,1-.59,4.51L556.18,648.2a11.58,11.58,0,0,1-5.45,6.51,9.74,9.74,0,0,1-8.3.36,9.89,9.89,0,0,1-4-2.19,11.72,11.72,0,0,1-2.55-3.38L528.8,633l-7.23,16.48a11.72,11.72,0,0,1-2.55,3.38,11.62,11.62,0,0,1-12.21,1.83,11.49,11.49,0,0,1-5.51-6.51l-19-52.39a12.53,12.53,0,0,1-.6-4.51,10.49,10.49,0,0,1,1.07-4.15,11.68,11.68,0,0,1,2.55-3.37,10.24,10.24,0,0,1,3.73-2.2,11.21,11.21,0,0,1,8.6.36,10.47,10.47,0,0,1,5.63,6.4L514,619l5.34-14.94a10.24,10.24,0,0,1,4-5.51,9.52,9.52,0,0,1,5.63-1.6,10.22,10.22,0,0,1,5.57,2,10.33,10.33,0,0,1,3.79,5.15L543.73,619Z"/><path class="cls-17" d="M652.3,643.22a17.52,17.52,0,0,1-.71,5,9.51,9.51,0,0,1-2.72,4.33A11.4,11.4,0,0,1,645,655a10.16,10.16,0,0,1-4.2.65,11.85,11.85,0,0,1-4.15-1A10.18,10.18,0,0,1,633.1,652l-23.94-28.92L609,644.52a10.9,10.9,0,0,1-3.14,7.94,10.41,10.41,0,0,1-7.76,3.2A10.93,10.93,0,0,1,587,644.52V593a24.94,24.94,0,0,0-.59-4.26,12.28,12.28,0,0,1-.29-3.86,3.81,3.81,0,0,1,1.6-2.78Q589.12,581,593,581h5.1a9.25,9.25,0,0,1,4.74,1.25,19,19,0,0,1,4.15,3.37c.23.32.57.73,1,1.25s1.13,1.34,2.08,2.49l4,4.8q2.55,3.08,6.46,7.76t9.6,11.56L630,593.32a18.64,18.64,0,0,0-.53-4.33,13,13,0,0,1-.42-4,3.83,3.83,0,0,1,1.6-2.9q1.49-1.12,5.39-1.13h5.1a10.23,10.23,0,0,1,4.15.89,11.61,11.61,0,0,1,3.56,2.43,12.57,12.57,0,0,1,2.48,3.56,9.75,9.75,0,0,1,.95,4.26Z"/></g></g></svg>