<svg id="Layer_3" data-name="Layer 3" xmlns="http://www.w3.org/2000/svg" viewBox="0 0 682 682"><defs><style>.cls-1{fill:#4b657a;}.cls-2{fill:#35495e;}.cls-3{fill:#6f8495;}</style></defs><path class="cls-1" d="M74.09,16.5l34.56,101.87L138.71,665.5H543.29l30.06-547.13L607.91,16.5Zm60.12,169.08-4-67.8L103.86,40.65h25.43l21.31,71.9.47,1.58,0,1.21,1.22,70.24Zm35.8,0-3.54-68.12L144.71,40.65h25l17.3,72.44.33,1.36v1l.72,70.16Zm35.8,0-3.09-68.44-17.2-76.49h24.72l13.24,73,.2,1.13v.71l.23,70.09Zm54.16-70-.26,70h-18.1L239,116.81,226.29,40.65h24.48l9.1,73.58.11.88Zm36.29.07-.75,70h-18.1l-2.18-69.11L267,40.65h24.32l4.88,74.18,0,.62Zm35,70H313.2l-1.78-71-3.71-73.93H332l.57,73.59Zm37.59-71-1.77,71H349l-1.23-71.34.58-73.59h24.25Zm36.19,1.9-2.17,69.1h-18.1l-.76-70v-.18l0-.62L389,40.65H413.3Zm36.26.33-2.63,68.77h-18.1l-.27-70v-.45l.11-.88,9.09-73.58H454Zm33.17,68.77h-18.1l.22-70.09v-.71l.21-1.13,13.23-73H494.8l-17.2,76.49Zm35.8,0h-18.1l.72-70.16v-1l.32-1.36,17.31-72.44h25l-21.77,76.81Zm39.77-67.8-4,67.8H528l1.21-70.24,0-1.21.47-1.58L551,40.65h25.42Z"/><path class="cls-2" d="M194.77,652.58H312.38L307.82,42.86l-.11-2.21h.09l-.09-12.6H128.09l1.42,13.35,21.09,71.15.47,1.58,0,1.21,1.22,70.24H144.9ZM291.34,40.65l4.88,74.18,0,.62v.18l-.75,70h-18.1l-2.18-69.11L267,40.65Zm-40.57,0,9.1,73.58.11.88v.45l-.26,70h-18.1L239,116.81,226.29,40.65Zm-40.53,0,13.24,73,.2,1.13v.71l.23,70.09h-18.1l-3.09-68.44-17.2-76.49Zm-65.53,0h25l17.3,72.44.33,1.36v1l.72,70.16H170l-3.54-68.12Z"/><path class="cls-3" d="M413.3,40.65l-3.1,28.56,10.14,46.35v-.45l.11-.88,9.09-73.58H454l-12.69,76.16-2.63,68.77H421.4l7,462.59h89l28.48-462.59H528l1.21-70.24,0-1.21.47-1.58L551,40.65h25.42l-26.37,77.13L588.31,16.5H398.67L404,40.65Zm122.31,0-21.77,76.81-3.53,68.12h-18.1l.72-70.16v-1l.32-1.36,17.31-72.44Zm-79,74.84v-.71l.21-1.13,13.23-73H494.8l-17.2,76.49-3.09,68.44h-18.1Z"/></svg>