<svg xmlns="http://www.w3.org/2000/svg" viewBox="0 0 1322 1759.56"><defs><style>.cls-1{isolation:isolate;}.cls-2,.cls-5{fill:#7f6d5d;}.cls-3{fill:#68574b;}.cls-4{fill:#f2ebbf;}.cls-5{opacity:0.3;mix-blend-mode:multiply;}</style></defs><g class="cls-1"><g id="Layer_4" data-name="Layer 4"><path class="cls-2" d="M0,1684.15a75.41,75.41,0,0,0,75.41,75.41H1246.59a75.41,75.41,0,0,0,75.41-75.41V243a75.41,75.41,0,0,0-75.41-75.41H75.41A75.41,75.41,0,0,0,0,243Z"/><path class="cls-2" d="M1196.32,1545.44H5.75A75.17,75.17,0,0,1,0,1516.58V75.41A75.41,75.41,0,0,1,75.41,0H1246.59A75.41,75.41,0,0,1,1322,75.41V1516.58a75.41,75.41,0,0,1-75.41,75.41h-50.27Z"/><path class="cls-3" d="M1182.35,0h64.24A75.41,75.41,0,0,1,1322,75.41V1684.15a75.41,75.41,0,0,1-75.41,75.41h-64.24Z"/><path class="cls-4" d="M51.2,1545.44H1196.32a79.13,79.13,0,1,1,0,158.26H51.2Z"/><path class="cls-5" d="M1246.59,0H716.85V1545.44h599.4a75.17,75.17,0,0,0,5.75-28.86V75.41A75.41,75.41,0,0,0,1246.59,0Z"/></g></g></svg>