<svg id="Layer_1" data-name="Layer 1" xmlns="http://www.w3.org/2000/svg" viewBox="0 0 682 682"><defs><style>.cls-1{fill:#d28a4f;}.cls-2{fill:#764019;}.cls-3{fill:#9e5817;}.cls-4{fill:#f4a8a4;}.cls-5{fill:#fae3d0;}.cls-6{fill:#fff;}.cls-7{fill:#12211c;}</style></defs><path class="cls-1" d="M190.4,535.61l-.57,57.72a149.58,149.58,0,0,1-28.11-41C137.79,500.35,151.64,450,156.8,433.86c-1.78,13.45-4,44.9,13.78,76.2A114,114,0,0,0,190.4,535.61Z"/><path class="cls-2" d="M223.19,427.17a279.73,279.73,0,0,0-24.61,54.69c-8.38,25.69-10.62,45.2-13.49,71.58-5.12,47-7.45,71,4,91.68,9.59,17.39,24.19,27.47,34.13,33H412.12V384.54Z"/><path class="cls-1" d="M253.32,283.2H436.17a65.15,65.15,0,0,1,18,19.22c10,16.26,10.46,32.69,10.3,39.38V679.67h-79V445.27c-4.3-25.51-26-42.77-48.07-40.29-19.05,2.13-35.22,18.58-38.63,40.29V678.76h-80.7V340c.7-16.17,5.41-26.08,9.44-32.05,9.09-13.47,26.25-24.09,25.83-24.7A.07.07,0,0,0,253.32,283.2Z"/><path class="cls-3" d="M208.41,682a47,47,0,0,1,93.94,0"/><path class="cls-3" d="M378.78,682a47,47,0,0,1,93.94,0"/><path class="cls-4" d="M315.17,265.41H362.9a.19.19,0,0,1,.19.19V329a5.5,5.5,0,0,1-5.5,5.5h-37a5.66,5.66,0,0,1-5.66-5.66V265.6a.19.19,0,0,1,.19-.19Z"/><path class="cls-3" d="M289.33,5.78c-10.74-2.45-37.79-7-64.08,7.2A80.9,80.9,0,0,0,209,24.56a257.45,257.45,0,0,0-25.59,20.69c-12.63,11.62-42.73,39.3-57.38,77.1-15.23,39.3-20.45,106.76,14.34,127.3,5.31,3.14,23.13,12,56.78-.6q5.18-25.23,11.36-51.39,3.16-13.42,6.48-26.48a115.66,115.66,0,0,0,14.11-26.92C240.69,112.51,230.82,92,235.19,69,238.36,52.31,249.85,29.33,289.33,5.78Z"/><path class="cls-3" d="M393.75,5.78c10.56-2.37,37-6.69,62.83,7.2a79.88,79.88,0,0,1,16.24,11.58,258.54,258.54,0,0,1,25.6,20.69c12.62,11.62,42.72,39.3,57.37,77.1,14.31,36.9,22,105.39-14.34,127.3-25.47,15.35-60.33.48-71.66-4.91-2.09-10.76-4.72-22.27-8.07-34.38s-7.08-23.61-10.87-34c-.25-7.76-.67-19-1.41-32.62-2.14-39.6-3.21-59.4-6.8-72.47C438.56,56.38,427.76,31.17,393.75,5.78Z"/><path class="cls-1" d="M310.88.81c3.8-.14,14.06,0,34.56.23,19.83.25,29.74.37,31.74.59,39,4.43,64.54,58.34,66.29,62.16,11.29,24.53,8.5,38.18,13,84.48a807.29,807.29,0,0,0,15.52,97,64.92,64.92,0,0,1-2.63,7.13c-10.64,24.47-33.76,36.9-47.62,42.67,5.92-6.08,22.8-24.94,18.95-45.68-2.08-11.23-10.86-19.94-28.35-37.43-13.88-13.89-20.82-20.83-28.36-25-23.53-12.89-55.53-13.1-79.39,0-6.05,3.32-15,12.42-32.89,30.63-20.33,20.67-22.7,27.7-23.82,31.76-1.43,5.14-4.66,20.76,8.16,42.7a99.1,99.1,0,0,1-40.68-21.83,97.63,97.63,0,0,1-18.13-21.81c1.25-6.35,2.91-15,4.69-25.37,6-34.75,7.46-55,10.81-81.93,5.42-43.39,8.13-65.08,11.95-73.27C241.25,32.42,278.7,2,310.88.81Z"/><path class="cls-5" d="M302.4,163a135.32,135.32,0,0,0,8.78-19.18c8.45-23.1,8.05-42,6.89-78.79C317,29.92,316.22,7.47,316,0l44.34.6c.24,27.65-.79,49.61-1.8,64.7,0,0-1.17,17.57.6,55.72a59.89,59.89,0,0,0,5.39,24,57.62,57.62,0,0,0,14.4,18.84"/><path class="cls-5" d="M241,258.19a85.38,85.38,0,0,0,4.55,18.08c3.52,9.48,13.45,36.2,31.77,38.88,21.59,3.16,41.2-29,43.9-33.45a80.22,80.22,0,0,0,5.87-11.62H350c13.79,33.15,39.27,51,56.06,46.33,16.38-4.55,26.6-31.1,29.27-38.05a93.74,93.74,0,0,0,5.25-20.17c1.27-18-3-30.3-6.42-37.41C430.44,213,420.58,203,401,183.37c-15.12-15.17-18.29-17.44-22.1-19.55-14-7.77-27.47-8.22-35.7-8.5s-24.1-.63-40.8,7.65c-8.42,4.17-15.08,10.77-28.06,23.8C255.51,205.69,246,215.43,242,229.28A62.82,62.82,0,0,0,241,258.19Z"/><circle class="cls-6" cx="276.48" cy="121.1" r="25.33"/><circle class="cls-6" cx="396.36" cy="121.1" r="25.33"/><circle class="cls-7" cx="276.26" cy="121.78" r="20.57"/><circle class="cls-7" cx="396.22" cy="121.78" r="20.57"/><circle class="cls-6" cx="266.26" cy="111.12" r="6.17"/><circle class="cls-6" cx="386.54" cy="111.12" r="6.17"/><path class="cls-7" d="M339.4,248.15a53,53,0,0,1-38-44.15,37,37,0,0,1,8.06-9.35c10.51-8.64,22.85-8.68,28.68-8.7,5.36,0,15.33.09,25.46,6.45a42.36,42.36,0,0,1,11.93,11.28,52.19,52.19,0,0,1-8.7,24.17A53.07,53.07,0,0,1,339.4,248.15Z"/></svg>