<svg xmlns="http://www.w3.org/2000/svg" viewBox="0 0 682 1016"><defs><style>.cls-1{isolation:isolate;}.cls-2{fill:#f1e5d9;}.cls-3{fill:#88ba3a;}.cls-15,.cls-4{fill:#f7d3a3;}.cls-14,.cls-4{mix-blend-mode:multiply;}.cls-5{fill:#8a8620;}.cls-6{fill:#66412a;}.cls-7{fill:#a6a126;}.cls-8{fill:#4b657a;}.cls-9{fill:#35495e;}.cls-10{fill:#6f8495;}.cls-11{fill:#d67656;}.cls-12{fill:#753e2a;}.cls-13{fill:#bf694d;}.cls-15,.cls-16,.cls-18,.cls-19{fill-rule:evenodd;}.cls-16{fill:#62892b;}.cls-17{opacity:0.2;}.cls-18{fill:#293616;}.cls-19{fill:#82a156;}.cls-20{fill:#896955;}.cls-21{fill:#63b7d2;}</style></defs><g class="cls-1"><g id="Layer_3" data-name="Layer 3"><ellipse class="cls-2" cx="341" cy="756.09" rx="327" ry="156.77"/><ellipse class="cls-3" cx="341" cy="717.74" rx="297.4" ry="119.33"/><path class="cls-4" d="M628.25,740.14c0,12.15-128.59,22-287.2,22s-287.2-9.85-287.2-22,128.58-22,287.2-22S628.25,728,628.25,740.14Z"/><polygon class="cls-5" points="430.66 297.1 405.42 300.62 367.39 307.35 268.37 299.71 212.71 330.61 197.67 368.45 197.14 411.59 128.88 464.23 85.74 446.21 106.75 538.32 152.77 544.39 185.92 541.65 227.01 496.63 257.95 497.24 327.5 483.77 355.76 473.26 390.93 413.26 438.91 322.12 437.81 291.38 430.66 297.1"/><polygon class="cls-6" points="325.31 341.09 317.6 408.01 319.67 441.15 318.77 456.98 314.76 472.32 309.04 487.83 303.53 503.44 302.63 505.62 295.62 480.06 281.8 451.56 268.53 423.75 264.15 413.45 267.4 408.44 271.38 400.39 274.74 391.95 276.17 387.65 277.24 383.27 280.26 347.95 275.56 279.33 270.01 279.14 272.5 348.07 268.65 381.1 267.56 385.05 266.15 388.88 262.9 396.32 259.73 402.38 247.63 366.06 238.05 305.85 244.02 245.45 235.06 243.11 227.86 306.18 236.87 368.89 257.48 428.55 270.61 457.16 283.57 484.89 289.74 512.82 282.54 539.38 275.31 553.37 271.97 561 269.22 568.68 262.71 593.93 246.74 584.89 234.33 579.78 223.35 573.69 190.01 534.77 172.14 485.82 169.79 472.94 168.62 459.79 164.63 432.72 159.31 434.33 162.51 460.16 163.44 473.68 165.6 487.16 183.27 538.66 198.34 561.45 218.28 581 230.52 588.13 242.74 593.46 260.71 605 254.3 662.42 250.88 693.01 250.14 726.84 266.45 723.27 266.97 695.12 270.01 663.75 276.18 602.42 282.9 573.09 285.29 566.07 288.1 559.4 294.97 545.61 301.18 529.91 302.01 526.35 304.42 522.56 312.39 506.76 317.69 490.92 323.21 475.13 327.3 458.25 328.01 440.91 325.38 407.71 331.74 342.88 353.08 279.81 347.64 278.66 325.31 341.09 325.31 341.09"/><polygon class="cls-7" points="292.31 153.42 316.43 118.82 349.87 105.86 357.16 98.6 386.84 58.95 386.44 57.24 330.48 26.5 248.72 37.63 191.06 98.19 185 162.6 240.92 169.74 292.31 153.42"/><polygon class="cls-5" points="216.36 198.38 302.42 195.46 337.21 185.66 369.62 149.34 392.26 122.2 405.46 115.58 397.8 106.01 386.84 58.95 357.16 98.6 349.87 105.86 316.43 118.82 292.31 153.42 240.92 169.74 185 162.6 183.08 183.02 184.28 183.41 216.36 198.38"/><polygon class="cls-7" points="197.14 411.59 197.67 368.45 212.71 330.61 268.37 299.71 367.39 307.35 405.42 300.62 430.66 297.1 437.81 291.38 435.42 224.28 430.99 147.51 405.46 115.58 392.26 122.2 369.62 149.34 337.21 185.66 302.42 195.46 216.36 198.38 184.28 183.41 183.08 183.02 182.32 191.15 175.03 261.23 117.16 314.44 78.39 375.51 77.5 396.72 72.87 436.98 77.41 409.7 85.74 446.21 128.88 464.23 197.14 411.59"/><ellipse class="cls-4" cx="129.48" cy="701.86" rx="54.93" ry="13.27"/><path class="cls-8" d="M78.49,575.1l6.85,20.21,6,108.58H171.6l6-108.58,6.86-20.21Zm11.93,33.55-.79-13.46-5.24-15.3h5l4.23,14.27.09.31v.24L94,608.65Zm7.1,0-.7-13.52L92.5,579.89h5l3.43,14.37.07.27v.2l.14,13.92Zm7.1,0L104,595.07l-3.41-15.18h4.9l2.63,14.49,0,.22v.14l0,13.91Zm10.75-13.89-.05,13.89h-3.59L111.21,595l-2.52-15.11h4.86l1.8,14.6,0,.18Zm7.2,0-.14,13.88h-3.6l-.43-13.71-1.63-15.05h4.83l1,14.72v.16Zm7,13.88h-3.59l-.36-14.09-.73-14.67h4.81l.11,14.6ZM137,594.56l-.36,14.09H133l-.24-14.16.11-14.6h4.81Zm7.18.38-.43,13.71h-3.59L140,594.77v-.16l1-14.72h4.83Zm7.2.06-.53,13.65h-3.59l-.05-13.89v-.09l0-.18,1.8-14.6h4.86ZM158,608.65h-3.6l.05-13.91v-.14l0-.22,2.63-14.49H162l-3.41,15.18Zm7.1,0h-3.59l.14-13.92v-.2l.07-.27,3.43-14.37h5l-4.32,15.24Zm7.89-13.45-.79,13.45h-3.59l.24-13.94v-.24l.09-.31,4.23-14.27h5.05Z"/><path class="cls-9" d="M102.43,701.32h23.34l-.9-121,0-.44h0l0-2.5H89.2l.28,2.65,4.19,14.12.09.31v.24L94,608.65H92.54ZM121.6,579.89l1,14.72v.16l-.14,13.88h-3.6l-.43-13.71-1.63-15.05Zm-8,0,1.8,14.6,0,.18v.09l-.05,13.89h-3.59L111.21,595l-2.52-15.11Zm-8,0,2.63,14.49,0,.22v.14l0,13.91h-3.6L104,595.07l-3.41-15.18Zm-13,0h5l3.43,14.37.07.27v.2l.14,13.92H97.52l-.7-13.52Z"/><path class="cls-10" d="M145.8,579.89l-.61,5.67,2,9.2v-.09l0-.18,1.8-14.6h4.86L151.37,595l-.53,13.65h-3.43l1.39,91.8h17.66l5.66-91.8h-3.56l.24-13.94v-.24l.09-.31,4.23-14.27h5.05l-5.24,15.31,7.59-20.1H142.9l1,4.79Zm24.27,0-4.32,15.24-.7,13.52h-3.59l.14-13.92v-.2l.07-.27,3.43-14.37ZM154.4,594.74v-.14l0-.22,2.63-14.49H162l-3.41,15.18L158,608.65h-3.6Z"/><polygon class="cls-11" points="156.28 664.26 151.62 680.79 151.86 680.79 163.51 680.79 205.2 680.79 216.84 680.79 513.91 680.79 518.25 664.26 223.91 664.26 215.98 664.26 156.28 664.26"/><polygon class="cls-11" points="218.21 612.23 208.9 639.48 573.85 639.48 581.18 607.25 576.8 607.3 569.52 607.42 236.66 611.99 229.21 612.08 218.21 612.23"/><polygon class="cls-11" points="240.2 536.92 221.36 597.16 585.41 588.62 597.83 533.94 240.2 536.92"/><polygon class="cls-12" points="221.36 597.16 224.88 601.89 231.83 601.72 239.21 601.55 572.01 593.35 579.52 593.18 589.13 592.94 602.49 540.35 597.83 533.94 585.41 588.62 221.36 597.16"/><polygon class="cls-12" points="221.25 643.44 228.97 643.46 562.85 644.61 569.62 644.63 576.18 644.65 584.84 611.6 581.18 607.25 573.85 639.48 208.9 639.48 214.56 643.41 221.25 643.44"/><polygon class="cls-12" points="518.25 664.26 513.91 680.79 513.97 680.79 525.63 680.79 562.85 680.79 574.51 680.79 570.52 664.26 565.87 664.26 559.37 664.26 518.25 664.26"/><polygon class="cls-9" points="151.86 680.79 136.54 742.75 140.37 742.75 163.51 680.79 151.86 680.79"/><polygon class="cls-9" points="205.2 680.79 228.35 742.75 232.16 742.75 216.84 680.79 205.2 680.79"/><polygon class="cls-9" points="221.25 643.44 215.98 664.26 223.91 664.26 228.97 643.46 221.25 643.44"/><polygon class="cls-9" points="231.83 601.72 229.21 612.08 236.66 611.99 236.66 611.96 239.21 601.55 231.83 601.72"/><polygon class="cls-9" points="513.97 680.79 498.65 742.75 502.48 742.75 525.63 680.79 513.97 680.79"/><polygon class="cls-9" points="562.85 644.68 559.37 664.26 565.87 664.26 569.62 644.65 569.62 644.63 562.85 644.61 562.85 644.68"/><polygon class="cls-9" points="562.85 680.79 586 742.75 589.83 742.75 574.51 680.79 562.85 680.79"/><polygon class="cls-9" points="569.52 607.28 569.52 607.42 576.8 607.3 576.8 607.25 579.52 593.18 572.01 593.35 569.52 607.28"/><polygon class="cls-13" points="244.9 619.43 296.21 616.86 347.62 617.68 373.26 618.26 386.1 618.2 398.96 618.46 424.61 619.12 437.4 618.3 450.24 617.54 475.93 617.42 501.56 617.04 552.96 615.58 578.66 618.35 578.53 618.93 578.46 618.92 552.85 617.12 501.64 618.7 450.25 618.24 437.45 618.92 424.63 619.82 398.93 619.56 386.12 619.52 373.27 619.8 347.56 619.57 296.26 618.93 244.96 620.88 215.18 621.12 215.43 620.38 244.9 619.43"/><polygon class="cls-13" points="212.25 629.69 262.94 629.28 279.39 630.23 295.88 629.22 312.37 627.65 328.95 627.21 345.47 626.77 362.09 626.55 395.08 630.69 424.08 639.48 418.22 639.48 394.62 632.72 362.02 628.44 345.53 628.37 328.94 628.31 312.42 628.36 295.95 629.91 279.42 631.35 262.81 630.94 212.06 630.23 212.25 629.69"/><polygon class="cls-13" points="450.12 629.48 453.5 630.98 464.84 639.48 462.09 639.48 452.63 632.76 449.44 631.39 446.06 630.37 442.54 629.06 439.38 626.48 438.87 625.75 439.51 625.17 444.82 623.13 450.07 623.13 460.21 624.55 465.15 625.28 470.18 625.59 480.29 625.92 500.59 626.43 520.84 627.79 561.48 628.29 566.55 628.95 571.53 629.37 576.07 629.74 575.74 631.19 571.44 630.96 566.31 630.6 561.3 630.03 520.82 628.51 500.57 627.25 480.28 627.47 470.11 627.4 465 627.16 459.9 626.49 449.92 625.24 445.04 625.24 442.52 626.11 446.65 628.41 450.12 629.48"/><polygon class="cls-13" points="467.51 535.96 454.67 544.44 440.29 549.84 424.93 551.57 394.91 545.65 387.44 544.22 379.87 543.77 364.68 544.76 349.35 545.29 334.15 544.54 303.59 544.57 295.96 543.85 288.33 542.86 280.78 540.75 274.6 536.64 277.5 536.61 281.48 539.14 288.65 540.94 296.16 541.83 303.72 542.5 334.18 542.65 349.44 543.69 364.6 543.66 379.87 543.07 387.52 543.6 395.05 544.97 425.02 549.91 439.82 548.14 454.05 543.03 465.87 535.04 468.64 535.02 467.51 535.96"/><polygon class="cls-13" points="595.08 546.07 555.74 545.39 542.61 545.66 529.46 544.9 516.42 543.44 503.65 543.51 497.63 545.55 491.75 548.45 479.2 552.57 453.35 557.03 447.01 558.58 440.83 560.71 428 563.55 414.87 562.79 401.85 561.01 376.05 557.39 369.6 557.71 363.14 558.66 350.03 559.96 323.69 559.52 310.65 558.02 297.63 556.67 271.58 553 245.87 548.87 236.32 549.34 236.71 548.09 245.92 547.42 271.97 551.12 297.84 554.6 310.89 555.92 323.89 557.44 349.93 558.07 362.91 556.91 369.43 556.06 376.07 555.85 402.05 559.92 414.97 561.93 427.98 562.85 440.62 560.13 446.82 557.97 453.2 556.35 478.93 551.48 491.16 547.17 496.97 544.15 503.3 541.88 516.62 541.69 529.63 543.14 542.64 544.01 555.72 543.85 595.2 545.54 595.08 546.07"/><polygon class="cls-13" points="568.74 561.95 548.02 560.22 527.54 556.95 507.03 555.28 486.68 558.57 467.03 564.94 457.8 569.57 453.43 572.25 450.85 574.8 469.49 574.35 489.45 575.87 509.42 576.26 519.4 575.92 524.44 575.65 529.56 575.85 549.36 578.85 569.26 578.2 587.66 578.73 587.42 579.75 569.35 579.64 549.24 580.75 529.38 577.91 519.51 578.03 509.45 578.37 489.34 577.78 479.32 577 469.35 575.94 449.55 575.97 448.24 576.2 448.94 575.11 452.83 571.39 457.36 568.76 466.74 564.27 486.51 557.92 496.65 555.66 506.98 554.21 527.77 555.31 548.26 558.45 568.84 560.4 591.43 562.13 591.25 562.93 568.74 561.95"/><polygon class="cls-13" points="245.8 569.92 263.09 571.79 280.3 572.82 297.64 572.89 315.01 573.08 349.73 573.09 384.46 573.42 401.84 573.99 419.17 576.38 436.01 580.84 452.84 584.85 461.23 587.24 469.51 589.74 478.04 590.71 479.57 591.1 475.79 591.19 469.28 590.73 460.86 588.51 452.49 586.38 435.48 582.71 418.74 578.4 401.71 576.08 384.4 575.31 349.72 574.2 280.29 574.49 262.87 573.54 245.68 571.46 229.7 570.51 229.98 569.6 245.8 569.92"/><polygon class="cls-13" points="261.9 586.25 273.86 585.98 285.86 585.65 309.86 585.17 333.88 585.4 357.86 587.53 369.7 589.81 381 593.41 375.7 593.54 369.29 591.7 357.55 589.58 309.85 586.27 285.88 586.34 273.92 587.1 261.92 587.92 237.9 587.15 225.91 586.14 224.87 585.94 225.17 584.98 226.03 585.09 237.97 585.6 261.9 586.25"/><g class="cls-14"><path class="cls-15" d="M631.67,745.84c0,2.58-41.15,4.67-91.92,4.67s-91.92-2.09-91.92-4.67,41.15-4.68,91.92-4.68S631.67,743.25,631.67,745.84Z"/></g><path class="cls-16" d="M551,744.65c3.22-22-4.45-35-13.56-36.64-9.36-1.66-15.68-5.09-18.51-20s-4.57-30-15-28-14.16,15.24-15,30.48S481.5,704,472.57,710c-7,4.66-2,25.69.52,34.66Z"/><g class="cls-17"><path class="cls-18" d="M541.44,727.66c-4.25-3-12.84,3-19.7,2.21s-5.12-22.1-14.7-22.1-8.82,24.38-16.44,24.49-7-10.56-13.17-7c-5.11,2.93-1.79,15.19-.47,19.39h61.71C541,739.06,544.37,729.71,541.44,727.66Z"/></g><path class="cls-19" d="M624.08,744.65c4-27.35-5.54-43.58-16.88-45.59-11.65-2.07-19.5-6.34-23-24.85s-5.7-37.3-18.7-34.86-17.61,19-18.7,37.93-9.21,16.8-20.32,24.23c-8.68,5.81-2.47,32,.66,43.14Z"/><g class="cls-17"><path class="cls-18" d="M611.47,723.51c-5.29-3.69-16,3.69-24.53,2.74s-6.36-27.5-18.28-27.5-11,30.34-20.46,30.48-8.67-13.14-16.4-8.71c-6.36,3.65-2.23,18.9-.58,24.13H608C610.94,737.69,615.11,726.06,611.47,723.51Z"/></g><path class="cls-20" d="M568.22,744.78l-2.26-.25c4.07-36.78-.56-90.86-.61-91.4l2.26-.2C567.66,653.48,572.31,707.77,568.22,744.78Z"/><rect class="cls-20" x="565.33" y="659.34" width="9.39" height="2.27" transform="translate(-298.63 741.61) rotate(-54.54)"/><rect class="cls-20" x="561.17" y="659.04" width="2.27" height="15.11" transform="translate(-307.92 609.61) rotate(-46.1)"/><rect class="cls-20" x="565.59" y="680.48" width="17.19" height="2.27" transform="translate(-316.6 653.59) rotate(-48.09)"/><rect class="cls-20" x="558.86" y="677.92" width="2.27" height="24.61" transform="translate(-324.94 607.14) rotate(-45.58)"/><rect class="cls-20" x="564.72" y="699.12" width="28.88" height="2.27" transform="translate(-323.91 599.01) rotate(-44.01)"/><rect class="cls-20" x="561.24" y="709.74" width="2.27" height="17.17" transform="translate(-344.09 615.49) rotate(-45.47)"/><rect class="cls-20" x="564.54" y="722.71" width="22.92" height="2.27" transform="translate(-345.66 644.72) rotate(-46.58)"/><path class="cls-20" d="M541.33,744.69c-.73-25.84-5.3-33.78-5.35-33.86l1.94-1.18c.2.33,4.92,8.35,5.68,35Z"/><rect class="cls-20" x="538.66" y="727.36" width="12.91" height="2.27" transform="translate(-360.51 816.27) rotate(-58.73)"/><rect class="cls-20" x="533.64" y="725.65" width="2.27" height="15.42" transform="translate(-342.25 967.08) rotate(-68.82)"/><path class="cls-20" d="M602.76,744.69l-2.27-.07c.5-17.27,1.83-28,3.66-29.31l.68.92.83.76C605.57,717.11,603.46,720.32,602.76,744.69Z"/><rect class="cls-20" x="597.86" y="722.07" width="2.27" height="12.87" transform="translate(-291.03 416.46) rotate(-31.25)"/><rect class="cls-20" x="601.76" y="733.05" width="10.85" height="2.27" transform="translate(-224.39 269.24) rotate(-21.2)"/><path class="cls-2" d="M481.14,952.79l-.17-.29-11.16-18.21,5-4.26a30.48,30.48,0,0,0,7.56-9.79,31.07,31.07,0,0,0,1.77-22.76,30.8,30.8,0,0,0-16.19-18.67,30.79,30.79,0,0,0-11.46-2.91c-.57,0-1.15,0-1.72,0a31.51,31.51,0,0,0-9.51,1.47,30.17,30.17,0,0,0-10.76,6l-2.27,1.95c-.49-.56-1-1.11-1.55-1.64a30.1,30.1,0,0,0-21.49-8.77h-6c-4.51,0-11.18.5-16.91,4.8a22.38,22.38,0,0,0-6.27,7.22,53.91,53.91,0,0,0-12.88-7.78,52.33,52.33,0,0,0-20.78-4.24h-26.6c-4.51,0-11.17.5-16.91,4.8a22.19,22.19,0,0,0-8.22,12.11,37.54,37.54,0,0,0-7.24-8.75,28.59,28.59,0,0,0-19.29-7.18h-1.54c-6.42,0-11.69,1.29-16.1,4a25.9,25.9,0,0,0-10,10.85c-.31.64-.58,1.29-.85,1.95-.65-.73-1.32-1.45-2-2.14a53.67,53.67,0,0,0-16.86-11.37,52.33,52.33,0,0,0-20.78-4.24H173.29c-4.52,0-11.18.5-16.92,4.8a22.21,22.21,0,0,0-8.87,15.61,31.85,31.85,0,0,0,.68,10.2,14.59,14.59,0,0,1,.28,1.82V968.6a30.9,30.9,0,0,0,59.33,12.07,51.53,51.53,0,0,0,6.07-1.29c.24.62.48,1.24.76,1.85A30.1,30.1,0,0,0,232,997.32a30.62,30.62,0,0,0,11,2.06h.82a30.27,30.27,0,0,0,11.76-2.7,31.54,31.54,0,0,0,11.81-9.4h1.35a32.75,32.75,0,0,0,2.25,2.62,31.21,31.21,0,0,0,9.56,6.78,30.24,30.24,0,0,0,11.73,2.7h.85a30.62,30.62,0,0,0,11-2.06,33.94,33.94,0,0,0,5.19-2.47A31.32,31.32,0,0,0,344.68,993a29.6,29.6,0,0,0,18.52,6.42h.8a31.05,31.05,0,0,0,21.06-8.87c.24-.23.46-.46.69-.7s.31-.35.46-.52c.35.38.71.76,1.08,1.13a31.12,31.12,0,0,0,43.6.12c.38-.38.76-.77,1.12-1.16a30.35,30.35,0,0,0,4.5,4,30.88,30.88,0,0,0,10.43,5,29.94,29.94,0,0,0,7.67,1,32.85,32.85,0,0,0,4.18-.28,29.65,29.65,0,0,0,11.9-4.37,30.4,30.4,0,0,0,8.9-8.1,29.88,29.88,0,0,0,5.08-11.08,31.7,31.7,0,0,0,.49-11.34A30.89,30.89,0,0,0,481.14,952.79Z"/><path class="cls-21" d="M235.44,928.14a34.3,34.3,0,0,1-2.8,13.86A35.22,35.22,0,0,1,225,953.2a36.67,36.67,0,0,1-11.34,7.56,34.45,34.45,0,0,1-13.79,2.8h-7.42v5a12.61,12.61,0,0,1-3.85,9.38,13.12,13.12,0,0,1-22.46-9.38V906.72a32.32,32.32,0,0,0-.7-5,14.12,14.12,0,0,1-.35-4.55,4.55,4.55,0,0,1,1.89-3.29q1.68-1.26,6.3-1.26h26.59a34.45,34.45,0,0,1,13.79,2.8,35.61,35.61,0,0,1,19,19A34.49,34.49,0,0,1,235.44,928.14Zm-26.6.7a9.86,9.86,0,0,0-2.59-6.72,8.59,8.59,0,0,0-6.37-3.08l-7.42-.28v18.9l7.42-.28a9.77,9.77,0,0,0,6.37-2.45A7.76,7.76,0,0,0,208.84,928.84Z"/><path class="cls-21" d="M305.58,963.84a12.93,12.93,0,0,1-.21,10.15,12.55,12.55,0,0,1-7.49,6.79,13,13,0,0,1-5.11.91,12.63,12.63,0,0,1-4.9-1.12,13.47,13.47,0,0,1-4.13-2.94,13.32,13.32,0,0,1-2.8-4.41l-1.68-3.64h-22.4l-1.68,3.64a13,13,0,0,1-2.8,4.41,13.35,13.35,0,0,1-4.13,2.94,12.58,12.58,0,0,1-4.9,1.12,13,13,0,0,1-5.11-.91,12.61,12.61,0,0,1-7.49-6.79,13,13,0,0,1-.21-10.15l23.52-57.4a12.84,12.84,0,0,0,1-3.78,13.83,13.83,0,0,1,1.26-4.27,8.29,8.29,0,0,1,3.29-3.43q2.31-1.4,6.93-1.4h1.54a11,11,0,0,1,7.56,2.73,20.75,20.75,0,0,1,5,6.93Zm-37.52-22-4.34,10.5h8.68Z"/><path class="cls-21" d="M338.91,963.56v5a12.62,12.62,0,0,1-3.86,9.38,13.13,13.13,0,0,1-22.47-9.38V906.72a31.15,31.15,0,0,0-.69-5,14.12,14.12,0,0,1-.35-4.55,4.52,4.52,0,0,1,1.89-3.29c1.12-.84,3.21-1.26,6.29-1.26h26.6a34.53,34.53,0,0,1,13.8,2.8,35.63,35.63,0,0,1,19,19,34.49,34.49,0,0,1,2.8,13.79,27.73,27.73,0,0,1-1.26,8.26,35.42,35.42,0,0,1-3.43,7.7,34.46,34.46,0,0,1-5,6.58,27.08,27.08,0,0,1-6.09,4.76l6.44,3.64a8.66,8.66,0,0,1,3.22,3.92,12.81,12.81,0,0,1,1,5,14.2,14.2,0,0,1-1.05,5.25,14.53,14.53,0,0,1-2.87,4.62,13.38,13.38,0,0,1-9.24,3.92,12.4,12.4,0,0,1-9.38-3.92Zm16.94-35.14a8.69,8.69,0,0,0-2.87-6.51,9.92,9.92,0,0,0-6.66-2.87l-7.41-.28v18.9l7.41-.28a10.39,10.39,0,0,0,6.66-2.66A8,8,0,0,0,355.85,928.42Z"/><path class="cls-21" d="M446,896.78a12.78,12.78,0,0,1,4.55-2.59,14,14,0,0,1,5-.63,13,13,0,0,1,4.9,1.26,13.14,13.14,0,0,1,6.79,7.84,13.37,13.37,0,0,1-.77,9.87,12.77,12.77,0,0,1-3.22,4.13l-16.38,14,19,31.08a13.05,13.05,0,0,1,1.75,5,14.16,14.16,0,0,1-.21,5,12.16,12.16,0,0,1-2.1,4.55,12.74,12.74,0,0,1-3.92,3.5,11.91,11.91,0,0,1-5,1.89,12.7,12.7,0,0,1-5-.28,13.28,13.28,0,0,1-4.48-2.17,13,13,0,0,1-3.5-3.92L427.1,947.74l-3.64,3.08-1.12.84V968.6a12.61,12.61,0,0,1-3.85,9.38A13.13,13.13,0,0,1,396,968.6V906.72a30.1,30.1,0,0,0-.7-5,14.41,14.41,0,0,1-.35-4.55,4.55,4.55,0,0,1,1.89-3.29q1.68-1.26,6.3-1.26h6a12.53,12.53,0,0,1,9.1,3.71,13.66,13.66,0,0,1,4.06,9.45v11.34Z"/></g></g></svg>