<svg xmlns="http://www.w3.org/2000/svg" viewBox="0 0 682 682"><defs><style>.cls-1{fill:#c3c3c3;}.cls-2{fill:#747473;}</style></defs><g id="Layer_4" data-name="Layer 4"><path class="cls-1" d="M333.83,6.24C210.4,9,63.71,90.52,64.86,183.34A88.48,88.48,0,0,0,66,196.47V298.41c21.15,26.87,73.41,85.49,162.31,115.94,31.66,10.84,132.43,40.18,243.48-7,77.93-33.09,122.67-87.61,141.44-113.62q1.18-48.63,2.36-97.26a86.73,86.73,0,0,0,1.55-16C617.34,87.32,464.27,3.33,333.83,6.24Zm4.85,301.44c-101.31-.39-223.8-58.41-224.92-125.21S233.43,52.09,336.37,50.3c107.3-1.88,232.28,62.62,231.88,129.85C567.84,247,443.46,308.08,338.68,307.68Z"/><path class="cls-1" d="M341,474.63a102,102,0,1,0,102,102A102,102,0,0,0,341,474.63Zm0,85.8a23.19,23.19,0,1,1,23.19-23.19A23.19,23.19,0,0,1,341,560.43Z"/><path class="cls-2" d="M339.25,356.92h-3.13c-123.2-1.28-272.94-79-274.11-173.54C60.81,87.06,209.7,6.16,333.76,3.39c87-2,187.18,35.07,243.25,90,28.18,27.61,43,57.74,43,87.12-.06,28.85-14.57,58.39-42,85.44C523.57,319.77,425.79,356.92,339.25,356.92ZM340.38,9q-3.25,0-6.49.07C213.13,11.78,66.58,92.7,67.71,183.31,68.84,274.78,215.5,350,336.18,351.21,422,352.15,519.9,315.38,574,261.92c26.28-26,40.2-54.11,40.26-81.4h0c.05-27.81-14.22-56.52-41.28-83C519.35,44.88,424.55,9,340.38,9Z"/><path class="cls-2" d="M342,523.33h-2A10.38,10.38,0,0,1,329.6,513V310h22.8V513A10.38,10.38,0,0,1,342,523.33Z"/><path class="cls-2" d="M351.21,650.8c8.4,2.5,9.22,4,11.91,4.26,6.36.68,16.91-5.88,16.89-16,0-8.91-8-16.28-17.66-16a1.16,1.16,0,0,1-1.12-.22,1.05,1.05,0,0,1-.32-.68c-.71-9.08-8.87-16.06-18.27-15.87-9.08.18-16.76,7-17.49,15.77a2,2,0,0,1-.65.67,2,2,0,0,1-.95.32c-9.26,0-16.89,7.22-16.89,16s9.79,16.65,16.89,16c3.6-.34,4.23-2.7,11.95-4.68a27.12,27.12,0,0,1,9.22-1A29.73,29.73,0,0,1,351.21,650.8Z"/><ellipse class="cls-2" cx="304.92" cy="607.5" rx="10.87" ry="12.51" transform="translate(-340.26 393.54) rotate(-45)"/><ellipse class="cls-2" cx="327.86" cy="588.12" rx="10.87" ry="12.51" transform="translate(-167.84 132.43) rotate(-18.27)"/><ellipse class="cls-2" cx="380.15" cy="608.9" rx="12.51" ry="10.87" transform="translate(-296.04 367.97) rotate(-38.41)"/><ellipse class="cls-2" cx="359.58" cy="587.01" rx="12.51" ry="10.87" transform="translate(-324.21 666.52) rotate(-65.14)"/></g></svg>