<svg xmlns="http://www.w3.org/2000/svg" viewBox="0 0 682 682"><defs><style>.cls-1{fill:#ddca1e;}.cls-2{fill:#fcea0d;}.cls-3{fill:#f8f4c2;}</style></defs><g id="Layer_4" data-name="Layer 4"><circle class="cls-1" cx="341" cy="341" r="341"/><circle class="cls-2" cx="341" cy="341" r="281.36"/><path class="cls-3" d="M374.74,480.51c38.16,11.37,41.9,18,54.12,19.35,28.9,3.12,76.82-26.71,76.76-72.59-.06-40.48-36.56-74-80.27-72.55a5.33,5.33,0,0,1-5.07-1,4.63,4.63,0,0,1-1.45-3.09c-3.23-41.23-40.31-73-83-72.11-41.25.84-76.12,31.86-79.47,71.65a9,9,0,0,1-2.94,3.06,9.74,9.74,0,0,1-4.29,1.47c-42.11,0-76.76,32.77-76.76,72.59,0,39.13,44.5,75.64,76.76,72.59,16.32-1.54,19.19-12.28,54.27-21.26,19.88-5.09,32.82-5.19,41.88-4.46C352.11,474.69,359.28,475.91,374.74,480.51Z"/><ellipse class="cls-3" cx="164.44" cy="283.78" rx="49.41" ry="56.83" transform="translate(-152.5 199.39) rotate(-45)"/><ellipse class="cls-3" cx="268.68" cy="195.73" rx="49.41" ry="56.83" transform="translate(-47.81 94.09) rotate(-18.27)"/><ellipse class="cls-3" cx="506.23" cy="290.14" rx="56.83" ry="49.41" transform="translate(-70.7 377.32) rotate(-38.41)"/><ellipse class="cls-3" cx="412.77" cy="190.71" rx="56.83" ry="49.41" transform="translate(66.22 485.07) rotate(-65.14)"/><path class="cls-1" d="M315.52,510.69c-68.11-6.36-90-43.14-90-68.11,0-7.72,26.55-15.44,45-13.17,46.18,5.45,2.31,45.41,60,58.57h6.93c64.65,0,83.12-35,83.12-53.57,0-25-4.62-51.76-31.17-75.37-54.26-49-170.86-89.9-170.86-146.21,0-20.88,26.55-53.57,82-64-4.62-15.43-8.08-31.32-8.08-46.76,0-2.73,8.08-4.09,25.39-4.09,8.09,0,36.95.91,36.95,3.63v44c50.79,3.17,117.75,18.16,117.75,39,0,8.63-6.93,13.63-30,13.63-45,0-31.17-27.25-94.66-27.25-58.88,0-63.5,32.24-63.5,48.13,0,45.86,98.13,78.1,150.08,116.24,47.34,35,71.58,85.81,43.87,120.32-15,19.07-50.79,43.13-100.43,52.21v49c0,1.81-10.39,5-24.25,5-11.54,0-16.16-.45-25.4-2.27A247.61,247.61,0,0,1,315.52,510.69Z"/></g></svg>