<svg xmlns="http://www.w3.org/2000/svg" viewBox="0 0 682 682"><defs><style>.cls-1{isolation:isolate;}.cls-2{fill:#f1e5d9;}.cls-3{fill:#63b7d2;}.cls-4{fill:#a2d659;}.cls-5{fill:#011c26;opacity:0.1;mix-blend-mode:multiply;}.cls-6{fill:#f06060;}</style></defs><g class="cls-1"><g id="Layer_4" data-name="Layer 4"><circle class="cls-2" cx="341" cy="362.25" r="319.5"/><path class="cls-2" d="M444.33,616.25a13.61,13.61,0,0,1-7.84-2.56L340.34,571.5l-96.15,42.19a13.61,13.61,0,0,1-7.84,2.56h-.72a13.61,13.61,0,0,1-7.84-2.56L126.21,569.12c-6.42-2.82-10.71-10.38-10.71-18.87v-530c0-6.49,2.52-12.57,6.76-16.32A13.92,13.92,0,0,1,131.52.25a13.17,13.17,0,0,1,5.31,1.13L236,44.89,333.42,2.14a13.43,13.43,0,0,1,6.8-1.89h.24a13.43,13.43,0,0,1,6.8,1.89l97.43,42.75L543.85,1.38A13.17,13.17,0,0,1,549.16.25h.32a13.92,13.92,0,0,1,9.26,3.68c4.24,3.75,6.76,9.83,6.76,16.32v530c0,8.49-4.29,16-10.71,18.87l-102.52,45a13.47,13.47,0,0,1-7.22,2.15h-.72Z"/><polygon class="cls-3" points="236.35 596.25 131.52 550.25 131.52 20.25 236.35 66.25 236.35 596.25"/><polygon class="cls-3" points="235.63 596.25 340.46 550.25 340.46 20.25 235.63 66.25 235.63 596.25"/><polygon class="cls-3" points="445.05 596.25 340.22 550.25 340.22 20.25 445.05 66.25 445.05 596.25"/><polygon class="cls-3" points="444.33 596.25 549.16 550.25 549.16 20.25 444.33 66.25 444.33 596.25"/><path class="cls-4" d="M340.46,20.36v-.11l-.12.05-.12-.05v.11L236,66.09,134.41,21.52c-3.64,3.21-3,4.33-2.15,20,1,19.25,2.69,38,2.2,57.39-.18,7.21-.5,14.71,1.74,21.36,1.71,5.06,4.75,9.19,7.21,13.74,8.84,16.39,9.75,37.33,9.76,57.09s-.45,40.35,6.29,58.23,23.38,31.77,38.29,25.17A279.16,279.16,0,0,0,200.21,339c4.06,26.1,11.81,51,19.51,75.84,3.78,12.17,7.84,24.84,15.68,33.46S256.12,460,264,451.44c6.77-7.32,7.59-19.85,7.92-31q1-35.87,2.09-71.72c.14-5.11.4-10.62,3-14.61,6.45-10.07,19.41-1.87,26.53,7.46,15.16,19.87,27,43.73,34.39,69.56,1.48,5.12,3.29,11,7.42,12.71,2.24.94,4.71.38,7-.51,21-8.34,28.12-41.27,27.35-68.81s-5.73-56.77,4-81.5c1.53-3.89,3.58-7.77,6.76-9.5s7-.94,10.53-.05l51.34,12.93c3.13.78,6.48,1.73,8.6,4.7s2.51,7.51,2.59,11.62c.68,35.75-8.23,73.7,4,106,7.75,20.43,23.84,40,18.37,61.59-2.07,8.17-7.2,15.31-7.12,23.88.11,11.25,8.87,18.9,16.65,24.56,9.36,6.81,19,13.74,29.66,15.92,8.28,1.69,17.41-.1,24.1-6V20.25L444.69,66.09Z"/><polygon class="cls-5" points="235.63 596.25 340.46 550.25 340.46 20.25 235.63 66.25 235.63 596.25"/><polygon class="cls-5" points="444.65 596.25 549.48 550.25 549.48 20.25 444.65 66.25 444.65 596.25"/><path class="cls-6" d="M400.57,136.64c-5.81-34.88-34.57-46.8-58-47.1v0h-.93v0c-23.4.3-52.15,12.22-58,47.1-5.89,35.33,17.67,58.89,29.44,76.55,10.17,15.26,24.73,61.25,28.52,73.52v3l.46-1.53c.31,1,.47,1.53.47,1.53v-3c3.79-12.27,18.34-58.26,28.52-73.52C382.9,195.53,406.46,172,400.57,136.64Zm-58.43,47.11a35.34,35.34,0,1,1,35.34-35.34A35.33,35.33,0,0,1,342.14,183.75Z"/></g></g></svg>