<svg xmlns="http://www.w3.org/2000/svg" viewBox="0 0 682 682"><defs><style>.cls-1{fill:#f1e5d9;}.cls-2{fill:#63b7d2;}</style></defs><g id="Layer_4" data-name="Layer 4"><path class="cls-1" d="M547.36,118.36a174.75,174.75,0,0,0-43.43-56.45q-30.84-26.73-76.58-41.64T321,5.36q-45.24,0-82.75,6.17t-64.77,19q-27.24,12.86-42.66,32.89t-15.42,46.77A95.79,95.79,0,0,0,118,133.44,318.51,318.51,0,0,0,21.5,362.25c0,145.62,97.43,268.48,230.66,307a106,106,0,0,0,27.06,6.54,320.76,320.76,0,0,0,61.78,6c176.46,0,319.5-143,319.5-319.5A318.76,318.76,0,0,0,547.36,118.36Z"/><path class="cls-2" d="M236.93,437.34q-16.47-10.65-31-32.43t-14.52-52.77q0-30,16-45t46.95-22.75L329.87,266q25.15-7.73,36.77-18.86t11.62-33.41q0-18.37-17.9-34.35t-61.48-16a277.58,277.58,0,0,0-74.54,9.68q-34.86,9.66-56.15,24.19a120.33,120.33,0,0,1-28.08-30.49q-11.61-17.9-11.61-43.08t14.52-44q14.53-18.88,40.17-31t61-17.92q35.32-5.81,77.92-5.81,57.13,0,100.21,14t72.12,39.22a164.66,164.66,0,0,1,44.05,60q15,34.84,15,75.51,0,84.24-55.19,133.13T334.71,418ZM205,566.09q0-40.67,24.67-65.82t68.26-25.18q43.54,0,68.25,25.18t24.69,65.82q0,40.65-24.69,65.83t-68.25,25.16q-43.56,0-68.26-25.16T205,566.09Z"/></g></svg>