<svg xmlns="http://www.w3.org/2000/svg" width="6.667" height="6.667" viewBox="0 0 6.667 6.667">
  <path id="Icon_awesome-info-circle" data-name="Icon awesome-info-circle" d="M3.9.563A3.333,3.333,0,1,0,7.229,3.9,3.334,3.334,0,0,0,3.9.563Zm0,1.478a.565.565,0,1,1-.565.565A.565.565,0,0,1,3.9,2.041Zm.753,3.414a.161.161,0,0,1-.161.161H3.3a.161.161,0,0,1-.161-.161V5.132A.161.161,0,0,1,3.3,4.971h.161v-.86H3.3a.161.161,0,0,1-.161-.161V3.627A.161.161,0,0,1,3.3,3.466h.86a.161.161,0,0,1,.161.161V4.971h.161a.161.161,0,0,1,.161.161Z" transform="translate(-0.563 -0.563)" fill="#edc178"/>
</svg>
