<svg xmlns="http://www.w3.org/2000/svg" width="31.758" height="31.758" viewBox="0 0 31.758 31.758">
  <path id="Icon_awesome-info-circle" data-name="Icon awesome-info-circle" d="M16.441.563A15.879,15.879,0,1,0,32.32,16.441,15.881,15.881,0,0,0,16.441.563Zm0,7.043a2.689,2.689,0,1,1-2.689,2.689A2.689,2.689,0,0,1,16.441,7.606Zm3.586,16.263a.768.768,0,0,1-.768.768H13.624a.768.768,0,0,1-.768-.768V22.332a.768.768,0,0,1,.768-.768h.768v-4.1h-.768a.768.768,0,0,1-.768-.768V15.161a.768.768,0,0,1,.768-.768h4.1a.768.768,0,0,1,.768.768v6.4h.768a.768.768,0,0,1,.768.768Z" transform="translate(-0.563 -0.563)" fill="#f6c88d" opacity="0.3"/>
</svg>
