<svg xmlns="http://www.w3.org/2000/svg" viewBox="0 0 682 682"><defs><style>.cls-1{isolation:isolate;}.cls-2{fill:#c9b520;}.cls-3{fill:#ddca1e;}.cls-4{fill:#b29d22;}.cls-5{fill:#eadddd;mix-blend-mode:multiply;}.cls-6{fill:#fcea0d;}.cls-7{fill:#f8f4c2;}</style></defs><g class="cls-1"><g id="Layer_4" data-name="Layer 4"><path class="cls-2" d="M433.3,353.31v68c0,6.47-3.33,12.7-9.51,18.58a65.89,65.89,0,0,1-6.06,5,104,104,0,0,1-15.56,9.09c-1.93.89-3.94,1.84-6.05,2.73a207.24,207.24,0,0,1-24.65,8.67c-2,.59-4,1.18-6,1.77-10,2.67-20.81,5.11-32.42,7.19L327,475.35c-9.51,1.55-19.46,3-29.83,4.1-2,.18-4,.42-6,.6-6.92.71-14,1.24-21.2,1.72-2,.18-4,.29-6.05.41-9,.48-18.25.77-27.66.95-2,0-4,.06-6.05.06h-4.33q-13.17,0-25.93-.47c-2-.06-4-.18-6.05-.24-8.67-.42-17.18-1-25.48-1.72l-6.09-.54c-5.74-.53-11.34-1.18-16.83-1.84-2-.29-4-.53-6.06-.83-7-.95-13.79-2-20.33-3.21-2-.35-4-.7-6-1.13-5.71-1.06-11.17-2.25-16.47-3.55-2-.48-4-1-6-1.48-6.56-1.67-12.76-3.45-18.6-5.41-2.08-.65-4.08-1.36-6-2.08a157.59,157.59,0,0,1-16.84-7c-2.14-1-4.15-2.08-6.08-3.15a79.27,79.27,0,0,1-12.94-8.72A45.15,45.15,0,0,1,24,435.64c-3.67-4.63-5.61-9.44-5.61-14.36v-68Z"/><path class="cls-3" d="M433.3,353.34c0,30.29-92.89,54.85-207.47,54.85S18.37,383.63,18.37,353.34s92.88-54.86,207.46-54.86S433.3,323,433.3,353.34Z"/><path class="cls-3" d="M396.12,346c0,20.83-76.24,37.72-170.29,37.72S55.55,366.87,55.55,346s76.23-37.73,170.28-37.73S396.12,325.2,396.12,346Z"/><path class="cls-4" d="M60.74,355.32c18.67-16.36,85.5-28.46,165.09-28.46s146.43,12.1,165.1,28.46c3.38-3,5.19-6.08,5.19-9.28,0-20.84-76.24-37.73-170.29-37.73S55.55,325.2,55.55,346C55.55,349.24,57.36,352.35,60.74,355.32Z"/><path class="cls-4" d="M30.06,383.76v58.06A45.15,45.15,0,0,1,24,435.64V383.76Z"/><path class="cls-4" d="M49.08,400.8v52.89c-2.14-1-4.15-2.08-6.08-3.15V400.8Z"/><path class="cls-4" d="M72,411.25v51.52c-2.08-.65-4.08-1.36-6-2.08V411.25Z"/><path class="cls-4" d="M96.58,418.25v51.41c-2-.48-4-1-6-1.48V418.25Z"/><path class="cls-4" d="M119.06,425v49.38c-2-.35-4-.7-6-1.13V425Z"/><path class="cls-4" d="M145.45,429.41v49c-2-.29-4-.53-6.06-.83V429.41Z"/><path class="cls-4" d="M168.37,429.41v51.35l-6.09-.54V429.41Z"/><path class="cls-4" d="M199.9,429.41v53.31c-2-.06-4-.18-6.05-.24V429.41Z"/><path class="cls-4" d="M236.21,425v58.17c-2,0-4,.06-6.05.06V425Z"/><path class="cls-4" d="M269.92,418.25v63.52c-2,.18-4,.29-6.05.41V418.25Z"/><path class="cls-4" d="M297.14,418.25v61.2c-2,.18-4,.42-6,.6v-61.8Z"/><path class="cls-4" d="M333,411.25v63L327,475.35v-64.1Z"/><path class="cls-4" d="M371.47,404.54v60.79c-2,.59-4,1.18-6,1.77V404.54Z"/><path class="cls-4" d="M402.17,388.22v65.71c-1.93.89-3.94,1.84-6.05,2.73V388.22Z"/><path class="cls-4" d="M423.79,377.05v62.81a65.89,65.89,0,0,1-6.06,5V377.05Z"/><path class="cls-5" d="M423.79,409.82a65.92,65.92,0,0,1-6.06,5,104,104,0,0,1-15.56,9.08c-1.93.89-3.94,1.84-6.05,2.73a205.48,205.48,0,0,1-24.65,8.67l-6,1.78c-10,2.67-20.81,5.1-32.42,7.18-2,.36-4,.71-6.06,1.07-9.51,1.54-19.46,3-29.83,4.1-2,.17-4,.41-6,.59-6.92.71-14,1.25-21.2,1.72-2,.18-4,.3-6.05.42-9,.47-18.25.77-27.66,1-2,0-4,.06-6.05.06h-4.33c-8.78,0-17.42-.18-25.93-.48-2-.06-4-.18-6.05-.24-8.67-.41-17.18-1-25.48-1.72l-6.09-.53c-5.74-.54-11.34-1.19-16.83-1.84-2-.3-4-.54-6.06-.84-7-.94-13.79-2-20.33-3.2-2-.35-4-.71-6-1.13-5.71-1.06-11.17-2.25-16.47-3.56-2-.47-4-.95-6-1.48-6.56-1.67-12.76-3.45-18.6-5.4-2.08-.66-4.08-1.37-6-2.08a157.56,157.56,0,0,1-16.84-7c-2.14-1-4.15-2.07-6.08-3.14a79.29,79.29,0,0,1-12.94-8.73A45.1,45.1,0,0,1,24,405.61c-3.67-4.63-5.61-9.44-5.61-14.37v30c0,4.92,1.94,9.73,5.61,14.36a45.15,45.15,0,0,0,6.08,6.18A79.27,79.27,0,0,0,43,450.54c1.93,1.07,3.94,2.14,6.08,3.15a157.59,157.59,0,0,0,16.84,7c2,.72,4,1.43,6,2.08,5.84,2,12,3.74,18.6,5.41,2,.53,4,1,6,1.48,5.3,1.3,10.76,2.49,16.47,3.55,2,.43,4,.78,6,1.13,6.54,1.2,13.35,2.26,20.33,3.21,2,.3,4,.54,6.06.83,5.49.66,11.09,1.31,16.83,1.84l6.09.54c8.3.71,16.81,1.3,25.48,1.72,2,.06,4,.18,6.05.24q12.76.45,25.93.47h4.33c2,0,4-.06,6.05-.06,9.41-.18,18.64-.47,27.66-.95,2-.12,4.05-.23,6.05-.41,7.22-.48,14.28-1,21.2-1.72,2-.18,4-.42,6-.6,10.37-1.12,20.32-2.55,29.83-4.1l6.06-1.06c11.61-2.08,22.43-4.52,32.42-7.19,2.05-.59,4.05-1.18,6-1.77a207.24,207.24,0,0,0,24.65-8.67c2.11-.89,4.12-1.84,6.05-2.73a104,104,0,0,0,15.56-9.09,65.89,65.89,0,0,0,6.06-5c6.18-5.88,9.51-12.11,9.51-18.58v-30C433.3,397.71,430,403.94,423.79,409.82Z"/><path class="cls-2" d="M415.42,270.78v68c0,6.47-3.31,12.7-9.51,18.58a65.73,65.73,0,0,1-6.05,5,105.93,105.93,0,0,1-15.56,9.08c-1.93.89-3.94,1.84-6.05,2.73a209,209,0,0,1-24.65,8.67l-6,1.78c-10,2.67-20.81,5.1-32.42,7.18-2,.36-4,.71-6.06,1.07-9.51,1.54-19.46,3-29.84,4.09-2,.18-4,.42-6,.6-6.91.71-14,1.24-21.19,1.72-2,.17-4,.3-6.05.42-9,.47-18.26.77-27.67.94-2,0-4,.07-6.05.07H208c-8.78,0-17.42-.18-25.93-.48-2-.06-4-.18-6.05-.24-8.68-.41-17.18-1-25.48-1.72l-6.09-.53c-5.74-.54-11.34-1.19-16.84-1.85-2-.29-4-.53-6-.83-7-.94-13.79-2-20.32-3.21-2-.35-4-.7-6-1.12-5.7-1.06-11.16-2.25-16.45-3.56-2-.48-4-.95-6-1.48-6.57-1.67-12.76-3.45-18.61-5.41-2.07-.65-4.07-1.36-6-2.08a155.55,155.55,0,0,1-16.84-7c-2.15-1-4.15-2.07-6.09-3.14a78.54,78.54,0,0,1-12.93-8.73,45.09,45.09,0,0,1-6.08-6.17C2.44,348.48.5,343.68.5,338.75v-68Z"/><path class="cls-3" d="M415.42,270.81c0,30.29-92.89,54.85-207.46,54.85S.5,301.1.5,270.81,93.39,216,208,216,415.42,240.51,415.42,270.81Z"/><path class="cls-3" d="M378.25,263.51c0,20.83-76.24,37.72-170.29,37.72S37.67,284.34,37.67,263.51,113.91,225.78,208,225.78,378.25,242.67,378.25,263.51Z"/><path class="cls-4" d="M42.87,272.79c18.66-16.36,85.49-28.46,165.09-28.46s146.43,12.1,165.09,28.46c3.39-3,5.2-6.08,5.2-9.28,0-20.84-76.24-37.73-170.29-37.73S37.67,242.67,37.67,263.51C37.67,266.71,39.48,269.82,42.87,272.79Z"/><path class="cls-4" d="M12.19,301.23v58.06a45.09,45.09,0,0,1-6.08-6.17V301.23Z"/><path class="cls-4" d="M31.21,318.27v52.89c-2.15-1-4.15-2.07-6.09-3.14V318.27Z"/><path class="cls-4" d="M54.09,328.72v51.52c-2.07-.65-4.07-1.36-6-2.08V328.72Z"/><path class="cls-4" d="M78.72,335.72v51.41c-2-.48-4-.95-6-1.48V335.72Z"/><path class="cls-4" d="M101.2,342.43v49.38c-2-.35-4-.7-6-1.12V342.43Z"/><path class="cls-4" d="M127.57,346.88v49c-2-.29-4-.53-6-.83V346.88Z"/><path class="cls-4" d="M150.5,346.88v51.35l-6.09-.53V346.88Z"/><path class="cls-4" d="M182,346.88v53.31c-2-.06-4-.18-6.05-.24V346.88Z"/><path class="cls-4" d="M218.33,342.43V400.6c-2,0-4,.07-6.05.07V342.43Z"/><path class="cls-4" d="M252.05,335.72v63.52c-2,.17-4,.3-6.05.42V335.72Z"/><path class="cls-4" d="M279.26,335.72v61.2c-2,.18-4,.42-6,.6v-61.8Z"/><path class="cls-4" d="M315.16,328.72v63c-2,.36-4,.71-6.06,1.07V328.72Z"/><path class="cls-4" d="M353.6,322V382.8l-6,1.78V322Z"/><path class="cls-4" d="M384.3,305.68V371.4c-1.93.89-3.94,1.84-6.05,2.73V305.68Z"/><path class="cls-4" d="M405.91,294.53v62.8a65.73,65.73,0,0,1-6.05,5V294.53Z"/><path class="cls-5" d="M405.91,327.29a65.73,65.73,0,0,1-6.05,5,105,105,0,0,1-15.56,9.08c-1.93.9-3.94,1.84-6.05,2.73a205.48,205.48,0,0,1-24.65,8.67c-2,.59-4,1.19-6,1.78-10,2.67-20.81,5.1-32.42,7.18-2,.36-4,.71-6.06,1.07-9.51,1.54-19.46,3-29.84,4.1-2,.18-4,.41-6,.59-6.91.71-14,1.25-21.19,1.72-2,.18-4,.3-6.05.42-9,.47-18.26.77-27.67.95-2,0-4,.06-6.05.06H208c-8.78,0-17.42-.18-25.93-.48-2-.06-4-.18-6.05-.24-8.68-.41-17.18-1-25.48-1.72l-6.09-.53c-5.74-.54-11.34-1.19-16.84-1.84-2-.3-4-.54-6-.83-7-.95-13.79-2-20.32-3.21-2-.35-4-.71-6-1.13-5.7-1.06-11.16-2.25-16.45-3.56-2-.47-4-.95-6-1.48-6.57-1.66-12.76-3.44-18.61-5.4-2.07-.65-4.07-1.37-6-2.08a157.56,157.56,0,0,1-16.84-7c-2.15-1-4.15-2.07-6.09-3.14a78.54,78.54,0,0,1-12.93-8.73,44.53,44.53,0,0,1-6.08-6.17C2.44,318.45.5,313.64.5,308.71v30c0,4.93,1.94,9.73,5.61,14.37a45.09,45.09,0,0,0,6.08,6.17A78.54,78.54,0,0,0,25.12,368c1.94,1.07,3.94,2.13,6.09,3.14a155.55,155.55,0,0,0,16.84,7c2,.72,4,1.43,6,2.08,5.85,2,12,3.74,18.61,5.41,2,.53,4,1,6,1.48,5.29,1.31,10.75,2.5,16.45,3.56,2,.42,4,.77,6,1.12,6.53,1.2,13.34,2.27,20.32,3.21,2,.3,4,.54,6,.83,5.5.66,11.1,1.31,16.84,1.85l6.09.53c8.3.71,16.8,1.31,25.48,1.72,2,.06,4,.18,6.05.24,8.51.3,17.15.48,25.93.48h4.32c2,0,4.05-.07,6.05-.07,9.41-.17,18.65-.47,27.67-.94,2-.12,4-.25,6.05-.42,7.22-.48,14.28-1,21.19-1.72,2-.18,4-.42,6-.6,10.38-1.12,20.33-2.55,29.84-4.09,2-.36,4.08-.71,6.06-1.07,11.61-2.08,22.44-4.51,32.42-7.18l6-1.78a209,209,0,0,0,24.65-8.67c2.11-.89,4.12-1.84,6.05-2.73a105.93,105.93,0,0,0,15.56-9.08,65.73,65.73,0,0,0,6.05-5c6.2-5.88,9.51-12.11,9.51-18.58v-30C415.42,315.19,412.11,321.42,405.91,327.29Z"/><path class="cls-2" d="M433.3,184.13v68c0,6.47-3.33,12.7-9.51,18.58a67.59,67.59,0,0,1-6.06,5,104.89,104.89,0,0,1-15.56,9.08c-1.93.89-3.94,1.84-6.05,2.73a207.24,207.24,0,0,1-24.65,8.67l-6,1.78c-10,2.67-20.81,5.1-32.42,7.18-2,.36-4,.71-6.06,1.07-9.51,1.54-19.46,3-29.83,4.09-2,.18-4,.42-6,.6-6.92.71-14,1.24-21.2,1.72-2,.18-4,.3-6.05.42-9,.47-18.25.76-27.66.95-2,0-4,.05-6.05.05h-4.33q-13.17,0-25.93-.47c-2-.06-4-.18-6.05-.24-8.67-.41-17.18-1-25.48-1.72l-6.09-.54c-5.74-.53-11.34-1.18-16.83-1.84-2-.29-4-.53-6.06-.83-7-.95-13.79-2-20.33-3.2-2-.35-4-.71-6-1.13-5.71-1.06-11.17-2.25-16.47-3.56-2-.48-4-1-6-1.48-6.56-1.67-12.76-3.45-18.6-5.4-2.08-.66-4.08-1.37-6-2.08a157.56,157.56,0,0,1-16.84-7c-2.14-1-4.15-2.07-6.08-3.15a78.64,78.64,0,0,1-12.94-8.72A45.67,45.67,0,0,1,24,266.47c-3.67-4.64-5.61-9.44-5.61-14.37v-68Z"/><ellipse class="cls-3" cx="225.83" cy="184.16" rx="207.46" ry="54.85"/><path class="cls-3" d="M396.12,176.86c0,20.83-76.24,37.72-170.29,37.72S55.55,197.69,55.55,176.86s76.23-37.73,170.28-37.73S396.12,156,396.12,176.86Z"/><path class="cls-4" d="M60.74,186.14c18.67-16.36,85.5-28.46,165.09-28.46s146.43,12.1,165.1,28.46c3.38-3,5.19-6.08,5.19-9.28,0-20.84-76.24-37.73-170.29-37.73S55.55,156,55.55,176.86C55.55,180.06,57.36,183.17,60.74,186.14Z"/><path class="cls-4" d="M30.06,214.58v58.06A45.67,45.67,0,0,1,24,266.47V214.58Z"/><path class="cls-4" d="M49.08,231.62v52.89c-2.14-1-4.15-2.07-6.08-3.15V231.62Z"/><path class="cls-4" d="M72,242.07V293.6c-2.08-.66-4.08-1.37-6-2.08V242.07Z"/><path class="cls-4" d="M96.58,249.07v51.41c-2-.48-4-1-6-1.48V249.07Z"/><path class="cls-4" d="M119.06,255.78v49.39c-2-.35-4-.71-6-1.13V255.78Z"/><path class="cls-4" d="M145.45,260.23v49c-2-.29-4-.53-6.06-.83V260.23Z"/><path class="cls-4" d="M168.37,260.23v51.35l-6.09-.54V260.23Z"/><path class="cls-4" d="M199.9,260.23v53.31c-2-.06-4-.18-6.05-.24V260.23Z"/><path class="cls-4" d="M236.21,255.78V314c-2,0-4,.05-6.05.05V255.78Z"/><path class="cls-4" d="M269.92,249.07v63.52c-2,.18-4,.3-6.05.42V249.07Z"/><path class="cls-4" d="M297.14,249.07v61.2c-2,.18-4,.42-6,.6v-61.8Z"/><path class="cls-4" d="M333,242.07v63c-2,.36-4,.71-6.06,1.07V242.07Z"/><path class="cls-4" d="M371.47,235.36v60.79l-6,1.78V235.36Z"/><path class="cls-4" d="M402.17,219v65.71c-1.93.89-3.94,1.84-6.05,2.73V219Z"/><path class="cls-4" d="M423.79,207.88v62.8a67.59,67.59,0,0,1-6.06,5V207.88Z"/><path class="cls-5" d="M423.79,240.65a67.56,67.56,0,0,1-6.06,5,103.17,103.17,0,0,1-15.56,9.08c-1.93.89-3.94,1.84-6.05,2.73a205.48,205.48,0,0,1-24.65,8.67l-6,1.78c-10,2.67-20.81,5.11-32.42,7.19L327,276.14c-9.51,1.54-19.46,3-29.83,4.1-2,.17-4,.41-6,.59-6.92.71-14,1.25-21.2,1.72-2,.18-4,.3-6.05.42-9,.47-18.25.77-27.66.95-2,0-4,.06-6.05.06h-4.33c-8.78,0-17.42-.18-25.93-.48-2-.06-4-.18-6.05-.24-8.67-.41-17.18-1-25.48-1.72l-6.09-.53c-5.74-.54-11.34-1.19-16.83-1.84-2-.3-4-.54-6.06-.84-7-.94-13.79-2-20.33-3.2-2-.35-4-.71-6-1.13-5.71-1.06-11.17-2.25-16.47-3.56-2-.47-4-.95-6-1.48-6.56-1.67-12.76-3.44-18.6-5.4-2.08-.66-4.08-1.37-6-2.08a157.56,157.56,0,0,1-16.84-7c-2.14-1-4.15-2.07-6.08-3.14a78.65,78.65,0,0,1-12.94-8.73A45.1,45.1,0,0,1,24,236.43c-3.67-4.63-5.61-9.44-5.61-14.37v30c0,4.93,1.94,9.73,5.61,14.37a45.67,45.67,0,0,0,6.08,6.17A78.64,78.64,0,0,0,43,281.36c1.93,1.08,3.94,2.14,6.08,3.15a157.56,157.56,0,0,0,16.84,7c2,.71,4,1.42,6,2.08,5.84,1.95,12,3.73,18.6,5.4,2,.53,4,1,6,1.48,5.3,1.31,10.76,2.5,16.47,3.56,2,.42,4,.78,6,1.13,6.54,1.19,13.35,2.25,20.33,3.2,2,.3,4,.54,6.06.83,5.49.66,11.09,1.31,16.83,1.84l6.09.54c8.3.71,16.81,1.31,25.48,1.72,2,.06,4,.18,6.05.24q12.76.45,25.93.47h4.33c2,0,4-.05,6.05-.05,9.41-.19,18.64-.48,27.66-.95,2-.12,4.05-.24,6.05-.42,7.22-.48,14.28-1,21.2-1.72,2-.18,4-.42,6-.6,10.37-1.12,20.32-2.55,29.83-4.09,2-.36,4.08-.71,6.06-1.07,11.61-2.08,22.43-4.51,32.42-7.18l6-1.78a207.24,207.24,0,0,0,24.65-8.67c2.11-.89,4.12-1.84,6.05-2.73a104.89,104.89,0,0,0,15.56-9.08,67.59,67.59,0,0,0,6.06-5c6.18-5.88,9.51-12.11,9.51-18.58v-30C433.3,228.53,430,234.77,423.79,240.65Z"/><path class="cls-2" d="M455.63,101.6v68c0,6.47-3.31,12.7-9.5,18.58a70.33,70.33,0,0,1-6.05,5,106.07,106.07,0,0,1-15.57,9.08c-1.93.89-3.94,1.84-6.05,2.73a207.24,207.24,0,0,1-24.65,8.67c-2,.59-4,1.19-6,1.78-10,2.67-20.81,5.1-32.42,7.18-2,.36-4,.72-6.06,1.07-9.5,1.54-19.46,3-29.83,4.1-2,.18-4,.41-6,.59-6.92.71-14,1.25-21.21,1.72-2,.18-4,.3-6,.42-9,.47-18.25.77-27.66,1-2,0-4,0-6.05,0h-4.32q-13.19,0-25.94-.47c-2-.06-4-.18-6.05-.24-8.68-.41-17.18-1-25.48-1.72l-6.09-.53c-5.74-.54-11.34-1.19-16.83-1.84-2-.3-4-.54-6.06-.83-7-.95-13.79-2-20.33-3.21-2-.35-4-.71-6-1.13-5.71-1.07-11.18-2.25-16.47-3.56-2-.47-4-.95-6-1.49q-9.87-2.47-18.61-5.39c-2.08-.66-4.08-1.37-6-2.08a159,159,0,0,1-16.85-7c-2.15-1-4.15-2.07-6.08-3.14a78.23,78.23,0,0,1-12.94-8.73,45.67,45.67,0,0,1-6.08-6.17c-3.66-4.63-5.61-9.44-5.61-14.37v-68Z"/><path class="cls-3" d="M455.63,101.63c0,30.29-92.87,54.85-207.45,54.85S40.71,131.92,40.71,101.63,133.6,46.78,248.18,46.78,455.63,71.34,455.63,101.63Z"/><path class="cls-6" d="M418.46,94.33c0,20.83-76.23,37.73-170.28,37.73S77.89,115.16,77.89,94.33,154.12,56.6,248.18,56.6,418.46,73.49,418.46,94.33Z"/><path class="cls-7" d="M174,115.68c-2.65,5.07-5.67,5.68-5.36,7.26.72,3.72,19.3,9.2,42.09,8.27,20.11-.81,33.87-6.11,29.74-11.63-.41-.22-.37-.47.11-.66a5.71,5.71,0,0,1,1.42-.25c20.23-1.23,33.1-6.57,29.31-12-3.65-5.21-21.8-9-41.83-8.64a10.5,10.5,0,0,1-1.75-.31,2.36,2.36,0,0,1-1.07-.52c-3.3-5.34-22.3-9.07-42.09-8.28-19.44.79-34.09,7.16-30,11.19,2,2,7.61,2.19,14.82,6.46,4.09,2.42,5.15,4.06,5.5,5.22C175.11,112.7,175.07,113.63,174,115.68Z"/><ellipse class="cls-7" cx="255.23" cy="85.08" rx="26.22" ry="6.91" transform="translate(-3.04 9.73) rotate(-2.17)"/><ellipse class="cls-7" cx="307.16" cy="96.53" rx="27.85" ry="6.51" transform="translate(-2.61 8.72) rotate(-1.62)"/><path class="cls-7" d="M292,129.93c4.65,0,9.26-.22,13.87-.46,0-2-3.47-4-10.1-5.59-11.62-2.73-28.57-2.85-37.86-.27-7.36,2-7.7,5.16-1.76,7.72,6.87,0,13.78-.24,20.59-.41,4.36-.1,8.72-.4,13.08-.53A5.08,5.08,0,0,1,292,129.93Z"/><ellipse class="cls-7" cx="320.96" cy="114.7" rx="6.4" ry="28.33" transform="translate(200.63 433.6) rotate(-88.99)"/><path class="cls-3" d="M154.35,108.78C152.17,100,168.72,96.5,181.12,96c3.84-.16,9.76,3.06,10.08,5.44.92,6-22.38,1.21-24.39,8.79l.55.88c5.07,8.2,23.89,9.84,33.14,9.46,12.41-.5,25.35-1.62,35-5.46,20.1-7.86,31.25-23.46,59.23-24.59,10.37-.42,28.7,2.29,38.24,9.11,7.3-.9,14.93-1.65,22.6-2,1.35-.06,2.66.94,4,3.14.63,1,2.45,4.7,1.1,4.75l-21.89.89c2.41,6.5.22,15.29-10.15,15.71-4.29.17-7.31-.61-9.13-3.53-3.53-5.71,11.09-4.5,6.11-12.55-4.62-7.47-21-7.41-28.9-7.09-22.78.92-31.1,14-46,21.36-13.65,6.7-37,10.79-56.33,8-10.66-1.52-25.42-5.58-33.83-11.69l-24.36,1c-.9,0-3.3-1.21-4.39-3a4,4,0,0,1-.86-3.27C138.43,110.32,146.41,109.4,154.35,108.78Z"/><path class="cls-4" d="M83.09,103.61c18.66-16.36,85.49-28.46,165.09-28.46s146.42,12.1,165.09,28.46c3.38-3,5.19-6.08,5.19-9.28,0-20.84-76.23-37.73-170.28-37.73S77.89,73.49,77.89,94.33C77.89,97.53,79.7,100.64,83.09,103.61Z"/><path class="cls-4" d="M52.4,132.06v58.05a45.67,45.67,0,0,1-6.08-6.17V132.06Z"/><path class="cls-4" d="M71.42,149.09V202c-2.15-1-4.15-2.07-6.08-3.14V149.09Z"/><path class="cls-4" d="M94.31,159.54v51.53c-2.08-.66-4.08-1.37-6-2.08V159.54Z"/><path class="cls-4" d="M118.92,166.54V218c-2-.47-4-.95-6-1.49V166.54Z"/><path class="cls-4" d="M141.4,173.25v49.39c-2-.35-4-.71-6-1.13V173.25Z"/><path class="cls-4" d="M167.79,177.7v49c-2-.3-4-.54-6.06-.83V177.7Z"/><path class="cls-4" d="M190.71,177.7v51.35l-6.09-.53V177.7Z"/><path class="cls-4" d="M222.24,177.7V231c-2-.06-4-.18-6.05-.24V177.7Z"/><path class="cls-4" d="M258.55,173.25v58.18c-2,0-4,0-6.05,0V173.25Z"/><path class="cls-4" d="M292.25,166.54v63.52c-2,.18-4,.3-6,.42V166.54Z"/><path class="cls-4" d="M319.48,166.54v61.21c-2,.18-4,.41-6,.59v-61.8Z"/><path class="cls-4" d="M355.37,159.54v63c-2,.36-4,.72-6.06,1.07V159.54Z"/><path class="cls-4" d="M393.81,152.83v60.79c-2,.59-4,1.19-6,1.78V152.83Z"/><path class="cls-4" d="M424.51,136.51v65.71c-1.93.89-3.94,1.84-6.05,2.73V136.51Z"/><path class="cls-4" d="M446.13,125.35v62.8a70.33,70.33,0,0,1-6.05,5V125.35Z"/><path class="cls-5" d="M446.13,158.12a70.31,70.31,0,0,1-6.05,5,106.07,106.07,0,0,1-15.57,9.08c-1.93.9-3.94,1.84-6.05,2.73a205.48,205.48,0,0,1-24.65,8.67c-2,.59-4,1.19-6,1.78-10,2.67-20.81,5.11-32.42,7.18-2,.36-4,.72-6.06,1.07-9.5,1.55-19.46,3-29.83,4.1-2,.18-4,.41-6,.59-6.92.71-14,1.25-21.21,1.72-2,.18-4,.3-6,.42-9,.48-18.25.77-27.66.95-2,0-4,.06-6.05.06h-4.32c-8.79,0-17.43-.18-25.94-.48-2-.05-4-.18-6.05-.23q-13-.63-25.48-1.73l-6.09-.53c-5.74-.53-11.34-1.19-16.83-1.84-2-.3-4-.54-6.06-.83-7-.95-13.79-2-20.33-3.21-2-.35-4-.71-6-1.13-5.71-1.07-11.18-2.25-16.47-3.55-2-.48-4-1-6-1.49-6.58-1.66-12.77-3.44-18.61-5.4-2.08-.65-4.08-1.37-6-2.08a154.88,154.88,0,0,1-16.85-7c-2.15-1-4.15-2.07-6.08-3.14a78.23,78.23,0,0,1-12.94-8.73,45.67,45.67,0,0,1-6.08-6.17c-3.66-4.63-5.61-9.44-5.61-14.37v30c0,4.93,1.95,9.74,5.61,14.37a45.67,45.67,0,0,0,6.08,6.17,78.23,78.23,0,0,0,12.94,8.73c1.93,1.07,3.93,2.13,6.08,3.14a159,159,0,0,0,16.85,7c2,.71,4,1.42,6,2.08q8.76,2.93,18.61,5.39c2,.54,4,1,6,1.49,5.29,1.31,10.76,2.49,16.47,3.56,2,.42,4,.78,6,1.13,6.54,1.19,13.35,2.26,20.33,3.21,2,.29,4,.53,6.06.83,5.49.65,11.09,1.3,16.83,1.84l6.09.53c8.3.71,16.8,1.31,25.48,1.72,2,.06,4,.18,6.05.24q12.76.45,25.94.47h4.32c2,0,4,0,6.05,0,9.41-.18,18.63-.48,27.66-1,2-.12,4.05-.24,6-.42,7.23-.47,14.29-1,21.21-1.72,2-.18,4-.41,6-.59,10.37-1.14,20.33-2.56,29.83-4.1,2-.35,4.08-.71,6.06-1.07,11.61-2.08,22.43-4.51,32.42-7.18,2-.59,4-1.19,6-1.78A207.24,207.24,0,0,0,418.46,205c2.11-.89,4.12-1.84,6.05-2.73a106.07,106.07,0,0,0,15.57-9.08,70.33,70.33,0,0,0,6.05-5c6.19-5.88,9.5-12.11,9.5-18.58v-30C455.63,146,452.32,152.24,446.13,158.12Z"/><path class="cls-2" d="M613.57,565.53c-2.68,2.16-5.36,4.21-8.12,6.17-2.28,1.66-4.56,3.22-6.92,4.67a167,167,0,0,1-15.77,9.15c-2.55,1.35-5.09,2.59-7.66,3.77a178.38,178.38,0,0,1-33.19,11.32c-3,.81-6.09,1.44-9.08,2A180.31,180.31,0,0,1,511,605.23a102.48,102.48,0,0,1-10.41.34,156,156,0,0,1-24.32-1.47c-4.2-.51-8.29-1.2-12.3-2a174.64,174.64,0,0,1-28.17-8,156.13,156.13,0,0,1-16.31-7,180.19,180.19,0,0,1-61.6-49.28L332,505.58,615.56,277.67l25.87,32.19A180.71,180.71,0,0,1,677.73,387a146.08,146.08,0,0,1,2.65,16.59,172.37,172.37,0,0,1,.82,29.79c-.14,4-.54,8-1,12a184.42,184.42,0,0,1-9.1,39.1c-1.06,3-2.17,6-3.43,8.92A177.88,177.88,0,0,1,650.07,526c-1.63,2.37-3.26,4.74-5,7a170.53,170.53,0,0,1-18.31,20.72c-1.93,2-4,3.88-6.06,5.75Q617.19,562.62,613.57,565.53Z"/><path class="cls-4" d="M605.45,571.7c-2.28,1.66-4.56,3.22-6.92,4.67l-31.82-39.58,6.49-5.22Z"/><path class="cls-4" d="M582.76,585.52c-2.55,1.35-5.09,2.59-7.66,3.77L536,540.65l6.5-5.22Z"/><path class="cls-4" d="M541.91,600.61c-3,.81-6.09,1.44-9.08,2l-38.5-47.91,6.48-5.22Z"/><path class="cls-4" d="M511,605.23a102.48,102.48,0,0,1-10.41.34l-40-49.73,6.49-5.22Z"/><path class="cls-4" d="M476.27,604.1c-4.2-.51-8.29-1.2-12.3-2l-37.43-46.57L433,550.3Z"/><path class="cls-4" d="M435.8,594.07a156.13,156.13,0,0,1-16.31-7l-32.12-40,6.48-5.21Z"/><path class="cls-4" d="M620.68,559.54l-34.45-42.86,6.49-5.21,34,42.32C624.81,555.79,622.79,557.67,620.68,559.54Z"/><path class="cls-4" d="M645.05,533.07l-35-43.55,6.49-5.22L650.07,526C648.44,528.4,646.81,530.77,645.05,533.07Z"/><path class="cls-4" d="M667.66,493.43l-35.09-43.65L639,444.6l32.08,39.91C670,487.47,668.92,490.49,667.66,493.43Z"/><path class="cls-4" d="M680.19,445.41l-39.07-48.6,6.49-5.22,33.59,41.78C681.06,437.37,680.66,441.4,680.19,445.41Z"/><path class="cls-4" d="M680.38,403.58l-37.86-47.1,6.49-5.22L677.73,387A146.08,146.08,0,0,1,680.38,403.58Z"/><path class="cls-3" d="M587.72,533.35a181.87,181.87,0,1,1,27.81-255.69A181.85,181.85,0,0,1,587.72,533.35Z"/><path class="cls-6" d="M568.35,509.26A151,151,0,1,1,591.43,297,151,151,0,0,1,568.35,509.26Z"/><path class="cls-2" d="M373.85,488.11A150.93,150.93,0,0,1,498.91,242.77a150.94,150.94,0,1,0-32.54,299.59A150.39,150.39,0,0,1,373.85,488.11Z"/><path class="cls-7" d="M438.24,451.13c6.15,19.06,4.46,22.51,7.39,27.95,6.94,12.87,32.95,24.25,52,11.15,16.76-11.55,20.25-36.22,7.21-53.94a2.65,2.65,0,0,1-1-2.39,2.28,2.28,0,0,1,.86-1.48c16.17-13.09,18.77-37.5,6.25-55C498.8,360.59,476,355,458.56,364.91a4.51,4.51,0,0,1-2.11-.35,4.76,4.76,0,0,1-1.83-1.36c-12-17.45-35.44-22.48-51.95-11.14-16.23,11.14-18.69,40-8.24,52.49C399.72,410.89,405,409,418.7,421c7.78,6.79,11.5,12.13,13.78,16.09C434.21,440.09,435.74,443.42,438.24,451.13Z"/><ellipse class="cls-7" cx="459.9" cy="307.91" rx="28.59" ry="24.85" transform="translate(73.25 703.92) rotate(-79.49)"/><ellipse class="cls-7" cx="526.1" cy="326.05" rx="28.59" ry="24.85" transform="translate(-51.86 547.55) rotate(-52.76)"/><ellipse class="cls-7" cx="554.61" cy="451.43" rx="24.85" ry="28.59" transform="translate(-39.94 848.78) rotate(-72.9)"/><ellipse class="cls-7" cx="569.22" cy="384.36" rx="28.59" ry="24.85" transform="translate(-56.28 100.64) rotate(-9.63)"/><path class="cls-3" d="M408.86,435.18c-16.76-30.05-7.76-49.62,2.59-56.73,3.2-2.2,14,6.61,18.28,14.91,10.9,20.7-18.16,13.89-7.18,41.57l2,2.88c18.42,26.8,38.17,24.5,45.89,19.2,10.35-7.12,20.14-16.66,22.37-34.39,4.88-36.46-11.39-96.44,12-112.48,8.66-5.95,29.77-4.25,49.89,15.75,5.08-6.31,10.68-12.27,17.08-16.67,1.13-.78,4,2.19,8.93,9.37,2.3,3.35,10.15,15.57,9,16.35l-18.26,12.54c13.15,22,26,54,17.35,59.94-3.58,2.46-7.62,1-14.2-8.56-12.82-18.67,2.42-20.69-15.67-47-16.77-24.41-31.45-17.14-38-12.62-19,13.06-4.43,62.93-5.45,95.33-1,29.58-15.19,54.12-37.39,52.46-12.18-.79-32.35-8.78-50.25-26.77l-20.33,14c-.76.52-5-2.88-9-8.63a53.81,53.81,0,0,1-6.29-11.17A124,124,0,0,1,408.86,435.18Z"/><path class="cls-2" d="M531.17,453.33c0,3.43-.08,6.81-.28,10.18-.14,2.83-.35,5.58-.7,8.33a166.46,166.46,0,0,1-2.75,18c-.54,2.84-1.16,5.59-1.86,8.34a177.86,177.86,0,0,1-12,33c-1.24,2.82-2.68,5.64-4.12,8.33a181.1,181.1,0,0,1-11.64,18.65,101.19,101.19,0,0,1-6.26,8.33,156.06,156.06,0,0,1-16.38,18c-3,3-6.13,5.72-9.29,8.33A174.15,174.15,0,0,1,442,609.76a152.84,152.84,0,0,1-15.68,8.32,180.32,180.32,0,0,1-77,17.14H308.05V271.43h41.29a180.56,180.56,0,0,1,82.86,20,146.84,146.84,0,0,1,14.59,8.33,172.35,172.35,0,0,1,23.74,18c3,2.61,5.92,5.44,8.74,8.32a183.76,183.76,0,0,1,24.78,31.6c1.64,2.68,3.3,5.43,4.81,8.25a178.54,178.54,0,0,1,14.39,34.14c.82,2.75,1.65,5.5,2.33,8.32a169.34,169.34,0,0,1,4.68,27.26c.35,2.75.56,5.5.69,8.32C531.09,447.13,531.17,450.23,531.17,453.33Z"/><path class="cls-4" d="M530.89,463.51c-.14,2.83-.35,5.58-.7,8.33H479.41v-8.33Z"/><path class="cls-4" d="M527.44,489.86c-.54,2.84-1.16,5.59-1.86,8.34H463.17v-8.34Z"/><path class="cls-4" d="M513.61,531.16c-1.24,2.82-2.68,5.64-4.12,8.33H448v-8.33Z"/><path class="cls-4" d="M497.85,558.14a101.19,101.19,0,0,1-6.26,8.33h-63.8v-8.33Z"/><path class="cls-4" d="M475.21,584.5c-3,3-6.13,5.72-9.29,8.33H406.18V584.5Z"/><path class="cls-4" d="M442,609.76a152.84,152.84,0,0,1-15.68,8.32H375.08v-8.32Z"/><path class="cls-4" d="M531,444H476v-8.32h54.29C530.61,438.46,530.82,441.21,531,444Z"/><path class="cls-4" d="M525.58,408.45H469.7v-8.32h53.55C524.07,402.88,524.9,405.63,525.58,408.45Z"/><path class="cls-4" d="M508.86,366h-56v-8.25h51.2C505.69,360.42,507.35,363.17,508.86,366Z"/><path class="cls-4" d="M479.27,326.14H416.92v-8.32h53.61C473.56,320.43,476.45,323.26,479.27,326.14Z"/><path class="cls-4" d="M446.79,299.79H386.36v-8.33H432.2A146.84,146.84,0,0,1,446.79,299.79Z"/><path class="cls-3" d="M489.89,453.32A181.87,181.87,0,0,1,308,635.2c-100.44,0-181.87-81.43-181.87-181.88a181.87,181.87,0,0,1,363.74,0Z"/><path class="cls-6" d="M459,453.32a151,151,0,1,1-151-151A151,151,0,0,1,459,453.32Z"/><path class="cls-2" d="M320.63,591.66A150.93,150.93,0,0,1,207.77,340.48,150.94,150.94,0,1,0,420.88,553.54,150.37,150.37,0,0,1,320.63,591.66Z"/><path class="cls-7" d="M331.15,525.82c19.2,5.71,21.08,9.07,27.23,9.73C372.91,537.12,397,522.11,397,499c0-20.36-18.39-37.2-40.38-36.49a2.68,2.68,0,0,1-2.55-.51,2.38,2.38,0,0,1-.73-1.55c-1.62-20.74-20.27-36.71-41.76-36.28-20.75.43-38.29,16-40,36a4.4,4.4,0,0,1-1.48,1.54,4.82,4.82,0,0,1-2.15.74c-21.18,0-38.61,16.48-38.61,36.51,0,19.69,22.38,38.05,38.61,36.52,8.21-.78,9.65-6.18,27.3-10.7,10-2.56,16.51-2.61,21.06-2.24C319.77,522.88,323.38,523.5,331.15,525.82Z"/><ellipse class="cls-7" cx="225.37" cy="426.86" rx="24.85" ry="28.59" transform="translate(-235.83 284.39) rotate(-45)"/><ellipse class="cls-7" cx="277.81" cy="382.57" rx="24.85" ry="28.59" transform="translate(-105.93 106.37) rotate(-18.27)"/><ellipse class="cls-7" cx="397.29" cy="430.06" rx="28.59" ry="24.85" transform="translate(-181.21 339.92) rotate(-38.41)"/><ellipse class="cls-7" cx="350.29" cy="380.05" rx="28.59" ry="24.85" transform="translate(-141.8 538.12) rotate(-65.14)"/><path class="cls-3" d="M301.37,541c-34.26-3.2-45.29-21.69-45.29-34.26,0-3.88,13.35-7.76,22.64-6.62,23.23,2.74,1.16,22.84,30.2,29.46h3.48c32.52,0,41.81-17.58,41.81-27,0-12.56-2.32-26-15.68-37.91-27.29-24.66-85.94-45.22-85.94-73.54,0-10.5,13.36-26.95,41.23-32.2-2.32-7.76-4.06-15.76-4.06-23.52,0-1.37,4.06-2.06,12.77-2.06,4.07,0,18.58.46,18.58,1.83v22.15c25.55,1.6,59.23,9.14,59.23,19.64,0,4.34-3.48,6.86-15.1,6.86-22.64,0-15.67-13.71-47.61-13.71-29.62,0-31.94,16.22-31.94,24.21,0,23.07,49.36,39.28,75.49,58.47,23.81,17.58,36,43.16,22.07,60.52-7.55,9.59-25.55,21.69-50.52,26.26v24.67c0,.91-5.23,2.51-12.2,2.51a54.25,54.25,0,0,1-12.77-1.14A124.08,124.08,0,0,1,301.37,541Z"/></g></g></svg>