<svg xmlns="http://www.w3.org/2000/svg" viewBox="0 0 682 682"><defs><style>.cls-1{fill:#426fb4;}.cls-2{fill:#bedecd;}</style></defs><g id="Layer_4" data-name="Layer 4"><path class="cls-1" d="M607.29,437.85V552.29a71.82,71.82,0,0,1-71.82,71.83H142.64a71.83,71.83,0,0,1-71.83-71.83V437.12"/><path class="cls-1" d="M70.81,342V225.58a71.83,71.83,0,0,1,71.83-71.83H535.47a71.82,71.82,0,0,1,71.82,71.83V342.72"/><path class="cls-2" d="M429.62,153.9H407.78v-63a11.16,11.16,0,0,0-11.14-11.14h-115A13.5,13.5,0,0,0,268.18,93.2v60.7H246.34V93.2a35.36,35.36,0,0,1,35.32-35.32h115a33,33,0,0,1,33,33Z"/><path class="cls-2" d="M644.21,561H607.9V544.63h34.53c2.48-3.7,6.3-16.8,6.3-37.47v-70h16.38v70C665.11,516.15,664.1,561,644.21,561Z"/><path class="cls-2" d="M665.11,342.72H648.73V269.21c0-23.6-4.6-38.62-7.39-42.31H607.9V210.52h35c21.18,0,22.25,48.89,22.25,58.69Z"/><path class="cls-2" d="M70.24,561H33.93C14,561,13,516.15,13,507.16V437.85H29.41v69.31c0,20.66,3.82,33.77,6.3,37.47H70.24Z"/><path class="cls-2" d="M29.41,340.51H13v-71.3c0-9.8,1.07-58.69,22.25-58.69h35V226.9H36.79c-2.78,3.69-7.38,18.71-7.38,42.31Z"/><path class="cls-2" d="M154.36,307.07a10.92,10.92,0,0,1-10.92-10.92V206.64a10.92,10.92,0,1,1,21.84,0v89.51A10.92,10.92,0,0,1,154.36,307.07Z"/><path class="cls-2" d="M248.19,307.07a10.92,10.92,0,0,1-10.92-10.92V206.64a10.92,10.92,0,0,1,21.84,0v89.51A10.92,10.92,0,0,1,248.19,307.07Z"/><path class="cls-2" d="M334.46,307.07a10.92,10.92,0,0,1-10.92-10.92V206.64a10.92,10.92,0,0,1,21.84,0v89.51A10.92,10.92,0,0,1,334.46,307.07Z"/><path class="cls-2" d="M428.29,307.07a10.92,10.92,0,0,1-10.92-10.92V206.64a10.92,10.92,0,1,1,21.84,0v89.51A10.92,10.92,0,0,1,428.29,307.07Z"/><path class="cls-2" d="M522.11,307.07a10.92,10.92,0,0,1-10.92-10.92V206.64a10.92,10.92,0,1,1,21.84,0v89.51A10.92,10.92,0,0,1,522.11,307.07Z"/><rect class="cls-2" y="342.52" width="682" height="95.98" rx="4.41"/><rect class="cls-1" x="146.41" y="341.24" width="16.38" height="98.09"/><rect class="cls-1" x="199.5" y="341.24" width="16.38" height="98.09"/><rect class="cls-1" x="462.36" y="341.24" width="16.38" height="98.09"/><rect class="cls-1" x="515.46" y="341.24" width="16.38" height="98.09"/></g></svg>