<svg xmlns="http://www.w3.org/2000/svg" viewBox="0 0 682 682"><defs><style>.cls-1{fill:#95bde5;}</style></defs><g id="Layer_4" data-name="Layer 4"><path class="cls-1" d="M587.67,110.69c-80.56,44-149.5,137.9-149.5,227.74,0,93.58,69.17,186.2,153.88,228.11a337.42,337.42,0,0,0-4.38-455.85Z"/><path class="cls-1" d="M230.37,338.43A245.16,245.16,0,0,0,88.9,116.63,337.47,337.47,0,0,0,85.66,561.7,244.14,244.14,0,0,0,230.37,338.43Z"/><path class="cls-1" d="M411.53,338.43c0-97,70.5-197.13,156.45-247.2a337.48,337.48,0,0,0-459.61,5.26A271.84,271.84,0,0,1,257,338.43,270.74,270.74,0,0,1,104.88,582.12a337.43,337.43,0,0,0,467.7,4.37C482.43,538.46,411.53,439.36,411.53,338.43Z"/></g></svg>