<svg xmlns="http://www.w3.org/2000/svg" viewBox="0 0 682 682"><defs><style>.cls-1{fill:#9bcb92;}</style></defs><g id="Layer_4" data-name="Layer 4"><path class="cls-1" d="M382,259.51c7.33,18.8,21.4,50.34,43.08,80.9.62.88,1.26,1.75,1.89,2.62a432.51,432.51,0,0,0,47.74-84.62,528.81,528.81,0,0,0-50.65-23.82A339.75,339.75,0,0,0,382,259.51Z"/><path class="cls-1" d="M155.42,60.49a422.12,422.12,0,0,1,100.47-20.4c107.22-8.39,194.52,25.45,252,58.25,0-.2,0-.39,0-.58A279.38,279.38,0,0,0,155.42,60.49Z"/><path class="cls-1" d="M57.62,171.27a525.7,525.7,0,0,1,184-36.55c109.13-1.92,197.07,30.71,254.18,60.35q.66-2.72,1.29-5.43,2.81-12.07,4.89-24.33c-55.4-29.83-142.48-63.47-250.64-60.55a494.25,494.25,0,0,0-177.52,38A280,280,0,0,0,57.62,171.27Z"/><path class="cls-1" d="M89.88,120.38a507.91,507.91,0,0,1,161-30.64c108.39-2.63,196.19,29.81,253.4,59.83q2.24-17,3.08-34.16C452,82.52,364.93,46.59,257.06,55.06a411,411,0,0,0-141.93,37.6A283.4,283.4,0,0,0,89.88,120.38Z"/><path class="cls-1" d="M405.41,227.42a514.75,514.75,0,0,0-52-15.84c-30.15,14.79-69.72,38.85-111.11,92.79-66.45,86.6-72.84,181.74-70,234.24a278.92,278.92,0,0,0,50.39,22.09c-2.31-55.54,5.89-151.64,73.3-239.49A346.72,346.72,0,0,1,405.41,227.42Z"/><path class="cls-1" d="M38.71,221.4a511.13,511.13,0,0,1,184-39.15C333.3,179.62,423,213.83,480.35,244.38q6.47-16.95,11.45-34.44c-55.41-29.2-142.28-62.09-250-60.21a511.7,511.7,0,0,0-193,41.39A277.65,277.65,0,0,0,38.71,221.4Z"/><path class="cls-1" d="M330.65,206.51c-15.48-3.08-31.64-5.52-48.45-7.15a208.08,208.08,0,0,0-35.76,19.29c-19.87,13.41-39.63,33.46-58.73,59.61-16.3,22.31-50.2,68.73-63.48,139.33a317.66,317.66,0,0,0-4.47,82.93,282.24,282.24,0,0,0,37.11,28.78c-1.53-56.23,8.23-149,73.49-234.06C266.63,248,301.64,222.62,330.65,206.51Z"/><path class="cls-1" d="M495.65,414.38c34.68-47.85,58.71-100,71.44-155.22a413.38,413.38,0,0,0,8.36-50.29,278.58,278.58,0,0,0-22.94-52.22,422,422,0,0,1-9.71,72.19c-13.06,58.23-38.13,112.58-74.53,161.65Q481.32,403.06,495.65,414.38Z"/><path class="cls-1" d="M175.58,269.4c20.13-27.56,41.15-48.82,62.46-63.2q6.92-4.65,14.19-8.8-14.32-.5-29.19-.13-12.53.3-25,1.24l0,.16A74,74,0,0,0,184.8,203a135.84,135.84,0,0,0-15.33,9c-6.48,4.48-15.63,12.73-38.43,42.44-72.2,94.09-68.41,146-66.07,177a281.28,281.28,0,0,0,39,53.27,332.32,332.32,0,0,1,5.55-69.94C123.38,340.87,158.64,292.6,175.58,269.4Z"/><path class="cls-1" d="M511.68,193c-13.57,58.45-38.86,113.09-75.22,162.49q10,12.53,21.09,24.19c34.41-46.9,58.16-98.71,70.6-154.17A408.34,408.34,0,0,0,538,133.69q-7.29-10.35-15.45-20A436.33,436.33,0,0,1,511.68,193Z"/><path class="cls-1" d="M99.83,233.43a114.9,114.9,0,0,0,6,29.92q6.2-8.75,13.28-18c18.56-24.19,28.91-35.32,36.8-41.86a494.13,494.13,0,0,0-55.87,12.42A115.23,115.23,0,0,0,99.83,233.43Z"/><path class="cls-1" d="M308.93,574.32a279.73,279.73,0,0,0,51.95-4.86,105.89,105.89,0,0,1-28.36-21.91A165.46,165.46,0,0,1,289,553.48a160.48,160.48,0,0,1-51.65-8.56c0,7.29.23,14.08.57,20.26A279.57,279.57,0,0,0,308.93,574.32Z"/><path class="cls-1" d="M492.42,505.62c-27.32-15.07-85-49.93-127.7-110.18-15.1-21.28-29.39-49-42.57-82.45q-7.38,8.4-14.26,17.35-6.43,8.39-12.13,16.86c7.23,18.68,21.4,50.74,43.42,81.79,41.87,59,85.45,87.73,115.61,104.23A281.91,281.91,0,0,0,492.42,505.62Z"/><path class="cls-1" d="M588.84,294.42a280.77,280.77,0,0,0-4-46.88q-1.46,7.54-3.16,15c-13.22,57.26-38.14,111.35-74.1,160.91a371.67,371.67,0,0,0,36.1,23.17A278.31,278.31,0,0,0,588.84,294.42Z"/><path class="cls-1" d="M412.84,349.09c-21.21-29.89-35.4-60.63-43.36-80.44a331.16,331.16,0,0,0-36,32C347,336.1,361.56,365.05,377,386.76c43.28,61,103,95.05,127.11,108.11A282.18,282.18,0,0,0,535.16,459C486.52,431.4,444.37,393.54,412.84,349.09Z"/><path class="cls-1" d="M378,561.57l5.2,2.72a278,278,0,0,0,56.36-22.4C408.66,524.05,367,494.18,326.93,437.67c-19.3-27.21-32.79-55.12-41.06-74.85a333.24,333.24,0,0,0-22.33,44.88c7,18.34,21.37,51.55,44.15,83.68C345.42,544.58,353.64,548.86,378,561.57Z"/><path class="cls-1" d="M95.6,278.41a128.94,128.94,0,0,1-10.89-57.88q-12.6,4-25,8.72a116.14,116.14,0,0,0-.12,16.26C60.7,263.16,65.25,303.56,69,326A364.22,364.22,0,0,1,95.6,278.41Z"/><path class="cls-1" d="M29,294.42A278.33,278.33,0,0,0,49.32,399c.93-14.67,3.92-32.05,11.36-52.75l-2,.93c-5.85-12.58-13.22-86.88-14.11-100.69-.24-3.7-.31-7.43-.23-11.16q-5,2.07-9.89,4.23A280.27,280.27,0,0,0,29,294.42Z"/><path class="cls-1" d="M237.67,529.08a145.4,145.4,0,0,0,83.79,5.75c-6.49-8-14-17.94-23.14-30.73a133.22,133.22,0,0,1-26.13,2.59c-1.87,0-3.75,0-5.63-.11a134.52,134.52,0,0,1-26.89-3.91C238.65,511.91,238,520.75,237.67,529.08Z"/><path class="cls-1" d="M288.9,490.48a402.49,402.49,0,0,1-33.08-61.89,357.36,357.36,0,0,0-14.17,59.07,118.9,118.9,0,0,0,25.54,3.91A116.72,116.72,0,0,0,288.9,490.48Z"/><path class="cls-1" d="M462.39,682.5a55.66,55.66,0,0,1-9.53-.83c-20.79-3.53-29.66-16-39.05-29.13-8.49-11.89-18.11-25.37-39.52-36-18.13-9-29.88-8.38-79.39-5.88-15.39.78-34.27,1.74-57.93,2.62-96.08,3.61-122.56.79-149.23-15.89C76,590.1,45,570.64,40,534.36c-5.43-39.66,24.43-69.47,30.47-75.05l10.19,11.05c-5.08,4.68-30.2,29.69-25.78,62,4,29.32,29.82,45.47,40.84,52.37,22.08,13.82,43.23,17.27,140.69,13.62,23.58-.89,42.41-1.84,57.74-2.61,51.37-2.61,65.17-3.28,86.8,7.41,24.8,12.26,36.05,28,45.09,40.7,8.83,12.38,14.66,20.56,29.35,23.06C474,670,488.22,660.21,508,646.62c19.21-13.24,43.12-29.7,79.68-40A241.92,241.92,0,0,1,668,598.33l-.9,15a227.62,227.62,0,0,0-75.37,7.79c-34.16,9.6-56,24.62-75.23,37.87C498.34,671.48,482.33,682.49,462.39,682.5Z"/></g></svg>