<svg xmlns="http://www.w3.org/2000/svg" viewBox="0 0 682 220.92"><defs><style>.cls-1{fill:#b28757;}.cls-2{fill:#876035;}.cls-3{fill:#936135;}.cls-4{fill:#846444;}.cls-5{fill:#9e7041;}</style></defs><g id="Layer_4" data-name="Layer 4"><ellipse class="cls-1" cx="335.61" cy="121.66" rx="315.82" ry="88.57"/><path class="cls-2" d="M35.75,81.16c-2-1.18-3.85-2.81-6-3.69-4.88-2-10.39.19-15,2.65a8.14,8.14,0,0,0-2.72,2,7.14,7.14,0,0,0-1.21,3.14c-.65,3.35-.67,6.8-1.56,10.09-1.16,4.26-3.74,8-5,12.25s-.69,9.59,3.05,11.93c3.08,1.92,7.08,1.09,10.56,0,12.12-3.65,23.61-9.1,35-14.53a12.74,12.74,0,0,0,3.3-2c2.76-2.58,2.62-7.19.72-10.44A20.19,20.19,0,0,0,52,87.37c-1.18-1-2.37-2.73-3.65-3.52-1.76-1.07-4.09-.42-6.05-.61A16.43,16.43,0,0,1,35.75,81.16Z"/><path class="cls-3" d="M77.66,55.39C75,53.31,71.15,53.66,68.25,52c-1.27-.75-2.45-1.91-3.91-1.85A4.85,4.85,0,0,0,61.27,52,46.39,46.39,0,0,0,54,62c-1.23,2.28-2.24,5.21-.74,7.32a6.86,6.86,0,0,0,2,1.71C62,75.13,72.64,77,80,73.26,87.53,69.39,82.76,59.4,77.66,55.39Z"/><path class="cls-4" d="M310.77,192.81a5.27,5.27,0,0,1,2.56.69,6.63,6.63,0,0,1,1.49,1.5,59.35,59.35,0,0,1,6,9.34,6.15,6.15,0,0,1,.92,2.91c0,2.23-2.27,3.75-4.36,4.56a46.79,46.79,0,0,1-6.07,1.74c-5.84,1.38-17.44,3.19-16.4-6.28C295.76,199.92,303.18,192.41,310.77,192.81Z"/><path class="cls-2" d="M364.18,188.33c1.35-1.93,2.29-4.17,3.9-5.9,3.58-3.85,9.48-4.24,14.73-4a8.1,8.1,0,0,1,3.32.66,7.41,7.41,0,0,1,2.43,2.33c2,2.76,3.49,5.88,5.69,8.48,2.86,3.36,6.79,5.67,9.71,9s4.71,8.39,2.31,12.09c-2,3.05-5.94,4-9.54,4.52-12.52,1.85-25.24,1.79-37.9,1.72a12.38,12.38,0,0,1-3.84-.41c-3.59-1.17-5.42-5.4-5.08-9.15a20.32,20.32,0,0,1,2.22-6.82c.65-1.39,1-3.48,1.81-4.73,1.14-1.73,3.53-2.12,5.23-3.13A16.36,16.36,0,0,0,364.18,188.33Z"/><path class="cls-4" d="M351.66,189.44a10.12,10.12,0,0,0-2-1.55c-2.24-1.17-5.1-.06-6.82,1.79s-2.63,4.3-3.75,6.56a32.5,32.5,0,0,0-2.05,4.45,22.11,22.11,0,0,0-.6,7.44,4.31,4.31,0,0,0,.82,2.91,4.24,4.24,0,0,0,3.26.85,122,122,0,0,0,17.69-1.76c1.3-.23,2.8-.62,3.34-1.84a4.13,4.13,0,0,0,.23-1.68c0-3.92-.08-6.4-2.31-9.68C357.41,193.86,353.81,192.31,351.66,189.44Z"/><path class="cls-2" d="M326.25,194.47a1.48,1.48,0,0,1,.87-.18,1.5,1.5,0,0,1,.66.41,17.65,17.65,0,0,1,4.69,6.16,9.92,9.92,0,0,1,.23,7.6,3.19,3.19,0,0,1-1,1.42,4,4,0,0,1-2.23.5c-4,.09-13.91.89-14.49-5.11C314.49,200.43,322.62,196,326.25,194.47Z"/><path class="cls-3" d="M329.47,201c2.65-2.07,6.52-1.72,9.42-3.43,1.26-.75,2.44-1.91,3.91-1.85a4.87,4.87,0,0,1,3.07,1.85,45.91,45.91,0,0,1,7.28,10c1.23,2.27,2.23,5.2.74,7.31a6.71,6.71,0,0,1-2,1.71c-6.76,4.15-17.36,6.07-24.72,2.28C319.61,215,324.38,205,329.47,201Z"/><path class="cls-5" d="M351.55,207.49a1.31,1.31,0,0,1,.31-.65,1.4,1.4,0,0,1,.57-.35,4.05,4.05,0,0,1,3,.36,28.12,28.12,0,0,1,2.64,1.69c1.2.76,2.52,1.34,3.72,2.1a6.92,6.92,0,0,1,2.84,3.1,3.5,3.5,0,0,1-.75,3.92,5.11,5.11,0,0,1-2.14.94c-2.89.76-11.28,3.47-13.13,0-.81-1.51.05-3.21.84-4.49.67-1.07,1.58-1.57,1.92-2.88S351.23,208.71,351.55,207.49Z"/><path class="cls-4" d="M401.78,191a5.27,5.27,0,0,1,2.56.69,6.24,6.24,0,0,1,1.49,1.5,60.13,60.13,0,0,1,6.05,9.34,6.26,6.26,0,0,1,.92,2.91c-.05,2.23-2.28,3.75-4.36,4.56a47.4,47.4,0,0,1-6.08,1.74c-5.83,1.38-17.44,3.19-16.39-6.28C386.77,198.1,394.19,190.59,401.78,191Z"/><path class="cls-2" d="M455.19,186.51c1.35-1.93,2.29-4.17,3.9-5.9,3.59-3.85,9.49-4.24,14.74-4a8.09,8.09,0,0,1,3.31.66,7.31,7.31,0,0,1,2.43,2.33c2,2.76,3.49,5.88,5.7,8.48,2.86,3.36,6.78,5.67,9.71,9s4.71,8.39,2.31,12.09c-2,3.05-6,4-9.54,4.52-12.53,1.85-25.24,1.79-37.9,1.72A12.41,12.41,0,0,1,446,215c-3.58-1.17-5.41-5.4-5.08-9.15a20.33,20.33,0,0,1,2.23-6.82c.65-1.39,1-3.48,1.81-4.73,1.14-1.73,3.53-2.12,5.22-3.13A16.36,16.36,0,0,0,455.19,186.51Z"/><path class="cls-4" d="M442.67,187.62a10.06,10.06,0,0,0-2-1.55c-2.24-1.17-5.11-.06-6.83,1.79s-2.62,4.3-3.74,6.56a32.56,32.56,0,0,0-2.06,4.45,22.37,22.37,0,0,0-.6,7.44,4.31,4.31,0,0,0,.83,2.91,4.23,4.23,0,0,0,3.26.85,121.86,121.86,0,0,0,17.68-1.76c1.31-.23,2.8-.62,3.34-1.84a4.13,4.13,0,0,0,.24-1.68c0-3.92-.09-6.4-2.32-9.68C448.42,192,444.82,190.49,442.67,187.62Z"/><path class="cls-2" d="M417.26,192.65a1.51,1.51,0,0,1,.87-.18,1.46,1.46,0,0,1,.66.4,17.93,17.93,0,0,1,4.7,6.17,9.88,9.88,0,0,1,.22,7.6,3.19,3.19,0,0,1-1,1.42,3.92,3.92,0,0,1-2.22.5c-4,.09-13.92.89-14.5-5.11C405.51,198.61,413.64,194.21,417.26,192.65Z"/><path class="cls-3" d="M420.49,199.19c2.64-2.07,6.51-1.72,9.41-3.43,1.27-.75,2.45-1.91,3.91-1.85a4.87,4.87,0,0,1,3.08,1.85,46.57,46.57,0,0,1,7.28,10c1.23,2.27,2.23,5.2.73,7.31a6.71,6.71,0,0,1-2,1.71c-6.75,4.15-17.36,6.07-24.72,2.28C410.62,213.19,415.39,203.2,420.49,199.19Z"/><path class="cls-5" d="M442.56,205.67a1.22,1.22,0,0,1,.89-1,4,4,0,0,1,3,.36,29.63,29.63,0,0,1,2.65,1.69c1.2.76,2.51,1.34,3.71,2.1a6.94,6.94,0,0,1,2.85,3.1,3.52,3.52,0,0,1-.75,3.92,5.15,5.15,0,0,1-2.15.94c-2.89.76-11.27,3.47-13.13,0-.8-1.51.06-3.21.85-4.49.66-1.07,1.58-1.57,1.91-2.88S442.25,206.89,442.56,205.67Z"/><path class="cls-4" d="M492.8,185.53a5.3,5.3,0,0,1,2.56.69,6.63,6.63,0,0,1,1.49,1.5,59.6,59.6,0,0,1,6,9.34,6.15,6.15,0,0,1,.92,2.9c-.05,2.24-2.27,3.76-4.36,4.57a46.79,46.79,0,0,1-6.07,1.74c-5.84,1.38-17.44,3.19-16.4-6.28C477.79,192.64,485.21,185.13,492.8,185.53Z"/><path class="cls-2" d="M541.75,173.32c1.17-2,1.9-4.36,3.34-6.23,3.22-4.17,9.06-5.1,14.31-5.32a7.92,7.92,0,0,1,3.36.35,7.24,7.24,0,0,1,2.64,2.1c2.25,2.55,4,5.53,6.45,7.91,3.15,3.08,7.27,5,10.49,8s5.46,7.92,3.42,11.83c-1.69,3.22-5.56,4.52-9.09,5.38-12.3,3-25,4.1-37.58,5.2a12.48,12.48,0,0,1-3.86-.06c-3.68-.82-5.89-4.87-5.91-8.64a20.62,20.62,0,0,1,1.59-7c.52-1.44.66-3.55,1.37-4.87,1-1.82,3.32-2.44,4.91-3.6A16.23,16.23,0,0,0,541.75,173.32Z"/><path class="cls-4" d="M533.68,182.16a9.42,9.42,0,0,0-2-1.55c-2.24-1.18-5.1-.06-6.82,1.79s-2.63,4.3-3.75,6.56a31.35,31.35,0,0,0-2,4.45,21.83,21.83,0,0,0-.6,7.44,4.31,4.31,0,0,0,.82,2.91,4.23,4.23,0,0,0,3.26.85,123.55,123.55,0,0,0,17.69-1.76c1.3-.23,2.8-.62,3.34-1.84a4.13,4.13,0,0,0,.23-1.68c0-3.92-.08-6.4-2.32-9.69C539.44,186.58,535.84,185,533.68,182.16Z"/><path class="cls-2" d="M508.27,187.19a1.51,1.51,0,0,1,.87-.18,1.46,1.46,0,0,1,.66.4,17.69,17.69,0,0,1,4.7,6.17,9.88,9.88,0,0,1,.22,7.6,3.17,3.17,0,0,1-1,1.42,4,4,0,0,1-2.23.5c-4,.09-13.91.88-14.49-5.11C496.52,193.15,504.65,188.75,508.27,187.19Z"/><path class="cls-3" d="M511.5,193.73c2.65-2.08,6.52-1.73,9.42-3.43,1.26-.75,2.44-1.91,3.91-1.85a4.9,4.9,0,0,1,3.07,1.84,46.54,46.54,0,0,1,7.28,10c1.23,2.27,2.23,5.2.73,7.31a6.73,6.73,0,0,1-2,1.71c-6.75,4.15-17.35,6.07-24.71,2.28C501.64,207.73,506.41,197.74,511.5,193.73Z"/><path class="cls-5" d="M539,192.92a1.26,1.26,0,0,1,.89-1,4.05,4.05,0,0,1,3,.36A26.23,26.23,0,0,1,545.6,194c1.2.76,2.52,1.34,3.72,2.1a7,7,0,0,1,2.84,3.09,3.51,3.51,0,0,1-.75,3.93,5.3,5.3,0,0,1-2.14.94c-2.89.76-11.28,3.47-13.13,0-.81-1.51.05-3.21.84-4.49.67-1.07,1.58-1.57,1.92-2.89S538.72,194.15,539,192.92Z"/><path class="cls-4" d="M578.35,176.43a5.27,5.27,0,0,1,2.56.69,6.43,6.43,0,0,1,1.49,1.5,59.2,59.2,0,0,1,6.05,9.34,6.25,6.25,0,0,1,.91,2.9c0,2.24-2.27,3.76-4.36,4.57a45.23,45.23,0,0,1-6.07,1.73c-5.84,1.39-17.44,3.2-16.4-6.27C563.34,183.54,570.76,176,578.35,176.43Z"/><path class="cls-2" d="M619,151.88c.87-2.2,1.27-4.6,2.44-6.65,2.6-4.57,8.25-6.31,13.42-7.27a8.16,8.16,0,0,1,3.37-.12,7.31,7.31,0,0,1,2.91,1.71c2.58,2.22,4.75,4.91,7.49,6.93,3.56,2.61,7.91,4,11.52,6.49s6.51,7.08,5,11.24c-1.21,3.42-4.86,5.25-8.24,6.6-11.76,4.68-24.15,7.55-36.48,10.41a12.85,12.85,0,0,1-3.84.48c-3.75-.31-6.51-4-7-7.73a20.51,20.51,0,0,1,.59-7.15c.32-1.5.16-3.61.67-5,.72-1.94,3-2.88,4.37-4.25A16.5,16.5,0,0,0,619,151.88Z"/><path class="cls-4" d="M617.42,151.21a10.12,10.12,0,0,0-2-1.55c-2.24-1.17-5.1-.06-6.82,1.8s-2.63,4.29-3.75,6.56a32,32,0,0,0-2,4.45,22,22,0,0,0-.6,7.43,4.28,4.28,0,0,0,.82,2.91c.8.84,2.11.88,3.27.85A120.61,120.61,0,0,0,624,171.9c1.31-.22,2.8-.62,3.34-1.83a4.18,4.18,0,0,0,.23-1.69c0-3.92-.08-6.4-2.31-9.68C623.17,155.63,619.57,154.08,617.42,151.21Z"/><path class="cls-2" d="M592,169a1.47,1.47,0,0,1,.87-.17,1.57,1.57,0,0,1,.66.4,17.78,17.78,0,0,1,4.69,6.17,9.88,9.88,0,0,1,.23,7.6,3.25,3.25,0,0,1-1,1.42,4,4,0,0,1-2.23.5c-4,.09-13.91.88-14.49-5.11C580.25,175,588.39,170.54,592,169Z"/><path class="cls-3" d="M597.06,171.89c2.64-2.08,6.51-1.73,9.41-3.44,1.26-.74,2.45-1.9,3.91-1.84a4.85,4.85,0,0,1,3.07,1.84,46.15,46.15,0,0,1,7.28,10c1.23,2.28,2.24,5.21.74,7.31a6.74,6.74,0,0,1-2,1.72c-6.76,4.15-17.36,6.06-24.72,2.28C587.19,185.89,592,175.89,597.06,171.89Z"/><path class="cls-5" d="M624.59,171.08a1.57,1.57,0,0,1,.31-.65,1.35,1.35,0,0,1,.58-.34,4,4,0,0,1,3,.35,28.12,28.12,0,0,1,2.64,1.69c1.2.77,2.52,1.34,3.72,2.11a6.92,6.92,0,0,1,2.85,3.09,3.53,3.53,0,0,1-.75,3.93,5.34,5.34,0,0,1-2.15.94c-2.89.76-11.28,3.46-13.13,0-.8-1.52,0-3.21.85-4.49.66-1.07,1.58-1.57,1.91-2.89S624.27,172.31,624.59,171.08Z"/><path class="cls-4" d="M303.88,191a5.27,5.27,0,0,0-2.56.69,6.63,6.63,0,0,0-1.49,1.5,60.13,60.13,0,0,0-6.05,9.34,6.25,6.25,0,0,0-.91,2.91c0,2.23,2.27,3.75,4.36,4.56a46.79,46.79,0,0,0,6.07,1.74c5.84,1.38,17.44,3.19,16.4-6.28C318.89,198.1,311.47,190.59,303.88,191Z"/><path class="cls-2" d="M250.47,186.51c-1.35-1.93-2.29-4.17-3.9-5.9-3.59-3.85-9.48-4.24-14.73-4a8.1,8.1,0,0,0-3.32.66,7.41,7.41,0,0,0-2.43,2.33c-2,2.76-3.49,5.88-5.69,8.48-2.86,3.36-6.79,5.67-9.72,9s-4.7,8.39-2.3,12.09c2,3.05,5.94,4,9.54,4.52,12.52,1.85,25.24,1.79,37.9,1.72a12.38,12.38,0,0,0,3.84-.41c3.58-1.17,5.42-5.4,5.08-9.15a20.32,20.32,0,0,0-2.22-6.82c-.65-1.39-1-3.48-1.81-4.73-1.15-1.73-3.53-2.12-5.23-3.13A16.36,16.36,0,0,1,250.47,186.51Z"/><path class="cls-4" d="M263,187.62a10.12,10.12,0,0,1,2-1.55c2.24-1.17,5.1-.06,6.82,1.79s2.63,4.3,3.75,6.56a32.5,32.5,0,0,1,2.05,4.45,22.11,22.11,0,0,1,.6,7.44,4.31,4.31,0,0,1-.82,2.91,4.24,4.24,0,0,1-3.26.85,122,122,0,0,1-17.69-1.76c-1.3-.23-2.8-.62-3.34-1.84a4.13,4.13,0,0,1-.23-1.68c0-3.92.08-6.4,2.31-9.68C257.24,192,260.84,190.49,263,187.62Z"/><path class="cls-2" d="M288.4,192.65a1.48,1.48,0,0,0-.87-.18,1.57,1.57,0,0,0-.66.4,17.78,17.78,0,0,0-4.69,6.17,9.88,9.88,0,0,0-.23,7.6,3.19,3.19,0,0,0,1,1.42,4,4,0,0,0,2.23.5c4,.09,13.91.89,14.49-5.11C300.16,198.61,292,194.21,288.4,192.65Z"/><path class="cls-3" d="M285.18,199.19c-2.65-2.07-6.52-1.72-9.42-3.43-1.26-.75-2.45-1.91-3.91-1.85a4.85,4.85,0,0,0-3.07,1.85,45.91,45.91,0,0,0-7.28,10c-1.23,2.27-2.23,5.2-.74,7.31a6.71,6.71,0,0,0,2,1.71c6.76,4.15,17.36,6.07,24.72,2.28C295,213.19,290.27,203.2,285.18,199.19Z"/><path class="cls-5" d="M263.1,205.67a1.22,1.22,0,0,0-.88-1,4.05,4.05,0,0,0-3,.36,28.12,28.12,0,0,0-2.64,1.69c-1.2.76-2.52,1.34-3.72,2.1a6.92,6.92,0,0,0-2.84,3.1,3.5,3.5,0,0,0,.75,3.92,5.11,5.11,0,0,0,2.14.94c2.89.76,11.28,3.47,13.13,0,.81-1.51-.05-3.21-.84-4.49-.67-1.07-1.58-1.57-1.92-2.88S263.42,206.89,263.1,205.67Z"/><path class="cls-4" d="M212.87,189.17a5.24,5.24,0,0,0-2.56.69,6.24,6.24,0,0,0-1.49,1.5,60.13,60.13,0,0,0-6,9.34,6.26,6.26,0,0,0-.92,2.9c.05,2.24,2.28,3.76,4.36,4.57a47.4,47.4,0,0,0,6.08,1.74c5.83,1.38,17.44,3.19,16.39-6.28C227.88,196.28,220.46,188.77,212.87,189.17Z"/><path class="cls-2" d="M159.46,184.69c-1.36-1.93-2.29-4.17-3.9-5.9-3.59-3.85-9.49-4.24-14.74-4a8.09,8.09,0,0,0-3.31.66,7.31,7.31,0,0,0-2.43,2.33c-2,2.76-3.49,5.88-5.7,8.47-2.86,3.37-6.78,5.68-9.71,9s-4.71,8.39-2.31,12.09c2,3,6,4,9.54,4.52,12.53,1.85,25.24,1.79,37.9,1.72a12.75,12.75,0,0,0,3.85-.41c3.58-1.17,5.41-5.4,5.08-9.15a20.33,20.33,0,0,0-2.23-6.82c-.65-1.39-1-3.48-1.81-4.73-1.14-1.73-3.53-2.12-5.22-3.13A16.36,16.36,0,0,1,159.46,184.69Z"/><path class="cls-4" d="M172,185.8a10.06,10.06,0,0,1,2-1.55c2.24-1.18,5.11-.06,6.83,1.79s2.62,4.3,3.74,6.56a32.56,32.56,0,0,1,2.06,4.45,22.37,22.37,0,0,1,.6,7.44,4.31,4.31,0,0,1-.83,2.91,4.23,4.23,0,0,1-3.26.85,121.86,121.86,0,0,1-17.68-1.76c-1.31-.23-2.81-.62-3.34-1.84a4.13,4.13,0,0,1-.24-1.68c0-3.92.09-6.4,2.32-9.68C166.23,190.22,169.83,188.67,172,185.8Z"/><path class="cls-2" d="M197.39,190.83a1.51,1.51,0,0,0-.87-.18,1.46,1.46,0,0,0-.66.4,17.93,17.93,0,0,0-4.7,6.17,9.88,9.88,0,0,0-.22,7.6,3.19,3.19,0,0,0,1,1.42,3.92,3.92,0,0,0,2.22.5c4,.09,13.92.88,14.49-5.11C209.14,196.79,201,192.39,197.39,190.83Z"/><path class="cls-3" d="M194.16,197.37c-2.64-2.07-6.52-1.72-9.41-3.43-1.27-.75-2.45-1.91-3.91-1.85a4.87,4.87,0,0,0-3.08,1.85,46.57,46.57,0,0,0-7.28,10c-1.23,2.27-2.23,5.2-.73,7.31a6.71,6.71,0,0,0,2,1.71c6.75,4.15,17.36,6.07,24.72,2.28C204,211.37,199.26,201.38,194.16,197.37Z"/><path class="cls-5" d="M172.09,203.85a1.22,1.22,0,0,0-.89-1,4,4,0,0,0-3,.36,27.55,27.55,0,0,0-2.65,1.69c-1.2.76-2.51,1.34-3.71,2.1a7,7,0,0,0-2.85,3.09,3.53,3.53,0,0,0,.75,3.93,5.15,5.15,0,0,0,2.15.94c2.89.76,11.27,3.47,13.13,0,.8-1.51-.06-3.21-.85-4.49-.66-1.07-1.58-1.57-1.92-2.88S172.4,205.07,172.09,203.85Z"/><path class="cls-4" d="M121.85,183.71a5.3,5.3,0,0,0-2.56.69,6.43,6.43,0,0,0-1.49,1.5,59.6,59.6,0,0,0-6,9.34,6.15,6.15,0,0,0-.92,2.9c0,2.24,2.27,3.76,4.36,4.57a46.79,46.79,0,0,0,6.07,1.74c5.84,1.38,17.44,3.19,16.4-6.28C136.86,190.82,129.44,183.31,121.85,183.71Z"/><path class="cls-2" d="M80.18,160.58c-1.17-2.05-1.9-4.37-3.34-6.24-3.22-4.16-9-5.09-14.31-5.32a8.27,8.27,0,0,0-3.36.35,7.46,7.46,0,0,0-2.64,2.1c-2.24,2.56-4,5.53-6.45,7.91-3.15,3.09-7.27,5-10.49,8.05s-5.46,7.92-3.42,11.82c1.69,3.22,5.56,4.53,9.09,5.38,12.3,3,25,4.11,37.58,5.21a12.8,12.8,0,0,0,3.86-.06c3.68-.83,5.89-4.87,5.91-8.64a20.62,20.62,0,0,0-1.59-7c-.52-1.44-.66-3.55-1.37-4.87-1-1.83-3.32-2.44-4.91-3.6A16.23,16.23,0,0,1,80.18,160.58Z"/><path class="cls-4" d="M90.07,173.06a9.11,9.11,0,0,1,2-1.55c2.24-1.18,5.1-.06,6.82,1.79s2.63,4.3,3.75,6.56a32.56,32.56,0,0,1,2.06,4.45,22.08,22.08,0,0,1,.59,7.44,4.31,4.31,0,0,1-.82,2.91,4.23,4.23,0,0,1-3.26.85,123.27,123.27,0,0,1-17.68-1.76c-1.31-.23-2.81-.63-3.34-1.84a4,4,0,0,1-.24-1.69c0-3.91.08-6.39,2.32-9.68C84.31,177.48,87.92,175.92,90.07,173.06Z"/><path class="cls-2" d="M110,181.72a1.58,1.58,0,0,0-.87-.17,1.46,1.46,0,0,0-.66.4,17.69,17.69,0,0,0-4.7,6.17,9.88,9.88,0,0,0-.22,7.6,3.17,3.17,0,0,0,1,1.42,4.05,4.05,0,0,0,2.23.5c4,.09,13.91.88,14.49-5.11C121.77,187.69,113.64,183.28,110,181.72Z"/><path class="cls-3" d="M110.43,184.63c-2.65-2.08-6.52-1.73-9.42-3.43-1.26-.75-2.44-1.91-3.91-1.85A4.9,4.9,0,0,0,94,181.19a46.73,46.73,0,0,0-7.28,10c-1.23,2.28-2.23,5.21-.73,7.32a6.73,6.73,0,0,0,2,1.71c6.75,4.15,17.35,6.06,24.71,2.28C120.29,198.63,115.53,188.64,110.43,184.63Z"/><path class="cls-5" d="M82.9,183.82a1.26,1.26,0,0,0-.89-1,4,4,0,0,0-3,.36,28,28,0,0,0-2.64,1.68c-1.2.77-2.51,1.35-3.72,2.11a7,7,0,0,0-2.84,3.09,3.51,3.51,0,0,0,.75,3.93,5.3,5.3,0,0,0,2.14.94c2.89.76,11.28,3.47,13.13,0,.81-1.52-.05-3.21-.84-4.49-.67-1.07-1.58-1.57-1.92-2.89S83.21,185.05,82.9,183.82Z"/><path class="cls-4" d="M30.84,160.05a5.17,5.17,0,0,0-2.56.69,6.39,6.39,0,0,0-1.49,1.49,59.75,59.75,0,0,0-6.05,9.35,6.21,6.21,0,0,0-.91,2.9c0,2.24,2.27,3.76,4.35,4.56a44.37,44.37,0,0,0,6.08,1.74c5.83,1.39,17.44,3.2,16.4-6.28C45.85,167.16,38.43,159.65,30.84,160.05Z"/><path class="cls-2" d="M46.58,126.39c-.87-2.19-1.27-4.59-2.44-6.64-2.6-4.57-8.25-6.32-13.42-7.27a8,8,0,0,0-3.38-.12,7.27,7.27,0,0,0-2.9,1.71C21.86,116.28,19.69,119,17,121c-3.56,2.61-7.91,4-11.52,6.49s-6.52,7.08-5,11.24c1.22,3.42,4.87,5.25,8.25,6.59,11.76,4.68,24.14,7.56,36.48,10.41a12.47,12.47,0,0,0,3.83.48c3.76-.3,6.52-4,7.06-7.73a20.32,20.32,0,0,0-.6-7.15c-.31-1.5-.15-3.61-.67-5-.71-1.95-2.94-2.88-4.36-4.25A16.4,16.4,0,0,1,46.58,126.39Z"/><path class="cls-4" d="M24.54,133a9.77,9.77,0,0,1,2-1.55c2.24-1.17,5.1-.06,6.82,1.8s2.63,4.29,3.75,6.56a32.44,32.44,0,0,1,2.06,4.44,22.1,22.1,0,0,1,.59,7.44,4.29,4.29,0,0,1-.82,2.91,4.23,4.23,0,0,1-3.26.85A120.74,120.74,0,0,1,18,153.7c-1.3-.23-2.8-.62-3.33-1.83a4,4,0,0,1-.24-1.69c0-3.92.08-6.4,2.32-9.68C18.78,137.43,22.39,135.88,24.54,133Z"/><path class="cls-2" d="M39,150.78a1.51,1.51,0,0,0-.87-.18,1.56,1.56,0,0,0-.67.41,17.74,17.74,0,0,0-4.69,6.16,10,10,0,0,0-.23,7.61,3.25,3.25,0,0,0,1,1.42,4,4,0,0,0,2.23.49c4,.09,13.91.89,14.49-5.11C50.78,156.75,42.65,152.34,39,150.78Z"/><path class="cls-3" d="M32.16,151.87c-2.65-2.08-6.52-1.73-9.42-3.44-1.26-.74-2.44-1.91-3.91-1.84a4.86,4.86,0,0,0-3.07,1.84,46.48,46.48,0,0,0-7.28,10c-1.23,2.27-2.23,5.2-.74,7.31a6.61,6.61,0,0,0,2,1.71c6.75,4.16,17.35,6.07,24.71,2.29C42,165.87,37.25,155.87,32.16,151.87Z"/><path class="cls-5" d="M17.37,143.78a1.42,1.42,0,0,0-.32-.65,1.4,1.4,0,0,0-.57-.35,4.05,4.05,0,0,0-3,.36,28.12,28.12,0,0,0-2.64,1.69c-1.2.76-2.51,1.34-3.72,2.1A6.92,6.92,0,0,0,4.24,150,3.5,3.5,0,0,0,5,154a5.16,5.16,0,0,0,2.14.94c2.89.76,11.28,3.47,13.13,0,.81-1.51-.05-3.21-.84-4.49-.67-1.07-1.58-1.57-1.92-2.88S17.68,145,17.37,143.78Z"/><path class="cls-4" d="M354.85,16.24a5.28,5.28,0,0,0-2.56.7,6.39,6.39,0,0,0-1.49,1.49,60.13,60.13,0,0,0-6.05,9.34,6.25,6.25,0,0,0-.91,2.91c0,2.23,2.27,3.75,4.35,4.56A47.4,47.4,0,0,0,354.27,37c5.83,1.38,17.44,3.2,16.4-6.28C369.86,23.36,362.44,15.84,354.85,16.24Z"/><path class="cls-2" d="M301.44,11.77c-1.35-1.94-2.29-4.18-3.9-5.91C294,2,288.06,1.62,282.8,1.88a8.26,8.26,0,0,0-3.31.66,7.34,7.34,0,0,0-2.43,2.34c-2,2.75-3.49,5.87-5.7,8.47-2.85,3.36-6.78,5.67-9.71,9s-4.7,8.39-2.31,12.1c2,3,6,4,9.54,4.52,12.53,1.84,25.24,1.78,37.9,1.72a12.72,12.72,0,0,0,3.85-.42c3.58-1.16,5.41-5.4,5.08-9.15a20.33,20.33,0,0,0-2.23-6.82c-.65-1.39-1-3.48-1.81-4.73-1.14-1.72-3.53-2.12-5.22-3.13A16.33,16.33,0,0,1,301.44,11.77Z"/><path class="cls-4" d="M314,12.87a9.83,9.83,0,0,1,2-1.55c2.24-1.17,5.1-.06,6.82,1.8s2.62,4.29,3.75,6.56a33.16,33.16,0,0,1,2.05,4.45,22,22,0,0,1,.6,7.43,4.34,4.34,0,0,1-.82,2.91,4.26,4.26,0,0,1-3.27.85,120.61,120.61,0,0,1-17.68-1.76c-1.31-.23-2.8-.62-3.34-1.83A4.21,4.21,0,0,1,303.8,30c0-3.92.09-6.4,2.32-9.68C308.21,17.29,311.81,15.74,314,12.87Z"/><path class="cls-2" d="M339.37,17.9a1.48,1.48,0,0,0-.87-.18,1.59,1.59,0,0,0-.66.41,17.65,17.65,0,0,0-4.69,6.16,9.86,9.86,0,0,0-.23,7.61,3.25,3.25,0,0,0,1,1.42,3.93,3.93,0,0,0,2.23.49c4,.09,13.91.89,14.49-5.11C351.12,23.87,343,19.46,339.37,17.9Z"/><path class="cls-3" d="M336.14,24.45c-2.64-2.08-6.51-1.73-9.41-3.44-1.27-.74-2.45-1.9-3.91-1.84A4.81,4.81,0,0,0,319.75,21a46.15,46.15,0,0,0-7.28,10c-1.23,2.28-2.24,5.2-.74,7.31a6.57,6.57,0,0,0,2,1.71c6.75,4.16,17.36,6.07,24.72,2.29C346,38.45,341.24,28.45,336.14,24.45Z"/><path class="cls-5" d="M314.07,30.92a1.51,1.51,0,0,0-.31-.65,1.42,1.42,0,0,0-.58-.34,4,4,0,0,0-3,.35A28.12,28.12,0,0,0,307.51,32c-1.21.77-2.52,1.34-3.72,2.11a6.92,6.92,0,0,0-2.85,3.09,3.53,3.53,0,0,0,.75,3.93,5.34,5.34,0,0,0,2.15.94c2.89.75,11.28,3.46,13.13,0,.8-1.51-.05-3.21-.85-4.48-.66-1.08-1.58-1.57-1.91-2.89S314.39,32.15,314.07,30.92Z"/><path class="cls-4" d="M263.84,14.42a5.15,5.15,0,0,0-2.56.7,6.43,6.43,0,0,0-1.5,1.49,60.07,60.07,0,0,0-6,9.34,6.15,6.15,0,0,0-.92,2.91c.05,2.23,2.28,3.75,4.36,4.56a47.25,47.25,0,0,0,6.07,1.74c5.84,1.38,17.45,3.2,16.4-6.28C278.84,21.54,271.42,14,263.84,14.42Z"/><path class="cls-2" d="M207.15,22.59c-1.61-1.73-2.85-3.81-4.69-5.3-4.08-3.31-10-2.88-15.14-1.89a8,8,0,0,0-3.19,1.11A7.36,7.36,0,0,0,182,19.16c-1.6,3-2.63,6.3-4.46,9.18-2.36,3.73-5.93,6.56-8.37,10.23s-3.49,9-.6,12.3C171,53.62,175.05,54,178.68,54c12.66.09,25.25-1.74,37.77-3.56a12.54,12.54,0,0,0,3.75-1c3.39-1.65,4.62-6.09,3.76-9.76a20.27,20.27,0,0,0-3.15-6.45C220,32,219.36,30,218.36,28.87c-1.37-1.55-3.79-1.61-5.61-2.37A16.33,16.33,0,0,1,207.15,22.59Z"/><path class="cls-4" d="M228.41,23.79a10.06,10.06,0,0,1,2-1.55c2.24-1.17,5.1-.06,6.83,1.8s2.62,4.29,3.74,6.56A32,32,0,0,1,243,35.05a22,22,0,0,1,.59,7.43,4.22,4.22,0,0,1-.82,2.91,4.23,4.23,0,0,1-3.26.85,120.47,120.47,0,0,1-17.68-1.76c-1.31-.22-2.81-.62-3.34-1.83a4,4,0,0,1-.24-1.69c0-3.92.09-6.4,2.32-9.68C222.65,28.21,226.26,26.66,228.41,23.79Z"/><path class="cls-2" d="M248.36,16.08a1.51,1.51,0,0,0-.87-.18,1.48,1.48,0,0,0-.66.41,17.68,17.68,0,0,0-4.7,6.16,9.9,9.9,0,0,0-.22,7.61,3.09,3.09,0,0,0,1,1.41,3.84,3.84,0,0,0,2.22.5c4,.09,13.91.89,14.49-5.11C260.11,22.05,252,17.64,248.36,16.08Z"/><path class="cls-3" d="M259.69,28.09c-2.64-2.08-6.52-1.73-9.41-3.44-1.27-.74-2.45-1.9-3.91-1.84a4.85,4.85,0,0,0-3.08,1.84,46.82,46.82,0,0,0-7.28,10c-1.23,2.28-2.23,5.2-.73,7.31a6.74,6.74,0,0,0,2,1.72c6.75,4.15,17.36,6.06,24.72,2.28C269.56,42.09,264.79,32.09,259.69,28.09Z"/><path class="cls-5" d="M223.06,29.1a1.42,1.42,0,0,0-.32-.65,1.38,1.38,0,0,0-.57-.34,4,4,0,0,0-3,.35,28.12,28.12,0,0,0-2.64,1.69c-1.2.77-2.51,1.34-3.71,2.11a6.92,6.92,0,0,0-2.85,3.09,3.53,3.53,0,0,0,.75,3.93,5.3,5.3,0,0,0,2.14.94c2.9.75,11.28,3.46,13.13,0,.81-1.51,0-3.21-.84-4.48-.67-1.08-1.58-1.57-1.92-2.89S223.37,30.32,223.06,29.1Z"/><path class="cls-4" d="M158.26,32.63a5.17,5.17,0,0,0-2.56.69,6.39,6.39,0,0,0-1.49,1.49,59.75,59.75,0,0,0-6.05,9.35,6.1,6.1,0,0,0-.91,2.9c0,2.24,2.27,3.76,4.35,4.56a44.37,44.37,0,0,0,6.08,1.74c5.83,1.39,17.44,3.2,16.4-6.27C173.27,39.74,165.85,32.23,158.26,32.63Z"/><path class="cls-2" d="M111.8,34.59c-1.71-1.63-3.07-3.64-5-5-4.27-3.07-10.13-2.29-15.23-1a8.22,8.22,0,0,0-3.12,1.3,7.28,7.28,0,0,0-1.92,2.77c-1.43,3.09-2.27,6.45-3.92,9.43-2.14,3.86-5.53,6.89-7.75,10.71s-3,9.15.12,12.31c2.54,2.6,6.62,2.74,10.25,2.55,12.64-.66,25.09-3.23,37.49-5.78a13,13,0,0,0,3.69-1.17c3.28-1.84,4.25-6.36,3.18-10a20.46,20.46,0,0,0-3.53-6.25c-.91-1.23-1.65-3.21-2.71-4.28-1.45-1.46-3.87-1.38-5.73-2A16.46,16.46,0,0,1,111.8,34.59Z"/><path class="cls-4" d="M146.5,25.61a9.77,9.77,0,0,1,2-1.55c2.24-1.17,5.1,0,6.82,1.8s2.63,4.29,3.75,6.56a31.35,31.35,0,0,1,2.05,4.45,22,22,0,0,1,.6,7.43,4.28,4.28,0,0,1-.82,2.91,4.19,4.19,0,0,1-3.26.85,120.61,120.61,0,0,1-17.69-1.76c-1.3-.22-2.8-.62-3.34-1.83a4.18,4.18,0,0,1-.23-1.69c0-3.92.08-6.4,2.32-9.68C140.74,30,144.34,28.48,146.5,25.61Z"/><path class="cls-2" d="M128.22,43.38a1.5,1.5,0,0,0-.87-.17,1.46,1.46,0,0,0-.66.4,17.93,17.93,0,0,0-4.7,6.17,9.88,9.88,0,0,0-.22,7.6,3.25,3.25,0,0,0,1,1.42,4,4,0,0,0,2.22.5c4,.09,13.92.88,14.49-5.11C140,49.35,131.84,44.94,128.22,43.38Z"/><path class="cls-3" d="M148.65,35.37c-2.64-2.08-6.51-1.73-9.41-3.44-1.27-.74-2.45-1.9-3.91-1.84a4.81,4.81,0,0,0-3.07,1.84,46.15,46.15,0,0,0-7.28,10c-1.23,2.28-2.24,5.2-.74,7.31a6.74,6.74,0,0,0,2,1.72C133,55.11,143.63,57,151,53.24,158.52,49.37,153.75,39.37,148.65,35.37Z"/><path class="cls-5" d="M121.12,49.12a1.57,1.57,0,0,0-.31-.65,1.35,1.35,0,0,0-.58-.34,4,4,0,0,0-3,.35,30.31,30.31,0,0,0-2.64,1.69c-1.2.77-2.52,1.34-3.72,2.11A7,7,0,0,0,108,55.37a3.53,3.53,0,0,0,.75,3.93,5.34,5.34,0,0,0,2.15.94c2.89.76,11.28,3.47,13.13,0,.8-1.52,0-3.21-.85-4.49-.66-1.07-1.58-1.57-1.91-2.89S121.44,50.35,121.12,49.12Z"/><path class="cls-4" d="M76.35,56.29a5.24,5.24,0,0,0-2.56.69,6.24,6.24,0,0,0-1.49,1.5,59.66,59.66,0,0,0-6,9.34,6.15,6.15,0,0,0-.92,2.9c0,2.24,2.28,3.76,4.36,4.57A47.25,47.25,0,0,0,75.76,77c5.84,1.38,17.45,3.19,16.4-6.28C91.35,63.4,83.93,55.89,76.35,56.29Z"/><path class="cls-4" d="M44.56,67.48a10.06,10.06,0,0,1,2-1.55c2.24-1.17,5.11-.06,6.83,1.8S56,72,57.09,74.29a32.44,32.44,0,0,1,2.06,4.44,22.37,22.37,0,0,1,.6,7.44,4.31,4.31,0,0,1-.83,2.91,4.23,4.23,0,0,1-3.26.85A120.47,120.47,0,0,1,38,88.17c-1.31-.23-2.8-.62-3.34-1.83a4.21,4.21,0,0,1-.24-1.69c0-3.92.09-6.4,2.32-9.68C38.81,71.9,42.41,70.35,44.56,67.48Z"/><path class="cls-2" d="M59.05,67.05a1.51,1.51,0,0,0-.87-.18,1.39,1.39,0,0,0-.66.41,17.68,17.68,0,0,0-4.7,6.16,9.9,9.9,0,0,0-.22,7.61,3.14,3.14,0,0,0,1,1.41,3.92,3.92,0,0,0,2.22.5c4,.09,13.91.89,14.49-5.11C70.8,73,62.67,68.61,59.05,67.05Z"/><path class="cls-5" d="M73.8,71a1.44,1.44,0,0,0-.32-.64,1.4,1.4,0,0,0-.57-.35,4.05,4.05,0,0,0-3,.36A26.23,26.23,0,0,0,67.23,72c-1.2.76-2.52,1.34-3.72,2.1a7,7,0,0,0-2.84,3.09,3.51,3.51,0,0,0,.75,3.93,5.3,5.3,0,0,0,2.14.94c2.89.76,11.28,3.47,13.13,0,.81-1.51,0-3.21-.84-4.49-.67-1.07-1.58-1.57-1.92-2.88S74.11,72.19,73.8,71Z"/><path class="cls-4" d="M361.74,14.42a5.2,5.2,0,0,1,2.56.7,6.58,6.58,0,0,1,1.49,1.49,60.07,60.07,0,0,1,6,9.34,6.15,6.15,0,0,1,.92,2.91c-.05,2.23-2.27,3.75-4.36,4.56a46.79,46.79,0,0,1-6.07,1.74c-5.84,1.38-17.44,3.2-16.4-6.28C346.73,21.54,354.15,14,361.74,14.42Z"/><path class="cls-2" d="M415.14,10C416.5,8,417.44,5.77,419.05,4c3.58-3.85,9.48-4.24,14.73-4a8.3,8.3,0,0,1,3.32.66,7.34,7.34,0,0,1,2.43,2.34c2,2.75,3.49,5.87,5.69,8.47,2.86,3.36,6.79,5.67,9.71,9s4.71,8.39,2.31,12.1c-2,3-5.94,4-9.54,4.52-12.52,1.84-25.24,1.78-37.9,1.71a12.38,12.38,0,0,1-3.84-.41c-3.59-1.16-5.42-5.4-5.08-9.15a20.32,20.32,0,0,1,2.22-6.82c.65-1.39,1-3.48,1.81-4.73,1.14-1.72,3.53-2.12,5.23-3.13A16.18,16.18,0,0,0,415.14,10Z"/><path class="cls-4" d="M402.62,11.05a9.77,9.77,0,0,0-2-1.55c-2.24-1.17-5.1-.06-6.82,1.8s-2.63,4.29-3.75,6.56a30.85,30.85,0,0,0-2,4.45,21.77,21.77,0,0,0-.6,7.43,4.29,4.29,0,0,0,.82,2.91,4.23,4.23,0,0,0,3.26.85,120.74,120.74,0,0,0,17.69-1.76c1.3-.23,2.8-.62,3.34-1.83a4.2,4.2,0,0,0,.23-1.69c0-3.92-.08-6.4-2.32-9.68C408.38,15.47,404.78,13.92,402.62,11.05Z"/><path class="cls-2" d="M377.21,16.08a1.51,1.51,0,0,1,.87-.18,1.48,1.48,0,0,1,.66.41,17.56,17.56,0,0,1,4.7,6.16,9.9,9.9,0,0,1,.22,7.61,3.14,3.14,0,0,1-1,1.41,3.89,3.89,0,0,1-2.23.5c-4,.09-13.91.89-14.49-5.11C365.46,22.05,373.59,17.64,377.21,16.08Z"/><path class="cls-3" d="M380.44,22.63c2.65-2.08,6.52-1.73,9.42-3.44,1.26-.74,2.44-1.9,3.91-1.84a4.86,4.86,0,0,1,3.07,1.84,46.48,46.48,0,0,1,7.28,10c1.23,2.28,2.23,5.2.73,7.31a6.46,6.46,0,0,1-2,1.71c-6.75,4.16-17.35,6.07-24.71,2.29C370.58,36.63,375.35,26.63,380.44,22.63Z"/><path class="cls-5" d="M402.51,29.1a1.42,1.42,0,0,1,.32-.65,1.38,1.38,0,0,1,.57-.34,4,4,0,0,1,3,.35,28.12,28.12,0,0,1,2.64,1.69c1.2.77,2.51,1.34,3.72,2.11a6.89,6.89,0,0,1,2.84,3.09,3.52,3.52,0,0,1-.75,3.93,5.3,5.3,0,0,1-2.14.94c-2.89.75-11.28,3.46-13.13,0-.81-1.51.05-3.21.84-4.48.67-1.08,1.58-1.57,1.92-2.89S402.2,30.32,402.51,29.1Z"/><path class="cls-4" d="M452.75,12.6a5.18,5.18,0,0,1,2.56.7,6.58,6.58,0,0,1,1.49,1.49,60.13,60.13,0,0,1,6.05,9.34,6.25,6.25,0,0,1,.91,2.91c0,2.23-2.27,3.75-4.36,4.56a46.79,46.79,0,0,1-6.07,1.74c-5.83,1.38-17.44,3.2-16.4-6.28C437.74,19.72,445.16,12.2,452.75,12.6Z"/><path class="cls-2" d="M497.06,20.87c1.35-1.94,2.29-4.18,3.9-5.91,3.59-3.84,9.48-4.24,14.73-4a8.1,8.1,0,0,1,3.32.65A7.34,7.34,0,0,1,521.44,14c2,2.75,3.49,5.87,5.69,8.47,2.86,3.36,6.79,5.67,9.72,9s4.7,8.39,2.3,12.1c-2,3-5.94,4-9.54,4.52-12.52,1.84-25.24,1.78-37.9,1.72a12.69,12.69,0,0,1-3.84-.42c-3.58-1.16-5.42-5.39-5.08-9.15A20.39,20.39,0,0,1,485,33.37c.65-1.39,1-3.47,1.81-4.73,1.15-1.72,3.53-2.12,5.23-3.13A16.33,16.33,0,0,0,497.06,20.87Z"/><path class="cls-4" d="M484.54,22a10.12,10.12,0,0,0-2-1.55c-2.24-1.17-5.1-.06-6.82,1.8s-2.63,4.29-3.75,6.56A32,32,0,0,0,470,33.23a22,22,0,0,0-.6,7.43,4.28,4.28,0,0,0,.82,2.91,4.24,4.24,0,0,0,3.26.85,120.61,120.61,0,0,0,17.69-1.76c1.3-.22,2.8-.62,3.34-1.83a4.18,4.18,0,0,0,.23-1.69c0-3.92-.08-6.4-2.31-9.68C490.29,26.39,486.69,24.84,484.54,22Z"/><path class="cls-2" d="M468.23,14.26a1.48,1.48,0,0,1,.87-.18,1.59,1.59,0,0,1,.66.41,17.65,17.65,0,0,1,4.69,6.16,9.9,9.9,0,0,1,.23,7.61,3.16,3.16,0,0,1-1,1.41,3.85,3.85,0,0,1-2.23.5c-4,.09-13.91.89-14.49-5.11C456.48,20.23,464.61,15.82,468.23,14.26Z"/><path class="cls-3" d="M456.89,31.73c2.65-2.08,6.52-1.73,9.42-3.44,1.26-.74,2.44-1.9,3.91-1.84a4.86,4.86,0,0,1,3.07,1.84,46.15,46.15,0,0,1,7.28,10c1.23,2.28,2.23,5.2.74,7.31a6.86,6.86,0,0,1-2,1.72c-6.76,4.15-17.36,6.06-24.72,2.28C447,45.73,451.8,35.73,456.89,31.73Z"/><path class="cls-5" d="M484.43,40a1.45,1.45,0,0,1,.31-.65,1.38,1.38,0,0,1,.57-.34,4,4,0,0,1,3,.35A28.12,28.12,0,0,1,491,41.07c1.2.77,2.52,1.34,3.72,2.11a6.84,6.84,0,0,1,2.84,3.09,3.52,3.52,0,0,1-.75,3.93,5.24,5.24,0,0,1-2.14.94c-2.89.76-11.28,3.46-13.13,0-.81-1.52.05-3.22.84-4.49.67-1.07,1.58-1.57,1.92-2.89S484.11,41.25,484.43,40Z"/><path class="cls-4" d="M525.56,32.63a5.17,5.17,0,0,1,2.56.69,6.39,6.39,0,0,1,1.49,1.49,59.75,59.75,0,0,1,6,9.35,6.1,6.1,0,0,1,.91,2.9c0,2.24-2.27,3.76-4.35,4.56a44.37,44.37,0,0,1-6.08,1.74c-5.83,1.39-17.44,3.2-16.4-6.27C510.55,39.74,518,32.23,525.56,32.63Z"/><path class="cls-2" d="M600.28,45.05c2-1.24,3.75-2.93,5.92-3.88,4.81-2.12,10.38-.15,15.1,2.17a8.1,8.1,0,0,1,2.79,1.92,7.32,7.32,0,0,1,1.31,3.1c.75,3.32.88,6.78,1.88,10,1.3,4.22,4,7.9,5.37,12.09s1,9.56-2.66,12c-3,2-7,1.31-10.55.38-12.23-3.26-23.89-8.34-35.49-13.41a12.3,12.3,0,0,1-3.37-1.9c-2.83-2.48-2.84-7.09-1.05-10.41a20.69,20.69,0,0,1,4.74-5.39c1.15-1,2.28-2.8,3.54-3.62,1.73-1.14,4.07-.55,6-.81A16.27,16.27,0,0,0,600.28,45.05Z"/><path class="cls-4" d="M573.73,42a9.36,9.36,0,0,0-2-1.55c-2.24-1.18-5.11-.06-6.83,1.79s-2.62,4.29-3.74,6.56a32.56,32.56,0,0,0-2.06,4.45,22.35,22.35,0,0,0-.6,7.44,4.31,4.31,0,0,0,.83,2.91,4.27,4.27,0,0,0,3.26.85,123.27,123.27,0,0,0,17.68-1.76c1.31-.23,2.81-.63,3.34-1.84a4.16,4.16,0,0,0,.24-1.69c0-3.91-.09-6.39-2.32-9.68C579.48,46.42,575.88,44.86,573.73,42Z"/><path class="cls-2" d="M542.86,34.28a1.48,1.48,0,0,1,.87-.17,1.46,1.46,0,0,1,.66.4,17.78,17.78,0,0,1,4.69,6.17,9.83,9.83,0,0,1,.23,7.6,3.25,3.25,0,0,1-1,1.42,4,4,0,0,1-2.23.5c-4,.09-13.91.88-14.49-5.11C531.11,40.25,539.24,35.84,542.86,34.28Z"/><path class="cls-3" d="M542.45,42.65c2.64-2.08,6.51-1.73,9.41-3.44,1.27-.74,2.45-1.9,3.91-1.84a4.85,4.85,0,0,1,3.07,1.84,46.15,46.15,0,0,1,7.28,10c1.24,2.28,2.24,5.21.74,7.31a6.74,6.74,0,0,1-2,1.72c-6.75,4.15-17.36,6.06-24.72,2.28C532.58,56.65,537.35,46.65,542.45,42.65Z"/><path class="cls-5" d="M575.44,58.22a1.47,1.47,0,0,1,.31-.64,1.51,1.51,0,0,1,.58-.35,4,4,0,0,1,3,.36A29.52,29.52,0,0,1,582,59.27c1.2.77,2.51,1.35,3.71,2.11a7,7,0,0,1,2.85,3.09,3.53,3.53,0,0,1-.75,3.93,5.28,5.28,0,0,1-2.15.94c-2.89.76-11.27,3.47-13.13,0-.8-1.51.06-3.21.85-4.49.66-1.07,1.58-1.57,1.92-2.89S575.13,59.45,575.44,58.22Z"/><path class="cls-4" d="M636.6,80a5.18,5.18,0,0,1,2.56.7,6.58,6.58,0,0,1,1.49,1.49,59.35,59.35,0,0,1,6,9.34,6.15,6.15,0,0,1,.92,2.91c0,2.23-2.27,3.75-4.36,4.56a46.79,46.79,0,0,1-6.07,1.74c-5.84,1.38-17.44,3.2-16.4-6.28C621.59,87.07,629,79.55,636.6,80Z"/><path class="cls-2" d="M635.42,113.65c.87-2.2,1.27-4.59,2.44-6.65,2.6-4.57,8.25-6.31,13.42-7.26a8,8,0,0,1,3.38-.13,7.39,7.39,0,0,1,2.9,1.71c2.58,2.22,4.75,4.92,7.49,6.93,3.56,2.62,7.91,4,11.52,6.5s6.52,7.08,5,11.23c-1.22,3.43-4.87,5.26-8.25,6.6-11.76,4.68-24.14,7.56-36.48,10.41a12.47,12.47,0,0,1-3.83.48c-3.76-.3-6.52-4-7.06-7.73a20.3,20.3,0,0,1,.6-7.15c.31-1.5.15-3.61.67-5,.71-1.94,2.94-2.87,4.36-4.25A16.27,16.27,0,0,0,635.42,113.65Z"/><path class="cls-4" d="M655.64,85.68a9.77,9.77,0,0,0-2-1.55c-2.24-1.17-5.1-.06-6.82,1.8s-2.63,4.29-3.75,6.56a32,32,0,0,0-2.06,4.45,22,22,0,0,0-.59,7.43,4.28,4.28,0,0,0,.82,2.91,4.23,4.23,0,0,0,3.26.85,120.47,120.47,0,0,0,17.68-1.76c1.31-.22,2.81-.62,3.34-1.83a4,4,0,0,0,.24-1.69c0-3.92-.08-6.4-2.32-9.68C661.4,90.1,657.79,88.55,655.64,85.68Z"/><path class="cls-2" d="M650.26,134.4a1.48,1.48,0,0,1,.87-.18,1.5,1.5,0,0,1,.66.41,17.65,17.65,0,0,1,4.69,6.16,10,10,0,0,1,.23,7.61,3.22,3.22,0,0,1-1,1.41,4,4,0,0,1-2.23.5c-4,.09-13.91.89-14.49-5.11C638.5,140.36,646.63,136,650.26,134.4Z"/><path class="cls-3" d="M618.9,70c2.64-2.07,6.52-1.72,9.41-3.43,1.27-.75,2.45-1.91,3.91-1.85a4.87,4.87,0,0,1,3.08,1.85,46.57,46.57,0,0,1,7.28,10c1.23,2.27,2.23,5.2.73,7.31a6.71,6.71,0,0,1-2,1.71c-6.75,4.15-17.36,6.07-24.72,2.28C609,84,613.8,74,618.9,70Z"/><path class="cls-5" d="M633.69,96.45a1.51,1.51,0,0,1,.31-.65,1.42,1.42,0,0,1,.58-.34,4,4,0,0,1,3,.35,29.63,29.63,0,0,1,2.65,1.69c1.2.77,2.51,1.34,3.71,2.11a6.92,6.92,0,0,1,2.85,3.09,3.53,3.53,0,0,1-.75,3.93,5.34,5.34,0,0,1-2.15.94c-2.89.75-11.27,3.46-13.13,0-.8-1.51.05-3.21.85-4.48.66-1.08,1.58-1.57,1.91-2.89S633.38,97.68,633.69,96.45Z"/></g></svg>