<svg xmlns="http://www.w3.org/2000/svg" viewBox="0 0 682 682"><defs><style>.cls-1{fill:#fff;}.cls-2{fill:#e6e6e6;}</style></defs><g id="Layer_9" data-name="Layer 9"><path class="cls-1" d="M634.7,363.07s51.76-59.7,22.49-121.19S568.8,141.64,503.31,131.28c0,0-20.68-69.62-89.92-93.72C347.89,14.76,162.72,6.69,192.08,78c0,0-92.85-49.74-145.79,49.69s0,131,0,131S15.84,301.45,15.84,373.23s96.45,116.33,96.45,116.33-18.38,27.91,36.88,82.33,108.4,33.86,108.4,33.86,41.5,54.85,119,54.85,149.75-33,163.3-88.71c0,0,37.2-1.07,85.81-48.94S679.86,387.87,634.7,363.07ZM519.1,307.93s4.54-78.52-57.69-109.74c-33.91-17-111.2,11.33-111.2,11.33s17.71-42.44-30-66.31c-66.05-33-93.49,11.69-93.49,11.69s-7.95-34.63-65.64-7.57c0,0,59.67-40.74,121.34-40.74s83.54,48.31,83.54,48.31,53.71-24.31,115.37,20.46S519.1,307.93,519.1,307.93Z"/><path class="cls-2" d="M155.08,417.22s-25.86,82.52,37.8,125.72S341,562.19,341,562.19,167,548.67,155.08,417.22Z"/><path class="cls-2" d="M226.69,198.25S95.41,193.3,95.41,280.31s65.64,104.9,65.64,104.9S37.72,246,226.69,198.25Z"/><path class="cls-2" d="M81.34,348.37s-24.6,68.85,22,90.63C103.36,439,66.56,401.37,81.34,348.37Z"/><path class="cls-2" d="M328.45,512.64s153.1,33.91,210.66-43.77,19.77-125.14,19.77-125.14S517.72,512.64,328.45,512.64Z"/></g></svg>