<svg id="Layer_3" data-name="Layer 3" xmlns="http://www.w3.org/2000/svg" viewBox="0 0 682 682"><defs><style>.cls-1{fill:#f1e5d9;}.cls-2{fill:#d1b6a3;}</style></defs><circle class="cls-1" cx="341" cy="341" r="341.5"/><path class="cls-2" d="M129.82,499.39q0-21.48,10.29-38t35.34-45.19l70.7-82.33-119-141.38q7.16-34,28.19-55.48t52.35-21.48q29.54,0,45.64,14.32t35.79,40.27l56.37,75.16q24.16-32.2,48.32-64t48.33-64.87a41.86,41.86,0,0,1,8.05-.9h7.16q42,0,66.66,17.9t24.61,46.53a81.42,81.42,0,0,1-2.68,21.48,88.29,88.29,0,0,1-8.5,20.13,147.47,147.47,0,0,1-16.11,22.37Q511,256,496.7,272.1l-59.95,66.22,118.12,154.8q-4.49,34-26.85,53.69T474.33,566.5q-34-.9-54.14-19.69t-38.92-45.63L333,432.27,241.67,563.81c-3,0-6.26.15-9.84.45s-6.57.45-9,.45q-45.63,0-69.35-18.79T129.82,499.39Z"/></svg>