<svg xmlns="http://www.w3.org/2000/svg" width="422" height="255" viewBox="0 0 422 255">
  <g id="Group_747" data-name="Group 747" transform="translate(-0.331 15.485)">
    <text id="what_do_they_want_" data-name="what do
they want?" transform="translate(0.331 37.515)" fill="#62892b" font-size="49" font-family="Baloo2-ExtraBold, 'Baloo 2'" font-weight="800"><tspan x="0" y="0">WHAT DO</tspan><tspan x="0" y="39">THEY WANT?</tspan></text>
    <g id="Rectangle_1428" data-name="Rectangle 1428" transform="translate(0.331 77.515)" fill="#62892b" stroke="#707070" stroke-width="1">
      <path d="M0,0H341a81,81,0,0,1,81,81v0a81,81,0,0,1-81,81H81A81,81,0,0,1,0,81V0A0,0,0,0,1,0,0Z" stroke="none"/>
      <path d="M.945.5H341A80.5,80.5,0,0,1,421.5,81v0A80.5,80.5,0,0,1,341,161.5H81A80.5,80.5,0,0,1,.5,81V.945A.445.445,0,0,1,.945.5Z" fill="none"/>
    </g>
  </g>
</svg>
