<svg id="Layer_3" data-name="Layer 3" xmlns="http://www.w3.org/2000/svg" viewBox="0 0 682 682"><defs><style>.cls-1{fill:#1d1c1a;}.cls-2{fill:#5e5f5f;}.cls-3{fill:#00ad53;}.cls-4{fill:#0b8a4c;}.cls-5{fill:#0d8a48;}.cls-6{fill:#0c934f;}.cls-7{fill:#21b253;}.cls-8{fill:#43b553;}.cls-9{fill:#14743b;}</style></defs><path class="cls-1" d="M68.12,548.36A19.22,19.22,0,1,1,48.9,529.13,19.21,19.21,0,0,1,68.12,548.36Z"/><path class="cls-2" d="M60.71,548.36A11.81,11.81,0,1,1,48.9,536.55,11.8,11.8,0,0,1,60.71,548.36Z"/><path class="cls-1" d="M54.76,549.11a5.86,5.86,0,1,1-5.86-5.86A5.86,5.86,0,0,1,54.76,549.11Z"/><path class="cls-3" d="M44.39,520.42l.91,29.14s-.91,3.61,3.6,3.91c0,0,3,.6,4.81-3.31l11.41-27.93Z"/><polygon class="cls-4" points="39.59 513.22 42.29 523.43 68.12 523.43 68.12 514.42 39.59 513.22"/><path class="cls-3" d="M51,548.71a2.25,2.25,0,1,1-2.25-2.25A2.26,2.26,0,0,1,51,548.71Z"/><path class="cls-1" d="M651.32,548.36a19.22,19.22,0,1,1-19.22-19.23A19.22,19.22,0,0,1,651.32,548.36Z"/><path class="cls-2" d="M643.92,548.36a11.82,11.82,0,1,1-11.82-11.81A11.82,11.82,0,0,1,643.92,548.36Z"/><path class="cls-1" d="M638,549.11a5.86,5.86,0,1,1-5.86-5.86A5.86,5.86,0,0,1,638,549.11Z"/><path class="cls-3" d="M627.59,520.42l.9,29.14s-.9,3.61,3.61,3.91c0,0,3,.6,4.8-3.31l11.42-27.93Z"/><polygon class="cls-4" points="622.79 513.22 625.49 523.43 651.32 523.43 651.32 514.42 622.79 513.22"/><path class="cls-3" d="M634.2,548.71a2.26,2.26,0,1,1-2.25-2.25A2.26,2.26,0,0,1,634.2,548.71Z"/><rect class="cls-3" x="6.85" y="215.29" width="667.3" height="301.02"/><polygon class="cls-5" points="56.43 216.34 59.77 246.38 67.82 246.38 71.35 215.86 56.43 216.34"/><polygon class="cls-5" points="167.08 216.34 170.41 246.38 178.47 246.38 181.99 215.86 167.08 216.34"/><polygon class="cls-5" points="277.72 216.34 281.05 246.38 289.11 246.38 292.63 215.86 277.72 216.34"/><polygon class="cls-5" points="388.37 216.34 391.7 246.38 399.75 246.38 403.28 215.86 388.37 216.34"/><polygon class="cls-5" points="499.01 216.34 502.35 246.38 510.39 246.38 513.92 215.86 499.01 216.34"/><polygon class="cls-5" points="609.65 216.34 612.99 246.38 621.04 246.38 624.57 215.86 609.65 216.34"/><rect class="cls-4" x="6.85" y="215.29" width="667.3" height="12.6"/><polygon class="cls-6" points="318.96 100.83 355.96 100.83 355.96 222.72 325.69 222.72 318.96 100.83"/><polygon class="cls-4" points="334.22 100.83 318.96 100.83 325.69 222.72 334.22 222.72 334.22 100.83"/><rect class="cls-4" x="347.1" y="100.83" width="8.86" height="121.9"/><path class="cls-3" d="M331.94,96.82H127.22C66,99.11,8.77,190.1,8.77,190.1l308.07,2v.31l15.85-.06Z"/><path class="cls-7" d="M17.17,177.9c-5.39,7.41-8.4,12.2-8.4,12.2l308.07,2v.31l15.85-.06-.12-14.44Z"/><path class="cls-3" d="M553.78,96.82h-205l1.52,95.44,13.9.14v-.31l308.08-2S615,99.11,553.78,96.82Z"/><path class="cls-7" d="M350,177.9l.23,14.36,13.9.14v-.31l308.08-2s-3-4.79-8.4-12.2Z"/><rect class="cls-4" x="2.32" y="200.02" width="330.7" height="5.34"/><rect class="cls-3" x="-0.5" y="204.99" width="336.33" height="17.54"/><rect class="cls-3" x="-0.5" y="184.38" width="336.33" height="17.55"/><rect class="cls-8" x="-0.5" y="182.2" width="336.33" height="3.23"/><rect class="cls-9" x="347.98" y="200.02" width="330.7" height="5.34"/><rect class="cls-3" x="345.16" y="204.99" width="336.34" height="17.54"/><rect class="cls-3" x="345.16" y="184.38" width="336.34" height="17.55"/><rect class="cls-8" x="345.16" y="182.2" width="336.34" height="3.23"/><path class="cls-4" d="M145,106.35c-20.72,0-40.11,9.44-56,22.2a285.17,285.17,0,0,0-44.41,44.76l.19,2.84.48,0h56.1c14.56-27.19,29.54-52.34,54.45-68.48V104Z"/><path class="cls-4" d="M210.87,103.9l-41.05,2.45c-27.61,13.48-47.9,39.14-63.21,67,0,0,0,.06,0,.09v2.77h65.37a257.45,257.45,0,0,1,13.12-30.68,189.78,189.78,0,0,1,26-38.52Z"/><path class="cls-4" d="M271.92,106.35c-5,11.34-7.93,23.7-10.38,35.72-2.18,10.7-5.52,20.43-7.24,31.15-.12.67-.25,2.26.32,3h62.82V106.35s-1.12-2.42-1.53-2.42C312.4,103.93,295.2,106.35,271.92,106.35Z"/><path class="cls-4" d="M256.54,134.14c2.18-9.37,3.87-18.34,7.48-27.3l-.43-3-43,2.48a182.43,182.43,0,0,0-33.17,49.25c-2.91,6.26-6.81,11.29-9.25,17.73-.18.49-.27,2.39.33,2.85h70.25C250.88,162.09,253.31,148.06,256.54,134.14Z"/><path class="cls-7" d="M155.92,103.88H142.7c-20.61,0-39.89,9.39-55.7,22.08-27.86,22.36-40.54,47.36-42.74,47.36h55C113.77,146.29,131.17,119.93,155.92,103.88Z"/><path class="cls-7" d="M184.28,142.81a195.84,195.84,0,0,1,26.5-38.93H169.13c-28.14,13.74-47.1,41-62.53,69.44h64.63A254.63,254.63,0,0,1,184.28,142.81Z"/><path class="cls-7" d="M270.66,103.88c-5,11.28-7.9,23.56-10.33,35.52-2.3,11.3-4.26,22.59-6.07,33.92h61.65V103.88Z"/><path class="cls-7" d="M255.36,131.51a185.88,185.88,0,0,1,8.28-27.63h-44a181.59,181.59,0,0,0-33,49c-3.11,6.7-5.83,13.56-8.42,20.47h69.41C249.73,159.31,252.15,145.36,255.36,131.51Z"/><path class="cls-4" d="M536.46,106.35c20.72,0,40.1,9.44,56,22.2a286.13,286.13,0,0,1,44.41,44.76l-.19,2.84-.48,0H580.1c-14.56-27.19-29.53-52.34-54.44-68.48V104Z"/><path class="cls-4" d="M470.55,103.9l41.05,2.45c27.61,13.48,47.9,39.14,63.22,67a.32.32,0,0,1,0,.09v2.77H509.49a257.45,257.45,0,0,0-13.12-30.68c-7.43-14.18-15.56-26.7-26-38.52Z"/><path class="cls-4" d="M409.5,106.35c5,11.34,7.94,23.7,10.39,35.72,2.17,10.7,5.52,20.43,7.24,31.15.11.67.25,2.26-.32,3H364V106.35s1.11-2.42,1.52-2.42C369,103.93,386.22,106.35,409.5,106.35Z"/><path class="cls-4" d="M424.88,134.14c-2.17-9.37-3.87-18.34-7.48-27.3l.43-3,43,2.48A182.7,182.7,0,0,1,494,155.6c2.9,6.26,6.8,11.29,9.24,17.73.19.49.27,2.39-.32,2.85H432.71C430.55,162.09,428.12,148.06,424.88,134.14Z"/><path class="cls-7" d="M525.5,103.88h13.23c20.61,0,39.88,9.39,55.7,22.08,27.85,22.36,40.53,47.36,42.73,47.36h-55C567.65,146.29,550.26,119.93,525.5,103.88Z"/><path class="cls-7" d="M497.14,142.81a195.8,195.8,0,0,0-26.49-38.93h41.64c28.14,13.74,47.1,41,62.53,69.44H510.19A253,253,0,0,0,497.14,142.81Z"/><path class="cls-7" d="M410.77,103.88c5,11.28,7.9,23.56,10.33,35.52,2.29,11.3,4.26,22.59,6.07,33.92H365.51V103.88Z"/><path class="cls-7" d="M426.07,131.51a189.47,189.47,0,0,0-8.27-27.63h44a181.82,181.82,0,0,1,33,49c3.1,6.7,5.82,13.56,8.42,20.47H433.84C431.7,159.31,429.28,145.36,426.07,131.51Z"/><rect class="cls-9" x="29.37" y="258.97" width="140.31" height="237.31"/><polygon class="cls-8" points="169.68 496.28 29.37 496.28 169.68 258.97 169.68 496.28"/><rect class="cls-3" x="34.55" y="267.75" width="129.93" height="219.76"/><rect class="cls-9" x="190.01" y="258.97" width="140.32" height="237.31"/><polygon class="cls-8" points="330.33 496.28 190.01 496.28 330.33 258.97 330.33 496.28"/><rect class="cls-3" x="195.21" y="267.75" width="129.93" height="219.76"/><rect class="cls-9" x="350.67" y="258.97" width="140.31" height="237.31"/><polygon class="cls-8" points="490.99 496.28 350.68 496.28 490.99 258.97 490.99 496.28"/><rect class="cls-3" x="355.86" y="267.75" width="129.93" height="219.76"/><rect class="cls-9" x="511.33" y="258.97" width="140.3" height="237.31"/><polygon class="cls-8" points="651.63 496.28 511.33 496.28 651.63 258.97 651.63 496.28"/><rect class="cls-3" x="516.52" y="267.75" width="129.93" height="219.76"/></svg>