<svg xmlns="http://www.w3.org/2000/svg" viewBox="0 0 682 682"><defs><style>.cls-1{isolation:isolate;}.cls-10,.cls-2{fill:#f9bd79;}.cls-3{fill:#f5aa61;}.cls-4{fill:#ad7b46;opacity:0.6;}.cls-4,.cls-7,.cls-9{mix-blend-mode:multiply;}.cls-5{fill:#b38049;}.cls-6,.cls-9{fill:#9a6f3f;}.cls-7,.cls-9{opacity:0.3;}.cls-8{fill:#9b6f3e;}.cls-10{opacity:0.4;mix-blend-mode:screen;}</style></defs><g class="cls-1"><g id="Layer_3" data-name="Layer 3"><path class="cls-2" d="M144.79,366.19s64.09-18,66.65-18,112,15.39,112,15.39l49.56.86,53-21.37,159.81-55.54,54.69-3.43-80.33-13.68L473,263.63l-102.55-12-66.66,12-133.31,4.28-63.25,30.76-29.91,5.12L50.78,314.92-.5,333.71l71.79,9.4Z"/><path class="cls-3" d="M422.53,466.17l5.12-29.05-10.26-19.66,19.66-33.33-11.11-41-53,21.37-49.56-.86S214,348.23,211.44,348.23s-66.65,18-66.65,18l-73.5-23.08L-.5,333.71,26,385,14,436.26l26.5,63.24,282.86,24.78,37.6,8.55,61.54,3.41,6.83-53.83Z"/><path class="cls-3" d="M622.5,359.35c-1.71-2.57-2.57-12-2.57-12l20.51-63.25-54.69,3.43L425.94,343.11l11.11,41-19.66,33.33,10.26,19.66-5.12,29.05,6.83,16.24-6.83,53.83,58.11-20.51L537,490.11,655,420S624.21,361.91,622.5,359.35Z"/><path class="cls-4" d="M622.5,359.35c-1.71-2.57-2.57-12-2.57-12l20.51-63.25-54.69,3.43L425.94,343.11l11.11,41-19.66,33.33,10.26,19.66-5.12,29.05,6.83,16.24-6.83,53.83,58.11-20.51L537,490.11,655,420S624.21,361.91,622.5,359.35Z"/><polygon class="cls-5" points="295.19 263.63 175.98 268.34 513.97 312.77 552 299.1 295.19 263.63"/><path class="cls-6" d="M514,312.77l7.26,76.06,3.86-8.55,7.26,3.85,6.83-9.83,3-3.84,5.56,3.84,3-1.27,2.57-7.7s2.56-3,3.84-1.71S552,299.1,552,299.1Z"/><g class="cls-7"><path class="cls-8" d="M55.83,404.23A132.87,132.87,0,0,0,28.28,383.8c13.49,11.59,26.1,25,41.41,34a.58.58,0,0,0,.18,0C65.15,413.4,60.56,408.74,55.83,404.23Z"/><path class="cls-8" d="M349.73,426.58c8.31-3.62,16.74-7,25.14-10.37,13.25-5.39,26.47-10.83,39.57-16.6,7.11-3.45,14.21-7,21.24-10.54,1-.75,2-1.51,2.94-2.29-36.63,11.93-71.57,30-106.49,46.06A2.48,2.48,0,0,0,331,434C337.45,432.21,343.61,429.24,349.73,426.58Z"/><path class="cls-8" d="M485.19,410a67.74,67.74,0,0,0,10.12-4.54c-27,1.91-53.34,7.71-80,11.41-2.46.9-4.91,1.91-7.34,2.95,9.27,1.06,20.34-1.92,29.31-3C453.32,414.91,469.29,412.69,485.19,410Z"/><path class="cls-8" d="M451.5,461.47c-26.19,3.64-51.52,10-76.6,17.88-2.21,1.1-4.39,2.22-6.6,3.31,22.66-6.06,45.54-10.83,68.52-15.48A122.8,122.8,0,0,0,451.5,461.47Z"/><path class="cls-8" d="M624,334.88c-9.43,17.19-23.66,32.46-34.89,48.53C577,400.88,565.55,418.82,554.46,437c-.53.86-.46,1.49-.09,1.82,3.28-4,6.32-8.3,9.56-12.28,2.72-3.37,5.52-6.65,8.31-10,7-10.46,13.92-21,20.91-31.54,10-15,22.44-29.37,29.91-45.91C623.4,337.71,623.74,336.3,624,334.88Z"/><path class="cls-8" d="M466.28,485.79A191.71,191.71,0,0,0,485.9,483c1.43-.26,2.94-.5,4.48-.73a1.31,1.31,0,0,0-.93-.5c-26.41-3.94-52.37-1.4-78.73-3.09a36.91,36.91,0,0,0,4.93,2.52A415,415,0,0,0,466.28,485.79Z"/><path class="cls-8" d="M321.3,524c-29.79-13.32-61.33-22.8-92.15-33.37-23.14-7.91-47.58-20.79-72.34-27.25a84.59,84.59,0,0,0-20.71-1.83c14.46,3.15,28.3,9.88,41.91,15.3,16,6.37,32,12.58,48.07,18.78,23.66,9.16,48.2,16.9,72.62,24.44C306.26,521,313.8,522.4,321.3,524Z"/></g><path class="cls-9" d="M107.7,433.4c-.79-1.83-2.7-2.11-4.47-1.69,0-.13,0-.26-.07-.39-1.34-2.89-6.16-1.54-7.76.2a2.9,2.9,0,0,0-2.59,2.08,2.4,2.4,0,0,0,.92,2.71c1,.73,2.58.61,3.81.5a5.27,5.27,0,0,0,.26,3.77c2.22,3.91,7.57,1,9.24-1.87A5.65,5.65,0,0,0,107.7,433.4Z"/><path class="cls-9" d="M129.18,436.4c-1.31-2.65-5.51-2.31-7.87-.67a3.84,3.84,0,0,0-1.65,1.33,2.19,2.19,0,0,0,.8,3.24,7.28,7.28,0,0,0,3.31.41,9.46,9.46,0,0,0,3.46-.53C128.54,439.67,129.88,437.82,129.18,436.4Z"/><path class="cls-9" d="M100.12,457.79c-2.21-3.92-6.29-2.54-9.51-4.53-1.9-1.16-3.85-2.31-5.76-3.51a8.7,8.7,0,0,0-1.77-.81.52.52,0,0,0-.14-.46c-4.3-4.23-8.53-10.92-15.4-6.45-3.26,2.13-6,4.79-6.52,8.84a11.45,11.45,0,0,0,.16,3.14,54.16,54.16,0,0,0-5.11,2.57c-5.15,1.47-10.53,3.65-8.48,9.14,1.87,5,6.87,8.4,12,6.29,2.58-1.07,4.61-3.53,6.24-5.67,3.42-4.5,5.6-.25,8.63,2.67,6,5.82,12.56,3.17,15.1-4.57a8.5,8.5,0,0,0,.33-1.39c.58.29,1.15.59,1.73.85a7.9,7.9,0,0,0,4.25.33C98.1,463.49,101.76,460.68,100.12,457.79Z"/><path class="cls-9" d="M108.09,464.19l-.57.07c-1.92.23-4.31,3.45-2.52,5.12s4.65-1.06,4.92-2.91c0-.16,0-.35.07-.52C110.18,464.7,109.21,464,108.09,464.19Z"/><path class="cls-9" d="M91.71,412.78c-2.14,0-4.23,4.22-1.54,4.22C92.32,417,94.41,412.78,91.71,412.78Z"/><path class="cls-9" d="M299.42,310.11c-8.91-.24-13.84.23-20.17-7.19a10.5,10.5,0,0,0-6.46-3.45c-5.47-3.84-12.37.18-16.4,4.63-2.65,2.91-2.75,7.27-5.56,10.3a13.65,13.65,0,0,1-6.05,3.33c-8.5.54-19-.18-23.22,1.71-6.19,2.82-4.26,7.7-.81,11.95,2.75,3.38,16.61.18,18.33.23,10.48.26,18.06,6.53,28.46,5.93,8.53-.48,17.21-4,25.52-5.61,4.77-.93,12.4-.95,16.09-4.92C317.83,317.64,309.82,310.37,299.42,310.11Z"/><path class="cls-9" d="M335.08,304.54c-2-2.75-6-2.66-9.12-1.3l-1.57.08a4.65,4.65,0,0,0-3.93,2.94c-1.4,3.85,4.45,4.43,6.82,4.76C330.48,311.44,338.44,309.12,335.08,304.54Z"/><path class="cls-9" d="M339.93,316.51a8.72,8.72,0,0,0-6.49,1.21,5,5,0,0,0-1.6.44c-1.81.87-3.51,3.21-2,5.14a6.76,6.76,0,0,0,5.42,2c3.28-.27,8.69-1.24,9.36-5.15C345.08,317.52,341.7,317,339.93,316.51Z"/><path class="cls-9" d="M315.06,329.81c-1.79,0-3.52,3.52-1.28,3.52C315.57,333.33,317.3,329.81,315.06,329.81Z"/><path class="cls-9" d="M47.18,427.35h0a2,2,0,0,0-1,.46s0,0,0,0a3.69,3.69,0,0,0-.63.47c-.73.37-1.31,1.33-.87,2a1.47,1.47,0,0,0,2.18,1.05l-.62.2c1.36.16,2.67-1.3,2.83-2.54A1.46,1.46,0,0,0,47.18,427.35Z"/><path class="cls-9" d="M481.36,440.56a3.83,3.83,0,0,0-1.33-.06c-1.37-.24-2.95,1.93-2,3.17a2.07,2.07,0,0,0,1.46.73C481.25,444.78,483.38,441,481.36,440.56Z"/><path class="cls-9" d="M494,440.1c-.21-1.25-1.79-.15-1.91.63a3.11,3.11,0,0,0-.06.44c-.23,1.47,2.28.71,2-.67C494,440.36,494,440.22,494,440.1Z"/><path class="cls-9" d="M509.93,434.4l0-.06,0-.11v0a1.8,1.8,0,0,0-1.58-.39,3.49,3.49,0,0,0-2.66,2.86,5.42,5.42,0,0,0,0,1.45,1.74,1.74,0,0,0,1.66,1.55l.16,0a3.69,3.69,0,0,0,3.48-3.12.89.89,0,0,0,0-.15A1.91,1.91,0,0,0,509.93,434.4Z"/><path class="cls-9" d="M607.36,393c-1.87,0-3.67,3.68-1.34,3.68C607.89,396.65,609.68,393,607.36,393Z"/><path class="cls-9" d="M599.89,415l0,0a2.08,2.08,0,0,0-.47.39,3.42,3.42,0,0,0-.67,1.09,2.36,2.36,0,0,0-.1,1.18,1,1,0,0,0,.86,1.05c1.41.61,3.18-1.22,3.35-2.52C603.05,414.34,601.09,414.08,599.89,415Z"/><path class="cls-9" d="M626.1,414.66a4,4,0,0,0-1.63.77c-.58.52-1.22,1.36-.81,2.19a1.22,1.22,0,0,0,1.71.32,1.86,1.86,0,0,0,1.18-.6l.3-.3C627.61,416.29,627.67,414.24,626.1,414.66Z"/><path class="cls-9" d="M613.58,417.75c-.15,0-.29.28-.1.28S613.75,417.75,613.58,417.75Z"/><path class="cls-9" d="M618.19,410.79a3.35,3.35,0,0,0-1.33,1c-.11.12,0,.31.13.18a2.47,2.47,0,0,1,1.2-.67C618.54,411.25,618.6,410.64,618.19,410.79Z"/><path class="cls-9" d="M626.71,401.52a.78.78,0,0,0-.22,0,1.86,1.86,0,0,0-1.72,1.53c0,.15-.07.31-.1.46a.58.58,0,0,0,.72.66l.48-.1a1.83,1.83,0,0,0,1.4-1.52,2.06,2.06,0,0,0,0-.26C627.34,402,627.14,401.49,626.71,401.52Z"/><path class="cls-9" d="M613.46,422.54c-2.22,0-4.37,4.38-1.59,4.38C614.09,426.92,616.25,422.54,613.46,422.54Z"/><path class="cls-10" d="M316,293c-1.45,1.45,79.19,8.54,79.19,8.54l62.67,10.26-13.11,4.56-11.39-3.43-102-16S317.12,291.83,316,293Z"/><path class="cls-2" d="M536.22,218.38s-64.1-17.94-66.66-17.94-111.95,15.38-111.95,15.38l-49.56.86-53-21.37L95.25,139.77l-54.69-3.43,80.32-13.67,87.18-6.84,102.54-12,66.67,12,133.31,4.27,63.24,30.78L603.73,156l26.5,11.11,51.27,18.81-71.79,9.39Z"/><path class="cls-3" d="M258.47,318.37l-5.12-29.06,10.26-19.66L244,236.34l11.11-41,53,21.37,49.56-.86s109.39-15.38,112-15.38,66.66,17.94,66.66,17.94l73.49-23.07,71.79-9.39L655,237.18l12,51.27-26.5,63.25L357.61,376.48,320,385l-61.54,3.41-6.83-53.85Z"/><path class="cls-3" d="M58.5,211.56c1.72-2.57,2.57-12,2.57-12L40.56,136.34l54.69,3.43,159.81,55.54-11.11,41,19.66,33.31-10.26,19.66,5.12,29.06-6.83,16.23,6.83,53.85L200.36,368,144,342.3,26,272.22S56.8,214.11,58.5,211.56Z"/><path class="cls-4" d="M58.5,211.56c1.72-2.57,2.57-12,2.57-12L40.56,136.34l54.69,3.43,159.81,55.54-11.11,41,19.66,33.31-10.26,19.66,5.12,29.06-6.83,16.23,6.83,53.85L200.36,368,144,342.3,26,272.22S56.8,214.11,58.5,211.56Z"/><polygon class="cls-5" points="385.81 115.83 505.02 120.54 167.03 164.98 129 151.3 385.81 115.83"/><path class="cls-6" d="M167,165,159.77,241l-3.84-8.55-7.27,3.86-6.84-9.84-3-3.84-5.56,3.84-3-1.28-2.56-7.68s-2.57-3-3.85-1.72S129,151.3,129,151.3Z"/><g class="cls-7"><path class="cls-8" d="M625.18,256.42A132.65,132.65,0,0,1,652.73,236c-13.49,11.6-26.11,25-41.42,34a.84.84,0,0,1-.17.05C615.86,265.6,620.44,261,625.18,256.42Z"/><path class="cls-8" d="M331.27,278.77c-8.31-3.61-16.73-7-25.13-10.37-13.26-5.37-26.48-10.82-39.57-16.58-7.12-3.46-14.21-7-21.25-10.56-1-.73-2-1.5-2.95-2.29C279,250.9,314,268.93,348.88,285a2.52,2.52,0,0,1,1.14,1.12C343.55,284.41,337.4,281.45,331.27,278.77Z"/><path class="cls-8" d="M195.8,262.2a68.46,68.46,0,0,1-10.11-4.52c27,1.91,53.33,7.71,80,11.39,2.47.92,4.91,1.93,7.35,2.95-9.27,1.06-20.35-1.91-29.33-3C227.68,267.11,211.71,264.88,195.8,262.2Z"/><path class="cls-8" d="M229.5,313.68c26.19,3.64,51.51,10,76.61,17.88,2.19,1.1,4.39,2.22,6.59,3.3C290,328.79,267.16,324,244.19,319.38A124.61,124.61,0,0,1,229.5,313.68Z"/><path class="cls-8" d="M57,187.08c9.43,17.2,23.66,32.46,34.88,48.54,12.19,17.45,23.59,35.4,34.69,53.57.53.87.46,1.48.09,1.82-3.28-4-6.31-8.31-9.55-12.29-2.73-3.36-5.52-6.67-8.32-10-7-10.47-13.91-21-20.9-31.55-10-15-22.45-29.36-29.91-45.9C57.6,189.91,57.27,188.51,57,187.08Z"/><path class="cls-8" d="M214.72,338a192.43,192.43,0,0,1-19.62-2.75c-1.43-.28-2.94-.51-4.48-.75a1.32,1.32,0,0,1,.93-.49c26.4-3.93,52.38-1.39,78.73-3.09a37.41,37.41,0,0,1-4.92,2.52A417.54,417.54,0,0,1,214.72,338Z"/><path class="cls-8" d="M359.71,376.24c29.79-13.32,61.32-22.82,92.13-33.38,23.16-7.92,47.58-20.8,72.36-27.24a83.07,83.07,0,0,1,20.7-1.84c-14.45,3.16-28.3,9.88-41.91,15.3q-24,9.54-48.07,18.78c-23.66,9.15-48.19,16.89-72.62,24.45A221.42,221.42,0,0,0,359.71,376.24Z"/></g><path class="cls-9" d="M573.31,285.61c.78-1.84,2.7-2.11,4.46-1.7,0-.12,0-.26.07-.38,1.34-2.89,6.16-1.55,7.77.2a2.85,2.85,0,0,1,2.58,2.06,2.38,2.38,0,0,1-.92,2.71c-1,.73-2.58.63-3.81.52a5.2,5.2,0,0,1-.26,3.76c-2.22,3.92-7.57,1-9.24-1.86C573,289.2,572.5,287.47,573.31,285.61Z"/><path class="cls-9" d="M551.82,288.61c1.31-2.65,5.52-2.31,7.87-.68a4,4,0,0,1,1.66,1.33,2.21,2.21,0,0,1-.82,3.25,7.79,7.79,0,0,1-3.3.41,9.46,9.46,0,0,1-3.46-.54C552.47,291.88,551.11,290,551.82,288.61Z"/><path class="cls-9" d="M580.89,310c2.21-3.91,6.28-2.53,9.5-4.52,1.91-1.18,3.85-2.31,5.76-3.5a7.51,7.51,0,0,1,1.77-.81.51.51,0,0,1,.14-.46c4.3-4.24,8.53-10.92,15.4-6.46,3.26,2.13,6,4.79,6.52,8.85a11.4,11.4,0,0,1-.16,3.13,54.16,54.16,0,0,1,5.11,2.57c5.14,1.47,10.53,3.66,8.48,9.15-1.87,5-6.87,8.4-12,6.29-2.57-1.07-4.61-3.54-6.24-5.68-3.42-4.51-5.6-.24-8.63,2.68-6,5.81-12.55,3.16-15.1-4.58a9,9,0,0,1-.33-1.39c-.59.28-1.15.58-1.74.86a7.83,7.83,0,0,1-4.23.31C582.9,315.7,579.25,312.88,580.89,310Z"/><path class="cls-9" d="M572.91,316.38c.19,0,.38.05.57.08,1.92.23,4.31,3.46,2.52,5.12s-4.64-1.05-4.92-2.9c0-.18-.05-.35-.07-.52A1.55,1.55,0,0,1,572.91,316.38Z"/><path class="cls-9" d="M589.29,265c2.15,0,4.23,4.24,1.54,4.24C588.68,269.21,586.6,265,589.29,265Z"/><path class="cls-9" d="M381.58,162.3c8.91-.23,13.84.25,20.18-7.17a10.51,10.51,0,0,1,6.45-3.46c5.48-3.84,12.38.18,16.4,4.62,2.65,2.92,2.75,7.28,5.56,10.31a13.67,13.67,0,0,0,6.05,3.35c8.5.5,19-.2,23.22,1.7,6.2,2.8,4.26,7.68.81,11.93-2.75,3.4-16.6.2-18.32.24-10.48.26-18.07,6.54-28.47,5.94-8.53-.49-17.21-4-25.52-5.61-4.77-1-12.4-1-16.09-4.93C363.17,169.84,371.18,162.59,381.58,162.3Z"/><path class="cls-9" d="M345.92,156.75c2-2.75,5.95-2.66,9.11-1.3l1.59.08a4.6,4.6,0,0,1,3.91,2.93c1.41,3.86-4.43,4.45-6.8,4.76C350.53,163.65,342.55,161.32,345.92,156.75Z"/><path class="cls-9" d="M341.08,168.71a8.89,8.89,0,0,1,6.48,1.19,6.56,6.56,0,0,1,1.61.45c1.8.88,3.5,3.23,2,5.14a6.63,6.63,0,0,1-5.44,2c-3.27-.26-8.68-1.22-9.35-5.15C335.92,169.71,339.29,169.17,341.08,168.71Z"/><path class="cls-9" d="M366,182c1.79,0,3.52,3.52,1.28,3.52C365.43,185.54,363.7,182,366,182Z"/><path class="cls-9" d="M633.82,279.55l0,0s0,0,0,0a2,2,0,0,1,1,.47s0,0,0,0a3.49,3.49,0,0,1,.62.47c.74.37,1.31,1.33.88,2a1.48,1.48,0,0,1-2.18,1.07l.62.2A3,3,0,0,1,632,281.2,1.46,1.46,0,0,1,633.82,279.55Z"/><path class="cls-9" d="M199.64,292.77a3.23,3.23,0,0,1,1.33-.07c1.37-.24,3,1.93,2,3.17-.4.54-.83.58-1.46.74C199.77,297,197.62,293.21,199.64,292.77Z"/><path class="cls-9" d="M187,292.31c.22-1.26,1.79-.16,1.92.62,0,.14,0,.3.06.43.23,1.47-2.29.72-2.05-.66C187,292.57,187,292.43,187,292.31Z"/><path class="cls-9" d="M170,288.65a.68.68,0,0,0,0,.15,3.7,3.7,0,0,0,3.48,3.12.44.44,0,0,1,.16,0,1.76,1.76,0,0,0,1.67-1.54,5.94,5.94,0,0,0,0-1.46,3.49,3.49,0,0,0-2.66-2.86,1.7,1.7,0,0,0-1.57.4v-.05a.23.23,0,0,0,0,.11l-.05.06A1.93,1.93,0,0,0,170,288.65Z"/><path class="cls-9" d="M73.65,245.18c1.86,0,3.67,3.67,1.33,3.67C73.12,248.85,71.31,245.18,73.65,245.18Z"/><path class="cls-9" d="M81.11,267.14s0,0,0,0a2.62,2.62,0,0,1,.47.41,3.31,3.31,0,0,1,.67,1.08,2.25,2.25,0,0,1,.1,1.18,1,1,0,0,1-.86,1.07c-1.41.6-3.18-1.24-3.35-2.54C78,266.55,79.92,266.29,81.11,267.14Z"/><path class="cls-9" d="M54.9,266.85a3.94,3.94,0,0,1,1.62.78c.59.51,1.23,1.37.82,2.19a1.21,1.21,0,0,1-1.71.32,1.92,1.92,0,0,1-1.17-.59l-.31-.31C53.39,268.48,53.33,266.44,54.9,266.85Z"/><path class="cls-9" d="M67.43,269.94c.14,0,.28.3.1.3S67.25,269.94,67.43,269.94Z"/><path class="cls-9" d="M62.81,263a3.42,3.42,0,0,1,1.33,1c.11.13,0,.31-.13.19a2.41,2.41,0,0,0-1.2-.68C62.46,263.46,62.4,262.83,62.81,263Z"/><path class="cls-9" d="M54.3,253.71l.21,0a1.88,1.88,0,0,1,1.72,1.54c0,.16.07.31.11.46a.58.58,0,0,1-.72.66l-.49-.11a1.84,1.84,0,0,1-1.41-1.51c0-.09,0-.17,0-.26C53.67,254.16,53.87,253.68,54.3,253.71Z"/><path class="cls-9" d="M67.54,274.73c2.22,0,4.37,4.38,1.59,4.38C66.91,279.11,64.76,274.73,67.54,274.73Z"/></g></g></svg>