<svg xmlns="http://www.w3.org/2000/svg" viewBox="0 0 682 682"><defs><style>.cls-1{isolation:isolate;}.cls-2{fill:#898d84;}.cls-16,.cls-2{opacity:0.5;}.cls-16,.cls-18,.cls-2,.cls-20,.cls-21,.cls-22,.cls-23,.cls-25,.cls-26,.cls-3,.cls-32,.cls-33,.cls-34,.cls-9{mix-blend-mode:multiply;}.cls-3{fill:#c1c9ca;}.cls-4{fill:#077f40;}.cls-5{fill:#0a6735;}.cls-6{fill:#076132;}.cls-7{fill:#7bbce7;}.cls-8{fill:#2470b7;}.cls-9{fill:#b2b2b2;}.cls-10{fill:#ffe427;}.cls-11{fill:#828281;}.cls-12{fill:#e11f26;}.cls-13{fill:#a61e22;}.cls-14{fill:#6f1510;}.cls-15,.cls-16,.cls-18{fill:#3c3c3b;}.cls-17{fill:#262625;}.cls-18{opacity:0.7;}.cls-19,.cls-23{fill:#fdcd08;}.cls-20,.cls-34{fill:#c4a139;}.cls-20,.cls-26{opacity:0.4;}.cls-21,.cls-32{fill:#e3a138;}.cls-21,.cls-34{opacity:0.2;}.cls-22{fill:#b6a037;}.cls-22,.cls-23,.cls-32,.cls-33{opacity:0.3;}.cls-24{fill:#f4b31a;}.cls-25,.cls-26{fill:#cead2b;}.cls-25{opacity:0.6;}.cls-27{fill:#97762c;}.cls-28{fill:#ffd76c;}.cls-29{fill:#e49e24;}.cls-30{fill:#ebb21f;}.cls-31{fill:#e7b221;}.cls-33{fill:#d38c62;}</style></defs><g class="cls-1"><g id="Layer_3" data-name="Layer 3"><path class="cls-2" d="M514.33,415.63c-7.51-3.84-15.61-5.65-23.81-7.38a204.89,204.89,0,0,1-40.45-13.05c-17.07-7.38-34.16-8.27-52.54-8.94-19.83-.71-39.68-1-59.52-1.8-39.72-1.69-79.34-4.84-119.12-5.92q-29.89-.81-59.79-1.21c-19.8-.29-39.66-1.22-59.46-1a279.12,279.12,0,0,0-57.79,7.1c-12.38,2.75-24.28,6.3-35.27,12.2,19.9,23.48,75.85,85.83,128.67,110.94,0,0,103.93,30.69,220.8,24.23,0,0,26.92-5.92,57.62-22.61,23.61-12.84,75-54.77,103.4-86.44C515.45,421,516,416.46,514.33,415.63Z"/><path class="cls-3" d="M264.37,148.5a6.34,6.34,0,0,0-.14,1c0,1.46,4,2,8.84-.27,14.36,2.3,32.25,9.15,48.31,16.4l-41.05,3.6,0-.05-.4-.57c-.21-.3-.43-.59-.67-.89s-.26-.31-.38-.47c-.29-.33-.57-.67-.88-1l-.28-.29a44.72,44.72,0,0,0-12.15-8.71l-.09-.05h0c-1.09-.54-2.19-1.07-3.35-1.56a55.27,55.27,0,0,0-7-2.46Z"/><path d="M236,152.75,279,164.59l49-4.31s61.92,35.28,62.47,36.09-1.89,21-1.89,21.81-104.47,25.58-105.82,26.39S196.91,222,196.91,222l-37.69-23.7-.28-6.46Z"/><polygon class="cls-4" points="230.92 210.58 211.37 244.91 218.14 254.96 262.44 259.14 310.35 247.59 293.27 181.09 230.92 210.58"/><polygon class="cls-5" points="333.21 190.96 293.27 181.09 310.35 247.59 341.42 240.09 333.21 190.96"/><polygon class="cls-6" points="293.26 181.58 309.52 246.5 302.53 183.3 293.26 181.58"/><path class="cls-7" d="M345,175.87c-2.73-6.44-16.09-6.94-29.85-1.12s-22.72,15.75-20,22.19l15.36,50.86,56.55-21.54Z"/><path class="cls-8" d="M297.41,204.33c12.8-14.87,31.23-20.6,50.82-21.15l-3.2-7.31c-2.73-6.44-16.09-6.94-29.85-1.12s-22.72,15.75-20,22.19Z"/><path class="cls-8" d="M356.46,202l-2.34-5.36c-19.27-1.59-41.2,9.18-51.49,25l1.95,6.44C316.93,212.26,336.47,202,356.46,202Z"/><path class="cls-9" d="M342.21,235.73l24.88-9.47L345,175.87c-2.49-5.9-13.93-6.8-26.41-2.43C324,186.67,337.63,221.63,342.21,235.73Z"/><path class="cls-10" d="M282.85,173.06c2.74-6.43-6.18-16.39-19.93-22.24s-27.12-5.39-29.86,1l-25.89,46.39L262,223.94Z"/><path class="cls-11" d="M229.3,158.6c19.59-1.13,36.51,8.14,50.53,21.84l3-7.38c2.74-6.43-6.18-16.39-19.93-22.24s-27.12-5.39-29.86,1Z"/><path class="cls-11" d="M272,199.43l2.22-5.4c-12.25-15-35.22-23.25-53.74-19.65l-3.29,5.88C237.17,178.14,258.11,185.08,272,199.43Z"/><path class="cls-9" d="M237.85,212.64,262,223.94l20.89-50.88c2.51-5.89-4.78-14.74-16.6-20.68C260.48,165.45,244.81,199.53,237.85,212.64Z"/><polygon class="cls-12" points="191.26 172.13 156.25 190.44 156.52 202.56 191.52 230.02 238.08 246.2 259.65 181.02 191.26 172.13"/><polygon class="cls-13" points="287.92 210.91 259.65 181.02 238.08 246.2 268.27 256.68 287.92 210.91"/><polygon class="cls-14" points="259.38 181.42 237.97 244.83 266.25 187.88 259.38 181.42"/><path class="cls-15" d="M500.64,181.29s-1.61-13.47-16.15-15.08-199.8-36.08-199.8-36.08-11.31-1.62-16.16-1.08c0,0-193.33,31.77-240.72,50.08,0,0-31.78,134.64-28,202.49,0,0,70.54,88.86,136.25,120.09,0,0,103.93,30.7,220.79,24.24,0,0,26.93-5.92,57.63-22.62s112-88.86,122.78-113.63C537.26,389.7,514.1,212,500.64,181.29ZM385.4,210.37l-91.55,28.54s-23.69-1.07-25.32-1.61-46.84-15.08-50.62-16.7-37.69-12.39-37.69-12.39l-16.7-11.84c12.93-8.08,101.78-52.78,101.78-52.78,33.39.54,99.09,38.78,99.09,38.78s17.24,13.46,19.93,18.85S385.4,210.37,385.4,210.37Z"/><path class="cls-16" d="M500.64,181.29s-1.61-13.47-16.15-15.08-199.8-36.08-199.8-36.08-11.31-1.62-16.16-1.08c0,0-3.5.57-9.64,1.61a1,1,0,0,1-.8,1.46c-41.92,7.18-82,21.54-123,32.3a431.41,431.41,0,0,1-62.54,11.81c-14.5,1.58-30.09,4.76-45,4.05C24.5,193.4-3.76,317.41-.19,381.62c0,0,70.54,88.86,136.25,120.09,0,0,103.93,30.7,220.79,24.24,0,0,26.93-5.92,57.63-22.62s112-88.86,122.78-113.63C537.26,389.7,514.1,212,500.64,181.29ZM411,220.93c-20.89,19.07-42.25,37.11-65.63,53-9.64,6.54-19.81,15.19-30.29,20.59-12.52,6.46-18.47,8.91-29.89,6.06C235.7,288.22,183.81,246.72,147,211.77a1.24,1.24,0,0,1,1.19-2.05c24.3,6.62,47.35,17,71.63,23.7,12,3.3,23.94,6.61,35.93,9.85,5.32,1.43,11.11,3.69,16.94,5.36,2.8.39,5.61.67,8.44.79,21.91.93,43-6.48,63.93-11.79,21.79-5.53,42.75-14,64.75-18.75C411,218.63,412,220.05,411,220.93ZM221.9,294.48c-17.89-4.71-37-6.76-53.15-16.42-17.19-10.29-31.18-26.39-44.33-41.25a1.23,1.23,0,0,1,1.49-1.92c23.58,13.89,47,28,70.57,41.95,9.28,4.5,18.57,8.93,26.6,15.6C224.07,293.25,223,294.78,221.9,294.48Zm43.4-150.89c33.39.54,99.09,38.78,99.09,38.78s17.24,13.46,19.93,18.85,1.08,9.15,1.08,9.15l-91.55,28.54s-23.69-1.07-25.32-1.61-46.84-15.08-50.62-16.7-37.69-12.39-37.69-12.39l-16.7-11.84C176.45,188.29,265.3,143.59,265.3,143.59ZM70,181.05c13.78-4.49,28.38-4.65,42.33-8.34,15.08-4,30.57-6.14,45.71-9.84a1.13,1.13,0,0,1,1.06.25c15.38-4,30.72-8.29,46.19-12a1.23,1.23,0,0,1,.95,2.24C180.57,167.63,154.75,181.79,128,194c-19.43,8.9-40.83-1.81-58.28-10.74A1.23,1.23,0,0,1,70,181.05ZM34.57,281.31c-.65,23.55-11.65,42.52-24.55,61.62-.64.94-2.36.68-2.28-.62,2.18-38,8.59-75.52,14.79-113a224.28,224.28,0,0,1,3-22.48C25.78,205.66,35.25,256.37,34.57,281.31Zm103,145c-16.15-9.86-26.46-26-38.91-39.81-14.38-15.88-29.06-31.62-42-48.72-5-6.64-10-13.95-11.45-22.32-1.79-10.22-1.93-20.81-3.14-31.13-2.5-21.46-5.63-42.86-6.71-64.45-.58-6-1-12.06-1.26-18.12,0-1.18,16.82,38.85,25.21,58.13,8.68,20,17.82,39.72,26.45,59.71,8.34,19.34,16.89,39.32,27.53,57.53,9.13,15.61,21.17,30.09,26.08,47.8A1.24,1.24,0,0,1,137.59,426.3Zm52.78-8.08c-7-4.58-30.85-35.57-38.21-44.15-15.48-18-29.48-37.12-44.15-55.78-6.33-8.05-13-15.83-18.14-24.7A204,204,0,0,1,77.36,268c-8-19.34-15-37.14-24.37-55.87-.33-.65-16.07-26.45-15.35-26.26,9.92,2.63,31.29,13.63,38.46,20.64,9.11,8.9,18.75,17.25,28.12,25.89C122.4,249.16,141,266.54,155.14,287c12.52,18.09,19.08,38,22.74,59.54,2.23,13.2,14.47,59.8,14.33,70.64A1.23,1.23,0,0,1,190.37,418.22ZM321,502.77c-32.28-13.91-62.6-32.27-81.83-62.6-11.2-17.66-19-37.57-26.1-57.18-7.72-21.4-14.26-43.19-20.26-65.13-.31-1.1,1.26-2.2,2-1.19,32.6,41.81,56.56,89.46,88.24,131.92a1,1,0,0,1,.1,1.08c13.68,16.8,27.2,33.71,39.48,51.43C323.42,502.23,322,503.2,321,502.77Zm32.38-156.85c-10.45,9.8-21.1,19.46-32.24,28.49-7.09,5.75-15,14.66-24.6,15.92C286.29,391.66,276,385,267,380.94c-9.74-4.34-19.52-8.88-27.82-15.69a1.23,1.23,0,0,1,.54-2c19.48-6.06,39.51-10.66,58.43-18.38,20.36-8.31,36.14-23.09,53.37-36.58s31.87-27.27,48.87-41.2c5.34-4.38,15.24-13.77,20.6-18.18,13.42-11.5,47.22-50.31,61-61.39,1-.81-17.11,34.64-17.93,35.89-14.9,23-33.77,42.75-52.26,62.83C392.88,306.67,373.67,326.88,353.34,345.92Zm12.92,91c-.56,1-2.45.64-2.28-.62,8.31-62,39.92-116.21,81.95-161.62.78-.85,2.53,0,2,1.2a263.52,263.52,0,0,1-12.14,24.74,1.25,1.25,0,0,1-.1.59c-10.13,23.77-24.82,45.16-36,68.4C388.87,392.17,378.82,415.18,366.26,436.9Zm133.83-88.23C498,367.81,430.6,412.55,409.42,421c-.86.35-1.79-.68-1.51-1.51,20.65-61.18,46.7-120.35,68.93-180.94.35-1,6.34-16.29,8.08-24.24.32-1.46,6.52,54.1,10.39,80.77C497.86,312.83,502.06,330.68,500.09,348.67Z"/><path class="cls-17" d="M280.66,127.7c-.27-.8-5.66-19.11-3.24-28s12.12-25.31,12.12-25.31,14.81,13.46,11.58,27.46S280.66,127.7,280.66,127.7Z"/><path class="cls-18" d="M294.14,79.5c1.91,4.08,3.57,8.24,2.44,12.34-2.16,7.8-7.63,14.15-11.91,20.87a1.24,1.24,0,0,1-2.24-.3A90.06,90.06,0,0,1,278,97.81c-.23.66-.42,1.29-.59,1.89-2.42,8.89,3,27.2,3.24,28,0,0,17.23-11.84,20.46-25.85C303.12,93.16,298.18,84.68,294.14,79.5Z"/><path class="cls-17" d="M339.08,96.2s-37.16,4.85-47.12,16.43-12.11,20.73-12.11,20.73,28.81,0,43.89-14.81S339.08,96.2,339.08,96.2Z"/><path class="cls-18" d="M317.18,116.49c-7.83,7-18.43,8.17-28.39,10a1.24,1.24,0,0,1-1.39-1.8,53.53,53.53,0,0,1,18.24-20.34c-5.77,2.25-10.84,5-13.68,8.31-10,11.57-12.11,20.73-12.11,20.73s28.81,0,43.89-14.81S339.08,96.2,339.08,96.2s-.88.11-2.4.35C330.32,103.34,324.08,110.35,317.18,116.49Z"/><path class="cls-17" d="M271.5,116.13s-9.42,4.84-9.42,13.46a5.8,5.8,0,0,1,4.84.27c2.43,1.34-1.88,12.65-1.88,14.81s8.62,2.42,15.89-5.66S281.19,116.4,271.5,116.13Z"/><path class="cls-18" d="M272.7,116.27c2.93,3.29,6.11,6.23,5.61,11s-3.66,9.12-5.49,13.39c-.52,1.23-2.19.46-2.28-.62-.24-3.13,0-6.73-1.11-9.7-1-2.65-4.31-2.51-7.29-1.86,0,.35-.06.7-.06,1.06a5.8,5.8,0,0,1,4.84.27c2.43,1.34-1.88,12.65-1.88,14.81s8.62,2.42,15.89-5.66C287.89,131.28,281.75,117.65,272.7,116.27Z"/><path d="M284.39,103.79a47.9,47.9,0,0,0-1,9.74,97,97,0,0,0,3-11.8,66.09,66.09,0,0,0,1.31-7.94A104.5,104.5,0,0,0,284.39,103.79Z"/><path d="M291.71,123.49c5.64-3,11.51-5.56,16.84-9a98.94,98.94,0,0,0,8.1-5.93C307.87,112.9,299.16,117.22,291.71,123.49Z"/><path d="M34.94,231.93c.69,12.36,1.8,24.68,3,37,2,20.45,4.44,40.87,8.09,61.08-1.28-24.19-3.93-48.3-6.9-72.34-1.57-12.65-3.61-25.47-4.26-38.22C34.76,223.62,34.71,227.78,34.94,231.93Z"/><path d="M59.12,230.66a191.74,191.74,0,0,0-9-20.82c-1.61-2.43-3.25-4.84-5-7.19,5.76,12.24,10.55,25.26,15.54,37.86A96.22,96.22,0,0,1,59.12,230.66Z"/><path d="M82.59,289.72c3.54,8.46,6.58,17.29,10.33,25.38q11.19,24.13,23.08,47.95a629.93,629.93,0,0,0,34.06,59.2q6.28,8.21,13,16.11c-14.82-24.59-29.89-49.06-43.06-74.58-8.08-15.66-15.63-31.61-23.59-47.34-5.36-10.59-9.75-22.57-15.59-33.23C81.37,285.39,82,287.56,82.59,289.72Z"/><path d="M237.7,375.9c1.47,3.1,2.93,6.21,4.42,9.29,1.18,1.91,2.35,3.82,3.47,5.77,6.64,11.52,14.61,22.52,22.16,33.45,15.48,22.42,31.67,44.33,47.16,66.73.15.22.45.12.67-.08-4-6.25-8.29-12.36-12.44-18.54-7-10.44-13.28-21.36-19.66-32.2-3.74-5.42-7.49-10.81-11.19-16.21-8.52-12.45-17.54-24.62-25.85-37.22-3.07-4.66-6.42-9.82-10-14.68C236.87,373.44,237.29,374.67,237.7,375.9Z"/><path d="M475.5,235.69c-4.43,11.09-9.63,22-14.15,32.88C454.52,285,448.06,301.49,441.57,318c-12.63,32.11-27,65.15-34.38,99,.48-.94,1-1.87,1.49-2.76q3.57-6.17,7.3-12.27c.51-.83,1-1.66,1.5-2.49,10.48-26.81,19.62-54.22,29.93-81.08,11.23-29.25,24.6-58.88,31.88-89.52C478.06,231.15,476.78,233.43,475.5,235.69Z"/><path d="M474.59,191.86c-5.72,5.17-11.36,10.38-17,15.62q-17,15.77-34.14,31.4C400.56,259.68,375.87,280,356,303.77c15.08-11.17,29.1-23.68,43.57-35.62,10-9.31,19.91-18.64,29.94-27.86q10.92-10,21.65-20.3c2.12-2.54,4.25-5.07,6.43-7.56,7.81-8.9,17.37-16.74,24.74-26.12C479.52,188.41,476.14,190.45,474.59,191.86Z"/><path d="M263,296.45c-16.91-9.91-33.69-20-50.68-29.78-18.69-10.76-38-20.54-57.05-30.7q-27.45-14.67-54.95-29.19-9.09-4.41-18.24-8.71c-4.92-2.31-9.41-5-14.1-7.72C63.91,188,59,185,54.15,184.83c3.08,2.83,10.63,6.84,12.1,7.76,9.16,5.75,18.63,11,28.13,16.1q27.77,15,55.37,30.32c19,10.53,39.07,19.12,57.9,29.88,17.71,10.13,35.9,20.59,54.58,28.8C262.86,298,263.66,296.84,263,296.45Z"/><path d="M143,165.9l.63-.21c5.39-1.54,11-2.48,16.43-3.89,10.82-2.79,21.72-5.22,32.54-8q16.91-4.32,33.77-8.72c4.95-1.28,9.93-2.23,14.9-3.25,5.43-1.64,10.84-3.33,16.25-5,0-.36-.18-.65-.7-.55-21.57,4.26-42.65,9.13-63.89,14.85-9.91,2.67-19.85,5.11-29.73,7.92-4.89,1.39-9.77,2.87-14.65,4.35-2.16.66-5.17,2-8,2.92Z"/><path d="M154.33,183l8.7-3.81c6.49-2.86,13-5.64,19.4-8.66,8.75-4.14,17.43-8.42,26.16-12.59-9.39,3.67-18.8,7.39-28,11.5-5.95,2.66-11.83,5.41-17.62,8.42-4.34,2.26-10.2,4.62-14,7.71,0,0,0,0,0,0l-1.65.87a.49.49,0,0,0-.13.15C149.68,185.66,152,184,154.33,183Z"/><path d="M392.85,169c-18.45-6.25-37.18-11.67-55.57-18.06-9.33-3.26-19.06-5.52-28.63-8-3-.76-6.21-1.87-9.5-2.81-1.69.17-3.39.3-5.06.37,5.4,1.72,10.74,3.8,16.1,5.42,9.47,2.87,19,5.23,28.41,8.45,17.63,6.06,35.93,10.24,53.88,15.23C392.79,169.69,393.21,169.13,392.85,169Z"/><path class="cls-19" d="M665.58,603.83c-2.22-.37-9.46-.12-13,.36-7.16.5-16.11-2.17-26.36-3.34A48.44,48.44,0,0,0,615,600.7c-3.7.44-7.16,1.28-10.93.91-7.45-.74-15-2.53-22.39-3.84A53.21,53.21,0,0,1,559.19,588c-3.51-2.57-6.32-4.93-8.6-8.65a30.13,30.13,0,0,0-1.72-2.61,12.11,12.11,0,0,1,2-4.27c1.67-2.48,4.44-4.25,7-5.58,6.18-3.15,12.67-1.61,18.64,1.07,3.24,1.48,7,2.1,10.47,3s7.43.61,11.12,1.21c16.82,2.72,32,11.32,47.53,17.79,7.88,3.29,17,4.85,24.37,9.25a14.11,14.11,0,0,1,4.33,4.13C675.35,604.4,672.19,605.35,665.58,603.83Z"/><path class="cls-20" d="M645.91,596.85c-4.51-1.67-18-5.21-24.73-10.22a72.58,72.58,0,0,0-11-7.17c-3.79-1.86-8-2.52-12.11-3.34-9.46-1.88-18-6.46-27.2-9.16a47.36,47.36,0,0,0-7.67-1.65c4.53-.58,9.09.75,13.39,2.68,3.24,1.48,7,2.1,10.47,3s7.43.61,11.12,1.21c16.82,2.72,32,11.32,47.53,17.79,7.88,3.29,17,4.85,24.37,9.25a11.92,11.92,0,0,1,4.34,4.1c.33,1.11-1.14-1.1-7-2.63-2.8-.72-6.49-.28-10.68-1.72C651.27,597.17,647.2,597.32,645.91,596.85Z"/><path class="cls-21" d="M616.17,582.13c3.21,1.94,6.21,4.18,9.65,5.74,2.86,1.3,6.06,1.23,9,2.34,3.68,1.42,6.64,4,10.19,5.57,3,1.37,6.88,1.8,10.12,2.47,3.47.71,7,.74,10.47,1.6a23.5,23.5,0,0,1,5.36,2.08,26.32,26.32,0,0,0-3.58-1.18c-2.8-.72-6.49-.28-10.68-1.72-5.41-1.86-9.48-1.71-10.77-2.18-4.51-1.67-18-5.21-24.73-10.22a78.88,78.88,0,0,0-9.61-6.43A18.09,18.09,0,0,1,616.17,582.13Z"/><path class="cls-22" d="M659.58,597.06a43.85,43.85,0,0,1-11-2.75c-5.74-2.41-11.08-5.62-16.73-8.25-2.39-1.1-4.82-2-7.28-3-3.09-1.21-5.79-3-8.79-4.31a98.85,98.85,0,0,0-16.23-5.62,60.57,60.57,0,0,0-8-1.15,38.64,38.64,0,0,1-8.5-2c1.38.34,2.73.64,4,1,3.6,1,7.43.61,11.12,1.21,16.82,2.72,32,11.32,47.53,17.79,7.88,3.29,17,4.85,24.37,9.25.53.32,1.1.71,1.65,1.12C668.25,598.16,663.13,597.57,659.58,597.06Z"/><path class="cls-20" d="M605.79,589.66a10.06,10.06,0,0,1-6.28-.87c-1-.61-2.11-.26-3.22-.48s-2.21-.63-3.32-.84a.2.2,0,0,1,0-.39,9.35,9.35,0,0,1,2.18,0,37.06,37.06,0,0,1,3.79,0c.54.08,1.14.66,1.65.79l2.36.59c1.15.24,2,.08,3,.72C606.19,589.27,606,589.61,605.79,589.66Z"/><path class="cls-20" d="M580.36,583.94c-1.21,1-3.81.09-5.11-.31s-2.44-1-3.65-1.41-1.67-1.81-2.66-1.87a.15.15,0,0,1,0-.28,1.52,1.52,0,0,1,1.36.17c1,.53,2.09.83,3,1.39,2.14,1.24,4.82,1.06,7,2A.17.17,0,0,1,580.36,583.94Z"/><path class="cls-23" d="M604.19,601.54c4.5-.78,8.4-3.22,12.83-4.08,5.23-1,9.24,1.47,13.4,4-1.36-.21-2.75-.42-4.18-.57A48.44,48.44,0,0,0,615,600.7c-3.7.44-7.16,1.28-10.93.91h-.15C604,601.57,604.11,601.57,604.19,601.54Z"/><path class="cls-21" d="M673.86,604.34c-1.61-1.48-4.43-2-6.47-2.32a20.15,20.15,0,0,0-4,0c-2.51,0-4.24-.91-6.34-2.11a14.35,14.35,0,0,0-5.87-1.94,72.8,72.8,0,0,0-16-3c-3.92-.35-8-.76-11.54-2.55a35.37,35.37,0,0,1-7.65-5.63c-4-3.6-7.64-5.4-13.06-5a14,14,0,0,1-10-2.91,24.09,24.09,0,0,0-4.78-2.92c-2.82-1.19-6.45-2.35-9.54-1.72-2.17.43-4.58,2.29-3.85,4.89s3.44,3.8,5.61,5.2a4.44,4.44,0,0,1-1.3.4,61.5,61.5,0,0,1-7.22-1.92c-2.13-.59-4.57-1.27-6.82-.86-2.85.51-4.74,3.15-7.53,3.56a7.23,7.23,0,0,1-1.54.07,25.46,25.46,0,0,1-5.41-6.17,30.13,30.13,0,0,0-1.72-2.61,12.11,12.11,0,0,1,2-4.27c1.67-2.48,4.44-4.25,7-5.58,6.18-3.15,12.67-1.61,18.64,1.07,3.24,1.48,7,2.1,10.47,3s7.43.61,11.12,1.21c16.82,2.72,32,11.32,47.53,17.79,7.88,3.29,17,4.85,24.37,9.25a14.11,14.11,0,0,1,4.33,4.13C674.73,603.77,674.54,604.11,673.86,604.34Z"/><path class="cls-24" d="M551.48,536.31c2.5,2.08,5.69,3.07,8.6,4.43a23.93,23.93,0,0,1,7.53,4.94c1.76,1.84,2.68,4,4.18,6,1.35,1.8,3.41,3.71,4.05,5.89a41.71,41.71,0,0,1,1.69,9.39c0,1.79-1.85,3.32-2.8,4.87-1.16,1.92-2.86,2.66-4.52,4.09-2.09,1.76-4.47,2.78-6.36,4.86-1.46,1.59-2.62,3.32-4.41,4.55a68.17,68.17,0,0,0-6.24,5c-1.12,1-2.2,2.15-3.36,3.15a19.5,19.5,0,0,1-1.36,1.61,48.23,48.23,0,0,0-5.64,5.79c-1.66,2.22-2.86,4.46-5.51,5.62-4.08,1.79-9.79-.17-13.65-1.85a72.78,72.78,0,0,1-7.56-3.89c-2.69-1.61-5.68-2.84-8.29-4.55-2.37-1.56-4.95-2.87-7.37-4.37a61.81,61.81,0,0,1-6.18-4.93,45.23,45.23,0,0,0-8-4.78c-.44-.23-.86-.48-1.3-.73a80.17,80.17,0,0,0-7.23-5.77A40.39,40.39,0,0,1,474,572.8a20.38,20.38,0,0,1-3.18-2.48,13.69,13.69,0,0,0-3.32-3.21.62.62,0,0,0-.85.23,11.59,11.59,0,0,0-.77,3.55c-1,3.39-2.05,6.78-3.32,10.07-.43,1.16-.9,2.29-1.32,3.44-.31.59-.62,1.17-1,1.71-.21.36-.44.68-.66,1a33,33,0,0,1-2.42,2.6c-2.65,2.54-5.33,5.07-8.16,7.42a55.12,55.12,0,0,1-10.2,7.13,25.58,25.58,0,0,1-6.76,1.78c-2.88-.74-4.64-1.68-6.14-4.58-.71-1.33-1.32-2.68-1.9-4a38.28,38.28,0,0,1-1.65-6.4c-.38-2.93-1.56-5.91-2.28-8.8a47.6,47.6,0,0,1-1.34-8.73c-.17-2.85-.37-5.68-.55-8.54a30.7,30.7,0,0,1-.09-3.18,19.49,19.49,0,0,0-.09-2.31c-.49-2.08-1.18-4.1-1.9-6.23-1.21-3.52-2-7-5.38-9-2.31-1.38-4.82-2.39-7.18-3.71a56.85,56.85,0,0,1-8.68-6.46c-2.65-2.22-5.95-2.62-8.86-4.47s-4.33-4.11-5.89-7.2c-1.28-2.47-1.74-5.76-2.06-8.48s-1.94-5.67-1.64-8.57c.19-1.86,2.45-1.27,3.55-.93,3.62,1.17,5.64,2.82,8.26,5.43a14.28,14.28,0,0,0,4.76,2.75c1.46.37,3.16-.16,4.61-.5,3.07-.71,6.09.68,8.8,1.93,3.21,1.47,6.24,3.35,9.32,5.07,2.31,1.31,5.59,2.94,7.2,5.11.94,1.28,1.6,2.7,2.53,4a9.17,9.17,0,0,0,4.82,3.15,31,31,0,0,0,4.73,1.72,4.55,4.55,0,0,1,1,.29c-.35-.61-.68-1.22-1-1.84a38.38,38.38,0,0,0-4.69-7.8c-1.46-1.7-2.94-2.89-3.76-5s-.44-4.35-.25-6.43a44.44,44.44,0,0,1,1.51-7.46c1.06-3.75-.06-6.34-2.52-9.16-1.12-1.31-3-3.42-2.53-5.26.19-.66,1-1,1.5-1.36,1.18-.77,2.18-1.77,3.31-2.55,3.79-2.65,6.76,1,10,3.08,1.92,1.24,3.09,3.47,4.86,4.92,2.38,2,6,2.59,8.95,3.16,5.32,1,10.79.57,16.09,1.87h0a17.61,17.61,0,0,1,3.53.64,29.14,29.14,0,0,1,6.21,3,136.55,136.55,0,0,1,20.55,14.66,90.27,90.27,0,0,0,10.49,8.41c3.76,2.47,7.65,4.28,11.2,7s7.41,4.83,10.75,7.66c.66.54,1.3,1.1,1.91,1.66a41.73,41.73,0,0,1,1-4.88c1.17-4.63,1.79-9.19,3.54-13.63a8.83,8.83,0,0,1,3.37-4.54c1-.66,2.29-.88,3.3-1.56a8.72,8.72,0,0,1,1.85-1.09.88.88,0,0,1,1,.28c.78,1.11.65,2.75.71,4a38.54,38.54,0,0,0,.76,7.68C548.45,531.56,549.26,534.45,551.48,536.31Z"/><path class="cls-19" d="M574.73,571.86c-1.16,1.92-2.86,2.66-4.52,4.09-2.09,1.76-4.47,2.78-6.36,4.86-1.46,1.59-2.62,3.32-4.41,4.55a68.17,68.17,0,0,0-6.24,5c-1.12,1-2.2,2.15-3.36,3.15a19.5,19.5,0,0,1-1.36,1.61,48.23,48.23,0,0,0-5.64,5.79c-1.66,2.22-2.86,4.46-5.51,5.62-4.08,1.79-9.79-.17-13.65-1.85a72.78,72.78,0,0,1-7.56-3.89c-2.69-1.61-5.68-2.84-8.29-4.55-2.37-1.56-4.95-2.87-7.37-4.37a61.81,61.81,0,0,1-6.18-4.93,45.23,45.23,0,0,0-8-4.78c-.44-.23-.86-.48-1.3-.73a80.17,80.17,0,0,0-7.23-5.77A40.39,40.39,0,0,1,474,572.8a20.38,20.38,0,0,1-3.18-2.48,13.69,13.69,0,0,0-3.32-3.21.62.62,0,0,0-.85.23,11.59,11.59,0,0,0-.77,3.55c-1,3.39-2.05,6.78-3.32,10.07-.43,1.16-.9,2.29-1.32,3.44-.31.59-.62,1.17-1,1.71-.21.36-.44.68-.66,1a33,33,0,0,1-2.42,2.6c-2.65,2.54-5.33,5.07-8.16,7.42a55.12,55.12,0,0,1-10.2,7.13,25.58,25.58,0,0,1-6.76,1.78,10.5,10.5,0,0,1-3.84-1.68c12.7-4.39,14-22.29,17.7-33.57,1.28-3.9,2.53-7.88,2.1-12s-3.1-7.81-4.44-11.6c-1.9-5.44-7.79-13.94-7.56-13.85-.35-.61-.68-1.22-1-1.84a38.38,38.38,0,0,0-4.69-7.8c-1.46-1.7-2.94-2.89-3.76-5s-.44-4.35-.25-6.43a44.44,44.44,0,0,1,1.51-7.46c1.06-3.75-.06-6.34-2.52-9.16-1.12-1.31-3-3.42-2.53-5.26.19-.66,1-1,1.5-1.36,1.18-.77,2.18-1.77,3.31-2.55,3.79-2.65,6.76,1,10,3.08,1.92,1.24,3.09,3.47,4.86,4.92,2.38,2,6,2.59,8.95,3.16,5.32,1,10.79.57,16.09,1.87h0a17.61,17.61,0,0,1,3.53.64,29.14,29.14,0,0,1,6.21,3,136.55,136.55,0,0,1,20.55,14.66,90.27,90.27,0,0,0,10.49,8.41c3.76,2.47,7.65,4.28,11.2,7s7.41,4.83,10.75,7.66c.66.54,1.3,1.1,1.91,1.66a41.73,41.73,0,0,1,1-4.88c1.17-4.63,1.79-9.19,3.54-13.63a8.83,8.83,0,0,1,3.37-4.54c1-.66,2.29-.88,3.3-1.56a8.72,8.72,0,0,1,1.85-1.09.88.88,0,0,1,1,.28c.78,1.11.65,2.75.71,4a38.54,38.54,0,0,0,.76,7.68c.72,2.72,1.53,5.61,3.75,7.47,2.5,2.08,5.69,3.07,8.6,4.43a23.93,23.93,0,0,1,7.53,4.94c1.76,1.84,2.68,4,4.18,6,1.35,1.8,3.41,3.71,4.05,5.89a41.71,41.71,0,0,1,1.69,9.39C577.57,568.78,575.68,570.31,574.73,571.86Z"/><path class="cls-25" d="M538.38,603.38a16.86,16.86,0,0,1-3.75,3.83c-2.33,1.84-12.83-3.23-13.62-3.8a17.2,17.2,0,0,0,7.37-2.59A16.38,16.38,0,0,0,532,597c1.5-2,3.44-1.44,5.24-2.62a3.31,3.31,0,0,0,1-3c-.07-.44-.14-.89-.22-1.32a4.13,4.13,0,0,0,.49-.76c1-2,.63-4,.37-6.1-.44-3.66,0-6.4,2.38-8.88a22.68,22.68,0,0,0,1.71,9.12,32.33,32.33,0,0,1,.27,7.74A29.21,29.21,0,0,1,538.38,603.38Z"/><path class="cls-26" d="M493.06,514.87c-3.43-2.7-7.32-4.64-10.87-7.19-1.86-1.34-4.27-3.8-6.88-3.12-2.46.67-4-.16-6.34-.57a4.85,4.85,0,0,0-3.16.66,3.05,3.05,0,0,0-1.61,3.67c.81,2.4,2.49,4.34,3.49,6.66.92,2.14,1.76,4.3,2.73,6.4a38.71,38.71,0,0,0-4.1-5c-2.84-2.72-5.58-5.59-8.43-8.3-5.07-4.8-11.56-6.18-18.41-6.4-2.7-.1-4.8-.37-6.14-3.07a11.86,11.86,0,0,0-1.64-3c-.86-.87-2.49-2-3.79-1.3a3.31,3.31,0,0,0-1.66,2.33c-.26-.35-.56-.7-.87-1.05-1.12-1.31-3-3.42-2.53-5.26.19-.66,1-1,1.5-1.36,1.18-.77,2.18-1.77,3.31-2.55,3.79-2.65,6.76,1,10,3.08,1.92,1.24,3.09,3.47,4.86,4.92,2.38,2,6,2.59,8.95,3.16,5.32,1,10.79.57,16.09,1.87h0a17.61,17.61,0,0,1,3.53.64,29.14,29.14,0,0,1,6.21,3,136.91,136.91,0,0,1,20.29,14.43A22.5,22.5,0,0,1,493.06,514.87Z"/><path class="cls-26" d="M441.25,523.38c-.68-2.44-1.26-5.58-2.77-7.69-2-2.84-6.82-5.66-7.71-9.38a8.14,8.14,0,0,0,1.83,2.17c3.09,2.4,7.42.9,10.52,3,5.34,3.57,1,12-.65,17.73A43,43,0,0,0,441.25,523.38Z"/><path class="cls-21" d="M574.73,571.86c-1.16,1.92-2.86,2.66-4.52,4.09-2.09,1.76-4.47,2.78-6.36,4.86-1.46,1.59-2.62,3.32-4.41,4.55a68.17,68.17,0,0,0-6.24,5c-1.12,1-2.2,2.15-3.36,3.15a19.5,19.5,0,0,1-1.36,1.61,48.23,48.23,0,0,0-5.64,5.79c-1.66,2.22-2.86,4.46-5.51,5.62-4.08,1.79-9.79-.17-13.65-1.85l-.31-.14v0c5.85-2.12,13.39-6,14.77-12.21,1.5-6.72-4.33-9.51-7.91-14-2.82-3.51-2-7.3-2.78-11.36-.58-3.06-2.39-5.36-4.65-7.43-5.89-5.3-13.09-8.66-19.93-12.51-7.26-4.11-14.69-8-21.81-12.35a53.64,53.64,0,0,1-17.91-17.22c-3.58-5.46-7.32-11.38-13.24-14.56-3.74-2-8-2.69-11.79-4.59a20.57,20.57,0,0,1-4.37-3.07,19.92,19.92,0,0,0-1.93-2.18,26.42,26.42,0,0,0-2.75-2.19l-.31-.27a16.44,16.44,0,0,0-3.5-2.32c.8-.62,1.59-1.3,2.4-1.86,3.79-2.65,6.76,1,10,3.08,1.92,1.24,3.09,3.47,4.86,4.92,2.38,2,6,2.59,8.95,3.16,5.32,1,10.79.57,16.09,1.87h0a17.61,17.61,0,0,1,3.53.64,29.14,29.14,0,0,1,6.21,3,136.55,136.55,0,0,1,20.55,14.66,90.27,90.27,0,0,0,10.49,8.41c3.76,2.47,7.65,4.28,11.2,7s7.41,4.83,10.75,7.66c.66.54,1.3,1.1,1.91,1.66a41.73,41.73,0,0,1,1-4.88c1.17-4.63,1.79-9.19,3.54-13.63a8.83,8.83,0,0,1,3.37-4.54c1-.66,2.29-.88,3.3-1.56a8.72,8.72,0,0,1,1.85-1.09.88.88,0,0,1,1,.28c.78,1.11.65,2.75.71,4a38.54,38.54,0,0,0,.76,7.68c.72,2.72,1.53,5.61,3.75,7.47,2.5,2.08,5.69,3.07,8.6,4.43a23.93,23.93,0,0,1,7.53,4.94c1.76,1.84,2.68,4,4.18,6,1.35,1.8,3.41,3.71,4.05,5.89a41.71,41.71,0,0,1,1.69,9.39C577.57,568.78,575.68,570.31,574.73,571.86Z"/><path class="cls-27" d="M431,488.19c-1.11.91-2.21,2.36-3.55,2.93a5.94,5.94,0,0,0-2.61,1.5,2.42,2.42,0,0,0-.1,2.16c-1.07-1.27-2.24-2.94-1.84-4.43.19-.66,1-1,1.5-1.36,1.18-.77,2.18-1.77,3.31-2.55,2.69-1.86,5-.6,7.18,1A4.12,4.12,0,0,0,431,488.19Z"/><path class="cls-28" d="M428.89,507.53c.22-.66,1.38-6.16,1.59-6.82.11.45.18,6.59.36,7.05,1.07,2.87,4.37,3.29,6.18,5.76,2,2.77,2.71,6.09,4.13,9.25s1.27,7.5,2.78,10.73A118.48,118.48,0,0,0,456,554.31a110.3,110.3,0,0,0,7.2,8.5c1.29,1.39,2.46,2.89,3.65,4.36a.33.33,0,0,0-.14.17,11.59,11.59,0,0,0-.77,3.55c-1,3.39-2.05,6.78-3.32,10.07-.43,1.16-.9,2.29-1.32,3.44-.31.59-.62,1.17-1,1.71-.21.36-.44.68-.66,1a33,33,0,0,1-2.42,2.6c-2.65,2.54-5.33,5.07-8.16,7.42a55.12,55.12,0,0,1-10.2,7.13,25.58,25.58,0,0,1-6.76,1.78,10.5,10.5,0,0,1-3.84-1.68c12.7-4.39,14-22.29,17.7-33.57,1.28-3.9,2.53-7.88,2.1-12s-3.1-7.81-4.44-11.6c-1.9-5.44-3.17-9.81-4.77-13.34-2.2-6.11-7.35-9.59-8.71-13.28C428.58,516.23,427.43,512.08,428.89,507.53Z"/><path class="cls-26" d="M447.85,544.34a32.38,32.38,0,0,1-5-9.36c-.88-2.94-1.44-6-2.42-8.92a22.36,22.36,0,0,0-4-7.33c-2.32-2.79-4.63-5.41-5.26-9.13-.08-.53-.14-1.05-.19-1.56,1.18,2.6,4.31,3.09,6.06,5.48,2,2.77,2.71,6.09,4.13,9.25s1.27,7.5,2.78,10.73a126.92,126.92,0,0,0,10.16,18.19A65,65,0,0,1,447.85,544.34Z"/><path class="cls-26" d="M465.92,570.89c-1,3.39-2.05,6.78-3.32,10.07-.43,1.16-.9,2.29-1.32,3.44-.31.59-.62,1.17-1,1.71-.21.36-.44.68-.66,1a33,33,0,0,1-2.42,2.6c-2.65,2.54-5.33,5.07-8.16,7.42,0,0-.09.06-.11.1-1.29-.61-.76-3,0-4.39,1.12-1.92,2.78-3.77,3.4-6a28.72,28.72,0,0,0,.79-6.86c.11-3,.94-5.57,1.42-8.45a20.8,20.8,0,0,0-.24-7.53c0-.42-.09-.83-.17-1.25-.13-.67-.29-1.34-.46-2-.22-1-.42-2-.58-3.11a25.07,25.07,0,0,0-1.1-5,54.12,54.12,0,0,0-.95-5.65c1.52,2.5,3.13,4.93,4.85,7.21a110.3,110.3,0,0,0,7.2,8.5c1.29,1.39,2.46,2.89,3.65,4.36a.33.33,0,0,0-.14.17A11.59,11.59,0,0,0,465.92,570.89Z"/><path class="cls-26" d="M465.92,570.89c-1,3.39-2.05,6.78-3.32,10.07-.43,1.16-.9,2.29-1.32,3.44-.31.59-.62,1.17-1,1.71-.21.36-.44.68-.66,1a33,33,0,0,1-2.42,2.6c-2.09,2-4.23,4-6.44,5.94,2.44-3.75,7-6,8.16-10.57.36-1.4,0-2.8-.12-4.18a12.6,12.6,0,0,1,.76-4.94c.66-1.89,1.68-4.13,1.33-6.21-.5-2.82-2.07-5.15-3.18-7.76a75.36,75.36,0,0,1-3.29-9c-.15-.45-.25-.91-.37-1.38.61.92,1.24,1.79,1.89,2.65a110.3,110.3,0,0,0,7.2,8.5c1.29,1.39,2.46,2.89,3.65,4.36a.33.33,0,0,0-.14.17A11.59,11.59,0,0,0,465.92,570.89Z"/><path class="cls-28" d="M574.73,571.85c-1.18,1.91-2.88,2.67-4.53,4.07-2.09,1.79-4.46,2.8-6.36,4.88-1.46,1.58-2.63,3.3-4.41,4.55a73.57,73.57,0,0,0-6.25,5c-1.11,1-2.21,2.18-3.38,3.17a14.81,14.81,0,0,1-1.33,1.59c-2,2-4,3.54-5.65,5.8-2.74,3.69-2.71,4.41-5.51,5.64a10.07,10.07,0,0,1-5.1.63c.9-.24,1.76-.53,2.62-.83a2.22,2.22,0,0,0,.84-.93,23,23,0,0,0,6.91-11c1.37-4.89-.2-10.69-1.78-15.5a28.24,28.24,0,0,0,0-4.41,17.65,17.65,0,0,0-.14-2.82,8.34,8.34,0,0,0-1.78-3.93c-1.29-1.78-1-3.55-1.65-5.47-.92-2.63-2.74-4.6-4.18-6.85,0-.17-1.21-2.62-1.27-2.77-1.51-4.31.12-10.33.38-10.1a40.78,40.78,0,0,1,1-4.89c1.18-4.61,1.79-9.18,3.54-13.62a8.91,8.91,0,0,1,3.37-4.54c1-.66,2.28-.87,3.29-1.56a9.5,9.5,0,0,1,1.87-1.09.84.84,0,0,1,1,.28c.77,1.12.64,2.75.7,4a37.81,37.81,0,0,0,.78,7.67c.7,2.72,1.49,5.6,3.73,7.46,2.51,2.09,5.69,3.06,8.58,4.41a24.72,24.72,0,0,1,7.56,5c1.75,1.86,2.66,4,4.18,6,1.35,1.8,3.39,3.71,4,5.9a42.91,42.91,0,0,1,1.71,9.38C577.57,568.78,575.67,570.31,574.73,571.85Z"/><path class="cls-29" d="M402,526.18a164.53,164.53,0,0,0-14.55-8,19.43,19.43,0,0,1-5.07-3.82,16.52,16.52,0,0,1-2.44-3c-.66-1.07-.85-2.36-1.52-3.42,0-.08.06-.23.14-.14,1.56,1.6,2.36,3.69,4,5.31a28.66,28.66,0,0,0,6.69,4.61,89.2,89.2,0,0,1,13,8.14A.19.19,0,1,1,402,526.18Z"/><path class="cls-29" d="M437.89,566.67c-.51-8.2-5.14-14.83-10.5-20.72-2.41-2.67-5-5-7.62-7.43a31.15,31.15,0,0,0-5-3.27c-.75-.43-1.64-.68-2.39-1.06S410.9,533,410,532.54c-.16-.08-.07-.26.08-.23,1.7.51,3.29,1.39,5,2a19.27,19.27,0,0,1,4.83,2.63c3.25,2.25,5.93,5.31,8.63,8.15,5.08,5.31,11.53,13.73,9.73,21.64C438.27,566.91,437.91,567,437.89,566.67Z"/><path class="cls-20" d="M483.57,554.24a1.08,1.08,0,0,1-.46-.68c-1.78-2.81-2.37-6.28-3.3-9.42a.19.19,0,0,1,.36-.13c.64,1.6,1.25,3.24,1.86,4.88a15.43,15.43,0,0,0,2.37,4.53C484.85,554,484.08,554.63,483.57,554.24Z"/><path class="cls-20" d="M486.4,555.24A55,55,0,0,1,480.68,541c-.09-.45.56-.5.65-.1,1.24,5,3.83,9.45,6,14h0A.51.51,0,0,1,486.4,555.24Z"/><path class="cls-20" d="M487.74,548.32c-.26-.77-.52-1.55-.76-2.36.25,1,.55,2,.88,3,.51,1.37,1.71,3.46,1.42,5a.51.51,0,0,1-.91.23c-2.55-4-3.67-8.81-5.52-13.12-.21-.48.53-.77.75-.31,1.13,2.56,2,5.31,3.11,7.93-.1-.3-.22-.62-.3-.91a47.88,47.88,0,0,1-1.47-7,.52.52,0,0,1,1-.27,53.8,53.8,0,0,1,2.58,7.52C488.66,548.52,487.92,548.82,487.74,548.32Z"/><path class="cls-20" d="M491.44,548.83a36.61,36.61,0,0,1-1.81-4.11,28.38,28.38,0,0,0-1.41-3.4.36.36,0,0,1-.38-.4,1.67,1.67,0,0,0,.08-.3.38.38,0,0,1,.67-.16,11.76,11.76,0,0,1,1.51,3c.72,1.65,1.4,3.33,2,5.07A.35.35,0,0,1,491.44,548.83Z"/><path class="cls-20" d="M521.11,582.39c-1.21-2-2.2-4.14-3.32-6.18-.15-.28.29-.54.44-.28,1.21,2,2.38,4.06,3.47,6.13C521.89,582.41,521.3,582.74,521.11,582.39Z"/><path class="cls-20" d="M524.36,587.07a16.45,16.45,0,0,1-2.32-5.56c-.74-2.54-1.38-5.13-2-7.72-.07-.38.51-.44.61-.07,1.07,4.38,2.11,9,4.31,13C525.22,587.1,524.61,587.39,524.36,587.07Z"/><path class="cls-20" d="M525.1,583.1c-1.38-2.6-1.62-5.57-2.94-8.19-.15-.31.38-.63.55-.3,1.45,2.57,1.86,5.54,3,8.24C525.88,583.24,525.28,583.46,525.1,583.1Z"/><path class="cls-20" d="M526.6,583c-1.91-3.24-2.71-7.12-3.66-10.71-.16-.48.53-1,.8-.47a1.25,1.25,0,0,1,.11.18.48.48,0,0,1,.08.29c1,3.51,2.16,6.92,3.29,10.38C527.34,583,526.82,583.32,526.6,583Z"/><path class="cls-20" d="M527.66,581.63c-1.48-2.83-2.07-6.06-2.81-9.14-.13-.57.75-.67.89-.11.76,3,1.78,6,2.62,9A.38.38,0,0,1,527.66,581.63Z"/><path class="cls-20" d="M528.05,578.08a19.89,19.89,0,0,1-1.25-3.7l0,0a10.76,10.76,0,0,1-.36-1.59h0a.65.65,0,0,1-.14-.64A.41.41,0,0,1,527,572c.27.64.25,1.37.53,2a.42.42,0,0,1,0,.12c.29,1.25.67,2.47,1,3.7A.31.31,0,0,1,528.05,578.08Z"/><path class="cls-20" d="M529.94,580.34a38.24,38.24,0,0,1-1.33-3.81c-.43-1.32-.57-2.7-1.07-4-.23-.59.67-.95.88-.36.52,1.29.65,2.67,1.05,4s.77,2.66,1.1,4C530.68,580.56,530.08,580.69,529.94,580.34Z"/><path class="cls-20" d="M550.57,584c-.17.17-.48-.06-.29-.24,1.86-2.08,2.59-4.36,3.74-6.83.11-.28.47-.09.39.18A15.79,15.79,0,0,1,550.57,584Z"/><path class="cls-20" d="M552.12,574.32c-.18.24-.61,0-.45-.27.52-.88.86-1.82,1.33-2.71.13-.3.65-.19.56.16A7.56,7.56,0,0,1,552.12,574.32Z"/><path class="cls-20" d="M551.54,564.79c-.1.28-.53.1-.42-.2a9.71,9.71,0,0,0,.53-1.81c0-.24.42-.18.4.07A6.86,6.86,0,0,1,551.54,564.79Z"/><path class="cls-20" d="M550.87,588.13a3.93,3.93,0,0,1-.88,1.07c-.14.12-.38-.08-.3-.24.19-.38.43-.71.63-1.07S551.06,587.77,550.87,588.13Z"/><path class="cls-20" d="M552.2,579.89a4.26,4.26,0,0,1-1.41,1.94c-.1.06-.18-.05-.1-.13a7.8,7.8,0,0,0,1.28-2.31c.46-.94.82-1.94,1.2-2.89a.19.19,0,0,1,.35.15A19.48,19.48,0,0,1,552.2,579.89Z"/><path class="cls-20" d="M552.19,572.35c-.11.1-.35,0-.25-.18.35-.64.63-1.33,1-2a.15.15,0,0,1,.27.13A6.21,6.21,0,0,1,552.19,572.35Z"/><path class="cls-20" d="M574.67,561.72a16.34,16.34,0,0,0-3.41-6.79,9.55,9.55,0,0,1-1.73-3.79c-1.2-5-4.7-7.46-9.08-9.7-.17-.07-.05-.31.11-.25,3.88,1.23,7.7,3.58,9.21,7.59.4,1.13.42,2.38.72,3.52.36,1.38,1.5,2.44,2.3,3.54a13.61,13.61,0,0,1,2.1,5.85C574.92,561.84,574.7,561.86,574.67,561.72Z"/><path class="cls-20" d="M474.62,526.11a26.68,26.68,0,0,0-4.33-3.38,8.17,8.17,0,0,1-3.51-3.87c-1.26-2.14-3.34-3.84-4.78-5.86a42.28,42.28,0,0,0-6-7c-4.14-3.58-10.8-2.43-15.28-5.52a21.79,21.79,0,0,1-2.81-2.55c-.91-.89-2.31-1-3.3-1.71-1.61-1.2-2.08-3.55-2.87-5.24-.08-.15.11-.22.2-.13,1.93,2.06,2.41,4.13,5.3,5.17,2.48.9,3.92,3.52,6.49,4.56,4.58,1.85,9.85,1.39,13.78,4.79a28.85,28.85,0,0,1,4.55,5.71,67.9,67.9,0,0,0,4.78,6,14.19,14.19,0,0,1,1.32,2.61c.72,1.48,1.9,1.74,3,2.65s3.05,2.15,3.8,3.57C475.12,526.06,474.81,526.28,474.62,526.11Z"/><path class="cls-30" d="M557.33,581.84a52,52,0,0,0-3.12,5,.14.14,0,0,1-.26-.12c.83-2.79,2.49-5.29,3.85-7.86,1.18-2.22.48-4.88.29-7.28a52.35,52.35,0,0,0-.78-6.33c-1.42-7.52-7.93-12.41-9.72-19.8-.05-.15.2-.21.26-.06A34.52,34.52,0,0,0,554.77,556c2.43,2.62,3.54,6.4,4.22,9.86a60,60,0,0,1,.65,6.48c.14,1.76.58,3.53,0,5.28A14.63,14.63,0,0,1,557.33,581.84Z"/><path class="cls-20" d="M469.29,568.52c-2.15-1.6-4.47-2.3-6.33-4.42-2.58-2.94-5.11-6-7.59-9a79.21,79.21,0,0,1-11.32-18.86c-1.47-3.42-1.64-7.09-2.79-10.58a48.08,48.08,0,0,0-1.68-5.45c-.77-1.67-.68-3.49-1.91-5-1.89-2.29-5.16-3.26-6.61-5.9-1.72-3.11-.6-6.73-.71-10.08,0-.27.34-.39.44-.12.46,1.22-.48,6.57.91,8.85,1,1.68,3.74,3.11,5.08,4a10.23,10.23,0,0,1,2.75,3,17.46,17.46,0,0,1,1.35,4c.4,1.56,1.22,3,1.59,4.54.88,3.74,1.42,7.68,2.76,11.27a70.19,70.19,0,0,0,11.25,19.46c2.31,2.89,4.82,5.65,7.08,8.58,1.7,2.17,4.26,3.35,5.86,5.56C469.48,568.48,469.37,568.6,469.29,568.52Z"/><path class="cls-31" d="M543.1,595a21.06,21.06,0,0,1-2,4.84,26.67,26.67,0,0,1-4.53,6c-.86.78-1.75,1.83-3,1.82a21.58,21.58,0,0,1-5.19-.86.11.11,0,0,1,0-.21c1.51,0,3,.07,4.54.08,1.74,0,3.33-2.69,4.14-4,.65-1.07,1.53-1.94,2.21-3a21.82,21.82,0,0,0,2.38-5.75c.6-2.14,1.34-3.95.68-6.2-.41-1.37-.93-2.66-1.2-4a38.32,38.32,0,0,1-.89-5.3c-.08-1.82.25-3.62.06-5.42-.33-3.22-3.28-5.2-3.53-8.43-.24-3.64-2.1-5.61-3.86-8.54a15.07,15.07,0,0,1-2.31-8c-.12-3,1.33-5.73,2.21-8.47,0,0,.09,0,.08,0a32.58,32.58,0,0,0-.74,10.9c.42,3.44,3,5.42,4.56,8.25a16.59,16.59,0,0,1,1.58,3.86c.27,1.11,0,2.17.41,3.29a18.23,18.23,0,0,0,1.95,3.13c1.94,3.23,1.17,6.56,1.33,10.1s2.15,6.95,2.38,10.53C544.49,591.38,543.57,593.3,543.1,595Z"/><path class="cls-21" d="M531.94,549.4c1.59,3.41,3.84,5.53,6.59,8,3.7,3.32,4.76,6.72,3.61,11.57-.6,2.53-1.67,5.67-.76,8.26,1.32,3.87,6.54,5.23,6.61,9.55.08,5-2.88,9.66-6.31,13.17a24.14,24.14,0,0,1-3.51,2.9,24.17,24.17,0,0,0,4.41-8.47c1.37-4.89-.2-10.69-1.78-15.5a28.24,28.24,0,0,0,0-4.41,17.65,17.65,0,0,0-.14-2.82,8.34,8.34,0,0,0-1.78-3.93c-1.29-1.78-1-3.55-1.65-5.47-.92-2.63-2.74-4.6-4.18-6.85,0-.17-1.21-2.62-1.27-2.77a14.1,14.1,0,0,1-.61-5.07A18.28,18.28,0,0,0,531.94,549.4Z"/><path class="cls-32" d="M574.73,571.85c-1.18,1.91-2.88,2.67-4.53,4.07-2.09,1.79-4.46,2.8-6.36,4.88-1.46,1.58-2.63,3.3-4.41,4.55a73.57,73.57,0,0,0-6.25,5c-.71.64-1.41,1.36-2.14,2a57.19,57.19,0,0,1,4.09-7c1.31-1.82,2.86-3.82,3-6.16s.3-4.81.35-7.21c.1-4.69-.23-9.31-2.68-13.45-2.85-4.81-6.62-9.17-9.86-13.73-4-5.52-6.92-11.13-4.4-18.07.93-2.61,2.34-5,3.2-7.66a4.34,4.34,0,0,0,.23-2.19l.22-.08a.84.84,0,0,1,1,.28c.77,1.12.64,2.75.7,4a37.81,37.81,0,0,0,.78,7.67c.7,2.72,1.49,5.6,3.73,7.46,2.51,2.09,5.69,3.06,8.58,4.41a24.72,24.72,0,0,1,7.56,5c1.75,1.86,2.66,4,4.18,6,1.35,1.8,3.39,3.71,4,5.9a42.91,42.91,0,0,1,1.71,9.38C577.57,568.78,575.67,570.31,574.73,571.85Z"/><path class="cls-33" d="M574.73,571.85a7.92,7.92,0,0,1-1.78,2,14.3,14.3,0,0,1,1-1.93,14.12,14.12,0,0,0,1.88-3.74c.64-2.44-.47-3.58-1.4-5.69-1-2.29-.06-4.6-1.87-6.57-1-1-2.13-1.83-3.08-2.85-1.27-1.34-1.49-2.92-2.29-4.45-2.24-4.27-6.21-5.57-10.76-6.14-1.71-.2-3.75-.26-5.64-.61a7.16,7.16,0,0,1-5.2-4.76c-1.15-3.53-.64-6.6.14-10,.47-2.19,1.7-6.78.69-9.59a9.2,9.2,0,0,1,.51,3.71,37.81,37.81,0,0,0,.78,7.67c.7,2.72,1.49,5.6,3.73,7.46,2.51,2.09,5.69,3.06,8.58,4.41a24.72,24.72,0,0,1,7.56,5c1.75,1.86,2.66,4,4.18,6,1.35,1.8,3.39,3.71,4,5.9a42.91,42.91,0,0,1,1.71,9.38C577.57,568.78,575.67,570.31,574.73,571.85Z"/><path class="cls-20" d="M531.22,549.4c.62,5.05,3.82,9,5.71,13.53-.54-.61-1.08-1.22-1.7-1.8-2.63-2.55-6.16-5.42-7.25-9.07-.8-2.66-.3-5.39-2-7.72-2-2.7-5.61-4.89-8.33-6.78-3.72-2.61-7.51-5.11-11.29-7.65-7.69-5.15-15.44-10.29-22.57-16.23-3-2.5-6-5.22-9.6-6.84A35.68,35.68,0,0,0,463,504c-4.93-.52-9.88-.62-14.76-1.58-3.79-.74-8.05-1.45-11.26-3.8-2.71-2-3.88-5.54-6.79-7.23-1.92-1.14-4.81.07-6.55,1a1.74,1.74,0,0,0-.36.24,3.25,3.25,0,0,1-.39-2.33c.19-.66,1-1,1.5-1.36,1.18-.77,2.18-1.77,3.31-2.55,3.79-2.65,6.76,1,10,3.08,1.92,1.24,3.09,3.47,4.86,4.92,2.38,2,6,2.59,8.95,3.16,5.32,1,10.79.57,16.09,1.87h0a17.61,17.61,0,0,1,3.53.64,29.14,29.14,0,0,1,6.21,3,136.55,136.55,0,0,1,20.55,14.66,90.27,90.27,0,0,0,10.49,8.41c3.76,2.47,7.65,4.28,11.2,7s7.41,4.83,10.75,7.66c.5.41,1,.83,1.43,1.25A22.09,22.09,0,0,0,531.22,549.4Z"/><path class="cls-34" d="M438.6,595.26a20,20,0,0,1-4.24,5.87,21.31,21.31,0,0,1-5.11,2.82c-4-5.56-3.83-13.28-2.63-19.77a67.69,67.69,0,0,1,2.82-11.28,46.14,46.14,0,0,0,2.79-9.3c.82-5.65-2.77-11.13-5.94-15.49a30.21,30.21,0,0,0-6.24-6.38c-2.63-2-5.71-3.14-8.36-5.1-5.11-3.78-9.36-8.9-15.78-10.49-3.09-.77-6.71-1-9.44-2.79-3.55-2.27-5.42-6.11-6.74-10-.76-2.29-.89-6.78-2.68-9,.78-.53,2.18-.16,3,.08,3.62,1.17,5.64,2.82,8.26,5.43a14.28,14.28,0,0,0,4.76,2.75c1.46.37,3.16-.16,4.61-.5,3.07-.71,6.09.68,8.8,1.93,3.21,1.47,6.24,3.35,9.32,5.07,2.31,1.31,5.59,2.94,7.2,5.11.94,1.28,1.6,2.7,2.53,4a9.17,9.17,0,0,0,4.82,3.15,31,31,0,0,0,4.73,1.72,3.43,3.43,0,0,1,.91.27,28.09,28.09,0,0,1,2.94,4.17c2.48,4.35,4.34,9,6.72,13.38.49.9,1,1.86,1.54,2.82,1,3.66,1.71,7.24.77,11.3-1.05,4.65-2.89,9-4.1,13.67C442.39,584.17,441.3,590.16,438.6,595.26Z"/><path class="cls-34" d="M443.85,578.65c-1.42,5.38-2.51,11.2-5.06,16.2.24-5.51-.48-11-.43-16.6.06-6.25.69-12.59-1.5-18.61a56.71,56.71,0,0,0-9.66-16,33.63,33.63,0,0,0-7.2-6.74c-2.85-1.85-6-3.17-8.84-5.08-5.72-3.85-11-8.06-17.39-10.74-3.46-1.46-7.61-2.93-10.28-5.67a26,26,0,0,1-4-5.64c-.32-.57-.65-1.22-1-1.9a9.56,9.56,0,0,0-1.5-3.5c.78-.53,2.18-.16,3,.08,3.62,1.17,5.64,2.82,8.26,5.43a14.28,14.28,0,0,0,4.76,2.75c1.46.37,3.16-.16,4.61-.5,3.07-.71,6.09.68,8.8,1.93,3.21,1.47,6.24,3.35,9.32,5.07,2.31,1.31,5.59,2.94,7.2,5.11.94,1.28,1.6,2.7,2.53,4a9.17,9.17,0,0,0,4.82,3.15,31,31,0,0,0,4.73,1.72,3.43,3.43,0,0,1,.91.27,28.09,28.09,0,0,1,2.94,4.17c2.48,4.35,4.34,9,6.72,13.38.49.9,1,1.86,1.54,2.82,1,3.66,1.71,7.24.77,11.3C446.9,569.63,445.06,574,443.85,578.65Z"/><path class="cls-34" d="M443.49,559.25a18.6,18.6,0,0,0-.69-8.64,35.33,35.33,0,0,0-3.52-7.71c-2.49-3.88-6.17-8.6-11.21-8.55-2.07,0-5.25.12-5.79-2.5-.19-1-.19-2-.33-3a6.83,6.83,0,0,0-2.16-4.29,37.24,37.24,0,0,0-6.17-4.08,71.65,71.65,0,0,0-7.65-4.42,10,10,0,0,0-5.75-1.09c-2.75.53-6.31,2.91-9,1.07s-3.57-5.61-5.34-8.44c.8.64,1.55,1.38,2.4,2.21a14.28,14.28,0,0,0,4.76,2.75c1.46.37,3.16-.16,4.61-.5,3.07-.71,6.09.68,8.8,1.93,3.21,1.47,6.24,3.35,9.32,5.07,2.31,1.31,5.59,2.94,7.2,5.11.94,1.28,1.6,2.7,2.53,4a9.17,9.17,0,0,0,4.82,3.15,31,31,0,0,0,4.73,1.72,3.43,3.43,0,0,1,.91.27,28.09,28.09,0,0,1,2.94,4.17c2.48,4.35,4.34,9,6.72,13.38.49.9,1,1.86,1.54,2.82,1,3.66,1.71,7.24.77,11.3a65,65,0,0,1-1.8,6.27C444.31,567.53,443.05,563.61,443.49,559.25Z"/></g></g></svg>