<svg xmlns="http://www.w3.org/2000/svg" viewBox="0 0 682 682"><defs><style>.cls-1{isolation:isolate;}.cls-2{fill:#d0d0cd;}.cls-3,.cls-6{fill:#d3d0b7;}.cls-4{fill:#c2c2c2;}.cls-5{fill:#e4e0c5;}.cls-6{opacity:0.5;}.cls-6,.cls-7,.cls-9{mix-blend-mode:multiply;}.cls-8{fill:#bec0b7;}.cls-9{opacity:0.4;}.cls-10{fill:#a6a79f;}.cls-11{fill:#c2969a;}.cls-12{fill:#c7b78e;}.cls-13{fill:#98c9ca;}</style></defs><g class="cls-1"><g id="Layer_3" data-name="Layer 3"><polygon class="cls-2" points="613.1 433.06 681.5 520.04 377.48 537.77 311.61 411.95 613.1 433.06"/><path class="cls-3" d="M629.14,423.77l15.21,16.05s-142.73-3.37-183.26-5.07S29.56,446.57,20.25,444.88L16,425.47S581.86,414.48,629.14,423.77Z"/><path class="cls-4" d="M456,394.65c0,2.51,38.86,95,38.86,95L36.31,480.36l7.6-62.5Z"/><path class="cls-3" d="M627.46,410.25l16,20.27s-108.09,0-138.5-2.52-434.07,1.68-461.93,5.89-38.85,2.56-38.85,2.56l3.37-26.2a155.08,155.08,0,0,1,16.05-2.52C32.08,406.88,602.12,404.34,627.46,410.25Z"/><path class="cls-5" d="M634.21,395.06s16,13.51,17.74,16.89-17.74,3.37-35.47,5.07-85.3,1.68-95.43,1.68c0,0-65-9.29-85.29-9.29S217,417.86,217,417.86L14.34,421.23l-.84-27S490.64,367.18,634.21,395.06Z"/><path class="cls-3" d="M641,382.39l14.36,21.95S614,397.59,592.83,401s-81.92-6.75-93.74-5.91S395.21,401.8,360.6,403.5s-153.7-3.37-161.31-1.7S3.38,400.13.83,399.29,11,359.59,12.66,362.13s49-5.08,54.9-4.24S641,382.39,641,382.39Z"/><path class="cls-5" d="M635.05,349.45l28.72,38.86s-65.88-4.24-87.82-4.24-165.52,5.07-198.47,2.54-82.75-5.91-112.31-4.22-250-5.07-250-5.07L28.7,342.7Z"/><path class="cls-6" d="M458.29,378.61c-41-2.33-81.81-6.52-122.76-9.26s-81.91-2.89-122.95-3.15c-40.47-.25-80.86-2-121.34-1.52-23.63.29-47.34.64-70.95-.41L28.7,342.7l606.35,6.75,13.16,17.81C637.31,373.72,494.74,380.7,458.29,378.61Z"/><path class="cls-3" d="M418.86,163.66,559.05,173.8,659.54,360.43s-87,13.52-115.69,12.68-65,1.68-92.05,1.68-113.16-13.52-134.27-11S96.27,362.13,77.68,363s-49,3.37-49,3.37L33.77,341S423.09,162,418.86,163.66Z"/><g class="cls-7"><path class="cls-3" d="M551,189.76c0-.11,0-.19,0-.29.32.43.62.88.94,1.31,2.33,5.32,6,11.12,7.54,14.27,2.7,5.38,5.42,10.78,8.06,16.2,6.51,13.48,12.53,27.43,20.55,40.07,15.84,25,27.13,53,40.24,79.33a1.11,1.11,0,0,1,0,1.17c-1.87-1.74-3.69-3.54-5.38-5.46-6.26-9.57-10.64-21-15.73-31-8.53-16.71-15.24-34-24.69-50.31-8.48-14.62-15.35-30.17-22.9-45.28-2.62-5.24-7.92-12.31-9.86-19.1A1,1,0,0,0,551,189.76Z"/><path class="cls-3" d="M531.46,184.77c4.24,13.13,12.68,25.27,18.23,38,.45,1.08-1,1-1.43.3-3.73-5.5-6.2-11.78-8.66-17.93-2.78-6.94-6.75-13-8.71-20.29C530.77,184.34,531.36,184.42,531.46,184.77Z"/><path class="cls-3" d="M519.64,188.88c6.74,12.17,14.71,23.52,20.52,36.3,6,13.23,11.2,26.77,17.71,39.8,6.29,12.62,9.92,26.36,16,39.08,5,10.39,10.32,20.9,13.74,32-8.75-18-18.47-35.5-27.34-53.44-2.66-6.51-5.32-13-8.47-19.27-2.06-4.11-3.9-8.24-5.67-12.37-.72-1.84-1.42-3.66-2.1-5.52a1.44,1.44,0,0,0-.47-.6c-2.09-5.13-4.11-10.28-6.22-15.54C531.85,215.65,524.18,202.8,519,189,518.85,188.55,519.47,188.55,519.64,188.88Z"/><path class="cls-3" d="M508.49,195.14c1.7,2.88,3.73,5.64,5.06,8.54a51,51,0,0,1,4.11,13.52,1.23,1.23,0,0,1-.17.94C514.14,210.66,511.68,202.7,508.49,195.14Z"/><path class="cls-3" d="M506.27,226.57c4.36,12.27,9.34,24.42,14.41,36.38,6.16,14.53,12.16,29.39,19.28,43.47,6,12,8.89,24.46,13.18,37.08.17.47,0,.75-.24.85q-3.52-6-6.63-12.27c-3.74-9.47-6.81-19.24-11.68-28.41-6.24-11.76-11.3-24.39-16.53-36.63-5.66-13.17-10.3-26.67-15.84-39.92-2.56-6.09-4.16-12.82-6.24-19.2C499.43,214.2,503.13,220.35,506.27,226.57Z"/><path class="cls-3" d="M471.62,182.33c1.39,7.1,6,13.5,8.88,20.07,3.21,7.32,7.21,15.09,9.18,22.8.59,2.33-1.9,2-2.92.65-4.93-6.68-7.4-15.31-9.62-23.23-1.9-6.79-5.85-13.33-6.32-20.45C470.78,181.55,471.56,181.92,471.62,182.33Z"/><path class="cls-3" d="M464,202.48c.6,2.37,2.14,3.74,2.87,5.89a80.93,80.93,0,0,0,3.91,8.89c2.35,4.87,5.24,8.84,6.24,14.28.35,1.94-2.23,1.25-2.84.18-2.48-4.29-4.24-9.61-5.88-14.27s-4.39-10.06-5.09-15C463.13,201.88,463.91,202.11,464,202.48Z"/><path class="cls-3" d="M493.22,252.81a.48.48,0,0,1,.28.25c6.68,11.49,10.39,25.38,15.49,37.69,5.63,13.62,9.85,28.24,16.34,41.45.76,1.56-1,1.91-1.8.72-6.74-9.45-9.76-23.23-13.83-34.05-5.34-14.26-9.48-30.5-16.18-44.16C493.41,254.08,493.31,253.44,493.22,252.81Z"/></g><path class="cls-5" d="M427.31,144.23s-99.65,23.66-146.1,22S87,156.07,70.93,160.28L16,353.68S102.17,341.86,148.63,341s126.67-3.38,138.49-3.38,233.08,5.92,233.08,5.92Z"/><g class="cls-7"><path class="cls-5" d="M413.28,159.42c4.57,14.08,13.1,26.84,18.74,40.56,5,12.09,12,23.26,17.06,35.3,11.74,27.88,26.41,54.2,38.2,82,.49,1.16-1.14,1.18-1.59.34C471.78,292,458.37,265.82,446,239.39c-11.91-25.44-27.9-52.23-33.41-80C412.5,158.89,413.19,159.12,413.28,159.42Z"/><path class="cls-5" d="M396.55,171.06c2.79,4.34,5.38,9.84,4.95,15.12-.13,1.57-2.31.2-2.43-.8-.6-5-1.16-9.39-3.5-13.93C395.15,170.61,396.12,170.41,396.55,171.06Z"/><path class="cls-5" d="M377.15,168c2.41,12.79,10,26,14.56,38.13,4.38,11.7,9.59,23.13,13.46,35,6.73,20.58,15.67,40.11,21.73,61,.52,1.78-1.72,1.86-2.38.53-9.6-19.08-15.81-41.13-23.09-61.25-4.77-13.22-10.09-26.24-14.52-39.6-3.61-10.92-10.06-22.43-10.78-34C376.09,167,377.05,167.48,377.15,168Z"/><path class="cls-5" d="M394.1,243c2.75,9.68,6.09,19.15,9.19,28.72.24.76-.73.59-.94.06A264.08,264.08,0,0,1,393,243.1C392.72,242.17,393.9,242.32,394.1,243Z"/><path class="cls-8" d="M322,179c1.91,5.75,4.55,11.31,6.92,16.63,7.17,16.15,37.8,98,47.75,121.91a138.41,138.41,0,0,1-14.14-1,114.93,114.93,0,0,1-18.84-3.21c-.53-1.51-1-3-1.51-4.34-4.3-12.21-41.09-116.19-46.55-131.89Q308.75,178.57,322,179Z"/><path class="cls-5" d="M285.69,189.06c.85,13.13,5.32,25.67,7.51,38.61a377.51,377.51,0,0,0,8.61,38.15c.15.53-.54.45-.66.06-3.33-10.76-7.41-22.87-8.88-33.95-1.9-14.42-6.7-28.39-7.09-43C285.18,188.57,285.67,188.77,285.69,189.06Z"/><path class="cls-5" d="M262.94,193.29c1.19,6.81,3.23,13.5,4,20.37.15,1.35-1.67.6-1.83-.34-1-6.69-2.14-13.42-2.77-20.17C262.28,192.7,262.88,193,262.94,193.29Z"/><path class="cls-5" d="M174.6,188.06c0-.25.41,0,.41.14.21,18.65,2.29,37.49,1.6,56.12,0,1.21-1.88.23-1.92-.63A537.66,537.66,0,0,1,174.6,188.06Z"/><path class="cls-5" d="M152.49,215.85c0-.43.7-.08.71.25.07,2.53.13,5.09.21,7.65,0,.86-1.14.3-1.12-.37C152.35,220.86,152.42,218.37,152.49,215.85Z"/><path class="cls-5" d="M90.65,239.33c1.45-21.21,4.43-43.34,9.53-64,.1-.41.65,0,.61.26-3.17,20-3.78,40.52-6,60.71C92.44,258,93,280.48,88.14,301.85c-.33,1.42-2.32.31-2.34-.77C85.62,280.54,89.23,259.82,90.65,239.33Z"/><path class="cls-5" d="M84.78,249.58c.18-.66,1.14-.06,1,.45-2.23,9.28-2.58,18.49-3.23,27.94-.06.83-1.29.16-1.32-.43A87.3,87.3,0,0,1,84.78,249.58Z"/><path class="cls-5" d="M69.79,249.78c1.79-20,4.06-40.31,10.9-59.37.14-.43.88.1.77.45-5.6,19.45-7,40.25-8.55,60.35-1.53,19.47-4.17,38.76-7.13,58-.15,1-1.5.18-1.53-.49C63.43,289.34,68.06,269.17,69.79,249.78Z"/></g><g class="cls-9"><path class="cls-10" d="M203.85,293.94c9.59,7.3,18.58,5.13,29.7,3.27,12.15-2,22.35,9.86,34.83,8.65,8.23-.79,7.54-8.59,3.83-13.64-2.17-2.94-6.12-4.74-9.48-6-3.89-1.43-11.12-1.27-12.49-6.06-2.66-9.34-10.25-11.18-18.62-12.94-3.64-.78-7.59,1.31-10.69,2.9a8.37,8.37,0,0,0-2.72,3.07c-3.36,1.9-6.77,4.3-10,3.76-2.33-.38-6.61-.45-8.72,1C193.29,282.38,199.51,290.63,203.85,293.94Z"/><path class="cls-11" d="M294.07,288.74c2.5,3.56,8.7,5.28,12.79,4.3,5.11-1.21,3.23-6.12-.48-7.71a40.15,40.15,0,0,0-5.05-2.09c-.05-.24-.26-.57-.48-.61C296.82,281.85,290.64,283.86,294.07,288.74Z"/><path class="cls-12" d="M299.29,260.21c2.08-.14,4.23-.36,6.4-.61.19,1.41.35,2.78.53,4.17-1.43.17-2.84.35-4.26.51-.31,0-.07.49.17.49,1.39-.08,2.78-.2,4.17-.38.11.9.23,1.78.34,2.65,0,.29.54.5.52.11-.06-.94-.15-1.88-.23-2.85,1.36-.16,2.71-.4,4.06-.69a23.75,23.75,0,0,0,3.06-.78,51.79,51.79,0,0,0,1.13,5.73c.08.26.64.45.59,0-.17-2.13-.33-4.25-.5-6.38a3.64,3.64,0,0,0,.55-.49c0-.06-.07-.17-.11-.13a2.07,2.07,0,0,1-.47.37c-.1-1.22-.19-2.45-.3-3.7,2-.35,4-.72,5.95-1.12.45,2.63.88,5.27,1.27,7.91,0,.18.37.33.34.08-.27-2.72-.64-5.42-1.06-8.1,4.46-1,8.82-2.06,12.92-3.31.06,0,0-.12-.06-.1-4.17,1.14-8.54,2-12.95,2.86-.41-2.56-.87-5.11-1.35-7.67,4.88-.9,9.7-2,14.37-3.37.06,0,0-.15-.07-.13-4.77,1.05-9.63,1.82-14.48,2.58q-.7-3.61-1.41-7.26a13.86,13.86,0,0,0,3.67-1.19c.09,0,0-.16-.07-.14a15.8,15.8,0,0,1-3.74.61c-.78-4-1.53-7.95-2.18-12,0,0-.1-.08-.09,0,.58,4,1.25,8,1.93,12l-1.5.12c-1.61.14-3.21.27-4.83.39a34.91,34.91,0,0,1-1.47-10.19c0-.1-.16-.2-.17-.1-.69,5.89,1.76,12.52,2.55,18.39,0,.14,0,.28.05.43q-3.62.54-7.21,1.18s0,0-.07,0l-.18-1.47c1-.22,2-.45,3-.72.08,0,0-.18-.08-.18-1,.23-2,.37-3,.51-.78-6-1.51-11.88-1.78-17.83,0-.08-.16-.15-.16,0a179.36,179.36,0,0,0,1.21,17.95c-1.29.19-2.57.39-3.83.7-.24.06,0,.47.21.43,1.22-.19,2.46-.41,3.68-.68.37,3.34.79,6.65,1.21,9.94-2.19.29-4.36.58-6.49.84C298.78,259.74,299,260.21,299.29,260.21Zm20-12.23-5.62.84h0c-.45-2.37-1.21-5-1.9-7.69a27.67,27.67,0,0,0,6.26-.41Zm-5.46,1.86c1.87-.28,3.76-.57,5.63-.92.45,2.54.9,5.1,1.33,7.65-2,.35-4,.68-6,1C314.61,255,314.3,252.4,313.85,249.84Zm-7.41,9.68q3.51-.43,7.07-1c.15,1.35.31,2.7.51,4.05a25.72,25.72,0,0,1-5.13.87c-.66.11-1.34.19-2,.27C306.74,262.3,306.6,260.91,306.44,259.52Zm-1.08-8.73a.29.29,0,0,0,.24.08c2.34-.23,4.71-.49,7.09-.82.29,2.56.51,5.15.75,7.73-2.37.35-4.72.68-7.07,1C306.06,256.1,305.71,253.44,305.36,250.79Z"/></g><path class="cls-13" d="M549.2,500.87a.91.91,0,0,1,.52-.06,1.09,1.09,0,0,1,.85.92v.07c0,.57-.37.65-.75.51a1.11,1.11,0,0,1-.77-.54C548.87,501.49,548.83,501,549.2,500.87Z"/></g></g></svg>