<svg xmlns="http://www.w3.org/2000/svg" viewBox="0 0 682 682"><defs><style>.cls-1{fill:#e8921f;}.cls-2{fill:#f5a220;}</style></defs><g id="Layer_4" data-name="Layer 4"><path class="cls-1" d="M144.23,282.26,393.88,531.91c-10.1,61.36,3,114.57,32.94,132.44,12.46,7.44,27.69,9.89,27.69,9.89,26.92,4.34,49.88-6.16,61.33-13.84,30.31-20.34,44.42-64.12,33.63-108.8,49.9,8,95.63-8.56,114.73-41.55,2.41-4.15,18.38-31.73,7.92-61.32-7.24-20.47-23.41-31.38-29.68-35.61-15.11-10.2-29.17-12.48-51.43-15.83a271.41,271.41,0,0,0-60.31-2.21Q405.87,270.27,281.05,145.43C299.15,76.21,269,17.07,229,5.61c-27.38-7.84-57.55,7.15-75.17,23.74C128,53.61,118.12,91.63,128.11,128.26,74.18,114.86,25.29,134.9,9.42,169.8c-13.81,30.34,2,61.62,3.95,65.28C33.58,273.52,86.35,293.73,144.23,282.26Z"/><path class="cls-2" d="M285.18,538.12,534.83,288.48c61.36,10.1,114.58-3,132.45-33,7.43-12.46,9.89-27.69,9.89-27.69,4.33-26.92-6.17-49.88-13.85-61.33C643,136.2,599.2,122.09,554.52,132.88,562.53,83,546,37.26,513,18.15c-4.15-2.41-31.74-18.38-61.33-7.91-20.47,7.23-31.38,23.4-35.61,29.67C405.84,55,403.57,69.08,400.22,91.34A270.22,270.22,0,0,0,398,151.65Q273.18,276.48,148.36,401.3C79.13,383.2,20,413.34,8.53,453.35c-7.84,27.38,7.16,57.55,23.74,75.18,24.27,25.78,62.28,35.71,98.91,25.71-13.4,53.93,6.64,102.82,41.54,118.7,30.35,13.8,61.62-2,65.28-4C276.44,648.77,296.66,596,285.18,538.12Z"/></g></svg>