<svg xmlns="http://www.w3.org/2000/svg" viewBox="0 0 682 682"><defs><style>.cls-1{isolation:isolate;}.cls-2{fill:#f1e5d9;}.cls-3{fill:#85807f;}.cls-4{fill:#d24335;}.cls-5{fill:#d95829;}.cls-12,.cls-6{fill:#c1f7ff;stroke:#d24335;}.cls-12,.cls-19,.cls-6{stroke-miterlimit:10;}.cls-7{fill:#52223a;}.cls-8{fill:#831812;}.cls-9{fill:#be9168;}.cls-10{fill:#590b0b;}.cls-11{fill:#7f6d5d;}.cls-12{opacity:0.5;}.cls-13{opacity:0.3;}.cls-14{fill:#fff;}.cls-15{fill:#f2ebbf;}.cls-16{fill:#63b7d2;}.cls-17{fill:#f7d3a3;mix-blend-mode:multiply;}.cls-18{fill:#784133;}.cls-19{fill:#5896b2;stroke:#f2ebbf;}.cls-20{fill:#fcf6db;}.cls-21{fill:#9f5840;}.cls-22{fill:#8f4930;}.cls-23,.cls-26{fill:#84a59c;}.cls-24{fill:#acd3d0;}.cls-25{fill:#966344;}.cls-25,.cls-26{fill-rule:evenodd;}</style></defs><g class="cls-1"><g id="Layer_3" data-name="Layer 3"><ellipse class="cls-2" cx="350.94" cy="441.63" rx="295.69" ry="153.1"/><ellipse class="cls-3" cx="345.68" cy="419.94" rx="290.43" ry="116.53"/><rect class="cls-4" x="106.74" y="159.55" width="466.87" height="287.17"/><rect class="cls-5" x="236.27" y="391.2" width="55.16" height="17.08" rx="4.78"/><rect class="cls-5" x="171.86" y="391.2" width="55.16" height="17.08" rx="4.78"/><rect class="cls-5" x="328.43" y="217.55" width="55.16" height="17.08" rx="4.78"/><rect class="cls-5" x="264.03" y="217.55" width="55.16" height="17.08" rx="4.78"/><rect class="cls-5" x="518.1" y="166.31" width="55.16" height="17.08" rx="4.78"/><rect class="cls-5" x="453.69" y="166.31" width="55.16" height="17.08" rx="4.78"/><rect class="cls-5" x="201.75" y="411.49" width="55.16" height="17.08" rx="4.78"/><rect class="cls-5" x="90.73" y="216.13" width="55.16" height="17.08" rx="4.78"/><rect class="cls-6" x="135.39" y="238.37" width="265.46" height="128.46"/><rect class="cls-7" x="426.29" y="244.6" width="106.4" height="202.12"/><rect class="cls-6" x="433.94" y="255.8" width="89.32" height="81.84"/><path class="cls-8" d="M566.13,192.11c0-.12,0-.24,0-.36a8.37,8.37,0,0,0-16.73,0c0,.12,0,.24,0,.36H539.8v-.36a8.36,8.36,0,1,0-16.72,0c0,.12,0,.24,0,.36h-9.63c0-.12,0-.24,0-.36a8.36,8.36,0,0,0-16.72,0c0,.12,0,.24,0,.36h-9.63c0-.12,0-.24,0-.36a8.36,8.36,0,0,0-16.72,0v.36H460.8c0-.12,0-.24,0-.36a8.37,8.37,0,0,0-16.73,0c0,.12,0,.24,0,.36h-9.62v-.36a8.36,8.36,0,0,0-16.72,0c0,.12,0,.24,0,.36h-9.63c0-.12,0-.24,0-.36a8.36,8.36,0,0,0-16.72,0c0,.12,0,.24,0,.36H381.8c0-.12,0-.24,0-.36a8.36,8.36,0,0,0-16.72,0v.36h-9.62c0-.12,0-.24,0-.36a8.37,8.37,0,0,0-16.73,0c0,.12,0,.24,0,.36h-9.62c0-.12,0-.24,0-.36a8.37,8.37,0,0,0-16.73,0c0,.12,0,.24,0,.36H302.8c0-.12,0-.24,0-.36a8.36,8.36,0,0,0-16.72,0c0,.12,0,.24,0,.36h-9.63c0-.12,0-.24,0-.36a8.36,8.36,0,0,0-16.72,0v.36h-9.62c0-.12,0-.24,0-.36a8.37,8.37,0,0,0-16.73,0c0,.12,0,.24,0,.36h-9.62c0-.12,0-.24,0-.36a8.37,8.37,0,0,0-16.73,0c0,.12,0,.24,0,.36h-9.63c0-.12,0-.24,0-.36a8.36,8.36,0,1,0-16.72,0c0,.12,0,.24,0,.36h-9.63c0-.12,0-.24,0-.36a8.36,8.36,0,1,0-16.72,0v.36h-9.62c0-.12,0-.24,0-.36a8.37,8.37,0,0,0-16.73,0c0,.12,0,.24,0,.36h-9.62c0-.12,0-.24,0-.36a8.37,8.37,0,0,0-16.73,0c0,.12,0,.24,0,.36H96.6v16.37H585.17V192.11Z"/><rect class="cls-8" x="96.78" y="115.78" width="490.71" height="43.77"/><rect class="cls-8" x="174.71" y="94.07" width="14.59" height="21.71"/><rect class="cls-8" x="489.99" y="94.07" width="11.74" height="21.71"/><rect class="cls-9" x="154.43" y="16.5" width="369.01" height="85.05"/><rect class="cls-10" x="159.41" y="23.62" width="357.62" height="70.46"/><circle class="cls-9" cx="520.41" cy="353.66" r="5.87"/><rect class="cls-11" x="295.7" y="341.39" width="60.49" height="8.54"/><rect class="cls-9" x="312.42" y="349.93" width="28.47" height="16.72"/><rect class="cls-11" x="171.86" y="341.39" width="72.59" height="8.54"/><rect class="cls-9" x="193.57" y="349.93" width="31.67" height="16.72"/><polygon class="cls-11" points="289.29 366.65 276.48 366.65 276.48 320.39 289.29 325.73 289.29 366.65"/><polygon class="cls-11" points="164.03 366.65 151.22 366.65 151.22 320.39 164.03 325.73 164.03 366.65"/><polygon class="cls-11" points="250.5 366.65 263.31 366.65 263.31 320.39 250.5 325.73 250.5 366.65"/><polygon class="cls-11" points="373.98 366.65 386.79 366.65 386.79 320.39 373.98 325.73 373.98 366.65"/><rect class="cls-12" x="135.39" y="238.37" width="265.46" height="128.46"/><g class="cls-13"><polygon class="cls-14" points="135.57 366.65 157.63 366.65 401.02 238.19 375.76 238.19 135.57 366.65"/></g><g class="cls-13"><polygon class="cls-14" points="400.92 262.42 206.02 366.65 228.09 366.65 400.92 275.43 400.92 262.42"/></g><g class="cls-13"><polygon class="cls-14" points="400.92 300.1 276.48 366.65 298.54 366.65 400.92 312.62 400.92 300.1"/></g><g class="cls-13"><polygon class="cls-14" points="400.92 337.78 346.94 366.65 369 366.65 400.92 349.8 400.92 337.78"/></g><g class="cls-13"><polygon class="cls-14" points="135.57 331.07 135.57 343.17 334.48 238.19 309.22 238.19 135.57 331.07"/></g><g class="cls-13"><polygon class="cls-14" points="135.99 305.38 263.31 238.19 238.05 238.19 135.99 292.78 135.99 305.38"/></g><g class="cls-13"><polygon class="cls-14" points="135.44 268.11 192.15 238.19 166.88 238.19 135.44 255 135.44 268.11"/></g><path class="cls-8" d="M207.11,69.89v1.94a4.84,4.84,0,0,1-1.49,3.62A5.07,5.07,0,0,1,197,71.83V48a13.06,13.06,0,0,0-.27-2,5.46,5.46,0,0,1-.13-1.76,1.7,1.7,0,0,1,.73-1.26,4.24,4.24,0,0,1,2.43-.49H210a13.37,13.37,0,0,1,5.33,1.08,13.66,13.66,0,0,1,7.32,7.32,13.35,13.35,0,0,1,1.08,5.32,10.47,10.47,0,0,1-.49,3.19,13.67,13.67,0,0,1-3.27,5.51,10.29,10.29,0,0,1-2.35,1.84l2.49,1.41a3.3,3.3,0,0,1,1.24,1.51,5,5,0,0,1,.38,1.92,5.42,5.42,0,0,1-.4,2,5.63,5.63,0,0,1-1.11,1.79,5.17,5.17,0,0,1-3.57,1.51A4.79,4.79,0,0,1,213,75.4Zm6.54-13.57a3.34,3.34,0,0,0-1.11-2.51A3.86,3.86,0,0,0,210,52.7l-2.86-.11v7.3l2.86-.11a4,4,0,0,0,2.57-1A3.07,3.07,0,0,0,213.65,56.32Z"/><path class="cls-8" d="M244.94,42.87A5.08,5.08,0,0,1,249.61,50a5.2,5.2,0,0,1-1.08,1.59,5.11,5.11,0,0,1-1.62,1.08,5,5,0,0,1-2,.41h-7.46v1.78h3.89a5,5,0,0,1,3.6,1.46,5.18,5.18,0,0,1,1.08,5.62,5,5,0,0,1-2.71,2.67,4.93,4.93,0,0,1-2,.41h-3.89v1.78h7.46a5,5,0,0,1,3.59,1.46,5.12,5.12,0,0,1,1.08,5.62,5.37,5.37,0,0,1-1.08,1.6,5.11,5.11,0,0,1-1.62,1.08,5,5,0,0,1-2,.4H232.4a5,5,0,0,1-5.08-5.08V48.32a11.91,11.91,0,0,0-.27-1.94,5.46,5.46,0,0,1-.13-1.76,1.73,1.73,0,0,1,.73-1.27,4.34,4.34,0,0,1,2.43-.48Z"/><path class="cls-8" d="M252.5,52.32a11.11,11.11,0,0,1,1.08-3.72,9.06,9.06,0,0,1,2.41-3,11.47,11.47,0,0,1,3.67-2,14.87,14.87,0,0,1,4.84-.73,12.14,12.14,0,0,1,2.41.29,16.39,16.39,0,0,1,5.4,2.27,8.62,8.62,0,0,1,2.08,1.87,4.83,4.83,0,0,1,.95,1.7,5.78,5.78,0,0,1,.24,1.94,6.21,6.21,0,0,1-.41,1.92,4.36,4.36,0,0,1-1.05,1.62,4.58,4.58,0,0,1-1.73,1.11,6.27,6.27,0,0,1-2,.38,5.92,5.92,0,0,1-2-.3,5.66,5.66,0,0,1-1.81-1A2.41,2.41,0,0,1,266,54a7.75,7.75,0,0,0-.46-.79,2.25,2.25,0,0,0-.62-.65,1.71,1.71,0,0,0-1-.27,2.51,2.51,0,0,0-1.25.25.82.82,0,0,0-.48.59,1,1,0,0,0,.21.73,2.23,2.23,0,0,0,.76.65l6,3.4A16.73,16.73,0,0,1,273,60.43a11.21,11.21,0,0,1,2.3,2.73,7.38,7.38,0,0,1,.94,2.75,6.91,6.91,0,0,1-.16,2.62,8.36,8.36,0,0,1-1.76,3.82,11.67,11.67,0,0,1-3,2.59,13.64,13.64,0,0,1-3.48,1.49,12.92,12.92,0,0,1-3.27.48,16,16,0,0,1-5.35-.62,11.2,11.2,0,0,1-3.14-1.59,11.83,11.83,0,0,1-2-2,7.77,7.77,0,0,1-1.33-2.32A5.21,5.21,0,0,1,252.5,68a4.47,4.47,0,0,1,1.08-2.3,4.11,4.11,0,0,1,1.44-1,5.55,5.55,0,0,1,2-.48,5.43,5.43,0,0,1,2.27.4,5.34,5.34,0,0,1,2.13,1.65,2.67,2.67,0,0,0,1.68,1.11,3.88,3.88,0,0,0,1.35,0,1,1,0,0,0,.92-1,1.59,1.59,0,0,0-.92-1.46c-.68-.43-1.74-1-3.16-1.76s-3.07-1.55-4.94-2.45a10.57,10.57,0,0,1-1.38-.79,4.82,4.82,0,0,1-1.41-1.46,7.61,7.61,0,0,1-1-2.4A11.3,11.3,0,0,1,252.5,52.32Z"/><path class="cls-8" d="M299.9,42.87A5.08,5.08,0,0,1,304.57,50a5.2,5.2,0,0,1-1.08,1.59,5.11,5.11,0,0,1-1.62,1.08,5,5,0,0,1-2,.41h-3.19l-.11,18.8a5,5,0,0,1-1.43,3.62,5.06,5.06,0,0,1-7.11,0,5,5,0,0,1-1.4-3.62L286.55,53h-3.19a4.87,4.87,0,0,1-3.62-1.49,5.18,5.18,0,0,1,0-7.21,4.88,4.88,0,0,1,3.62-1.46Z"/><path class="cls-8" d="M329.35,70a5,5,0,0,1-.08,3.92,5.36,5.36,0,0,1-4.86,3,4.75,4.75,0,0,1-1.9-.43,5.31,5.31,0,0,1-1.59-1.13,5.07,5.07,0,0,1-1.08-1.71l-.65-1.4h-8.65l-.64,1.4a5.26,5.26,0,0,1-1.09,1.71,5.31,5.31,0,0,1-1.59,1.13,4.67,4.67,0,0,1-1.89.43,5.36,5.36,0,0,1-4.86-3,5,5,0,0,1-.09-3.92l9.08-22.15a5,5,0,0,0,.38-1.46,5,5,0,0,1,.49-1.65,3.14,3.14,0,0,1,1.27-1.32,5.23,5.23,0,0,1,2.67-.54h.6a4.23,4.23,0,0,1,2.91,1.05,7.84,7.84,0,0,1,2,2.68Zm-14.48-8.48-1.68,4.05h3.35Z"/><path class="cls-8" d="M332.11,48.32a11.94,11.94,0,0,0-.28-1.94,5.76,5.76,0,0,1-.13-1.76,1.77,1.77,0,0,1,.73-1.27,4.34,4.34,0,0,1,2.43-.48h2.32a4.84,4.84,0,0,1,3.52,1.43A5.26,5.26,0,0,1,342.26,48V63.78a3,3,0,0,0,3,3,3,3,0,0,0,2.05-.86,2.8,2.8,0,0,0,.92-2.11V48.32a13.11,13.11,0,0,0-.27-1.94,5.49,5.49,0,0,1-.14-1.76,1.8,1.8,0,0,1,.73-1.27,4.36,4.36,0,0,1,2.43-.48h2.33a4.93,4.93,0,0,1,1.89.37,5.35,5.35,0,0,1,1.62,1.06,5.26,5.26,0,0,1,1.14,1.62,5,5,0,0,1,.43,2V63.78a13.2,13.2,0,0,1-1.11,5.08,13.59,13.59,0,0,1-7,7,12.28,12.28,0,0,1-5,1,12.75,12.75,0,0,1-5.11-1,13.07,13.07,0,0,1-7-7,13,13,0,0,1-1-5.11Z"/><path class="cls-8" d="M373.77,69.89v1.94a5.12,5.12,0,0,1-8.7,3.62,4.92,4.92,0,0,1-1.46-3.62V48a13.06,13.06,0,0,0-.27-2,5.46,5.46,0,0,1-.13-1.76,1.72,1.72,0,0,1,.72-1.26,4.3,4.3,0,0,1,2.44-.49h10.26A13.37,13.37,0,0,1,382,43.57a13.75,13.75,0,0,1,7.32,7.32,13.35,13.35,0,0,1,1.08,5.32,10.47,10.47,0,0,1-.49,3.19,13.67,13.67,0,0,1-3.27,5.51,10.29,10.29,0,0,1-2.35,1.84l2.49,1.41A3.36,3.36,0,0,1,388,69.67a5,5,0,0,1,.38,1.92,5.42,5.42,0,0,1-.4,2,6,6,0,0,1-1.11,1.79,5.17,5.17,0,0,1-3.57,1.51,4.77,4.77,0,0,1-3.62-1.51Zm6.54-13.57a3.34,3.34,0,0,0-1.11-2.51,3.86,3.86,0,0,0-2.57-1.11l-2.86-.11v7.3l2.86-.11a4,4,0,0,0,2.57-1A3.07,3.07,0,0,0,380.31,56.32Z"/><path class="cls-8" d="M419.38,70a5,5,0,0,1-.08,3.92,4.82,4.82,0,0,1-2.89,2.62,4.88,4.88,0,0,1-2,.35,4.74,4.74,0,0,1-1.89-.43A5.31,5.31,0,0,1,411,75.32a5.07,5.07,0,0,1-1.08-1.71l-.65-1.4h-8.65l-.64,1.4a5.26,5.26,0,0,1-1.09,1.71,5.31,5.31,0,0,1-1.59,1.13,4.67,4.67,0,0,1-1.89.43,5.38,5.38,0,0,1-4.87-3,5.06,5.06,0,0,1-.08-3.92l9.08-22.15a5,5,0,0,0,.38-1.46,5,5,0,0,1,.49-1.65,3.14,3.14,0,0,1,1.27-1.32,5.23,5.23,0,0,1,2.67-.54h.6a4.23,4.23,0,0,1,2.91,1.05,7.84,7.84,0,0,1,1.95,2.68ZM404.9,61.51l-1.68,4.05h3.35Z"/><path class="cls-8" d="M452.13,71.24a7.93,7.93,0,0,1-.33,2.29,4.37,4.37,0,0,1-1.24,2,5.2,5.2,0,0,1-1.75,1.1,4.6,4.6,0,0,1-1.92.3,5.35,5.35,0,0,1-1.9-.46,4.6,4.6,0,0,1-1.62-1.21L432.46,62.05l-.06,9.78A4.94,4.94,0,0,1,431,75.45a4.72,4.72,0,0,1-3.54,1.46,5,5,0,0,1-5.08-5.08V48.32a10.91,10.91,0,0,0-.27-1.94,5.46,5.46,0,0,1-.13-1.76,1.73,1.73,0,0,1,.73-1.27,4.34,4.34,0,0,1,2.43-.48h2.32a4.29,4.29,0,0,1,2.16.56A8.76,8.76,0,0,1,431.48,45c.11.15.27.34.46.57s.52.61.95,1.14l1.81,2.18c.77.94,1.76,2.12,2.95,3.54L442,57.67l0-9.18a8.5,8.5,0,0,0-.24-2,5.64,5.64,0,0,1-.19-1.81,1.69,1.69,0,0,1,.73-1.32,4.29,4.29,0,0,1,2.46-.51h2.32a4.62,4.62,0,0,1,1.89.4,5.31,5.31,0,0,1,1.62,1.11A5.79,5.79,0,0,1,451.7,46a4.63,4.63,0,0,1,.43,2Z"/><path class="cls-8" d="M477.36,42.87a4.92,4.92,0,0,1,3.6,1.46A4.86,4.86,0,0,1,482.44,48a4.93,4.93,0,0,1-.4,2A5.2,5.2,0,0,1,481,51.54a5.11,5.11,0,0,1-1.62,1.08,5,5,0,0,1-2,.41h-3.18l-.11,18.8a5,5,0,0,1-1.43,3.62,5.06,5.06,0,0,1-7.11,0,5,5,0,0,1-1.41-3.62L464,53h-3.19a5.08,5.08,0,1,1,0-10.16Z"/><path class="cls-15" d="M209.6,67.4v1.94A4.86,4.86,0,0,1,208.12,73a5,5,0,0,1-3.6,1.46,5,5,0,0,1-5.08-5.08V45.45a10.91,10.91,0,0,0-.27-1.94,5.46,5.46,0,0,1-.13-1.76,1.73,1.73,0,0,1,.73-1.27A4.34,4.34,0,0,1,202.2,40h10.27a13.35,13.35,0,0,1,5.32,1.08,13.66,13.66,0,0,1,7.32,7.32,13.35,13.35,0,0,1,1.08,5.32,10.82,10.82,0,0,1-.48,3.19,14,14,0,0,1-3.27,5.51,10.74,10.74,0,0,1-2.35,1.84l2.48,1.41a3.3,3.3,0,0,1,1.24,1.51,4.84,4.84,0,0,1,.38,1.92,5.46,5.46,0,0,1-.4,2,5.63,5.63,0,0,1-1.11,1.79,5.21,5.21,0,0,1-3.57,1.51,4.79,4.79,0,0,1-3.62-1.51Zm6.54-13.57A3.34,3.34,0,0,0,215,51.32a3.85,3.85,0,0,0-2.56-1.11l-2.87-.11v7.3l2.87-.11a4,4,0,0,0,2.56-1A3.09,3.09,0,0,0,216.14,53.83Z"/><path class="cls-15" d="M247.43,40.38A4.94,4.94,0,0,1,251,41.83a5.12,5.12,0,0,1,1.08,5.62,5,5,0,0,1-2.7,2.68,5,5,0,0,1-2,.41H240v1.78h3.89a4.92,4.92,0,0,1,3.6,1.46,5.18,5.18,0,0,1,1.08,5.62A5.2,5.2,0,0,1,247.46,61a5.11,5.11,0,0,1-1.62,1.08,5,5,0,0,1-2,.41H240v1.78h7.46A5,5,0,0,1,251,65.72a5.12,5.12,0,0,1,1.08,5.62A5.2,5.2,0,0,1,251,72.93,5,5,0,0,1,249.4,74a4.8,4.8,0,0,1-2,.41H234.89a5,5,0,0,1-5.08-5.08V45.83a10.91,10.91,0,0,0-.27-1.94,5.48,5.48,0,0,1-.13-1.76,1.73,1.73,0,0,1,.73-1.27,4.34,4.34,0,0,1,2.43-.48Z"/><path class="cls-15" d="M255,49.83a10.78,10.78,0,0,1,1.08-3.73,9.23,9.23,0,0,1,2.4-3,11.59,11.59,0,0,1,3.68-2,14.76,14.76,0,0,1,4.83-.73,12.14,12.14,0,0,1,2.41.29,16.19,16.19,0,0,1,2.75.87,15.64,15.64,0,0,1,2.65,1.4,8.62,8.62,0,0,1,2.08,1.87,4.83,4.83,0,0,1,.95,1.7,5.31,5.31,0,0,1,.24,1.94,6.5,6.5,0,0,1-.4,1.92,4.78,4.78,0,0,1-2.79,2.73,6.22,6.22,0,0,1-2,.38,5.83,5.83,0,0,1-2-.3,5.55,5.55,0,0,1-1.81-1,2.22,2.22,0,0,1-.54-.67c-.15-.28-.3-.54-.46-.79a2.39,2.39,0,0,0-.62-.65,1.77,1.77,0,0,0-1-.27,2.45,2.45,0,0,0-1.24.25.86.86,0,0,0-.49.59,1,1,0,0,0,.22.73,2.29,2.29,0,0,0,.75.65l6,3.4a16.52,16.52,0,0,1,3.89,2.49,11,11,0,0,1,2.3,2.73,7.15,7.15,0,0,1,.94,2.75,6.91,6.91,0,0,1-.16,2.62,8.28,8.28,0,0,1-1.76,3.81,11.64,11.64,0,0,1-3,2.6,13.47,13.47,0,0,1-3.49,1.48,12.53,12.53,0,0,1-3.27.49,16,16,0,0,1-5.35-.62,11,11,0,0,1-3.13-1.59,11.54,11.54,0,0,1-2-2,7.86,7.86,0,0,1-1.32-2.32,5.09,5.09,0,0,1-.27-2.43,4.32,4.32,0,0,1,1.08-2.3,3.86,3.86,0,0,1,1.43-1,5.55,5.55,0,0,1,2.05-.48,5.43,5.43,0,0,1,2.27.4A5.37,5.37,0,0,1,264,63.72a2.63,2.63,0,0,0,1.67,1.11,3.88,3.88,0,0,0,1.35,0,1,1,0,0,0,.92-1,1.58,1.58,0,0,0-.92-1.46c-.68-.43-1.74-1-3.16-1.76s-3.07-1.55-4.94-2.46a9.36,9.36,0,0,1-1.38-.78,5.06,5.06,0,0,1-1.41-1.46,7.61,7.61,0,0,1-1-2.4A11.34,11.34,0,0,1,255,49.83Z"/><path class="cls-15" d="M302.39,40.38A4.94,4.94,0,0,1,306,41.83a5.12,5.12,0,0,1,1.08,5.62,5,5,0,0,1-2.7,2.68,5,5,0,0,1-2,.41H299.2l-.11,18.8A5,5,0,0,1,297.66,73a5.06,5.06,0,0,1-7.11,0,5,5,0,0,1-1.4-3.62L289,50.54h-3.19a4.87,4.87,0,0,1-3.62-1.49,5.06,5.06,0,0,1,3.62-8.67Z"/><path class="cls-15" d="M331.84,67.5a5,5,0,0,1-.08,3.92A4.85,4.85,0,0,1,328.87,74a5,5,0,0,1-2,.35A4.75,4.75,0,0,1,325,74a5.31,5.31,0,0,1-1.59-1.13,5.07,5.07,0,0,1-1.08-1.71l-.65-1.4H313l-.64,1.4a5.4,5.4,0,0,1-1.08,1.71,5.23,5.23,0,0,1-1.6,1.13,4.67,4.67,0,0,1-1.89.43,5,5,0,0,1-2-.35A4.82,4.82,0,0,1,303,71.42a5,5,0,0,1-.08-3.92L312,45.35a5,5,0,0,0,.38-1.46,5.24,5.24,0,0,1,.49-1.65,3.14,3.14,0,0,1,1.27-1.32,5.23,5.23,0,0,1,2.67-.54h.6a4.27,4.27,0,0,1,2.92,1,8,8,0,0,1,1.94,2.67ZM317.36,59l-1.68,4H319Z"/><path class="cls-15" d="M334.6,45.83a13.11,13.11,0,0,0-.27-1.94,5.51,5.51,0,0,1-.14-1.76,1.77,1.77,0,0,1,.73-1.27,4.34,4.34,0,0,1,2.43-.48h2.33a4.82,4.82,0,0,1,3.51,1.43,5.31,5.31,0,0,1,1.57,3.64V61.29a2.86,2.86,0,0,0,.86,2.11,2.9,2.9,0,0,0,2.11.86,3,3,0,0,0,2-.86,2.8,2.8,0,0,0,.92-2.11V45.83a13.11,13.11,0,0,0-.27-1.94,5.81,5.81,0,0,1-.14-1.76,1.8,1.8,0,0,1,.73-1.27,4.4,4.4,0,0,1,2.44-.48h2.32a4.93,4.93,0,0,1,1.89.37,5.35,5.35,0,0,1,1.62,1.06,5.26,5.26,0,0,1,1.14,1.62,4.91,4.91,0,0,1,.43,2V61.29a13.2,13.2,0,0,1-1.11,5.08,13.59,13.59,0,0,1-7,7,12.28,12.28,0,0,1-5,1,12.79,12.79,0,0,1-5.11-1,13.07,13.07,0,0,1-7-7,13,13,0,0,1-1-5.11Z"/><path class="cls-15" d="M376.26,67.4v1.94A4.84,4.84,0,0,1,374.77,73a5.07,5.07,0,0,1-8.67-3.62V45.45a13.11,13.11,0,0,0-.27-1.94,5.46,5.46,0,0,1-.13-1.76,1.73,1.73,0,0,1,.73-1.27,4.34,4.34,0,0,1,2.43-.48h10.26a13.37,13.37,0,0,1,5.33,1.08,13.66,13.66,0,0,1,7.32,7.32,13.35,13.35,0,0,1,1.08,5.32,10.51,10.51,0,0,1-.49,3.19,13.67,13.67,0,0,1-3.27,5.51,10.29,10.29,0,0,1-2.35,1.84l2.49,1.41a3.3,3.3,0,0,1,1.24,1.51,5,5,0,0,1,.38,1.92,5.46,5.46,0,0,1-.4,2,5.63,5.63,0,0,1-1.11,1.79,5.21,5.21,0,0,1-3.57,1.51,4.79,4.79,0,0,1-3.62-1.51Zm6.54-13.57a3.34,3.34,0,0,0-1.11-2.51,3.86,3.86,0,0,0-2.57-1.11l-2.86-.11v7.3l2.86-.11a4,4,0,0,0,2.57-1A3.09,3.09,0,0,0,382.8,53.83Z"/><path class="cls-15" d="M421.87,67.5a5,5,0,0,1-.08,3.92A4.85,4.85,0,0,1,418.9,74a5,5,0,0,1-2,.35A4.75,4.75,0,0,1,415,74a5.31,5.31,0,0,1-1.59-1.13,5.07,5.07,0,0,1-1.08-1.71l-.65-1.4h-8.65l-.64,1.4a5.4,5.4,0,0,1-1.08,1.71,5.23,5.23,0,0,1-1.6,1.13,4.67,4.67,0,0,1-1.89.43,5,5,0,0,1-2-.35A4.82,4.82,0,0,1,393,71.42a5,5,0,0,1-.08-3.92L402,45.35a5,5,0,0,0,.38-1.46,5.24,5.24,0,0,1,.49-1.65,3.14,3.14,0,0,1,1.27-1.32,5.23,5.23,0,0,1,2.67-.54h.6a4.27,4.27,0,0,1,2.92,1,8,8,0,0,1,1.94,2.67ZM407.39,59l-1.68,4h3.35Z"/><path class="cls-15" d="M454.62,68.75A8.33,8.33,0,0,1,454.3,71a4.48,4.48,0,0,1-1.25,2,5.2,5.2,0,0,1-1.75,1.1,4.58,4.58,0,0,1-1.92.3,5.46,5.46,0,0,1-1.89-.46,4.54,4.54,0,0,1-1.63-1.21L435,59.56l-.06,9.78A4.94,4.94,0,0,1,433.46,73a4.76,4.76,0,0,1-3.54,1.46,5,5,0,0,1-5.08-5.08V45.83a10.91,10.91,0,0,0-.27-1.94,5.48,5.48,0,0,1-.13-1.76,1.77,1.77,0,0,1,.73-1.27,4.34,4.34,0,0,1,2.43-.48h2.32a4.23,4.23,0,0,1,2.17.56A9,9,0,0,1,434,42.48a6.38,6.38,0,0,0,.46.57l.94,1.14,1.81,2.18,2.95,3.54,4.37,5.27L444.46,46a8.49,8.49,0,0,0-.24-2,5.64,5.64,0,0,1-.19-1.81,1.72,1.72,0,0,1,.73-1.32,4.29,4.29,0,0,1,2.46-.51h2.32a4.62,4.62,0,0,1,1.89.4,5.31,5.31,0,0,1,1.62,1.11,5.79,5.79,0,0,1,1.14,1.62,4.62,4.62,0,0,1,.43,1.94Z"/><path class="cls-15" d="M479.85,40.38a5,5,0,0,1,3.6,1.45,5.18,5.18,0,0,1,1.08,5.62,5,5,0,0,1-2.7,2.68,5,5,0,0,1-2,.41h-3.18l-.11,18.8A5,5,0,0,1,475.13,73,5.06,5.06,0,0,1,468,73a5,5,0,0,1-1.4-3.62l-.11-18.8h-3.19a4.87,4.87,0,0,1-3.62-1.49,5.06,5.06,0,0,1,3.62-8.67Z"/><path class="cls-2" d="M659.7,551.27a37,37,0,0,0-26-10.62h-35.1a37.35,37.35,0,0,0-14.8,3,35.9,35.9,0,0,0-14.44-3h-4.94c-7.37,0-13.54,1.59-18.78,4.84l-.08,0a35.36,35.36,0,0,0-17.84-4.8h-4.93c-8.45,0-15.3,2.06-20.93,6.29l-.77.61a35.1,35.1,0,0,0-21.2-6.9h-1.27a36.76,36.76,0,0,0-19.3,5,34.38,34.38,0,0,0-6.5,5.12,56.46,56.46,0,0,0-11.25-6.45,54.53,54.53,0,0,0-21.68-4.43H398.06a36.82,36.82,0,0,0-15.29,3,36.59,36.59,0,0,0-12.47-2.19h-4.93a37.08,37.08,0,0,0-15,2.84,36.85,36.85,0,0,0-14.24-2.84h-4.93c-8.45,0-15.3,2.06-20.93,6.29l-.55.43a35.13,35.13,0,0,0-21-6.72h-1.26a38.62,38.62,0,0,0-15.66,3.08A37.23,37.23,0,0,0,257,540.65h-35.1a37.17,37.17,0,0,0-18.33,4.78c-.24-.11-.48-.23-.73-.33a61.51,61.51,0,0,0-10.34-3.23,50.21,50.21,0,0,0-10.63-1.22,58,58,0,0,0-18.76,3c-1.56.54-3.08,1.13-4.55,1.79a37.07,37.07,0,0,0-18.21-4.75H108.77c-7.32,0-13.44,1.56-18.6,4.72-.79-.38-1.58-.74-2.39-1.09a54.53,54.53,0,0,0-21.68-4.43H44.31c-8.44,0-15.28,2.06-20.93,6.29a29.88,29.88,0,0,0-11.93,21A37.34,37.34,0,0,0,12.18,579v49.42a37.15,37.15,0,0,0,52.54,33.72,36.17,36.17,0,0,0,15.2,3.35h1a37.22,37.22,0,0,0,15.92-4,37.37,37.37,0,0,0,16.89,4h26.61a36.81,36.81,0,0,0,14.55-3c1-.44,2-.93,3-1.45,1.36.59,2.77,1.15,4.24,1.66A57.38,57.38,0,0,0,181,665.49h1.29a53.46,53.46,0,0,0,13.53-1.93,55.7,55.7,0,0,0,14-6q2-1.17,3.79-2.52a36.39,36.39,0,0,0,25.75,10.41,37,37,0,0,0,14.52-2.93L255,663a36.8,36.8,0,0,0,13.2,2.45h1a36.4,36.4,0,0,0,14.21-3.27,37.32,37.32,0,0,0,5.35-3,36.79,36.79,0,0,0,5.35,3,36.36,36.36,0,0,0,14.15,3.27h1A36.81,36.81,0,0,0,322.49,663a38.83,38.83,0,0,0,6.54-3.19c1,.49,2,1,3,1.4a53.47,53.47,0,0,0,21.16,4.29A52.31,52.31,0,0,0,374.53,661a54.09,54.09,0,0,0,5.91-3.06,37.49,37.49,0,0,0,38,4.21,36.18,36.18,0,0,0,15.21,3.35h1a37.56,37.56,0,0,0,12-2.29,36.89,36.89,0,0,0,12.62,2.24h1a36.6,36.6,0,0,0,19.55-6.26,37.43,37.43,0,0,0,5.36,3,36.36,36.36,0,0,0,14.15,3.27h1A36.81,36.81,0,0,0,513.59,663l.27-.11a37.48,37.48,0,0,0,13.82,2.61,36.55,36.55,0,0,0,20.88-6.43,35.85,35.85,0,0,0,5.78,3.22,37.6,37.6,0,0,0,13.19,3.17c.66,0,1.33.06,2,.06a36.3,36.3,0,0,0,12.65-2.28,36.94,36.94,0,0,0,10.52-6.05,37.05,37.05,0,0,0,49.7-2.66,37,37,0,0,0,10.56-26l.11-19.22a36.16,36.16,0,0,0,6.81-5.36,37.16,37.16,0,0,0,7.76-11.37,37.19,37.19,0,0,0-7.93-41.3Z"/><path class="cls-16" d="M60,624.29v4.13a10.32,10.32,0,0,1-3.15,7.68,11,11,0,0,1-15.31,0,10.4,10.4,0,0,1-3.1-7.68v-50.7a26.63,26.63,0,0,0-.57-4.13,11.76,11.76,0,0,1-.29-3.73,3.68,3.68,0,0,1,1.55-2.69q1.38-1,5.16-1H66.1a28.26,28.26,0,0,1,11.3,2.3A29.16,29.16,0,0,1,92.94,584a28.3,28.3,0,0,1,2.3,11.3,23,23,0,0,1-1,6.77,29.23,29.23,0,0,1-6.94,11.7,22.77,22.77,0,0,1-5,3.9l5.27,3a7.07,7.07,0,0,1,2.64,3.21,10.51,10.51,0,0,1,.8,4.07,11.49,11.49,0,0,1-.86,4.3A11.71,11.71,0,0,1,87.78,636a11,11,0,0,1-7.57,3.21A10.11,10.11,0,0,1,72.53,636ZM73.9,595.5a7.12,7.12,0,0,0-2.35-5.34,8.14,8.14,0,0,0-5.45-2.35L60,587.58v15.49l6.08-.23a8.51,8.51,0,0,0,5.45-2.18A6.58,6.58,0,0,0,73.9,595.5Z"/><path class="cls-16" d="M140.32,566.94A10.52,10.52,0,0,1,148,570,10.94,10.94,0,0,1,150.24,582a10.6,10.6,0,0,1-5.74,5.68,10.36,10.36,0,0,1-4.18.86H124.49v3.79h8.26a10.48,10.48,0,0,1,7.62,3.09,10.92,10.92,0,0,1,2.3,11.93,11,11,0,0,1-2.3,3.39,10.79,10.79,0,0,1-3.44,2.29,10.53,10.53,0,0,1-4.18.86h-8.26v3.79h15.83a10.52,10.52,0,0,1,7.63,3.09,10.94,10.94,0,0,1,2.29,11.93,11.14,11.14,0,0,1-2.29,3.39,11,11,0,0,1-3.45,2.29,10.53,10.53,0,0,1-4.18.86H113.71a10.59,10.59,0,0,1-10.79-10.78v-49.9a25.62,25.62,0,0,0-.57-4.13,11.68,11.68,0,0,1-.29-3.72,3.75,3.75,0,0,1,1.55-2.7q1.38-1,5.16-1Z"/><path class="cls-16" d="M156.38,587a23,23,0,0,1,2.29-7.91,19.45,19.45,0,0,1,5.11-6.37,24.45,24.45,0,0,1,7.8-4.24,31.42,31.42,0,0,1,10.26-1.55,24.75,24.75,0,0,1,5.11.63,34.59,34.59,0,0,1,5.85,1.83,33.35,33.35,0,0,1,5.62,3,18.5,18.5,0,0,1,4.41,4,10.16,10.16,0,0,1,2,3.62,11.73,11.73,0,0,1,.52,4.13,13.69,13.69,0,0,1-.86,4.07,9.8,9.8,0,0,1-2.24,3.44,9.9,9.9,0,0,1-3.67,2.35,13.16,13.16,0,0,1-4.24.8,12.73,12.73,0,0,1-4.31-.63,12.08,12.08,0,0,1-3.84-2.06,4.72,4.72,0,0,1-1.15-1.44c-.3-.57-.63-1.12-1-1.66a5.4,5.4,0,0,0-1.32-1.38,3.71,3.71,0,0,0-2.18-.57,5.39,5.39,0,0,0-2.64.52,1.81,1.81,0,0,0-1,1.26,2.1,2.1,0,0,0,.46,1.55,4.83,4.83,0,0,0,1.6,1.37l12.74,7.23a35.44,35.44,0,0,1,8.26,5.28,23.5,23.5,0,0,1,4.87,5.79,15.46,15.46,0,0,1,2,5.85,14.89,14.89,0,0,1-.35,5.56,17.75,17.75,0,0,1-3.72,8.09,24.68,24.68,0,0,1-6.37,5.5,29.07,29.07,0,0,1-7.4,3.16,26.88,26.88,0,0,1-6.94,1,33.9,33.9,0,0,1-11.35-1.32,23.22,23.22,0,0,1-6.66-3.38,24.72,24.72,0,0,1-4.3-4.19,16.78,16.78,0,0,1-2.81-4.93,10.91,10.91,0,0,1-.57-5.16,9.41,9.41,0,0,1,2.29-4.88,8.42,8.42,0,0,1,3-2.18,11.87,11.87,0,0,1,4.36-1,11.62,11.62,0,0,1,4.82.86,11.36,11.36,0,0,1,4.53,3.5,5.57,5.57,0,0,0,3.55,2.35,8.22,8.22,0,0,0,2.87.06,2.16,2.16,0,0,0,1.95-2.18,3.36,3.36,0,0,0-1.95-3.1q-2.18-1.38-6.71-3.73t-10.49-5.22a21.3,21.3,0,0,1-2.93-1.66,10.44,10.44,0,0,1-3-3.1,16.05,16.05,0,0,1-2.07-5.1A24.14,24.14,0,0,1,156.38,587Z"/><path class="cls-16" d="M257,566.94A10.49,10.49,0,0,1,264.6,570,10.92,10.92,0,0,1,266.9,582a11,11,0,0,1-2.3,3.39,10.79,10.79,0,0,1-3.44,2.29,10.41,10.41,0,0,1-4.19.86h-6.76L250,628.42a10.54,10.54,0,0,1-3,7.68,10.73,10.73,0,0,1-15.09,0,10.62,10.62,0,0,1-3-7.68l-.23-39.92h-6.77a10.32,10.32,0,0,1-7.68-3.15,10.75,10.75,0,0,1,7.68-18.41Z"/><path class="cls-16" d="M319.49,624.52a10.66,10.66,0,0,1-.17,8.32,10.35,10.35,0,0,1-6.14,5.56,10.72,10.72,0,0,1-4.19.74,10.17,10.17,0,0,1-4-.91,11.12,11.12,0,0,1-3.39-2.41,10.73,10.73,0,0,1-2.29-3.62l-1.38-3H279.57l-1.38,3a10.73,10.73,0,0,1-2.29,3.62,11.2,11.2,0,0,1-3.38,2.41,10.26,10.26,0,0,1-4,.91,10.72,10.72,0,0,1-4.19-.74,10.31,10.31,0,0,1-6.13-5.56,10.57,10.57,0,0,1-.17-8.32l19.27-47a10.67,10.67,0,0,0,.8-3.1,11,11,0,0,1,1-3.5,6.77,6.77,0,0,1,2.7-2.81,11.21,11.21,0,0,1,5.68-1.14h1.26a9,9,0,0,1,6.19,2.23,17.33,17.33,0,0,1,4.13,5.68Zm-30.74-18-3.56,8.6h7.11Z"/><path class="cls-16" d="M325.34,578.52a25.65,25.65,0,0,0-.58-4.13,11.65,11.65,0,0,1-.28-3.72A3.71,3.71,0,0,1,326,568q1.37-1,5.16-1h4.93a10.26,10.26,0,0,1,7.46,3,11.17,11.17,0,0,1,3.32,7.74v33.61a6.28,6.28,0,0,0,6.31,6.31,6.18,6.18,0,0,0,4.36-1.84,5.9,5.9,0,0,0,1.95-4.47V578.52a26.79,26.79,0,0,0-.57-4.13,11.68,11.68,0,0,1-.29-3.72,3.71,3.71,0,0,1,1.55-2.7q1.38-1,5.16-1h4.93a10.56,10.56,0,0,1,4,.8,11,11,0,0,1,3.44,2.24,11.26,11.26,0,0,1,2.41,3.44,10.24,10.24,0,0,1,.91,4.3v33.61a27.59,27.59,0,0,1-2.35,10.78A28.74,28.74,0,0,1,363.88,637a25.92,25.92,0,0,1-10.67,2.24A27.37,27.37,0,0,1,342.37,637a27.65,27.65,0,0,1-14.85-14.85,27.2,27.2,0,0,1-2.18-10.84Z"/><path class="cls-16" d="M413.78,624.29v4.13a10.33,10.33,0,0,1-3.16,7.68,10.76,10.76,0,0,1-18.41-7.68v-50.7a26.63,26.63,0,0,0-.57-4.13,11.76,11.76,0,0,1-.29-3.73,3.71,3.71,0,0,1,1.55-2.69q1.38-1,5.16-1h21.79a28.26,28.26,0,0,1,11.3,2.3,29.29,29.29,0,0,1,9.29,6.25A29.59,29.59,0,0,1,446.7,584a28.46,28.46,0,0,1,2.29,11.3,23,23,0,0,1-1,6.77,29.23,29.23,0,0,1-6.94,11.7,22.77,22.77,0,0,1-5,3.9l5.27,3a7.07,7.07,0,0,1,2.64,3.21,10.51,10.51,0,0,1,.8,4.07,11.49,11.49,0,0,1-.86,4.3,11.71,11.71,0,0,1-2.35,3.79A11,11,0,0,1,434,639.2a10.11,10.11,0,0,1-7.68-3.21Zm13.87-28.79a7.12,7.12,0,0,0-2.35-5.34,8.14,8.14,0,0,0-5.45-2.35l-6.07-.23v15.49l6.07-.23a8.51,8.51,0,0,0,5.45-2.18A6.58,6.58,0,0,0,427.65,595.5Z"/><path class="cls-16" d="M510.59,624.52a10.61,10.61,0,0,1-.18,8.32,10.31,10.31,0,0,1-6.13,5.56,10.72,10.72,0,0,1-4.19.74,10.17,10.17,0,0,1-4-.91,11.12,11.12,0,0,1-3.39-2.41,10.73,10.73,0,0,1-2.29-3.62l-1.38-3H470.67l-1.38,3a10.73,10.73,0,0,1-2.29,3.62,11.2,11.2,0,0,1-3.38,2.41,10.26,10.26,0,0,1-4,.91,10.72,10.72,0,0,1-4.19-.74,10.31,10.31,0,0,1-6.13-5.56,10.57,10.57,0,0,1-.17-8.32l19.27-47a11,11,0,0,0,.8-3.1,11,11,0,0,1,1-3.5,6.77,6.77,0,0,1,2.7-2.81,11.19,11.19,0,0,1,5.67-1.14h1.27a9,9,0,0,1,6.19,2.23,17.33,17.33,0,0,1,4.13,5.68Zm-30.74-18-3.56,8.6h7.11Z"/><path class="cls-16" d="M580.1,627.16a17.16,17.16,0,0,1-.69,4.87,9.27,9.27,0,0,1-2.64,4.19,11.11,11.11,0,0,1-3.73,2.35,9.84,9.84,0,0,1-4.07.63,11.39,11.39,0,0,1-4-1,9.75,9.75,0,0,1-3.44-2.59l-23.17-28-.12,20.76a10.5,10.5,0,0,1-3,7.68,10.08,10.08,0,0,1-7.51,3.1,10.57,10.57,0,0,1-10.78-10.78v-49.9a25.65,25.65,0,0,0-.58-4.13,11.65,11.65,0,0,1-.28-3.72,3.71,3.71,0,0,1,1.55-2.7q1.36-1,5.16-1h4.93a9,9,0,0,1,4.59,1.2,18.13,18.13,0,0,1,4,3.27c.23.31.56.71,1,1.2l2,2.41,3.85,4.65q2.46,3,6.25,7.51t9.29,11.19l-.12-19.5a17.91,17.91,0,0,0-.51-4.19,12.46,12.46,0,0,1-.4-3.84,3.66,3.66,0,0,1,1.55-2.81q1.43-1.1,5.21-1.09h4.94a9.75,9.75,0,0,1,4,.86,11.19,11.19,0,0,1,3.44,2.35,11.92,11.92,0,0,1,2.41,3.44,9.62,9.62,0,0,1,.92,4.13Z"/><path class="cls-16" d="M633.66,566.94a10.49,10.49,0,0,1,7.63,3.09,10.92,10.92,0,0,1,2.3,11.93,11,11,0,0,1-2.3,3.39,10.79,10.79,0,0,1-3.44,2.29,10.41,10.41,0,0,1-4.19.86H626.9l-.23,39.92a10.54,10.54,0,0,1-3,7.68,10.73,10.73,0,0,1-15.09,0,10.62,10.62,0,0,1-3-7.68l-.23-39.92h-6.77a10.34,10.34,0,0,1-7.68-3.15,10.75,10.75,0,0,1,7.68-18.41Z"/><ellipse class="cls-17" cx="246.01" cy="462.47" rx="130.05" ry="18.62"/><path class="cls-18" d="M271.08,459.74l-23.21-10.91V387.41h-8.65v60.87l-23.37,13.78a4.32,4.32,0,0,0,4.39,7.45l19-11.19v11.26a4.33,4.33,0,0,0,8.65,0v-11.2l19.53,9.18a4.32,4.32,0,1,0,3.68-7.82Z"/><path class="cls-15" d="M311.5,379.38s2.47,21,3.09,22.24c0,0-1.85,0-2.47.62s-22.55,4.63-59.31,4.63-72.9-1.85-75.06-2.78-2.47-1.85-4.33-2.16c0,0,.31-15.76,2.16-22.55Z"/><path class="cls-19" d="M173.63,396.26s3.65,4,70.07,4,69.75-5.36,69.75-5.36l.39,2.68s-11.14,5.15-70.45,5.15-69.81-4-69.81-4Z"/><ellipse class="cls-20" cx="243.54" cy="379.53" rx="67.96" ry="6.64"/><path class="cls-18" d="M341.71,460.28c-.23-1.11-5.7-27.44-5.7-46.38a184.93,184.93,0,0,1,8.25-53.24c.3-1,.61-2,.66-2.3a.72.72,0,0,0,0,.19h3.88a13.9,13.9,0,0,1-.81,3.23,181,181,0,0,0-8.09,52.12c0,18.54,5.57,45.31,5.62,45.58Z"/><polygon class="cls-21" points="290.22 409.29 336.28 409.29 337.24 417.76 290.22 417.76 290.22 409.29"/><rect class="cls-18" x="289.75" y="427.15" width="48.98" height="4.04"/><rect class="cls-18" x="264.41" y="432.88" width="49.77" height="4.59" transform="translate(-177.68 669.71) rotate(-83.05)"/><path class="cls-22" d="M350.11,466.69l3.85-.81c-.06-.26-5.62-27.05-5.62-45.57,0-25.18,6.54-47.73,8.69-55.13a15.67,15.67,0,0,0,.86-3.49l-2.47-2.35c.2-1.53-1.28,0-1.27-.08,0,.28-.55,3.63-.9,4.82-2.19,7.54-8.85,30.49-8.85,56.23C344.4,439.24,349.87,465.58,350.11,466.69Z"/><rect class="cls-22" x="299.67" y="415.44" width="46" height="8.73"/><rect class="cls-22" x="298.17" y="433.55" width="48.98" height="4.04"/><rect class="cls-22" x="272.45" y="438.9" width="50.55" height="4.59" transform="translate(-175.83 684.16) rotate(-83.15)"/><polygon class="cls-18" points="299.55 415.66 290.22 409.3 289.39 417.37 298.6 423.35 299.55 415.66"/><path class="cls-18" d="M344.79,419.16c.56-.35.44-1.33.17-3s-7.55-5.63-9.25-6a133.92,133.92,0,0,0-21.47-1.88c-11.68-.16-23.45,1.39-24,2.21a3.55,3.55,0,0,0-.44,3c.36.71,7.4,5.19,9.12,5.79S344.23,419.5,344.79,419.16Z"/><path class="cls-23" d="M344.79,418c.56-.35.79-1.41.52-3.13s-7.9-5.54-9.6-5.87a133.21,133.21,0,0,0-21.47-1.87c-11.68-.17-23.45,1.38-24,2.2a3.56,3.56,0,0,0-.44,3c.36.71,7.4,5.19,9.12,5.79S344.23,418.3,344.79,418Z"/><path class="cls-23" d="M343.93,411.81A16.67,16.67,0,0,0,338.4,409a128.72,128.72,0,0,0-21.61-2c-11.68-.16-23.38,1.28-24,2.09-.1.16,1.86.77,3.75,1.88,2.92,1.72,4.57,3.81,6.19,3.66,26.4-2.43,37.32-.89,42.74-.05.28.05.11-.85-.38-1.62A5,5,0,0,0,343.93,411.81Z"/><path class="cls-23" d="M358.47,362.19a3,3,0,0,0-2.12-3.64l-9.23-2.36a3.06,3.06,0,0,0-3.69,2.15l-3.54,13.11A3.06,3.06,0,0,0,342,375.1l9.05,3.11a2.61,2.61,0,0,0,3.56-1.7Z"/><path class="cls-22" d="M359.69,362a3,3,0,0,0-2.18-3.73L348,355.82a3.13,3.13,0,0,0-3.77,2.21l-3.64,13.46a3.34,3.34,0,0,0,2.11,4l9.34,3a2.71,2.71,0,0,0,3.66-1.8Z"/><path class="cls-23" d="M358.85,362a3,3,0,0,0-2.12-3.64L347.49,356a3,3,0,0,0-3.68,2.15l-3.54,13.11a3.26,3.26,0,0,0,2.05,3.87l9.05,3.11a2.78,2.78,0,0,0,3.62-1.92Z"/><path class="cls-24" d="M345,358.07c-.4-.08-2.47-1.6-2.79-1.65,2-3.29,14.83,1.62,14.83,1.62,1.7.6,2,2.06,1.89,3.47-.9-.46-2.81-1.13-3.52.08s-3.74-2.33-4.57-2.4S348.37,358.67,345,358.07Z"/><path class="cls-23" d="M340.7,373.86a3,3,0,0,1-.39-.82l.53.1,1.49.85,2.65,1.29s1.1,0,1.45,0,5.19-.9,5.24.89c0,1.58,2.16,1.2,3.18.57a2.75,2.75,0,0,1-3.48,1.58l-6.2-2.13Z"/><path class="cls-24" d="M355.52,361.22a2.92,2.92,0,0,0-2.16-3.55l-8.57-2.16a3,3,0,0,0-3.58,2.19l-3.24,13a3.22,3.22,0,0,0,2.1,3.78l8.4,2.9a2.73,2.73,0,0,0,3.52-2Z"/><path class="cls-25" d="M295.3,462.35c0-.88,0-1.76,0-2.64A4.74,4.74,0,0,1,295.3,462.35Z"/><polygon class="cls-22" points="296.99 466.56 292.44 466.01 297.72 420.81 302.28 421.35 296.99 466.56"/><polygon class="cls-18" points="293.72 466.17 292.44 466.01 297.72 420.81 299.09 419.35 293.72 466.17"/><path class="cls-26" d="M329.48,412.72a22.41,22.41,0,0,1-3.75.21,6.49,6.49,0,0,0-1.59.13,1.2,1.2,0,0,1-.38,0,24.57,24.57,0,0,0-3.74.25c-1.1.1-2.19.1-3.29.17-.9.05-1.8.17-2.7.29-.65.09-1.31.08-2,.18-.92.15-1.87.17-2.8.27a28,28,0,0,0-4.18.56c-.21.06-.44.06-.58.26.05.16.19.11.3.11,1.79,0,3.58,0,5.36,0a24.75,24.75,0,0,0,2.72-.24c.5-.07,1-.08,1.49-.12,1.09-.08,2.18-.2,3.27-.3.1,0,.19,0,.28,0l3.47-.23c.37,0,.75-.06,1.12-.1.13,0,.25-.05.37-.05,2.14.06,4.26-.37,6.39-.18,2.57.22,5.14.1,7.71.15a5.51,5.51,0,0,1,1.21.11,1.19,1.19,0,0,0,.37.06,30.91,30.91,0,0,1,3.47.19,14,14,0,0,1,1.59.15,3.6,3.6,0,0,0,.66.05c.54,0,1.05-.06,1-.8s-1.47-2-1.78-2.29,4,2.23,3.11,6c-.83,2.1-2.7,1.49-3.78,1.47-5.71-.07-11.42.28-17.13.23-6.52-.06-13.05,0-19.58,0-1.82,0-3.63-.16-5.45-.23a5.72,5.72,0,0,1-2.49-1c-1.93-1.11-3.81-2.3-5.66-3.56a5,5,0,0,1-1.73-1.92.7.7,0,0,1,.19-.66,3.88,3.88,0,0,1,1.4.06c2.67.43,5.34.78,8,1.09l4.85.58a4.66,4.66,0,0,0,1.12,0c2.22-.25,4.43-.51,6.64-.73,1.75-.18,3.5-.21,5.26-.22h7.43l2.82,0A2.25,2.25,0,0,1,329.48,412.72Z"/><path class="cls-18" d="M150.12,460.28c.23-1.11,5.7-27.44,5.7-46.38a184.93,184.93,0,0,0-8.25-53.24c-.3-1-.62-2-.66-2.3a1.42,1.42,0,0,1,0,.19h-3.87a13.32,13.32,0,0,0,.81,3.23,181.12,181.12,0,0,1,8.08,52.12c0,18.54-5.56,45.31-5.62,45.58Z"/><polygon class="cls-21" points="201.61 409.29 155.55 409.29 154.59 417.76 201.61 417.76 201.61 409.29"/><rect class="cls-18" x="153.1" y="427.15" width="48.98" height="4.04"/><rect class="cls-18" x="200.23" y="410.29" width="4.59" height="49.77" transform="translate(-51.15 27.69) rotate(-6.95)"/><path class="cls-22" d="M141.72,466.69l-3.85-.81c.06-.26,5.62-27.05,5.62-45.57,0-25.18-6.55-47.73-8.69-55.13a15.67,15.67,0,0,1-.86-3.49l2.46-2.35c-.19-1.53,1.29,0,1.27-.08.05.28.56,3.63.9,4.82,2.19,7.54,8.85,30.49,8.85,56.23C147.42,439.24,142,465.58,141.72,466.69Z"/><rect class="cls-22" x="146.16" y="415.44" width="46" height="8.73"/><rect class="cls-22" x="144.67" y="433.55" width="48.98" height="4.04"/><rect class="cls-22" x="191.81" y="415.91" width="4.59" height="50.55" transform="translate(-51.25 26.31) rotate(-6.85)"/><polygon class="cls-18" points="192.28 415.66 201.61 409.3 202.43 417.37 193.23 423.35 192.28 415.66"/><path class="cls-18" d="M147,419.16c-.56-.35-.43-1.33-.16-3s7.54-5.63,9.24-6a133.92,133.92,0,0,1,21.47-1.88c11.69-.16,23.45,1.39,24,2.21a3.59,3.59,0,0,1,.44,3c-.36.71-7.4,5.19-9.12,5.79S147.59,419.5,147,419.16Z"/><path class="cls-23" d="M147,418c-.56-.35-.79-1.41-.51-3.13s7.89-5.54,9.59-5.87a133.21,133.21,0,0,1,21.47-1.87c11.69-.17,23.45,1.38,24,2.2a3.59,3.59,0,0,1,.44,3c-.36.71-7.4,5.19-9.12,5.79S147.59,418.3,147,418Z"/><path class="cls-23" d="M147.89,411.81a16.76,16.76,0,0,1,5.53-2.78A128.87,128.87,0,0,1,175,407c11.69-.16,23.39,1.28,24,2.09.11.16-1.86.77-3.74,1.88-2.92,1.72-4.58,3.81-6.19,3.66-26.4-2.43-37.32-.89-42.75-.05-.27.05-.11-.85.39-1.62A5,5,0,0,1,147.89,411.81Z"/><path class="cls-23" d="M133.35,362.19a3,3,0,0,1,2.13-3.64l9.23-2.36a3,3,0,0,1,3.68,2.15l3.54,13.11a3,3,0,0,1-2.1,3.65l-9.05,3.11a2.62,2.62,0,0,1-3.57-1.7Z"/><path class="cls-22" d="M132.14,362a3,3,0,0,1,2.17-3.73l9.48-2.43a3.14,3.14,0,0,1,3.78,2.21l3.63,13.46a3.33,3.33,0,0,1-2.1,4l-9.34,3a2.71,2.71,0,0,1-3.66-1.8Z"/><path class="cls-23" d="M133,362a3,3,0,0,1,2.12-3.64l9.24-2.36a3.05,3.05,0,0,1,3.68,2.15l3.54,13.11a3.26,3.26,0,0,1-2.05,3.87l-9.06,3.11a2.77,2.77,0,0,1-3.61-1.92Z"/><path class="cls-24" d="M146.82,358.07c.41-.08,2.48-1.6,2.79-1.65-2-3.29-14.82,1.62-14.82,1.62-1.7.6-2,2.06-1.9,3.47.91-.46,2.82-1.13,3.53.08s3.74-2.33,4.56-2.4S143.45,358.67,146.82,358.07Z"/><path class="cls-23" d="M151.13,373.86a3.26,3.26,0,0,0,.39-.82l-.53.1-1.5.85-2.64,1.29s-1.1,0-1.45,0-5.19-.9-5.24.89c0,1.58-2.17,1.2-3.19.57a2.75,2.75,0,0,0,3.48,1.58l6.2-2.13Z"/><path class="cls-24" d="M136.3,361.22a2.92,2.92,0,0,1,2.17-3.55l8.56-2.16a3,3,0,0,1,3.59,2.19l3.24,13a3.22,3.22,0,0,1-2.1,3.78l-8.4,2.9a2.74,2.74,0,0,1-3.53-2Z"/><path class="cls-25" d="M196.52,462.35c0-.88,0-1.76,0-2.64A4.83,4.83,0,0,0,196.52,462.35Z"/><polygon class="cls-22" points="194.83 466.56 199.39 466.01 194.1 420.81 189.55 421.35 194.83 466.56"/><polygon class="cls-18" points="198.11 466.17 199.39 466.01 194.1 420.81 192.73 419.35 198.11 466.17"/><path class="cls-26" d="M162.35,412.72a22.35,22.35,0,0,0,3.75.21,6.53,6.53,0,0,1,1.59.13,1.17,1.17,0,0,0,.37,0,24.7,24.7,0,0,1,3.75.25c1.1.1,2.19.1,3.28.17.91.05,1.81.17,2.71.29.65.09,1.31.08,2,.18.93.15,1.87.17,2.81.27a28,28,0,0,1,4.18.56c.2.06.43.06.58.26-.06.16-.2.11-.3.11-1.79,0-3.58,0-5.37,0a24.79,24.79,0,0,1-2.71-.24c-.5-.07-1-.08-1.5-.12-1.09-.08-2.18-.2-3.27-.3-.09,0-.18,0-.28,0l-3.46-.23c-.38,0-.75-.06-1.13-.1-.12,0-.24-.05-.37-.05-2.13.06-4.26-.37-6.38-.18-2.57.22-5.14.1-7.71.15a5.4,5.4,0,0,0-1.21.11,1.26,1.26,0,0,1-.38.06,30.73,30.73,0,0,0-3.46.19,14.42,14.42,0,0,0-1.6.15,3.49,3.49,0,0,1-.65.05c-.54,0-1.06-.06-1-.8s1.47-2,1.78-2.29-4,2.23-3.11,6c.83,2.1,2.7,1.49,3.78,1.47,5.71-.07,11.41.28,17.12.23,6.53-.06,13.06,0,19.58,0,1.83,0,3.64-.16,5.45-.23a5.7,5.7,0,0,0,2.5-1q2.9-1.67,5.65-3.56a4.94,4.94,0,0,0,1.74-1.92.7.7,0,0,0-.2-.66,3.89,3.89,0,0,0-1.4.06c-2.66.43-5.33.78-8,1.09l-4.86.58a4.67,4.67,0,0,1-1.12,0c-2.21-.25-4.42-.51-6.64-.73-1.74-.18-3.5-.21-5.25-.22h-7.44l-2.82,0A2.21,2.21,0,0,0,162.35,412.72Z"/></g></g></svg>