<svg id="Layer_3" data-name="Layer 3" xmlns="http://www.w3.org/2000/svg" viewBox="0 0 682 458"><defs><style>.cls-1{fill:#62892b;}.cls-1,.cls-3,.cls-4{fill-rule:evenodd;}.cls-2{opacity:0.2;}.cls-3{fill:#293616;}.cls-4{fill:#82a156;}.cls-5{fill:#896955;}</style></defs><path class="cls-1" d="M358,457.47c13.66-93.41-18.92-148.85-57.65-155.72-39.77-7-66.61-21.63-78.64-84.83S202.3,89.51,157.87,97.84,97.72,162.61,94,227.38s-31.45,57.37-69.4,82.76C-5,330,16.2,419.35,26.87,457.47Z"/><g class="cls-2"><path class="cls-3" d="M317.34,385.25c-18.06-12.6-54.59,12.61-83.72,9.37s-21.76-93.92-62.48-93.92-37.47,103.64-69.86,104.1-29.59-44.87-56-29.75c-21.76,12.47-7.64,64.55-2,82.42H305.57C315.58,433.7,329.8,394,317.34,385.25Z"/></g><path class="cls-4" d="M668.56,457.47c17-116.25-23.55-185.24-71.75-193.78-49.51-8.78-82.9-26.92-97.86-105.58S474.75-.43,419.48,9.93,344.65,90.53,340,171.13s-39.15,71.4-86.35,103c-36.89,24.68-10.52,135.9,2.79,183.34Z"/><g class="cls-2"><path class="cls-3" d="M614.93,367.61c-22.45-15.69-67.95,15.67-104.22,11.65S483.65,262.38,433,262.38s-46.64,129-87,129.55-36.84-55.85-69.66-37c-27,15.52-9.49,80.32-2.5,102.57H600.27C612.71,427.89,630.42,378.44,614.93,367.61Z"/></g><path class="cls-5" d="M431.12,458,421.54,457C438.83,300.64,419.15,70.81,419,68.5l9.59-.82C428.76,70,448.52,300.74,431.12,458Z"/><rect class="cls-5" x="418.84" y="94.88" width="39.91" height="9.64" transform="translate(103.03 399.27) rotate(-54.54)"/><rect class="cls-5" x="401.17" y="93.62" width="9.64" height="64.2" transform="translate(33.9 331.11) rotate(-46.1)"/><rect class="cls-5" x="419.95" y="184.76" width="73.07" height="9.64" transform="translate(10.48 402.64) rotate(-48.09)"/><rect class="cls-5" x="391.35" y="173.88" width="9.64" height="104.59" transform="translate(-42.65 350.85) rotate(-45.58)"/><rect class="cls-5" x="416.28" y="263.97" width="122.72" height="9.63" transform="translate(-52.63 407.33) rotate(-44.01)"/><rect class="cls-5" x="401.49" y="309.11" width="9.64" height="72.98" transform="translate(-125 392.89) rotate(-45.47)"/><rect class="cls-5" x="415.5" y="364.2" width="97.42" height="9.64" transform="translate(-122.89 452.57) rotate(-46.58)"/><path class="cls-5" d="M316.88,457.61c-3.14-109.79-22.54-143.56-22.74-143.89l8.24-5c.85,1.39,20.9,35.48,24.14,148.61Z"/><rect class="cls-5" x="305.5" y="383.97" width="54.88" height="9.65" transform="matrix(0.52, -0.85, 0.85, 0.52, -172.19, 471.55)"/><rect class="cls-5" x="284.18" y="376.7" width="9.63" height="65.54" transform="translate(-197.22 531.02) rotate(-68.82)"/><path class="cls-5" d="M577.93,457.61l-9.64-.28c2.1-73.4,7.77-118.79,15.57-124.54l2.86,3.87,3.55,3.23C589.89,340.42,580.89,354.07,577.93,457.61Z"/><rect class="cls-5" x="557.11" y="361.51" width="9.65" height="54.71" transform="translate(-120.21 347.95) rotate(-31.25)"/><rect class="cls-5" x="573.7" y="408.16" width="46.13" height="9.63" transform="translate(-108.95 243.73) rotate(-21.2)"/></svg>