<svg id="Layer_3" data-name="Layer 3" xmlns="http://www.w3.org/2000/svg" viewBox="0 0 1501 682"><defs><style>.cls-1{fill:#d67656;}.cls-2{fill:#753e2a;}.cls-3{fill:#35495e;}.cls-4{fill:#bf694d;}</style></defs><polygon class="cls-1" points="69.36 423.79 54.49 476.59 55.24 476.59 92.48 476.59 225.65 476.59 262.83 476.59 1211.74 476.59 1225.61 423.79 285.39 423.79 260.08 423.79 69.36 423.79"/><polygon class="cls-1" points="267.2 257.59 237.46 344.64 1403.21 344.64 1426.64 241.69 1412.64 241.85 1389.4 242.24 326.13 256.81 302.32 257.12 267.2 257.59"/><polygon class="cls-1" points="337.44 17.04 277.26 209.44 1440.14 182.16 1479.82 7.5 337.44 17.04"/><polygon class="cls-2" points="277.26 209.44 288.51 224.56 310.7 224.02 334.25 223.48 1397.33 197.27 1421.33 196.73 1452.01 195.96 1494.69 27.97 1479.82 7.5 1440.14 182.16 277.26 209.44"/><polygon class="cls-2" points="276.89 357.28 301.57 357.36 1368.09 361 1389.71 361.08 1410.64 361.16 1438.33 255.57 1426.64 241.69 1403.21 344.64 237.46 344.64 255.52 357.2 276.89 357.28"/><polygon class="cls-2" points="1225.61 423.79 1211.74 476.59 1211.93 476.59 1249.17 476.59 1368.09 476.59 1405.33 476.59 1392.58 423.79 1377.71 423.79 1356.96 423.79 1225.61 423.79"/><polygon class="cls-3" points="55.24 476.59 6.31 674.5 18.55 674.5 92.48 476.59 55.24 476.59"/><polygon class="cls-3" points="225.65 476.59 299.57 674.5 311.76 674.5 262.83 476.59 225.65 476.59"/><polygon class="cls-3" points="276.89 357.28 260.08 423.79 285.39 423.79 301.57 357.36 276.89 357.28"/><polygon class="cls-3" points="310.7 224.02 302.32 257.12 326.13 256.81 326.13 256.73 334.25 223.48 310.7 224.02"/><polygon class="cls-3" points="1211.93 476.59 1163 674.5 1175.24 674.5 1249.17 476.59 1211.93 476.59"/><polygon class="cls-3" points="1368.09 361.23 1356.96 423.79 1377.71 423.79 1389.71 361.16 1389.71 361.08 1368.09 361 1368.09 361.23"/><polygon class="cls-3" points="1368.09 476.59 1442.01 674.5 1454.26 674.5 1405.33 476.59 1368.09 476.59"/><polygon class="cls-3" points="1389.4 241.77 1389.4 242.24 1412.64 241.85 1412.64 241.69 1421.33 196.73 1397.33 197.27 1389.4 241.77"/><polygon class="cls-4" points="352.44 280.57 516.36 272.37 680.55 275 762.48 276.85 803.47 276.64 844.57 277.48 926.49 279.58 967.35 276.97 1008.35 274.56 1090.44 274.17 1172.3 272.94 1336.47 268.29 1418.57 277.14 1418.15 278.97 1417.94 278.95 1336.11 273.2 1172.54 278.26 1008.41 276.79 967.52 278.95 926.55 281.84 844.46 281 803.53 280.87 762.5 281.78 680.39 281.05 516.52 279 352.63 285.22 257.5 285.97 258.31 283.62 352.44 280.57"/><polygon class="cls-4" points="248.15 313.36 410.06 312.04 462.62 315.1 515.28 311.86 567.98 306.84 620.93 305.42 673.69 304.03 726.78 303.32 832.15 316.56 924.81 344.64 906.08 344.64 830.7 323.02 726.56 309.36 673.9 309.13 620.9 308.94 568.11 309.1 515.51 314.07 462.72 318.67 409.67 317.35 247.55 315.1 248.15 313.36"/><polygon class="cls-4" points="1007.98 312.7 1018.78 317.48 1054.99 344.64 1046.22 344.64 1015.98 323.18 1005.82 318.8 995.01 315.52 983.77 311.35 973.67 303.1 972.06 300.77 974.08 298.91 991.05 292.42 1007.82 292.41 1040.2 296.93 1056.01 299.27 1072.05 300.26 1104.35 301.31 1169.21 302.96 1233.89 307.3 1363.7 308.88 1379.88 310.99 1395.8 312.34 1410.3 313.51 1409.24 318.15 1395.51 317.42 1379.12 316.28 1363.13 314.46 1233.8 309.59 1169.12 305.56 1104.33 306.25 1071.82 306.05 1055.5 305.28 1039.21 303.12 1007.35 299.14 991.74 299.15 983.72 301.92 996.9 309.26 1007.98 312.7"/><polygon class="cls-4" points="1063.53 13.95 1022.52 41.05 976.56 58.29 927.5 63.83 831.61 44.91 807.75 40.34 783.58 38.92 735.05 42.07 686.09 43.75 637.54 41.36 539.91 41.47 515.53 39.17 491.17 35.98 467.07 29.27 447.32 16.12 456.56 16.04 469.29 24.11 492.19 29.88 516.19 32.7 540.35 34.86 637.63 35.31 686.38 38.66 734.8 38.56 783.59 36.66 808.02 38.37 832.07 42.73 927.79 58.51 975.07 52.85 1020.55 36.53 1058.29 11.02 1067.15 10.94 1063.53 13.95"/><polygon class="cls-4" points="1471.02 46.24 1345.36 44.08 1303.41 44.96 1261.41 42.51 1219.75 37.84 1178.98 38.09 1159.74 44.58 1140.96 53.84 1100.86 67 1018.29 81.27 998.04 86.21 978.31 93.02 937.32 102.1 895.38 99.65 853.81 93.96 771.38 82.41 750.78 83.43 730.15 86.48 688.26 90.62 604.14 89.23 562.49 84.43 520.88 80.1 437.69 68.39 355.56 55.2 325.04 56.69 326.29 52.69 355.7 50.55 438.9 62.38 521.54 73.51 563.24 77.72 604.76 82.56 687.93 84.58 729.39 80.89 750.23 78.17 771.45 77.48 854.44 90.5 895.71 96.9 937.26 99.84 977.63 91.16 997.46 84.26 1017.83 79.1 1100.02 63.52 1139.06 49.77 1157.63 40.11 1177.85 32.88 1220.4 32.26 1261.96 36.89 1303.52 39.67 1345.29 39.15 1471.4 44.55 1471.02 46.24"/><polygon class="cls-4" points="1386.88 96.98 1320.71 91.44 1255.28 81 1189.76 75.68 1124.75 86.18 1061.99 106.52 1032.5 121.33 1018.55 129.87 1010.3 138.01 1069.85 136.59 1133.63 141.44 1197.42 142.69 1229.28 141.61 1245.37 140.75 1261.74 141.39 1324.97 150.97 1388.57 148.89 1447.31 150.58 1446.57 153.84 1388.85 153.48 1324.59 157.01 1261.14 147.97 1229.65 148.33 1197.51 149.44 1133.27 147.54 1101.26 145.04 1069.41 141.67 1006.16 141.76 1001.97 142.51 1004.2 139 1016.64 127.13 1031.12 118.72 1061.08 104.39 1124.24 84.09 1156.62 76.9 1189.59 72.27 1256.03 75.77 1321.47 85.81 1387.21 92.03 1459.37 97.53 1458.78 100.11 1386.88 96.98"/><polygon class="cls-4" points="355.32 122.44 410.55 128.41 465.53 131.71 520.93 131.91 576.4 132.53 687.31 132.57 798.24 133.62 853.75 135.44 909.12 143.05 962.92 157.33 1016.67 170.13 1043.46 177.77 1069.91 185.75 1097.16 188.85 1102.04 190.09 1089.98 190.37 1069.19 188.92 1042.29 181.81 1015.56 175.03 961.21 163.28 907.74 149.53 853.36 142.13 798.05 139.67 687.26 136.09 465.5 137.03 409.84 134.01 354.92 127.35 303.89 124.33 304.8 121.4 355.32 122.44"/><polygon class="cls-4" points="406.75 174.59 444.94 173.74 483.28 172.68 559.95 171.14 636.67 171.88 713.29 178.69 751.11 185.97 787.2 197.48 770.26 197.88 749.78 192.02 712.29 185.25 559.92 174.66 483.36 174.9 445.15 177.31 406.81 179.92 330.1 177.46 291.78 174.25 288.47 173.62 289.43 170.55 292.16 170.9 330.3 172.53 406.75 174.59"/></svg>