<svg id="Layer_3" data-name="Layer 3" xmlns="http://www.w3.org/2000/svg" viewBox="0 0 1501 682"><defs><style>.cls-1{fill:#d67656;}.cls-2{fill:#753e2a;}.cls-3{fill:#35495e;}.cls-4{fill:#bf694d;}</style></defs><polygon class="cls-1" points="1431.64 423.79 1446.51 476.59 1445.76 476.59 1408.52 476.59 1275.35 476.59 1238.17 476.59 289.26 476.59 275.39 423.79 1215.61 423.79 1240.92 423.79 1431.64 423.79"/><polygon class="cls-1" points="1233.8 257.59 1263.54 344.64 97.79 344.64 74.36 241.69 88.36 241.85 111.6 242.24 1174.87 256.81 1198.68 257.12 1233.8 257.59"/><polygon class="cls-1" points="1163.56 17.04 1223.74 209.44 60.86 182.16 21.18 7.5 1163.56 17.04"/><polygon class="cls-2" points="1223.74 209.44 1212.49 224.56 1190.3 224.02 1166.75 223.48 103.67 197.27 79.67 196.73 48.99 195.96 6.31 27.97 21.18 7.5 60.86 182.16 1223.74 209.44"/><polygon class="cls-2" points="1224.11 357.28 1199.43 357.36 132.91 361 111.29 361.08 90.36 361.16 62.67 255.57 74.36 241.69 97.79 344.64 1263.54 344.64 1245.48 357.2 1224.11 357.28"/><polygon class="cls-2" points="275.39 423.79 289.26 476.59 289.07 476.59 251.83 476.59 132.91 476.59 95.67 476.59 108.42 423.79 123.29 423.79 144.03 423.79 275.39 423.79"/><polygon class="cls-3" points="1445.76 476.59 1494.69 674.5 1482.44 674.5 1408.52 476.59 1445.76 476.59"/><polygon class="cls-3" points="1275.35 476.59 1201.43 674.5 1189.24 674.5 1238.17 476.59 1275.35 476.59"/><polygon class="cls-3" points="1224.11 357.28 1240.92 423.79 1215.61 423.79 1199.43 357.36 1224.11 357.28"/><polygon class="cls-3" points="1190.3 224.02 1198.68 257.12 1174.87 256.81 1174.87 256.73 1166.75 223.48 1190.3 224.02"/><polygon class="cls-3" points="289.07 476.59 338 674.5 325.76 674.5 251.83 476.59 289.07 476.59"/><polygon class="cls-3" points="132.91 361.23 144.03 423.79 123.29 423.79 111.29 361.16 111.29 361.08 132.91 361 132.91 361.23"/><polygon class="cls-3" points="132.91 476.59 58.99 674.5 46.74 674.5 95.67 476.59 132.91 476.59"/><polygon class="cls-3" points="111.6 241.77 111.6 242.24 88.36 241.85 88.36 241.69 79.67 196.73 103.67 197.27 111.6 241.77"/><polygon class="cls-4" points="1148.56 280.57 984.64 272.37 820.45 275 738.52 276.85 697.53 276.64 656.43 277.48 574.51 279.58 533.65 276.97 492.65 274.56 410.56 274.17 328.7 272.94 164.53 268.29 82.43 277.14 82.84 278.97 83.06 278.95 164.89 273.2 328.46 278.26 492.59 276.79 533.48 278.95 574.45 281.84 656.54 281 697.47 280.87 738.5 281.78 820.61 281.05 984.48 279 1148.37 285.22 1243.5 285.97 1242.69 283.62 1148.56 280.57"/><polygon class="cls-4" points="1252.86 313.36 1090.94 312.04 1038.38 315.1 985.72 311.86 933.02 306.84 880.07 305.42 827.31 304.03 774.22 303.32 668.85 316.56 576.19 344.64 594.92 344.64 670.3 323.02 774.44 309.36 827.1 309.13 880.1 308.94 932.89 309.1 985.49 314.07 1038.28 318.67 1091.33 317.35 1253.45 315.1 1252.86 313.36"/><polygon class="cls-4" points="493.02 312.7 482.21 317.48 446.01 344.64 454.78 344.64 485.02 323.18 495.18 318.8 505.99 315.52 517.23 311.35 527.33 303.1 528.94 300.77 526.92 298.91 509.95 292.42 493.18 292.41 460.8 296.93 445 299.27 428.95 300.26 396.65 301.31 331.79 302.96 267.11 307.3 137.3 308.88 121.12 310.99 105.2 312.34 90.7 313.51 91.76 318.15 105.49 317.42 121.89 316.28 137.87 314.46 267.2 309.59 331.88 305.56 396.67 306.25 429.18 306.05 445.5 305.28 461.79 303.12 493.65 299.14 509.26 299.15 517.28 301.92 504.1 309.26 493.02 312.7"/><polygon class="cls-4" points="437.47 13.95 478.48 41.05 524.44 58.29 573.5 63.83 669.39 44.91 693.25 40.34 717.42 38.92 765.95 42.07 814.91 43.75 863.46 41.36 961.09 41.47 985.47 39.17 1009.83 35.98 1033.93 29.27 1053.68 16.12 1044.43 16.04 1031.71 24.11 1008.81 29.88 984.81 32.7 960.65 34.86 863.37 35.31 814.62 38.66 766.2 38.56 717.41 36.66 692.98 38.37 668.93 42.73 573.21 58.51 525.93 52.85 480.45 36.53 442.71 11.02 433.85 10.94 437.47 13.95"/><polygon class="cls-4" points="29.98 46.24 155.64 44.08 197.59 44.96 239.59 42.51 281.25 37.84 322.02 38.09 341.26 44.58 360.04 53.84 400.14 67 482.7 81.27 502.96 86.21 522.69 93.02 563.68 102.1 605.62 99.65 647.19 93.96 729.63 82.41 750.22 83.43 770.85 86.48 812.74 90.62 896.86 89.23 938.51 84.43 980.12 80.1 1063.31 68.39 1145.44 55.2 1175.96 56.69 1174.71 52.69 1145.3 50.55 1062.1 62.38 979.46 73.51 937.76 77.72 896.24 82.56 813.07 84.58 771.61 80.89 750.77 78.17 729.55 77.48 646.56 90.5 605.29 96.9 563.74 99.84 523.37 91.16 503.54 84.26 483.17 79.1 400.98 63.52 361.94 49.77 343.37 40.11 323.15 32.88 280.6 32.26 239.04 36.89 197.48 39.67 155.71 39.15 29.6 44.55 29.98 46.24"/><polygon class="cls-4" points="114.12 96.98 180.29 91.44 245.72 81 311.25 75.68 376.25 86.18 439.01 106.52 468.5 121.33 482.45 129.87 490.7 138.01 431.15 136.59 367.37 141.44 303.58 142.69 271.72 141.61 255.63 140.75 239.26 141.39 176.03 150.97 112.44 148.89 53.69 150.58 54.43 153.84 112.15 153.48 176.41 157.01 239.85 147.97 271.35 148.33 303.49 149.44 367.73 147.54 399.74 145.04 431.59 141.67 494.84 141.76 499.03 142.51 496.8 139 484.36 127.13 469.88 118.72 439.93 104.39 376.76 84.09 344.38 76.9 311.41 72.27 244.97 75.77 179.53 85.81 113.79 92.03 41.63 97.53 42.22 100.11 114.12 96.98"/><polygon class="cls-4" points="1145.68 122.44 1090.45 128.41 1035.47 131.71 980.07 131.91 924.6 132.53 813.69 132.57 702.76 133.62 647.25 135.44 591.88 143.05 538.08 157.33 484.33 170.13 457.54 177.77 431.09 185.75 403.84 188.85 398.96 190.09 411.02 190.37 431.81 188.92 458.71 181.81 485.44 175.03 539.79 163.28 593.26 149.53 647.64 142.13 702.95 139.67 813.74 136.09 1035.5 137.03 1091.16 134.01 1146.08 127.35 1197.11 124.33 1196.2 121.4 1145.68 122.44"/><polygon class="cls-4" points="1094.25 174.59 1056.06 173.74 1017.72 172.68 941.05 171.14 864.33 171.88 787.71 178.69 749.89 185.97 713.8 197.48 730.74 197.88 751.22 192.02 788.71 185.25 941.08 174.66 1017.64 174.9 1055.85 177.31 1094.19 179.92 1170.9 177.46 1209.22 174.25 1212.53 173.62 1211.57 170.55 1208.84 170.9 1170.7 172.53 1094.25 174.59"/></svg>