<svg xmlns="http://www.w3.org/2000/svg" viewBox="0 0 1322 1759.56"><defs><style>.cls-1{isolation:isolate;}.cls-2,.cls-5{fill:#7f6d5d;}.cls-3{fill:#68574b;}.cls-4{fill:#f2ebbf;}.cls-5{opacity:0.3;mix-blend-mode:multiply;}</style></defs><g class="cls-1"><g id="Layer_4" data-name="Layer 4"><path class="cls-2" d="M1322,1684.15a75.41,75.41,0,0,1-75.41,75.41H75.41A75.41,75.41,0,0,1,0,1684.15V243a75.41,75.41,0,0,1,75.41-75.41H1246.59A75.41,75.41,0,0,1,1322,243Z"/><path class="cls-2" d="M125.68,1545.44H1316.25a75.17,75.17,0,0,0,5.75-28.86V75.41A75.41,75.41,0,0,0,1246.59,0H75.41A75.41,75.41,0,0,0,0,75.41V1516.58A75.41,75.41,0,0,0,75.41,1592h50.27Z"/><path class="cls-3" d="M139.65,0H75.41A75.41,75.41,0,0,0,0,75.41V1684.15a75.41,75.41,0,0,0,75.41,75.41h64.24Z"/><path class="cls-4" d="M1270.8,1545.44H125.68a79.13,79.13,0,0,0,0,158.26H1270.8Z"/><rect class="cls-4" x="313.11" y="167.37" width="827.89" height="444.41" rx="49.31"/><path class="cls-5" d="M1246.59,0H716.85V1545.44h599.4a75.17,75.17,0,0,0,5.75-28.86V75.41A75.41,75.41,0,0,0,1246.59,0Z"/></g></g></svg>